%TF.GenerationSoftware,KiCad,Pcbnew,(6.0.0)*%
%TF.CreationDate,2022-08-13T16:18:09-04:00*%
%TF.ProjectId,eib-24-nanoz-adapter,6569622d-3234-42d6-9e61-6e6f7a2d6164,A*%
%TF.SameCoordinates,Original*%
%TF.FileFunction,Copper,L3,Inr*%
%TF.FilePolarity,Positive*%
%FSLAX46Y46*%
G04 Gerber Fmt 4.6, Leading zero omitted, Abs format (unit mm)*
G04 Created by KiCad (PCBNEW (6.0.0)) date 2022-08-13 16:18:09*
%MOMM*%
%LPD*%
G01*
G04 APERTURE LIST*
%TA.AperFunction,ComponentPad*%
%ADD10C,2.100000*%
%TD*%
%TA.AperFunction,ComponentPad*%
%ADD11R,2.100000X2.100000*%
%TD*%
%TA.AperFunction,ComponentPad*%
%ADD12R,0.990000X0.990000*%
%TD*%
%TA.AperFunction,ComponentPad*%
%ADD13C,0.990000*%
%TD*%
%TA.AperFunction,ViaPad*%
%ADD14C,0.400000*%
%TD*%
%TA.AperFunction,Conductor*%
%ADD15C,0.120000*%
%TD*%
%TA.AperFunction,Conductor*%
%ADD16C,0.200000*%
%TD*%
%TA.AperFunction,Conductor*%
%ADD17C,0.090000*%
%TD*%
G04 APERTURE END LIST*
D10*
%TO.N,/REF*%
%TO.C,J1*%
X147850000Y-97870000D03*
D11*
X147850000Y-95330000D03*
%TD*%
D12*
%TO.N,/E13*%
%TO.C,J4*%
X138095000Y-121285000D03*
D13*
%TO.N,/E15*%
X138095000Y-122555000D03*
%TO.N,/E17*%
X138095000Y-123825000D03*
%TO.N,/E19*%
X138095000Y-125095000D03*
%TO.N,/E21*%
X138095000Y-126365000D03*
%TO.N,/E23*%
X138095000Y-127635000D03*
%TO.N,unconnected-(J4-PadA7)*%
X138095000Y-128905000D03*
%TO.N,unconnected-(J4-PadA8)*%
X138095000Y-130175000D03*
%TO.N,unconnected-(J4-PadA9)*%
X138095000Y-131445000D03*
%TO.N,unconnected-(J4-PadA10)*%
X138095000Y-132715000D03*
%TO.N,/REF*%
X139365000Y-121285000D03*
X139365000Y-122555000D03*
%TO.N,unconnected-(J4-PadB3)*%
X139365000Y-123825000D03*
%TO.N,unconnected-(J4-PadB4)*%
X139365000Y-125095000D03*
%TO.N,/E20*%
X139365000Y-126365000D03*
%TO.N,/E22*%
X139365000Y-127635000D03*
%TO.N,unconnected-(J4-PadB7)*%
X139365000Y-128905000D03*
%TO.N,unconnected-(J4-PadB8)*%
X139365000Y-130175000D03*
%TO.N,unconnected-(J4-PadB9)*%
X139365000Y-131445000D03*
%TO.N,unconnected-(J4-PadB10)*%
X139365000Y-132715000D03*
%TO.N,/REF*%
X140635000Y-121285000D03*
%TO.N,unconnected-(J4-PadC2)*%
X140635000Y-122555000D03*
%TO.N,unconnected-(J4-PadC3)*%
X140635000Y-123825000D03*
%TO.N,unconnected-(J4-PadC4)*%
X140635000Y-125095000D03*
%TO.N,unconnected-(J4-PadC5)*%
X140635000Y-126365000D03*
%TO.N,unconnected-(J4-PadC6)*%
X140635000Y-127635000D03*
%TO.N,unconnected-(J4-PadC7)*%
X140635000Y-128905000D03*
%TO.N,unconnected-(J4-PadC8)*%
X140635000Y-130175000D03*
%TO.N,unconnected-(J4-PadC9)*%
X140635000Y-131445000D03*
%TO.N,unconnected-(J4-PadC10)*%
X140635000Y-132715000D03*
%TO.N,unconnected-(J4-PadD1)*%
X141905000Y-121285000D03*
%TO.N,unconnected-(J4-PadD2)*%
X141905000Y-122555000D03*
%TO.N,unconnected-(J4-PadD3)*%
X141905000Y-123825000D03*
%TO.N,unconnected-(J4-PadD4)*%
X141905000Y-125095000D03*
%TO.N,unconnected-(J4-PadD5)*%
X141905000Y-126365000D03*
%TO.N,unconnected-(J4-PadD6)*%
X141905000Y-127635000D03*
%TO.N,unconnected-(J4-PadD7)*%
X141905000Y-128905000D03*
%TO.N,unconnected-(J4-PadD8)*%
X141905000Y-130175000D03*
%TO.N,unconnected-(J4-PadD9)*%
X141905000Y-131445000D03*
%TO.N,unconnected-(J4-PadD10)*%
X141905000Y-132715000D03*
%TD*%
%TO.N,unconnected-(J3-PadD10)*%
%TO.C,J3*%
X141905000Y-115715000D03*
%TO.N,unconnected-(J3-PadD9)*%
X141905000Y-114445000D03*
%TO.N,unconnected-(J3-PadD8)*%
X141905000Y-113175000D03*
%TO.N,unconnected-(J3-PadD7)*%
X141905000Y-111905000D03*
%TO.N,unconnected-(J3-PadD6)*%
X141905000Y-110635000D03*
%TO.N,unconnected-(J3-PadD5)*%
X141905000Y-109365000D03*
%TO.N,unconnected-(J3-PadD4)*%
X141905000Y-108095000D03*
%TO.N,unconnected-(J3-PadD3)*%
X141905000Y-106825000D03*
%TO.N,unconnected-(J3-PadD2)*%
X141905000Y-105555000D03*
%TO.N,unconnected-(J3-PadD1)*%
X141905000Y-104285000D03*
%TO.N,unconnected-(J3-PadC10)*%
X140635000Y-115715000D03*
%TO.N,unconnected-(J3-PadC9)*%
X140635000Y-114445000D03*
%TO.N,unconnected-(J3-PadC8)*%
X140635000Y-113175000D03*
%TO.N,unconnected-(J3-PadC7)*%
X140635000Y-111905000D03*
%TO.N,unconnected-(J3-PadC6)*%
X140635000Y-110635000D03*
%TO.N,unconnected-(J3-PadC5)*%
X140635000Y-109365000D03*
%TO.N,unconnected-(J3-PadC4)*%
X140635000Y-108095000D03*
%TO.N,unconnected-(J3-PadC3)*%
X140635000Y-106825000D03*
%TO.N,unconnected-(J3-PadC2)*%
X140635000Y-105555000D03*
%TO.N,/REF*%
X140635000Y-104285000D03*
%TO.N,/E11*%
X139365000Y-115715000D03*
%TO.N,/E9*%
X139365000Y-114445000D03*
%TO.N,/E7*%
X139365000Y-113175000D03*
%TO.N,/E5*%
X139365000Y-111905000D03*
%TO.N,/E3*%
X139365000Y-110635000D03*
%TO.N,/E1*%
X139365000Y-109365000D03*
%TO.N,unconnected-(J3-PadB4)*%
X139365000Y-108095000D03*
%TO.N,unconnected-(J3-PadB3)*%
X139365000Y-106825000D03*
%TO.N,/REF*%
X139365000Y-105555000D03*
X139365000Y-104285000D03*
%TO.N,/E18*%
X138095000Y-115715000D03*
%TO.N,/E16*%
X138095000Y-114445000D03*
%TO.N,/E14*%
X138095000Y-113175000D03*
%TO.N,/E12*%
X138095000Y-111905000D03*
%TO.N,/E10*%
X138095000Y-110635000D03*
%TO.N,/E8*%
X138095000Y-109365000D03*
%TO.N,/E6*%
X138095000Y-108095000D03*
%TO.N,/E4*%
X138095000Y-106825000D03*
%TO.N,/E2*%
X138095000Y-105555000D03*
D12*
%TO.N,/E0*%
X138095000Y-104285000D03*
%TD*%
D14*
%TO.N,/E4*%
X135800000Y-122050000D03*
%TO.N,/E17*%
X134800000Y-124400000D03*
%TO.N,/E19*%
X133000000Y-125450000D03*
%TO.N,/E22*%
X131100000Y-130150000D03*
%TO.N,/E20*%
X132050000Y-127100000D03*
%TO.N,/E21*%
X131050000Y-126550000D03*
%TO.N,/E23*%
X130000000Y-128450000D03*
%TO.N,/E11*%
X131450000Y-116500000D03*
X133700000Y-116500000D03*
%TO.N,/E9*%
X130850000Y-115900000D03*
X133850000Y-115600000D03*
%TO.N,/E6*%
X134000000Y-117000000D03*
X134350000Y-113400000D03*
X136600000Y-111100000D03*
X136650000Y-110050000D03*
%TO.N,/E18*%
X134450000Y-119150000D03*
X136400000Y-118350000D03*
%TO.N,/E5*%
X134950000Y-116100000D03*
X134950000Y-113200000D03*
%TO.N,/E8*%
X134100000Y-111250000D03*
%TO.N,/E1*%
X144850000Y-110550000D03*
X142950000Y-110000000D03*
%TO.N,/E13*%
X138300000Y-118800000D03*
%TO.N,/E21*%
X137350000Y-156950000D03*
%TO.N,/E16*%
X140900000Y-156200000D03*
%TO.N,/E12*%
X143150000Y-158350000D03*
%TO.N,/E13*%
X142250000Y-158250000D03*
%TO.N,/E14*%
X142950000Y-157250000D03*
%TO.N,/E15*%
X141600000Y-157000000D03*
%TO.N,/E17*%
X140250000Y-157250000D03*
%TO.N,/E18*%
X139800000Y-156300000D03*
%TO.N,/E19*%
X139200000Y-156900000D03*
%TO.N,/E20*%
X138500000Y-156250000D03*
%TO.N,/E22*%
X138150000Y-157900000D03*
%TO.N,/E23*%
X137050000Y-158400000D03*
%TO.N,/E5*%
X140300000Y-161600000D03*
%TO.N,/E3*%
X143300000Y-161700000D03*
%TO.N,/E6*%
X139600000Y-161600000D03*
%TO.N,/E8*%
X136700000Y-161700000D03*
%TO.N,/E9*%
X136800000Y-161100000D03*
%TO.N,/E4*%
X141000000Y-161700000D03*
%TO.N,/E2*%
X143300000Y-161100000D03*
%TO.N,/E1*%
X142700000Y-161000000D03*
%TO.N,/E0*%
X142590774Y-160117244D03*
%TO.N,/E7*%
X138900000Y-161800000D03*
%TO.N,/E10*%
X137370000Y-161000000D03*
%TO.N,/E11*%
X137435748Y-160118888D03*
%TD*%
D15*
%TO.N,/E23*%
X137750000Y-142150000D02*
X130000000Y-134400000D01*
X137750000Y-155200000D02*
X137750000Y-142150000D01*
X136750000Y-156200000D02*
X137750000Y-155200000D01*
X130000000Y-134400000D02*
X130000000Y-128450000D01*
X136750000Y-158100000D02*
X136750000Y-156200000D01*
X137050000Y-158400000D02*
X136750000Y-158100000D01*
%TO.N,/E21*%
X138100000Y-155350000D02*
X138100000Y-141850000D01*
X138100000Y-141850000D02*
X130500000Y-134250000D01*
X130500000Y-134250000D02*
X130500000Y-127100000D01*
X130500000Y-127100000D02*
X131050000Y-126550000D01*
X137350000Y-156950000D02*
X137350000Y-156100000D01*
X137350000Y-156100000D02*
X138100000Y-155350000D01*
%TO.N,/E4*%
X135450000Y-109470000D02*
X135450000Y-121700000D01*
X135450000Y-121700000D02*
X135800000Y-122050000D01*
X138095000Y-106825000D02*
X135450000Y-109470000D01*
%TO.N,/E16*%
X140400000Y-155700000D02*
X140900000Y-156200000D01*
X140400000Y-139600000D02*
X140400000Y-155700000D01*
X136259501Y-135459501D02*
X140400000Y-139600000D01*
X136259501Y-121680378D02*
X136259501Y-135459501D01*
X135969622Y-121390499D02*
X136259501Y-121680378D01*
X137654990Y-114445000D02*
X137654990Y-115041304D01*
X138095000Y-114445000D02*
X137654990Y-114445000D01*
X137654990Y-115041304D02*
X135969622Y-116726672D01*
X135969622Y-116726672D02*
X135969622Y-121390499D01*
D16*
%TO.N,/REF*%
X147850000Y-97870000D02*
X147850000Y-95330000D01*
D15*
%TO.N,/E17*%
X134800000Y-134750000D02*
X134800000Y-124400000D01*
X140250000Y-155850000D02*
X140000000Y-155600000D01*
X140000000Y-139950000D02*
X134800000Y-134750000D01*
X140250000Y-157250000D02*
X140250000Y-155850000D01*
X140000000Y-155600000D02*
X140000000Y-139950000D01*
%TO.N,/E18*%
X134390499Y-119209501D02*
X134450000Y-119150000D01*
X139600000Y-140350000D02*
X134390499Y-135140499D01*
X139600000Y-156100000D02*
X139600000Y-140350000D01*
X134390499Y-135140499D02*
X134390499Y-119209501D01*
X139800000Y-156300000D02*
X139600000Y-156100000D01*
%TO.N,/E19*%
X133000000Y-125450000D02*
X133000000Y-134500000D01*
X133000000Y-134500000D02*
X139200000Y-140700000D01*
X139200000Y-140700000D02*
X139200000Y-156900000D01*
%TO.N,/E18*%
X138095000Y-115715000D02*
X138095000Y-116655000D01*
X138095000Y-116655000D02*
X136400000Y-118350000D01*
%TO.N,/E14*%
X142950000Y-156600000D02*
X142950000Y-157250000D01*
X144300000Y-115700000D02*
X144300000Y-136800000D01*
X141600000Y-139500000D02*
X141600000Y-155250000D01*
X141600000Y-155250000D02*
X142950000Y-156600000D01*
X142550000Y-113950000D02*
X144300000Y-115700000D01*
X144300000Y-136800000D02*
X141600000Y-139500000D01*
D17*
X142410479Y-113810479D02*
X142550000Y-113950000D01*
X138730479Y-113810479D02*
X142410479Y-113810479D01*
X138095000Y-113175000D02*
X138730479Y-113810479D01*
D15*
%TO.N,/E15*%
X137455000Y-122555000D02*
X138095000Y-122555000D01*
X137050000Y-122150000D02*
X137455000Y-122555000D01*
X137050000Y-120250000D02*
X137050000Y-122150000D01*
X137800000Y-119500000D02*
X137050000Y-120250000D01*
X142150000Y-119500000D02*
X137800000Y-119500000D01*
X140800000Y-138650000D02*
X143000000Y-136450000D01*
X140800000Y-155350000D02*
X140800000Y-138650000D01*
X141600000Y-156150000D02*
X140800000Y-155350000D01*
X143000000Y-120350000D02*
X142150000Y-119500000D01*
X141600000Y-157000000D02*
X141600000Y-156150000D01*
X143000000Y-136450000D02*
X143000000Y-120350000D01*
%TO.N,/E13*%
X138350000Y-118800000D02*
X138300000Y-118800000D01*
X142350000Y-118800000D02*
X138350000Y-118800000D01*
X142350000Y-118800000D02*
X143600000Y-120050000D01*
%TO.N,/E22*%
X131100000Y-134200000D02*
X131100000Y-130150000D01*
X138500000Y-141600000D02*
X131100000Y-134200000D01*
X137950000Y-156750000D02*
X137950000Y-155950000D01*
X138500000Y-155400000D02*
X138500000Y-141600000D01*
X138150000Y-156950000D02*
X137950000Y-156750000D01*
X138150000Y-157900000D02*
X138150000Y-156950000D01*
X137950000Y-155950000D02*
X138500000Y-155400000D01*
%TO.N,/E12*%
X143400000Y-158100000D02*
X143150000Y-158350000D01*
X141900000Y-155150000D02*
X143400000Y-156650000D01*
X145300000Y-136700000D02*
X141900000Y-140100000D01*
X141900000Y-140100000D02*
X141900000Y-155150000D01*
X143400000Y-156650000D02*
X143400000Y-158100000D01*
X145300000Y-114300000D02*
X145300000Y-136700000D01*
X142475000Y-111475000D02*
X145300000Y-114300000D01*
D17*
X142269521Y-111269521D02*
X142475000Y-111475000D01*
X138730479Y-111269521D02*
X142269521Y-111269521D01*
X138095000Y-111905000D02*
X138730479Y-111269521D01*
D15*
%TO.N,/E20*%
X132050000Y-134300000D02*
X132050000Y-127100000D01*
X132050000Y-134300000D02*
X138850000Y-141100000D01*
%TO.N,/E13*%
X143600000Y-136700000D02*
X143600000Y-120050000D01*
X141200000Y-155300000D02*
X141200000Y-139100000D01*
X141200000Y-139100000D02*
X143600000Y-136700000D01*
%TO.N,/E20*%
X138850000Y-155900000D02*
X138850000Y-141100000D01*
%TO.N,/E13*%
X141200000Y-155300000D02*
X142250000Y-156350000D01*
X142250000Y-158250000D02*
X142250000Y-156350000D01*
%TO.N,/E20*%
X138500000Y-156250000D02*
X138850000Y-155900000D01*
%TD*%
%TA.AperFunction,Conductor*%
%TO.N,/REF*%
G36*
X150984938Y-91751902D02*
G01*
X151000000Y-91754898D01*
X151009562Y-91752996D01*
X151019315Y-91752996D01*
X151019315Y-91753639D01*
X151031086Y-91753062D01*
X151106345Y-91760474D01*
X151136614Y-91763455D01*
X151155646Y-91767241D01*
X151277683Y-91804260D01*
X151295609Y-91811685D01*
X151408080Y-91871802D01*
X151424214Y-91882583D01*
X151522796Y-91963487D01*
X151536513Y-91977204D01*
X151617416Y-92075784D01*
X151628197Y-92091918D01*
X151639217Y-92112534D01*
X151688314Y-92204388D01*
X151695740Y-92222317D01*
X151720474Y-92303852D01*
X151732759Y-92344352D01*
X151736545Y-92363387D01*
X151746938Y-92468914D01*
X151746361Y-92480685D01*
X151747004Y-92480685D01*
X151747004Y-92490438D01*
X151745102Y-92500000D01*
X151747004Y-92509562D01*
X151748098Y-92515062D01*
X151750000Y-92534376D01*
X151750000Y-133855438D01*
X151731093Y-133913629D01*
X151721004Y-133925442D01*
X142497528Y-143148919D01*
X142482526Y-143161230D01*
X142469760Y-143169760D01*
X142455812Y-143190635D01*
X142414505Y-143252455D01*
X142412603Y-143262017D01*
X142406598Y-143292206D01*
X142376701Y-143345590D01*
X142321136Y-143371206D01*
X142261126Y-143359269D01*
X142219594Y-143314339D01*
X142210500Y-143272892D01*
X142210500Y-140269621D01*
X142229407Y-140211430D01*
X142239496Y-140199617D01*
X145480367Y-136958746D01*
X145483732Y-136955842D01*
X145488334Y-136953592D01*
X145523116Y-136916097D01*
X145525692Y-136913421D01*
X145539975Y-136899138D01*
X145542556Y-136895377D01*
X145542700Y-136895203D01*
X145546253Y-136891156D01*
X145567000Y-136868790D01*
X145571546Y-136857397D01*
X145581857Y-136838086D01*
X145583620Y-136835515D01*
X145583620Y-136835514D01*
X145588792Y-136827975D01*
X145595203Y-136800962D01*
X145599575Y-136787139D01*
X145607273Y-136767844D01*
X145607273Y-136767843D01*
X145609862Y-136761354D01*
X145610500Y-136754847D01*
X145610500Y-136748092D01*
X145613175Y-136725232D01*
X145613391Y-136724324D01*
X145613391Y-136724322D01*
X145615501Y-136715431D01*
X145611404Y-136685328D01*
X145610500Y-136671977D01*
X145610500Y-114355427D01*
X145610826Y-114350987D01*
X145612489Y-114346144D01*
X145610570Y-114295023D01*
X145610500Y-114291309D01*
X145610500Y-114271124D01*
X145609664Y-114266633D01*
X145609642Y-114266400D01*
X145609293Y-114261009D01*
X145608493Y-114239689D01*
X145608493Y-114239688D01*
X145608150Y-114230555D01*
X145603308Y-114219284D01*
X145596944Y-114198337D01*
X145596372Y-114195268D01*
X145594699Y-114186285D01*
X145580133Y-114162653D01*
X145573452Y-114149791D01*
X145565248Y-114130699D01*
X145565247Y-114130698D01*
X145562489Y-114124278D01*
X145558339Y-114119226D01*
X145553559Y-114114446D01*
X145539291Y-114096395D01*
X145534004Y-114087818D01*
X145526732Y-114082288D01*
X145526729Y-114082285D01*
X145509821Y-114069428D01*
X145499741Y-114060628D01*
X142674138Y-111235025D01*
X142614127Y-111193857D01*
X142600125Y-111182224D01*
X142559124Y-111141223D01*
X142531347Y-111086706D01*
X142540918Y-111026274D01*
X142546669Y-111016433D01*
X142556496Y-111001643D01*
X142572255Y-110977923D01*
X142576139Y-110967700D01*
X142629682Y-110826746D01*
X142631648Y-110821571D01*
X142654925Y-110655947D01*
X142655217Y-110635000D01*
X142654660Y-110630028D01*
X142645059Y-110544440D01*
X144394901Y-110544440D01*
X144395816Y-110551437D01*
X144395816Y-110551438D01*
X144397082Y-110561120D01*
X144411633Y-110672394D01*
X144414471Y-110678845D01*
X144414472Y-110678847D01*
X144449601Y-110758684D01*
X144463605Y-110790510D01*
X144494065Y-110826746D01*
X144542100Y-110883892D01*
X144542103Y-110883894D01*
X144546639Y-110889291D01*
X144654060Y-110960796D01*
X144660788Y-110962898D01*
X144660790Y-110962899D01*
X144708880Y-110977923D01*
X144777233Y-110999278D01*
X144841744Y-111000461D01*
X144899202Y-111001514D01*
X144899204Y-111001514D01*
X144906255Y-111001643D01*
X144913058Y-110999788D01*
X144913060Y-110999788D01*
X144954828Y-110988400D01*
X145030755Y-110967700D01*
X145140724Y-110900179D01*
X145199884Y-110834820D01*
X145222590Y-110809735D01*
X145222590Y-110809734D01*
X145227322Y-110804507D01*
X145283588Y-110688375D01*
X145295254Y-110619035D01*
X145304363Y-110564891D01*
X145304363Y-110564886D01*
X145304997Y-110561120D01*
X145305133Y-110550000D01*
X145286839Y-110422259D01*
X145233428Y-110304788D01*
X145149193Y-110207028D01*
X145143276Y-110203193D01*
X145143274Y-110203191D01*
X145046824Y-110140677D01*
X145040906Y-110136841D01*
X145034150Y-110134821D01*
X145034149Y-110134820D01*
X144991335Y-110122016D01*
X144917273Y-110099866D01*
X144840644Y-110099398D01*
X144795282Y-110099121D01*
X144788231Y-110099078D01*
X144781454Y-110101015D01*
X144781453Y-110101015D01*
X144670935Y-110132601D01*
X144670933Y-110132602D01*
X144664155Y-110134539D01*
X144555019Y-110203399D01*
X144469596Y-110300122D01*
X144414754Y-110416932D01*
X144394901Y-110544440D01*
X142645059Y-110544440D01*
X142642478Y-110521427D01*
X142654781Y-110461492D01*
X142699964Y-110420234D01*
X142760768Y-110413414D01*
X142770384Y-110415896D01*
X142877233Y-110449278D01*
X142941744Y-110450461D01*
X142999202Y-110451514D01*
X142999204Y-110451514D01*
X143006255Y-110451643D01*
X143013058Y-110449788D01*
X143013060Y-110449788D01*
X143054828Y-110438400D01*
X143130755Y-110417700D01*
X143240724Y-110350179D01*
X143286649Y-110299442D01*
X143322590Y-110259735D01*
X143322590Y-110259734D01*
X143327322Y-110254507D01*
X143383588Y-110138375D01*
X143397228Y-110057299D01*
X143404363Y-110014891D01*
X143404363Y-110014886D01*
X143404997Y-110011120D01*
X143405133Y-110000000D01*
X143386839Y-109872259D01*
X143364324Y-109822741D01*
X143336349Y-109761212D01*
X143336348Y-109761211D01*
X143333428Y-109754788D01*
X143249193Y-109657028D01*
X143243276Y-109653193D01*
X143243274Y-109653191D01*
X143146824Y-109590677D01*
X143140906Y-109586841D01*
X143134150Y-109584821D01*
X143134149Y-109584820D01*
X143083314Y-109569617D01*
X143017273Y-109549866D01*
X142940644Y-109549398D01*
X142895282Y-109549121D01*
X142888231Y-109549078D01*
X142881454Y-109551015D01*
X142881453Y-109551015D01*
X142825955Y-109566877D01*
X142767713Y-109583522D01*
X142706568Y-109581333D01*
X142658386Y-109543622D01*
X142641572Y-109484792D01*
X142642472Y-109474555D01*
X142654492Y-109389027D01*
X142654925Y-109385947D01*
X142655217Y-109365000D01*
X142654660Y-109360028D01*
X142643056Y-109256579D01*
X142636574Y-109198791D01*
X142581570Y-109040842D01*
X142492940Y-108899004D01*
X142393509Y-108798876D01*
X142365923Y-108744263D01*
X142375706Y-108683865D01*
X142395484Y-108657428D01*
X142479700Y-108577230D01*
X142572255Y-108437923D01*
X142631648Y-108281571D01*
X142654925Y-108115947D01*
X142655217Y-108095000D01*
X142636574Y-107928791D01*
X142581570Y-107770842D01*
X142492940Y-107629004D01*
X142393509Y-107528876D01*
X142365923Y-107474263D01*
X142375706Y-107413865D01*
X142395484Y-107387428D01*
X142479700Y-107307230D01*
X142572255Y-107167923D01*
X142631648Y-107011571D01*
X142654925Y-106845947D01*
X142655217Y-106825000D01*
X142654660Y-106820028D01*
X142637191Y-106664296D01*
X142636574Y-106658791D01*
X142581570Y-106500842D01*
X142492940Y-106359004D01*
X142393509Y-106258876D01*
X142365923Y-106204263D01*
X142375706Y-106143865D01*
X142395484Y-106117428D01*
X142479700Y-106037230D01*
X142572255Y-105897923D01*
X142631648Y-105741571D01*
X142654925Y-105575947D01*
X142655217Y-105555000D01*
X142654660Y-105550028D01*
X142637191Y-105394296D01*
X142636574Y-105388791D01*
X142581570Y-105230842D01*
X142492940Y-105089004D01*
X142393510Y-104988877D01*
X142365923Y-104934263D01*
X142375706Y-104873865D01*
X142395484Y-104847428D01*
X142479700Y-104767230D01*
X142572255Y-104627923D01*
X142594877Y-104568372D01*
X142629682Y-104476746D01*
X142631648Y-104471571D01*
X142654925Y-104305947D01*
X142655217Y-104285000D01*
X142654564Y-104279172D01*
X142637191Y-104124296D01*
X142636574Y-104118791D01*
X142581570Y-103960842D01*
X142492940Y-103819004D01*
X142375089Y-103700327D01*
X142295203Y-103649630D01*
X142238544Y-103613673D01*
X142238542Y-103613672D01*
X142233873Y-103610709D01*
X142124219Y-103571663D01*
X142081526Y-103556461D01*
X142081524Y-103556461D01*
X142076313Y-103554605D01*
X142056849Y-103552284D01*
X141915733Y-103535456D01*
X141915730Y-103535456D01*
X141910237Y-103534801D01*
X141743902Y-103552284D01*
X141664737Y-103579234D01*
X141590815Y-103604398D01*
X141590811Y-103604400D01*
X141585573Y-103606183D01*
X141580863Y-103609081D01*
X141580858Y-103609083D01*
X141454913Y-103686566D01*
X141452695Y-103687261D01*
X141430219Y-103701913D01*
X139435004Y-105697128D01*
X139380487Y-105724905D01*
X139320055Y-105715334D01*
X139294996Y-105697128D01*
X138728737Y-105130869D01*
X138700960Y-105076352D01*
X138710531Y-105015920D01*
X138743739Y-104978550D01*
X138762490Y-104966021D01*
X138762491Y-104966020D01*
X138770601Y-104960601D01*
X138788200Y-104934263D01*
X138788714Y-104933493D01*
X138836763Y-104895613D01*
X138897901Y-104893209D01*
X138939755Y-104922377D01*
X138942132Y-104920000D01*
X139353914Y-105331782D01*
X139365797Y-105337836D01*
X139370828Y-105337040D01*
X139776782Y-104931086D01*
X139782836Y-104919203D01*
X139782040Y-104914172D01*
X139376086Y-104508218D01*
X139364203Y-104502164D01*
X139359172Y-104502960D01*
X139009504Y-104852628D01*
X138954987Y-104880405D01*
X138894555Y-104870834D01*
X138851290Y-104827569D01*
X138840500Y-104782624D01*
X138840500Y-104638376D01*
X138859407Y-104580185D01*
X138869496Y-104568372D01*
X139152071Y-104285797D01*
X139582164Y-104285797D01*
X139582960Y-104290828D01*
X139988914Y-104696782D01*
X140000797Y-104702836D01*
X140005828Y-104702040D01*
X140411782Y-104296086D01*
X140417836Y-104284203D01*
X140417040Y-104279172D01*
X140011086Y-103873218D01*
X139999203Y-103867164D01*
X139994172Y-103867960D01*
X139588218Y-104273914D01*
X139582164Y-104285797D01*
X139152071Y-104285797D01*
X139929996Y-103507872D01*
X139974171Y-103485365D01*
X140017788Y-103485365D01*
X140044945Y-103489666D01*
X140070004Y-103507872D01*
X140623914Y-104061782D01*
X140635797Y-104067836D01*
X140640828Y-104067040D01*
X141214559Y-103493309D01*
X141220613Y-103481426D01*
X141220180Y-103478692D01*
X141217829Y-103475757D01*
X141197821Y-103459205D01*
X141189827Y-103453813D01*
X141026698Y-103365608D01*
X141017827Y-103361879D01*
X140840663Y-103307038D01*
X140831229Y-103305101D01*
X140646796Y-103285716D01*
X140637158Y-103285649D01*
X140452474Y-103302456D01*
X140443008Y-103304262D01*
X140265110Y-103356621D01*
X140256169Y-103360234D01*
X140091836Y-103446145D01*
X140083759Y-103451430D01*
X140062840Y-103468250D01*
X140017788Y-103485365D01*
X139974171Y-103485365D01*
X139979209Y-103482798D01*
X139946598Y-103473938D01*
X139937697Y-103467376D01*
X139927816Y-103459201D01*
X139919827Y-103453813D01*
X139756698Y-103365608D01*
X139747827Y-103361879D01*
X139570663Y-103307038D01*
X139561229Y-103305101D01*
X139376796Y-103285716D01*
X139367158Y-103285649D01*
X139182474Y-103302456D01*
X139173008Y-103304262D01*
X138995110Y-103356621D01*
X138986169Y-103360234D01*
X138821836Y-103446145D01*
X138813760Y-103451429D01*
X138722482Y-103524819D01*
X138665284Y-103546547D01*
X138641134Y-103544763D01*
X138626841Y-103541920D01*
X138614674Y-103539500D01*
X137575326Y-103539500D01*
X137502260Y-103554034D01*
X137419399Y-103609399D01*
X137364034Y-103692260D01*
X137349500Y-103765326D01*
X137349500Y-104804674D01*
X137364034Y-104877740D01*
X137419399Y-104960601D01*
X137427509Y-104966020D01*
X137458465Y-104986704D01*
X137496345Y-105034754D01*
X137498747Y-105095892D01*
X137486681Y-105122648D01*
X137423022Y-105221427D01*
X137365818Y-105378592D01*
X137344856Y-105544525D01*
X137347937Y-105575947D01*
X137360637Y-105705477D01*
X137360638Y-105705482D01*
X137361177Y-105710979D01*
X137413970Y-105869680D01*
X137416835Y-105874411D01*
X137416837Y-105874415D01*
X137497744Y-106008008D01*
X137497747Y-106008012D01*
X137500611Y-106012741D01*
X137504454Y-106016721D01*
X137504459Y-106016727D01*
X137606450Y-106122341D01*
X137633273Y-106177334D01*
X137622648Y-106237589D01*
X137604504Y-106261844D01*
X137513623Y-106350841D01*
X137423022Y-106491427D01*
X137365818Y-106648592D01*
X137344856Y-106814525D01*
X137347937Y-106845947D01*
X137360637Y-106975477D01*
X137360638Y-106975482D01*
X137361177Y-106980979D01*
X137376507Y-107027061D01*
X137376934Y-107088245D01*
X137352572Y-107128315D01*
X135269633Y-109211254D01*
X135266268Y-109214158D01*
X135261666Y-109216408D01*
X135226999Y-109253779D01*
X135226884Y-109253903D01*
X135224308Y-109256579D01*
X135210025Y-109270862D01*
X135207444Y-109274623D01*
X135207300Y-109274797D01*
X135203747Y-109278844D01*
X135183000Y-109301210D01*
X135179613Y-109309700D01*
X135179612Y-109309701D01*
X135178454Y-109312603D01*
X135168143Y-109331914D01*
X135166380Y-109334485D01*
X135161208Y-109342025D01*
X135155756Y-109365000D01*
X135154798Y-109369036D01*
X135150425Y-109382861D01*
X135140138Y-109408646D01*
X135139500Y-109415153D01*
X135139500Y-109421909D01*
X135136825Y-109444769D01*
X135134499Y-109454570D01*
X135135732Y-109463626D01*
X135138596Y-109484673D01*
X135139500Y-109498024D01*
X135139500Y-112654249D01*
X135120593Y-112712440D01*
X135071093Y-112748404D01*
X135025866Y-112752161D01*
X135024028Y-112751886D01*
X135017273Y-112749866D01*
X134952752Y-112749472D01*
X134895282Y-112749121D01*
X134888231Y-112749078D01*
X134881454Y-112751015D01*
X134881453Y-112751015D01*
X134770935Y-112782601D01*
X134770933Y-112782602D01*
X134764155Y-112784539D01*
X134655019Y-112853399D01*
X134606266Y-112908601D01*
X134579859Y-112938501D01*
X134527167Y-112969601D01*
X134477289Y-112967815D01*
X134417273Y-112949866D01*
X134340644Y-112949398D01*
X134295282Y-112949121D01*
X134288231Y-112949078D01*
X134281454Y-112951015D01*
X134281453Y-112951015D01*
X134170935Y-112982601D01*
X134170933Y-112982602D01*
X134164155Y-112984539D01*
X134158191Y-112988302D01*
X134150133Y-112993386D01*
X134055019Y-113053399D01*
X133969596Y-113150122D01*
X133914754Y-113266932D01*
X133894901Y-113394440D01*
X133911633Y-113522394D01*
X133914471Y-113528845D01*
X133914472Y-113528847D01*
X133960213Y-113632801D01*
X133963605Y-113640510D01*
X133975371Y-113654507D01*
X134042100Y-113733892D01*
X134042103Y-113733894D01*
X134046639Y-113739291D01*
X134154060Y-113810796D01*
X134160788Y-113812898D01*
X134160790Y-113812899D01*
X134215646Y-113830037D01*
X134277233Y-113849278D01*
X134341744Y-113850460D01*
X134399202Y-113851514D01*
X134399204Y-113851514D01*
X134406255Y-113851643D01*
X134413058Y-113849788D01*
X134413060Y-113849788D01*
X134454828Y-113838400D01*
X134530755Y-113817700D01*
X134640724Y-113750179D01*
X134714333Y-113668857D01*
X134721571Y-113660861D01*
X134774640Y-113630407D01*
X134824491Y-113632801D01*
X134870500Y-113647175D01*
X134870504Y-113647176D01*
X134877233Y-113649278D01*
X134941744Y-113650461D01*
X134999202Y-113651514D01*
X134999204Y-113651514D01*
X135006255Y-113651643D01*
X135014460Y-113649406D01*
X135015662Y-113649464D01*
X135020060Y-113648916D01*
X135020155Y-113649680D01*
X135075574Y-113652341D01*
X135123292Y-113690638D01*
X135139500Y-113744920D01*
X135139500Y-115554249D01*
X135120593Y-115612440D01*
X135071093Y-115648404D01*
X135025866Y-115652161D01*
X135024028Y-115651886D01*
X135017273Y-115649866D01*
X134952752Y-115649472D01*
X134895282Y-115649121D01*
X134888231Y-115649078D01*
X134881454Y-115651015D01*
X134881453Y-115651015D01*
X134770935Y-115682601D01*
X134770933Y-115682602D01*
X134764155Y-115684539D01*
X134655019Y-115753399D01*
X134569596Y-115850122D01*
X134514754Y-115966932D01*
X134494901Y-116094440D01*
X134511633Y-116222394D01*
X134514471Y-116228845D01*
X134514472Y-116228847D01*
X134550868Y-116311563D01*
X134563605Y-116340510D01*
X134598149Y-116381605D01*
X134642100Y-116433892D01*
X134642103Y-116433894D01*
X134646639Y-116439291D01*
X134754060Y-116510796D01*
X134760788Y-116512898D01*
X134760790Y-116512899D01*
X134815646Y-116530037D01*
X134877233Y-116549278D01*
X134941744Y-116550460D01*
X134999202Y-116551514D01*
X134999204Y-116551514D01*
X135006255Y-116551643D01*
X135014460Y-116549406D01*
X135015662Y-116549464D01*
X135020060Y-116548916D01*
X135020155Y-116549680D01*
X135075574Y-116552341D01*
X135123292Y-116590638D01*
X135139500Y-116644920D01*
X135139500Y-121644573D01*
X135139174Y-121649013D01*
X135137511Y-121653856D01*
X135137854Y-121662990D01*
X135139430Y-121704977D01*
X135139500Y-121708691D01*
X135139500Y-121728876D01*
X135140336Y-121733367D01*
X135140358Y-121733600D01*
X135140707Y-121738987D01*
X135141850Y-121769445D01*
X135146692Y-121780716D01*
X135153056Y-121801663D01*
X135155301Y-121813715D01*
X135160095Y-121821492D01*
X135160095Y-121821493D01*
X135169867Y-121837347D01*
X135176548Y-121850209D01*
X135182067Y-121863052D01*
X135187511Y-121875722D01*
X135191661Y-121880774D01*
X135196441Y-121885554D01*
X135210709Y-121903605D01*
X135215996Y-121912182D01*
X135223268Y-121917712D01*
X135223271Y-121917715D01*
X135240179Y-121930572D01*
X135250259Y-121939372D01*
X135319536Y-122008649D01*
X135347696Y-122065816D01*
X135353575Y-122110774D01*
X135361633Y-122172394D01*
X135364471Y-122178845D01*
X135364472Y-122178847D01*
X135410764Y-122284054D01*
X135413605Y-122290510D01*
X135448298Y-122331782D01*
X135492100Y-122383892D01*
X135492103Y-122383894D01*
X135496639Y-122389291D01*
X135604060Y-122460796D01*
X135610788Y-122462898D01*
X135610790Y-122462899D01*
X135665646Y-122480037D01*
X135727233Y-122499278D01*
X135785390Y-122500344D01*
X135851816Y-122501562D01*
X135909650Y-122521532D01*
X135944701Y-122571683D01*
X135949001Y-122600545D01*
X135949001Y-135220880D01*
X135930094Y-135279071D01*
X135880594Y-135315035D01*
X135819408Y-135315035D01*
X135779997Y-135290884D01*
X135139496Y-134650383D01*
X135111719Y-134595866D01*
X135110500Y-134580379D01*
X135110500Y-124766482D01*
X135129407Y-124708291D01*
X135136102Y-124700046D01*
X135172590Y-124659735D01*
X135172590Y-124659734D01*
X135177322Y-124654507D01*
X135233588Y-124538375D01*
X135246773Y-124460002D01*
X135254363Y-124414891D01*
X135254363Y-124414886D01*
X135254997Y-124411120D01*
X135255133Y-124400000D01*
X135236839Y-124272259D01*
X135218464Y-124231846D01*
X135186349Y-124161212D01*
X135186348Y-124161211D01*
X135183428Y-124154788D01*
X135099193Y-124057028D01*
X135093276Y-124053193D01*
X135093274Y-124053191D01*
X134996824Y-123990677D01*
X134990906Y-123986841D01*
X134984150Y-123984821D01*
X134984149Y-123984820D01*
X134900218Y-123959719D01*
X134867273Y-123949866D01*
X134850510Y-123949764D01*
X134799394Y-123949451D01*
X134741320Y-123930188D01*
X134705659Y-123880469D01*
X134700999Y-123850453D01*
X134700999Y-119578340D01*
X134719906Y-119520149D01*
X134735782Y-119503213D01*
X134740724Y-119500179D01*
X134827322Y-119404507D01*
X134883588Y-119288375D01*
X134899885Y-119191507D01*
X134904363Y-119164891D01*
X134904363Y-119164886D01*
X134904997Y-119161120D01*
X134905133Y-119150000D01*
X134886839Y-119022259D01*
X134841433Y-118922394D01*
X134836349Y-118911212D01*
X134836348Y-118911211D01*
X134833428Y-118904788D01*
X134749193Y-118807028D01*
X134743276Y-118803193D01*
X134743274Y-118803191D01*
X134646824Y-118740677D01*
X134640906Y-118736841D01*
X134634150Y-118734821D01*
X134634149Y-118734820D01*
X134530664Y-118703871D01*
X134517273Y-118699866D01*
X134440644Y-118699398D01*
X134395282Y-118699121D01*
X134388231Y-118699078D01*
X134381454Y-118701015D01*
X134381453Y-118701015D01*
X134270935Y-118732601D01*
X134270933Y-118732602D01*
X134264155Y-118734539D01*
X134155019Y-118803399D01*
X134069596Y-118900122D01*
X134014754Y-119016932D01*
X133994901Y-119144440D01*
X133995816Y-119151437D01*
X133995816Y-119151438D01*
X134000929Y-119190536D01*
X134011633Y-119272394D01*
X134014471Y-119278845D01*
X134014472Y-119278847D01*
X134028913Y-119311666D01*
X134063605Y-119390510D01*
X134065605Y-119392890D01*
X134079999Y-119443250D01*
X134079999Y-134901878D01*
X134061092Y-134960069D01*
X134011592Y-134996033D01*
X133950406Y-134996033D01*
X133910995Y-134971882D01*
X133339496Y-134400383D01*
X133311719Y-134345866D01*
X133310500Y-134330379D01*
X133310500Y-125816482D01*
X133329407Y-125758291D01*
X133336102Y-125750046D01*
X133372590Y-125709735D01*
X133372590Y-125709734D01*
X133377322Y-125704507D01*
X133433588Y-125588375D01*
X133444596Y-125522941D01*
X133454363Y-125464891D01*
X133454363Y-125464886D01*
X133454997Y-125461120D01*
X133455133Y-125450000D01*
X133436839Y-125322259D01*
X133383428Y-125204788D01*
X133299193Y-125107028D01*
X133293276Y-125103193D01*
X133293274Y-125103191D01*
X133196824Y-125040677D01*
X133190906Y-125036841D01*
X133184150Y-125034821D01*
X133184149Y-125034820D01*
X133141335Y-125022016D01*
X133067273Y-124999866D01*
X132990644Y-124999398D01*
X132945282Y-124999121D01*
X132938231Y-124999078D01*
X132931454Y-125001015D01*
X132931453Y-125001015D01*
X132820935Y-125032601D01*
X132820933Y-125032602D01*
X132814155Y-125034539D01*
X132705019Y-125103399D01*
X132619596Y-125200122D01*
X132564754Y-125316932D01*
X132544901Y-125444440D01*
X132545816Y-125451437D01*
X132545816Y-125451438D01*
X132547082Y-125461120D01*
X132561633Y-125572394D01*
X132564471Y-125578845D01*
X132564472Y-125578847D01*
X132571458Y-125594724D01*
X132613605Y-125690510D01*
X132646941Y-125730168D01*
X132666283Y-125753178D01*
X132689253Y-125809888D01*
X132689500Y-125816880D01*
X132689500Y-126997753D01*
X132670593Y-127055944D01*
X132621093Y-127091908D01*
X132559907Y-127091908D01*
X132510407Y-127055944D01*
X132492500Y-127011788D01*
X132487839Y-126979243D01*
X132486839Y-126972259D01*
X132433428Y-126854788D01*
X132349193Y-126757028D01*
X132343276Y-126753193D01*
X132343274Y-126753191D01*
X132246824Y-126690677D01*
X132240906Y-126686841D01*
X132234150Y-126684821D01*
X132234149Y-126684820D01*
X132191335Y-126672016D01*
X132117273Y-126649866D01*
X132040644Y-126649398D01*
X131995282Y-126649121D01*
X131988231Y-126649078D01*
X131981454Y-126651015D01*
X131981453Y-126651015D01*
X131870935Y-126682601D01*
X131870933Y-126682602D01*
X131864155Y-126684539D01*
X131755019Y-126753399D01*
X131669596Y-126850122D01*
X131614754Y-126966932D01*
X131594901Y-127094440D01*
X131611633Y-127222394D01*
X131614471Y-127228845D01*
X131614472Y-127228847D01*
X131644361Y-127296775D01*
X131663605Y-127340510D01*
X131713650Y-127400046D01*
X131716283Y-127403178D01*
X131739253Y-127459888D01*
X131739500Y-127466880D01*
X131739500Y-130047753D01*
X131720593Y-130105944D01*
X131671093Y-130141908D01*
X131609907Y-130141908D01*
X131560407Y-130105944D01*
X131542500Y-130061788D01*
X131537839Y-130029243D01*
X131536839Y-130022259D01*
X131483428Y-129904788D01*
X131399193Y-129807028D01*
X131393276Y-129803193D01*
X131393274Y-129803191D01*
X131296824Y-129740677D01*
X131290906Y-129736841D01*
X131284150Y-129734821D01*
X131284149Y-129734820D01*
X131213526Y-129713699D01*
X131167273Y-129699866D01*
X131090644Y-129699398D01*
X131045282Y-129699121D01*
X131038231Y-129699078D01*
X131031454Y-129701015D01*
X131031453Y-129701015D01*
X130936705Y-129728094D01*
X130875559Y-129725905D01*
X130827377Y-129688193D01*
X130810500Y-129632905D01*
X130810500Y-127269620D01*
X130829407Y-127211429D01*
X130839497Y-127199616D01*
X131008959Y-127030155D01*
X131063475Y-127002378D01*
X131080776Y-127001176D01*
X131081718Y-127001193D01*
X131099202Y-127001514D01*
X131099204Y-127001514D01*
X131106255Y-127001643D01*
X131113058Y-126999788D01*
X131113060Y-126999788D01*
X131158739Y-126987334D01*
X131230755Y-126967700D01*
X131340724Y-126900179D01*
X131353034Y-126886579D01*
X131422590Y-126809735D01*
X131422590Y-126809734D01*
X131427322Y-126804507D01*
X131483588Y-126688375D01*
X131494596Y-126622941D01*
X131504363Y-126564891D01*
X131504363Y-126564886D01*
X131504997Y-126561120D01*
X131505133Y-126550000D01*
X131486839Y-126422259D01*
X131433428Y-126304788D01*
X131349193Y-126207028D01*
X131343276Y-126203193D01*
X131343274Y-126203191D01*
X131246824Y-126140677D01*
X131240906Y-126136841D01*
X131234150Y-126134821D01*
X131234149Y-126134820D01*
X131191335Y-126122016D01*
X131117273Y-126099866D01*
X131040644Y-126099398D01*
X130995282Y-126099121D01*
X130988231Y-126099078D01*
X130981454Y-126101015D01*
X130981453Y-126101015D01*
X130870935Y-126132601D01*
X130870933Y-126132602D01*
X130864155Y-126134539D01*
X130755019Y-126203399D01*
X130669596Y-126300122D01*
X130614754Y-126416932D01*
X130613669Y-126423902D01*
X130595899Y-126538032D01*
X130568082Y-126592805D01*
X130319633Y-126841254D01*
X130316268Y-126844158D01*
X130311666Y-126846408D01*
X130276999Y-126883779D01*
X130276884Y-126883903D01*
X130274308Y-126886579D01*
X130260025Y-126900862D01*
X130257444Y-126904623D01*
X130257300Y-126904797D01*
X130253747Y-126908844D01*
X130233000Y-126931210D01*
X130229613Y-126939700D01*
X130229612Y-126939701D01*
X130228454Y-126942603D01*
X130218143Y-126961914D01*
X130216705Y-126964011D01*
X130211208Y-126972025D01*
X130209098Y-126980918D01*
X130204798Y-126999036D01*
X130200425Y-127012861D01*
X130193526Y-127030155D01*
X130190138Y-127038646D01*
X130189500Y-127045153D01*
X130189500Y-127051909D01*
X130186825Y-127074769D01*
X130184499Y-127084570D01*
X130188211Y-127111842D01*
X130188596Y-127114673D01*
X130189500Y-127128024D01*
X130189500Y-127904249D01*
X130170593Y-127962440D01*
X130121093Y-127998404D01*
X130075866Y-128002161D01*
X130074028Y-128001886D01*
X130067273Y-127999866D01*
X130002752Y-127999472D01*
X129945282Y-127999121D01*
X129938231Y-127999078D01*
X129931454Y-128001015D01*
X129931453Y-128001015D01*
X129820935Y-128032601D01*
X129820933Y-128032602D01*
X129814155Y-128034539D01*
X129705019Y-128103399D01*
X129619596Y-128200122D01*
X129564754Y-128316932D01*
X129544901Y-128444440D01*
X129561633Y-128572394D01*
X129613605Y-128690510D01*
X129666283Y-128753178D01*
X129689253Y-128809888D01*
X129689500Y-128816880D01*
X129689500Y-134344573D01*
X129689174Y-134349013D01*
X129687511Y-134353856D01*
X129687854Y-134362990D01*
X129689430Y-134404977D01*
X129689500Y-134408691D01*
X129689500Y-134428876D01*
X129690336Y-134433367D01*
X129690358Y-134433600D01*
X129690707Y-134438987D01*
X129691850Y-134469445D01*
X129696692Y-134480716D01*
X129703056Y-134501663D01*
X129705301Y-134513715D01*
X129710095Y-134521492D01*
X129710095Y-134521493D01*
X129719867Y-134537347D01*
X129726548Y-134550209D01*
X129734752Y-134569301D01*
X129737511Y-134575722D01*
X129741661Y-134580774D01*
X129746441Y-134585554D01*
X129760709Y-134603605D01*
X129765996Y-134612182D01*
X129773268Y-134617712D01*
X129773271Y-134617715D01*
X129790179Y-134630572D01*
X129800259Y-134639372D01*
X137410504Y-142249617D01*
X137438281Y-142304134D01*
X137439500Y-142319621D01*
X137439500Y-142846939D01*
X137420593Y-142905130D01*
X137371093Y-142941094D01*
X137309907Y-142941094D01*
X137270496Y-142916943D01*
X128278996Y-133925443D01*
X128251219Y-133870926D01*
X128250000Y-133855439D01*
X128250000Y-115894440D01*
X130394901Y-115894440D01*
X130395816Y-115901437D01*
X130395816Y-115901438D01*
X130397082Y-115911120D01*
X130411633Y-116022394D01*
X130414471Y-116028845D01*
X130414472Y-116028847D01*
X130460764Y-116134054D01*
X130463605Y-116140510D01*
X130505122Y-116189901D01*
X130542100Y-116233892D01*
X130542103Y-116233894D01*
X130546639Y-116239291D01*
X130654060Y-116310796D01*
X130660788Y-116312898D01*
X130660790Y-116312899D01*
X130715647Y-116330037D01*
X130777233Y-116349278D01*
X130857704Y-116350753D01*
X130903354Y-116351590D01*
X130961188Y-116371560D01*
X130996239Y-116421711D01*
X130999360Y-116465803D01*
X130994901Y-116494440D01*
X130995816Y-116501437D01*
X130995816Y-116501438D01*
X130997315Y-116512899D01*
X131011633Y-116622394D01*
X131014471Y-116628845D01*
X131014472Y-116628847D01*
X131050113Y-116709847D01*
X131063605Y-116740510D01*
X131081007Y-116761212D01*
X131142100Y-116833892D01*
X131142103Y-116833894D01*
X131146639Y-116839291D01*
X131254060Y-116910796D01*
X131260788Y-116912898D01*
X131260790Y-116912899D01*
X131305426Y-116926844D01*
X131377233Y-116949278D01*
X131441744Y-116950461D01*
X131499202Y-116951514D01*
X131499204Y-116951514D01*
X131506255Y-116951643D01*
X131513058Y-116949788D01*
X131513060Y-116949788D01*
X131554828Y-116938400D01*
X131630755Y-116917700D01*
X131740724Y-116850179D01*
X131827322Y-116754507D01*
X131883588Y-116638375D01*
X131898556Y-116549406D01*
X131904363Y-116514891D01*
X131904363Y-116514886D01*
X131904997Y-116511120D01*
X131905133Y-116500000D01*
X131904337Y-116494440D01*
X133244901Y-116494440D01*
X133245816Y-116501437D01*
X133245816Y-116501438D01*
X133247315Y-116512899D01*
X133261633Y-116622394D01*
X133264471Y-116628845D01*
X133264472Y-116628847D01*
X133300113Y-116709847D01*
X133313605Y-116740510D01*
X133331007Y-116761212D01*
X133392100Y-116833892D01*
X133392103Y-116833894D01*
X133396639Y-116839291D01*
X133490676Y-116901887D01*
X133501784Y-116909281D01*
X133539748Y-116957265D01*
X133545510Y-116990531D01*
X133544901Y-116994440D01*
X133561633Y-117122394D01*
X133564471Y-117128845D01*
X133564472Y-117128847D01*
X133571458Y-117144724D01*
X133613605Y-117240510D01*
X133655122Y-117289901D01*
X133692100Y-117333892D01*
X133692103Y-117333894D01*
X133696639Y-117339291D01*
X133804060Y-117410796D01*
X133810788Y-117412898D01*
X133810790Y-117412899D01*
X133865646Y-117430037D01*
X133927233Y-117449278D01*
X133991744Y-117450461D01*
X134049202Y-117451514D01*
X134049204Y-117451514D01*
X134056255Y-117451643D01*
X134063058Y-117449788D01*
X134063060Y-117449788D01*
X134104828Y-117438400D01*
X134180755Y-117417700D01*
X134290724Y-117350179D01*
X134377322Y-117254507D01*
X134433588Y-117138375D01*
X134454997Y-117011120D01*
X134455133Y-117000000D01*
X134436839Y-116872259D01*
X134396244Y-116782975D01*
X134386349Y-116761212D01*
X134386348Y-116761211D01*
X134383428Y-116754788D01*
X134299193Y-116657028D01*
X134200175Y-116592849D01*
X134161628Y-116545333D01*
X134155028Y-116508559D01*
X134155044Y-116507299D01*
X134155133Y-116500000D01*
X134136839Y-116372259D01*
X134083428Y-116254788D01*
X134007528Y-116166701D01*
X133983867Y-116110276D01*
X133997891Y-116050719D01*
X134032700Y-116020868D01*
X134030755Y-116017700D01*
X134134711Y-115953871D01*
X134140724Y-115950179D01*
X134175530Y-115911726D01*
X134222590Y-115859735D01*
X134222590Y-115859734D01*
X134227322Y-115854507D01*
X134278132Y-115749636D01*
X134280512Y-115744724D01*
X134280512Y-115744723D01*
X134283588Y-115738375D01*
X134297362Y-115656504D01*
X134304363Y-115614891D01*
X134304363Y-115614886D01*
X134304997Y-115611120D01*
X134305133Y-115600000D01*
X134286839Y-115472259D01*
X134249821Y-115390842D01*
X134236349Y-115361212D01*
X134236348Y-115361211D01*
X134233428Y-115354788D01*
X134149193Y-115257028D01*
X134143276Y-115253193D01*
X134143274Y-115253191D01*
X134046824Y-115190677D01*
X134040906Y-115186841D01*
X134034150Y-115184821D01*
X134034149Y-115184820D01*
X133991335Y-115172016D01*
X133917273Y-115149866D01*
X133840644Y-115149398D01*
X133795282Y-115149121D01*
X133788231Y-115149078D01*
X133781454Y-115151015D01*
X133781453Y-115151015D01*
X133670935Y-115182601D01*
X133670933Y-115182602D01*
X133664155Y-115184539D01*
X133555019Y-115253399D01*
X133469596Y-115350122D01*
X133414754Y-115466932D01*
X133394901Y-115594440D01*
X133395816Y-115601437D01*
X133395816Y-115601438D01*
X133396827Y-115609166D01*
X133411633Y-115722394D01*
X133414471Y-115728845D01*
X133414472Y-115728847D01*
X133458370Y-115828613D01*
X133463605Y-115840510D01*
X133468142Y-115845907D01*
X133468143Y-115845909D01*
X133477049Y-115856504D01*
X133541955Y-115933718D01*
X133542703Y-115934608D01*
X133565673Y-115991318D01*
X133550923Y-116050699D01*
X133513425Y-116083382D01*
X133514155Y-116084539D01*
X133405019Y-116153399D01*
X133319596Y-116250122D01*
X133264754Y-116366932D01*
X133244901Y-116494440D01*
X131904337Y-116494440D01*
X131886839Y-116372259D01*
X131833428Y-116254788D01*
X131766228Y-116176798D01*
X131753798Y-116162372D01*
X131753797Y-116162371D01*
X131749193Y-116157028D01*
X131743276Y-116153193D01*
X131743274Y-116153191D01*
X131646824Y-116090677D01*
X131640906Y-116086841D01*
X131634150Y-116084821D01*
X131634149Y-116084820D01*
X131591335Y-116072016D01*
X131517273Y-116049866D01*
X131398219Y-116049139D01*
X131340145Y-116029877D01*
X131304484Y-115980158D01*
X131301196Y-115933718D01*
X131304362Y-115914896D01*
X131304362Y-115914893D01*
X131304997Y-115911120D01*
X131305051Y-115906746D01*
X131305086Y-115903825D01*
X131305133Y-115900000D01*
X131286839Y-115772259D01*
X131233428Y-115654788D01*
X131167698Y-115578504D01*
X131153798Y-115562372D01*
X131153797Y-115562371D01*
X131149193Y-115557028D01*
X131143276Y-115553193D01*
X131143274Y-115553191D01*
X131055635Y-115496388D01*
X131040906Y-115486841D01*
X131034150Y-115484821D01*
X131034149Y-115484820D01*
X130970675Y-115465837D01*
X130917273Y-115449866D01*
X130840644Y-115449398D01*
X130795282Y-115449121D01*
X130788231Y-115449078D01*
X130781454Y-115451015D01*
X130781453Y-115451015D01*
X130670935Y-115482601D01*
X130670933Y-115482602D01*
X130664155Y-115484539D01*
X130555019Y-115553399D01*
X130469596Y-115650122D01*
X130414754Y-115766932D01*
X130394901Y-115894440D01*
X128250000Y-115894440D01*
X128250000Y-111244440D01*
X133644901Y-111244440D01*
X133645816Y-111251437D01*
X133645816Y-111251438D01*
X133646587Y-111257334D01*
X133661633Y-111372394D01*
X133664471Y-111378845D01*
X133664472Y-111378847D01*
X133710764Y-111484054D01*
X133713605Y-111490510D01*
X133732425Y-111512899D01*
X133792100Y-111583892D01*
X133792103Y-111583894D01*
X133796639Y-111589291D01*
X133904060Y-111660796D01*
X133910788Y-111662898D01*
X133910790Y-111662899D01*
X133965646Y-111680037D01*
X134027233Y-111699278D01*
X134091744Y-111700460D01*
X134149202Y-111701514D01*
X134149204Y-111701514D01*
X134156255Y-111701643D01*
X134163058Y-111699788D01*
X134163060Y-111699788D01*
X134204828Y-111688400D01*
X134280755Y-111667700D01*
X134390724Y-111600179D01*
X134405466Y-111583892D01*
X134472590Y-111509735D01*
X134472590Y-111509734D01*
X134477322Y-111504507D01*
X134533588Y-111388375D01*
X134554997Y-111261120D01*
X134555133Y-111250000D01*
X134536839Y-111122259D01*
X134483428Y-111004788D01*
X134399193Y-110907028D01*
X134393276Y-110903193D01*
X134393274Y-110903191D01*
X134296824Y-110840677D01*
X134290906Y-110836841D01*
X134284150Y-110834821D01*
X134284149Y-110834820D01*
X134221521Y-110816090D01*
X134167273Y-110799866D01*
X134090644Y-110799398D01*
X134045282Y-110799121D01*
X134038231Y-110799078D01*
X134031454Y-110801015D01*
X134031453Y-110801015D01*
X133920935Y-110832601D01*
X133920933Y-110832602D01*
X133914155Y-110834539D01*
X133805019Y-110903399D01*
X133719596Y-111000122D01*
X133664754Y-111116932D01*
X133644901Y-111244440D01*
X128250000Y-111244440D01*
X128250000Y-99067920D01*
X146870041Y-99067920D01*
X146870539Y-99071064D01*
X146872424Y-99073456D01*
X146933156Y-99125326D01*
X146939436Y-99129888D01*
X147140820Y-99253297D01*
X147147732Y-99256819D01*
X147365952Y-99347209D01*
X147373320Y-99349603D01*
X147603004Y-99404745D01*
X147610647Y-99405956D01*
X147846125Y-99424488D01*
X147853875Y-99424488D01*
X148089353Y-99405956D01*
X148096996Y-99404745D01*
X148326680Y-99349603D01*
X148334048Y-99347209D01*
X148552268Y-99256819D01*
X148559180Y-99253297D01*
X148760564Y-99129888D01*
X148766844Y-99125326D01*
X148823067Y-99077307D01*
X148830037Y-99065934D01*
X148829787Y-99062757D01*
X148828099Y-99060231D01*
X147861086Y-98093218D01*
X147849203Y-98087164D01*
X147844172Y-98087960D01*
X146876095Y-99056037D01*
X146870041Y-99067920D01*
X128250000Y-99067920D01*
X128250000Y-97873875D01*
X146295512Y-97873875D01*
X146314044Y-98109353D01*
X146315255Y-98116996D01*
X146370397Y-98346680D01*
X146372791Y-98354048D01*
X146463181Y-98572268D01*
X146466703Y-98579180D01*
X146590112Y-98780564D01*
X146594674Y-98786844D01*
X146642693Y-98843067D01*
X146654066Y-98850037D01*
X146657243Y-98849787D01*
X146659769Y-98848099D01*
X147779996Y-97727872D01*
X147834513Y-97700095D01*
X147894945Y-97709666D01*
X147920004Y-97727872D01*
X149036037Y-98843905D01*
X149047920Y-98849959D01*
X149051064Y-98849461D01*
X149053456Y-98847576D01*
X149105326Y-98786844D01*
X149109888Y-98780564D01*
X149233297Y-98579180D01*
X149236819Y-98572268D01*
X149327209Y-98354048D01*
X149329603Y-98346680D01*
X149384745Y-98116996D01*
X149385956Y-98109353D01*
X149404488Y-97873875D01*
X149404488Y-97866125D01*
X149385956Y-97630647D01*
X149384745Y-97623004D01*
X149329603Y-97393320D01*
X149327209Y-97385952D01*
X149236819Y-97167732D01*
X149233300Y-97160826D01*
X149109331Y-96958528D01*
X149095047Y-96899033D01*
X149118462Y-96842505D01*
X149146199Y-96819963D01*
X149148221Y-96818856D01*
X149251545Y-96741419D01*
X149261419Y-96731545D01*
X149338857Y-96628219D01*
X149345557Y-96615982D01*
X149391178Y-96494287D01*
X149394029Y-96482298D01*
X149399711Y-96429991D01*
X149400000Y-96424657D01*
X149400000Y-95495680D01*
X149395878Y-95482995D01*
X149391757Y-95480000D01*
X146315680Y-95480000D01*
X146302995Y-95484122D01*
X146300000Y-95488243D01*
X146300000Y-96424657D01*
X146300289Y-96429991D01*
X146305971Y-96482298D01*
X146308822Y-96494287D01*
X146354443Y-96615982D01*
X146361143Y-96628219D01*
X146438581Y-96731545D01*
X146448455Y-96741419D01*
X146551779Y-96818856D01*
X146553801Y-96819963D01*
X146555111Y-96821353D01*
X146557419Y-96823083D01*
X146557119Y-96823484D01*
X146595762Y-96864492D01*
X146603537Y-96925182D01*
X146590669Y-96958528D01*
X146466700Y-97160826D01*
X146463181Y-97167732D01*
X146372791Y-97385952D01*
X146370397Y-97393320D01*
X146315255Y-97623004D01*
X146314044Y-97630647D01*
X146295512Y-97866125D01*
X146295512Y-97873875D01*
X128250000Y-97873875D01*
X128250000Y-95164320D01*
X146300000Y-95164320D01*
X146304122Y-95177005D01*
X146308243Y-95180000D01*
X147684320Y-95180000D01*
X147697005Y-95175878D01*
X147700000Y-95171757D01*
X147700000Y-95164320D01*
X148000000Y-95164320D01*
X148004122Y-95177005D01*
X148008243Y-95180000D01*
X149384320Y-95180000D01*
X149397005Y-95175878D01*
X149400000Y-95171757D01*
X149400000Y-94235343D01*
X149399711Y-94230009D01*
X149394029Y-94177702D01*
X149391178Y-94165713D01*
X149345557Y-94044018D01*
X149338857Y-94031781D01*
X149261419Y-93928455D01*
X149251545Y-93918581D01*
X149148219Y-93841143D01*
X149135982Y-93834443D01*
X149014287Y-93788822D01*
X149002298Y-93785971D01*
X148949991Y-93780289D01*
X148944657Y-93780000D01*
X148015680Y-93780000D01*
X148002995Y-93784122D01*
X148000000Y-93788243D01*
X148000000Y-95164320D01*
X147700000Y-95164320D01*
X147700000Y-93795680D01*
X147695878Y-93782995D01*
X147691757Y-93780000D01*
X146755343Y-93780000D01*
X146750009Y-93780289D01*
X146697702Y-93785971D01*
X146685713Y-93788822D01*
X146564018Y-93834443D01*
X146551781Y-93841143D01*
X146448455Y-93918581D01*
X146438581Y-93928455D01*
X146361143Y-94031781D01*
X146354443Y-94044018D01*
X146308822Y-94165713D01*
X146305971Y-94177702D01*
X146300289Y-94230009D01*
X146300000Y-94235343D01*
X146300000Y-95164320D01*
X128250000Y-95164320D01*
X128250000Y-92534376D01*
X128251902Y-92515062D01*
X128252996Y-92509562D01*
X128254898Y-92500000D01*
X128252996Y-92490438D01*
X128252996Y-92480685D01*
X128253639Y-92480685D01*
X128253062Y-92468914D01*
X128263455Y-92363387D01*
X128267241Y-92344352D01*
X128279527Y-92303852D01*
X128304260Y-92222317D01*
X128311686Y-92204388D01*
X128360784Y-92112534D01*
X128371803Y-92091918D01*
X128382584Y-92075784D01*
X128463487Y-91977204D01*
X128477204Y-91963487D01*
X128575786Y-91882583D01*
X128591920Y-91871802D01*
X128704391Y-91811685D01*
X128722317Y-91804260D01*
X128844354Y-91767241D01*
X128863386Y-91763455D01*
X128893655Y-91760474D01*
X128968914Y-91753062D01*
X128980685Y-91753639D01*
X128980685Y-91752996D01*
X128990438Y-91752996D01*
X129000000Y-91754898D01*
X129009562Y-91752996D01*
X129015062Y-91751902D01*
X129034376Y-91750000D01*
X150965624Y-91750000D01*
X150984938Y-91751902D01*
G37*
%TD.AperFunction*%
%TA.AperFunction,Conductor*%
G36*
X142038570Y-119829407D02*
G01*
X142050383Y-119839496D01*
X142660504Y-120449617D01*
X142688281Y-120504134D01*
X142689500Y-120519621D01*
X142689500Y-120788311D01*
X142670593Y-120846502D01*
X142621093Y-120882466D01*
X142559907Y-120882466D01*
X142510407Y-120846502D01*
X142506544Y-120840774D01*
X142495874Y-120823699D01*
X142495873Y-120823698D01*
X142492940Y-120819004D01*
X142432783Y-120758426D01*
X142378985Y-120704250D01*
X142378983Y-120704249D01*
X142375089Y-120700327D01*
X142233873Y-120610709D01*
X142099645Y-120562913D01*
X142081526Y-120556461D01*
X142081524Y-120556461D01*
X142076313Y-120554605D01*
X142052002Y-120551706D01*
X141915733Y-120535456D01*
X141915730Y-120535456D01*
X141910237Y-120534801D01*
X141743902Y-120552284D01*
X141664738Y-120579233D01*
X141590815Y-120604398D01*
X141590811Y-120604400D01*
X141585573Y-120606183D01*
X141580863Y-120609081D01*
X141580858Y-120609083D01*
X141454913Y-120686566D01*
X141452695Y-120687261D01*
X141430219Y-120701913D01*
X139435004Y-122697128D01*
X139380487Y-122724905D01*
X139320055Y-122715334D01*
X139294996Y-122697128D01*
X138728737Y-122130869D01*
X138700960Y-122076352D01*
X138710531Y-122015920D01*
X138743739Y-121978550D01*
X138762490Y-121966021D01*
X138762491Y-121966020D01*
X138770601Y-121960601D01*
X138788200Y-121934263D01*
X138788714Y-121933493D01*
X138836763Y-121895613D01*
X138897901Y-121893209D01*
X138939755Y-121922377D01*
X138942132Y-121920000D01*
X139353914Y-122331782D01*
X139365797Y-122337836D01*
X139370828Y-122337040D01*
X139776782Y-121931086D01*
X139782836Y-121919203D01*
X139782040Y-121914172D01*
X139376086Y-121508218D01*
X139364203Y-121502164D01*
X139359172Y-121502960D01*
X139009504Y-121852628D01*
X138954987Y-121880405D01*
X138894555Y-121870834D01*
X138851290Y-121827569D01*
X138840500Y-121782624D01*
X138840500Y-121638376D01*
X138859407Y-121580185D01*
X138869496Y-121568372D01*
X139152071Y-121285797D01*
X139582164Y-121285797D01*
X139582960Y-121290828D01*
X139988914Y-121696782D01*
X140000797Y-121702836D01*
X140005828Y-121702040D01*
X140411782Y-121296086D01*
X140417836Y-121284203D01*
X140417040Y-121279172D01*
X140011086Y-120873218D01*
X139999203Y-120867164D01*
X139994172Y-120867960D01*
X139588218Y-121273914D01*
X139582164Y-121285797D01*
X139152071Y-121285797D01*
X139929996Y-120507872D01*
X139974171Y-120485365D01*
X140017788Y-120485365D01*
X140044945Y-120489666D01*
X140070004Y-120507872D01*
X140623914Y-121061782D01*
X140635797Y-121067836D01*
X140640828Y-121067040D01*
X141214559Y-120493309D01*
X141220613Y-120481426D01*
X141220180Y-120478692D01*
X141217829Y-120475757D01*
X141197821Y-120459205D01*
X141189827Y-120453813D01*
X141026698Y-120365608D01*
X141017827Y-120361879D01*
X140840663Y-120307038D01*
X140831229Y-120305101D01*
X140646796Y-120285716D01*
X140637158Y-120285649D01*
X140452474Y-120302456D01*
X140443008Y-120304262D01*
X140265110Y-120356621D01*
X140256169Y-120360234D01*
X140091836Y-120446145D01*
X140083759Y-120451430D01*
X140062840Y-120468250D01*
X140017788Y-120485365D01*
X139974171Y-120485365D01*
X139979209Y-120482798D01*
X139946598Y-120473938D01*
X139937697Y-120467376D01*
X139927816Y-120459201D01*
X139919827Y-120453813D01*
X139756698Y-120365608D01*
X139747827Y-120361879D01*
X139570663Y-120307038D01*
X139561229Y-120305101D01*
X139376796Y-120285716D01*
X139367158Y-120285649D01*
X139182474Y-120302456D01*
X139173008Y-120304262D01*
X138995110Y-120356621D01*
X138986169Y-120360234D01*
X138821836Y-120446145D01*
X138813760Y-120451429D01*
X138722482Y-120524819D01*
X138665284Y-120546547D01*
X138641134Y-120544763D01*
X138626841Y-120541920D01*
X138614674Y-120539500D01*
X137575326Y-120539500D01*
X137539899Y-120546547D01*
X137511825Y-120552131D01*
X137511823Y-120552132D01*
X137502260Y-120554034D01*
X137495992Y-120558222D01*
X137436390Y-120562913D01*
X137384221Y-120530944D01*
X137360805Y-120474417D01*
X137360500Y-120466648D01*
X137360500Y-120419621D01*
X137379407Y-120361430D01*
X137389496Y-120349617D01*
X137899617Y-119839496D01*
X137954134Y-119811719D01*
X137969621Y-119810500D01*
X141980379Y-119810500D01*
X142038570Y-119829407D01*
G37*
%TD.AperFunction*%
%TD*%
M02*
