M48
; DRILL file {KiCad (6.0.0)} date Sat Aug 13 16:18:07 2022
; FORMAT={-:-/ absolute / inch / decimal}
; #@! TF.CreationDate,2022-08-13T16:18:07-04:00
; #@! TF.GenerationSoftware,Kicad,Pcbnew,(6.0.0)
; #@! TF.FileFunction,Plated,1,4,PTH
FMAT,2
INCH
; #@! TA.AperFunction,Plated,PTH,ViaDrill
T1C0.0079
; #@! TA.AperFunction,Plated,PTH,ComponentDrill
T2C0.0252
; #@! TA.AperFunction,Plated,PTH,ComponentDrill
T3C0.0433
%
G90
G05
T1
X5.1181Y-5.0571
X5.1516Y-4.563
X5.1594Y-4.9823
X5.1614Y-5.124
X5.1752Y-4.5866
X5.1988Y-5.0039
X5.2362Y-4.939
X5.2638Y-4.5866
X5.2697Y-4.5512
X5.2756Y-4.6063
X5.2795Y-4.3799
X5.2894Y-4.4646
X5.2933Y-4.6909
X5.3071Y-4.8976
X5.313Y-4.4567
X5.313Y-4.5709
X5.3465Y-4.8051
X5.3701Y-4.6594
X5.378Y-4.374
X5.3799Y-4.3327
X5.3819Y-6.3661
X5.3858Y-6.3425
X5.3957Y-6.2362
X5.4075Y-6.1791
X5.4083Y-6.3386
X5.4109Y-6.3039
X5.439Y-6.2165
X5.4449Y-4.6772
X5.4528Y-6.1516
X5.4685Y-6.3701
X5.4803Y-6.1772
X5.4961Y-6.3622
X5.5039Y-6.1535
X5.5217Y-6.1909
X5.5236Y-6.3622
X5.5472Y-6.1496
X5.5512Y-6.3661
X5.5748Y-6.1811
X5.6004Y-6.2303
X5.6138Y-6.3038
X5.6181Y-6.3386
X5.628Y-4.3307
X5.628Y-6.1909
X5.6358Y-6.2343
X5.6417Y-6.3425
X5.6417Y-6.3661
X5.7028Y-4.3524
T2
X5.4368Y-4.1057
X5.4368Y-4.1557
X5.4368Y-4.2057
X5.4368Y-4.2557
X5.4368Y-4.3057
X5.4368Y-4.3557
X5.4368Y-4.4057
X5.4368Y-4.4557
X5.4368Y-4.5057
X5.4368Y-4.5557
X5.4368Y-4.775
X5.4368Y-4.825
X5.4368Y-4.875
X5.4368Y-4.925
X5.4368Y-4.975
X5.4368Y-5.025
X5.4368Y-5.075
X5.4368Y-5.125
X5.4368Y-5.175
X5.4368Y-5.225
X5.4868Y-4.1057
X5.4868Y-4.1557
X5.4868Y-4.2057
X5.4868Y-4.2557
X5.4868Y-4.3057
X5.4868Y-4.3557
X5.4868Y-4.4057
X5.4868Y-4.4557
X5.4868Y-4.5057
X5.4868Y-4.5557
X5.4868Y-4.775
X5.4868Y-4.825
X5.4868Y-4.875
X5.4868Y-4.925
X5.4868Y-4.975
X5.4868Y-5.025
X5.4868Y-5.075
X5.4868Y-5.125
X5.4868Y-5.175
X5.4868Y-5.225
X5.5368Y-4.1057
X5.5368Y-4.1557
X5.5368Y-4.2057
X5.5368Y-4.2557
X5.5368Y-4.3057
X5.5368Y-4.3557
X5.5368Y-4.4057
X5.5368Y-4.4557
X5.5368Y-4.5057
X5.5368Y-4.5557
X5.5368Y-4.775
X5.5368Y-4.825
X5.5368Y-4.875
X5.5368Y-4.925
X5.5368Y-4.975
X5.5368Y-5.025
X5.5368Y-5.075
X5.5368Y-5.125
X5.5368Y-5.175
X5.5368Y-5.225
X5.5868Y-4.1057
X5.5868Y-4.1557
X5.5868Y-4.2057
X5.5868Y-4.2557
X5.5868Y-4.3057
X5.5868Y-4.3557
X5.5868Y-4.4057
X5.5868Y-4.4557
X5.5868Y-4.5057
X5.5868Y-4.5557
X5.5868Y-4.775
X5.5868Y-4.825
X5.5868Y-4.875
X5.5868Y-4.925
X5.5868Y-4.975
X5.5868Y-5.025
X5.5868Y-5.075
X5.5868Y-5.125
X5.5868Y-5.175
X5.5868Y-5.225
T3
X5.8209Y-3.7531
X5.8209Y-3.8531
T0
M30
