%TF.GenerationSoftware,KiCad,Pcbnew,(6.0.0)*%
%TF.CreationDate,2022-08-13T16:18:09-04:00*%
%TF.ProjectId,eib-24-nanoz-adapter,6569622d-3234-42d6-9e61-6e6f7a2d6164,A*%
%TF.SameCoordinates,Original*%
%TF.FileFunction,Legend,Bot*%
%TF.FilePolarity,Positive*%
%FSLAX46Y46*%
G04 Gerber Fmt 4.6, Leading zero omitted, Abs format (unit mm)*
G04 Created by KiCad (PCBNEW (6.0.0)) date 2022-08-13 16:18:09*
%MOMM*%
%LPD*%
G01*
G04 APERTURE LIST*
%ADD10C,0.150000*%
%ADD11C,0.200000*%
G04 APERTURE END LIST*
D10*
%TO.C,J4*%
X133852380Y-126666666D02*
X134566666Y-126666666D01*
X134709523Y-126619047D01*
X134804761Y-126523809D01*
X134852380Y-126380952D01*
X134852380Y-126285714D01*
X134185714Y-127571428D02*
X134852380Y-127571428D01*
X133804761Y-127333333D02*
X134519047Y-127095238D01*
X134519047Y-127714285D01*
%TO.C,J3*%
X133852380Y-109666666D02*
X134566666Y-109666666D01*
X134709523Y-109619047D01*
X134804761Y-109523809D01*
X134852380Y-109380952D01*
X134852380Y-109285714D01*
X133852380Y-110047619D02*
X133852380Y-110666666D01*
X134233333Y-110333333D01*
X134233333Y-110476190D01*
X134280952Y-110571428D01*
X134328571Y-110619047D01*
X134423809Y-110666666D01*
X134661904Y-110666666D01*
X134757142Y-110619047D01*
X134804761Y-110571428D01*
X134852380Y-110476190D01*
X134852380Y-110190476D01*
X134804761Y-110095238D01*
X134757142Y-110047619D01*
D11*
%TO.C,J4*%
X144065000Y-119380000D02*
X144065000Y-134620000D01*
X144065000Y-134620000D02*
X135935000Y-134620000D01*
X144065000Y-119380000D02*
X137600000Y-119380000D01*
X135935000Y-120800000D02*
X135935000Y-134620000D01*
%TO.C,J3*%
X135935000Y-103800000D02*
X135935000Y-117620000D01*
X144065000Y-102380000D02*
X137600000Y-102380000D01*
X144065000Y-117620000D02*
X135935000Y-117620000D01*
X144065000Y-102380000D02*
X144065000Y-117620000D01*
%TD*%
M02*
