%TF.GenerationSoftware,KiCad,Pcbnew,(6.0.0)*%
%TF.CreationDate,2022-08-13T16:18:09-04:00*%
%TF.ProjectId,eib-24-nanoz-adapter,6569622d-3234-42d6-9e61-6e6f7a2d6164,A*%
%TF.SameCoordinates,Original*%
%TF.FileFunction,Soldermask,Top*%
%TF.FilePolarity,Negative*%
%FSLAX46Y46*%
G04 Gerber Fmt 4.6, Leading zero omitted, Abs format (unit mm)*
G04 Created by KiCad (PCBNEW (6.0.0)) date 2022-08-13 16:18:09*
%MOMM*%
%LPD*%
G01*
G04 APERTURE LIST*
%ADD10C,2.100000*%
%ADD11R,2.100000X2.100000*%
%ADD12R,0.990000X0.990000*%
%ADD13C,0.990000*%
G04 APERTURE END LIST*
%TO.C,G\u002A\u002A\u002A*%
G36*
X130245693Y-102536919D02*
G01*
X130247422Y-102427061D01*
X130250380Y-102328336D01*
X130254567Y-102246584D01*
X130259983Y-102187644D01*
X130266628Y-102157354D01*
X130268002Y-102155347D01*
X130296539Y-102143726D01*
X130348080Y-102135979D01*
X130394359Y-102133987D01*
X130499714Y-102143572D01*
X130579730Y-102173979D01*
X130636555Y-102227692D01*
X130672336Y-102307193D01*
X130689220Y-102414964D01*
X130691242Y-102477201D01*
X130687718Y-102562123D01*
X130677753Y-102635230D01*
X130666004Y-102677056D01*
X130619652Y-102744089D01*
X130548710Y-102789447D01*
X130459215Y-102809603D01*
X130437988Y-102810305D01*
X130353440Y-102810371D01*
X130353440Y-102968663D01*
X130352250Y-103047591D01*
X130347941Y-103097630D01*
X130339405Y-103125436D01*
X130325535Y-103137662D01*
X130325285Y-103137759D01*
X130297841Y-103147066D01*
X130282160Y-103141073D01*
X130268002Y-103127204D01*
X130261128Y-103102900D01*
X130255483Y-103048856D01*
X130251067Y-102970913D01*
X130247880Y-102874909D01*
X130245922Y-102766682D01*
X130245521Y-102703574D01*
X130353440Y-102703574D01*
X130430137Y-102703574D01*
X130486622Y-102697817D01*
X130532698Y-102683484D01*
X130541384Y-102678321D01*
X130557650Y-102662146D01*
X130567907Y-102637401D01*
X130573476Y-102596538D01*
X130575679Y-102532009D01*
X130575935Y-102480988D01*
X130575279Y-102400454D01*
X130572217Y-102347473D01*
X130565111Y-102314008D01*
X130552323Y-102292022D01*
X130533914Y-102274847D01*
X130479501Y-102248683D01*
X130422667Y-102240785D01*
X130353440Y-102240785D01*
X130353440Y-102703574D01*
X130245521Y-102703574D01*
X130245193Y-102652073D01*
X130245693Y-102536919D01*
G37*
G36*
X132564740Y-102623210D02*
G01*
X132569488Y-102142887D01*
X132667386Y-102137161D01*
X132778444Y-102141017D01*
X132866736Y-102166074D01*
X132928768Y-102211285D01*
X132933425Y-102216914D01*
X132949294Y-102240983D01*
X132959830Y-102270110D01*
X132966086Y-102311716D01*
X132969115Y-102373218D01*
X132969972Y-102462037D01*
X132969979Y-102474299D01*
X132969644Y-102564238D01*
X132967679Y-102626209D01*
X132962647Y-102667841D01*
X132953108Y-102696766D01*
X132937624Y-102720612D01*
X132919570Y-102741630D01*
X132883226Y-102776071D01*
X132843614Y-102795061D01*
X132786322Y-102804772D01*
X132768274Y-102806413D01*
X132667386Y-102814780D01*
X132667386Y-102947242D01*
X132664981Y-103016969D01*
X132658650Y-103076095D01*
X132649723Y-103112597D01*
X132648960Y-103114134D01*
X132621577Y-103142170D01*
X132590271Y-103146600D01*
X132568631Y-103126048D01*
X132566513Y-103102877D01*
X132564932Y-103048987D01*
X132563925Y-102969257D01*
X132563532Y-102868565D01*
X132563789Y-102751787D01*
X132564145Y-102703574D01*
X132667386Y-102703574D01*
X132746475Y-102703574D01*
X132803408Y-102698767D01*
X132838452Y-102681187D01*
X132853272Y-102664014D01*
X132866647Y-102626589D01*
X132876170Y-102564988D01*
X132881284Y-102490482D01*
X132881434Y-102414340D01*
X132876062Y-102347832D01*
X132870329Y-102318603D01*
X132842586Y-102278739D01*
X132789480Y-102251168D01*
X132720473Y-102240785D01*
X132667386Y-102240785D01*
X132667386Y-102703574D01*
X132564145Y-102703574D01*
X132564734Y-102623803D01*
X132564740Y-102623210D01*
G37*
G36*
X134011845Y-102124205D02*
G01*
X134031241Y-102137446D01*
X134040241Y-102151134D01*
X134042924Y-102172222D01*
X134038211Y-102206136D01*
X134025020Y-102258306D01*
X134002272Y-102334159D01*
X133974963Y-102420224D01*
X133944707Y-102514603D01*
X133917122Y-102600920D01*
X133894617Y-102671614D01*
X133879603Y-102719126D01*
X133876133Y-102730273D01*
X133838821Y-102849816D01*
X133808779Y-102939988D01*
X133783490Y-103005647D01*
X133760432Y-103051648D01*
X133737089Y-103082849D01*
X133710940Y-103104105D01*
X133679466Y-103120274D01*
X133672249Y-103123351D01*
X133607648Y-103144821D01*
X133566849Y-103144128D01*
X133546002Y-103121864D01*
X133543577Y-103077312D01*
X133573305Y-103045606D01*
X133607010Y-103033690D01*
X133638339Y-103023043D01*
X133662526Y-103002169D01*
X133685552Y-102963363D01*
X133713396Y-102898917D01*
X133715345Y-102894082D01*
X133727592Y-102855669D01*
X133732819Y-102813982D01*
X133730101Y-102764068D01*
X133718514Y-102700975D01*
X133697134Y-102619747D01*
X133665035Y-102515433D01*
X133621293Y-102383077D01*
X133618327Y-102374282D01*
X133596411Y-102302806D01*
X133579490Y-102235541D01*
X133571272Y-102187386D01*
X133570854Y-102145469D01*
X133583032Y-102128182D01*
X133608627Y-102125088D01*
X133622657Y-102124982D01*
X133634024Y-102127481D01*
X133644573Y-102136804D01*
X133656150Y-102157175D01*
X133670604Y-102192813D01*
X133689779Y-102247941D01*
X133715523Y-102326780D01*
X133749682Y-102433551D01*
X133766246Y-102485435D01*
X133784407Y-102533964D01*
X133800344Y-102562346D01*
X133808328Y-102565533D01*
X133818191Y-102544331D01*
X133836166Y-102496153D01*
X133859756Y-102428006D01*
X133886463Y-102346894D01*
X133888284Y-102341226D01*
X133916049Y-102259797D01*
X133942488Y-102191373D01*
X133964719Y-102142837D01*
X133979862Y-102121077D01*
X133980547Y-102120747D01*
X134011845Y-102124205D01*
G37*
G36*
X134309225Y-102121624D02*
G01*
X134380656Y-102142473D01*
X134428446Y-102180248D01*
X134447251Y-102230578D01*
X134447344Y-102234644D01*
X134438831Y-102267090D01*
X134407143Y-102276366D01*
X134404749Y-102276384D01*
X134367836Y-102266442D01*
X134351909Y-102249685D01*
X134327288Y-102228610D01*
X134285327Y-102224081D01*
X134239811Y-102235368D01*
X134208204Y-102257309D01*
X134187196Y-102294885D01*
X134194946Y-102333255D01*
X134233276Y-102376170D01*
X134284572Y-102414534D01*
X134363465Y-102471938D01*
X134414966Y-102520888D01*
X134443992Y-102567870D01*
X134455463Y-102619368D01*
X134456244Y-102640841D01*
X134446046Y-102713108D01*
X134412624Y-102767083D01*
X134351734Y-102807356D01*
X134278248Y-102833400D01*
X134234524Y-102834677D01*
X134198159Y-102825808D01*
X134151028Y-102799816D01*
X134107873Y-102764337D01*
X134079297Y-102729093D01*
X134073553Y-102711550D01*
X134085974Y-102683081D01*
X134099895Y-102668271D01*
X134122561Y-102658224D01*
X134150646Y-102669140D01*
X134181358Y-102692791D01*
X134228487Y-102727402D01*
X134264521Y-102736815D01*
X134301724Y-102722699D01*
X134318786Y-102711464D01*
X134354686Y-102671283D01*
X134355741Y-102626242D01*
X134322216Y-102577367D01*
X134274171Y-102538561D01*
X134180409Y-102468646D01*
X134117994Y-102406815D01*
X134084725Y-102349243D01*
X134078401Y-102292102D01*
X134096821Y-102231565D01*
X134097179Y-102230811D01*
X134145791Y-102167385D01*
X134215166Y-102129229D01*
X134297508Y-102120355D01*
X134309225Y-102121624D01*
G37*
G36*
X129730723Y-102381480D02*
G01*
X129732455Y-102318669D01*
X129737044Y-102276857D01*
X129745883Y-102248745D01*
X129760366Y-102227031D01*
X129781573Y-102204728D01*
X129854417Y-102153869D01*
X129934083Y-102135595D01*
X130013770Y-102149869D01*
X130086675Y-102196650D01*
X130096679Y-102206544D01*
X130121028Y-102234217D01*
X130136725Y-102261767D01*
X130146086Y-102298148D01*
X130151428Y-102352317D01*
X130155026Y-102432112D01*
X130155711Y-102520997D01*
X130151674Y-102601062D01*
X130143612Y-102660631D01*
X130140706Y-102672120D01*
X130102800Y-102741189D01*
X130039491Y-102787822D01*
X129955074Y-102809218D01*
X129928920Y-102810305D01*
X129873491Y-102805309D01*
X129830746Y-102785075D01*
X129790974Y-102749853D01*
X129730455Y-102689334D01*
X129730455Y-102480212D01*
X129828353Y-102480212D01*
X129830710Y-102575051D01*
X129839514Y-102639515D01*
X129857359Y-102678620D01*
X129886841Y-102697379D01*
X129930555Y-102700810D01*
X129942117Y-102700024D01*
X129995342Y-102686502D01*
X130027387Y-102652836D01*
X130028817Y-102650175D01*
X130042513Y-102598921D01*
X130047843Y-102514034D01*
X130047026Y-102448484D01*
X130040912Y-102357398D01*
X130027643Y-102296393D01*
X130004370Y-102260210D01*
X129968244Y-102243592D01*
X129934507Y-102240785D01*
X129889336Y-102250239D01*
X129857891Y-102281114D01*
X129838499Y-102337181D01*
X129829490Y-102422211D01*
X129828353Y-102480212D01*
X129730455Y-102480212D01*
X129730455Y-102472590D01*
X129730723Y-102381480D01*
G37*
G36*
X130767766Y-102337540D02*
G01*
X130773280Y-102279037D01*
X130778844Y-102254143D01*
X130814826Y-102202836D01*
X130873280Y-102161043D01*
X130941107Y-102136945D01*
X130971138Y-102134054D01*
X131058552Y-102148222D01*
X131124256Y-102190037D01*
X131167154Y-102258123D01*
X131186152Y-102351105D01*
X131186444Y-102404496D01*
X131181121Y-102516678D01*
X131025375Y-102521821D01*
X130869628Y-102526964D01*
X130869901Y-102584120D01*
X130876707Y-102643171D01*
X130900921Y-102679269D01*
X130941329Y-102700544D01*
X130994164Y-102706164D01*
X131035881Y-102691243D01*
X131088473Y-102674235D01*
X131123479Y-102683700D01*
X131136611Y-102718424D01*
X131136622Y-102719805D01*
X131120255Y-102761588D01*
X131075194Y-102792309D01*
X131007500Y-102808621D01*
X130972746Y-102810371D01*
X130909841Y-102805008D01*
X130862392Y-102784286D01*
X130829860Y-102758473D01*
X130771731Y-102706575D01*
X130765938Y-102504829D01*
X130765189Y-102418781D01*
X130869628Y-102418781D01*
X131083223Y-102418781D01*
X131083223Y-102362333D01*
X131069722Y-102298163D01*
X131034016Y-102256930D01*
X130983295Y-102242512D01*
X130924754Y-102258789D01*
X130909188Y-102268493D01*
X130877560Y-102307466D01*
X130869628Y-102357491D01*
X130869628Y-102418781D01*
X130765189Y-102418781D01*
X130765163Y-102415842D01*
X130767766Y-102337540D01*
G37*
G36*
X131468453Y-102138226D02*
G01*
X131543841Y-102152507D01*
X131602309Y-102174573D01*
X131613499Y-102181728D01*
X131648282Y-102210841D01*
X131673078Y-102242567D01*
X131689380Y-102283176D01*
X131698681Y-102338939D01*
X131702477Y-102416127D01*
X131702259Y-102521011D01*
X131701752Y-102552277D01*
X131697309Y-102801472D01*
X131608311Y-102801472D01*
X131599411Y-102548648D01*
X131594123Y-102439291D01*
X131587011Y-102354650D01*
X131578480Y-102298461D01*
X131569810Y-102275192D01*
X131540422Y-102260763D01*
X131490742Y-102248671D01*
X131467926Y-102245410D01*
X131386743Y-102236260D01*
X131381830Y-102518866D01*
X131379753Y-102624997D01*
X131377303Y-102700770D01*
X131373728Y-102751424D01*
X131368278Y-102782198D01*
X131360201Y-102798330D01*
X131348747Y-102805059D01*
X131340585Y-102806672D01*
X131305216Y-102805481D01*
X131291636Y-102799256D01*
X131287569Y-102778184D01*
X131284046Y-102727464D01*
X131281297Y-102653045D01*
X131279549Y-102560875D01*
X131279019Y-102469552D01*
X131279019Y-102152465D01*
X131324340Y-102141090D01*
X131390502Y-102133748D01*
X131468453Y-102138226D01*
G37*
G36*
X132046686Y-102312357D02*
G01*
X132051816Y-102272397D01*
X132061626Y-102245235D01*
X132077630Y-102223271D01*
X132095518Y-102204728D01*
X132166276Y-102153513D01*
X132244630Y-102136186D01*
X132298161Y-102141516D01*
X132376216Y-102172874D01*
X132431131Y-102230609D01*
X132462073Y-102313353D01*
X132468208Y-102419737D01*
X132468166Y-102420492D01*
X132462691Y-102516678D01*
X132306944Y-102521821D01*
X132151198Y-102526964D01*
X132151198Y-102593909D01*
X132156566Y-102643539D01*
X132169765Y-102678849D01*
X132172557Y-102682214D01*
X132212049Y-102700003D01*
X132269185Y-102701280D01*
X132330050Y-102686005D01*
X132337739Y-102682697D01*
X132383206Y-102673132D01*
X132410142Y-102689670D01*
X132412585Y-102728066D01*
X132410718Y-102734680D01*
X132381606Y-102772710D01*
X132328963Y-102798081D01*
X132263113Y-102809129D01*
X132194383Y-102804187D01*
X132133101Y-102781592D01*
X132130301Y-102779896D01*
X132095930Y-102753375D01*
X132071889Y-102719341D01*
X132056470Y-102671448D01*
X132047960Y-102603346D01*
X132044651Y-102508689D01*
X132044400Y-102461073D01*
X132044553Y-102418781D01*
X132151198Y-102418781D01*
X132364793Y-102418781D01*
X132364793Y-102365382D01*
X132349905Y-102303664D01*
X132310939Y-102261255D01*
X132256443Y-102243221D01*
X132194963Y-102254626D01*
X132185627Y-102259211D01*
X132160656Y-102285455D01*
X132151465Y-102333996D01*
X132151198Y-102348209D01*
X132151198Y-102418781D01*
X132044553Y-102418781D01*
X132044719Y-102372716D01*
X132046686Y-102312357D01*
G37*
G36*
X133151661Y-101824024D02*
G01*
X133165107Y-101833274D01*
X133172775Y-101857239D01*
X133176929Y-101902915D01*
X133179781Y-101975819D01*
X133184889Y-102129143D01*
X133280542Y-102139015D01*
X133376903Y-102159176D01*
X133444384Y-102197532D01*
X133483423Y-102250772D01*
X133492061Y-102288670D01*
X133498602Y-102356847D01*
X133502686Y-102450029D01*
X133503966Y-102553115D01*
X133503966Y-102810371D01*
X133414968Y-102810371D01*
X133414968Y-102569268D01*
X133414669Y-102472001D01*
X133413093Y-102403680D01*
X133409217Y-102357652D01*
X133402023Y-102327265D01*
X133390489Y-102305866D01*
X133373595Y-102286802D01*
X133371278Y-102284475D01*
X133321815Y-102250871D01*
X133257543Y-102240788D01*
X133256033Y-102240785D01*
X133184478Y-102240785D01*
X133179576Y-102521128D01*
X133177564Y-102626596D01*
X133175255Y-102701751D01*
X133171817Y-102751880D01*
X133166418Y-102782264D01*
X133158225Y-102798188D01*
X133146408Y-102804936D01*
X133134545Y-102807170D01*
X133099577Y-102802563D01*
X133085293Y-102789092D01*
X133083027Y-102765521D01*
X133081323Y-102711300D01*
X133080224Y-102631377D01*
X133079774Y-102530698D01*
X133080016Y-102414208D01*
X133080922Y-102293905D01*
X133085676Y-101822495D01*
X133130175Y-101822495D01*
X133151661Y-101824024D01*
G37*
G36*
X130923027Y-101306911D02*
G01*
X130855392Y-101279545D01*
X130810400Y-101255334D01*
X130788625Y-101229863D01*
X130790641Y-101198716D01*
X130814388Y-101161597D01*
X131012713Y-101161597D01*
X131012789Y-101161708D01*
X131032099Y-101165106D01*
X131081955Y-101170273D01*
X131157371Y-101176796D01*
X131253361Y-101184260D01*
X131364938Y-101192251D01*
X131446324Y-101197719D01*
X131565662Y-101205876D01*
X131672836Y-101213861D01*
X131762845Y-101221247D01*
X131830685Y-101227609D01*
X131871355Y-101232518D01*
X131880915Y-101234786D01*
X131902102Y-101241191D01*
X131938327Y-101243790D01*
X131973328Y-101242395D01*
X131990839Y-101236820D01*
X131991002Y-101236051D01*
X131980823Y-101218346D01*
X131953899Y-101179947D01*
X131915645Y-101128018D01*
X131871481Y-101069724D01*
X131826821Y-101012228D01*
X131787084Y-100962696D01*
X131761498Y-100932516D01*
X131728016Y-100891927D01*
X131683897Y-100834618D01*
X131862034Y-100834618D01*
X131866450Y-100847238D01*
X131889634Y-100881177D01*
X131927386Y-100930555D01*
X131955175Y-100965017D01*
X132001580Y-101023242D01*
X132037838Y-101071945D01*
X132058910Y-101104186D01*
X132062200Y-101112358D01*
X132074404Y-101135827D01*
X132095914Y-101158166D01*
X132130181Y-101194175D01*
X132147237Y-101218498D01*
X132176982Y-101241134D01*
X132232698Y-101258959D01*
X132304842Y-101269645D01*
X132364793Y-101271560D01*
X132398517Y-101263454D01*
X132406236Y-101236632D01*
X132406112Y-101235109D01*
X132389662Y-101196224D01*
X132370513Y-101176686D01*
X132271365Y-101107339D01*
X132173659Y-101039818D01*
X132081870Y-100977133D01*
X132000474Y-100922296D01*
X131933947Y-100878316D01*
X131886764Y-100848206D01*
X131863401Y-100834975D01*
X131862034Y-100834618D01*
X131683897Y-100834618D01*
X131683123Y-100833613D01*
X131635674Y-100769119D01*
X131628416Y-100758970D01*
X131587813Y-100703817D01*
X131554516Y-100662057D01*
X131534070Y-100640525D01*
X131531100Y-100639023D01*
X131514741Y-100650982D01*
X131478729Y-100683664D01*
X131427565Y-100732531D01*
X131365747Y-100793045D01*
X131297776Y-100860669D01*
X131228151Y-100930864D01*
X131161372Y-100999093D01*
X131101940Y-101060819D01*
X131054352Y-101111503D01*
X131023110Y-101146608D01*
X131012713Y-101161597D01*
X130814388Y-101161597D01*
X130817023Y-101157478D01*
X130868342Y-101101734D01*
X130945174Y-101027069D01*
X130961400Y-101011620D01*
X131028877Y-100947307D01*
X131087853Y-100890853D01*
X131133143Y-100847243D01*
X131159560Y-100821457D01*
X131163321Y-100817635D01*
X131274536Y-100701781D01*
X131365335Y-100611830D01*
X131437880Y-100546162D01*
X131494336Y-100503159D01*
X131536866Y-100481202D01*
X131567634Y-100478672D01*
X131588804Y-100493951D01*
X131591190Y-100497524D01*
X131615770Y-100519238D01*
X131641189Y-100533100D01*
X131676479Y-100552236D01*
X131727677Y-100584274D01*
X131768507Y-100611802D01*
X131856700Y-100673054D01*
X131928258Y-100722173D01*
X131995583Y-100767621D01*
X132050415Y-100804160D01*
X132105568Y-100840834D01*
X132154436Y-100873441D01*
X132176175Y-100888017D01*
X132255640Y-100940839D01*
X132309993Y-100974693D01*
X132343156Y-100991210D01*
X132359050Y-100992022D01*
X132361597Y-100978759D01*
X132358042Y-100963665D01*
X132349454Y-100926143D01*
X132343349Y-100892313D01*
X132480721Y-100892313D01*
X132484576Y-100937079D01*
X132491730Y-100994814D01*
X132505431Y-101068129D01*
X132523943Y-101114758D01*
X132547529Y-101141265D01*
X132588233Y-101167477D01*
X132608342Y-101168287D01*
X132605754Y-101143683D01*
X132604940Y-101141661D01*
X132591860Y-101102761D01*
X132578074Y-101051957D01*
X132577720Y-101050487D01*
X132562583Y-101003990D01*
X132545306Y-100972488D01*
X132544172Y-100971278D01*
X132527166Y-100937580D01*
X132524989Y-100921106D01*
X132516255Y-100892159D01*
X132497653Y-100872198D01*
X132481355Y-100872885D01*
X132480721Y-100892313D01*
X132343349Y-100892313D01*
X132339872Y-100873044D01*
X132338027Y-100861317D01*
X132330420Y-100816818D01*
X132453791Y-100816818D01*
X132467336Y-100834101D01*
X132471590Y-100834618D01*
X132488873Y-100821073D01*
X132489390Y-100816818D01*
X132475845Y-100799536D01*
X132471590Y-100799019D01*
X132454308Y-100812564D01*
X132453791Y-100816818D01*
X132330420Y-100816818D01*
X132328360Y-100804768D01*
X132314512Y-100731618D01*
X132302939Y-100674422D01*
X132287225Y-100594025D01*
X132270543Y-100500438D01*
X132258285Y-100425228D01*
X132245688Y-100349230D01*
X132232190Y-100277586D01*
X132220683Y-100225633D01*
X132220542Y-100225088D01*
X132213325Y-100161095D01*
X132226517Y-100114377D01*
X132257395Y-100091138D01*
X132279631Y-100090405D01*
X132300463Y-100095345D01*
X132317332Y-100107105D01*
X132334260Y-100131922D01*
X132355269Y-100176033D01*
X132384381Y-100245672D01*
X132392271Y-100265031D01*
X132425277Y-100345436D01*
X132461383Y-100432295D01*
X132484618Y-100487526D01*
X132514996Y-100559392D01*
X132537502Y-100613601D01*
X132557420Y-100663303D01*
X132580031Y-100721647D01*
X132606176Y-100790119D01*
X132634772Y-100863470D01*
X132663513Y-100934420D01*
X132685439Y-100985914D01*
X132706706Y-101036153D01*
X132735119Y-101106744D01*
X132765458Y-101184655D01*
X132773841Y-101206675D01*
X132800877Y-101280728D01*
X132815902Y-101332257D01*
X132820564Y-101371615D01*
X132816510Y-101409154D01*
X132810353Y-101436012D01*
X132789050Y-101503909D01*
X132761695Y-101571206D01*
X132755525Y-101583883D01*
X132733610Y-101634227D01*
X132721577Y-101676227D01*
X132720784Y-101684729D01*
X132712907Y-101721637D01*
X132705135Y-101734387D01*
X132690236Y-101761121D01*
X132672290Y-101807026D01*
X132667216Y-101822495D01*
X132640499Y-101892105D01*
X132613373Y-101929107D01*
X132589558Y-101937196D01*
X132564560Y-101930840D01*
X132515418Y-101914773D01*
X132451231Y-101892023D01*
X132427091Y-101883116D01*
X132360084Y-101858259D01*
X132305372Y-101838190D01*
X132271913Y-101826187D01*
X132266895Y-101824502D01*
X132216456Y-101805854D01*
X132134555Y-101771502D01*
X132106699Y-101759381D01*
X132046313Y-101735586D01*
X131973844Y-101710562D01*
X131939764Y-101699985D01*
X131883148Y-101681683D01*
X131839667Y-101664723D01*
X131824066Y-101656399D01*
X131798175Y-101643461D01*
X131748633Y-101623737D01*
X131685697Y-101601286D01*
X131679509Y-101599197D01*
X131616273Y-101577087D01*
X131565841Y-101557851D01*
X131538241Y-101545333D01*
X131537112Y-101544592D01*
X131512119Y-101532682D01*
X131463823Y-101513799D01*
X131403616Y-101492355D01*
X131342639Y-101470576D01*
X131294587Y-101451629D01*
X131270119Y-101439761D01*
X131242809Y-101426465D01*
X131196574Y-101409416D01*
X131181121Y-101404422D01*
X131120333Y-101384052D01*
X131063685Y-101362939D01*
X131056524Y-101360021D01*
X131006036Y-101339558D01*
X130963029Y-101322573D01*
X131334856Y-101322573D01*
X131339682Y-101329408D01*
X131359117Y-101339092D01*
X131444621Y-101377158D01*
X131504303Y-101402039D01*
X131544373Y-101416083D01*
X131571044Y-101421633D01*
X131578655Y-101422004D01*
X131615161Y-101429800D01*
X131627000Y-101436862D01*
X131652471Y-101451008D01*
X131699197Y-101470991D01*
X131732908Y-101483726D01*
X131803746Y-101510822D01*
X131882024Y-101543083D01*
X131915881Y-101557866D01*
X131968872Y-101580749D01*
X132008326Y-101596174D01*
X132022678Y-101600299D01*
X132043827Y-101606756D01*
X132089757Y-101623805D01*
X132152371Y-101648386D01*
X132186797Y-101662298D01*
X132266082Y-101694179D01*
X132318086Y-101713633D01*
X132348239Y-101722276D01*
X132361973Y-101721728D01*
X132364793Y-101715315D01*
X132354561Y-101698189D01*
X132327634Y-101660705D01*
X132289668Y-101610214D01*
X132246318Y-101554069D01*
X132203240Y-101499620D01*
X132166087Y-101454219D01*
X132146851Y-101431997D01*
X132123272Y-101400974D01*
X132121172Y-101396068D01*
X132293595Y-101396068D01*
X132303534Y-101414037D01*
X132329681Y-101452200D01*
X132366530Y-101502546D01*
X132369243Y-101506154D01*
X132444891Y-101606576D01*
X132450373Y-101521807D01*
X132449449Y-101465236D01*
X132441532Y-101426917D01*
X132564574Y-101426917D01*
X132569148Y-101453687D01*
X132580901Y-101504193D01*
X132591285Y-101553128D01*
X132602461Y-101608900D01*
X132634457Y-101537701D01*
X132654296Y-101489440D01*
X132665802Y-101453516D01*
X132666919Y-101446274D01*
X132651769Y-101429928D01*
X132614503Y-101418293D01*
X132612787Y-101418031D01*
X132575641Y-101415168D01*
X132564574Y-101426917D01*
X132441532Y-101426917D01*
X132440566Y-101422242D01*
X132434844Y-101411721D01*
X132410047Y-101398079D01*
X132370159Y-101388785D01*
X132328805Y-101385349D01*
X132299612Y-101389282D01*
X132293595Y-101396068D01*
X132121172Y-101396068D01*
X132115599Y-101383049D01*
X132099537Y-101374996D01*
X132058263Y-101369752D01*
X132021684Y-101368605D01*
X131956063Y-101366426D01*
X131872724Y-101360701D01*
X131789231Y-101352647D01*
X131785840Y-101352259D01*
X131698829Y-101343307D01*
X131595609Y-101334253D01*
X131495527Y-101326765D01*
X131474814Y-101325429D01*
X131398242Y-101321077D01*
X131352983Y-101319961D01*
X131334856Y-101322573D01*
X130963029Y-101322573D01*
X130943793Y-101314976D01*
X130923027Y-101306911D01*
G37*
%TO.C,J2*%
G36*
X139745000Y-158870000D02*
G01*
X139905000Y-158870000D01*
X139905000Y-159230000D01*
X139745000Y-159230000D01*
X139745000Y-158870000D01*
G37*
G36*
X138345000Y-158870000D02*
G01*
X138505000Y-158870000D01*
X138505000Y-159230000D01*
X138345000Y-159230000D01*
X138345000Y-158870000D01*
G37*
G36*
X137995000Y-158870000D02*
G01*
X138155000Y-158870000D01*
X138155000Y-159230000D01*
X137995000Y-159230000D01*
X137995000Y-158870000D01*
G37*
G36*
X139745000Y-160770000D02*
G01*
X139905000Y-160770000D01*
X139905000Y-161130000D01*
X139745000Y-161130000D01*
X139745000Y-160770000D01*
G37*
G36*
X137995000Y-160770000D02*
G01*
X138155000Y-160770000D01*
X138155000Y-161130000D01*
X137995000Y-161130000D01*
X137995000Y-160770000D01*
G37*
G36*
X140445000Y-158870000D02*
G01*
X140605000Y-158870000D01*
X140605000Y-159230000D01*
X140445000Y-159230000D01*
X140445000Y-158870000D01*
G37*
G36*
X138695000Y-160770000D02*
G01*
X138855000Y-160770000D01*
X138855000Y-161130000D01*
X138695000Y-161130000D01*
X138695000Y-160770000D01*
G37*
G36*
X141145000Y-158870000D02*
G01*
X141305000Y-158870000D01*
X141305000Y-159230000D01*
X141145000Y-159230000D01*
X141145000Y-158870000D01*
G37*
G36*
X140445000Y-160770000D02*
G01*
X140605000Y-160770000D01*
X140605000Y-161130000D01*
X140445000Y-161130000D01*
X140445000Y-160770000D01*
G37*
G36*
X141845000Y-160770000D02*
G01*
X142005000Y-160770000D01*
X142005000Y-161130000D01*
X141845000Y-161130000D01*
X141845000Y-160770000D01*
G37*
G36*
X140095000Y-158870000D02*
G01*
X140255000Y-158870000D01*
X140255000Y-159230000D01*
X140095000Y-159230000D01*
X140095000Y-158870000D01*
G37*
G36*
X139395000Y-158870000D02*
G01*
X139555000Y-158870000D01*
X139555000Y-159230000D01*
X139395000Y-159230000D01*
X139395000Y-158870000D01*
G37*
G36*
X140795000Y-158870000D02*
G01*
X140955000Y-158870000D01*
X140955000Y-159230000D01*
X140795000Y-159230000D01*
X140795000Y-158870000D01*
G37*
G36*
X140095000Y-160770000D02*
G01*
X140255000Y-160770000D01*
X140255000Y-161130000D01*
X140095000Y-161130000D01*
X140095000Y-160770000D01*
G37*
G36*
X139395000Y-160770000D02*
G01*
X139555000Y-160770000D01*
X139555000Y-161130000D01*
X139395000Y-161130000D01*
X139395000Y-160770000D01*
G37*
G36*
X136615000Y-159342500D02*
G01*
X136975000Y-159342500D01*
X136975000Y-159692500D01*
X136615000Y-159692500D01*
X136615000Y-159342500D01*
G37*
G36*
X139045000Y-160770000D02*
G01*
X139205000Y-160770000D01*
X139205000Y-161130000D01*
X139045000Y-161130000D01*
X139045000Y-160770000D01*
G37*
G36*
X141495000Y-160770000D02*
G01*
X141655000Y-160770000D01*
X141655000Y-161130000D01*
X141495000Y-161130000D01*
X141495000Y-160770000D01*
G37*
G36*
X143025000Y-159342500D02*
G01*
X143385000Y-159342500D01*
X143385000Y-159692500D01*
X143025000Y-159692500D01*
X143025000Y-159342500D01*
G37*
G36*
X138345000Y-160770000D02*
G01*
X138505000Y-160770000D01*
X138505000Y-161130000D01*
X138345000Y-161130000D01*
X138345000Y-160770000D01*
G37*
G36*
X139045000Y-158870000D02*
G01*
X139205000Y-158870000D01*
X139205000Y-159230000D01*
X139045000Y-159230000D01*
X139045000Y-158870000D01*
G37*
G36*
X141145000Y-160770000D02*
G01*
X141305000Y-160770000D01*
X141305000Y-161130000D01*
X141145000Y-161130000D01*
X141145000Y-160770000D01*
G37*
G36*
X141845000Y-158870000D02*
G01*
X142005000Y-158870000D01*
X142005000Y-159230000D01*
X141845000Y-159230000D01*
X141845000Y-158870000D01*
G37*
G36*
X140795000Y-160770000D02*
G01*
X140955000Y-160770000D01*
X140955000Y-161130000D01*
X140795000Y-161130000D01*
X140795000Y-160770000D01*
G37*
G36*
X143025000Y-160312500D02*
G01*
X143385000Y-160312500D01*
X143385000Y-160652500D01*
X143025000Y-160652500D01*
X143025000Y-160312500D01*
G37*
G36*
X138695000Y-158870000D02*
G01*
X138855000Y-158870000D01*
X138855000Y-159230000D01*
X138695000Y-159230000D01*
X138695000Y-158870000D01*
G37*
G36*
X141495000Y-158870000D02*
G01*
X141655000Y-158870000D01*
X141655000Y-159230000D01*
X141495000Y-159230000D01*
X141495000Y-158870000D01*
G37*
G36*
X136615000Y-160312500D02*
G01*
X136975000Y-160312500D01*
X136975000Y-160652500D01*
X136615000Y-160652500D01*
X136615000Y-160312500D01*
G37*
%TD*%
D10*
%TO.C,J1*%
X147850000Y-97870000D03*
D11*
X147850000Y-95330000D03*
%TD*%
D12*
%TO.C,J4*%
X138095000Y-121285000D03*
D13*
X138095000Y-122555000D03*
X138095000Y-123825000D03*
X138095000Y-125095000D03*
X138095000Y-126365000D03*
X138095000Y-127635000D03*
X138095000Y-128905000D03*
X138095000Y-130175000D03*
X138095000Y-131445000D03*
X138095000Y-132715000D03*
X139365000Y-121285000D03*
X139365000Y-122555000D03*
X139365000Y-123825000D03*
X139365000Y-125095000D03*
X139365000Y-126365000D03*
X139365000Y-127635000D03*
X139365000Y-128905000D03*
X139365000Y-130175000D03*
X139365000Y-131445000D03*
X139365000Y-132715000D03*
X140635000Y-121285000D03*
X140635000Y-122555000D03*
X140635000Y-123825000D03*
X140635000Y-125095000D03*
X140635000Y-126365000D03*
X140635000Y-127635000D03*
X140635000Y-128905000D03*
X140635000Y-130175000D03*
X140635000Y-131445000D03*
X140635000Y-132715000D03*
X141905000Y-121285000D03*
X141905000Y-122555000D03*
X141905000Y-123825000D03*
X141905000Y-125095000D03*
X141905000Y-126365000D03*
X141905000Y-127635000D03*
X141905000Y-128905000D03*
X141905000Y-130175000D03*
X141905000Y-131445000D03*
X141905000Y-132715000D03*
%TD*%
%TO.C,J3*%
X141905000Y-115715000D03*
X141905000Y-114445000D03*
X141905000Y-113175000D03*
X141905000Y-111905000D03*
X141905000Y-110635000D03*
X141905000Y-109365000D03*
X141905000Y-108095000D03*
X141905000Y-106825000D03*
X141905000Y-105555000D03*
X141905000Y-104285000D03*
X140635000Y-115715000D03*
X140635000Y-114445000D03*
X140635000Y-113175000D03*
X140635000Y-111905000D03*
X140635000Y-110635000D03*
X140635000Y-109365000D03*
X140635000Y-108095000D03*
X140635000Y-106825000D03*
X140635000Y-105555000D03*
X140635000Y-104285000D03*
X139365000Y-115715000D03*
X139365000Y-114445000D03*
X139365000Y-113175000D03*
X139365000Y-111905000D03*
X139365000Y-110635000D03*
X139365000Y-109365000D03*
X139365000Y-108095000D03*
X139365000Y-106825000D03*
X139365000Y-105555000D03*
X139365000Y-104285000D03*
X138095000Y-115715000D03*
X138095000Y-114445000D03*
X138095000Y-113175000D03*
X138095000Y-111905000D03*
X138095000Y-110635000D03*
X138095000Y-109365000D03*
X138095000Y-108095000D03*
X138095000Y-106825000D03*
X138095000Y-105555000D03*
D12*
X138095000Y-104285000D03*
%TD*%
M02*
