%TF.GenerationSoftware,KiCad,Pcbnew,(6.0.0)*%
%TF.CreationDate,2022-08-13T16:18:09-04:00*%
%TF.ProjectId,eib-24-nanoz-adapter,6569622d-3234-42d6-9e61-6e6f7a2d6164,A*%
%TF.SameCoordinates,Original*%
%TF.FileFunction,Copper,L1,Top*%
%TF.FilePolarity,Positive*%
%FSLAX46Y46*%
G04 Gerber Fmt 4.6, Leading zero omitted, Abs format (unit mm)*
G04 Created by KiCad (PCBNEW (6.0.0)) date 2022-08-13 16:18:09*
%MOMM*%
%LPD*%
G01*
G04 APERTURE LIST*
%TA.AperFunction,ComponentPad*%
%ADD10C,2.100000*%
%TD*%
%TA.AperFunction,ComponentPad*%
%ADD11R,2.100000X2.100000*%
%TD*%
%TA.AperFunction,ComponentPad*%
%ADD12R,0.990000X0.990000*%
%TD*%
%TA.AperFunction,ComponentPad*%
%ADD13C,0.990000*%
%TD*%
%TA.AperFunction,SMDPad,CuDef*%
%ADD14R,0.400000X0.385000*%
%TD*%
%TA.AperFunction,SMDPad,CuDef*%
%ADD15R,0.180000X0.400000*%
%TD*%
%TA.AperFunction,ViaPad*%
%ADD16C,0.400000*%
%TD*%
%TA.AperFunction,Conductor*%
%ADD17C,0.120000*%
%TD*%
%TA.AperFunction,Conductor*%
%ADD18C,0.090000*%
%TD*%
G04 APERTURE END LIST*
D10*
%TO.P,J1,2,Pin_2*%
%TO.N,/REF*%
X147850000Y-97870000D03*
D11*
%TO.P,J1,1,Pin_1*%
X147850000Y-95330000D03*
%TD*%
D12*
%TO.P,J4,A1,A1*%
%TO.N,/E13*%
X138095000Y-121285000D03*
D13*
%TO.P,J4,A2,A2*%
%TO.N,/E15*%
X138095000Y-122555000D03*
%TO.P,J4,A3,A3*%
%TO.N,/E17*%
X138095000Y-123825000D03*
%TO.P,J4,A4,A4*%
%TO.N,/E19*%
X138095000Y-125095000D03*
%TO.P,J4,A5,A5*%
%TO.N,/E21*%
X138095000Y-126365000D03*
%TO.P,J4,A6,A6*%
%TO.N,/E23*%
X138095000Y-127635000D03*
%TO.P,J4,A7,A7*%
%TO.N,unconnected-(J4-PadA7)*%
X138095000Y-128905000D03*
%TO.P,J4,A8,A8*%
%TO.N,unconnected-(J4-PadA8)*%
X138095000Y-130175000D03*
%TO.P,J4,A9,A9*%
%TO.N,unconnected-(J4-PadA9)*%
X138095000Y-131445000D03*
%TO.P,J4,A10,A10*%
%TO.N,unconnected-(J4-PadA10)*%
X138095000Y-132715000D03*
%TO.P,J4,B1,B1*%
%TO.N,/REF*%
X139365000Y-121285000D03*
%TO.P,J4,B2,B2*%
X139365000Y-122555000D03*
%TO.P,J4,B3,B3*%
%TO.N,unconnected-(J4-PadB3)*%
X139365000Y-123825000D03*
%TO.P,J4,B4,B4*%
%TO.N,unconnected-(J4-PadB4)*%
X139365000Y-125095000D03*
%TO.P,J4,B5,B5*%
%TO.N,/E20*%
X139365000Y-126365000D03*
%TO.P,J4,B6,B6*%
%TO.N,/E22*%
X139365000Y-127635000D03*
%TO.P,J4,B7,B7*%
%TO.N,unconnected-(J4-PadB7)*%
X139365000Y-128905000D03*
%TO.P,J4,B8,B8*%
%TO.N,unconnected-(J4-PadB8)*%
X139365000Y-130175000D03*
%TO.P,J4,B9,B9*%
%TO.N,unconnected-(J4-PadB9)*%
X139365000Y-131445000D03*
%TO.P,J4,B10,B10*%
%TO.N,unconnected-(J4-PadB10)*%
X139365000Y-132715000D03*
%TO.P,J4,C1,C1*%
%TO.N,/REF*%
X140635000Y-121285000D03*
%TO.P,J4,C2,C2*%
%TO.N,unconnected-(J4-PadC2)*%
X140635000Y-122555000D03*
%TO.P,J4,C3,C3*%
%TO.N,unconnected-(J4-PadC3)*%
X140635000Y-123825000D03*
%TO.P,J4,C4,C4*%
%TO.N,unconnected-(J4-PadC4)*%
X140635000Y-125095000D03*
%TO.P,J4,C5,C5*%
%TO.N,unconnected-(J4-PadC5)*%
X140635000Y-126365000D03*
%TO.P,J4,C6,C6*%
%TO.N,unconnected-(J4-PadC6)*%
X140635000Y-127635000D03*
%TO.P,J4,C7,C7*%
%TO.N,unconnected-(J4-PadC7)*%
X140635000Y-128905000D03*
%TO.P,J4,C8,C8*%
%TO.N,unconnected-(J4-PadC8)*%
X140635000Y-130175000D03*
%TO.P,J4,C9,C9*%
%TO.N,unconnected-(J4-PadC9)*%
X140635000Y-131445000D03*
%TO.P,J4,C10,C10*%
%TO.N,unconnected-(J4-PadC10)*%
X140635000Y-132715000D03*
%TO.P,J4,D1,D1*%
%TO.N,unconnected-(J4-PadD1)*%
X141905000Y-121285000D03*
%TO.P,J4,D2,D2*%
%TO.N,unconnected-(J4-PadD2)*%
X141905000Y-122555000D03*
%TO.P,J4,D3,D3*%
%TO.N,unconnected-(J4-PadD3)*%
X141905000Y-123825000D03*
%TO.P,J4,D4,D4*%
%TO.N,unconnected-(J4-PadD4)*%
X141905000Y-125095000D03*
%TO.P,J4,D5,D5*%
%TO.N,unconnected-(J4-PadD5)*%
X141905000Y-126365000D03*
%TO.P,J4,D6,D6*%
%TO.N,unconnected-(J4-PadD6)*%
X141905000Y-127635000D03*
%TO.P,J4,D7,D7*%
%TO.N,unconnected-(J4-PadD7)*%
X141905000Y-128905000D03*
%TO.P,J4,D8,D8*%
%TO.N,unconnected-(J4-PadD8)*%
X141905000Y-130175000D03*
%TO.P,J4,D9,D9*%
%TO.N,unconnected-(J4-PadD9)*%
X141905000Y-131445000D03*
%TO.P,J4,D10,D10*%
%TO.N,unconnected-(J4-PadD10)*%
X141905000Y-132715000D03*
%TD*%
%TO.P,J3,D10,D10*%
%TO.N,unconnected-(J3-PadD10)*%
X141905000Y-115715000D03*
%TO.P,J3,D9,D9*%
%TO.N,unconnected-(J3-PadD9)*%
X141905000Y-114445000D03*
%TO.P,J3,D8,D8*%
%TO.N,unconnected-(J3-PadD8)*%
X141905000Y-113175000D03*
%TO.P,J3,D7,D7*%
%TO.N,unconnected-(J3-PadD7)*%
X141905000Y-111905000D03*
%TO.P,J3,D6,D6*%
%TO.N,unconnected-(J3-PadD6)*%
X141905000Y-110635000D03*
%TO.P,J3,D5,D5*%
%TO.N,unconnected-(J3-PadD5)*%
X141905000Y-109365000D03*
%TO.P,J3,D4,D4*%
%TO.N,unconnected-(J3-PadD4)*%
X141905000Y-108095000D03*
%TO.P,J3,D3,D3*%
%TO.N,unconnected-(J3-PadD3)*%
X141905000Y-106825000D03*
%TO.P,J3,D2,D2*%
%TO.N,unconnected-(J3-PadD2)*%
X141905000Y-105555000D03*
%TO.P,J3,D1,D1*%
%TO.N,unconnected-(J3-PadD1)*%
X141905000Y-104285000D03*
%TO.P,J3,C10,C10*%
%TO.N,unconnected-(J3-PadC10)*%
X140635000Y-115715000D03*
%TO.P,J3,C9,C9*%
%TO.N,unconnected-(J3-PadC9)*%
X140635000Y-114445000D03*
%TO.P,J3,C8,C8*%
%TO.N,unconnected-(J3-PadC8)*%
X140635000Y-113175000D03*
%TO.P,J3,C7,C7*%
%TO.N,unconnected-(J3-PadC7)*%
X140635000Y-111905000D03*
%TO.P,J3,C6,C6*%
%TO.N,unconnected-(J3-PadC6)*%
X140635000Y-110635000D03*
%TO.P,J3,C5,C5*%
%TO.N,unconnected-(J3-PadC5)*%
X140635000Y-109365000D03*
%TO.P,J3,C4,C4*%
%TO.N,unconnected-(J3-PadC4)*%
X140635000Y-108095000D03*
%TO.P,J3,C3,C3*%
%TO.N,unconnected-(J3-PadC3)*%
X140635000Y-106825000D03*
%TO.P,J3,C2,C2*%
%TO.N,unconnected-(J3-PadC2)*%
X140635000Y-105555000D03*
%TO.P,J3,C1,C1*%
%TO.N,/REF*%
X140635000Y-104285000D03*
%TO.P,J3,B10,B10*%
%TO.N,/E11*%
X139365000Y-115715000D03*
%TO.P,J3,B9,B9*%
%TO.N,/E9*%
X139365000Y-114445000D03*
%TO.P,J3,B8,B8*%
%TO.N,/E7*%
X139365000Y-113175000D03*
%TO.P,J3,B7,B7*%
%TO.N,/E5*%
X139365000Y-111905000D03*
%TO.P,J3,B6,B6*%
%TO.N,/E3*%
X139365000Y-110635000D03*
%TO.P,J3,B5,B5*%
%TO.N,/E1*%
X139365000Y-109365000D03*
%TO.P,J3,B4,B4*%
%TO.N,unconnected-(J3-PadB4)*%
X139365000Y-108095000D03*
%TO.P,J3,B3,B3*%
%TO.N,unconnected-(J3-PadB3)*%
X139365000Y-106825000D03*
%TO.P,J3,B2,B2*%
%TO.N,/REF*%
X139365000Y-105555000D03*
%TO.P,J3,B1,B1*%
X139365000Y-104285000D03*
%TO.P,J3,A10,A10*%
%TO.N,/E18*%
X138095000Y-115715000D03*
%TO.P,J3,A9,A9*%
%TO.N,/E16*%
X138095000Y-114445000D03*
%TO.P,J3,A8,A8*%
%TO.N,/E14*%
X138095000Y-113175000D03*
%TO.P,J3,A7,A7*%
%TO.N,/E12*%
X138095000Y-111905000D03*
%TO.P,J3,A6,A6*%
%TO.N,/E10*%
X138095000Y-110635000D03*
%TO.P,J3,A5,A5*%
%TO.N,/E8*%
X138095000Y-109365000D03*
%TO.P,J3,A4,A4*%
%TO.N,/E6*%
X138095000Y-108095000D03*
%TO.P,J3,A3,A3*%
%TO.N,/E4*%
X138095000Y-106825000D03*
%TO.P,J3,A2,A2*%
%TO.N,/E2*%
X138095000Y-105555000D03*
D12*
%TO.P,J3,A1,A1*%
%TO.N,/E0*%
X138095000Y-104285000D03*
%TD*%
D14*
%TO.P,J2,MP4,MountPin4*%
%TO.N,unconnected-(J2-PadMP4)*%
X143205000Y-159517500D03*
%TO.P,J2,MP3,MountPin3*%
%TO.N,unconnected-(J2-PadMP3)*%
X143205000Y-160482500D03*
%TO.P,J2,MP2,MountPin2*%
%TO.N,unconnected-(J2-PadMP2)*%
X136795000Y-159517500D03*
%TO.P,J2,MP1,MountPin1*%
%TO.N,unconnected-(J2-PadMP1)*%
X136795000Y-160482500D03*
D15*
%TO.P,J2,24,Pin_24*%
%TO.N,/E12*%
X141925000Y-159050000D03*
%TO.P,J2,23,Pin_23*%
%TO.N,/E0*%
X141925000Y-160950000D03*
%TO.P,J2,22,Pin_22*%
%TO.N,/E13*%
X141575000Y-159050000D03*
%TO.P,J2,21,Pin_21*%
%TO.N,/E1*%
X141575000Y-160950000D03*
%TO.P,J2,20,Pin_20*%
%TO.N,/E14*%
X141225000Y-159050000D03*
%TO.P,J2,19,Pin_19*%
%TO.N,/E2*%
X141225000Y-160950000D03*
%TO.P,J2,18,Pin_18*%
%TO.N,/E15*%
X140875000Y-159050000D03*
%TO.P,J2,17,Pin_17*%
%TO.N,/E3*%
X140875000Y-160950000D03*
%TO.P,J2,16,Pin_16*%
%TO.N,/E16*%
X140525000Y-159050000D03*
%TO.P,J2,15,Pin_15*%
%TO.N,/E4*%
X140525000Y-160950000D03*
%TO.P,J2,14,Pin_14*%
%TO.N,/E17*%
X140175000Y-159050000D03*
%TO.P,J2,13,Pin_13*%
%TO.N,/E5*%
X140175000Y-160950000D03*
%TO.P,J2,12,Pin_12*%
%TO.N,/E18*%
X139825000Y-159050000D03*
%TO.P,J2,11,Pin_11*%
%TO.N,/E6*%
X139825000Y-160950000D03*
%TO.P,J2,10,Pin_10*%
%TO.N,/E19*%
X139475000Y-159050000D03*
%TO.P,J2,9,Pin_9*%
%TO.N,/E7*%
X139475000Y-160950000D03*
%TO.P,J2,8,Pin_8*%
%TO.N,/E20*%
X139125000Y-159050000D03*
%TO.P,J2,7,Pin_7*%
%TO.N,/E8*%
X139125000Y-160950000D03*
%TO.P,J2,6,Pin_6*%
%TO.N,/E21*%
X138775000Y-159050000D03*
%TO.P,J2,5,Pin_5*%
%TO.N,/E9*%
X138775000Y-160950000D03*
%TO.P,J2,4,Pin_4*%
%TO.N,/E22*%
X138425000Y-159050000D03*
%TO.P,J2,3,Pin_3*%
%TO.N,/E10*%
X138425000Y-160950000D03*
%TO.P,J2,2,Pin_2*%
%TO.N,/E23*%
X138075000Y-159050000D03*
%TO.P,J2,1,Pin_1*%
%TO.N,/E11*%
X138075000Y-160950000D03*
%TD*%
D16*
%TO.N,/E4*%
X135800000Y-122050000D03*
%TO.N,/E17*%
X134800000Y-124400000D03*
%TO.N,/E19*%
X133000000Y-125450000D03*
%TO.N,/E22*%
X131100000Y-130150000D03*
%TO.N,/E20*%
X132050000Y-127100000D03*
%TO.N,/E21*%
X131050000Y-126550000D03*
%TO.N,/E23*%
X130000000Y-128450000D03*
%TO.N,/E11*%
X131450000Y-116500000D03*
X133700000Y-116500000D03*
%TO.N,/E9*%
X130850000Y-115900000D03*
X133850000Y-115600000D03*
%TO.N,/E6*%
X134000000Y-117000000D03*
X134350000Y-113400000D03*
X136600000Y-111100000D03*
X136650000Y-110050000D03*
%TO.N,/E18*%
X134450000Y-119150000D03*
X136400000Y-118350000D03*
%TO.N,/E5*%
X134950000Y-116100000D03*
X134950000Y-113200000D03*
%TO.N,/E8*%
X134100000Y-111250000D03*
%TO.N,/E1*%
X144850000Y-110550000D03*
X142950000Y-110000000D03*
%TO.N,/E13*%
X138300000Y-118800000D03*
%TO.N,/E21*%
X137350000Y-156950000D03*
%TO.N,/E16*%
X140900000Y-156200000D03*
%TO.N,/E12*%
X143150000Y-158350000D03*
%TO.N,/E13*%
X142250000Y-158250000D03*
%TO.N,/E14*%
X142950000Y-157250000D03*
%TO.N,/E15*%
X141600000Y-157000000D03*
%TO.N,/E17*%
X140250000Y-157250000D03*
%TO.N,/E18*%
X139800000Y-156300000D03*
%TO.N,/E19*%
X139200000Y-156900000D03*
%TO.N,/E20*%
X138500000Y-156250000D03*
%TO.N,/E22*%
X138150000Y-157900000D03*
%TO.N,/E23*%
X137050000Y-158400000D03*
%TO.N,/E5*%
X140300000Y-161600000D03*
%TO.N,/E3*%
X143300000Y-161700000D03*
%TO.N,/E6*%
X139600000Y-161600000D03*
%TO.N,/E8*%
X136700000Y-161700000D03*
%TO.N,/E9*%
X136800000Y-161100000D03*
%TO.N,/E4*%
X141000000Y-161700000D03*
%TO.N,/E2*%
X143300000Y-161100000D03*
%TO.N,/E1*%
X142700000Y-161000000D03*
%TO.N,/E0*%
X142590774Y-160117244D03*
%TO.N,/E7*%
X138900000Y-161800000D03*
%TO.N,/E10*%
X137370000Y-161000000D03*
%TO.N,/E11*%
X137435748Y-160118888D03*
%TD*%
D17*
%TO.N,/E23*%
X130815000Y-127635000D02*
X130000000Y-128450000D01*
X138095000Y-127635000D02*
X130815000Y-127635000D01*
%TO.N,/E21*%
X131235000Y-126365000D02*
X131050000Y-126550000D01*
X138095000Y-126365000D02*
X131235000Y-126365000D01*
%TO.N,/E17*%
X138095000Y-123825000D02*
X135375000Y-123825000D01*
X135375000Y-123825000D02*
X134800000Y-124400000D01*
%TO.N,/E22*%
X132680479Y-128269521D02*
X131100000Y-129850000D01*
X137419521Y-128269521D02*
X132680479Y-128269521D01*
X131100000Y-129850000D02*
X131100000Y-130150000D01*
%TO.N,/E20*%
X132050000Y-127100000D02*
X132149521Y-127000479D01*
X132149521Y-127000479D02*
X137350479Y-127000479D01*
D18*
X137350479Y-127000479D02*
X132299521Y-127000479D01*
X138729521Y-127000479D02*
X137350479Y-127000479D01*
D17*
%TO.N,/E11*%
X133700000Y-116500000D02*
X131450000Y-116500000D01*
%TO.N,/E5*%
X134950000Y-113200000D02*
X134950000Y-116100000D01*
%TO.N,/E6*%
X134350000Y-116650000D02*
X134000000Y-117000000D01*
X134350000Y-113400000D02*
X134350000Y-116650000D01*
%TO.N,/E9*%
X133550000Y-115900000D02*
X133850000Y-115600000D01*
X130850000Y-115900000D02*
X133550000Y-115900000D01*
%TO.N,/E18*%
X135600000Y-119150000D02*
X134450000Y-119150000D01*
X136400000Y-118350000D02*
X135600000Y-119150000D01*
%TO.N,/E6*%
X136650000Y-111050000D02*
X136600000Y-111100000D01*
X136650000Y-110050000D02*
X136650000Y-111050000D01*
%TO.N,/E8*%
X138095000Y-109365000D02*
X135985000Y-109365000D01*
X135985000Y-109365000D02*
X134100000Y-111250000D01*
%TO.N,/E1*%
X144300000Y-110000000D02*
X142950000Y-110000000D01*
X144850000Y-110550000D02*
X144300000Y-110000000D01*
%TO.N,/E13*%
X138095000Y-119005000D02*
X138095000Y-121285000D01*
X138300000Y-118800000D02*
X138095000Y-119005000D01*
D18*
%TO.N,/E20*%
X132299521Y-127000479D02*
X132250000Y-127050000D01*
X139365000Y-126365000D02*
X138729521Y-127000479D01*
%TO.N,/E22*%
X138730479Y-128269521D02*
X137419521Y-128269521D01*
X139365000Y-127635000D02*
X138730479Y-128269521D01*
D17*
%TO.N,/E19*%
X133355000Y-125095000D02*
X133000000Y-125450000D01*
X138095000Y-125095000D02*
X133355000Y-125095000D01*
D18*
%TO.N,/E21*%
X137757910Y-156950000D02*
X137350000Y-156950000D01*
X138775000Y-157967090D02*
X137757910Y-156950000D01*
X138775000Y-159050000D02*
X138775000Y-157967090D01*
%TO.N,/E13*%
X142085000Y-158250000D02*
X142250000Y-158250000D01*
X141575000Y-159050000D02*
X141575000Y-158760000D01*
X141575000Y-158760000D02*
X142085000Y-158250000D01*
%TO.N,/E20*%
X138500000Y-157000000D02*
X138500000Y-156250000D01*
X139125000Y-157625000D02*
X138500000Y-157000000D01*
X139125000Y-159050000D02*
X139125000Y-157625000D01*
%TO.N,/E22*%
X138425000Y-159050000D02*
X138425000Y-158175000D01*
X138425000Y-158175000D02*
X138150000Y-157900000D01*
%TO.N,/E16*%
X140900000Y-157200000D02*
X140900000Y-156200000D01*
X140525000Y-157575000D02*
X140900000Y-157200000D01*
X140525000Y-159050000D02*
X140525000Y-157575000D01*
%TO.N,/E15*%
X140875000Y-159050000D02*
X140875000Y-157725000D01*
X140875000Y-157725000D02*
X141600000Y-157000000D01*
%TO.N,/E14*%
X142300000Y-157250000D02*
X142950000Y-157250000D01*
X141225000Y-158325000D02*
X142300000Y-157250000D01*
X141225000Y-159050000D02*
X141225000Y-158325000D01*
%TO.N,/E19*%
X139475000Y-157175000D02*
X139200000Y-156900000D01*
X139475000Y-159050000D02*
X139475000Y-157175000D01*
%TO.N,/E23*%
X137700000Y-159050000D02*
X137050000Y-158400000D01*
X138075000Y-159050000D02*
X137700000Y-159050000D01*
%TO.N,/E12*%
X142450000Y-159050000D02*
X143150000Y-158350000D01*
X141925000Y-159050000D02*
X142450000Y-159050000D01*
%TO.N,/E18*%
X139825000Y-156325000D02*
X139800000Y-156300000D01*
X139825000Y-159050000D02*
X139825000Y-156325000D01*
%TO.N,/E17*%
X140175000Y-157325000D02*
X140250000Y-157250000D01*
X140175000Y-159050000D02*
X140175000Y-157325000D01*
%TO.N,/E5*%
X140175000Y-160950000D02*
X140175000Y-161475000D01*
X140175000Y-161475000D02*
X140300000Y-161600000D01*
%TO.N,/E7*%
X138900000Y-161742090D02*
X138900000Y-161800000D01*
X139475000Y-161167090D02*
X138900000Y-161742090D01*
%TO.N,/E6*%
X139825000Y-161375000D02*
X139600000Y-161600000D01*
X139825000Y-160950000D02*
X139825000Y-161375000D01*
%TO.N,/E7*%
X139475000Y-160950000D02*
X139475000Y-161167090D01*
%TO.N,/E3*%
X141557910Y-161700000D02*
X143300000Y-161700000D01*
X141163409Y-161305499D02*
X141557910Y-161700000D01*
X140940499Y-161305499D02*
X141163409Y-161305499D01*
X140875000Y-161240000D02*
X140940499Y-161305499D01*
%TO.N,/E4*%
X140525000Y-161225000D02*
X141000000Y-161700000D01*
X140525000Y-160950000D02*
X140525000Y-161225000D01*
%TO.N,/E1*%
X142400000Y-161300000D02*
X142700000Y-161000000D01*
X141665642Y-161300000D02*
X142400000Y-161300000D01*
%TO.N,/E2*%
X141611776Y-161500000D02*
X142900000Y-161500000D01*
%TO.N,/E1*%
X141575000Y-160950000D02*
X141575000Y-161209358D01*
X141575000Y-161209358D02*
X141665642Y-161300000D01*
%TO.N,/E2*%
X141225000Y-160950000D02*
X141225000Y-161113224D01*
%TO.N,/E3*%
X140875000Y-160950000D02*
X140875000Y-161240000D01*
%TO.N,/E2*%
X142900000Y-161500000D02*
X143300000Y-161100000D01*
X141225000Y-161113224D02*
X141611776Y-161500000D01*
%TO.N,/E9*%
X137170000Y-161470000D02*
X136800000Y-161100000D01*
X138418224Y-161470000D02*
X137170000Y-161470000D01*
X138775000Y-161113224D02*
X138418224Y-161470000D01*
X138775000Y-160950000D02*
X138775000Y-161113224D01*
%TO.N,/E8*%
X138736591Y-161405499D02*
X138442090Y-161700000D01*
X138959501Y-161405499D02*
X138736591Y-161405499D01*
X139125000Y-161240000D02*
X138959501Y-161405499D01*
X139125000Y-160950000D02*
X139125000Y-161240000D01*
X138442090Y-161700000D02*
X136700000Y-161700000D01*
%TO.N,/E11*%
X137600000Y-160628668D02*
X137600000Y-160283140D01*
X137921332Y-160950000D02*
X137600000Y-160628668D01*
X138075000Y-160950000D02*
X137921332Y-160950000D01*
X137600000Y-160283140D02*
X137435748Y-160118888D01*
%TO.N,/E0*%
X142105000Y-160950000D02*
X142590774Y-160464226D01*
X141925000Y-160950000D02*
X142105000Y-160950000D01*
X142590774Y-160464226D02*
X142590774Y-160117244D01*
%TO.N,/E10*%
X138305319Y-161284511D02*
X137654511Y-161284511D01*
X137654511Y-161284511D02*
X137370000Y-161000000D01*
X138425000Y-161164830D02*
X138305319Y-161284511D01*
X138425000Y-160950000D02*
X138425000Y-161164830D01*
%TD*%
%TA.AperFunction,Conductor*%
%TO.N,/REF*%
G36*
X150984938Y-91751902D02*
G01*
X151000000Y-91754898D01*
X151009562Y-91752996D01*
X151019315Y-91752996D01*
X151019315Y-91753639D01*
X151031086Y-91753062D01*
X151106345Y-91760474D01*
X151136614Y-91763455D01*
X151155646Y-91767241D01*
X151277683Y-91804260D01*
X151295609Y-91811685D01*
X151408080Y-91871802D01*
X151424214Y-91882583D01*
X151522796Y-91963487D01*
X151536513Y-91977204D01*
X151617416Y-92075784D01*
X151628197Y-92091918D01*
X151639217Y-92112534D01*
X151688314Y-92204388D01*
X151695740Y-92222317D01*
X151720474Y-92303852D01*
X151732759Y-92344352D01*
X151736545Y-92363387D01*
X151746938Y-92468914D01*
X151746361Y-92480685D01*
X151747004Y-92480685D01*
X151747004Y-92490438D01*
X151745102Y-92500000D01*
X151747004Y-92509562D01*
X151748098Y-92515062D01*
X151750000Y-92534376D01*
X151750000Y-133855438D01*
X151731093Y-133913629D01*
X151721004Y-133925442D01*
X142497528Y-143148919D01*
X142482526Y-143161230D01*
X142469760Y-143169760D01*
X142455812Y-143190635D01*
X142414505Y-143252455D01*
X142395102Y-143350000D01*
X142397004Y-143359562D01*
X142398098Y-143365062D01*
X142400000Y-143384376D01*
X142400000Y-153765624D01*
X142398098Y-153784938D01*
X142395102Y-153800000D01*
X142400000Y-153824624D01*
X142414505Y-153897545D01*
X142469760Y-153980240D01*
X142477870Y-153985659D01*
X142482526Y-153988770D01*
X142497528Y-154001081D01*
X143721004Y-155224557D01*
X143748781Y-155279074D01*
X143750000Y-155294561D01*
X143750000Y-158124185D01*
X143731093Y-158182376D01*
X143681593Y-158218340D01*
X143620407Y-158218340D01*
X143570907Y-158182376D01*
X143560878Y-158165161D01*
X143536349Y-158111212D01*
X143536348Y-158111211D01*
X143533428Y-158104788D01*
X143469387Y-158030464D01*
X143453798Y-158012372D01*
X143453797Y-158012371D01*
X143449193Y-158007028D01*
X143443276Y-158003193D01*
X143443274Y-158003191D01*
X143346824Y-157940677D01*
X143340906Y-157936841D01*
X143334150Y-157934821D01*
X143334149Y-157934820D01*
X143259089Y-157912372D01*
X143217273Y-157899866D01*
X143140644Y-157899398D01*
X143095282Y-157899121D01*
X143088231Y-157899078D01*
X143081454Y-157901015D01*
X143081453Y-157901015D01*
X142970935Y-157932601D01*
X142970933Y-157932602D01*
X142964155Y-157934539D01*
X142855019Y-158003399D01*
X142809428Y-158055021D01*
X142756736Y-158086121D01*
X142695827Y-158080309D01*
X142649967Y-158039807D01*
X142645103Y-158030464D01*
X142636350Y-158011213D01*
X142636348Y-158011209D01*
X142633428Y-158004788D01*
X142549193Y-157907028D01*
X142543276Y-157903193D01*
X142543274Y-157903191D01*
X142446824Y-157840677D01*
X142440906Y-157836841D01*
X142434150Y-157834821D01*
X142434149Y-157834820D01*
X142361344Y-157813046D01*
X142311011Y-157778258D01*
X142290738Y-157720528D01*
X142308270Y-157661909D01*
X142319707Y-157648193D01*
X142393404Y-157574496D01*
X142447921Y-157546719D01*
X142463408Y-157545500D01*
X142563717Y-157545500D01*
X142621908Y-157564407D01*
X142639500Y-157580798D01*
X142646639Y-157589291D01*
X142754060Y-157660796D01*
X142760788Y-157662898D01*
X142760790Y-157662899D01*
X142815646Y-157680037D01*
X142877233Y-157699278D01*
X142941744Y-157700460D01*
X142999202Y-157701514D01*
X142999204Y-157701514D01*
X143006255Y-157701643D01*
X143013058Y-157699788D01*
X143013060Y-157699788D01*
X143054828Y-157688400D01*
X143130755Y-157667700D01*
X143240724Y-157600179D01*
X143273103Y-157564407D01*
X143322590Y-157509735D01*
X143322590Y-157509734D01*
X143327322Y-157504507D01*
X143378243Y-157399407D01*
X143380512Y-157394724D01*
X143380512Y-157394723D01*
X143383588Y-157388375D01*
X143404997Y-157261120D01*
X143405133Y-157250000D01*
X143386839Y-157122259D01*
X143333428Y-157004788D01*
X143249193Y-156907028D01*
X143243276Y-156903193D01*
X143243274Y-156903191D01*
X143146824Y-156840677D01*
X143140906Y-156836841D01*
X143134150Y-156834821D01*
X143134149Y-156834820D01*
X143074336Y-156816932D01*
X143017273Y-156799866D01*
X142940644Y-156799398D01*
X142895282Y-156799121D01*
X142888231Y-156799078D01*
X142881454Y-156801015D01*
X142881453Y-156801015D01*
X142770935Y-156832601D01*
X142770933Y-156832602D01*
X142764155Y-156834539D01*
X142655019Y-156903399D01*
X142647094Y-156912372D01*
X142639442Y-156921036D01*
X142586750Y-156952135D01*
X142565239Y-156954500D01*
X142352559Y-156954500D01*
X142348584Y-156954208D01*
X142343915Y-156952605D01*
X142334779Y-156952948D01*
X142295317Y-156954430D01*
X142291602Y-156954500D01*
X142272514Y-156954500D01*
X142268145Y-156955314D01*
X142263144Y-156955638D01*
X142243044Y-156956393D01*
X142233910Y-156956736D01*
X142223685Y-156961129D01*
X142202725Y-156967497D01*
X142200764Y-156967862D01*
X142200762Y-156967863D01*
X142191778Y-156969536D01*
X142183997Y-156974332D01*
X142175472Y-156977622D01*
X142174153Y-156974203D01*
X142131273Y-156984607D01*
X142074689Y-156961329D01*
X142042594Y-156909238D01*
X142040802Y-156899930D01*
X142037839Y-156879242D01*
X142036839Y-156872259D01*
X141994893Y-156780003D01*
X141986349Y-156761212D01*
X141986348Y-156761211D01*
X141983428Y-156754788D01*
X141899193Y-156657028D01*
X141893276Y-156653193D01*
X141893274Y-156653191D01*
X141816131Y-156603191D01*
X141790906Y-156586841D01*
X141784150Y-156584821D01*
X141784149Y-156584820D01*
X141738015Y-156571023D01*
X141667273Y-156549866D01*
X141590644Y-156549398D01*
X141545282Y-156549121D01*
X141538231Y-156549078D01*
X141531454Y-156551015D01*
X141531453Y-156551015D01*
X141420932Y-156582602D01*
X141414155Y-156584539D01*
X141408194Y-156588300D01*
X141406008Y-156589278D01*
X141345169Y-156595780D01*
X141292128Y-156565280D01*
X141267144Y-156509428D01*
X141278588Y-156455120D01*
X141277322Y-156454507D01*
X141330512Y-156344724D01*
X141330512Y-156344723D01*
X141333588Y-156338375D01*
X141347228Y-156257299D01*
X141354363Y-156214891D01*
X141354363Y-156214886D01*
X141354997Y-156211120D01*
X141355133Y-156200000D01*
X141336839Y-156072259D01*
X141283428Y-155954788D01*
X141199193Y-155857028D01*
X141193276Y-155853193D01*
X141193274Y-155853191D01*
X141096824Y-155790677D01*
X141090906Y-155786841D01*
X141084150Y-155784821D01*
X141084149Y-155784820D01*
X141041335Y-155772016D01*
X140967273Y-155749866D01*
X140890644Y-155749398D01*
X140845282Y-155749121D01*
X140838231Y-155749078D01*
X140831454Y-155751015D01*
X140831453Y-155751015D01*
X140720935Y-155782601D01*
X140720933Y-155782602D01*
X140714155Y-155784539D01*
X140605019Y-155853399D01*
X140519596Y-155950122D01*
X140464754Y-156066932D01*
X140444901Y-156194440D01*
X140445816Y-156201437D01*
X140445816Y-156201438D01*
X140447082Y-156211120D01*
X140461633Y-156322394D01*
X140464471Y-156328845D01*
X140464472Y-156328847D01*
X140509230Y-156430567D01*
X140513605Y-156440510D01*
X140562873Y-156499121D01*
X140581283Y-156521023D01*
X140604253Y-156577733D01*
X140604500Y-156584725D01*
X140604500Y-156760731D01*
X140585593Y-156818922D01*
X140536093Y-156854886D01*
X140474907Y-156854886D01*
X140451656Y-156843808D01*
X140446827Y-156840678D01*
X140446823Y-156840676D01*
X140440906Y-156836841D01*
X140434150Y-156834821D01*
X140434149Y-156834820D01*
X140374336Y-156816932D01*
X140317273Y-156799866D01*
X140286557Y-156799678D01*
X140218895Y-156799265D01*
X140160821Y-156780003D01*
X140125160Y-156730284D01*
X140120500Y-156700267D01*
X140120500Y-156655434D01*
X140139407Y-156597243D01*
X140146103Y-156588997D01*
X140172590Y-156559735D01*
X140172590Y-156559734D01*
X140177322Y-156554507D01*
X140225772Y-156454507D01*
X140230512Y-156444724D01*
X140230512Y-156444723D01*
X140233588Y-156438375D01*
X140250412Y-156338375D01*
X140254363Y-156314891D01*
X140254363Y-156314886D01*
X140254997Y-156311120D01*
X140255133Y-156300000D01*
X140236839Y-156172259D01*
X140183428Y-156054788D01*
X140099193Y-155957028D01*
X140093276Y-155953193D01*
X140093274Y-155953191D01*
X140016131Y-155903191D01*
X139990906Y-155886841D01*
X139984150Y-155884821D01*
X139984149Y-155884820D01*
X139909089Y-155862372D01*
X139867273Y-155849866D01*
X139790644Y-155849398D01*
X139745282Y-155849121D01*
X139738231Y-155849078D01*
X139731454Y-155851015D01*
X139731453Y-155851015D01*
X139620935Y-155882601D01*
X139620933Y-155882602D01*
X139614155Y-155884539D01*
X139608191Y-155888302D01*
X139584264Y-155903399D01*
X139505019Y-155953399D01*
X139419596Y-156050122D01*
X139364754Y-156166932D01*
X139344901Y-156294440D01*
X139345816Y-156301437D01*
X139345816Y-156301438D01*
X139347082Y-156311120D01*
X139349737Y-156331418D01*
X139350589Y-156337937D01*
X139339387Y-156398088D01*
X139294968Y-156440167D01*
X139251822Y-156449772D01*
X139159740Y-156449209D01*
X139145282Y-156449121D01*
X139138231Y-156449078D01*
X139131450Y-156451016D01*
X139063386Y-156470468D01*
X139002240Y-156468279D01*
X138954059Y-156430567D01*
X138937245Y-156371737D01*
X138938553Y-156358862D01*
X138954997Y-156261120D01*
X138955133Y-156250000D01*
X138936839Y-156122259D01*
X138883428Y-156004788D01*
X138799193Y-155907028D01*
X138793276Y-155903193D01*
X138793274Y-155903191D01*
X138710935Y-155849823D01*
X138690906Y-155836841D01*
X138684150Y-155834821D01*
X138684149Y-155834820D01*
X138641335Y-155822016D01*
X138567273Y-155799866D01*
X138490644Y-155799398D01*
X138445282Y-155799121D01*
X138438231Y-155799078D01*
X138431454Y-155801015D01*
X138431453Y-155801015D01*
X138320935Y-155832601D01*
X138320933Y-155832602D01*
X138314155Y-155834539D01*
X138308191Y-155838302D01*
X138284264Y-155853399D01*
X138205019Y-155903399D01*
X138119596Y-156000122D01*
X138064754Y-156116932D01*
X138044901Y-156244440D01*
X138045816Y-156251437D01*
X138045816Y-156251438D01*
X138047082Y-156261120D01*
X138061633Y-156372394D01*
X138064471Y-156378845D01*
X138064472Y-156378847D01*
X138095680Y-156449772D01*
X138113605Y-156490510D01*
X138162873Y-156549121D01*
X138181283Y-156571023D01*
X138204253Y-156627733D01*
X138204500Y-156634725D01*
X138204500Y-156739681D01*
X138185593Y-156797872D01*
X138136093Y-156833836D01*
X138074907Y-156833836D01*
X138035496Y-156809685D01*
X138004019Y-156778208D01*
X138001419Y-156775195D01*
X137999252Y-156770763D01*
X137963617Y-156737707D01*
X137960941Y-156735130D01*
X137947425Y-156721614D01*
X137943754Y-156719096D01*
X137939978Y-156715779D01*
X137929980Y-156706504D01*
X137918546Y-156695898D01*
X137910060Y-156692512D01*
X137910058Y-156692511D01*
X137908207Y-156691773D01*
X137888892Y-156681459D01*
X137887246Y-156680330D01*
X137887240Y-156680327D01*
X137879703Y-156675157D01*
X137870811Y-156673047D01*
X137870809Y-156673046D01*
X137854335Y-156669137D01*
X137840509Y-156664764D01*
X137822791Y-156657695D01*
X137822789Y-156657695D01*
X137816301Y-156655106D01*
X137810120Y-156654500D01*
X137804239Y-156654500D01*
X137781677Y-156651860D01*
X137781490Y-156651851D01*
X137772595Y-156649740D01*
X137754055Y-156652263D01*
X137748346Y-156653040D01*
X137688137Y-156642152D01*
X137659996Y-156619566D01*
X137653797Y-156612371D01*
X137653796Y-156612370D01*
X137649193Y-156607028D01*
X137643276Y-156603193D01*
X137643274Y-156603191D01*
X137553344Y-156544903D01*
X137540906Y-156536841D01*
X137534150Y-156534821D01*
X137534149Y-156534820D01*
X137449245Y-156509428D01*
X137417273Y-156499866D01*
X137340644Y-156499398D01*
X137295282Y-156499121D01*
X137288231Y-156499078D01*
X137281454Y-156501015D01*
X137281453Y-156501015D01*
X137170935Y-156532601D01*
X137170933Y-156532602D01*
X137164155Y-156534539D01*
X137055019Y-156603399D01*
X136969596Y-156700122D01*
X136914754Y-156816932D01*
X136894901Y-156944440D01*
X136895816Y-156951437D01*
X136895816Y-156951438D01*
X136897652Y-156965480D01*
X136911633Y-157072394D01*
X136963605Y-157190510D01*
X137005122Y-157239900D01*
X137042100Y-157283892D01*
X137042103Y-157283894D01*
X137046639Y-157289291D01*
X137154060Y-157360796D01*
X137160788Y-157362898D01*
X137160790Y-157362899D01*
X137215647Y-157380037D01*
X137277233Y-157399278D01*
X137341744Y-157400461D01*
X137399202Y-157401514D01*
X137399204Y-157401514D01*
X137406255Y-157401643D01*
X137413058Y-157399788D01*
X137413060Y-157399788D01*
X137454921Y-157388375D01*
X137530755Y-157367700D01*
X137604802Y-157322235D01*
X137664284Y-157307899D01*
X137720833Y-157331265D01*
X137726607Y-157336597D01*
X137830677Y-157440667D01*
X137858454Y-157495184D01*
X137848883Y-157555616D01*
X137834879Y-157576204D01*
X137769596Y-157650122D01*
X137714754Y-157766932D01*
X137694901Y-157894440D01*
X137711633Y-158022394D01*
X137714471Y-158028845D01*
X137714472Y-158028847D01*
X137755574Y-158122259D01*
X137763605Y-158140510D01*
X137798797Y-158182376D01*
X137842100Y-158233892D01*
X137842103Y-158233894D01*
X137846639Y-158239291D01*
X137954060Y-158310796D01*
X137960787Y-158312898D01*
X137960792Y-158312900D01*
X138060022Y-158343901D01*
X138109927Y-158379301D01*
X138129500Y-158438397D01*
X138129500Y-158500500D01*
X138110593Y-158558691D01*
X138061093Y-158594655D01*
X138030500Y-158599500D01*
X137960326Y-158599500D01*
X137887260Y-158614034D01*
X137879153Y-158619451D01*
X137879150Y-158619452D01*
X137831729Y-158651137D01*
X137772841Y-158667745D01*
X137715438Y-158646567D01*
X137706725Y-158638825D01*
X137533774Y-158465874D01*
X137505997Y-158411357D01*
X137505093Y-158403255D01*
X137505133Y-158400000D01*
X137486839Y-158272259D01*
X137433428Y-158154788D01*
X137349193Y-158057028D01*
X137343276Y-158053193D01*
X137343274Y-158053191D01*
X137266131Y-158003191D01*
X137240906Y-157986841D01*
X137234150Y-157984821D01*
X137234149Y-157984820D01*
X137191335Y-157972016D01*
X137117273Y-157949866D01*
X137040644Y-157949398D01*
X136995282Y-157949121D01*
X136988231Y-157949078D01*
X136981454Y-157951015D01*
X136981453Y-157951015D01*
X136870935Y-157982601D01*
X136870933Y-157982602D01*
X136864155Y-157984539D01*
X136858191Y-157988302D01*
X136834264Y-158003399D01*
X136755019Y-158053399D01*
X136669596Y-158150122D01*
X136614754Y-158266932D01*
X136594901Y-158394440D01*
X136611633Y-158522394D01*
X136614471Y-158528845D01*
X136614472Y-158528847D01*
X136651118Y-158612132D01*
X136663605Y-158640510D01*
X136687889Y-158669399D01*
X136742100Y-158733892D01*
X136742103Y-158733894D01*
X136746639Y-158739291D01*
X136854060Y-158810796D01*
X136860788Y-158812898D01*
X136860790Y-158812899D01*
X136914801Y-158829773D01*
X136977233Y-158849278D01*
X137016203Y-158849992D01*
X137043381Y-158850491D01*
X137101215Y-158870462D01*
X137111570Y-158879470D01*
X137147073Y-158914973D01*
X137174850Y-158969490D01*
X137165279Y-159029922D01*
X137122014Y-159073187D01*
X137057755Y-159082075D01*
X137019674Y-159074500D01*
X136570326Y-159074500D01*
X136497260Y-159089034D01*
X136414399Y-159144399D01*
X136413961Y-159145054D01*
X136364487Y-159170262D01*
X136304055Y-159160691D01*
X136260790Y-159117426D01*
X136250000Y-159072481D01*
X136250000Y-155294561D01*
X136268907Y-155236370D01*
X136278996Y-155224557D01*
X137502472Y-154001081D01*
X137517474Y-153988770D01*
X137522130Y-153985659D01*
X137530240Y-153980240D01*
X137554450Y-153944007D01*
X137585495Y-153897546D01*
X137604898Y-153800000D01*
X137601902Y-153784938D01*
X137600000Y-153765624D01*
X137600000Y-143384376D01*
X137601902Y-143365062D01*
X137602996Y-143359562D01*
X137604898Y-143350000D01*
X137585495Y-143252454D01*
X137544188Y-143190635D01*
X137530240Y-143169760D01*
X137517474Y-143161230D01*
X137502472Y-143148919D01*
X128278996Y-133925443D01*
X128251219Y-133870926D01*
X128250000Y-133855439D01*
X128250000Y-128444440D01*
X129544901Y-128444440D01*
X129561633Y-128572394D01*
X129564471Y-128578845D01*
X129564472Y-128578847D01*
X129610764Y-128684054D01*
X129613605Y-128690510D01*
X129650236Y-128734088D01*
X129692100Y-128783892D01*
X129692103Y-128783894D01*
X129696639Y-128789291D01*
X129804060Y-128860796D01*
X129810788Y-128862898D01*
X129810790Y-128862899D01*
X129865647Y-128880037D01*
X129927233Y-128899278D01*
X129991744Y-128900460D01*
X130049202Y-128901514D01*
X130049204Y-128901514D01*
X130056255Y-128901643D01*
X130063058Y-128899788D01*
X130063060Y-128899788D01*
X130104828Y-128888400D01*
X130180755Y-128867700D01*
X130290724Y-128800179D01*
X130350547Y-128734088D01*
X130372590Y-128709735D01*
X130372590Y-128709734D01*
X130377322Y-128704507D01*
X130433588Y-128588375D01*
X130454997Y-128461120D01*
X130456751Y-128461415D01*
X130478136Y-128411301D01*
X130482724Y-128406389D01*
X130914617Y-127974496D01*
X130969134Y-127946719D01*
X130984621Y-127945500D01*
X132326379Y-127945500D01*
X132384570Y-127964407D01*
X132420534Y-128013907D01*
X132420534Y-128075093D01*
X132396383Y-128114504D01*
X130919633Y-129591254D01*
X130916268Y-129594158D01*
X130911666Y-129596408D01*
X130876999Y-129633779D01*
X130876884Y-129633903D01*
X130874308Y-129636579D01*
X130860025Y-129650862D01*
X130857444Y-129654623D01*
X130857300Y-129654797D01*
X130853747Y-129658844D01*
X130833000Y-129681210D01*
X130829613Y-129689700D01*
X130829612Y-129689701D01*
X130828454Y-129692603D01*
X130818143Y-129711914D01*
X130817212Y-129713272D01*
X130811208Y-129722025D01*
X130809098Y-129730918D01*
X130804798Y-129749036D01*
X130800425Y-129762861D01*
X130790138Y-129788646D01*
X130789500Y-129795153D01*
X130789500Y-129795419D01*
X130787803Y-129802393D01*
X130785627Y-129801863D01*
X130765453Y-129848199D01*
X130757780Y-129856887D01*
X130719596Y-129900122D01*
X130664754Y-130016932D01*
X130644901Y-130144440D01*
X130645816Y-130151437D01*
X130645816Y-130151438D01*
X130647082Y-130161120D01*
X130661633Y-130272394D01*
X130664471Y-130278845D01*
X130664472Y-130278847D01*
X130710764Y-130384054D01*
X130713605Y-130390510D01*
X130755122Y-130439900D01*
X130792100Y-130483892D01*
X130792103Y-130483894D01*
X130796639Y-130489291D01*
X130904060Y-130560796D01*
X130910788Y-130562898D01*
X130910790Y-130562899D01*
X130965647Y-130580037D01*
X131027233Y-130599278D01*
X131091744Y-130600461D01*
X131149202Y-130601514D01*
X131149204Y-130601514D01*
X131156255Y-130601643D01*
X131163058Y-130599788D01*
X131163060Y-130599788D01*
X131204828Y-130588400D01*
X131280755Y-130567700D01*
X131390724Y-130500179D01*
X131477322Y-130404507D01*
X131533588Y-130288375D01*
X131549662Y-130192830D01*
X131554363Y-130164891D01*
X131554363Y-130164886D01*
X131554997Y-130161120D01*
X131555133Y-130150000D01*
X131536839Y-130022259D01*
X131512108Y-129967866D01*
X131505235Y-129907070D01*
X131532226Y-129856887D01*
X132780096Y-128609017D01*
X132834613Y-128581240D01*
X132850100Y-128580021D01*
X137278507Y-128580021D01*
X137336698Y-128598928D01*
X137372662Y-128648428D01*
X137371537Y-128712879D01*
X137365818Y-128728592D01*
X137344856Y-128894525D01*
X137347937Y-128925947D01*
X137360637Y-129055477D01*
X137360638Y-129055482D01*
X137361177Y-129060979D01*
X137413970Y-129219680D01*
X137416835Y-129224411D01*
X137416837Y-129224415D01*
X137497744Y-129358008D01*
X137497747Y-129358012D01*
X137500611Y-129362741D01*
X137504454Y-129366721D01*
X137504459Y-129366727D01*
X137606450Y-129472341D01*
X137633273Y-129527334D01*
X137622648Y-129587589D01*
X137604504Y-129611844D01*
X137513623Y-129700841D01*
X137423022Y-129841427D01*
X137365818Y-129998592D01*
X137344856Y-130164525D01*
X137347937Y-130195947D01*
X137360637Y-130325477D01*
X137360638Y-130325482D01*
X137361177Y-130330979D01*
X137413970Y-130489680D01*
X137416835Y-130494411D01*
X137416837Y-130494415D01*
X137497744Y-130628008D01*
X137497747Y-130628012D01*
X137500611Y-130632741D01*
X137504454Y-130636721D01*
X137504459Y-130636727D01*
X137606450Y-130742341D01*
X137633273Y-130797334D01*
X137622648Y-130857589D01*
X137604504Y-130881844D01*
X137513623Y-130970841D01*
X137423022Y-131111427D01*
X137365818Y-131268592D01*
X137344856Y-131434525D01*
X137347937Y-131465947D01*
X137360637Y-131595477D01*
X137360638Y-131595482D01*
X137361177Y-131600979D01*
X137413970Y-131759680D01*
X137416835Y-131764411D01*
X137416837Y-131764415D01*
X137497744Y-131898008D01*
X137497747Y-131898012D01*
X137500611Y-131902741D01*
X137504454Y-131906721D01*
X137504459Y-131906727D01*
X137606450Y-132012341D01*
X137633273Y-132067334D01*
X137622648Y-132127589D01*
X137604504Y-132151844D01*
X137513623Y-132240841D01*
X137423022Y-132381427D01*
X137365818Y-132538592D01*
X137344856Y-132704525D01*
X137347937Y-132735947D01*
X137360637Y-132865477D01*
X137360638Y-132865482D01*
X137361177Y-132870979D01*
X137413970Y-133029680D01*
X137416835Y-133034411D01*
X137416837Y-133034415D01*
X137497744Y-133168008D01*
X137497747Y-133168012D01*
X137500611Y-133172741D01*
X137504453Y-133176720D01*
X137504455Y-133176722D01*
X137530059Y-133203235D01*
X137616794Y-133293052D01*
X137756744Y-133384633D01*
X137838577Y-133415066D01*
X137908313Y-133441001D01*
X137908315Y-133441002D01*
X137913506Y-133442932D01*
X137918998Y-133443665D01*
X137918999Y-133443665D01*
X137965684Y-133449894D01*
X138079289Y-133465052D01*
X138084795Y-133464551D01*
X138084797Y-133464551D01*
X138162571Y-133457473D01*
X138245852Y-133449894D01*
X138273222Y-133441001D01*
X138399653Y-133399921D01*
X138399655Y-133399920D01*
X138404918Y-133398210D01*
X138409674Y-133395375D01*
X138409676Y-133395374D01*
X138543830Y-133315402D01*
X138548581Y-133312570D01*
X138663394Y-133203235D01*
X138718573Y-133176798D01*
X138778753Y-133187843D01*
X138802879Y-133206155D01*
X138842217Y-133246891D01*
X138882950Y-133289072D01*
X138882953Y-133289074D01*
X138886794Y-133293052D01*
X139026744Y-133384633D01*
X139108577Y-133415066D01*
X139178313Y-133441001D01*
X139178315Y-133441002D01*
X139183506Y-133442932D01*
X139188998Y-133443665D01*
X139188999Y-133443665D01*
X139235684Y-133449894D01*
X139349289Y-133465052D01*
X139354795Y-133464551D01*
X139354797Y-133464551D01*
X139432571Y-133457473D01*
X139515852Y-133449894D01*
X139543222Y-133441001D01*
X139669653Y-133399921D01*
X139669655Y-133399920D01*
X139674918Y-133398210D01*
X139679674Y-133395375D01*
X139679676Y-133395374D01*
X139813830Y-133315402D01*
X139818581Y-133312570D01*
X139933394Y-133203235D01*
X139988573Y-133176798D01*
X140048753Y-133187843D01*
X140072879Y-133206155D01*
X140112217Y-133246891D01*
X140152950Y-133289072D01*
X140152953Y-133289074D01*
X140156794Y-133293052D01*
X140296744Y-133384633D01*
X140378577Y-133415066D01*
X140448313Y-133441001D01*
X140448315Y-133441002D01*
X140453506Y-133442932D01*
X140458998Y-133443665D01*
X140458999Y-133443665D01*
X140505684Y-133449894D01*
X140619289Y-133465052D01*
X140624795Y-133464551D01*
X140624797Y-133464551D01*
X140702571Y-133457473D01*
X140785852Y-133449894D01*
X140813222Y-133441001D01*
X140939653Y-133399921D01*
X140939655Y-133399920D01*
X140944918Y-133398210D01*
X140949674Y-133395375D01*
X140949676Y-133395374D01*
X141083830Y-133315402D01*
X141088581Y-133312570D01*
X141203394Y-133203235D01*
X141258573Y-133176798D01*
X141318753Y-133187843D01*
X141342879Y-133206155D01*
X141382217Y-133246891D01*
X141422950Y-133289072D01*
X141422953Y-133289074D01*
X141426794Y-133293052D01*
X141566744Y-133384633D01*
X141648577Y-133415066D01*
X141718313Y-133441001D01*
X141718315Y-133441002D01*
X141723506Y-133442932D01*
X141728998Y-133443665D01*
X141728999Y-133443665D01*
X141775684Y-133449894D01*
X141889289Y-133465052D01*
X141894795Y-133464551D01*
X141894797Y-133464551D01*
X141972571Y-133457473D01*
X142055852Y-133449894D01*
X142083222Y-133441001D01*
X142209653Y-133399921D01*
X142209655Y-133399920D01*
X142214918Y-133398210D01*
X142219674Y-133395375D01*
X142219676Y-133395374D01*
X142353830Y-133315402D01*
X142358581Y-133312570D01*
X142479700Y-133197230D01*
X142493326Y-133176722D01*
X142569192Y-133062533D01*
X142572255Y-133057923D01*
X142631648Y-132901571D01*
X142654925Y-132735947D01*
X142655217Y-132715000D01*
X142654660Y-132710028D01*
X142637191Y-132554296D01*
X142636574Y-132548791D01*
X142581570Y-132390842D01*
X142492940Y-132249004D01*
X142393509Y-132148876D01*
X142365923Y-132094263D01*
X142375706Y-132033865D01*
X142395484Y-132007428D01*
X142479700Y-131927230D01*
X142572255Y-131787923D01*
X142631648Y-131631571D01*
X142654925Y-131465947D01*
X142655217Y-131445000D01*
X142654660Y-131440028D01*
X142637191Y-131284296D01*
X142636574Y-131278791D01*
X142581570Y-131120842D01*
X142492940Y-130979004D01*
X142393509Y-130878876D01*
X142365923Y-130824263D01*
X142375706Y-130763865D01*
X142395484Y-130737428D01*
X142479700Y-130657230D01*
X142516718Y-130601514D01*
X142569192Y-130522533D01*
X142572255Y-130517923D01*
X142578996Y-130500179D01*
X142629682Y-130366746D01*
X142631648Y-130361571D01*
X142654925Y-130195947D01*
X142655217Y-130175000D01*
X142654660Y-130170028D01*
X142638269Y-130023902D01*
X142636574Y-130008791D01*
X142581570Y-129850842D01*
X142506633Y-129730918D01*
X142495872Y-129713696D01*
X142495871Y-129713695D01*
X142492940Y-129709004D01*
X142393509Y-129608876D01*
X142365923Y-129554263D01*
X142375706Y-129493865D01*
X142395484Y-129467428D01*
X142479700Y-129387230D01*
X142572255Y-129247923D01*
X142631648Y-129091571D01*
X142654925Y-128925947D01*
X142655217Y-128905000D01*
X142654841Y-128901643D01*
X142643874Y-128803871D01*
X142636574Y-128738791D01*
X142581570Y-128580842D01*
X142492940Y-128439004D01*
X142393509Y-128338876D01*
X142365923Y-128284263D01*
X142375706Y-128223865D01*
X142395484Y-128197428D01*
X142479700Y-128117230D01*
X142572255Y-127977923D01*
X142577390Y-127964407D01*
X142629682Y-127826746D01*
X142631648Y-127821571D01*
X142654925Y-127655947D01*
X142655217Y-127635000D01*
X142636574Y-127468791D01*
X142581570Y-127310842D01*
X142492940Y-127169004D01*
X142393509Y-127068876D01*
X142365923Y-127014263D01*
X142375706Y-126953865D01*
X142395484Y-126927428D01*
X142479700Y-126847230D01*
X142513798Y-126795909D01*
X142569192Y-126712533D01*
X142572255Y-126707923D01*
X142577390Y-126694407D01*
X142629682Y-126556746D01*
X142631648Y-126551571D01*
X142654925Y-126385947D01*
X142655217Y-126365000D01*
X142636574Y-126198791D01*
X142581570Y-126040842D01*
X142492940Y-125899004D01*
X142393509Y-125798876D01*
X142365923Y-125744263D01*
X142375706Y-125683865D01*
X142395484Y-125657428D01*
X142479700Y-125577230D01*
X142572255Y-125437923D01*
X142577390Y-125424407D01*
X142615568Y-125323902D01*
X142631648Y-125281571D01*
X142654925Y-125115947D01*
X142655100Y-125103399D01*
X142655174Y-125098117D01*
X142655174Y-125098110D01*
X142655217Y-125095000D01*
X142636574Y-124928791D01*
X142581570Y-124770842D01*
X142508876Y-124654507D01*
X142495872Y-124633696D01*
X142495871Y-124633695D01*
X142492940Y-124629004D01*
X142393509Y-124528876D01*
X142365923Y-124474263D01*
X142375706Y-124413865D01*
X142395484Y-124387428D01*
X142479700Y-124307230D01*
X142572255Y-124167923D01*
X142577390Y-124154407D01*
X142629682Y-124016746D01*
X142631648Y-124011571D01*
X142654925Y-123845947D01*
X142655217Y-123825000D01*
X142636574Y-123658791D01*
X142581570Y-123500842D01*
X142492940Y-123359004D01*
X142393509Y-123258876D01*
X142365923Y-123204263D01*
X142375706Y-123143865D01*
X142395484Y-123117428D01*
X142479700Y-123037230D01*
X142572255Y-122897923D01*
X142631648Y-122741571D01*
X142654925Y-122575947D01*
X142655217Y-122555000D01*
X142654660Y-122550028D01*
X142644886Y-122462899D01*
X142636574Y-122388791D01*
X142581570Y-122230842D01*
X142492940Y-122089004D01*
X142393510Y-121988877D01*
X142365923Y-121934263D01*
X142375706Y-121873865D01*
X142395484Y-121847428D01*
X142479700Y-121767230D01*
X142572255Y-121627923D01*
X142582477Y-121601015D01*
X142629682Y-121476746D01*
X142631648Y-121471571D01*
X142654925Y-121305947D01*
X142655217Y-121285000D01*
X142654564Y-121279172D01*
X142637191Y-121124296D01*
X142636574Y-121118791D01*
X142581570Y-120960842D01*
X142492940Y-120819004D01*
X142375089Y-120700327D01*
X142295203Y-120649630D01*
X142238544Y-120613673D01*
X142238542Y-120613672D01*
X142233873Y-120610709D01*
X142124219Y-120571663D01*
X142081526Y-120556461D01*
X142081524Y-120556461D01*
X142076313Y-120554605D01*
X142056849Y-120552284D01*
X141915733Y-120535456D01*
X141915730Y-120535456D01*
X141910237Y-120534801D01*
X141743902Y-120552284D01*
X141664738Y-120579233D01*
X141590815Y-120604398D01*
X141590811Y-120604400D01*
X141585573Y-120606183D01*
X141580863Y-120609081D01*
X141580858Y-120609083D01*
X141454913Y-120686566D01*
X141452695Y-120687261D01*
X141430219Y-120701913D01*
X139435004Y-122697128D01*
X139380487Y-122724905D01*
X139320055Y-122715334D01*
X139294996Y-122697128D01*
X138728737Y-122130869D01*
X138700960Y-122076352D01*
X138710531Y-122015920D01*
X138743739Y-121978550D01*
X138762490Y-121966021D01*
X138762491Y-121966020D01*
X138770601Y-121960601D01*
X138788200Y-121934263D01*
X138788714Y-121933493D01*
X138836763Y-121895613D01*
X138897901Y-121893209D01*
X138939755Y-121922377D01*
X138942132Y-121920000D01*
X139353914Y-122331782D01*
X139365797Y-122337836D01*
X139370828Y-122337040D01*
X139776782Y-121931086D01*
X139782836Y-121919203D01*
X139782040Y-121914172D01*
X139376086Y-121508218D01*
X139364203Y-121502164D01*
X139359172Y-121502960D01*
X139009504Y-121852628D01*
X138954987Y-121880405D01*
X138894555Y-121870834D01*
X138851290Y-121827569D01*
X138840500Y-121782624D01*
X138840500Y-121638376D01*
X138859407Y-121580185D01*
X138869496Y-121568372D01*
X139152071Y-121285797D01*
X139582164Y-121285797D01*
X139582960Y-121290828D01*
X139988914Y-121696782D01*
X140000797Y-121702836D01*
X140005828Y-121702040D01*
X140411782Y-121296086D01*
X140417836Y-121284203D01*
X140417040Y-121279172D01*
X140011086Y-120873218D01*
X139999203Y-120867164D01*
X139994172Y-120867960D01*
X139588218Y-121273914D01*
X139582164Y-121285797D01*
X139152071Y-121285797D01*
X139929996Y-120507872D01*
X139974171Y-120485365D01*
X140017788Y-120485365D01*
X140044945Y-120489666D01*
X140070004Y-120507872D01*
X140623914Y-121061782D01*
X140635797Y-121067836D01*
X140640828Y-121067040D01*
X141214559Y-120493309D01*
X141220613Y-120481426D01*
X141220180Y-120478692D01*
X141217829Y-120475757D01*
X141197821Y-120459205D01*
X141189827Y-120453813D01*
X141026698Y-120365608D01*
X141017827Y-120361879D01*
X140840663Y-120307038D01*
X140831229Y-120305101D01*
X140646796Y-120285716D01*
X140637158Y-120285649D01*
X140452474Y-120302456D01*
X140443008Y-120304262D01*
X140265110Y-120356621D01*
X140256169Y-120360234D01*
X140091836Y-120446145D01*
X140083759Y-120451430D01*
X140062840Y-120468250D01*
X140017788Y-120485365D01*
X139974171Y-120485365D01*
X139979209Y-120482798D01*
X139946598Y-120473938D01*
X139937697Y-120467376D01*
X139927816Y-120459201D01*
X139919827Y-120453813D01*
X139756698Y-120365608D01*
X139747827Y-120361879D01*
X139570663Y-120307038D01*
X139561229Y-120305101D01*
X139376796Y-120285716D01*
X139367158Y-120285649D01*
X139182474Y-120302456D01*
X139173008Y-120304262D01*
X138995110Y-120356621D01*
X138986169Y-120360234D01*
X138821836Y-120446145D01*
X138813760Y-120451429D01*
X138722482Y-120524819D01*
X138665284Y-120546547D01*
X138641134Y-120544763D01*
X138626841Y-120541920D01*
X138614674Y-120539500D01*
X138504500Y-120539500D01*
X138446309Y-120520593D01*
X138410345Y-120471093D01*
X138405500Y-120440500D01*
X138405500Y-119313840D01*
X138424407Y-119255649D01*
X138468659Y-119225089D01*
X138467477Y-119222357D01*
X138473953Y-119219554D01*
X138480755Y-119217700D01*
X138590724Y-119150179D01*
X138677322Y-119054507D01*
X138733588Y-118938375D01*
X138748859Y-118847603D01*
X138754363Y-118814891D01*
X138754363Y-118814886D01*
X138754997Y-118811120D01*
X138755133Y-118800000D01*
X138736839Y-118672259D01*
X138683428Y-118554788D01*
X138599193Y-118457028D01*
X138593276Y-118453193D01*
X138593274Y-118453191D01*
X138496824Y-118390677D01*
X138490906Y-118386841D01*
X138484150Y-118384821D01*
X138484149Y-118384820D01*
X138417512Y-118364891D01*
X138367273Y-118349866D01*
X138290644Y-118349398D01*
X138245282Y-118349121D01*
X138238231Y-118349078D01*
X138231454Y-118351015D01*
X138231453Y-118351015D01*
X138120935Y-118382601D01*
X138120933Y-118382602D01*
X138114155Y-118384539D01*
X138005019Y-118453399D01*
X137919596Y-118550122D01*
X137864754Y-118666932D01*
X137844901Y-118794440D01*
X137842845Y-118794120D01*
X137831490Y-118832447D01*
X137828000Y-118836210D01*
X137824613Y-118844700D01*
X137824612Y-118844701D01*
X137823454Y-118847603D01*
X137813143Y-118866914D01*
X137811380Y-118869485D01*
X137806208Y-118877025D01*
X137804098Y-118885918D01*
X137799798Y-118904036D01*
X137795425Y-118917861D01*
X137785138Y-118943646D01*
X137784500Y-118950153D01*
X137784500Y-118956909D01*
X137781825Y-118979769D01*
X137779499Y-118989570D01*
X137780732Y-118998626D01*
X137783596Y-119019673D01*
X137784500Y-119033024D01*
X137784500Y-120440500D01*
X137765593Y-120498691D01*
X137716093Y-120534655D01*
X137685500Y-120539500D01*
X137575326Y-120539500D01*
X137502260Y-120554034D01*
X137419399Y-120609399D01*
X137364034Y-120692260D01*
X137349500Y-120765326D01*
X137349500Y-121804674D01*
X137364034Y-121877740D01*
X137419399Y-121960601D01*
X137427509Y-121966020D01*
X137458465Y-121986704D01*
X137496345Y-122034754D01*
X137498747Y-122095892D01*
X137486681Y-122122648D01*
X137423022Y-122221427D01*
X137365818Y-122378592D01*
X137344856Y-122544525D01*
X137347937Y-122575947D01*
X137360637Y-122705477D01*
X137360638Y-122705482D01*
X137361177Y-122710979D01*
X137413970Y-122869680D01*
X137416835Y-122874411D01*
X137416837Y-122874415D01*
X137497744Y-123008008D01*
X137497747Y-123008012D01*
X137500611Y-123012741D01*
X137504454Y-123016721D01*
X137504459Y-123016727D01*
X137606450Y-123122341D01*
X137633273Y-123177334D01*
X137622648Y-123237589D01*
X137604504Y-123261844D01*
X137513623Y-123350841D01*
X137510625Y-123355493D01*
X137437392Y-123469129D01*
X137389977Y-123507800D01*
X137354176Y-123514500D01*
X135430428Y-123514500D01*
X135425988Y-123514174D01*
X135421145Y-123512511D01*
X135370023Y-123514430D01*
X135366309Y-123514500D01*
X135346124Y-123514500D01*
X135341633Y-123515336D01*
X135341400Y-123515358D01*
X135336013Y-123515707D01*
X135327474Y-123516027D01*
X135314689Y-123516507D01*
X135314688Y-123516507D01*
X135305555Y-123516850D01*
X135294284Y-123521692D01*
X135273337Y-123528056D01*
X135272469Y-123528218D01*
X135261285Y-123530301D01*
X135253508Y-123535095D01*
X135253507Y-123535095D01*
X135237653Y-123544867D01*
X135224791Y-123551548D01*
X135205699Y-123559752D01*
X135199278Y-123562511D01*
X135194226Y-123566661D01*
X135189446Y-123571441D01*
X135171395Y-123585709D01*
X135162818Y-123590996D01*
X135157288Y-123598268D01*
X135157285Y-123598271D01*
X135144428Y-123615179D01*
X135135628Y-123625259D01*
X134840609Y-123920278D01*
X134786092Y-123948055D01*
X134770000Y-123949272D01*
X134745282Y-123949121D01*
X134745281Y-123949121D01*
X134738231Y-123949078D01*
X134731454Y-123951015D01*
X134731453Y-123951015D01*
X134620935Y-123982601D01*
X134620933Y-123982602D01*
X134614155Y-123984539D01*
X134505019Y-124053399D01*
X134419596Y-124150122D01*
X134364754Y-124266932D01*
X134344901Y-124394440D01*
X134361633Y-124522394D01*
X134364471Y-124528845D01*
X134364472Y-124528847D01*
X134413605Y-124640510D01*
X134412189Y-124641133D01*
X134424922Y-124692574D01*
X134401905Y-124749265D01*
X134349962Y-124781600D01*
X134326175Y-124784500D01*
X133410428Y-124784500D01*
X133405988Y-124784174D01*
X133401145Y-124782511D01*
X133350023Y-124784430D01*
X133346309Y-124784500D01*
X133326124Y-124784500D01*
X133321633Y-124785336D01*
X133321400Y-124785358D01*
X133316013Y-124785707D01*
X133307474Y-124786027D01*
X133294689Y-124786507D01*
X133294688Y-124786507D01*
X133285555Y-124786850D01*
X133274284Y-124791692D01*
X133253337Y-124798056D01*
X133252469Y-124798218D01*
X133241285Y-124800301D01*
X133233508Y-124805095D01*
X133233507Y-124805095D01*
X133217653Y-124814867D01*
X133204791Y-124821548D01*
X133185699Y-124829752D01*
X133179278Y-124832511D01*
X133174226Y-124836661D01*
X133169446Y-124841441D01*
X133151395Y-124855709D01*
X133142818Y-124860996D01*
X133137288Y-124868268D01*
X133137285Y-124868271D01*
X133124428Y-124885179D01*
X133115628Y-124895259D01*
X133040609Y-124970278D01*
X132986092Y-124998055D01*
X132970000Y-124999272D01*
X132945282Y-124999121D01*
X132945281Y-124999121D01*
X132938231Y-124999078D01*
X132931454Y-125001015D01*
X132931453Y-125001015D01*
X132820935Y-125032601D01*
X132820933Y-125032602D01*
X132814155Y-125034539D01*
X132705019Y-125103399D01*
X132619596Y-125200122D01*
X132564754Y-125316932D01*
X132544901Y-125444440D01*
X132561633Y-125572394D01*
X132564471Y-125578845D01*
X132564472Y-125578847D01*
X132571458Y-125594724D01*
X132613605Y-125690510D01*
X132646941Y-125730168D01*
X132692100Y-125783892D01*
X132692103Y-125783894D01*
X132696639Y-125789291D01*
X132804060Y-125860796D01*
X132810790Y-125862899D01*
X132817158Y-125865936D01*
X132815772Y-125868842D01*
X132854624Y-125896396D01*
X132874197Y-125954367D01*
X132855956Y-126012770D01*
X132806871Y-126049298D01*
X132775203Y-126054500D01*
X131290428Y-126054500D01*
X131285988Y-126054174D01*
X131281145Y-126052511D01*
X131230023Y-126054430D01*
X131226309Y-126054500D01*
X131206124Y-126054500D01*
X131201633Y-126055336D01*
X131201400Y-126055358D01*
X131196013Y-126055707D01*
X131187474Y-126056027D01*
X131174689Y-126056507D01*
X131174688Y-126056507D01*
X131165555Y-126056850D01*
X131154284Y-126061692D01*
X131133337Y-126068056D01*
X131132775Y-126068161D01*
X131121285Y-126070301D01*
X131101550Y-126082466D01*
X131097917Y-126084705D01*
X131045364Y-126099427D01*
X131032135Y-126099346D01*
X130995282Y-126099121D01*
X130988231Y-126099078D01*
X130981454Y-126101015D01*
X130981453Y-126101015D01*
X130870935Y-126132601D01*
X130870933Y-126132602D01*
X130864155Y-126134539D01*
X130755019Y-126203399D01*
X130669596Y-126300122D01*
X130614754Y-126416932D01*
X130594901Y-126544440D01*
X130611633Y-126672394D01*
X130614471Y-126678845D01*
X130614472Y-126678847D01*
X130660764Y-126784054D01*
X130663605Y-126790510D01*
X130705122Y-126839901D01*
X130742100Y-126883892D01*
X130742103Y-126883894D01*
X130746639Y-126889291D01*
X130854060Y-126960796D01*
X130860788Y-126962898D01*
X130860790Y-126962899D01*
X130915647Y-126980037D01*
X130977233Y-126999278D01*
X131041744Y-127000461D01*
X131099202Y-127001514D01*
X131099204Y-127001514D01*
X131106255Y-127001643D01*
X131113058Y-126999788D01*
X131113060Y-126999788D01*
X131158739Y-126987334D01*
X131230755Y-126967700D01*
X131340724Y-126900179D01*
X131383216Y-126853235D01*
X131422590Y-126809735D01*
X131422590Y-126809734D01*
X131427322Y-126804507D01*
X131462775Y-126731333D01*
X131505162Y-126687210D01*
X131551868Y-126675500D01*
X131604301Y-126675500D01*
X131662492Y-126694407D01*
X131698456Y-126743907D01*
X131698456Y-126805093D01*
X131678503Y-126840036D01*
X131669596Y-126850122D01*
X131614754Y-126966932D01*
X131594901Y-127094440D01*
X131604652Y-127169004D01*
X131610361Y-127212663D01*
X131599159Y-127272814D01*
X131554740Y-127314893D01*
X131512197Y-127324500D01*
X130870427Y-127324500D01*
X130865987Y-127324174D01*
X130861144Y-127322511D01*
X130810023Y-127324430D01*
X130806309Y-127324500D01*
X130786124Y-127324500D01*
X130781633Y-127325336D01*
X130781400Y-127325358D01*
X130776013Y-127325707D01*
X130767474Y-127326027D01*
X130754689Y-127326507D01*
X130754688Y-127326507D01*
X130745555Y-127326850D01*
X130734284Y-127331692D01*
X130713337Y-127338056D01*
X130712469Y-127338218D01*
X130701285Y-127340301D01*
X130693508Y-127345095D01*
X130693507Y-127345095D01*
X130677653Y-127354867D01*
X130664791Y-127361548D01*
X130645699Y-127369752D01*
X130639278Y-127372511D01*
X130634226Y-127376661D01*
X130629446Y-127381441D01*
X130611395Y-127395709D01*
X130602818Y-127400996D01*
X130597288Y-127408268D01*
X130597285Y-127408271D01*
X130584428Y-127425179D01*
X130575628Y-127435259D01*
X130040609Y-127970278D01*
X129986092Y-127998055D01*
X129970000Y-127999272D01*
X129945282Y-127999121D01*
X129945281Y-127999121D01*
X129938231Y-127999078D01*
X129931454Y-128001015D01*
X129931453Y-128001015D01*
X129820935Y-128032601D01*
X129820933Y-128032602D01*
X129814155Y-128034539D01*
X129705019Y-128103399D01*
X129619596Y-128200122D01*
X129564754Y-128316932D01*
X129544901Y-128444440D01*
X128250000Y-128444440D01*
X128250000Y-122044440D01*
X135344901Y-122044440D01*
X135345816Y-122051437D01*
X135345816Y-122051438D01*
X135347082Y-122061120D01*
X135361633Y-122172394D01*
X135364471Y-122178845D01*
X135364472Y-122178847D01*
X135410764Y-122284054D01*
X135413605Y-122290510D01*
X135448298Y-122331782D01*
X135492100Y-122383892D01*
X135492103Y-122383894D01*
X135496639Y-122389291D01*
X135604060Y-122460796D01*
X135610788Y-122462898D01*
X135610790Y-122462899D01*
X135665646Y-122480037D01*
X135727233Y-122499278D01*
X135791744Y-122500460D01*
X135849202Y-122501514D01*
X135849204Y-122501514D01*
X135856255Y-122501643D01*
X135863058Y-122499788D01*
X135863060Y-122499788D01*
X135904828Y-122488400D01*
X135980755Y-122467700D01*
X136090724Y-122400179D01*
X136177322Y-122304507D01*
X136233588Y-122188375D01*
X136250966Y-122085079D01*
X136254363Y-122064891D01*
X136254363Y-122064886D01*
X136254997Y-122061120D01*
X136255133Y-122050000D01*
X136236839Y-121922259D01*
X136183428Y-121804788D01*
X136099193Y-121707028D01*
X136093276Y-121703193D01*
X136093274Y-121703191D01*
X135996824Y-121640677D01*
X135990906Y-121636841D01*
X135984150Y-121634821D01*
X135984149Y-121634820D01*
X135941335Y-121622016D01*
X135867273Y-121599866D01*
X135790644Y-121599398D01*
X135745282Y-121599121D01*
X135738231Y-121599078D01*
X135731454Y-121601015D01*
X135731453Y-121601015D01*
X135620935Y-121632601D01*
X135620933Y-121632602D01*
X135614155Y-121634539D01*
X135505019Y-121703399D01*
X135419596Y-121800122D01*
X135364754Y-121916932D01*
X135344901Y-122044440D01*
X128250000Y-122044440D01*
X128250000Y-119144440D01*
X133994901Y-119144440D01*
X134011633Y-119272394D01*
X134014471Y-119278845D01*
X134014472Y-119278847D01*
X134057541Y-119376729D01*
X134063605Y-119390510D01*
X134091296Y-119423452D01*
X134142100Y-119483892D01*
X134142103Y-119483894D01*
X134146639Y-119489291D01*
X134254060Y-119560796D01*
X134260788Y-119562898D01*
X134260790Y-119562899D01*
X134315647Y-119580037D01*
X134377233Y-119599278D01*
X134441744Y-119600460D01*
X134499202Y-119601514D01*
X134499204Y-119601514D01*
X134506255Y-119601643D01*
X134513058Y-119599788D01*
X134513060Y-119599788D01*
X134554828Y-119588400D01*
X134630755Y-119567700D01*
X134651877Y-119554731D01*
X134734715Y-119503869D01*
X134734717Y-119503867D01*
X134740724Y-119500179D01*
X134747165Y-119493064D01*
X134748995Y-119492013D01*
X134750884Y-119490445D01*
X134751156Y-119490773D01*
X134800232Y-119462610D01*
X134820562Y-119460500D01*
X135544573Y-119460500D01*
X135549013Y-119460826D01*
X135553856Y-119462489D01*
X135604977Y-119460570D01*
X135608691Y-119460500D01*
X135628876Y-119460500D01*
X135633367Y-119459664D01*
X135633600Y-119459642D01*
X135638987Y-119459293D01*
X135647526Y-119458973D01*
X135660311Y-119458493D01*
X135660312Y-119458493D01*
X135669445Y-119458150D01*
X135680716Y-119453308D01*
X135701663Y-119446944D01*
X135702531Y-119446782D01*
X135713715Y-119444699D01*
X135737347Y-119430133D01*
X135750209Y-119423452D01*
X135769301Y-119415248D01*
X135769302Y-119415247D01*
X135775722Y-119412489D01*
X135780774Y-119408339D01*
X135785554Y-119403559D01*
X135803605Y-119389291D01*
X135812182Y-119384004D01*
X135817712Y-119376732D01*
X135817715Y-119376729D01*
X135830572Y-119359821D01*
X135839372Y-119349741D01*
X136358958Y-118830155D01*
X136413475Y-118802378D01*
X136430776Y-118801176D01*
X136432143Y-118801201D01*
X136449202Y-118801514D01*
X136449204Y-118801514D01*
X136456255Y-118801643D01*
X136463058Y-118799788D01*
X136463060Y-118799788D01*
X136504828Y-118788400D01*
X136580755Y-118767700D01*
X136690724Y-118700179D01*
X136777322Y-118604507D01*
X136833588Y-118488375D01*
X136844596Y-118422941D01*
X136854363Y-118364891D01*
X136854363Y-118364886D01*
X136854997Y-118361120D01*
X136855133Y-118350000D01*
X136836839Y-118222259D01*
X136783428Y-118104788D01*
X136699193Y-118007028D01*
X136693276Y-118003193D01*
X136693274Y-118003191D01*
X136596824Y-117940677D01*
X136590906Y-117936841D01*
X136584150Y-117934821D01*
X136584149Y-117934820D01*
X136541335Y-117922016D01*
X136467273Y-117899866D01*
X136390644Y-117899398D01*
X136345282Y-117899121D01*
X136338231Y-117899078D01*
X136331454Y-117901015D01*
X136331453Y-117901015D01*
X136220935Y-117932601D01*
X136220933Y-117932602D01*
X136214155Y-117934539D01*
X136105019Y-118003399D01*
X136019596Y-118100122D01*
X135964754Y-118216932D01*
X135963669Y-118223902D01*
X135945899Y-118338032D01*
X135918082Y-118392805D01*
X135500383Y-118810504D01*
X135445866Y-118838281D01*
X135430379Y-118839500D01*
X134822009Y-118839500D01*
X134763818Y-118820593D01*
X134756930Y-118815104D01*
X134753797Y-118812371D01*
X134749193Y-118807028D01*
X134640906Y-118736841D01*
X134634150Y-118734821D01*
X134634149Y-118734820D01*
X134530664Y-118703871D01*
X134517273Y-118699866D01*
X134440644Y-118699398D01*
X134395282Y-118699121D01*
X134388231Y-118699078D01*
X134381454Y-118701015D01*
X134381453Y-118701015D01*
X134270935Y-118732601D01*
X134270933Y-118732602D01*
X134264155Y-118734539D01*
X134155019Y-118803399D01*
X134069596Y-118900122D01*
X134014754Y-119016932D01*
X133994901Y-119144440D01*
X128250000Y-119144440D01*
X128250000Y-115894440D01*
X130394901Y-115894440D01*
X130411633Y-116022394D01*
X130414471Y-116028845D01*
X130414472Y-116028847D01*
X130448992Y-116107299D01*
X130463605Y-116140510D01*
X130505122Y-116189901D01*
X130542100Y-116233892D01*
X130542103Y-116233894D01*
X130546639Y-116239291D01*
X130654060Y-116310796D01*
X130660788Y-116312898D01*
X130660790Y-116312899D01*
X130715647Y-116330037D01*
X130777233Y-116349278D01*
X130857704Y-116350753D01*
X130903354Y-116351590D01*
X130961188Y-116371560D01*
X130996239Y-116421711D01*
X130999360Y-116465803D01*
X130994901Y-116494440D01*
X131011633Y-116622394D01*
X131014471Y-116628845D01*
X131014472Y-116628847D01*
X131060764Y-116734054D01*
X131063605Y-116740510D01*
X131095098Y-116777975D01*
X131142100Y-116833892D01*
X131142103Y-116833894D01*
X131146639Y-116839291D01*
X131254060Y-116910796D01*
X131260788Y-116912898D01*
X131260790Y-116912899D01*
X131305426Y-116926844D01*
X131377233Y-116949278D01*
X131441744Y-116950461D01*
X131499202Y-116951514D01*
X131499204Y-116951514D01*
X131506255Y-116951643D01*
X131513058Y-116949788D01*
X131513060Y-116949788D01*
X131554828Y-116938400D01*
X131630755Y-116917700D01*
X131664652Y-116896887D01*
X131734715Y-116853869D01*
X131734717Y-116853867D01*
X131740724Y-116850179D01*
X131747165Y-116843064D01*
X131748995Y-116842013D01*
X131750884Y-116840445D01*
X131751156Y-116840773D01*
X131800232Y-116812610D01*
X131820562Y-116810500D01*
X133328134Y-116810500D01*
X133386325Y-116829407D01*
X133392560Y-116834439D01*
X133396639Y-116839291D01*
X133483165Y-116896887D01*
X133501784Y-116909281D01*
X133539748Y-116957265D01*
X133545510Y-116990531D01*
X133544901Y-116994440D01*
X133561633Y-117122394D01*
X133564471Y-117128845D01*
X133564472Y-117128847D01*
X133571458Y-117144724D01*
X133613605Y-117240510D01*
X133655122Y-117289901D01*
X133692100Y-117333892D01*
X133692103Y-117333894D01*
X133696639Y-117339291D01*
X133804060Y-117410796D01*
X133810788Y-117412898D01*
X133810790Y-117412899D01*
X133865646Y-117430037D01*
X133927233Y-117449278D01*
X133991744Y-117450461D01*
X134049202Y-117451514D01*
X134049204Y-117451514D01*
X134056255Y-117451643D01*
X134063058Y-117449788D01*
X134063060Y-117449788D01*
X134104828Y-117438400D01*
X134180755Y-117417700D01*
X134290724Y-117350179D01*
X134377322Y-117254507D01*
X134433588Y-117138375D01*
X134454997Y-117011120D01*
X134456751Y-117011415D01*
X134478136Y-116961301D01*
X134482724Y-116956389D01*
X134530367Y-116908746D01*
X134533732Y-116905842D01*
X134538334Y-116903592D01*
X134573116Y-116866097D01*
X134575692Y-116863421D01*
X134589975Y-116849138D01*
X134592556Y-116845377D01*
X134592700Y-116845203D01*
X134596253Y-116841156D01*
X134617000Y-116818790D01*
X134621546Y-116807397D01*
X134631857Y-116788086D01*
X134633620Y-116785515D01*
X134633620Y-116785514D01*
X134638792Y-116777975D01*
X134645203Y-116750962D01*
X134649575Y-116737139D01*
X134657273Y-116717844D01*
X134657273Y-116717843D01*
X134659862Y-116711354D01*
X134660500Y-116704847D01*
X134660500Y-116698091D01*
X134663175Y-116675231D01*
X134663391Y-116674322D01*
X134663391Y-116674321D01*
X134665501Y-116665430D01*
X134661404Y-116635325D01*
X134660500Y-116621976D01*
X134660500Y-116616215D01*
X134679407Y-116558024D01*
X134728907Y-116522060D01*
X134789022Y-116521719D01*
X134877233Y-116549278D01*
X134941744Y-116550460D01*
X134999202Y-116551514D01*
X134999204Y-116551514D01*
X135006255Y-116551643D01*
X135013058Y-116549788D01*
X135013060Y-116549788D01*
X135054828Y-116538400D01*
X135130755Y-116517700D01*
X135240724Y-116450179D01*
X135302794Y-116381605D01*
X135322590Y-116359735D01*
X135322590Y-116359734D01*
X135327322Y-116354507D01*
X135383588Y-116238375D01*
X135404997Y-116111120D01*
X135405059Y-116106096D01*
X135405086Y-116103825D01*
X135405133Y-116100000D01*
X135386839Y-115972259D01*
X135333428Y-115854788D01*
X135284501Y-115798005D01*
X135260840Y-115741580D01*
X135260500Y-115733382D01*
X135260500Y-113566482D01*
X135279407Y-113508291D01*
X135286102Y-113500046D01*
X135322590Y-113459735D01*
X135322590Y-113459734D01*
X135327322Y-113454507D01*
X135383588Y-113338375D01*
X135404997Y-113211120D01*
X135405133Y-113200000D01*
X135386839Y-113072259D01*
X135333428Y-112954788D01*
X135249193Y-112857028D01*
X135243276Y-112853193D01*
X135243274Y-112853191D01*
X135146824Y-112790677D01*
X135140906Y-112786841D01*
X135134150Y-112784821D01*
X135134149Y-112784820D01*
X135091335Y-112772016D01*
X135017273Y-112749866D01*
X134940644Y-112749398D01*
X134895282Y-112749121D01*
X134888231Y-112749078D01*
X134881454Y-112751015D01*
X134881453Y-112751015D01*
X134770935Y-112782601D01*
X134770933Y-112782602D01*
X134764155Y-112784539D01*
X134655019Y-112853399D01*
X134606266Y-112908601D01*
X134579859Y-112938501D01*
X134527167Y-112969601D01*
X134477289Y-112967815D01*
X134417273Y-112949866D01*
X134340644Y-112949398D01*
X134295282Y-112949121D01*
X134288231Y-112949078D01*
X134281454Y-112951015D01*
X134281453Y-112951015D01*
X134170935Y-112982601D01*
X134170933Y-112982602D01*
X134164155Y-112984539D01*
X134158191Y-112988302D01*
X134150133Y-112993386D01*
X134055019Y-113053399D01*
X133969596Y-113150122D01*
X133914754Y-113266932D01*
X133894901Y-113394440D01*
X133911633Y-113522394D01*
X133914471Y-113528845D01*
X133914472Y-113528847D01*
X133960764Y-113634054D01*
X133963605Y-113640510D01*
X133985164Y-113666157D01*
X134016283Y-113703178D01*
X134039253Y-113759888D01*
X134039500Y-113766880D01*
X134039500Y-115054249D01*
X134020593Y-115112440D01*
X133971093Y-115148404D01*
X133925866Y-115152161D01*
X133924028Y-115151886D01*
X133917273Y-115149866D01*
X133852752Y-115149472D01*
X133795282Y-115149121D01*
X133788231Y-115149078D01*
X133781454Y-115151015D01*
X133781453Y-115151015D01*
X133670935Y-115182601D01*
X133670933Y-115182602D01*
X133664155Y-115184539D01*
X133555019Y-115253399D01*
X133469596Y-115350122D01*
X133414754Y-115466932D01*
X133412013Y-115484539D01*
X133408713Y-115505731D01*
X133381079Y-115560320D01*
X133326635Y-115588240D01*
X133310892Y-115589500D01*
X131222009Y-115589500D01*
X131163818Y-115570593D01*
X131156930Y-115565104D01*
X131153797Y-115562371D01*
X131149193Y-115557028D01*
X131040906Y-115486841D01*
X131034150Y-115484821D01*
X131034149Y-115484820D01*
X130974336Y-115466932D01*
X130917273Y-115449866D01*
X130840644Y-115449398D01*
X130795282Y-115449121D01*
X130788231Y-115449078D01*
X130781454Y-115451015D01*
X130781453Y-115451015D01*
X130670935Y-115482601D01*
X130670933Y-115482602D01*
X130664155Y-115484539D01*
X130555019Y-115553399D01*
X130469596Y-115650122D01*
X130414754Y-115766932D01*
X130394901Y-115894440D01*
X128250000Y-115894440D01*
X128250000Y-111244440D01*
X133644901Y-111244440D01*
X133661633Y-111372394D01*
X133664471Y-111378845D01*
X133664472Y-111378847D01*
X133710764Y-111484054D01*
X133713605Y-111490510D01*
X133732425Y-111512899D01*
X133792100Y-111583892D01*
X133792103Y-111583894D01*
X133796639Y-111589291D01*
X133904060Y-111660796D01*
X133910788Y-111662898D01*
X133910790Y-111662899D01*
X133965646Y-111680037D01*
X134027233Y-111699278D01*
X134091744Y-111700460D01*
X134149202Y-111701514D01*
X134149204Y-111701514D01*
X134156255Y-111701643D01*
X134163058Y-111699788D01*
X134163060Y-111699788D01*
X134204828Y-111688400D01*
X134280755Y-111667700D01*
X134390724Y-111600179D01*
X134408227Y-111580842D01*
X134472590Y-111509735D01*
X134472590Y-111509734D01*
X134477322Y-111504507D01*
X134533588Y-111388375D01*
X134554997Y-111261120D01*
X134556751Y-111261415D01*
X134578136Y-111211301D01*
X134582724Y-111206389D01*
X136084617Y-109704496D01*
X136139134Y-109676719D01*
X136154621Y-109675500D01*
X136172257Y-109675500D01*
X136230448Y-109694407D01*
X136266412Y-109743907D01*
X136266412Y-109805093D01*
X136261873Y-109816572D01*
X136214754Y-109916932D01*
X136194901Y-110044440D01*
X136195816Y-110051437D01*
X136195816Y-110051438D01*
X136197082Y-110061120D01*
X136211633Y-110172394D01*
X136214471Y-110178845D01*
X136214472Y-110178847D01*
X136243219Y-110244180D01*
X136263605Y-110290510D01*
X136306898Y-110342013D01*
X136316283Y-110353178D01*
X136339253Y-110409888D01*
X136339500Y-110416880D01*
X136339500Y-110679622D01*
X136320593Y-110737813D01*
X136307762Y-110751668D01*
X136305019Y-110753399D01*
X136219596Y-110850122D01*
X136164754Y-110966932D01*
X136144901Y-111094440D01*
X136145816Y-111101437D01*
X136145816Y-111101438D01*
X136147082Y-111111120D01*
X136161633Y-111222394D01*
X136164471Y-111228845D01*
X136164472Y-111228847D01*
X136203520Y-111317590D01*
X136213605Y-111340510D01*
X136245831Y-111378847D01*
X136292100Y-111433892D01*
X136292103Y-111433894D01*
X136296639Y-111439291D01*
X136404060Y-111510796D01*
X136410788Y-111512898D01*
X136410790Y-111512899D01*
X136465646Y-111530037D01*
X136527233Y-111549278D01*
X136591744Y-111550461D01*
X136649202Y-111551514D01*
X136649204Y-111551514D01*
X136656255Y-111551643D01*
X136663058Y-111549788D01*
X136663060Y-111549788D01*
X136704828Y-111538400D01*
X136780755Y-111517700D01*
X136890724Y-111450179D01*
X136922483Y-111415092D01*
X136972590Y-111359735D01*
X136972590Y-111359734D01*
X136977322Y-111354507D01*
X137033588Y-111238375D01*
X137044596Y-111172941D01*
X137054363Y-111114891D01*
X137054363Y-111114886D01*
X137054997Y-111111120D01*
X137055133Y-111100000D01*
X137036839Y-110972259D01*
X136983428Y-110854788D01*
X136978828Y-110849449D01*
X136976097Y-110845179D01*
X136960500Y-110791842D01*
X136960500Y-110416482D01*
X136979407Y-110358291D01*
X136986102Y-110350046D01*
X136994793Y-110340445D01*
X137021588Y-110310842D01*
X137022590Y-110309735D01*
X137022590Y-110309734D01*
X137027322Y-110304507D01*
X137083588Y-110188375D01*
X137098138Y-110101888D01*
X137104363Y-110064891D01*
X137104363Y-110064886D01*
X137104997Y-110061120D01*
X137105133Y-110050000D01*
X137086839Y-109922259D01*
X137055456Y-109853235D01*
X137038288Y-109815476D01*
X137031415Y-109754678D01*
X137061590Y-109701451D01*
X137117289Y-109676127D01*
X137128410Y-109675500D01*
X137355655Y-109675500D01*
X137413846Y-109694407D01*
X137440336Y-109723215D01*
X137497744Y-109818008D01*
X137497747Y-109818012D01*
X137500611Y-109822741D01*
X137504454Y-109826721D01*
X137504459Y-109826727D01*
X137606450Y-109932341D01*
X137633273Y-109987334D01*
X137622648Y-110047589D01*
X137604504Y-110071844D01*
X137513623Y-110160841D01*
X137423022Y-110301427D01*
X137365818Y-110458592D01*
X137344856Y-110624525D01*
X137351117Y-110688375D01*
X137360637Y-110785477D01*
X137360638Y-110785482D01*
X137361177Y-110790979D01*
X137413970Y-110949680D01*
X137416835Y-110954411D01*
X137416837Y-110954415D01*
X137497744Y-111088008D01*
X137497747Y-111088012D01*
X137500611Y-111092741D01*
X137504454Y-111096721D01*
X137504459Y-111096727D01*
X137606450Y-111202341D01*
X137633273Y-111257334D01*
X137622648Y-111317589D01*
X137604504Y-111341844D01*
X137513623Y-111430841D01*
X137423022Y-111571427D01*
X137365818Y-111728592D01*
X137344856Y-111894525D01*
X137347937Y-111925947D01*
X137360637Y-112055477D01*
X137360638Y-112055482D01*
X137361177Y-112060979D01*
X137413970Y-112219680D01*
X137416835Y-112224411D01*
X137416837Y-112224415D01*
X137497744Y-112358008D01*
X137497747Y-112358012D01*
X137500611Y-112362741D01*
X137504454Y-112366721D01*
X137504459Y-112366727D01*
X137606450Y-112472341D01*
X137633273Y-112527334D01*
X137622648Y-112587589D01*
X137604504Y-112611844D01*
X137513623Y-112700841D01*
X137423022Y-112841427D01*
X137365818Y-112998592D01*
X137344856Y-113164525D01*
X137352228Y-113239709D01*
X137360637Y-113325477D01*
X137360638Y-113325482D01*
X137361177Y-113330979D01*
X137413970Y-113489680D01*
X137416835Y-113494411D01*
X137416837Y-113494415D01*
X137497744Y-113628008D01*
X137497747Y-113628012D01*
X137500611Y-113632741D01*
X137504454Y-113636721D01*
X137504459Y-113636727D01*
X137606450Y-113742341D01*
X137633273Y-113797334D01*
X137622648Y-113857589D01*
X137604504Y-113881844D01*
X137513623Y-113970841D01*
X137423022Y-114111427D01*
X137365818Y-114268592D01*
X137344856Y-114434525D01*
X137347937Y-114465947D01*
X137360637Y-114595477D01*
X137360638Y-114595482D01*
X137361177Y-114600979D01*
X137413970Y-114759680D01*
X137416835Y-114764411D01*
X137416837Y-114764415D01*
X137497744Y-114898008D01*
X137497747Y-114898012D01*
X137500611Y-114902741D01*
X137504454Y-114906721D01*
X137504459Y-114906727D01*
X137606450Y-115012341D01*
X137633273Y-115067334D01*
X137622648Y-115127589D01*
X137604504Y-115151844D01*
X137513623Y-115240841D01*
X137423022Y-115381427D01*
X137365818Y-115538592D01*
X137344856Y-115704525D01*
X137352228Y-115779709D01*
X137360637Y-115865477D01*
X137360638Y-115865482D01*
X137361177Y-115870979D01*
X137413970Y-116029680D01*
X137416835Y-116034411D01*
X137416837Y-116034415D01*
X137497744Y-116168008D01*
X137497747Y-116168012D01*
X137500611Y-116172741D01*
X137504453Y-116176720D01*
X137504455Y-116176722D01*
X137530059Y-116203235D01*
X137616794Y-116293052D01*
X137756744Y-116384633D01*
X137838577Y-116415066D01*
X137908313Y-116441001D01*
X137908315Y-116441002D01*
X137913506Y-116442932D01*
X137918998Y-116443665D01*
X137918999Y-116443665D01*
X138047380Y-116460794D01*
X138079289Y-116465052D01*
X138084795Y-116464551D01*
X138084797Y-116464551D01*
X138162571Y-116457473D01*
X138245852Y-116449894D01*
X138332590Y-116421711D01*
X138399653Y-116399921D01*
X138399655Y-116399920D01*
X138404918Y-116398210D01*
X138409674Y-116395375D01*
X138409676Y-116395374D01*
X138543830Y-116315402D01*
X138548581Y-116312570D01*
X138663394Y-116203235D01*
X138718573Y-116176798D01*
X138778753Y-116187843D01*
X138802879Y-116206155D01*
X138827275Y-116231418D01*
X138882950Y-116289072D01*
X138882953Y-116289074D01*
X138886794Y-116293052D01*
X139026744Y-116384633D01*
X139108577Y-116415066D01*
X139178313Y-116441001D01*
X139178315Y-116441002D01*
X139183506Y-116442932D01*
X139188998Y-116443665D01*
X139188999Y-116443665D01*
X139317380Y-116460794D01*
X139349289Y-116465052D01*
X139354795Y-116464551D01*
X139354797Y-116464551D01*
X139432571Y-116457473D01*
X139515852Y-116449894D01*
X139602590Y-116421711D01*
X139669653Y-116399921D01*
X139669655Y-116399920D01*
X139674918Y-116398210D01*
X139679674Y-116395375D01*
X139679676Y-116395374D01*
X139813830Y-116315402D01*
X139818581Y-116312570D01*
X139933394Y-116203235D01*
X139988573Y-116176798D01*
X140048753Y-116187843D01*
X140072879Y-116206155D01*
X140097275Y-116231418D01*
X140152950Y-116289072D01*
X140152953Y-116289074D01*
X140156794Y-116293052D01*
X140296744Y-116384633D01*
X140378577Y-116415066D01*
X140448313Y-116441001D01*
X140448315Y-116441002D01*
X140453506Y-116442932D01*
X140458998Y-116443665D01*
X140458999Y-116443665D01*
X140587380Y-116460794D01*
X140619289Y-116465052D01*
X140624795Y-116464551D01*
X140624797Y-116464551D01*
X140702571Y-116457473D01*
X140785852Y-116449894D01*
X140872590Y-116421711D01*
X140939653Y-116399921D01*
X140939655Y-116399920D01*
X140944918Y-116398210D01*
X140949674Y-116395375D01*
X140949676Y-116395374D01*
X141083830Y-116315402D01*
X141088581Y-116312570D01*
X141203394Y-116203235D01*
X141258573Y-116176798D01*
X141318753Y-116187843D01*
X141342879Y-116206155D01*
X141367275Y-116231418D01*
X141422950Y-116289072D01*
X141422953Y-116289074D01*
X141426794Y-116293052D01*
X141566744Y-116384633D01*
X141648577Y-116415066D01*
X141718313Y-116441001D01*
X141718315Y-116441002D01*
X141723506Y-116442932D01*
X141728998Y-116443665D01*
X141728999Y-116443665D01*
X141857380Y-116460794D01*
X141889289Y-116465052D01*
X141894795Y-116464551D01*
X141894797Y-116464551D01*
X141972571Y-116457473D01*
X142055852Y-116449894D01*
X142142590Y-116421711D01*
X142209653Y-116399921D01*
X142209655Y-116399920D01*
X142214918Y-116398210D01*
X142219674Y-116395375D01*
X142219676Y-116395374D01*
X142353830Y-116315402D01*
X142358581Y-116312570D01*
X142479700Y-116197230D01*
X142493326Y-116176722D01*
X142569192Y-116062533D01*
X142572255Y-116057923D01*
X142585752Y-116022394D01*
X142629682Y-115906746D01*
X142631648Y-115901571D01*
X142654925Y-115735947D01*
X142655217Y-115715000D01*
X142654660Y-115710028D01*
X142639019Y-115570593D01*
X142636574Y-115548791D01*
X142581570Y-115390842D01*
X142492940Y-115249004D01*
X142393752Y-115149121D01*
X142393510Y-115148877D01*
X142365923Y-115094263D01*
X142375706Y-115033865D01*
X142395484Y-115007428D01*
X142479700Y-114927230D01*
X142572255Y-114787923D01*
X142631648Y-114631571D01*
X142654925Y-114465947D01*
X142655217Y-114445000D01*
X142654660Y-114440028D01*
X142637191Y-114284296D01*
X142636574Y-114278791D01*
X142581570Y-114120842D01*
X142492940Y-113979004D01*
X142393509Y-113878876D01*
X142365923Y-113824263D01*
X142375706Y-113763865D01*
X142395484Y-113737428D01*
X142479700Y-113657230D01*
X142572255Y-113517923D01*
X142631648Y-113361571D01*
X142654925Y-113195947D01*
X142655217Y-113175000D01*
X142654660Y-113170028D01*
X142643693Y-113072259D01*
X142636574Y-113008791D01*
X142581570Y-112850842D01*
X142518473Y-112749866D01*
X142495872Y-112713696D01*
X142495871Y-112713695D01*
X142492940Y-112709004D01*
X142393509Y-112608876D01*
X142365923Y-112554263D01*
X142375706Y-112493865D01*
X142395484Y-112467428D01*
X142479700Y-112387230D01*
X142572255Y-112247923D01*
X142631648Y-112091571D01*
X142654925Y-111925947D01*
X142655217Y-111905000D01*
X142654660Y-111900028D01*
X142637191Y-111744296D01*
X142636574Y-111738791D01*
X142581570Y-111580842D01*
X142492940Y-111439004D01*
X142393509Y-111338876D01*
X142365923Y-111284263D01*
X142375706Y-111223865D01*
X142395484Y-111197428D01*
X142479700Y-111117230D01*
X142483760Y-111111120D01*
X142553266Y-111006504D01*
X142572255Y-110977923D01*
X142576139Y-110967700D01*
X142629682Y-110826746D01*
X142631648Y-110821571D01*
X142654925Y-110655947D01*
X142655217Y-110635000D01*
X142654660Y-110630028D01*
X142642478Y-110521427D01*
X142654781Y-110461492D01*
X142699964Y-110420234D01*
X142760768Y-110413414D01*
X142770384Y-110415896D01*
X142877233Y-110449278D01*
X142941744Y-110450461D01*
X142999202Y-110451514D01*
X142999204Y-110451514D01*
X143006255Y-110451643D01*
X143013058Y-110449788D01*
X143013060Y-110449788D01*
X143054828Y-110438400D01*
X143130755Y-110417700D01*
X143194874Y-110378331D01*
X143234715Y-110353869D01*
X143234717Y-110353867D01*
X143240724Y-110350179D01*
X143247165Y-110343064D01*
X143248995Y-110342013D01*
X143250884Y-110340445D01*
X143251156Y-110340773D01*
X143300232Y-110312610D01*
X143320562Y-110310500D01*
X144130379Y-110310500D01*
X144188570Y-110329407D01*
X144200383Y-110339496D01*
X144369536Y-110508649D01*
X144397696Y-110565816D01*
X144411633Y-110672394D01*
X144414471Y-110678845D01*
X144414472Y-110678847D01*
X144460764Y-110784054D01*
X144463605Y-110790510D01*
X144494065Y-110826746D01*
X144542100Y-110883892D01*
X144542103Y-110883894D01*
X144546639Y-110889291D01*
X144654060Y-110960796D01*
X144660788Y-110962898D01*
X144660790Y-110962899D01*
X144708880Y-110977923D01*
X144777233Y-110999278D01*
X144841744Y-111000461D01*
X144899202Y-111001514D01*
X144899204Y-111001514D01*
X144906255Y-111001643D01*
X144913058Y-110999788D01*
X144913060Y-110999788D01*
X144954828Y-110988400D01*
X145030755Y-110967700D01*
X145140724Y-110900179D01*
X145155466Y-110883892D01*
X145222590Y-110809735D01*
X145222590Y-110809734D01*
X145227322Y-110804507D01*
X145283588Y-110688375D01*
X145304997Y-110561120D01*
X145305133Y-110550000D01*
X145286839Y-110422259D01*
X145250353Y-110342013D01*
X145236349Y-110311212D01*
X145236348Y-110311211D01*
X145233428Y-110304788D01*
X145149193Y-110207028D01*
X145143276Y-110203193D01*
X145143274Y-110203191D01*
X145046824Y-110140677D01*
X145040906Y-110136841D01*
X145034150Y-110134821D01*
X145034149Y-110134820D01*
X145008154Y-110127046D01*
X144917273Y-110099866D01*
X144901836Y-110099772D01*
X144879151Y-110099633D01*
X144821077Y-110080371D01*
X144809752Y-110070639D01*
X144558746Y-109819633D01*
X144555842Y-109816268D01*
X144553592Y-109811666D01*
X144516097Y-109776884D01*
X144513421Y-109774308D01*
X144499138Y-109760025D01*
X144495377Y-109757444D01*
X144495203Y-109757300D01*
X144491156Y-109753747D01*
X144468790Y-109733000D01*
X144460300Y-109729613D01*
X144460299Y-109729612D01*
X144457397Y-109728454D01*
X144438086Y-109718143D01*
X144435515Y-109716380D01*
X144435514Y-109716380D01*
X144427975Y-109711208D01*
X144400962Y-109704797D01*
X144387139Y-109700425D01*
X144367844Y-109692727D01*
X144367843Y-109692727D01*
X144361354Y-109690138D01*
X144354847Y-109689500D01*
X144348091Y-109689500D01*
X144325231Y-109686825D01*
X144324323Y-109686609D01*
X144324321Y-109686609D01*
X144315430Y-109684499D01*
X144286287Y-109688465D01*
X144285327Y-109688596D01*
X144271976Y-109689500D01*
X143322009Y-109689500D01*
X143263818Y-109670593D01*
X143256930Y-109665104D01*
X143253797Y-109662371D01*
X143249193Y-109657028D01*
X143140906Y-109586841D01*
X143134150Y-109584821D01*
X143134149Y-109584820D01*
X143091335Y-109572016D01*
X143017273Y-109549866D01*
X142940644Y-109549398D01*
X142895282Y-109549121D01*
X142888231Y-109549078D01*
X142881454Y-109551015D01*
X142881453Y-109551015D01*
X142825955Y-109566877D01*
X142767713Y-109583522D01*
X142706568Y-109581333D01*
X142658386Y-109543622D01*
X142641572Y-109484792D01*
X142642472Y-109474555D01*
X142654492Y-109389027D01*
X142654925Y-109385947D01*
X142655217Y-109365000D01*
X142636574Y-109198791D01*
X142581570Y-109040842D01*
X142492940Y-108899004D01*
X142393509Y-108798876D01*
X142365923Y-108744263D01*
X142375706Y-108683865D01*
X142395484Y-108657428D01*
X142479700Y-108577230D01*
X142572255Y-108437923D01*
X142631648Y-108281571D01*
X142654925Y-108115947D01*
X142655217Y-108095000D01*
X142654660Y-108090028D01*
X142637191Y-107934296D01*
X142636574Y-107928791D01*
X142581570Y-107770842D01*
X142492940Y-107629004D01*
X142393509Y-107528876D01*
X142365923Y-107474263D01*
X142375706Y-107413865D01*
X142395484Y-107387428D01*
X142479700Y-107307230D01*
X142572255Y-107167923D01*
X142631648Y-107011571D01*
X142654925Y-106845947D01*
X142655217Y-106825000D01*
X142654660Y-106820028D01*
X142637191Y-106664296D01*
X142636574Y-106658791D01*
X142581570Y-106500842D01*
X142492940Y-106359004D01*
X142393509Y-106258876D01*
X142365923Y-106204263D01*
X142375706Y-106143865D01*
X142395484Y-106117428D01*
X142479700Y-106037230D01*
X142572255Y-105897923D01*
X142631648Y-105741571D01*
X142654925Y-105575947D01*
X142655217Y-105555000D01*
X142654660Y-105550028D01*
X142637191Y-105394296D01*
X142636574Y-105388791D01*
X142581570Y-105230842D01*
X142492940Y-105089004D01*
X142393510Y-104988877D01*
X142365923Y-104934263D01*
X142375706Y-104873865D01*
X142395484Y-104847428D01*
X142479700Y-104767230D01*
X142572255Y-104627923D01*
X142594877Y-104568372D01*
X142629682Y-104476746D01*
X142631648Y-104471571D01*
X142654925Y-104305947D01*
X142655217Y-104285000D01*
X142654564Y-104279172D01*
X142637191Y-104124296D01*
X142636574Y-104118791D01*
X142581570Y-103960842D01*
X142492940Y-103819004D01*
X142375089Y-103700327D01*
X142295203Y-103649630D01*
X142238544Y-103613673D01*
X142238542Y-103613672D01*
X142233873Y-103610709D01*
X142124219Y-103571663D01*
X142081526Y-103556461D01*
X142081524Y-103556461D01*
X142076313Y-103554605D01*
X142056849Y-103552284D01*
X141915733Y-103535456D01*
X141915730Y-103535456D01*
X141910237Y-103534801D01*
X141743902Y-103552284D01*
X141664737Y-103579234D01*
X141590815Y-103604398D01*
X141590811Y-103604400D01*
X141585573Y-103606183D01*
X141580863Y-103609081D01*
X141580858Y-103609083D01*
X141454913Y-103686566D01*
X141452695Y-103687261D01*
X141430219Y-103701913D01*
X139435004Y-105697128D01*
X139380487Y-105724905D01*
X139320055Y-105715334D01*
X139294996Y-105697128D01*
X138728737Y-105130869D01*
X138700960Y-105076352D01*
X138710531Y-105015920D01*
X138743739Y-104978550D01*
X138762490Y-104966021D01*
X138762491Y-104966020D01*
X138770601Y-104960601D01*
X138788200Y-104934263D01*
X138788714Y-104933493D01*
X138836763Y-104895613D01*
X138897901Y-104893209D01*
X138939755Y-104922377D01*
X138942132Y-104920000D01*
X139353914Y-105331782D01*
X139365797Y-105337836D01*
X139370828Y-105337040D01*
X139776782Y-104931086D01*
X139782836Y-104919203D01*
X139782040Y-104914172D01*
X139376086Y-104508218D01*
X139364203Y-104502164D01*
X139359172Y-104502960D01*
X139009504Y-104852628D01*
X138954987Y-104880405D01*
X138894555Y-104870834D01*
X138851290Y-104827569D01*
X138840500Y-104782624D01*
X138840500Y-104638376D01*
X138859407Y-104580185D01*
X138869496Y-104568372D01*
X139152071Y-104285797D01*
X139582164Y-104285797D01*
X139582960Y-104290828D01*
X139988914Y-104696782D01*
X140000797Y-104702836D01*
X140005828Y-104702040D01*
X140411782Y-104296086D01*
X140417836Y-104284203D01*
X140417040Y-104279172D01*
X140011086Y-103873218D01*
X139999203Y-103867164D01*
X139994172Y-103867960D01*
X139588218Y-104273914D01*
X139582164Y-104285797D01*
X139152071Y-104285797D01*
X139929996Y-103507872D01*
X139974171Y-103485365D01*
X140017788Y-103485365D01*
X140044945Y-103489666D01*
X140070004Y-103507872D01*
X140623914Y-104061782D01*
X140635797Y-104067836D01*
X140640828Y-104067040D01*
X141214559Y-103493309D01*
X141220613Y-103481426D01*
X141220180Y-103478692D01*
X141217829Y-103475757D01*
X141197821Y-103459205D01*
X141189827Y-103453813D01*
X141026698Y-103365608D01*
X141017827Y-103361879D01*
X140840663Y-103307038D01*
X140831229Y-103305101D01*
X140646796Y-103285716D01*
X140637158Y-103285649D01*
X140452474Y-103302456D01*
X140443008Y-103304262D01*
X140265110Y-103356621D01*
X140256169Y-103360234D01*
X140091836Y-103446145D01*
X140083759Y-103451430D01*
X140062840Y-103468250D01*
X140017788Y-103485365D01*
X139974171Y-103485365D01*
X139979209Y-103482798D01*
X139946598Y-103473938D01*
X139937697Y-103467376D01*
X139927816Y-103459201D01*
X139919827Y-103453813D01*
X139756698Y-103365608D01*
X139747827Y-103361879D01*
X139570663Y-103307038D01*
X139561229Y-103305101D01*
X139376796Y-103285716D01*
X139367158Y-103285649D01*
X139182474Y-103302456D01*
X139173008Y-103304262D01*
X138995110Y-103356621D01*
X138986169Y-103360234D01*
X138821836Y-103446145D01*
X138813760Y-103451429D01*
X138722482Y-103524819D01*
X138665284Y-103546547D01*
X138641134Y-103544763D01*
X138626841Y-103541920D01*
X138614674Y-103539500D01*
X137575326Y-103539500D01*
X137502260Y-103554034D01*
X137419399Y-103609399D01*
X137364034Y-103692260D01*
X137349500Y-103765326D01*
X137349500Y-104804674D01*
X137364034Y-104877740D01*
X137419399Y-104960601D01*
X137427509Y-104966020D01*
X137458465Y-104986704D01*
X137496345Y-105034754D01*
X137498747Y-105095892D01*
X137486681Y-105122648D01*
X137423022Y-105221427D01*
X137365818Y-105378592D01*
X137344856Y-105544525D01*
X137347937Y-105575947D01*
X137360637Y-105705477D01*
X137360638Y-105705482D01*
X137361177Y-105710979D01*
X137413970Y-105869680D01*
X137416835Y-105874411D01*
X137416837Y-105874415D01*
X137497744Y-106008008D01*
X137497747Y-106008012D01*
X137500611Y-106012741D01*
X137504454Y-106016721D01*
X137504459Y-106016727D01*
X137606450Y-106122341D01*
X137633273Y-106177334D01*
X137622648Y-106237589D01*
X137604504Y-106261844D01*
X137513623Y-106350841D01*
X137423022Y-106491427D01*
X137365818Y-106648592D01*
X137344856Y-106814525D01*
X137347937Y-106845947D01*
X137360637Y-106975477D01*
X137360638Y-106975482D01*
X137361177Y-106980979D01*
X137413970Y-107139680D01*
X137416835Y-107144411D01*
X137416837Y-107144415D01*
X137497744Y-107278008D01*
X137497747Y-107278012D01*
X137500611Y-107282741D01*
X137504454Y-107286721D01*
X137504459Y-107286727D01*
X137606450Y-107392341D01*
X137633273Y-107447334D01*
X137622648Y-107507589D01*
X137604504Y-107531844D01*
X137513623Y-107620841D01*
X137423022Y-107761427D01*
X137365818Y-107918592D01*
X137344856Y-108084525D01*
X137347937Y-108115947D01*
X137360637Y-108245477D01*
X137360638Y-108245482D01*
X137361177Y-108250979D01*
X137413970Y-108409680D01*
X137416835Y-108414411D01*
X137416837Y-108414415D01*
X137497744Y-108548008D01*
X137497747Y-108548012D01*
X137500611Y-108552741D01*
X137504454Y-108556721D01*
X137504459Y-108556727D01*
X137606450Y-108662341D01*
X137633273Y-108717334D01*
X137622648Y-108777589D01*
X137604504Y-108801844D01*
X137513623Y-108890841D01*
X137510625Y-108895493D01*
X137437392Y-109009129D01*
X137389977Y-109047800D01*
X137354176Y-109054500D01*
X136040428Y-109054500D01*
X136035988Y-109054174D01*
X136031145Y-109052511D01*
X135980023Y-109054430D01*
X135976309Y-109054500D01*
X135956124Y-109054500D01*
X135951633Y-109055336D01*
X135951400Y-109055358D01*
X135946013Y-109055707D01*
X135937474Y-109056027D01*
X135924689Y-109056507D01*
X135924688Y-109056507D01*
X135915555Y-109056850D01*
X135904284Y-109061692D01*
X135883337Y-109068056D01*
X135882775Y-109068161D01*
X135871285Y-109070301D01*
X135847646Y-109084872D01*
X135834793Y-109091549D01*
X135809279Y-109102510D01*
X135804226Y-109106660D01*
X135799445Y-109111441D01*
X135781391Y-109125711D01*
X135772818Y-109130996D01*
X135767288Y-109138269D01*
X135767283Y-109138273D01*
X135754431Y-109155175D01*
X135745631Y-109165255D01*
X134140609Y-110770278D01*
X134086092Y-110798055D01*
X134070000Y-110799272D01*
X134045282Y-110799121D01*
X134045281Y-110799121D01*
X134038231Y-110799078D01*
X134031454Y-110801015D01*
X134031453Y-110801015D01*
X133920935Y-110832601D01*
X133920933Y-110832602D01*
X133914155Y-110834539D01*
X133805019Y-110903399D01*
X133719596Y-111000122D01*
X133664754Y-111116932D01*
X133644901Y-111244440D01*
X128250000Y-111244440D01*
X128250000Y-99067920D01*
X146870041Y-99067920D01*
X146870539Y-99071064D01*
X146872424Y-99073456D01*
X146933156Y-99125326D01*
X146939436Y-99129888D01*
X147140820Y-99253297D01*
X147147732Y-99256819D01*
X147365952Y-99347209D01*
X147373320Y-99349603D01*
X147603004Y-99404745D01*
X147610647Y-99405956D01*
X147846125Y-99424488D01*
X147853875Y-99424488D01*
X148089353Y-99405956D01*
X148096996Y-99404745D01*
X148326680Y-99349603D01*
X148334048Y-99347209D01*
X148552268Y-99256819D01*
X148559180Y-99253297D01*
X148760564Y-99129888D01*
X148766844Y-99125326D01*
X148823067Y-99077307D01*
X148830037Y-99065934D01*
X148829787Y-99062757D01*
X148828099Y-99060231D01*
X147861086Y-98093218D01*
X147849203Y-98087164D01*
X147844172Y-98087960D01*
X146876095Y-99056037D01*
X146870041Y-99067920D01*
X128250000Y-99067920D01*
X128250000Y-97873875D01*
X146295512Y-97873875D01*
X146314044Y-98109353D01*
X146315255Y-98116996D01*
X146370397Y-98346680D01*
X146372791Y-98354048D01*
X146463181Y-98572268D01*
X146466703Y-98579180D01*
X146590112Y-98780564D01*
X146594674Y-98786844D01*
X146642693Y-98843067D01*
X146654066Y-98850037D01*
X146657243Y-98849787D01*
X146659769Y-98848099D01*
X147779996Y-97727872D01*
X147834513Y-97700095D01*
X147894945Y-97709666D01*
X147920004Y-97727872D01*
X149036037Y-98843905D01*
X149047920Y-98849959D01*
X149051064Y-98849461D01*
X149053456Y-98847576D01*
X149105326Y-98786844D01*
X149109888Y-98780564D01*
X149233297Y-98579180D01*
X149236819Y-98572268D01*
X149327209Y-98354048D01*
X149329603Y-98346680D01*
X149384745Y-98116996D01*
X149385956Y-98109353D01*
X149404488Y-97873875D01*
X149404488Y-97866125D01*
X149385956Y-97630647D01*
X149384745Y-97623004D01*
X149329603Y-97393320D01*
X149327209Y-97385952D01*
X149236819Y-97167732D01*
X149233300Y-97160826D01*
X149109331Y-96958528D01*
X149095047Y-96899033D01*
X149118462Y-96842505D01*
X149146199Y-96819963D01*
X149148221Y-96818856D01*
X149251545Y-96741419D01*
X149261419Y-96731545D01*
X149338857Y-96628219D01*
X149345557Y-96615982D01*
X149391178Y-96494287D01*
X149394029Y-96482298D01*
X149399711Y-96429991D01*
X149400000Y-96424657D01*
X149400000Y-95495680D01*
X149395878Y-95482995D01*
X149391757Y-95480000D01*
X146315680Y-95480000D01*
X146302995Y-95484122D01*
X146300000Y-95488243D01*
X146300000Y-96424657D01*
X146300289Y-96429991D01*
X146305971Y-96482298D01*
X146308822Y-96494287D01*
X146354443Y-96615982D01*
X146361143Y-96628219D01*
X146438581Y-96731545D01*
X146448455Y-96741419D01*
X146551779Y-96818856D01*
X146553801Y-96819963D01*
X146555111Y-96821353D01*
X146557419Y-96823083D01*
X146557119Y-96823484D01*
X146595762Y-96864492D01*
X146603537Y-96925182D01*
X146590669Y-96958528D01*
X146466700Y-97160826D01*
X146463181Y-97167732D01*
X146372791Y-97385952D01*
X146370397Y-97393320D01*
X146315255Y-97623004D01*
X146314044Y-97630647D01*
X146295512Y-97866125D01*
X146295512Y-97873875D01*
X128250000Y-97873875D01*
X128250000Y-95164320D01*
X146300000Y-95164320D01*
X146304122Y-95177005D01*
X146308243Y-95180000D01*
X147684320Y-95180000D01*
X147697005Y-95175878D01*
X147700000Y-95171757D01*
X147700000Y-95164320D01*
X148000000Y-95164320D01*
X148004122Y-95177005D01*
X148008243Y-95180000D01*
X149384320Y-95180000D01*
X149397005Y-95175878D01*
X149400000Y-95171757D01*
X149400000Y-94235343D01*
X149399711Y-94230009D01*
X149394029Y-94177702D01*
X149391178Y-94165713D01*
X149345557Y-94044018D01*
X149338857Y-94031781D01*
X149261419Y-93928455D01*
X149251545Y-93918581D01*
X149148219Y-93841143D01*
X149135982Y-93834443D01*
X149014287Y-93788822D01*
X149002298Y-93785971D01*
X148949991Y-93780289D01*
X148944657Y-93780000D01*
X148015680Y-93780000D01*
X148002995Y-93784122D01*
X148000000Y-93788243D01*
X148000000Y-95164320D01*
X147700000Y-95164320D01*
X147700000Y-93795680D01*
X147695878Y-93782995D01*
X147691757Y-93780000D01*
X146755343Y-93780000D01*
X146750009Y-93780289D01*
X146697702Y-93785971D01*
X146685713Y-93788822D01*
X146564018Y-93834443D01*
X146551781Y-93841143D01*
X146448455Y-93918581D01*
X146438581Y-93928455D01*
X146361143Y-94031781D01*
X146354443Y-94044018D01*
X146308822Y-94165713D01*
X146305971Y-94177702D01*
X146300289Y-94230009D01*
X146300000Y-94235343D01*
X146300000Y-95164320D01*
X128250000Y-95164320D01*
X128250000Y-92534376D01*
X128251902Y-92515062D01*
X128252996Y-92509562D01*
X128254898Y-92500000D01*
X128252996Y-92490438D01*
X128252996Y-92480685D01*
X128253639Y-92480685D01*
X128253062Y-92468914D01*
X128263455Y-92363387D01*
X128267241Y-92344352D01*
X128279527Y-92303852D01*
X128304260Y-92222317D01*
X128311686Y-92204388D01*
X128360784Y-92112534D01*
X128371803Y-92091918D01*
X128382584Y-92075784D01*
X128463487Y-91977204D01*
X128477204Y-91963487D01*
X128575786Y-91882583D01*
X128591920Y-91871802D01*
X128704391Y-91811685D01*
X128722317Y-91804260D01*
X128844354Y-91767241D01*
X128863386Y-91763455D01*
X128893655Y-91760474D01*
X128968914Y-91753062D01*
X128980685Y-91753639D01*
X128980685Y-91752996D01*
X128990438Y-91752996D01*
X129000000Y-91754898D01*
X129009562Y-91752996D01*
X129015062Y-91751902D01*
X129034376Y-91750000D01*
X150965624Y-91750000D01*
X150984938Y-91751902D01*
G37*
%TD.AperFunction*%
%TD*%
M02*
