%TF.GenerationSoftware,KiCad,Pcbnew,(6.0.0)*%
%TF.CreationDate,2022-08-13T16:18:09-04:00*%
%TF.ProjectId,eib-24-nanoz-adapter,6569622d-3234-42d6-9e61-6e6f7a2d6164,A*%
%TF.SameCoordinates,Original*%
%TF.FileFunction,Copper,L4,Bot*%
%TF.FilePolarity,Positive*%
%FSLAX46Y46*%
G04 Gerber Fmt 4.6, Leading zero omitted, Abs format (unit mm)*
G04 Created by KiCad (PCBNEW (6.0.0)) date 2022-08-13 16:18:09*
%MOMM*%
%LPD*%
G01*
G04 APERTURE LIST*
%TA.AperFunction,ComponentPad*%
%ADD10C,2.100000*%
%TD*%
%TA.AperFunction,ComponentPad*%
%ADD11R,2.100000X2.100000*%
%TD*%
%TA.AperFunction,ComponentPad*%
%ADD12R,0.990000X0.990000*%
%TD*%
%TA.AperFunction,ComponentPad*%
%ADD13C,0.990000*%
%TD*%
%TA.AperFunction,ViaPad*%
%ADD14C,0.400000*%
%TD*%
G04 APERTURE END LIST*
D10*
%TO.P,J1,2,Pin_2*%
%TO.N,/REF*%
X147850000Y-97870000D03*
D11*
%TO.P,J1,1,Pin_1*%
X147850000Y-95330000D03*
%TD*%
D12*
%TO.P,J4,A1,A1*%
%TO.N,/E13*%
X138095000Y-121285000D03*
D13*
%TO.P,J4,A2,A2*%
%TO.N,/E15*%
X138095000Y-122555000D03*
%TO.P,J4,A3,A3*%
%TO.N,/E17*%
X138095000Y-123825000D03*
%TO.P,J4,A4,A4*%
%TO.N,/E19*%
X138095000Y-125095000D03*
%TO.P,J4,A5,A5*%
%TO.N,/E21*%
X138095000Y-126365000D03*
%TO.P,J4,A6,A6*%
%TO.N,/E23*%
X138095000Y-127635000D03*
%TO.P,J4,A7,A7*%
%TO.N,unconnected-(J4-PadA7)*%
X138095000Y-128905000D03*
%TO.P,J4,A8,A8*%
%TO.N,unconnected-(J4-PadA8)*%
X138095000Y-130175000D03*
%TO.P,J4,A9,A9*%
%TO.N,unconnected-(J4-PadA9)*%
X138095000Y-131445000D03*
%TO.P,J4,A10,A10*%
%TO.N,unconnected-(J4-PadA10)*%
X138095000Y-132715000D03*
%TO.P,J4,B1,B1*%
%TO.N,/REF*%
X139365000Y-121285000D03*
%TO.P,J4,B2,B2*%
X139365000Y-122555000D03*
%TO.P,J4,B3,B3*%
%TO.N,unconnected-(J4-PadB3)*%
X139365000Y-123825000D03*
%TO.P,J4,B4,B4*%
%TO.N,unconnected-(J4-PadB4)*%
X139365000Y-125095000D03*
%TO.P,J4,B5,B5*%
%TO.N,/E20*%
X139365000Y-126365000D03*
%TO.P,J4,B6,B6*%
%TO.N,/E22*%
X139365000Y-127635000D03*
%TO.P,J4,B7,B7*%
%TO.N,unconnected-(J4-PadB7)*%
X139365000Y-128905000D03*
%TO.P,J4,B8,B8*%
%TO.N,unconnected-(J4-PadB8)*%
X139365000Y-130175000D03*
%TO.P,J4,B9,B9*%
%TO.N,unconnected-(J4-PadB9)*%
X139365000Y-131445000D03*
%TO.P,J4,B10,B10*%
%TO.N,unconnected-(J4-PadB10)*%
X139365000Y-132715000D03*
%TO.P,J4,C1,C1*%
%TO.N,/REF*%
X140635000Y-121285000D03*
%TO.P,J4,C2,C2*%
%TO.N,unconnected-(J4-PadC2)*%
X140635000Y-122555000D03*
%TO.P,J4,C3,C3*%
%TO.N,unconnected-(J4-PadC3)*%
X140635000Y-123825000D03*
%TO.P,J4,C4,C4*%
%TO.N,unconnected-(J4-PadC4)*%
X140635000Y-125095000D03*
%TO.P,J4,C5,C5*%
%TO.N,unconnected-(J4-PadC5)*%
X140635000Y-126365000D03*
%TO.P,J4,C6,C6*%
%TO.N,unconnected-(J4-PadC6)*%
X140635000Y-127635000D03*
%TO.P,J4,C7,C7*%
%TO.N,unconnected-(J4-PadC7)*%
X140635000Y-128905000D03*
%TO.P,J4,C8,C8*%
%TO.N,unconnected-(J4-PadC8)*%
X140635000Y-130175000D03*
%TO.P,J4,C9,C9*%
%TO.N,unconnected-(J4-PadC9)*%
X140635000Y-131445000D03*
%TO.P,J4,C10,C10*%
%TO.N,unconnected-(J4-PadC10)*%
X140635000Y-132715000D03*
%TO.P,J4,D1,D1*%
%TO.N,unconnected-(J4-PadD1)*%
X141905000Y-121285000D03*
%TO.P,J4,D2,D2*%
%TO.N,unconnected-(J4-PadD2)*%
X141905000Y-122555000D03*
%TO.P,J4,D3,D3*%
%TO.N,unconnected-(J4-PadD3)*%
X141905000Y-123825000D03*
%TO.P,J4,D4,D4*%
%TO.N,unconnected-(J4-PadD4)*%
X141905000Y-125095000D03*
%TO.P,J4,D5,D5*%
%TO.N,unconnected-(J4-PadD5)*%
X141905000Y-126365000D03*
%TO.P,J4,D6,D6*%
%TO.N,unconnected-(J4-PadD6)*%
X141905000Y-127635000D03*
%TO.P,J4,D7,D7*%
%TO.N,unconnected-(J4-PadD7)*%
X141905000Y-128905000D03*
%TO.P,J4,D8,D8*%
%TO.N,unconnected-(J4-PadD8)*%
X141905000Y-130175000D03*
%TO.P,J4,D9,D9*%
%TO.N,unconnected-(J4-PadD9)*%
X141905000Y-131445000D03*
%TO.P,J4,D10,D10*%
%TO.N,unconnected-(J4-PadD10)*%
X141905000Y-132715000D03*
%TD*%
%TO.P,J3,D10,D10*%
%TO.N,unconnected-(J3-PadD10)*%
X141905000Y-115715000D03*
%TO.P,J3,D9,D9*%
%TO.N,unconnected-(J3-PadD9)*%
X141905000Y-114445000D03*
%TO.P,J3,D8,D8*%
%TO.N,unconnected-(J3-PadD8)*%
X141905000Y-113175000D03*
%TO.P,J3,D7,D7*%
%TO.N,unconnected-(J3-PadD7)*%
X141905000Y-111905000D03*
%TO.P,J3,D6,D6*%
%TO.N,unconnected-(J3-PadD6)*%
X141905000Y-110635000D03*
%TO.P,J3,D5,D5*%
%TO.N,unconnected-(J3-PadD5)*%
X141905000Y-109365000D03*
%TO.P,J3,D4,D4*%
%TO.N,unconnected-(J3-PadD4)*%
X141905000Y-108095000D03*
%TO.P,J3,D3,D3*%
%TO.N,unconnected-(J3-PadD3)*%
X141905000Y-106825000D03*
%TO.P,J3,D2,D2*%
%TO.N,unconnected-(J3-PadD2)*%
X141905000Y-105555000D03*
%TO.P,J3,D1,D1*%
%TO.N,unconnected-(J3-PadD1)*%
X141905000Y-104285000D03*
%TO.P,J3,C10,C10*%
%TO.N,unconnected-(J3-PadC10)*%
X140635000Y-115715000D03*
%TO.P,J3,C9,C9*%
%TO.N,unconnected-(J3-PadC9)*%
X140635000Y-114445000D03*
%TO.P,J3,C8,C8*%
%TO.N,unconnected-(J3-PadC8)*%
X140635000Y-113175000D03*
%TO.P,J3,C7,C7*%
%TO.N,unconnected-(J3-PadC7)*%
X140635000Y-111905000D03*
%TO.P,J3,C6,C6*%
%TO.N,unconnected-(J3-PadC6)*%
X140635000Y-110635000D03*
%TO.P,J3,C5,C5*%
%TO.N,unconnected-(J3-PadC5)*%
X140635000Y-109365000D03*
%TO.P,J3,C4,C4*%
%TO.N,unconnected-(J3-PadC4)*%
X140635000Y-108095000D03*
%TO.P,J3,C3,C3*%
%TO.N,unconnected-(J3-PadC3)*%
X140635000Y-106825000D03*
%TO.P,J3,C2,C2*%
%TO.N,unconnected-(J3-PadC2)*%
X140635000Y-105555000D03*
%TO.P,J3,C1,C1*%
%TO.N,/REF*%
X140635000Y-104285000D03*
%TO.P,J3,B10,B10*%
%TO.N,/E11*%
X139365000Y-115715000D03*
%TO.P,J3,B9,B9*%
%TO.N,/E9*%
X139365000Y-114445000D03*
%TO.P,J3,B8,B8*%
%TO.N,/E7*%
X139365000Y-113175000D03*
%TO.P,J3,B7,B7*%
%TO.N,/E5*%
X139365000Y-111905000D03*
%TO.P,J3,B6,B6*%
%TO.N,/E3*%
X139365000Y-110635000D03*
%TO.P,J3,B5,B5*%
%TO.N,/E1*%
X139365000Y-109365000D03*
%TO.P,J3,B4,B4*%
%TO.N,unconnected-(J3-PadB4)*%
X139365000Y-108095000D03*
%TO.P,J3,B3,B3*%
%TO.N,unconnected-(J3-PadB3)*%
X139365000Y-106825000D03*
%TO.P,J3,B2,B2*%
%TO.N,/REF*%
X139365000Y-105555000D03*
%TO.P,J3,B1,B1*%
X139365000Y-104285000D03*
%TO.P,J3,A10,A10*%
%TO.N,/E18*%
X138095000Y-115715000D03*
%TO.P,J3,A9,A9*%
%TO.N,/E16*%
X138095000Y-114445000D03*
%TO.P,J3,A8,A8*%
%TO.N,/E14*%
X138095000Y-113175000D03*
%TO.P,J3,A7,A7*%
%TO.N,/E12*%
X138095000Y-111905000D03*
%TO.P,J3,A6,A6*%
%TO.N,/E10*%
X138095000Y-110635000D03*
%TO.P,J3,A5,A5*%
%TO.N,/E8*%
X138095000Y-109365000D03*
%TO.P,J3,A4,A4*%
%TO.N,/E6*%
X138095000Y-108095000D03*
%TO.P,J3,A3,A3*%
%TO.N,/E4*%
X138095000Y-106825000D03*
%TO.P,J3,A2,A2*%
%TO.N,/E2*%
X138095000Y-105555000D03*
D12*
%TO.P,J3,A1,A1*%
%TO.N,/E0*%
X138095000Y-104285000D03*
%TD*%
D14*
%TO.N,/E4*%
X135800000Y-122050000D03*
%TO.N,/E17*%
X134800000Y-124400000D03*
%TO.N,/E19*%
X133000000Y-125450000D03*
%TO.N,/E22*%
X131100000Y-130150000D03*
%TO.N,/E20*%
X132050000Y-127100000D03*
%TO.N,/E21*%
X131050000Y-126550000D03*
%TO.N,/E23*%
X130000000Y-128450000D03*
%TO.N,/E11*%
X131450000Y-116500000D03*
X133700000Y-116500000D03*
%TO.N,/E9*%
X130850000Y-115900000D03*
X133850000Y-115600000D03*
%TO.N,/E6*%
X134000000Y-117000000D03*
X134350000Y-113400000D03*
X136600000Y-111100000D03*
X136650000Y-110050000D03*
%TO.N,/E18*%
X134450000Y-119150000D03*
X136400000Y-118350000D03*
%TO.N,/E5*%
X134950000Y-116100000D03*
X134950000Y-113200000D03*
%TO.N,/E8*%
X134100000Y-111250000D03*
%TO.N,/E1*%
X144850000Y-110550000D03*
X142950000Y-110000000D03*
%TO.N,/E13*%
X138300000Y-118800000D03*
%TO.N,/E21*%
X137350000Y-156950000D03*
%TO.N,/E16*%
X140900000Y-156200000D03*
%TO.N,/E12*%
X143150000Y-158350000D03*
%TO.N,/E13*%
X142250000Y-158250000D03*
%TO.N,/E14*%
X142950000Y-157250000D03*
%TO.N,/E15*%
X141600000Y-157000000D03*
%TO.N,/E17*%
X140250000Y-157250000D03*
%TO.N,/E18*%
X139800000Y-156300000D03*
%TO.N,/E19*%
X139200000Y-156900000D03*
%TO.N,/E20*%
X138500000Y-156250000D03*
%TO.N,/E22*%
X138150000Y-157900000D03*
%TO.N,/E23*%
X137050000Y-158400000D03*
%TO.N,/E5*%
X140300000Y-161600000D03*
%TO.N,/E3*%
X143300000Y-161700000D03*
%TO.N,/E6*%
X139600000Y-161600000D03*
%TO.N,/E8*%
X136700000Y-161700000D03*
%TO.N,/E9*%
X136800000Y-161100000D03*
%TO.N,/E4*%
X141000000Y-161700000D03*
%TO.N,/E2*%
X143300000Y-161100000D03*
%TO.N,/E1*%
X142700000Y-161000000D03*
%TO.N,/E0*%
X142590774Y-160117244D03*
%TO.N,/E7*%
X138900000Y-161800000D03*
%TO.N,/E10*%
X137370000Y-161000000D03*
%TO.N,/E11*%
X137435748Y-160118888D03*
%TD*%
%TA.AperFunction,Conductor*%
%TO.N,/REF*%
G36*
X150984938Y-91751902D02*
G01*
X151000000Y-91754898D01*
X151009562Y-91752996D01*
X151019315Y-91752996D01*
X151019315Y-91753639D01*
X151031086Y-91753062D01*
X151106345Y-91760474D01*
X151136614Y-91763455D01*
X151155646Y-91767241D01*
X151277683Y-91804260D01*
X151295609Y-91811685D01*
X151408080Y-91871802D01*
X151424214Y-91882583D01*
X151522796Y-91963487D01*
X151536513Y-91977204D01*
X151617416Y-92075784D01*
X151628197Y-92091918D01*
X151639217Y-92112534D01*
X151688314Y-92204388D01*
X151695740Y-92222317D01*
X151720474Y-92303852D01*
X151732759Y-92344352D01*
X151736545Y-92363387D01*
X151746938Y-92468914D01*
X151746361Y-92480685D01*
X151747004Y-92480685D01*
X151747004Y-92490438D01*
X151745102Y-92500000D01*
X151747004Y-92509562D01*
X151748098Y-92515062D01*
X151750000Y-92534376D01*
X151750000Y-133855438D01*
X151731093Y-133913629D01*
X151721004Y-133925442D01*
X142497528Y-143148919D01*
X142482526Y-143161230D01*
X142469760Y-143169760D01*
X142455812Y-143190635D01*
X142414505Y-143252455D01*
X142395102Y-143350000D01*
X142397004Y-143359562D01*
X142398098Y-143365062D01*
X142400000Y-143384376D01*
X142400000Y-153765624D01*
X142398098Y-153784938D01*
X142395102Y-153800000D01*
X142400000Y-153824624D01*
X142414505Y-153897545D01*
X142469760Y-153980240D01*
X142477870Y-153985659D01*
X142482526Y-153988770D01*
X142497528Y-154001081D01*
X143721004Y-155224557D01*
X143748781Y-155279074D01*
X143750000Y-155294561D01*
X143750000Y-158124185D01*
X143731093Y-158182376D01*
X143681593Y-158218340D01*
X143620407Y-158218340D01*
X143570907Y-158182376D01*
X143560878Y-158165161D01*
X143536349Y-158111212D01*
X143536348Y-158111211D01*
X143533428Y-158104788D01*
X143469387Y-158030464D01*
X143453798Y-158012372D01*
X143453797Y-158012371D01*
X143449193Y-158007028D01*
X143443276Y-158003193D01*
X143443274Y-158003191D01*
X143346824Y-157940677D01*
X143340906Y-157936841D01*
X143334150Y-157934821D01*
X143334149Y-157934820D01*
X143259089Y-157912372D01*
X143217273Y-157899866D01*
X143140644Y-157899398D01*
X143095282Y-157899121D01*
X143088231Y-157899078D01*
X143081454Y-157901015D01*
X143081453Y-157901015D01*
X142970935Y-157932601D01*
X142970933Y-157932602D01*
X142964155Y-157934539D01*
X142855019Y-158003399D01*
X142809428Y-158055021D01*
X142756736Y-158086121D01*
X142695827Y-158080309D01*
X142649967Y-158039807D01*
X142645103Y-158030464D01*
X142636350Y-158011213D01*
X142636348Y-158011209D01*
X142633428Y-158004788D01*
X142549193Y-157907028D01*
X142543276Y-157903193D01*
X142543274Y-157903191D01*
X142446824Y-157840677D01*
X142440906Y-157836841D01*
X142434150Y-157834821D01*
X142434149Y-157834820D01*
X142391335Y-157822016D01*
X142317273Y-157799866D01*
X142240644Y-157799398D01*
X142195282Y-157799121D01*
X142188231Y-157799078D01*
X142181454Y-157801015D01*
X142181453Y-157801015D01*
X142070935Y-157832601D01*
X142070933Y-157832602D01*
X142064155Y-157834539D01*
X141955019Y-157903399D01*
X141869596Y-158000122D01*
X141814754Y-158116932D01*
X141794901Y-158244440D01*
X141795816Y-158251437D01*
X141795816Y-158251438D01*
X141797082Y-158261120D01*
X141811633Y-158372394D01*
X141814471Y-158378845D01*
X141814472Y-158378847D01*
X141858197Y-158478220D01*
X141863605Y-158490510D01*
X141903840Y-158538375D01*
X141942100Y-158583892D01*
X141942103Y-158583894D01*
X141946639Y-158589291D01*
X142054060Y-158660796D01*
X142060788Y-158662898D01*
X142060790Y-158662899D01*
X142115646Y-158680037D01*
X142177233Y-158699278D01*
X142241744Y-158700460D01*
X142299202Y-158701514D01*
X142299204Y-158701514D01*
X142306255Y-158701643D01*
X142313058Y-158699788D01*
X142313060Y-158699788D01*
X142371364Y-158683892D01*
X142430755Y-158667700D01*
X142540724Y-158600179D01*
X142591064Y-158544565D01*
X142644131Y-158514111D01*
X142704964Y-158520666D01*
X142750327Y-158561725D01*
X142755075Y-158571124D01*
X142763605Y-158590510D01*
X142800208Y-158634054D01*
X142842100Y-158683892D01*
X142842103Y-158683894D01*
X142846639Y-158689291D01*
X142954060Y-158760796D01*
X142960788Y-158762898D01*
X142960790Y-158762899D01*
X143015647Y-158780037D01*
X143077233Y-158799278D01*
X143141744Y-158800460D01*
X143199202Y-158801514D01*
X143199204Y-158801514D01*
X143206255Y-158801643D01*
X143213058Y-158799788D01*
X143213060Y-158799788D01*
X143254828Y-158788400D01*
X143330755Y-158767700D01*
X143440724Y-158700179D01*
X143455466Y-158683892D01*
X143522590Y-158609735D01*
X143522590Y-158609734D01*
X143527322Y-158604507D01*
X143561906Y-158533126D01*
X143604294Y-158489002D01*
X143664522Y-158478220D01*
X143719585Y-158504898D01*
X143748451Y-158558846D01*
X143750000Y-158576292D01*
X143750000Y-160672630D01*
X143731093Y-160730821D01*
X143681593Y-160766785D01*
X143620407Y-160766785D01*
X143597154Y-160755706D01*
X143496824Y-160690677D01*
X143490906Y-160686841D01*
X143484150Y-160684821D01*
X143484149Y-160684820D01*
X143441335Y-160672016D01*
X143367273Y-160649866D01*
X143290644Y-160649398D01*
X143245282Y-160649121D01*
X143238231Y-160649078D01*
X143231454Y-160651015D01*
X143231453Y-160651015D01*
X143120931Y-160682602D01*
X143120928Y-160682603D01*
X143114155Y-160684539D01*
X143113437Y-160684992D01*
X143055425Y-160691191D01*
X143010943Y-160664909D01*
X143009112Y-160667008D01*
X143003797Y-160662371D01*
X142999193Y-160657028D01*
X142993276Y-160653193D01*
X142993274Y-160653191D01*
X142914467Y-160602112D01*
X142875920Y-160554596D01*
X142872664Y-160493497D01*
X142894915Y-160452600D01*
X142963364Y-160376979D01*
X142963364Y-160376978D01*
X142968096Y-160371751D01*
X143024362Y-160255619D01*
X143045771Y-160128364D01*
X143045907Y-160117244D01*
X143027613Y-159989503D01*
X142974202Y-159872032D01*
X142921169Y-159810484D01*
X142894572Y-159779616D01*
X142894571Y-159779615D01*
X142889967Y-159774272D01*
X142884050Y-159770437D01*
X142884048Y-159770435D01*
X142813587Y-159724766D01*
X142781680Y-159704085D01*
X142774924Y-159702065D01*
X142774923Y-159702064D01*
X142732109Y-159689260D01*
X142658047Y-159667110D01*
X142581418Y-159666642D01*
X142536056Y-159666365D01*
X142529005Y-159666322D01*
X142522228Y-159668259D01*
X142522227Y-159668259D01*
X142411709Y-159699845D01*
X142411707Y-159699846D01*
X142404929Y-159701783D01*
X142295793Y-159770643D01*
X142210370Y-159867366D01*
X142155528Y-159984176D01*
X142135675Y-160111684D01*
X142136590Y-160118681D01*
X142136590Y-160118682D01*
X142137571Y-160126187D01*
X142152407Y-160239638D01*
X142155245Y-160246089D01*
X142155246Y-160246091D01*
X142201538Y-160351298D01*
X142204379Y-160357754D01*
X142245896Y-160407144D01*
X142282874Y-160451136D01*
X142282877Y-160451138D01*
X142287413Y-160456535D01*
X142376502Y-160515837D01*
X142414465Y-160563820D01*
X142416974Y-160624953D01*
X142395848Y-160663783D01*
X142319596Y-160750122D01*
X142264754Y-160866932D01*
X142244901Y-160994440D01*
X142245816Y-161001437D01*
X142245816Y-161001438D01*
X142247082Y-161011120D01*
X142261633Y-161122394D01*
X142264471Y-161128845D01*
X142264472Y-161128847D01*
X142306946Y-161225376D01*
X142313605Y-161240510D01*
X142355122Y-161289900D01*
X142392100Y-161333892D01*
X142392103Y-161333894D01*
X142396639Y-161339291D01*
X142504060Y-161410796D01*
X142510788Y-161412898D01*
X142510790Y-161412899D01*
X142565647Y-161430037D01*
X142627233Y-161449278D01*
X142689941Y-161450427D01*
X142749201Y-161451514D01*
X142749203Y-161451514D01*
X142756255Y-161451643D01*
X142757929Y-161451186D01*
X142815615Y-161462295D01*
X142857421Y-161506971D01*
X142864861Y-161566705D01*
X142864754Y-161566932D01*
X142864055Y-161571423D01*
X142864054Y-161571426D01*
X142862837Y-161579243D01*
X142844901Y-161694440D01*
X142845816Y-161701437D01*
X142845816Y-161701438D01*
X142847082Y-161711120D01*
X142861633Y-161822394D01*
X142864472Y-161828846D01*
X142864473Y-161828850D01*
X142878676Y-161861129D01*
X142884806Y-161922006D01*
X142853982Y-161974860D01*
X142797978Y-161999502D01*
X142788060Y-162000000D01*
X141513254Y-162000000D01*
X141455063Y-161981093D01*
X141419099Y-161931593D01*
X141419099Y-161870407D01*
X141424160Y-161857834D01*
X141430512Y-161844724D01*
X141430512Y-161844723D01*
X141433588Y-161838375D01*
X141454997Y-161711120D01*
X141455133Y-161700000D01*
X141436839Y-161572259D01*
X141383428Y-161454788D01*
X141299193Y-161357028D01*
X141293276Y-161353193D01*
X141293274Y-161353191D01*
X141196824Y-161290677D01*
X141190906Y-161286841D01*
X141184150Y-161284821D01*
X141184149Y-161284820D01*
X141109089Y-161262372D01*
X141067273Y-161249866D01*
X140990644Y-161249398D01*
X140945282Y-161249121D01*
X140938231Y-161249078D01*
X140931454Y-161251015D01*
X140931453Y-161251015D01*
X140820935Y-161282601D01*
X140820933Y-161282602D01*
X140814155Y-161284539D01*
X140762399Y-161317195D01*
X140703099Y-161332255D01*
X140646269Y-161309583D01*
X140634574Y-161298090D01*
X140603798Y-161262372D01*
X140603797Y-161262371D01*
X140599193Y-161257028D01*
X140593276Y-161253193D01*
X140593274Y-161253191D01*
X140496824Y-161190677D01*
X140490906Y-161186841D01*
X140484150Y-161184821D01*
X140484149Y-161184820D01*
X140441335Y-161172016D01*
X140367273Y-161149866D01*
X140290644Y-161149398D01*
X140245282Y-161149121D01*
X140238231Y-161149078D01*
X140231454Y-161151015D01*
X140231453Y-161151015D01*
X140120935Y-161182601D01*
X140120933Y-161182602D01*
X140114155Y-161184539D01*
X140005019Y-161253399D01*
X140003731Y-161251357D01*
X139957311Y-161270497D01*
X139895857Y-161254866D01*
X139895304Y-161254507D01*
X139790906Y-161186841D01*
X139784150Y-161184821D01*
X139784149Y-161184820D01*
X139741335Y-161172016D01*
X139667273Y-161149866D01*
X139590644Y-161149398D01*
X139545282Y-161149121D01*
X139538231Y-161149078D01*
X139531454Y-161151015D01*
X139531453Y-161151015D01*
X139420935Y-161182601D01*
X139420933Y-161182602D01*
X139414155Y-161184539D01*
X139305019Y-161253399D01*
X139219596Y-161350122D01*
X139217536Y-161354511D01*
X139170573Y-161392135D01*
X139109456Y-161395017D01*
X139095873Y-161390060D01*
X139090906Y-161386841D01*
X139084153Y-161384821D01*
X139084150Y-161384820D01*
X139009089Y-161362372D01*
X138967273Y-161349866D01*
X138890644Y-161349398D01*
X138845282Y-161349121D01*
X138838231Y-161349078D01*
X138831454Y-161351015D01*
X138831453Y-161351015D01*
X138720935Y-161382601D01*
X138720933Y-161382602D01*
X138714155Y-161384539D01*
X138708191Y-161388302D01*
X138678734Y-161406888D01*
X138605019Y-161453399D01*
X138519596Y-161550122D01*
X138464754Y-161666932D01*
X138444901Y-161794440D01*
X138445816Y-161801437D01*
X138445816Y-161801438D01*
X138457157Y-161888163D01*
X138445955Y-161948314D01*
X138401536Y-161990393D01*
X138358993Y-162000000D01*
X137213254Y-162000000D01*
X137155063Y-161981093D01*
X137119099Y-161931593D01*
X137119099Y-161870407D01*
X137124160Y-161857834D01*
X137130512Y-161844724D01*
X137130512Y-161844723D01*
X137133588Y-161838375D01*
X137154997Y-161711120D01*
X137155133Y-161700000D01*
X137136839Y-161572259D01*
X137133919Y-161565837D01*
X137131940Y-161559069D01*
X137135132Y-161558136D01*
X137129857Y-161511092D01*
X137160081Y-161457893D01*
X137215803Y-161432620D01*
X137256357Y-161436508D01*
X137290496Y-161447174D01*
X137290501Y-161447175D01*
X137297233Y-161449278D01*
X137361744Y-161450461D01*
X137419202Y-161451514D01*
X137419204Y-161451514D01*
X137426255Y-161451643D01*
X137433058Y-161449788D01*
X137433060Y-161449788D01*
X137481769Y-161436508D01*
X137550755Y-161417700D01*
X137649569Y-161357028D01*
X137654711Y-161353871D01*
X137660724Y-161350179D01*
X137665459Y-161344948D01*
X137742590Y-161259735D01*
X137742590Y-161259734D01*
X137747322Y-161254507D01*
X137798021Y-161149866D01*
X137800512Y-161144724D01*
X137800512Y-161144723D01*
X137803588Y-161138375D01*
X137824997Y-161011120D01*
X137825133Y-161000000D01*
X137806839Y-160872259D01*
X137787999Y-160830823D01*
X137756349Y-160761212D01*
X137756348Y-160761211D01*
X137753428Y-160754788D01*
X137696140Y-160688302D01*
X137673799Y-160662373D01*
X137673797Y-160662371D01*
X137669193Y-160657028D01*
X137666158Y-160655061D01*
X137635549Y-160603911D01*
X137640990Y-160542969D01*
X137680250Y-160497448D01*
X137726472Y-160469067D01*
X137731207Y-160463836D01*
X137808338Y-160378623D01*
X137808338Y-160378622D01*
X137813070Y-160373395D01*
X137869336Y-160257263D01*
X137890745Y-160130008D01*
X137890881Y-160118888D01*
X137872587Y-159991147D01*
X137819176Y-159873676D01*
X137734941Y-159775916D01*
X137729024Y-159772081D01*
X137729022Y-159772079D01*
X137632572Y-159709565D01*
X137626654Y-159705729D01*
X137619898Y-159703709D01*
X137619897Y-159703708D01*
X137577083Y-159690904D01*
X137503021Y-159668754D01*
X137426392Y-159668286D01*
X137381030Y-159668009D01*
X137373979Y-159667966D01*
X137367202Y-159669903D01*
X137367201Y-159669903D01*
X137256683Y-159701489D01*
X137256681Y-159701490D01*
X137249903Y-159703427D01*
X137140767Y-159772287D01*
X137055344Y-159869010D01*
X137000502Y-159985820D01*
X136980649Y-160113328D01*
X136981564Y-160120325D01*
X136981564Y-160120326D01*
X136982615Y-160128364D01*
X136997381Y-160241282D01*
X137000219Y-160247733D01*
X137000220Y-160247735D01*
X137006483Y-160261968D01*
X137049353Y-160359398D01*
X137132387Y-160458179D01*
X137138255Y-160462085D01*
X137139690Y-160463368D01*
X137170468Y-160516248D01*
X137164285Y-160577120D01*
X137126533Y-160620896D01*
X137075019Y-160653399D01*
X137070350Y-160658685D01*
X137066190Y-160662226D01*
X137009622Y-160685542D01*
X136973659Y-160681683D01*
X136867273Y-160649866D01*
X136790644Y-160649398D01*
X136745282Y-160649121D01*
X136738231Y-160649078D01*
X136731454Y-160651015D01*
X136731453Y-160651015D01*
X136620935Y-160682601D01*
X136620933Y-160682602D01*
X136614155Y-160684539D01*
X136505019Y-160753399D01*
X136423204Y-160846037D01*
X136370512Y-160877137D01*
X136309603Y-160871325D01*
X136263743Y-160830823D01*
X136250000Y-160780502D01*
X136250000Y-158394440D01*
X136594901Y-158394440D01*
X136595816Y-158401437D01*
X136595816Y-158401438D01*
X136597082Y-158411120D01*
X136611633Y-158522394D01*
X136614471Y-158528845D01*
X136614472Y-158528847D01*
X136660764Y-158634054D01*
X136663605Y-158640510D01*
X136682425Y-158662899D01*
X136742100Y-158733892D01*
X136742103Y-158733894D01*
X136746639Y-158739291D01*
X136854060Y-158810796D01*
X136860788Y-158812898D01*
X136860790Y-158812899D01*
X136915647Y-158830037D01*
X136977233Y-158849278D01*
X137041744Y-158850460D01*
X137099202Y-158851514D01*
X137099204Y-158851514D01*
X137106255Y-158851643D01*
X137113058Y-158849788D01*
X137113060Y-158849788D01*
X137154828Y-158838400D01*
X137230755Y-158817700D01*
X137340724Y-158750179D01*
X137384657Y-158701643D01*
X137422590Y-158659735D01*
X137422590Y-158659734D01*
X137427322Y-158654507D01*
X137483588Y-158538375D01*
X137504997Y-158411120D01*
X137505133Y-158400000D01*
X137486839Y-158272259D01*
X137433428Y-158154788D01*
X137349193Y-158057028D01*
X137343276Y-158053193D01*
X137343274Y-158053191D01*
X137261396Y-158000122D01*
X137240906Y-157986841D01*
X137234150Y-157984821D01*
X137234149Y-157984820D01*
X137191335Y-157972016D01*
X137117273Y-157949866D01*
X137040644Y-157949398D01*
X136995282Y-157949121D01*
X136988231Y-157949078D01*
X136981454Y-157951015D01*
X136981453Y-157951015D01*
X136870935Y-157982601D01*
X136870933Y-157982602D01*
X136864155Y-157984539D01*
X136858191Y-157988302D01*
X136834264Y-158003399D01*
X136755019Y-158053399D01*
X136669596Y-158150122D01*
X136614754Y-158266932D01*
X136594901Y-158394440D01*
X136250000Y-158394440D01*
X136250000Y-157894440D01*
X137694901Y-157894440D01*
X137695816Y-157901437D01*
X137695816Y-157901438D01*
X137696764Y-157908684D01*
X137711633Y-158022394D01*
X137714471Y-158028845D01*
X137714472Y-158028847D01*
X137753230Y-158116932D01*
X137763605Y-158140510D01*
X137798797Y-158182376D01*
X137842100Y-158233892D01*
X137842103Y-158233894D01*
X137846639Y-158239291D01*
X137954060Y-158310796D01*
X137960788Y-158312898D01*
X137960790Y-158312899D01*
X138015646Y-158330037D01*
X138077233Y-158349278D01*
X138141744Y-158350460D01*
X138199202Y-158351514D01*
X138199204Y-158351514D01*
X138206255Y-158351643D01*
X138213058Y-158349788D01*
X138213060Y-158349788D01*
X138254828Y-158338400D01*
X138330755Y-158317700D01*
X138440724Y-158250179D01*
X138502096Y-158182376D01*
X138522590Y-158159735D01*
X138522590Y-158159734D01*
X138527322Y-158154507D01*
X138583588Y-158038375D01*
X138598285Y-157951015D01*
X138604363Y-157914891D01*
X138604363Y-157914886D01*
X138604997Y-157911120D01*
X138605133Y-157900000D01*
X138586839Y-157772259D01*
X138533428Y-157654788D01*
X138449193Y-157557028D01*
X138443276Y-157553193D01*
X138443274Y-157553191D01*
X138346824Y-157490677D01*
X138340906Y-157486841D01*
X138334150Y-157484821D01*
X138334149Y-157484820D01*
X138291335Y-157472016D01*
X138217273Y-157449866D01*
X138140644Y-157449398D01*
X138095282Y-157449121D01*
X138088231Y-157449078D01*
X138081454Y-157451015D01*
X138081453Y-157451015D01*
X137970935Y-157482601D01*
X137970933Y-157482602D01*
X137964155Y-157484539D01*
X137855019Y-157553399D01*
X137769596Y-157650122D01*
X137714754Y-157766932D01*
X137694901Y-157894440D01*
X136250000Y-157894440D01*
X136250000Y-156944440D01*
X136894901Y-156944440D01*
X136895816Y-156951437D01*
X136895816Y-156951438D01*
X136897082Y-156961120D01*
X136911633Y-157072394D01*
X136914471Y-157078845D01*
X136914472Y-157078847D01*
X136960764Y-157184054D01*
X136963605Y-157190510D01*
X137000071Y-157233892D01*
X137042100Y-157283892D01*
X137042103Y-157283894D01*
X137046639Y-157289291D01*
X137154060Y-157360796D01*
X137160788Y-157362898D01*
X137160790Y-157362899D01*
X137215647Y-157380037D01*
X137277233Y-157399278D01*
X137341744Y-157400461D01*
X137399202Y-157401514D01*
X137399204Y-157401514D01*
X137406255Y-157401643D01*
X137413058Y-157399788D01*
X137413060Y-157399788D01*
X137454921Y-157388375D01*
X137530755Y-157367700D01*
X137640724Y-157300179D01*
X137672665Y-157264891D01*
X137722590Y-157209735D01*
X137722590Y-157209734D01*
X137727322Y-157204507D01*
X137783588Y-157088375D01*
X137797362Y-157006504D01*
X137804363Y-156964891D01*
X137804363Y-156964886D01*
X137804997Y-156961120D01*
X137805133Y-156950000D01*
X137786839Y-156822259D01*
X137753731Y-156749442D01*
X137736349Y-156711212D01*
X137736348Y-156711211D01*
X137733428Y-156704788D01*
X137658389Y-156617700D01*
X137653798Y-156612372D01*
X137653797Y-156612371D01*
X137649193Y-156607028D01*
X137643276Y-156603193D01*
X137643274Y-156603191D01*
X137546824Y-156540677D01*
X137540906Y-156536841D01*
X137534150Y-156534821D01*
X137534149Y-156534820D01*
X137449245Y-156509428D01*
X137417273Y-156499866D01*
X137340644Y-156499398D01*
X137295282Y-156499121D01*
X137288231Y-156499078D01*
X137281454Y-156501015D01*
X137281453Y-156501015D01*
X137170935Y-156532601D01*
X137170933Y-156532602D01*
X137164155Y-156534539D01*
X137055019Y-156603399D01*
X136969596Y-156700122D01*
X136914754Y-156816932D01*
X136894901Y-156944440D01*
X136250000Y-156944440D01*
X136250000Y-156244440D01*
X138044901Y-156244440D01*
X138045816Y-156251437D01*
X138045816Y-156251438D01*
X138047082Y-156261120D01*
X138061633Y-156372394D01*
X138064471Y-156378845D01*
X138064472Y-156378847D01*
X138095680Y-156449772D01*
X138113605Y-156490510D01*
X138148986Y-156532601D01*
X138192100Y-156583892D01*
X138192103Y-156583894D01*
X138196639Y-156589291D01*
X138304060Y-156660796D01*
X138310788Y-156662898D01*
X138310790Y-156662899D01*
X138357430Y-156677470D01*
X138427233Y-156699278D01*
X138491744Y-156700460D01*
X138549202Y-156701514D01*
X138549204Y-156701514D01*
X138556255Y-156701643D01*
X138563058Y-156699788D01*
X138563060Y-156699788D01*
X138637254Y-156679560D01*
X138698369Y-156682496D01*
X138746086Y-156720793D01*
X138762180Y-156779824D01*
X138761115Y-156790302D01*
X138744901Y-156894440D01*
X138745816Y-156901437D01*
X138745816Y-156901438D01*
X138746764Y-156908684D01*
X138761633Y-157022394D01*
X138764471Y-157028845D01*
X138764472Y-157028847D01*
X138806297Y-157123902D01*
X138813605Y-157140510D01*
X138850208Y-157184054D01*
X138892100Y-157233892D01*
X138892103Y-157233894D01*
X138896639Y-157239291D01*
X139004060Y-157310796D01*
X139010788Y-157312898D01*
X139010790Y-157312899D01*
X139065646Y-157330037D01*
X139127233Y-157349278D01*
X139191744Y-157350461D01*
X139249202Y-157351514D01*
X139249204Y-157351514D01*
X139256255Y-157351643D01*
X139263058Y-157349788D01*
X139263060Y-157349788D01*
X139321364Y-157333892D01*
X139380755Y-157317700D01*
X139490724Y-157250179D01*
X139532064Y-157204507D01*
X139572590Y-157159735D01*
X139572590Y-157159734D01*
X139577322Y-157154507D01*
X139633588Y-157038375D01*
X139647228Y-156957299D01*
X139654363Y-156914891D01*
X139654363Y-156914886D01*
X139654997Y-156911120D01*
X139655133Y-156900000D01*
X139649792Y-156862706D01*
X139660259Y-156802422D01*
X139704160Y-156759804D01*
X139749606Y-156749688D01*
X139780338Y-156750251D01*
X139849205Y-156751514D01*
X139849207Y-156751514D01*
X139856255Y-156751643D01*
X139860412Y-156750510D01*
X139919258Y-156761844D01*
X139961063Y-156806520D01*
X139968623Y-156867237D01*
X139945614Y-156914048D01*
X139927882Y-156934126D01*
X139869596Y-157000122D01*
X139814754Y-157116932D01*
X139794901Y-157244440D01*
X139795816Y-157251437D01*
X139795816Y-157251438D01*
X139796901Y-157259735D01*
X139811633Y-157372394D01*
X139814471Y-157378845D01*
X139814472Y-157378847D01*
X139845519Y-157449407D01*
X139863605Y-157490510D01*
X139905122Y-157539900D01*
X139942100Y-157583892D01*
X139942103Y-157583894D01*
X139946639Y-157589291D01*
X140054060Y-157660796D01*
X140060788Y-157662898D01*
X140060790Y-157662899D01*
X140115646Y-157680037D01*
X140177233Y-157699278D01*
X140241744Y-157700460D01*
X140299202Y-157701514D01*
X140299204Y-157701514D01*
X140306255Y-157701643D01*
X140313058Y-157699788D01*
X140313060Y-157699788D01*
X140354828Y-157688400D01*
X140430755Y-157667700D01*
X140540724Y-157600179D01*
X140574945Y-157562372D01*
X140622590Y-157509735D01*
X140622590Y-157509734D01*
X140627322Y-157504507D01*
X140672725Y-157410796D01*
X140680512Y-157394724D01*
X140680512Y-157394723D01*
X140683588Y-157388375D01*
X140704997Y-157261120D01*
X140705133Y-157250000D01*
X140686839Y-157122259D01*
X140641433Y-157022394D01*
X140636349Y-157011212D01*
X140636348Y-157011211D01*
X140633428Y-157004788D01*
X140549193Y-156907028D01*
X140543276Y-156903193D01*
X140543274Y-156903191D01*
X140446824Y-156840677D01*
X140440906Y-156836841D01*
X140434150Y-156834821D01*
X140434149Y-156834820D01*
X140370675Y-156815837D01*
X140317273Y-156799866D01*
X140240644Y-156799398D01*
X140195282Y-156799121D01*
X140188231Y-156799078D01*
X140188046Y-156799131D01*
X140130925Y-156788852D01*
X140088577Y-156744690D01*
X140080274Y-156684071D01*
X140104311Y-156635168D01*
X140120123Y-156617700D01*
X140177322Y-156554507D01*
X140225772Y-156454507D01*
X140230512Y-156444724D01*
X140230512Y-156444723D01*
X140233588Y-156438375D01*
X140250412Y-156338375D01*
X140254363Y-156314891D01*
X140254363Y-156314886D01*
X140254997Y-156311120D01*
X140255133Y-156300000D01*
X140240016Y-156194440D01*
X140444901Y-156194440D01*
X140445816Y-156201437D01*
X140445816Y-156201438D01*
X140447082Y-156211120D01*
X140461633Y-156322394D01*
X140464471Y-156328845D01*
X140464472Y-156328847D01*
X140509230Y-156430567D01*
X140513605Y-156440510D01*
X140550208Y-156484054D01*
X140592100Y-156533892D01*
X140592103Y-156533894D01*
X140596639Y-156539291D01*
X140704060Y-156610796D01*
X140710788Y-156612898D01*
X140710790Y-156612899D01*
X140765647Y-156630037D01*
X140827233Y-156649278D01*
X140891744Y-156650460D01*
X140949202Y-156651514D01*
X140949204Y-156651514D01*
X140956255Y-156651643D01*
X140963058Y-156649788D01*
X140963060Y-156649788D01*
X141016684Y-156635168D01*
X141080755Y-156617700D01*
X141086764Y-156614010D01*
X141093238Y-156611209D01*
X141094271Y-156613596D01*
X141142501Y-156601970D01*
X141199050Y-156625331D01*
X141231069Y-156677470D01*
X141226326Y-156738472D01*
X141221013Y-156748517D01*
X141219596Y-156750122D01*
X141216600Y-156756504D01*
X141216599Y-156756505D01*
X141196241Y-156799866D01*
X141164754Y-156866932D01*
X141144901Y-156994440D01*
X141145816Y-157001437D01*
X141145816Y-157001438D01*
X141147082Y-157011120D01*
X141161633Y-157122394D01*
X141164471Y-157128845D01*
X141164472Y-157128847D01*
X141210693Y-157233892D01*
X141213605Y-157240510D01*
X141250071Y-157283892D01*
X141292100Y-157333892D01*
X141292103Y-157333894D01*
X141296639Y-157339291D01*
X141404060Y-157410796D01*
X141410788Y-157412898D01*
X141410790Y-157412899D01*
X141465647Y-157430037D01*
X141527233Y-157449278D01*
X141591744Y-157450460D01*
X141649202Y-157451514D01*
X141649204Y-157451514D01*
X141656255Y-157451643D01*
X141663058Y-157449788D01*
X141663060Y-157449788D01*
X141704828Y-157438400D01*
X141780755Y-157417700D01*
X141890724Y-157350179D01*
X141905466Y-157333892D01*
X141972590Y-157259735D01*
X141972590Y-157259734D01*
X141977322Y-157254507D01*
X141982199Y-157244440D01*
X142494901Y-157244440D01*
X142495816Y-157251437D01*
X142495816Y-157251438D01*
X142496901Y-157259735D01*
X142511633Y-157372394D01*
X142514471Y-157378845D01*
X142514472Y-157378847D01*
X142545519Y-157449407D01*
X142563605Y-157490510D01*
X142605122Y-157539900D01*
X142642100Y-157583892D01*
X142642103Y-157583894D01*
X142646639Y-157589291D01*
X142754060Y-157660796D01*
X142760788Y-157662898D01*
X142760790Y-157662899D01*
X142815646Y-157680037D01*
X142877233Y-157699278D01*
X142941744Y-157700460D01*
X142999202Y-157701514D01*
X142999204Y-157701514D01*
X143006255Y-157701643D01*
X143013058Y-157699788D01*
X143013060Y-157699788D01*
X143054828Y-157688400D01*
X143130755Y-157667700D01*
X143240724Y-157600179D01*
X143274945Y-157562372D01*
X143322590Y-157509735D01*
X143322590Y-157509734D01*
X143327322Y-157504507D01*
X143372725Y-157410796D01*
X143380512Y-157394724D01*
X143380512Y-157394723D01*
X143383588Y-157388375D01*
X143404997Y-157261120D01*
X143405133Y-157250000D01*
X143386839Y-157122259D01*
X143341433Y-157022394D01*
X143336349Y-157011212D01*
X143336348Y-157011211D01*
X143333428Y-157004788D01*
X143249193Y-156907028D01*
X143243276Y-156903193D01*
X143243274Y-156903191D01*
X143146824Y-156840677D01*
X143140906Y-156836841D01*
X143134150Y-156834821D01*
X143134149Y-156834820D01*
X143070675Y-156815837D01*
X143017273Y-156799866D01*
X142940644Y-156799398D01*
X142895282Y-156799121D01*
X142888231Y-156799078D01*
X142881454Y-156801015D01*
X142881453Y-156801015D01*
X142770935Y-156832601D01*
X142770933Y-156832602D01*
X142764155Y-156834539D01*
X142655019Y-156903399D01*
X142569596Y-157000122D01*
X142514754Y-157116932D01*
X142494901Y-157244440D01*
X141982199Y-157244440D01*
X142033588Y-157138375D01*
X142052015Y-157028847D01*
X142054363Y-157014891D01*
X142054363Y-157014886D01*
X142054997Y-157011120D01*
X142055054Y-157006504D01*
X142055086Y-157003825D01*
X142055133Y-157000000D01*
X142036839Y-156872259D01*
X141983428Y-156754788D01*
X141899193Y-156657028D01*
X141893276Y-156653193D01*
X141893274Y-156653191D01*
X141816131Y-156603191D01*
X141790906Y-156586841D01*
X141784150Y-156584821D01*
X141784149Y-156584820D01*
X141741335Y-156572016D01*
X141667273Y-156549866D01*
X141590644Y-156549398D01*
X141545282Y-156549121D01*
X141538231Y-156549078D01*
X141531454Y-156551015D01*
X141531453Y-156551015D01*
X141481541Y-156565280D01*
X141414155Y-156584539D01*
X141408194Y-156588300D01*
X141406008Y-156589278D01*
X141345169Y-156595780D01*
X141292128Y-156565280D01*
X141267144Y-156509428D01*
X141278588Y-156455120D01*
X141277322Y-156454507D01*
X141330512Y-156344724D01*
X141330512Y-156344723D01*
X141333588Y-156338375D01*
X141347228Y-156257299D01*
X141354363Y-156214891D01*
X141354363Y-156214886D01*
X141354997Y-156211120D01*
X141355133Y-156200000D01*
X141336839Y-156072259D01*
X141283428Y-155954788D01*
X141199193Y-155857028D01*
X141193276Y-155853193D01*
X141193274Y-155853191D01*
X141096824Y-155790677D01*
X141090906Y-155786841D01*
X141084150Y-155784821D01*
X141084149Y-155784820D01*
X141041335Y-155772016D01*
X140967273Y-155749866D01*
X140890644Y-155749398D01*
X140845282Y-155749121D01*
X140838231Y-155749078D01*
X140831454Y-155751015D01*
X140831453Y-155751015D01*
X140720935Y-155782601D01*
X140720933Y-155782602D01*
X140714155Y-155784539D01*
X140605019Y-155853399D01*
X140519596Y-155950122D01*
X140464754Y-156066932D01*
X140444901Y-156194440D01*
X140240016Y-156194440D01*
X140236839Y-156172259D01*
X140183428Y-156054788D01*
X140099193Y-155957028D01*
X140093276Y-155953193D01*
X140093274Y-155953191D01*
X140016131Y-155903191D01*
X139990906Y-155886841D01*
X139984150Y-155884821D01*
X139984149Y-155884820D01*
X139909089Y-155862372D01*
X139867273Y-155849866D01*
X139790644Y-155849398D01*
X139745282Y-155849121D01*
X139738231Y-155849078D01*
X139731454Y-155851015D01*
X139731453Y-155851015D01*
X139620935Y-155882601D01*
X139620933Y-155882602D01*
X139614155Y-155884539D01*
X139608191Y-155888302D01*
X139584264Y-155903399D01*
X139505019Y-155953399D01*
X139419596Y-156050122D01*
X139364754Y-156166932D01*
X139344901Y-156294440D01*
X139345816Y-156301437D01*
X139345816Y-156301438D01*
X139347082Y-156311120D01*
X139349737Y-156331418D01*
X139350589Y-156337937D01*
X139339387Y-156398088D01*
X139294968Y-156440167D01*
X139251822Y-156449772D01*
X139159740Y-156449209D01*
X139145282Y-156449121D01*
X139138231Y-156449078D01*
X139131450Y-156451016D01*
X139063386Y-156470468D01*
X139002240Y-156468279D01*
X138954059Y-156430567D01*
X138937245Y-156371737D01*
X138938553Y-156358862D01*
X138954997Y-156261120D01*
X138955133Y-156250000D01*
X138936839Y-156122259D01*
X138883428Y-156004788D01*
X138799193Y-155907028D01*
X138793276Y-155903193D01*
X138793274Y-155903191D01*
X138710935Y-155849823D01*
X138690906Y-155836841D01*
X138684150Y-155834821D01*
X138684149Y-155834820D01*
X138641335Y-155822016D01*
X138567273Y-155799866D01*
X138490644Y-155799398D01*
X138445282Y-155799121D01*
X138438231Y-155799078D01*
X138431454Y-155801015D01*
X138431453Y-155801015D01*
X138320935Y-155832601D01*
X138320933Y-155832602D01*
X138314155Y-155834539D01*
X138308191Y-155838302D01*
X138284264Y-155853399D01*
X138205019Y-155903399D01*
X138119596Y-156000122D01*
X138064754Y-156116932D01*
X138044901Y-156244440D01*
X136250000Y-156244440D01*
X136250000Y-155294561D01*
X136268907Y-155236370D01*
X136278996Y-155224557D01*
X137502472Y-154001081D01*
X137517474Y-153988770D01*
X137522130Y-153985659D01*
X137530240Y-153980240D01*
X137554450Y-153944007D01*
X137585495Y-153897546D01*
X137604898Y-153800000D01*
X137601902Y-153784938D01*
X137600000Y-153765624D01*
X137600000Y-143384376D01*
X137601902Y-143365062D01*
X137602996Y-143359562D01*
X137604898Y-143350000D01*
X137585495Y-143252454D01*
X137544188Y-143190635D01*
X137530240Y-143169760D01*
X137517474Y-143161230D01*
X137502472Y-143148919D01*
X128278996Y-133925443D01*
X128251219Y-133870926D01*
X128250000Y-133855439D01*
X128250000Y-132704525D01*
X137344856Y-132704525D01*
X137347937Y-132735947D01*
X137360637Y-132865477D01*
X137360638Y-132865482D01*
X137361177Y-132870979D01*
X137413970Y-133029680D01*
X137416835Y-133034411D01*
X137416837Y-133034415D01*
X137497744Y-133168008D01*
X137497747Y-133168012D01*
X137500611Y-133172741D01*
X137504453Y-133176720D01*
X137504455Y-133176722D01*
X137530059Y-133203235D01*
X137616794Y-133293052D01*
X137756744Y-133384633D01*
X137838577Y-133415066D01*
X137908313Y-133441001D01*
X137908315Y-133441002D01*
X137913506Y-133442932D01*
X137918998Y-133443665D01*
X137918999Y-133443665D01*
X137965684Y-133449894D01*
X138079289Y-133465052D01*
X138084795Y-133464551D01*
X138084797Y-133464551D01*
X138162571Y-133457473D01*
X138245852Y-133449894D01*
X138273222Y-133441001D01*
X138399653Y-133399921D01*
X138399655Y-133399920D01*
X138404918Y-133398210D01*
X138409674Y-133395375D01*
X138409676Y-133395374D01*
X138543830Y-133315402D01*
X138548581Y-133312570D01*
X138663394Y-133203235D01*
X138718573Y-133176798D01*
X138778753Y-133187843D01*
X138802879Y-133206155D01*
X138842217Y-133246891D01*
X138882950Y-133289072D01*
X138882953Y-133289074D01*
X138886794Y-133293052D01*
X139026744Y-133384633D01*
X139108577Y-133415066D01*
X139178313Y-133441001D01*
X139178315Y-133441002D01*
X139183506Y-133442932D01*
X139188998Y-133443665D01*
X139188999Y-133443665D01*
X139235684Y-133449894D01*
X139349289Y-133465052D01*
X139354795Y-133464551D01*
X139354797Y-133464551D01*
X139432571Y-133457473D01*
X139515852Y-133449894D01*
X139543222Y-133441001D01*
X139669653Y-133399921D01*
X139669655Y-133399920D01*
X139674918Y-133398210D01*
X139679674Y-133395375D01*
X139679676Y-133395374D01*
X139813830Y-133315402D01*
X139818581Y-133312570D01*
X139933394Y-133203235D01*
X139988573Y-133176798D01*
X140048753Y-133187843D01*
X140072879Y-133206155D01*
X140112217Y-133246891D01*
X140152950Y-133289072D01*
X140152953Y-133289074D01*
X140156794Y-133293052D01*
X140296744Y-133384633D01*
X140378577Y-133415066D01*
X140448313Y-133441001D01*
X140448315Y-133441002D01*
X140453506Y-133442932D01*
X140458998Y-133443665D01*
X140458999Y-133443665D01*
X140505684Y-133449894D01*
X140619289Y-133465052D01*
X140624795Y-133464551D01*
X140624797Y-133464551D01*
X140702571Y-133457473D01*
X140785852Y-133449894D01*
X140813222Y-133441001D01*
X140939653Y-133399921D01*
X140939655Y-133399920D01*
X140944918Y-133398210D01*
X140949674Y-133395375D01*
X140949676Y-133395374D01*
X141083830Y-133315402D01*
X141088581Y-133312570D01*
X141203394Y-133203235D01*
X141258573Y-133176798D01*
X141318753Y-133187843D01*
X141342879Y-133206155D01*
X141382217Y-133246891D01*
X141422950Y-133289072D01*
X141422953Y-133289074D01*
X141426794Y-133293052D01*
X141566744Y-133384633D01*
X141648577Y-133415066D01*
X141718313Y-133441001D01*
X141718315Y-133441002D01*
X141723506Y-133442932D01*
X141728998Y-133443665D01*
X141728999Y-133443665D01*
X141775684Y-133449894D01*
X141889289Y-133465052D01*
X141894795Y-133464551D01*
X141894797Y-133464551D01*
X141972571Y-133457473D01*
X142055852Y-133449894D01*
X142083222Y-133441001D01*
X142209653Y-133399921D01*
X142209655Y-133399920D01*
X142214918Y-133398210D01*
X142219674Y-133395375D01*
X142219676Y-133395374D01*
X142353830Y-133315402D01*
X142358581Y-133312570D01*
X142479700Y-133197230D01*
X142493326Y-133176722D01*
X142569192Y-133062533D01*
X142572255Y-133057923D01*
X142631648Y-132901571D01*
X142654925Y-132735947D01*
X142655217Y-132715000D01*
X142654660Y-132710028D01*
X142637191Y-132554296D01*
X142636574Y-132548791D01*
X142581570Y-132390842D01*
X142492940Y-132249004D01*
X142393509Y-132148876D01*
X142365923Y-132094263D01*
X142375706Y-132033865D01*
X142395484Y-132007428D01*
X142479700Y-131927230D01*
X142572255Y-131787923D01*
X142631648Y-131631571D01*
X142654925Y-131465947D01*
X142655217Y-131445000D01*
X142654660Y-131440028D01*
X142637191Y-131284296D01*
X142636574Y-131278791D01*
X142581570Y-131120842D01*
X142492940Y-130979004D01*
X142393509Y-130878876D01*
X142365923Y-130824263D01*
X142375706Y-130763865D01*
X142395484Y-130737428D01*
X142479700Y-130657230D01*
X142516718Y-130601514D01*
X142569192Y-130522533D01*
X142572255Y-130517923D01*
X142578996Y-130500179D01*
X142629682Y-130366746D01*
X142631648Y-130361571D01*
X142654925Y-130195947D01*
X142655217Y-130175000D01*
X142654660Y-130170028D01*
X142638269Y-130023902D01*
X142636574Y-130008791D01*
X142581570Y-129850842D01*
X142537255Y-129779923D01*
X142495872Y-129713696D01*
X142495871Y-129713695D01*
X142492940Y-129709004D01*
X142393509Y-129608876D01*
X142365923Y-129554263D01*
X142375706Y-129493865D01*
X142395484Y-129467428D01*
X142479700Y-129387230D01*
X142572255Y-129247923D01*
X142631648Y-129091571D01*
X142654925Y-128925947D01*
X142655217Y-128905000D01*
X142654841Y-128901643D01*
X142643874Y-128803871D01*
X142636574Y-128738791D01*
X142581570Y-128580842D01*
X142492940Y-128439004D01*
X142393509Y-128338876D01*
X142365923Y-128284263D01*
X142375706Y-128223865D01*
X142395484Y-128197428D01*
X142479700Y-128117230D01*
X142489028Y-128103191D01*
X142569192Y-127982533D01*
X142572255Y-127977923D01*
X142631648Y-127821571D01*
X142654925Y-127655947D01*
X142655217Y-127635000D01*
X142654660Y-127630028D01*
X142641521Y-127512899D01*
X142636574Y-127468791D01*
X142581570Y-127310842D01*
X142536288Y-127238375D01*
X142495872Y-127173696D01*
X142495871Y-127173695D01*
X142492940Y-127169004D01*
X142393509Y-127068876D01*
X142365923Y-127014263D01*
X142375706Y-126953865D01*
X142395484Y-126927428D01*
X142479700Y-126847230D01*
X142513798Y-126795909D01*
X142569192Y-126712533D01*
X142572255Y-126707923D01*
X142579709Y-126688302D01*
X142626588Y-126564891D01*
X142631648Y-126551571D01*
X142654925Y-126385947D01*
X142655217Y-126365000D01*
X142654660Y-126360028D01*
X142638097Y-126212372D01*
X142636574Y-126198791D01*
X142581570Y-126040842D01*
X142492940Y-125899004D01*
X142393509Y-125798876D01*
X142365923Y-125744263D01*
X142375706Y-125683865D01*
X142395484Y-125657428D01*
X142479700Y-125577230D01*
X142572255Y-125437923D01*
X142631648Y-125281571D01*
X142654925Y-125115947D01*
X142655103Y-125103191D01*
X142655174Y-125098117D01*
X142655174Y-125098110D01*
X142655217Y-125095000D01*
X142654660Y-125090028D01*
X142644541Y-124999823D01*
X142636574Y-124928791D01*
X142581570Y-124770842D01*
X142492940Y-124629004D01*
X142393509Y-124528876D01*
X142365923Y-124474263D01*
X142375706Y-124413865D01*
X142395484Y-124387428D01*
X142479700Y-124307230D01*
X142498295Y-124279243D01*
X142569192Y-124172533D01*
X142572255Y-124167923D01*
X142574805Y-124161212D01*
X142629682Y-124016746D01*
X142631648Y-124011571D01*
X142654925Y-123845947D01*
X142655217Y-123825000D01*
X142654660Y-123820028D01*
X142637191Y-123664296D01*
X142636574Y-123658791D01*
X142581570Y-123500842D01*
X142492940Y-123359004D01*
X142393509Y-123258876D01*
X142365923Y-123204263D01*
X142375706Y-123143865D01*
X142395484Y-123117428D01*
X142479700Y-123037230D01*
X142572255Y-122897923D01*
X142631648Y-122741571D01*
X142654925Y-122575947D01*
X142655217Y-122555000D01*
X142654660Y-122550028D01*
X142644886Y-122462899D01*
X142636574Y-122388791D01*
X142581570Y-122230842D01*
X142492940Y-122089004D01*
X142393510Y-121988877D01*
X142365923Y-121934263D01*
X142375706Y-121873865D01*
X142395484Y-121847428D01*
X142479700Y-121767230D01*
X142572255Y-121627923D01*
X142582477Y-121601015D01*
X142629682Y-121476746D01*
X142631648Y-121471571D01*
X142654925Y-121305947D01*
X142655217Y-121285000D01*
X142654564Y-121279172D01*
X142637191Y-121124296D01*
X142636574Y-121118791D01*
X142581570Y-120960842D01*
X142492940Y-120819004D01*
X142375089Y-120700327D01*
X142295203Y-120649630D01*
X142238544Y-120613673D01*
X142238542Y-120613672D01*
X142233873Y-120610709D01*
X142124219Y-120571663D01*
X142081526Y-120556461D01*
X142081524Y-120556461D01*
X142076313Y-120554605D01*
X142056849Y-120552284D01*
X141915733Y-120535456D01*
X141915730Y-120535456D01*
X141910237Y-120534801D01*
X141743902Y-120552284D01*
X141664738Y-120579233D01*
X141590815Y-120604398D01*
X141590811Y-120604400D01*
X141585573Y-120606183D01*
X141580863Y-120609081D01*
X141580858Y-120609083D01*
X141454913Y-120686566D01*
X141452695Y-120687261D01*
X141430219Y-120701913D01*
X139435004Y-122697128D01*
X139380487Y-122724905D01*
X139320055Y-122715334D01*
X139294996Y-122697128D01*
X138728737Y-122130869D01*
X138700960Y-122076352D01*
X138710531Y-122015920D01*
X138743739Y-121978550D01*
X138762490Y-121966021D01*
X138762491Y-121966020D01*
X138770601Y-121960601D01*
X138788200Y-121934263D01*
X138788714Y-121933493D01*
X138836763Y-121895613D01*
X138897901Y-121893209D01*
X138939755Y-121922377D01*
X138942132Y-121920000D01*
X139353914Y-122331782D01*
X139365797Y-122337836D01*
X139370828Y-122337040D01*
X139776782Y-121931086D01*
X139782836Y-121919203D01*
X139782040Y-121914172D01*
X139376086Y-121508218D01*
X139364203Y-121502164D01*
X139359172Y-121502960D01*
X139009504Y-121852628D01*
X138954987Y-121880405D01*
X138894555Y-121870834D01*
X138851290Y-121827569D01*
X138840500Y-121782624D01*
X138840500Y-121638376D01*
X138859407Y-121580185D01*
X138869496Y-121568372D01*
X139152071Y-121285797D01*
X139582164Y-121285797D01*
X139582960Y-121290828D01*
X139988914Y-121696782D01*
X140000797Y-121702836D01*
X140005828Y-121702040D01*
X140411782Y-121296086D01*
X140417836Y-121284203D01*
X140417040Y-121279172D01*
X140011086Y-120873218D01*
X139999203Y-120867164D01*
X139994172Y-120867960D01*
X139588218Y-121273914D01*
X139582164Y-121285797D01*
X139152071Y-121285797D01*
X139929996Y-120507872D01*
X139974171Y-120485365D01*
X140017788Y-120485365D01*
X140044945Y-120489666D01*
X140070004Y-120507872D01*
X140623914Y-121061782D01*
X140635797Y-121067836D01*
X140640828Y-121067040D01*
X141214559Y-120493309D01*
X141220613Y-120481426D01*
X141220180Y-120478692D01*
X141217829Y-120475757D01*
X141197821Y-120459205D01*
X141189827Y-120453813D01*
X141026698Y-120365608D01*
X141017827Y-120361879D01*
X140840663Y-120307038D01*
X140831229Y-120305101D01*
X140646796Y-120285716D01*
X140637158Y-120285649D01*
X140452474Y-120302456D01*
X140443008Y-120304262D01*
X140265110Y-120356621D01*
X140256169Y-120360234D01*
X140091836Y-120446145D01*
X140083759Y-120451430D01*
X140062840Y-120468250D01*
X140017788Y-120485365D01*
X139974171Y-120485365D01*
X139979209Y-120482798D01*
X139946598Y-120473938D01*
X139937697Y-120467376D01*
X139927816Y-120459201D01*
X139919827Y-120453813D01*
X139756698Y-120365608D01*
X139747827Y-120361879D01*
X139570663Y-120307038D01*
X139561229Y-120305101D01*
X139376796Y-120285716D01*
X139367158Y-120285649D01*
X139182474Y-120302456D01*
X139173008Y-120304262D01*
X138995110Y-120356621D01*
X138986169Y-120360234D01*
X138821836Y-120446145D01*
X138813760Y-120451429D01*
X138722482Y-120524819D01*
X138665284Y-120546547D01*
X138641134Y-120544763D01*
X138626841Y-120541920D01*
X138614674Y-120539500D01*
X137575326Y-120539500D01*
X137502260Y-120554034D01*
X137419399Y-120609399D01*
X137364034Y-120692260D01*
X137349500Y-120765326D01*
X137349500Y-121804674D01*
X137364034Y-121877740D01*
X137419399Y-121960601D01*
X137427509Y-121966020D01*
X137458465Y-121986704D01*
X137496345Y-122034754D01*
X137498747Y-122095892D01*
X137486681Y-122122648D01*
X137423022Y-122221427D01*
X137365818Y-122378592D01*
X137344856Y-122544525D01*
X137347937Y-122575947D01*
X137360637Y-122705477D01*
X137360638Y-122705482D01*
X137361177Y-122710979D01*
X137413970Y-122869680D01*
X137416835Y-122874411D01*
X137416837Y-122874415D01*
X137497744Y-123008008D01*
X137497747Y-123008012D01*
X137500611Y-123012741D01*
X137504454Y-123016721D01*
X137504459Y-123016727D01*
X137606450Y-123122341D01*
X137633273Y-123177334D01*
X137622648Y-123237589D01*
X137604504Y-123261844D01*
X137513623Y-123350841D01*
X137423022Y-123491427D01*
X137365818Y-123648592D01*
X137344856Y-123814525D01*
X137347937Y-123845947D01*
X137360637Y-123975477D01*
X137360638Y-123975482D01*
X137361177Y-123980979D01*
X137413970Y-124139680D01*
X137416835Y-124144411D01*
X137416837Y-124144415D01*
X137497744Y-124278008D01*
X137497747Y-124278012D01*
X137500611Y-124282741D01*
X137504454Y-124286721D01*
X137504459Y-124286727D01*
X137606450Y-124392341D01*
X137633273Y-124447334D01*
X137622648Y-124507589D01*
X137604504Y-124531844D01*
X137513623Y-124620841D01*
X137423022Y-124761427D01*
X137365818Y-124918592D01*
X137344856Y-125084525D01*
X137347937Y-125115947D01*
X137360637Y-125245477D01*
X137360638Y-125245482D01*
X137361177Y-125250979D01*
X137413970Y-125409680D01*
X137416835Y-125414411D01*
X137416837Y-125414415D01*
X137497744Y-125548008D01*
X137497747Y-125548012D01*
X137500611Y-125552741D01*
X137504454Y-125556721D01*
X137504459Y-125556727D01*
X137606450Y-125662341D01*
X137633273Y-125717334D01*
X137622648Y-125777589D01*
X137604504Y-125801844D01*
X137513623Y-125890841D01*
X137423022Y-126031427D01*
X137365818Y-126188592D01*
X137344856Y-126354525D01*
X137352182Y-126429243D01*
X137360637Y-126515477D01*
X137360638Y-126515482D01*
X137361177Y-126520979D01*
X137413970Y-126679680D01*
X137416835Y-126684411D01*
X137416837Y-126684415D01*
X137497744Y-126818008D01*
X137497747Y-126818012D01*
X137500611Y-126822741D01*
X137504454Y-126826721D01*
X137504459Y-126826727D01*
X137606450Y-126932341D01*
X137633273Y-126987334D01*
X137622648Y-127047589D01*
X137604504Y-127071844D01*
X137513623Y-127160841D01*
X137423022Y-127301427D01*
X137365818Y-127458592D01*
X137344856Y-127624525D01*
X137347937Y-127655947D01*
X137360637Y-127785477D01*
X137360638Y-127785482D01*
X137361177Y-127790979D01*
X137413970Y-127949680D01*
X137416835Y-127954411D01*
X137416837Y-127954415D01*
X137497744Y-128088008D01*
X137497747Y-128088012D01*
X137500611Y-128092741D01*
X137504454Y-128096721D01*
X137504459Y-128096727D01*
X137606450Y-128202341D01*
X137633273Y-128257334D01*
X137622648Y-128317589D01*
X137604504Y-128341844D01*
X137513623Y-128430841D01*
X137510625Y-128435493D01*
X137508362Y-128439004D01*
X137423022Y-128571427D01*
X137365818Y-128728592D01*
X137344856Y-128894525D01*
X137347937Y-128925947D01*
X137360637Y-129055477D01*
X137360638Y-129055482D01*
X137361177Y-129060979D01*
X137413970Y-129219680D01*
X137416835Y-129224411D01*
X137416837Y-129224415D01*
X137497744Y-129358008D01*
X137497747Y-129358012D01*
X137500611Y-129362741D01*
X137504454Y-129366721D01*
X137504459Y-129366727D01*
X137606450Y-129472341D01*
X137633273Y-129527334D01*
X137622648Y-129587589D01*
X137604504Y-129611844D01*
X137513623Y-129700841D01*
X137423022Y-129841427D01*
X137365818Y-129998592D01*
X137344856Y-130164525D01*
X137347937Y-130195947D01*
X137360637Y-130325477D01*
X137360638Y-130325482D01*
X137361177Y-130330979D01*
X137413970Y-130489680D01*
X137416835Y-130494411D01*
X137416837Y-130494415D01*
X137497744Y-130628008D01*
X137497747Y-130628012D01*
X137500611Y-130632741D01*
X137504454Y-130636721D01*
X137504459Y-130636727D01*
X137606450Y-130742341D01*
X137633273Y-130797334D01*
X137622648Y-130857589D01*
X137604504Y-130881844D01*
X137513623Y-130970841D01*
X137423022Y-131111427D01*
X137365818Y-131268592D01*
X137344856Y-131434525D01*
X137347937Y-131465947D01*
X137360637Y-131595477D01*
X137360638Y-131595482D01*
X137361177Y-131600979D01*
X137413970Y-131759680D01*
X137416835Y-131764411D01*
X137416837Y-131764415D01*
X137497744Y-131898008D01*
X137497747Y-131898012D01*
X137500611Y-131902741D01*
X137504454Y-131906721D01*
X137504459Y-131906727D01*
X137606450Y-132012341D01*
X137633273Y-132067334D01*
X137622648Y-132127589D01*
X137604504Y-132151844D01*
X137513623Y-132240841D01*
X137423022Y-132381427D01*
X137365818Y-132538592D01*
X137344856Y-132704525D01*
X128250000Y-132704525D01*
X128250000Y-130144440D01*
X130644901Y-130144440D01*
X130645816Y-130151437D01*
X130645816Y-130151438D01*
X130647082Y-130161120D01*
X130661633Y-130272394D01*
X130664471Y-130278845D01*
X130664472Y-130278847D01*
X130710764Y-130384054D01*
X130713605Y-130390510D01*
X130755122Y-130439900D01*
X130792100Y-130483892D01*
X130792103Y-130483894D01*
X130796639Y-130489291D01*
X130904060Y-130560796D01*
X130910788Y-130562898D01*
X130910790Y-130562899D01*
X130965647Y-130580037D01*
X131027233Y-130599278D01*
X131091744Y-130600461D01*
X131149202Y-130601514D01*
X131149204Y-130601514D01*
X131156255Y-130601643D01*
X131163058Y-130599788D01*
X131163060Y-130599788D01*
X131204828Y-130588400D01*
X131280755Y-130567700D01*
X131390724Y-130500179D01*
X131477322Y-130404507D01*
X131533588Y-130288375D01*
X131549662Y-130192830D01*
X131554363Y-130164891D01*
X131554363Y-130164886D01*
X131554997Y-130161120D01*
X131555133Y-130150000D01*
X131536839Y-130022259D01*
X131483428Y-129904788D01*
X131399193Y-129807028D01*
X131393276Y-129803193D01*
X131393274Y-129803191D01*
X131296824Y-129740677D01*
X131290906Y-129736841D01*
X131284150Y-129734821D01*
X131284149Y-129734820D01*
X131213516Y-129713696D01*
X131167273Y-129699866D01*
X131090644Y-129699398D01*
X131045282Y-129699121D01*
X131038231Y-129699078D01*
X131031454Y-129701015D01*
X131031453Y-129701015D01*
X130920935Y-129732601D01*
X130920933Y-129732602D01*
X130914155Y-129734539D01*
X130805019Y-129803399D01*
X130719596Y-129900122D01*
X130664754Y-130016932D01*
X130644901Y-130144440D01*
X128250000Y-130144440D01*
X128250000Y-128444440D01*
X129544901Y-128444440D01*
X129545816Y-128451437D01*
X129545816Y-128451438D01*
X129547082Y-128461120D01*
X129561633Y-128572394D01*
X129564471Y-128578845D01*
X129564472Y-128578847D01*
X129571458Y-128594724D01*
X129613605Y-128690510D01*
X129650236Y-128734088D01*
X129692100Y-128783892D01*
X129692103Y-128783894D01*
X129696639Y-128789291D01*
X129804060Y-128860796D01*
X129810788Y-128862898D01*
X129810790Y-128862899D01*
X129865647Y-128880037D01*
X129927233Y-128899278D01*
X129991744Y-128900460D01*
X130049202Y-128901514D01*
X130049204Y-128901514D01*
X130056255Y-128901643D01*
X130063058Y-128899788D01*
X130063060Y-128899788D01*
X130104828Y-128888400D01*
X130180755Y-128867700D01*
X130290724Y-128800179D01*
X130350547Y-128734088D01*
X130372590Y-128709735D01*
X130372590Y-128709734D01*
X130377322Y-128704507D01*
X130433588Y-128588375D01*
X130454997Y-128461120D01*
X130455133Y-128450000D01*
X130436839Y-128322259D01*
X130392102Y-128223865D01*
X130386349Y-128211212D01*
X130386348Y-128211211D01*
X130383428Y-128204788D01*
X130299193Y-128107028D01*
X130293276Y-128103193D01*
X130293274Y-128103191D01*
X130196824Y-128040677D01*
X130190906Y-128036841D01*
X130184150Y-128034821D01*
X130184149Y-128034820D01*
X130141335Y-128022016D01*
X130067273Y-127999866D01*
X129990644Y-127999398D01*
X129945282Y-127999121D01*
X129938231Y-127999078D01*
X129931454Y-128001015D01*
X129931453Y-128001015D01*
X129820935Y-128032601D01*
X129820933Y-128032602D01*
X129814155Y-128034539D01*
X129705019Y-128103399D01*
X129619596Y-128200122D01*
X129564754Y-128316932D01*
X129544901Y-128444440D01*
X128250000Y-128444440D01*
X128250000Y-127094440D01*
X131594901Y-127094440D01*
X131595816Y-127101437D01*
X131595816Y-127101438D01*
X131597082Y-127111120D01*
X131611633Y-127222394D01*
X131614471Y-127228845D01*
X131614472Y-127228847D01*
X131660764Y-127334054D01*
X131663605Y-127340510D01*
X131705122Y-127389901D01*
X131742100Y-127433892D01*
X131742103Y-127433894D01*
X131746639Y-127439291D01*
X131854060Y-127510796D01*
X131860788Y-127512898D01*
X131860790Y-127512899D01*
X131915647Y-127530037D01*
X131977233Y-127549278D01*
X132041744Y-127550460D01*
X132099202Y-127551514D01*
X132099204Y-127551514D01*
X132106255Y-127551643D01*
X132113058Y-127549788D01*
X132113060Y-127549788D01*
X132154828Y-127538400D01*
X132230755Y-127517700D01*
X132340724Y-127450179D01*
X132427322Y-127354507D01*
X132483588Y-127238375D01*
X132495259Y-127169004D01*
X132504363Y-127114891D01*
X132504363Y-127114886D01*
X132504997Y-127111120D01*
X132505133Y-127100000D01*
X132486839Y-126972259D01*
X132451688Y-126894948D01*
X132436349Y-126861212D01*
X132436348Y-126861211D01*
X132433428Y-126854788D01*
X132349193Y-126757028D01*
X132343276Y-126753193D01*
X132343274Y-126753191D01*
X132272813Y-126707522D01*
X132240906Y-126686841D01*
X132234150Y-126684821D01*
X132234149Y-126684820D01*
X132169224Y-126665403D01*
X132117273Y-126649866D01*
X132040644Y-126649398D01*
X131995282Y-126649121D01*
X131988231Y-126649078D01*
X131981454Y-126651015D01*
X131981453Y-126651015D01*
X131870935Y-126682601D01*
X131870933Y-126682602D01*
X131864155Y-126684539D01*
X131755019Y-126753399D01*
X131669596Y-126850122D01*
X131614754Y-126966932D01*
X131594901Y-127094440D01*
X128250000Y-127094440D01*
X128250000Y-126544440D01*
X130594901Y-126544440D01*
X130595816Y-126551437D01*
X130595816Y-126551438D01*
X130597082Y-126561120D01*
X130611633Y-126672394D01*
X130614471Y-126678845D01*
X130614472Y-126678847D01*
X130649601Y-126758684D01*
X130663605Y-126790510D01*
X130705122Y-126839901D01*
X130742100Y-126883892D01*
X130742103Y-126883894D01*
X130746639Y-126889291D01*
X130854060Y-126960796D01*
X130860788Y-126962898D01*
X130860790Y-126962899D01*
X130913105Y-126979243D01*
X130977233Y-126999278D01*
X131041744Y-127000461D01*
X131099202Y-127001514D01*
X131099204Y-127001514D01*
X131106255Y-127001643D01*
X131113058Y-126999788D01*
X131113060Y-126999788D01*
X131158739Y-126987334D01*
X131230755Y-126967700D01*
X131340724Y-126900179D01*
X131383216Y-126853235D01*
X131422590Y-126809735D01*
X131422590Y-126809734D01*
X131427322Y-126804507D01*
X131483588Y-126688375D01*
X131504997Y-126561120D01*
X131505051Y-126556746D01*
X131505086Y-126553825D01*
X131505133Y-126550000D01*
X131486839Y-126422259D01*
X131433428Y-126304788D01*
X131349193Y-126207028D01*
X131343276Y-126203193D01*
X131343274Y-126203191D01*
X131246824Y-126140677D01*
X131240906Y-126136841D01*
X131234150Y-126134821D01*
X131234149Y-126134820D01*
X131191335Y-126122016D01*
X131117273Y-126099866D01*
X131040644Y-126099398D01*
X130995282Y-126099121D01*
X130988231Y-126099078D01*
X130981454Y-126101015D01*
X130981453Y-126101015D01*
X130870935Y-126132601D01*
X130870933Y-126132602D01*
X130864155Y-126134539D01*
X130755019Y-126203399D01*
X130669596Y-126300122D01*
X130614754Y-126416932D01*
X130594901Y-126544440D01*
X128250000Y-126544440D01*
X128250000Y-125444440D01*
X132544901Y-125444440D01*
X132545816Y-125451437D01*
X132545816Y-125451438D01*
X132547082Y-125461120D01*
X132561633Y-125572394D01*
X132564471Y-125578845D01*
X132564472Y-125578847D01*
X132571458Y-125594724D01*
X132613605Y-125690510D01*
X132646941Y-125730168D01*
X132692100Y-125783892D01*
X132692103Y-125783894D01*
X132696639Y-125789291D01*
X132804060Y-125860796D01*
X132810788Y-125862898D01*
X132810790Y-125862899D01*
X132852939Y-125876067D01*
X132927233Y-125899278D01*
X132991744Y-125900461D01*
X133049202Y-125901514D01*
X133049204Y-125901514D01*
X133056255Y-125901643D01*
X133063058Y-125899788D01*
X133063060Y-125899788D01*
X133110074Y-125886970D01*
X133180755Y-125867700D01*
X133290724Y-125800179D01*
X133311171Y-125777590D01*
X133372590Y-125709735D01*
X133372590Y-125709734D01*
X133377322Y-125704507D01*
X133433588Y-125588375D01*
X133454997Y-125461120D01*
X133455133Y-125450000D01*
X133436839Y-125322259D01*
X133383428Y-125204788D01*
X133306878Y-125115947D01*
X133303798Y-125112372D01*
X133303797Y-125112371D01*
X133299193Y-125107028D01*
X133293276Y-125103193D01*
X133293274Y-125103191D01*
X133196824Y-125040677D01*
X133190906Y-125036841D01*
X133184150Y-125034821D01*
X133184149Y-125034820D01*
X133141335Y-125022016D01*
X133067273Y-124999866D01*
X132990644Y-124999398D01*
X132945282Y-124999121D01*
X132938231Y-124999078D01*
X132931454Y-125001015D01*
X132931453Y-125001015D01*
X132820935Y-125032601D01*
X132820933Y-125032602D01*
X132814155Y-125034539D01*
X132705019Y-125103399D01*
X132619596Y-125200122D01*
X132564754Y-125316932D01*
X132544901Y-125444440D01*
X128250000Y-125444440D01*
X128250000Y-124394440D01*
X134344901Y-124394440D01*
X134345816Y-124401437D01*
X134345816Y-124401438D01*
X134347082Y-124411120D01*
X134361633Y-124522394D01*
X134364471Y-124528845D01*
X134364472Y-124528847D01*
X134410764Y-124634054D01*
X134413605Y-124640510D01*
X134455122Y-124689900D01*
X134492100Y-124733892D01*
X134492103Y-124733894D01*
X134496639Y-124739291D01*
X134604060Y-124810796D01*
X134610788Y-124812898D01*
X134610790Y-124812899D01*
X134665646Y-124830037D01*
X134727233Y-124849278D01*
X134791744Y-124850461D01*
X134849202Y-124851514D01*
X134849204Y-124851514D01*
X134856255Y-124851643D01*
X134863058Y-124849788D01*
X134863060Y-124849788D01*
X134904828Y-124838400D01*
X134980755Y-124817700D01*
X135090724Y-124750179D01*
X135177322Y-124654507D01*
X135233588Y-124538375D01*
X135246773Y-124460002D01*
X135254363Y-124414891D01*
X135254363Y-124414886D01*
X135254997Y-124411120D01*
X135255133Y-124400000D01*
X135236839Y-124272259D01*
X135183428Y-124154788D01*
X135099193Y-124057028D01*
X135093276Y-124053193D01*
X135093274Y-124053191D01*
X134996824Y-123990677D01*
X134990906Y-123986841D01*
X134984150Y-123984821D01*
X134984149Y-123984820D01*
X134941335Y-123972016D01*
X134867273Y-123949866D01*
X134790644Y-123949398D01*
X134745282Y-123949121D01*
X134738231Y-123949078D01*
X134731454Y-123951015D01*
X134731453Y-123951015D01*
X134620935Y-123982601D01*
X134620933Y-123982602D01*
X134614155Y-123984539D01*
X134505019Y-124053399D01*
X134419596Y-124150122D01*
X134364754Y-124266932D01*
X134344901Y-124394440D01*
X128250000Y-124394440D01*
X128250000Y-122044440D01*
X135344901Y-122044440D01*
X135345816Y-122051437D01*
X135345816Y-122051438D01*
X135347082Y-122061120D01*
X135361633Y-122172394D01*
X135364471Y-122178845D01*
X135364472Y-122178847D01*
X135410764Y-122284054D01*
X135413605Y-122290510D01*
X135448298Y-122331782D01*
X135492100Y-122383892D01*
X135492103Y-122383894D01*
X135496639Y-122389291D01*
X135604060Y-122460796D01*
X135610788Y-122462898D01*
X135610790Y-122462899D01*
X135665646Y-122480037D01*
X135727233Y-122499278D01*
X135791744Y-122500460D01*
X135849202Y-122501514D01*
X135849204Y-122501514D01*
X135856255Y-122501643D01*
X135863058Y-122499788D01*
X135863060Y-122499788D01*
X135904828Y-122488400D01*
X135980755Y-122467700D01*
X136090724Y-122400179D01*
X136177322Y-122304507D01*
X136233588Y-122188375D01*
X136250966Y-122085079D01*
X136254363Y-122064891D01*
X136254363Y-122064886D01*
X136254997Y-122061120D01*
X136255133Y-122050000D01*
X136236839Y-121922259D01*
X136183428Y-121804788D01*
X136099193Y-121707028D01*
X136093276Y-121703193D01*
X136093274Y-121703191D01*
X135996824Y-121640677D01*
X135990906Y-121636841D01*
X135984150Y-121634821D01*
X135984149Y-121634820D01*
X135941335Y-121622016D01*
X135867273Y-121599866D01*
X135790644Y-121599398D01*
X135745282Y-121599121D01*
X135738231Y-121599078D01*
X135731454Y-121601015D01*
X135731453Y-121601015D01*
X135620935Y-121632601D01*
X135620933Y-121632602D01*
X135614155Y-121634539D01*
X135505019Y-121703399D01*
X135419596Y-121800122D01*
X135364754Y-121916932D01*
X135344901Y-122044440D01*
X128250000Y-122044440D01*
X128250000Y-119144440D01*
X133994901Y-119144440D01*
X133995816Y-119151437D01*
X133995816Y-119151438D01*
X133997082Y-119161120D01*
X134011633Y-119272394D01*
X134014471Y-119278845D01*
X134014472Y-119278847D01*
X134021458Y-119294724D01*
X134063605Y-119390510D01*
X134105122Y-119439900D01*
X134142100Y-119483892D01*
X134142103Y-119483894D01*
X134146639Y-119489291D01*
X134254060Y-119560796D01*
X134260788Y-119562898D01*
X134260790Y-119562899D01*
X134315647Y-119580037D01*
X134377233Y-119599278D01*
X134441744Y-119600460D01*
X134499202Y-119601514D01*
X134499204Y-119601514D01*
X134506255Y-119601643D01*
X134513058Y-119599788D01*
X134513060Y-119599788D01*
X134554828Y-119588400D01*
X134630755Y-119567700D01*
X134740724Y-119500179D01*
X134827322Y-119404507D01*
X134883588Y-119288375D01*
X134904997Y-119161120D01*
X134905133Y-119150000D01*
X134886839Y-119022259D01*
X134841433Y-118922394D01*
X134836349Y-118911212D01*
X134836348Y-118911211D01*
X134833428Y-118904788D01*
X134749193Y-118807028D01*
X134743276Y-118803193D01*
X134743274Y-118803191D01*
X134646824Y-118740677D01*
X134640906Y-118736841D01*
X134634150Y-118734821D01*
X134634149Y-118734820D01*
X134530664Y-118703871D01*
X134517273Y-118699866D01*
X134440644Y-118699398D01*
X134395282Y-118699121D01*
X134388231Y-118699078D01*
X134381454Y-118701015D01*
X134381453Y-118701015D01*
X134270935Y-118732601D01*
X134270933Y-118732602D01*
X134264155Y-118734539D01*
X134155019Y-118803399D01*
X134069596Y-118900122D01*
X134014754Y-119016932D01*
X133994901Y-119144440D01*
X128250000Y-119144440D01*
X128250000Y-118344440D01*
X135944901Y-118344440D01*
X135945816Y-118351437D01*
X135945816Y-118351438D01*
X135947082Y-118361120D01*
X135961633Y-118472394D01*
X135964471Y-118478845D01*
X135964472Y-118478847D01*
X136010764Y-118584054D01*
X136013605Y-118590510D01*
X136055122Y-118639901D01*
X136092100Y-118683892D01*
X136092103Y-118683894D01*
X136096639Y-118689291D01*
X136204060Y-118760796D01*
X136210788Y-118762898D01*
X136210790Y-118762899D01*
X136265647Y-118780037D01*
X136327233Y-118799278D01*
X136391744Y-118800460D01*
X136449202Y-118801514D01*
X136449204Y-118801514D01*
X136456255Y-118801643D01*
X136463058Y-118799788D01*
X136463060Y-118799788D01*
X136482676Y-118794440D01*
X137844901Y-118794440D01*
X137845816Y-118801437D01*
X137845816Y-118801438D01*
X137846764Y-118808684D01*
X137861633Y-118922394D01*
X137864471Y-118928845D01*
X137864472Y-118928847D01*
X137903230Y-119016932D01*
X137913605Y-119040510D01*
X137955122Y-119089900D01*
X137992100Y-119133892D01*
X137992103Y-119133894D01*
X137996639Y-119139291D01*
X138104060Y-119210796D01*
X138110788Y-119212898D01*
X138110790Y-119212899D01*
X138165647Y-119230037D01*
X138227233Y-119249278D01*
X138291744Y-119250460D01*
X138349202Y-119251514D01*
X138349204Y-119251514D01*
X138356255Y-119251643D01*
X138363058Y-119249788D01*
X138363060Y-119249788D01*
X138404828Y-119238400D01*
X138480755Y-119217700D01*
X138590724Y-119150179D01*
X138677322Y-119054507D01*
X138733588Y-118938375D01*
X138754997Y-118811120D01*
X138755133Y-118800000D01*
X138736839Y-118672259D01*
X138699670Y-118590510D01*
X138686349Y-118561212D01*
X138686348Y-118561211D01*
X138683428Y-118554788D01*
X138620209Y-118481418D01*
X138603798Y-118462372D01*
X138603797Y-118462371D01*
X138599193Y-118457028D01*
X138593276Y-118453193D01*
X138593274Y-118453191D01*
X138496824Y-118390677D01*
X138490906Y-118386841D01*
X138484150Y-118384821D01*
X138484149Y-118384820D01*
X138417512Y-118364891D01*
X138367273Y-118349866D01*
X138290644Y-118349398D01*
X138245282Y-118349121D01*
X138238231Y-118349078D01*
X138231454Y-118351015D01*
X138231453Y-118351015D01*
X138120935Y-118382601D01*
X138120933Y-118382602D01*
X138114155Y-118384539D01*
X138005019Y-118453399D01*
X137919596Y-118550122D01*
X137864754Y-118666932D01*
X137844901Y-118794440D01*
X136482676Y-118794440D01*
X136508255Y-118787466D01*
X136580755Y-118767700D01*
X136690724Y-118700179D01*
X136777322Y-118604507D01*
X136833588Y-118488375D01*
X136844596Y-118422941D01*
X136854363Y-118364891D01*
X136854363Y-118364886D01*
X136854997Y-118361120D01*
X136855133Y-118350000D01*
X136836839Y-118222259D01*
X136783428Y-118104788D01*
X136699193Y-118007028D01*
X136693276Y-118003193D01*
X136693274Y-118003191D01*
X136596824Y-117940677D01*
X136590906Y-117936841D01*
X136584150Y-117934821D01*
X136584149Y-117934820D01*
X136541335Y-117922016D01*
X136467273Y-117899866D01*
X136390644Y-117899398D01*
X136345282Y-117899121D01*
X136338231Y-117899078D01*
X136331454Y-117901015D01*
X136331453Y-117901015D01*
X136220935Y-117932601D01*
X136220933Y-117932602D01*
X136214155Y-117934539D01*
X136105019Y-118003399D01*
X136019596Y-118100122D01*
X135964754Y-118216932D01*
X135944901Y-118344440D01*
X128250000Y-118344440D01*
X128250000Y-115894440D01*
X130394901Y-115894440D01*
X130395816Y-115901437D01*
X130395816Y-115901438D01*
X130397082Y-115911120D01*
X130411633Y-116022394D01*
X130414471Y-116028845D01*
X130414472Y-116028847D01*
X130450673Y-116111120D01*
X130463605Y-116140510D01*
X130505122Y-116189901D01*
X130542100Y-116233892D01*
X130542103Y-116233894D01*
X130546639Y-116239291D01*
X130654060Y-116310796D01*
X130660788Y-116312898D01*
X130660790Y-116312899D01*
X130715647Y-116330037D01*
X130777233Y-116349278D01*
X130857704Y-116350753D01*
X130903354Y-116351590D01*
X130961188Y-116371560D01*
X130996239Y-116421711D01*
X130999360Y-116465803D01*
X130994901Y-116494440D01*
X130995816Y-116501437D01*
X130995816Y-116501438D01*
X130996747Y-116508559D01*
X131011633Y-116622394D01*
X131014471Y-116628845D01*
X131014472Y-116628847D01*
X131060764Y-116734054D01*
X131063605Y-116740510D01*
X131081007Y-116761212D01*
X131142100Y-116833892D01*
X131142103Y-116833894D01*
X131146639Y-116839291D01*
X131254060Y-116910796D01*
X131260788Y-116912898D01*
X131260790Y-116912899D01*
X131305426Y-116926844D01*
X131377233Y-116949278D01*
X131441744Y-116950461D01*
X131499202Y-116951514D01*
X131499204Y-116951514D01*
X131506255Y-116951643D01*
X131513058Y-116949788D01*
X131513060Y-116949788D01*
X131554828Y-116938400D01*
X131630755Y-116917700D01*
X131740724Y-116850179D01*
X131827322Y-116754507D01*
X131883588Y-116638375D01*
X131898556Y-116549407D01*
X131904363Y-116514891D01*
X131904363Y-116514886D01*
X131904997Y-116511120D01*
X131905133Y-116500000D01*
X131904337Y-116494440D01*
X133244901Y-116494440D01*
X133245816Y-116501437D01*
X133245816Y-116501438D01*
X133246747Y-116508559D01*
X133261633Y-116622394D01*
X133264471Y-116628845D01*
X133264472Y-116628847D01*
X133310764Y-116734054D01*
X133313605Y-116740510D01*
X133331007Y-116761212D01*
X133392100Y-116833892D01*
X133392103Y-116833894D01*
X133396639Y-116839291D01*
X133498189Y-116906888D01*
X133501784Y-116909281D01*
X133539748Y-116957265D01*
X133545510Y-116990531D01*
X133544901Y-116994440D01*
X133561633Y-117122394D01*
X133564471Y-117128845D01*
X133564472Y-117128847D01*
X133571458Y-117144724D01*
X133613605Y-117240510D01*
X133655122Y-117289901D01*
X133692100Y-117333892D01*
X133692103Y-117333894D01*
X133696639Y-117339291D01*
X133804060Y-117410796D01*
X133810788Y-117412898D01*
X133810790Y-117412899D01*
X133865646Y-117430037D01*
X133927233Y-117449278D01*
X133991744Y-117450461D01*
X134049202Y-117451514D01*
X134049204Y-117451514D01*
X134056255Y-117451643D01*
X134063058Y-117449788D01*
X134063060Y-117449788D01*
X134104828Y-117438400D01*
X134180755Y-117417700D01*
X134290724Y-117350179D01*
X134377322Y-117254507D01*
X134433588Y-117138375D01*
X134454997Y-117011120D01*
X134455133Y-117000000D01*
X134436839Y-116872259D01*
X134383428Y-116754788D01*
X134299193Y-116657028D01*
X134200175Y-116592849D01*
X134161628Y-116545333D01*
X134155028Y-116508559D01*
X134155044Y-116507299D01*
X134155133Y-116500000D01*
X134136839Y-116372259D01*
X134083428Y-116254788D01*
X134007528Y-116166701D01*
X133983867Y-116110276D01*
X133987596Y-116094440D01*
X134494901Y-116094440D01*
X134495816Y-116101437D01*
X134495816Y-116101438D01*
X134496972Y-116110276D01*
X134511633Y-116222394D01*
X134514471Y-116228845D01*
X134514472Y-116228847D01*
X134550868Y-116311563D01*
X134563605Y-116340510D01*
X134598149Y-116381605D01*
X134642100Y-116433892D01*
X134642103Y-116433894D01*
X134646639Y-116439291D01*
X134754060Y-116510796D01*
X134760788Y-116512898D01*
X134760790Y-116512899D01*
X134815646Y-116530037D01*
X134877233Y-116549278D01*
X134941744Y-116550460D01*
X134999202Y-116551514D01*
X134999204Y-116551514D01*
X135006255Y-116551643D01*
X135013058Y-116549788D01*
X135013060Y-116549788D01*
X135054828Y-116538400D01*
X135130755Y-116517700D01*
X135240724Y-116450179D01*
X135311254Y-116372259D01*
X135322590Y-116359735D01*
X135322590Y-116359734D01*
X135327322Y-116354507D01*
X135361718Y-116283515D01*
X135380512Y-116244724D01*
X135380512Y-116244723D01*
X135383588Y-116238375D01*
X135404997Y-116111120D01*
X135405059Y-116106096D01*
X135405086Y-116103825D01*
X135405133Y-116100000D01*
X135386839Y-115972259D01*
X135333428Y-115854788D01*
X135268335Y-115779243D01*
X135253798Y-115762372D01*
X135253797Y-115762371D01*
X135249193Y-115757028D01*
X135243276Y-115753193D01*
X135243274Y-115753191D01*
X135172813Y-115707522D01*
X135168189Y-115704525D01*
X137344856Y-115704525D01*
X137352182Y-115779243D01*
X137360637Y-115865477D01*
X137360638Y-115865482D01*
X137361177Y-115870979D01*
X137413970Y-116029680D01*
X137416835Y-116034411D01*
X137416837Y-116034415D01*
X137497744Y-116168008D01*
X137497747Y-116168012D01*
X137500611Y-116172741D01*
X137504453Y-116176720D01*
X137504455Y-116176722D01*
X137530059Y-116203235D01*
X137616794Y-116293052D01*
X137756744Y-116384633D01*
X137838577Y-116415066D01*
X137908313Y-116441001D01*
X137908315Y-116441002D01*
X137913506Y-116442932D01*
X137918998Y-116443665D01*
X137918999Y-116443665D01*
X138047380Y-116460794D01*
X138079289Y-116465052D01*
X138084795Y-116464551D01*
X138084797Y-116464551D01*
X138162571Y-116457473D01*
X138245852Y-116449894D01*
X138273222Y-116441001D01*
X138399653Y-116399921D01*
X138399655Y-116399920D01*
X138404918Y-116398210D01*
X138409674Y-116395375D01*
X138409676Y-116395374D01*
X138543830Y-116315402D01*
X138548581Y-116312570D01*
X138663394Y-116203235D01*
X138718573Y-116176798D01*
X138778753Y-116187843D01*
X138802879Y-116206155D01*
X138824792Y-116228847D01*
X138882950Y-116289072D01*
X138882953Y-116289074D01*
X138886794Y-116293052D01*
X139026744Y-116384633D01*
X139108577Y-116415066D01*
X139178313Y-116441001D01*
X139178315Y-116441002D01*
X139183506Y-116442932D01*
X139188998Y-116443665D01*
X139188999Y-116443665D01*
X139317380Y-116460794D01*
X139349289Y-116465052D01*
X139354795Y-116464551D01*
X139354797Y-116464551D01*
X139432571Y-116457473D01*
X139515852Y-116449894D01*
X139543222Y-116441001D01*
X139669653Y-116399921D01*
X139669655Y-116399920D01*
X139674918Y-116398210D01*
X139679674Y-116395375D01*
X139679676Y-116395374D01*
X139813830Y-116315402D01*
X139818581Y-116312570D01*
X139933394Y-116203235D01*
X139988573Y-116176798D01*
X140048753Y-116187843D01*
X140072879Y-116206155D01*
X140094792Y-116228847D01*
X140152950Y-116289072D01*
X140152953Y-116289074D01*
X140156794Y-116293052D01*
X140296744Y-116384633D01*
X140378577Y-116415066D01*
X140448313Y-116441001D01*
X140448315Y-116441002D01*
X140453506Y-116442932D01*
X140458998Y-116443665D01*
X140458999Y-116443665D01*
X140587380Y-116460794D01*
X140619289Y-116465052D01*
X140624795Y-116464551D01*
X140624797Y-116464551D01*
X140702571Y-116457473D01*
X140785852Y-116449894D01*
X140813222Y-116441001D01*
X140939653Y-116399921D01*
X140939655Y-116399920D01*
X140944918Y-116398210D01*
X140949674Y-116395375D01*
X140949676Y-116395374D01*
X141083830Y-116315402D01*
X141088581Y-116312570D01*
X141203394Y-116203235D01*
X141258573Y-116176798D01*
X141318753Y-116187843D01*
X141342879Y-116206155D01*
X141364792Y-116228847D01*
X141422950Y-116289072D01*
X141422953Y-116289074D01*
X141426794Y-116293052D01*
X141566744Y-116384633D01*
X141648577Y-116415066D01*
X141718313Y-116441001D01*
X141718315Y-116441002D01*
X141723506Y-116442932D01*
X141728998Y-116443665D01*
X141728999Y-116443665D01*
X141857380Y-116460794D01*
X141889289Y-116465052D01*
X141894795Y-116464551D01*
X141894797Y-116464551D01*
X141972571Y-116457473D01*
X142055852Y-116449894D01*
X142083222Y-116441001D01*
X142209653Y-116399921D01*
X142209655Y-116399920D01*
X142214918Y-116398210D01*
X142219674Y-116395375D01*
X142219676Y-116395374D01*
X142353830Y-116315402D01*
X142358581Y-116312570D01*
X142479700Y-116197230D01*
X142493326Y-116176722D01*
X142569192Y-116062533D01*
X142572255Y-116057923D01*
X142574548Y-116051888D01*
X142626586Y-115914896D01*
X142631648Y-115901571D01*
X142654925Y-115735947D01*
X142655217Y-115715000D01*
X142654660Y-115710028D01*
X142643565Y-115611120D01*
X142636574Y-115548791D01*
X142581570Y-115390842D01*
X142492940Y-115249004D01*
X142393752Y-115149121D01*
X142393510Y-115148877D01*
X142365923Y-115094263D01*
X142375706Y-115033865D01*
X142395484Y-115007428D01*
X142479700Y-114927230D01*
X142572255Y-114787923D01*
X142631648Y-114631571D01*
X142654925Y-114465947D01*
X142655217Y-114445000D01*
X142654660Y-114440028D01*
X142637191Y-114284296D01*
X142636574Y-114278791D01*
X142581570Y-114120842D01*
X142492940Y-113979004D01*
X142393509Y-113878876D01*
X142365923Y-113824263D01*
X142375706Y-113763865D01*
X142395484Y-113737428D01*
X142479700Y-113657230D01*
X142484645Y-113649788D01*
X142569192Y-113522533D01*
X142572255Y-113517923D01*
X142631648Y-113361571D01*
X142654925Y-113195947D01*
X142655217Y-113175000D01*
X142654660Y-113170028D01*
X142643693Y-113072259D01*
X142636574Y-113008791D01*
X142581570Y-112850842D01*
X142518473Y-112749866D01*
X142495872Y-112713696D01*
X142495871Y-112713695D01*
X142492940Y-112709004D01*
X142393509Y-112608876D01*
X142365923Y-112554263D01*
X142375706Y-112493865D01*
X142395484Y-112467428D01*
X142479700Y-112387230D01*
X142572255Y-112247923D01*
X142631648Y-112091571D01*
X142654925Y-111925947D01*
X142655217Y-111905000D01*
X142654660Y-111900028D01*
X142637191Y-111744296D01*
X142636574Y-111738791D01*
X142581570Y-111580842D01*
X142492940Y-111439004D01*
X142393509Y-111338876D01*
X142365923Y-111284263D01*
X142375706Y-111223865D01*
X142395484Y-111197428D01*
X142479700Y-111117230D01*
X142483760Y-111111120D01*
X142554406Y-111004788D01*
X142572255Y-110977923D01*
X142576139Y-110967700D01*
X142629682Y-110826746D01*
X142631648Y-110821571D01*
X142654925Y-110655947D01*
X142655217Y-110635000D01*
X142654660Y-110630028D01*
X142645059Y-110544440D01*
X144394901Y-110544440D01*
X144395816Y-110551437D01*
X144395816Y-110551438D01*
X144397082Y-110561120D01*
X144411633Y-110672394D01*
X144414471Y-110678845D01*
X144414472Y-110678847D01*
X144449601Y-110758684D01*
X144463605Y-110790510D01*
X144494065Y-110826746D01*
X144542100Y-110883892D01*
X144542103Y-110883894D01*
X144546639Y-110889291D01*
X144654060Y-110960796D01*
X144660788Y-110962898D01*
X144660790Y-110962899D01*
X144708880Y-110977923D01*
X144777233Y-110999278D01*
X144841744Y-111000461D01*
X144899202Y-111001514D01*
X144899204Y-111001514D01*
X144906255Y-111001643D01*
X144913058Y-110999788D01*
X144913060Y-110999788D01*
X144954828Y-110988400D01*
X145030755Y-110967700D01*
X145140724Y-110900179D01*
X145199884Y-110834820D01*
X145222590Y-110809735D01*
X145222590Y-110809734D01*
X145227322Y-110804507D01*
X145283588Y-110688375D01*
X145295254Y-110619035D01*
X145304363Y-110564891D01*
X145304363Y-110564886D01*
X145304997Y-110561120D01*
X145305133Y-110550000D01*
X145286839Y-110422259D01*
X145233428Y-110304788D01*
X145149193Y-110207028D01*
X145143276Y-110203193D01*
X145143274Y-110203191D01*
X145046824Y-110140677D01*
X145040906Y-110136841D01*
X145034150Y-110134821D01*
X145034149Y-110134820D01*
X144991335Y-110122016D01*
X144917273Y-110099866D01*
X144840644Y-110099398D01*
X144795282Y-110099121D01*
X144788231Y-110099078D01*
X144781454Y-110101015D01*
X144781453Y-110101015D01*
X144670935Y-110132601D01*
X144670933Y-110132602D01*
X144664155Y-110134539D01*
X144555019Y-110203399D01*
X144469596Y-110300122D01*
X144414754Y-110416932D01*
X144394901Y-110544440D01*
X142645059Y-110544440D01*
X142642478Y-110521427D01*
X142654781Y-110461492D01*
X142699964Y-110420234D01*
X142760768Y-110413414D01*
X142770384Y-110415896D01*
X142877233Y-110449278D01*
X142941744Y-110450461D01*
X142999202Y-110451514D01*
X142999204Y-110451514D01*
X143006255Y-110451643D01*
X143013058Y-110449788D01*
X143013060Y-110449788D01*
X143054828Y-110438400D01*
X143130755Y-110417700D01*
X143240724Y-110350179D01*
X143286649Y-110299442D01*
X143322590Y-110259735D01*
X143322590Y-110259734D01*
X143327322Y-110254507D01*
X143383588Y-110138375D01*
X143397228Y-110057299D01*
X143404363Y-110014891D01*
X143404363Y-110014886D01*
X143404997Y-110011120D01*
X143405133Y-110000000D01*
X143386839Y-109872259D01*
X143364324Y-109822741D01*
X143336349Y-109761212D01*
X143336348Y-109761211D01*
X143333428Y-109754788D01*
X143249193Y-109657028D01*
X143243276Y-109653193D01*
X143243274Y-109653191D01*
X143146824Y-109590677D01*
X143140906Y-109586841D01*
X143134150Y-109584821D01*
X143134149Y-109584820D01*
X143091335Y-109572016D01*
X143017273Y-109549866D01*
X142940644Y-109549398D01*
X142895282Y-109549121D01*
X142888231Y-109549078D01*
X142881454Y-109551015D01*
X142881453Y-109551015D01*
X142825955Y-109566877D01*
X142767713Y-109583522D01*
X142706568Y-109581333D01*
X142658386Y-109543622D01*
X142641572Y-109484792D01*
X142642472Y-109474555D01*
X142654492Y-109389027D01*
X142654925Y-109385947D01*
X142655217Y-109365000D01*
X142654660Y-109360028D01*
X142637191Y-109204296D01*
X142636574Y-109198791D01*
X142581570Y-109040842D01*
X142492940Y-108899004D01*
X142393509Y-108798876D01*
X142365923Y-108744263D01*
X142375706Y-108683865D01*
X142395484Y-108657428D01*
X142479700Y-108577230D01*
X142572255Y-108437923D01*
X142631648Y-108281571D01*
X142654925Y-108115947D01*
X142655217Y-108095000D01*
X142654660Y-108090028D01*
X142637191Y-107934296D01*
X142636574Y-107928791D01*
X142581570Y-107770842D01*
X142492940Y-107629004D01*
X142393509Y-107528876D01*
X142365923Y-107474263D01*
X142375706Y-107413865D01*
X142395484Y-107387428D01*
X142479700Y-107307230D01*
X142572255Y-107167923D01*
X142631648Y-107011571D01*
X142654925Y-106845947D01*
X142655217Y-106825000D01*
X142654660Y-106820028D01*
X142637191Y-106664296D01*
X142636574Y-106658791D01*
X142581570Y-106500842D01*
X142492940Y-106359004D01*
X142393509Y-106258876D01*
X142365923Y-106204263D01*
X142375706Y-106143865D01*
X142395484Y-106117428D01*
X142479700Y-106037230D01*
X142572255Y-105897923D01*
X142631648Y-105741571D01*
X142654925Y-105575947D01*
X142655217Y-105555000D01*
X142654660Y-105550028D01*
X142637191Y-105394296D01*
X142636574Y-105388791D01*
X142581570Y-105230842D01*
X142492940Y-105089004D01*
X142393510Y-104988877D01*
X142365923Y-104934263D01*
X142375706Y-104873865D01*
X142395484Y-104847428D01*
X142479700Y-104767230D01*
X142572255Y-104627923D01*
X142594877Y-104568372D01*
X142629682Y-104476746D01*
X142631648Y-104471571D01*
X142654925Y-104305947D01*
X142655217Y-104285000D01*
X142654564Y-104279172D01*
X142637191Y-104124296D01*
X142636574Y-104118791D01*
X142581570Y-103960842D01*
X142492940Y-103819004D01*
X142375089Y-103700327D01*
X142295203Y-103649630D01*
X142238544Y-103613673D01*
X142238542Y-103613672D01*
X142233873Y-103610709D01*
X142124219Y-103571663D01*
X142081526Y-103556461D01*
X142081524Y-103556461D01*
X142076313Y-103554605D01*
X142056849Y-103552284D01*
X141915733Y-103535456D01*
X141915730Y-103535456D01*
X141910237Y-103534801D01*
X141743902Y-103552284D01*
X141664737Y-103579234D01*
X141590815Y-103604398D01*
X141590811Y-103604400D01*
X141585573Y-103606183D01*
X141580863Y-103609081D01*
X141580858Y-103609083D01*
X141454913Y-103686566D01*
X141452695Y-103687261D01*
X141430219Y-103701913D01*
X139435004Y-105697128D01*
X139380487Y-105724905D01*
X139320055Y-105715334D01*
X139294996Y-105697128D01*
X138728737Y-105130869D01*
X138700960Y-105076352D01*
X138710531Y-105015920D01*
X138743739Y-104978550D01*
X138762490Y-104966021D01*
X138762491Y-104966020D01*
X138770601Y-104960601D01*
X138788200Y-104934263D01*
X138788714Y-104933493D01*
X138836763Y-104895613D01*
X138897901Y-104893209D01*
X138939755Y-104922377D01*
X138942132Y-104920000D01*
X139353914Y-105331782D01*
X139365797Y-105337836D01*
X139370828Y-105337040D01*
X139776782Y-104931086D01*
X139782836Y-104919203D01*
X139782040Y-104914172D01*
X139376086Y-104508218D01*
X139364203Y-104502164D01*
X139359172Y-104502960D01*
X139009504Y-104852628D01*
X138954987Y-104880405D01*
X138894555Y-104870834D01*
X138851290Y-104827569D01*
X138840500Y-104782624D01*
X138840500Y-104638376D01*
X138859407Y-104580185D01*
X138869496Y-104568372D01*
X139152071Y-104285797D01*
X139582164Y-104285797D01*
X139582960Y-104290828D01*
X139988914Y-104696782D01*
X140000797Y-104702836D01*
X140005828Y-104702040D01*
X140411782Y-104296086D01*
X140417836Y-104284203D01*
X140417040Y-104279172D01*
X140011086Y-103873218D01*
X139999203Y-103867164D01*
X139994172Y-103867960D01*
X139588218Y-104273914D01*
X139582164Y-104285797D01*
X139152071Y-104285797D01*
X139929996Y-103507872D01*
X139974171Y-103485365D01*
X140017788Y-103485365D01*
X140044945Y-103489666D01*
X140070004Y-103507872D01*
X140623914Y-104061782D01*
X140635797Y-104067836D01*
X140640828Y-104067040D01*
X141214559Y-103493309D01*
X141220613Y-103481426D01*
X141220180Y-103478692D01*
X141217829Y-103475757D01*
X141197821Y-103459205D01*
X141189827Y-103453813D01*
X141026698Y-103365608D01*
X141017827Y-103361879D01*
X140840663Y-103307038D01*
X140831229Y-103305101D01*
X140646796Y-103285716D01*
X140637158Y-103285649D01*
X140452474Y-103302456D01*
X140443008Y-103304262D01*
X140265110Y-103356621D01*
X140256169Y-103360234D01*
X140091836Y-103446145D01*
X140083759Y-103451430D01*
X140062840Y-103468250D01*
X140017788Y-103485365D01*
X139974171Y-103485365D01*
X139979209Y-103482798D01*
X139946598Y-103473938D01*
X139937697Y-103467376D01*
X139927816Y-103459201D01*
X139919827Y-103453813D01*
X139756698Y-103365608D01*
X139747827Y-103361879D01*
X139570663Y-103307038D01*
X139561229Y-103305101D01*
X139376796Y-103285716D01*
X139367158Y-103285649D01*
X139182474Y-103302456D01*
X139173008Y-103304262D01*
X138995110Y-103356621D01*
X138986169Y-103360234D01*
X138821836Y-103446145D01*
X138813760Y-103451429D01*
X138722482Y-103524819D01*
X138665284Y-103546547D01*
X138641134Y-103544763D01*
X138626841Y-103541920D01*
X138614674Y-103539500D01*
X137575326Y-103539500D01*
X137502260Y-103554034D01*
X137419399Y-103609399D01*
X137364034Y-103692260D01*
X137349500Y-103765326D01*
X137349500Y-104804674D01*
X137364034Y-104877740D01*
X137419399Y-104960601D01*
X137427509Y-104966020D01*
X137458465Y-104986704D01*
X137496345Y-105034754D01*
X137498747Y-105095892D01*
X137486681Y-105122648D01*
X137423022Y-105221427D01*
X137365818Y-105378592D01*
X137344856Y-105544525D01*
X137347937Y-105575947D01*
X137360637Y-105705477D01*
X137360638Y-105705482D01*
X137361177Y-105710979D01*
X137413970Y-105869680D01*
X137416835Y-105874411D01*
X137416837Y-105874415D01*
X137497744Y-106008008D01*
X137497747Y-106008012D01*
X137500611Y-106012741D01*
X137504454Y-106016721D01*
X137504459Y-106016727D01*
X137606450Y-106122341D01*
X137633273Y-106177334D01*
X137622648Y-106237589D01*
X137604504Y-106261844D01*
X137513623Y-106350841D01*
X137423022Y-106491427D01*
X137365818Y-106648592D01*
X137344856Y-106814525D01*
X137347937Y-106845947D01*
X137360637Y-106975477D01*
X137360638Y-106975482D01*
X137361177Y-106980979D01*
X137413970Y-107139680D01*
X137416835Y-107144411D01*
X137416837Y-107144415D01*
X137497744Y-107278008D01*
X137497747Y-107278012D01*
X137500611Y-107282741D01*
X137504454Y-107286721D01*
X137504459Y-107286727D01*
X137606450Y-107392341D01*
X137633273Y-107447334D01*
X137622648Y-107507589D01*
X137604504Y-107531844D01*
X137513623Y-107620841D01*
X137423022Y-107761427D01*
X137365818Y-107918592D01*
X137344856Y-108084525D01*
X137347937Y-108115947D01*
X137360637Y-108245477D01*
X137360638Y-108245482D01*
X137361177Y-108250979D01*
X137413970Y-108409680D01*
X137416835Y-108414411D01*
X137416837Y-108414415D01*
X137497744Y-108548008D01*
X137497747Y-108548012D01*
X137500611Y-108552741D01*
X137504454Y-108556721D01*
X137504459Y-108556727D01*
X137606450Y-108662341D01*
X137633273Y-108717334D01*
X137622648Y-108777589D01*
X137604504Y-108801844D01*
X137513623Y-108890841D01*
X137423022Y-109031427D01*
X137365818Y-109188592D01*
X137344856Y-109354525D01*
X137347937Y-109385947D01*
X137360637Y-109515477D01*
X137360638Y-109515482D01*
X137361177Y-109520979D01*
X137413970Y-109679680D01*
X137416835Y-109684411D01*
X137416837Y-109684415D01*
X137497744Y-109818008D01*
X137497747Y-109818012D01*
X137500611Y-109822741D01*
X137504454Y-109826721D01*
X137504459Y-109826727D01*
X137606450Y-109932341D01*
X137633273Y-109987334D01*
X137622648Y-110047589D01*
X137604504Y-110071844D01*
X137513623Y-110160841D01*
X137423022Y-110301427D01*
X137365818Y-110458592D01*
X137344856Y-110624525D01*
X137350768Y-110684819D01*
X137360637Y-110785477D01*
X137360638Y-110785482D01*
X137361177Y-110790979D01*
X137413970Y-110949680D01*
X137416835Y-110954411D01*
X137416837Y-110954415D01*
X137497744Y-111088008D01*
X137497747Y-111088012D01*
X137500611Y-111092741D01*
X137504454Y-111096721D01*
X137504459Y-111096727D01*
X137606450Y-111202341D01*
X137633273Y-111257334D01*
X137622648Y-111317589D01*
X137604504Y-111341844D01*
X137513623Y-111430841D01*
X137423022Y-111571427D01*
X137365818Y-111728592D01*
X137344856Y-111894525D01*
X137347937Y-111925947D01*
X137360637Y-112055477D01*
X137360638Y-112055482D01*
X137361177Y-112060979D01*
X137413970Y-112219680D01*
X137416835Y-112224411D01*
X137416837Y-112224415D01*
X137497744Y-112358008D01*
X137497747Y-112358012D01*
X137500611Y-112362741D01*
X137504454Y-112366721D01*
X137504459Y-112366727D01*
X137606450Y-112472341D01*
X137633273Y-112527334D01*
X137622648Y-112587589D01*
X137604504Y-112611844D01*
X137513623Y-112700841D01*
X137423022Y-112841427D01*
X137365818Y-112998592D01*
X137344856Y-113164525D01*
X137352228Y-113239709D01*
X137360637Y-113325477D01*
X137360638Y-113325482D01*
X137361177Y-113330979D01*
X137413970Y-113489680D01*
X137416835Y-113494411D01*
X137416837Y-113494415D01*
X137497744Y-113628008D01*
X137497747Y-113628012D01*
X137500611Y-113632741D01*
X137504454Y-113636721D01*
X137504459Y-113636727D01*
X137606450Y-113742341D01*
X137633273Y-113797334D01*
X137622648Y-113857589D01*
X137604504Y-113881844D01*
X137513623Y-113970841D01*
X137423022Y-114111427D01*
X137365818Y-114268592D01*
X137344856Y-114434525D01*
X137347937Y-114465947D01*
X137360637Y-114595477D01*
X137360638Y-114595482D01*
X137361177Y-114600979D01*
X137413970Y-114759680D01*
X137416835Y-114764411D01*
X137416837Y-114764415D01*
X137497744Y-114898008D01*
X137497747Y-114898012D01*
X137500611Y-114902741D01*
X137504454Y-114906721D01*
X137504459Y-114906727D01*
X137606450Y-115012341D01*
X137633273Y-115067334D01*
X137622648Y-115127589D01*
X137604504Y-115151844D01*
X137513623Y-115240841D01*
X137423022Y-115381427D01*
X137365818Y-115538592D01*
X137344856Y-115704525D01*
X135168189Y-115704525D01*
X135140906Y-115686841D01*
X135134150Y-115684821D01*
X135134149Y-115684820D01*
X135091335Y-115672016D01*
X135017273Y-115649866D01*
X134940644Y-115649398D01*
X134895282Y-115649121D01*
X134888231Y-115649078D01*
X134881454Y-115651015D01*
X134881453Y-115651015D01*
X134770935Y-115682601D01*
X134770933Y-115682602D01*
X134764155Y-115684539D01*
X134655019Y-115753399D01*
X134569596Y-115850122D01*
X134514754Y-115966932D01*
X134494901Y-116094440D01*
X133987596Y-116094440D01*
X133997891Y-116050719D01*
X134032700Y-116020868D01*
X134030755Y-116017700D01*
X134134711Y-115953871D01*
X134140724Y-115950179D01*
X134172661Y-115914896D01*
X134222590Y-115859735D01*
X134222590Y-115859734D01*
X134227322Y-115854507D01*
X134283588Y-115738375D01*
X134297362Y-115656504D01*
X134304363Y-115614891D01*
X134304363Y-115614886D01*
X134304997Y-115611120D01*
X134305133Y-115600000D01*
X134286839Y-115472259D01*
X134247905Y-115386629D01*
X134236349Y-115361212D01*
X134236348Y-115361211D01*
X134233428Y-115354788D01*
X134149193Y-115257028D01*
X134143276Y-115253193D01*
X134143274Y-115253191D01*
X134046824Y-115190677D01*
X134040906Y-115186841D01*
X134034150Y-115184821D01*
X134034149Y-115184820D01*
X133991335Y-115172016D01*
X133917273Y-115149866D01*
X133840644Y-115149398D01*
X133795282Y-115149121D01*
X133788231Y-115149078D01*
X133781454Y-115151015D01*
X133781453Y-115151015D01*
X133670935Y-115182601D01*
X133670933Y-115182602D01*
X133664155Y-115184539D01*
X133555019Y-115253399D01*
X133469596Y-115350122D01*
X133414754Y-115466932D01*
X133394901Y-115594440D01*
X133395816Y-115601437D01*
X133395816Y-115601438D01*
X133397082Y-115611120D01*
X133411633Y-115722394D01*
X133414471Y-115728845D01*
X133414472Y-115728847D01*
X133430748Y-115765837D01*
X133463605Y-115840510D01*
X133468142Y-115845907D01*
X133468143Y-115845909D01*
X133475607Y-115854788D01*
X133541955Y-115933718D01*
X133542703Y-115934608D01*
X133565673Y-115991318D01*
X133550923Y-116050699D01*
X133513425Y-116083382D01*
X133514155Y-116084539D01*
X133405019Y-116153399D01*
X133319596Y-116250122D01*
X133264754Y-116366932D01*
X133244901Y-116494440D01*
X131904337Y-116494440D01*
X131886839Y-116372259D01*
X131833428Y-116254788D01*
X131766228Y-116176798D01*
X131753798Y-116162372D01*
X131753797Y-116162371D01*
X131749193Y-116157028D01*
X131743276Y-116153193D01*
X131743274Y-116153191D01*
X131670613Y-116106096D01*
X131640906Y-116086841D01*
X131634150Y-116084821D01*
X131634149Y-116084820D01*
X131591335Y-116072016D01*
X131517273Y-116049866D01*
X131398219Y-116049139D01*
X131340145Y-116029877D01*
X131304484Y-115980158D01*
X131301196Y-115933718D01*
X131304362Y-115914896D01*
X131304362Y-115914893D01*
X131304997Y-115911120D01*
X131305051Y-115906746D01*
X131305086Y-115903825D01*
X131305133Y-115900000D01*
X131286839Y-115772259D01*
X131233428Y-115654788D01*
X131149193Y-115557028D01*
X131143276Y-115553193D01*
X131143274Y-115553191D01*
X131046824Y-115490677D01*
X131040906Y-115486841D01*
X131034150Y-115484821D01*
X131034149Y-115484820D01*
X130970675Y-115465837D01*
X130917273Y-115449866D01*
X130840644Y-115449398D01*
X130795282Y-115449121D01*
X130788231Y-115449078D01*
X130781454Y-115451015D01*
X130781453Y-115451015D01*
X130670935Y-115482601D01*
X130670933Y-115482602D01*
X130664155Y-115484539D01*
X130555019Y-115553399D01*
X130469596Y-115650122D01*
X130414754Y-115766932D01*
X130394901Y-115894440D01*
X128250000Y-115894440D01*
X128250000Y-113394440D01*
X133894901Y-113394440D01*
X133911633Y-113522394D01*
X133914471Y-113528845D01*
X133914472Y-113528847D01*
X133960213Y-113632801D01*
X133963605Y-113640510D01*
X133985164Y-113666157D01*
X134042100Y-113733892D01*
X134042103Y-113733894D01*
X134046639Y-113739291D01*
X134154060Y-113810796D01*
X134160788Y-113812898D01*
X134160790Y-113812899D01*
X134197165Y-113824263D01*
X134277233Y-113849278D01*
X134341744Y-113850460D01*
X134399202Y-113851514D01*
X134399204Y-113851514D01*
X134406255Y-113851643D01*
X134413058Y-113849788D01*
X134413060Y-113849788D01*
X134454828Y-113838400D01*
X134530755Y-113817700D01*
X134640724Y-113750179D01*
X134650579Y-113739291D01*
X134721571Y-113660861D01*
X134774640Y-113630407D01*
X134824491Y-113632801D01*
X134870500Y-113647175D01*
X134870504Y-113647176D01*
X134877233Y-113649278D01*
X134941744Y-113650461D01*
X134999202Y-113651514D01*
X134999204Y-113651514D01*
X135006255Y-113651643D01*
X135013058Y-113649788D01*
X135013060Y-113649788D01*
X135060705Y-113636798D01*
X135130755Y-113617700D01*
X135240724Y-113550179D01*
X135327322Y-113454507D01*
X135383588Y-113338375D01*
X135404997Y-113211120D01*
X135405133Y-113200000D01*
X135386839Y-113072259D01*
X135333428Y-112954788D01*
X135249193Y-112857028D01*
X135243276Y-112853193D01*
X135243274Y-112853191D01*
X135146824Y-112790677D01*
X135140906Y-112786841D01*
X135134150Y-112784821D01*
X135134149Y-112784820D01*
X135091335Y-112772016D01*
X135017273Y-112749866D01*
X134940644Y-112749398D01*
X134895282Y-112749121D01*
X134888231Y-112749078D01*
X134881454Y-112751015D01*
X134881453Y-112751015D01*
X134770935Y-112782601D01*
X134770933Y-112782602D01*
X134764155Y-112784539D01*
X134655019Y-112853399D01*
X134606266Y-112908601D01*
X134579859Y-112938501D01*
X134527167Y-112969601D01*
X134477289Y-112967815D01*
X134417273Y-112949866D01*
X134340644Y-112949398D01*
X134295282Y-112949121D01*
X134288231Y-112949078D01*
X134281454Y-112951015D01*
X134281453Y-112951015D01*
X134170935Y-112982601D01*
X134170933Y-112982602D01*
X134164155Y-112984539D01*
X134158191Y-112988302D01*
X134150133Y-112993386D01*
X134055019Y-113053399D01*
X133969596Y-113150122D01*
X133914754Y-113266932D01*
X133894901Y-113394440D01*
X128250000Y-113394440D01*
X128250000Y-111244440D01*
X133644901Y-111244440D01*
X133645816Y-111251437D01*
X133645816Y-111251438D01*
X133646587Y-111257334D01*
X133661633Y-111372394D01*
X133664471Y-111378845D01*
X133664472Y-111378847D01*
X133710764Y-111484054D01*
X133713605Y-111490510D01*
X133732425Y-111512899D01*
X133792100Y-111583892D01*
X133792103Y-111583894D01*
X133796639Y-111589291D01*
X133904060Y-111660796D01*
X133910788Y-111662898D01*
X133910790Y-111662899D01*
X133965646Y-111680037D01*
X134027233Y-111699278D01*
X134091744Y-111700460D01*
X134149202Y-111701514D01*
X134149204Y-111701514D01*
X134156255Y-111701643D01*
X134163058Y-111699788D01*
X134163060Y-111699788D01*
X134204828Y-111688400D01*
X134280755Y-111667700D01*
X134390724Y-111600179D01*
X134408227Y-111580842D01*
X134472590Y-111509735D01*
X134472590Y-111509734D01*
X134477322Y-111504507D01*
X134533588Y-111388375D01*
X134546131Y-111313821D01*
X134554363Y-111264891D01*
X134554363Y-111264886D01*
X134554997Y-111261120D01*
X134555133Y-111250000D01*
X134536839Y-111122259D01*
X134524190Y-111094440D01*
X136144901Y-111094440D01*
X136145816Y-111101437D01*
X136145816Y-111101438D01*
X136147082Y-111111120D01*
X136161633Y-111222394D01*
X136164471Y-111228845D01*
X136164472Y-111228847D01*
X136203520Y-111317590D01*
X136213605Y-111340510D01*
X136245831Y-111378847D01*
X136292100Y-111433892D01*
X136292103Y-111433894D01*
X136296639Y-111439291D01*
X136404060Y-111510796D01*
X136410788Y-111512898D01*
X136410790Y-111512899D01*
X136465646Y-111530037D01*
X136527233Y-111549278D01*
X136591744Y-111550461D01*
X136649202Y-111551514D01*
X136649204Y-111551514D01*
X136656255Y-111551643D01*
X136663058Y-111549788D01*
X136663060Y-111549788D01*
X136704828Y-111538400D01*
X136780755Y-111517700D01*
X136890724Y-111450179D01*
X136922483Y-111415092D01*
X136972590Y-111359735D01*
X136972590Y-111359734D01*
X136977322Y-111354507D01*
X137024419Y-111257299D01*
X137030512Y-111244724D01*
X137030512Y-111244723D01*
X137033588Y-111238375D01*
X137051948Y-111129243D01*
X137054363Y-111114891D01*
X137054363Y-111114886D01*
X137054997Y-111111120D01*
X137055133Y-111100000D01*
X137036839Y-110972259D01*
X137001688Y-110894948D01*
X136986349Y-110861212D01*
X136986348Y-110861211D01*
X136983428Y-110854788D01*
X136899193Y-110757028D01*
X136893276Y-110753193D01*
X136893274Y-110753191D01*
X136796824Y-110690677D01*
X136790906Y-110686841D01*
X136784151Y-110684821D01*
X136784147Y-110684819D01*
X136758463Y-110677138D01*
X136708129Y-110642350D01*
X136687856Y-110584621D01*
X136705388Y-110526001D01*
X136754027Y-110488881D01*
X136760785Y-110486776D01*
X136830755Y-110467700D01*
X136940724Y-110400179D01*
X137027322Y-110304507D01*
X137083588Y-110188375D01*
X137098285Y-110101015D01*
X137104363Y-110064891D01*
X137104363Y-110064886D01*
X137104997Y-110061120D01*
X137105133Y-110050000D01*
X137086839Y-109922259D01*
X137048457Y-109837843D01*
X137036349Y-109811212D01*
X137036348Y-109811211D01*
X137033428Y-109804788D01*
X136949193Y-109707028D01*
X136943276Y-109703193D01*
X136943274Y-109703191D01*
X136846824Y-109640677D01*
X136840906Y-109636841D01*
X136834150Y-109634821D01*
X136834149Y-109634820D01*
X136791335Y-109622016D01*
X136717273Y-109599866D01*
X136640644Y-109599398D01*
X136595282Y-109599121D01*
X136588231Y-109599078D01*
X136581454Y-109601015D01*
X136581453Y-109601015D01*
X136470935Y-109632601D01*
X136470933Y-109632602D01*
X136464155Y-109634539D01*
X136458191Y-109638302D01*
X136434264Y-109653399D01*
X136355019Y-109703399D01*
X136269596Y-109800122D01*
X136214754Y-109916932D01*
X136194901Y-110044440D01*
X136195816Y-110051437D01*
X136195816Y-110051438D01*
X136197082Y-110061120D01*
X136211633Y-110172394D01*
X136214471Y-110178845D01*
X136214472Y-110178847D01*
X136260764Y-110284054D01*
X136263605Y-110290510D01*
X136280696Y-110310842D01*
X136342100Y-110383892D01*
X136342103Y-110383894D01*
X136346639Y-110389291D01*
X136454060Y-110460796D01*
X136460790Y-110462898D01*
X136460797Y-110462902D01*
X136493035Y-110472974D01*
X136542940Y-110508374D01*
X136562506Y-110566347D01*
X136544259Y-110624748D01*
X136490716Y-110662658D01*
X136414155Y-110684539D01*
X136305019Y-110753399D01*
X136219596Y-110850122D01*
X136164754Y-110966932D01*
X136144901Y-111094440D01*
X134524190Y-111094440D01*
X134483428Y-111004788D01*
X134399193Y-110907028D01*
X134393276Y-110903193D01*
X134393274Y-110903191D01*
X134296824Y-110840677D01*
X134290906Y-110836841D01*
X134284150Y-110834821D01*
X134284149Y-110834820D01*
X134221521Y-110816090D01*
X134167273Y-110799866D01*
X134090644Y-110799398D01*
X134045282Y-110799121D01*
X134038231Y-110799078D01*
X134031454Y-110801015D01*
X134031453Y-110801015D01*
X133920935Y-110832601D01*
X133920933Y-110832602D01*
X133914155Y-110834539D01*
X133805019Y-110903399D01*
X133719596Y-111000122D01*
X133664754Y-111116932D01*
X133644901Y-111244440D01*
X128250000Y-111244440D01*
X128250000Y-99067920D01*
X146870041Y-99067920D01*
X146870539Y-99071064D01*
X146872424Y-99073456D01*
X146933156Y-99125326D01*
X146939436Y-99129888D01*
X147140820Y-99253297D01*
X147147732Y-99256819D01*
X147365952Y-99347209D01*
X147373320Y-99349603D01*
X147603004Y-99404745D01*
X147610647Y-99405956D01*
X147846125Y-99424488D01*
X147853875Y-99424488D01*
X148089353Y-99405956D01*
X148096996Y-99404745D01*
X148326680Y-99349603D01*
X148334048Y-99347209D01*
X148552268Y-99256819D01*
X148559180Y-99253297D01*
X148760564Y-99129888D01*
X148766844Y-99125326D01*
X148823067Y-99077307D01*
X148830037Y-99065934D01*
X148829787Y-99062757D01*
X148828099Y-99060231D01*
X147861086Y-98093218D01*
X147849203Y-98087164D01*
X147844172Y-98087960D01*
X146876095Y-99056037D01*
X146870041Y-99067920D01*
X128250000Y-99067920D01*
X128250000Y-97873875D01*
X146295512Y-97873875D01*
X146314044Y-98109353D01*
X146315255Y-98116996D01*
X146370397Y-98346680D01*
X146372791Y-98354048D01*
X146463181Y-98572268D01*
X146466703Y-98579180D01*
X146590112Y-98780564D01*
X146594674Y-98786844D01*
X146642693Y-98843067D01*
X146654066Y-98850037D01*
X146657243Y-98849787D01*
X146659769Y-98848099D01*
X147779996Y-97727872D01*
X147834513Y-97700095D01*
X147894945Y-97709666D01*
X147920004Y-97727872D01*
X149036037Y-98843905D01*
X149047920Y-98849959D01*
X149051064Y-98849461D01*
X149053456Y-98847576D01*
X149105326Y-98786844D01*
X149109888Y-98780564D01*
X149233297Y-98579180D01*
X149236819Y-98572268D01*
X149327209Y-98354048D01*
X149329603Y-98346680D01*
X149384745Y-98116996D01*
X149385956Y-98109353D01*
X149404488Y-97873875D01*
X149404488Y-97866125D01*
X149385956Y-97630647D01*
X149384745Y-97623004D01*
X149329603Y-97393320D01*
X149327209Y-97385952D01*
X149236819Y-97167732D01*
X149233300Y-97160826D01*
X149109331Y-96958528D01*
X149095047Y-96899033D01*
X149118462Y-96842505D01*
X149146199Y-96819963D01*
X149148221Y-96818856D01*
X149251545Y-96741419D01*
X149261419Y-96731545D01*
X149338857Y-96628219D01*
X149345557Y-96615982D01*
X149391178Y-96494287D01*
X149394029Y-96482298D01*
X149399711Y-96429991D01*
X149400000Y-96424657D01*
X149400000Y-95495680D01*
X149395878Y-95482995D01*
X149391757Y-95480000D01*
X146315680Y-95480000D01*
X146302995Y-95484122D01*
X146300000Y-95488243D01*
X146300000Y-96424657D01*
X146300289Y-96429991D01*
X146305971Y-96482298D01*
X146308822Y-96494287D01*
X146354443Y-96615982D01*
X146361143Y-96628219D01*
X146438581Y-96731545D01*
X146448455Y-96741419D01*
X146551779Y-96818856D01*
X146553801Y-96819963D01*
X146555111Y-96821353D01*
X146557419Y-96823083D01*
X146557119Y-96823484D01*
X146595762Y-96864492D01*
X146603537Y-96925182D01*
X146590669Y-96958528D01*
X146466700Y-97160826D01*
X146463181Y-97167732D01*
X146372791Y-97385952D01*
X146370397Y-97393320D01*
X146315255Y-97623004D01*
X146314044Y-97630647D01*
X146295512Y-97866125D01*
X146295512Y-97873875D01*
X128250000Y-97873875D01*
X128250000Y-95164320D01*
X146300000Y-95164320D01*
X146304122Y-95177005D01*
X146308243Y-95180000D01*
X147684320Y-95180000D01*
X147697005Y-95175878D01*
X147700000Y-95171757D01*
X147700000Y-95164320D01*
X148000000Y-95164320D01*
X148004122Y-95177005D01*
X148008243Y-95180000D01*
X149384320Y-95180000D01*
X149397005Y-95175878D01*
X149400000Y-95171757D01*
X149400000Y-94235343D01*
X149399711Y-94230009D01*
X149394029Y-94177702D01*
X149391178Y-94165713D01*
X149345557Y-94044018D01*
X149338857Y-94031781D01*
X149261419Y-93928455D01*
X149251545Y-93918581D01*
X149148219Y-93841143D01*
X149135982Y-93834443D01*
X149014287Y-93788822D01*
X149002298Y-93785971D01*
X148949991Y-93780289D01*
X148944657Y-93780000D01*
X148015680Y-93780000D01*
X148002995Y-93784122D01*
X148000000Y-93788243D01*
X148000000Y-95164320D01*
X147700000Y-95164320D01*
X147700000Y-93795680D01*
X147695878Y-93782995D01*
X147691757Y-93780000D01*
X146755343Y-93780000D01*
X146750009Y-93780289D01*
X146697702Y-93785971D01*
X146685713Y-93788822D01*
X146564018Y-93834443D01*
X146551781Y-93841143D01*
X146448455Y-93918581D01*
X146438581Y-93928455D01*
X146361143Y-94031781D01*
X146354443Y-94044018D01*
X146308822Y-94165713D01*
X146305971Y-94177702D01*
X146300289Y-94230009D01*
X146300000Y-94235343D01*
X146300000Y-95164320D01*
X128250000Y-95164320D01*
X128250000Y-92534376D01*
X128251902Y-92515062D01*
X128252996Y-92509562D01*
X128254898Y-92500000D01*
X128252996Y-92490438D01*
X128252996Y-92480685D01*
X128253639Y-92480685D01*
X128253062Y-92468914D01*
X128263455Y-92363387D01*
X128267241Y-92344352D01*
X128279527Y-92303852D01*
X128304260Y-92222317D01*
X128311686Y-92204388D01*
X128360784Y-92112534D01*
X128371803Y-92091918D01*
X128382584Y-92075784D01*
X128463487Y-91977204D01*
X128477204Y-91963487D01*
X128575786Y-91882583D01*
X128591920Y-91871802D01*
X128704391Y-91811685D01*
X128722317Y-91804260D01*
X128844354Y-91767241D01*
X128863386Y-91763455D01*
X128893655Y-91760474D01*
X128968914Y-91753062D01*
X128980685Y-91753639D01*
X128980685Y-91752996D01*
X128990438Y-91752996D01*
X129000000Y-91754898D01*
X129009562Y-91752996D01*
X129015062Y-91751902D01*
X129034376Y-91750000D01*
X150965624Y-91750000D01*
X150984938Y-91751902D01*
G37*
%TD.AperFunction*%
%TD*%
M02*
