%TF.GenerationSoftware,KiCad,Pcbnew,(6.0.0)*%
%TF.CreationDate,2022-08-13T16:18:09-04:00*%
%TF.ProjectId,eib-24-nanoz-adapter,6569622d-3234-42d6-9e61-6e6f7a2d6164,A*%
%TF.SameCoordinates,Original*%
%TF.FileFunction,Soldermask,Bot*%
%TF.FilePolarity,Negative*%
%FSLAX46Y46*%
G04 Gerber Fmt 4.6, Leading zero omitted, Abs format (unit mm)*
G04 Created by KiCad (PCBNEW (6.0.0)) date 2022-08-13 16:18:09*
%MOMM*%
%LPD*%
G01*
G04 APERTURE LIST*
%ADD10C,2.100000*%
%ADD11R,2.100000X2.100000*%
%ADD12R,0.990000X0.990000*%
%ADD13C,0.990000*%
G04 APERTURE END LIST*
D10*
%TO.C,J1*%
X147850000Y-97870000D03*
D11*
X147850000Y-95330000D03*
%TD*%
D12*
%TO.C,J4*%
X138095000Y-121285000D03*
D13*
X138095000Y-122555000D03*
X138095000Y-123825000D03*
X138095000Y-125095000D03*
X138095000Y-126365000D03*
X138095000Y-127635000D03*
X138095000Y-128905000D03*
X138095000Y-130175000D03*
X138095000Y-131445000D03*
X138095000Y-132715000D03*
X139365000Y-121285000D03*
X139365000Y-122555000D03*
X139365000Y-123825000D03*
X139365000Y-125095000D03*
X139365000Y-126365000D03*
X139365000Y-127635000D03*
X139365000Y-128905000D03*
X139365000Y-130175000D03*
X139365000Y-131445000D03*
X139365000Y-132715000D03*
X140635000Y-121285000D03*
X140635000Y-122555000D03*
X140635000Y-123825000D03*
X140635000Y-125095000D03*
X140635000Y-126365000D03*
X140635000Y-127635000D03*
X140635000Y-128905000D03*
X140635000Y-130175000D03*
X140635000Y-131445000D03*
X140635000Y-132715000D03*
X141905000Y-121285000D03*
X141905000Y-122555000D03*
X141905000Y-123825000D03*
X141905000Y-125095000D03*
X141905000Y-126365000D03*
X141905000Y-127635000D03*
X141905000Y-128905000D03*
X141905000Y-130175000D03*
X141905000Y-131445000D03*
X141905000Y-132715000D03*
%TD*%
%TO.C,J3*%
X141905000Y-115715000D03*
X141905000Y-114445000D03*
X141905000Y-113175000D03*
X141905000Y-111905000D03*
X141905000Y-110635000D03*
X141905000Y-109365000D03*
X141905000Y-108095000D03*
X141905000Y-106825000D03*
X141905000Y-105555000D03*
X141905000Y-104285000D03*
X140635000Y-115715000D03*
X140635000Y-114445000D03*
X140635000Y-113175000D03*
X140635000Y-111905000D03*
X140635000Y-110635000D03*
X140635000Y-109365000D03*
X140635000Y-108095000D03*
X140635000Y-106825000D03*
X140635000Y-105555000D03*
X140635000Y-104285000D03*
X139365000Y-115715000D03*
X139365000Y-114445000D03*
X139365000Y-113175000D03*
X139365000Y-111905000D03*
X139365000Y-110635000D03*
X139365000Y-109365000D03*
X139365000Y-108095000D03*
X139365000Y-106825000D03*
X139365000Y-105555000D03*
X139365000Y-104285000D03*
X138095000Y-115715000D03*
X138095000Y-114445000D03*
X138095000Y-113175000D03*
X138095000Y-111905000D03*
X138095000Y-110635000D03*
X138095000Y-109365000D03*
X138095000Y-108095000D03*
X138095000Y-106825000D03*
X138095000Y-105555000D03*
D12*
X138095000Y-104285000D03*
%TD*%
M02*
