%TF.GenerationSoftware,KiCad,Pcbnew,(6.0.0)*%
%TF.CreationDate,2022-11-29T13:54:36-05:00*%
%TF.ProjectId,pupdrive-eib24_panel,70757064-7269-4766-952d-65696232345f,B*%
%TF.SameCoordinates,Original*%
%TF.FileFunction,Copper,L2,Bot*%
%TF.FilePolarity,Positive*%
%FSLAX46Y46*%
G04 Gerber Fmt 4.6, Leading zero omitted, Abs format (unit mm)*
G04 Created by KiCad (PCBNEW (6.0.0)) date 2022-11-29 13:54:36*
%MOMM*%
%LPD*%
G01*
G04 APERTURE LIST*
G04 Aperture macros list*
%AMRoundRect*
0 Rectangle with rounded corners*
0 $1 Rounding radius*
0 $2 $3 $4 $5 $6 $7 $8 $9 X,Y pos of 4 corners*
0 Add a 4 corners polygon primitive as box body*
4,1,4,$2,$3,$4,$5,$6,$7,$8,$9,$2,$3,0*
0 Add four circle primitives for the rounded corners*
1,1,$1+$1,$2,$3*
1,1,$1+$1,$4,$5*
1,1,$1+$1,$6,$7*
1,1,$1+$1,$8,$9*
0 Add four rect primitives between the rounded corners*
20,1,$1+$1,$2,$3,$4,$5,0*
20,1,$1+$1,$4,$5,$6,$7,0*
20,1,$1+$1,$6,$7,$8,$9,0*
20,1,$1+$1,$8,$9,$2,$3,0*%
G04 Aperture macros list end*
%TA.AperFunction,ComponentPad*%
%ADD10C,0.420000*%
%TD*%
%TA.AperFunction,SMDPad,CuDef*%
%ADD11RoundRect,0.008000X-0.072000X-0.212000X0.072000X-0.212000X0.072000X0.212000X-0.072000X0.212000X0*%
%TD*%
%TA.AperFunction,SMDPad,CuDef*%
%ADD12RoundRect,0.010500X-0.094500X-0.229500X0.094500X-0.229500X0.094500X0.229500X-0.094500X0.229500X0*%
%TD*%
%TA.AperFunction,ComponentPad*%
%ADD13C,6.400000*%
%TD*%
%TA.AperFunction,Conductor*%
%ADD14C,0.076200*%
%TD*%
G04 APERTURE END LIST*
D10*
%TO.P,TP12,1,1*%
%TO.N,/E18*%
X96008579Y-67092088D03*
%TD*%
%TO.P,TP14,1,1*%
%TO.N,/E19*%
X120408579Y-67092088D03*
%TD*%
%TO.P,TP13,1,1*%
%TO.N,/E6*%
X146008579Y-64092088D03*
%TD*%
%TO.P,TP24,1,1*%
%TO.N,/E24*%
X168708579Y-66492088D03*
%TD*%
D11*
%TO.P,J2,1,Pin_1*%
%TO.N,/E24*%
X93783579Y-68082088D03*
%TO.P,J2,3,Pin_3*%
%TO.N,/E23*%
X94133579Y-68082088D03*
%TO.P,J2,5,Pin_5*%
%TO.N,/E22*%
X94483579Y-68082088D03*
%TO.P,J2,7,Pin_7*%
%TO.N,/E21*%
X94833579Y-68082088D03*
%TO.P,J2,9,Pin_9*%
%TO.N,/E20*%
X95183579Y-68082088D03*
%TO.P,J2,11,Pin_11*%
%TO.N,/E19*%
X95533579Y-68082088D03*
%TO.P,J2,13,Pin_13*%
%TO.N,/E18*%
X95883579Y-68082088D03*
%TO.P,J2,15,Pin_15*%
%TO.N,/E17*%
X96233579Y-68082088D03*
%TO.P,J2,17,Pin_17*%
%TO.N,/E16*%
X96583579Y-68082088D03*
%TO.P,J2,19,Pin_19*%
%TO.N,/E15*%
X96933579Y-68082088D03*
%TO.P,J2,21,Pin_21*%
%TO.N,/E14*%
X97283579Y-68082088D03*
%TO.P,J2,23,Pin_23*%
%TO.N,/E13*%
X97633579Y-68082088D03*
D12*
%TO.P,J2,MP1,MountPin1*%
%TO.N,GNDA*%
X93408579Y-68227088D03*
%TO.P,J2,MP3,MountPin3*%
%TO.N,/REF*%
X98008579Y-68227088D03*
%TD*%
D11*
%TO.P,J2,1,Pin_1*%
%TO.N,/E24*%
X168783579Y-68082088D03*
%TO.P,J2,3,Pin_3*%
%TO.N,/E23*%
X169133579Y-68082088D03*
%TO.P,J2,5,Pin_5*%
%TO.N,/E22*%
X169483579Y-68082088D03*
%TO.P,J2,7,Pin_7*%
%TO.N,/E21*%
X169833579Y-68082088D03*
%TO.P,J2,9,Pin_9*%
%TO.N,/E20*%
X170183579Y-68082088D03*
%TO.P,J2,11,Pin_11*%
%TO.N,/E19*%
X170533579Y-68082088D03*
%TO.P,J2,13,Pin_13*%
%TO.N,/E18*%
X170883579Y-68082088D03*
%TO.P,J2,15,Pin_15*%
%TO.N,/E17*%
X171233579Y-68082088D03*
%TO.P,J2,17,Pin_17*%
%TO.N,/E16*%
X171583579Y-68082088D03*
%TO.P,J2,19,Pin_19*%
%TO.N,/E15*%
X171933579Y-68082088D03*
%TO.P,J2,21,Pin_21*%
%TO.N,/E14*%
X172283579Y-68082088D03*
%TO.P,J2,23,Pin_23*%
%TO.N,/E13*%
X172633579Y-68082088D03*
D12*
%TO.P,J2,MP1,MountPin1*%
%TO.N,GNDA*%
X168408579Y-68227088D03*
%TO.P,J2,MP3,MountPin3*%
%TO.N,/REF*%
X173008579Y-68227088D03*
%TD*%
D11*
%TO.P,J2,1,Pin_1*%
%TO.N,/E24*%
X143783579Y-68082088D03*
%TO.P,J2,3,Pin_3*%
%TO.N,/E23*%
X144133579Y-68082088D03*
%TO.P,J2,5,Pin_5*%
%TO.N,/E22*%
X144483579Y-68082088D03*
%TO.P,J2,7,Pin_7*%
%TO.N,/E21*%
X144833579Y-68082088D03*
%TO.P,J2,9,Pin_9*%
%TO.N,/E20*%
X145183579Y-68082088D03*
%TO.P,J2,11,Pin_11*%
%TO.N,/E19*%
X145533579Y-68082088D03*
%TO.P,J2,13,Pin_13*%
%TO.N,/E18*%
X145883579Y-68082088D03*
%TO.P,J2,15,Pin_15*%
%TO.N,/E17*%
X146233579Y-68082088D03*
%TO.P,J2,17,Pin_17*%
%TO.N,/E16*%
X146583579Y-68082088D03*
%TO.P,J2,19,Pin_19*%
%TO.N,/E15*%
X146933579Y-68082088D03*
%TO.P,J2,21,Pin_21*%
%TO.N,/E14*%
X147283579Y-68082088D03*
%TO.P,J2,23,Pin_23*%
%TO.N,/E13*%
X147633579Y-68082088D03*
D12*
%TO.P,J2,MP1,MountPin1*%
%TO.N,GNDA*%
X143408579Y-68227088D03*
%TO.P,J2,MP3,MountPin3*%
%TO.N,/REF*%
X148008579Y-68227088D03*
%TD*%
D11*
%TO.P,J2,1,Pin_1*%
%TO.N,/E24*%
X118783579Y-68082088D03*
%TO.P,J2,3,Pin_3*%
%TO.N,/E23*%
X119133579Y-68082088D03*
%TO.P,J2,5,Pin_5*%
%TO.N,/E22*%
X119483579Y-68082088D03*
%TO.P,J2,7,Pin_7*%
%TO.N,/E21*%
X119833579Y-68082088D03*
%TO.P,J2,9,Pin_9*%
%TO.N,/E20*%
X120183579Y-68082088D03*
%TO.P,J2,11,Pin_11*%
%TO.N,/E19*%
X120533579Y-68082088D03*
%TO.P,J2,13,Pin_13*%
%TO.N,/E18*%
X120883579Y-68082088D03*
%TO.P,J2,15,Pin_15*%
%TO.N,/E17*%
X121233579Y-68082088D03*
%TO.P,J2,17,Pin_17*%
%TO.N,/E16*%
X121583579Y-68082088D03*
%TO.P,J2,19,Pin_19*%
%TO.N,/E15*%
X121933579Y-68082088D03*
%TO.P,J2,21,Pin_21*%
%TO.N,/E14*%
X122283579Y-68082088D03*
%TO.P,J2,23,Pin_23*%
%TO.N,/E13*%
X122633579Y-68082088D03*
D12*
%TO.P,J2,MP1,MountPin1*%
%TO.N,GNDA*%
X118408579Y-68227088D03*
%TO.P,J2,MP3,MountPin3*%
%TO.N,/REF*%
X123008579Y-68227088D03*
%TD*%
D10*
%TO.P,TP17,1,1*%
%TO.N,/E8*%
X120408579Y-63392088D03*
%TD*%
%TO.P,TP6,1,1*%
%TO.N,/E2*%
X172308579Y-64092088D03*
%TD*%
%TO.P,TP21,1,1*%
%TO.N,/E10*%
X94808579Y-63392088D03*
%TD*%
%TO.P,TP4,1,1*%
%TO.N,/REF*%
X122708579Y-67092088D03*
%TD*%
%TO.P,TP16,1,1*%
%TO.N,/E20*%
X170408579Y-66492088D03*
%TD*%
%TO.P,TP23,1,1*%
%TO.N,/E11*%
X169108579Y-64092088D03*
%TD*%
%TO.P,TP6,1,1*%
%TO.N,/E2*%
X122308579Y-64092088D03*
%TD*%
%TO.P,TP3,1,1*%
%TO.N,/E15*%
X122708579Y-65292088D03*
%TD*%
%TO.P,TP3,1,1*%
%TO.N,/E15*%
X97708579Y-65292088D03*
%TD*%
%TO.P,TP4,1,1*%
%TO.N,/REF*%
X97708579Y-67092088D03*
%TD*%
%TO.P,TP18,1,1*%
%TO.N,/E21*%
X118708579Y-64692088D03*
%TD*%
%TO.P,TP17,1,1*%
%TO.N,/E8*%
X145408579Y-63392088D03*
%TD*%
%TO.P,TP1,1,1*%
%TO.N,/E13*%
X122708579Y-66492088D03*
%TD*%
%TO.P,TP7,1,1*%
%TO.N,/E3*%
X146608579Y-63392088D03*
%TD*%
%TO.P,TP7,1,1*%
%TO.N,/E3*%
X171608579Y-63392088D03*
%TD*%
%TO.P,TP15,1,1*%
%TO.N,/E7*%
X95408579Y-64092088D03*
%TD*%
%TO.P,TP8,1,1*%
%TO.N,/E16*%
X97708579Y-64692088D03*
%TD*%
%TO.P,TP2,1,1*%
%TO.N,/E14*%
X172708579Y-65892088D03*
%TD*%
%TO.P,TP24,1,1*%
%TO.N,/E24*%
X93708579Y-66492088D03*
%TD*%
%TO.P,TP26,1,1*%
%TO.N,GNDA*%
X93708579Y-67092088D03*
%TD*%
%TO.P,TP7,1,1*%
%TO.N,/E3*%
X96608579Y-63392088D03*
%TD*%
%TO.P,TP3,1,1*%
%TO.N,/E15*%
X147708579Y-65292088D03*
%TD*%
%TO.P,TP4,1,1*%
%TO.N,/REF*%
X147708579Y-67092088D03*
%TD*%
%TO.P,TP20,1,1*%
%TO.N,/E22*%
X168708579Y-65292088D03*
%TD*%
%TO.P,TP9,1,1*%
%TO.N,/E4*%
X121658579Y-64092088D03*
%TD*%
%TO.P,TP13,1,1*%
%TO.N,/E6*%
X171008579Y-64092088D03*
%TD*%
%TO.P,TP13,1,1*%
%TO.N,/E6*%
X96008579Y-64092088D03*
%TD*%
%TO.P,TP5,1,1*%
%TO.N,/E1*%
X97208579Y-63392088D03*
%TD*%
%TO.P,TP1,1,1*%
%TO.N,/E13*%
X147708579Y-66492088D03*
%TD*%
%TO.P,TP26,1,1*%
%TO.N,GNDA*%
X168708579Y-67092088D03*
%TD*%
%TO.P,TP3,1,1*%
%TO.N,/E15*%
X172708579Y-65292088D03*
%TD*%
%TO.P,TP4,1,1*%
%TO.N,/REF*%
X172708579Y-67092088D03*
%TD*%
%TO.P,TP1,1,1*%
%TO.N,/E13*%
X97708579Y-66492088D03*
%TD*%
%TO.P,TP12,1,1*%
%TO.N,/E18*%
X121008579Y-67092088D03*
%TD*%
%TO.P,TP13,1,1*%
%TO.N,/E6*%
X121008579Y-64092088D03*
%TD*%
%TO.P,TP5,1,1*%
%TO.N,/E1*%
X122208579Y-63392088D03*
%TD*%
%TO.P,TP20,1,1*%
%TO.N,/E22*%
X118708579Y-65292088D03*
%TD*%
%TO.P,TP24,1,1*%
%TO.N,/E24*%
X118708579Y-66492088D03*
%TD*%
%TO.P,TP19,1,1*%
%TO.N,/E9*%
X144758579Y-64092088D03*
%TD*%
%TO.P,TP24,1,1*%
%TO.N,/E24*%
X143708579Y-66492088D03*
%TD*%
%TO.P,TP22,1,1*%
%TO.N,/E23*%
X143708579Y-65892088D03*
%TD*%
%TO.P,TP20,1,1*%
%TO.N,/E22*%
X93708579Y-65292088D03*
%TD*%
%TO.P,TP25,1,1*%
%TO.N,/E12*%
X119208579Y-63392088D03*
%TD*%
%TO.P,TP7,1,1*%
%TO.N,/E3*%
X121608579Y-63392088D03*
%TD*%
%TO.P,TP23,1,1*%
%TO.N,/E11*%
X119108579Y-64092088D03*
%TD*%
%TO.P,TP12,1,1*%
%TO.N,/E18*%
X171008579Y-67092088D03*
%TD*%
%TO.P,TP15,1,1*%
%TO.N,/E7*%
X120408579Y-64092088D03*
%TD*%
%TO.P,TP11,1,1*%
%TO.N,/E5*%
X121008579Y-63392088D03*
%TD*%
%TO.P,TP5,1,1*%
%TO.N,/E1*%
X147208579Y-63392088D03*
%TD*%
%TO.P,TP8,1,1*%
%TO.N,/E16*%
X147708579Y-64692088D03*
%TD*%
%TO.P,TP2,1,1*%
%TO.N,/E14*%
X97708579Y-65892088D03*
%TD*%
%TO.P,TP19,1,1*%
%TO.N,/E9*%
X169758579Y-64092088D03*
%TD*%
%TO.P,TP26,1,1*%
%TO.N,GNDA*%
X143708579Y-67092088D03*
%TD*%
%TO.P,TP14,1,1*%
%TO.N,/E19*%
X145408579Y-67092088D03*
%TD*%
%TO.P,TP20,1,1*%
%TO.N,/E22*%
X143708579Y-65292088D03*
%TD*%
%TO.P,TP19,1,1*%
%TO.N,/E9*%
X94758579Y-64092088D03*
%TD*%
%TO.P,TP18,1,1*%
%TO.N,/E21*%
X168708579Y-64692088D03*
%TD*%
%TO.P,TP23,1,1*%
%TO.N,/E11*%
X144108579Y-64092088D03*
%TD*%
%TO.P,TP21,1,1*%
%TO.N,/E10*%
X119808579Y-63392088D03*
%TD*%
%TO.P,TP9,1,1*%
%TO.N,/E4*%
X171658579Y-64092088D03*
%TD*%
%TO.P,TP25,1,1*%
%TO.N,/E12*%
X144208579Y-63392088D03*
%TD*%
%TO.P,TP10,1,1*%
%TO.N,/E17*%
X121008579Y-66492088D03*
%TD*%
%TO.P,TP25,1,1*%
%TO.N,/E12*%
X94208579Y-63392088D03*
%TD*%
%TO.P,TP12,1,1*%
%TO.N,/E18*%
X146008579Y-67092088D03*
%TD*%
%TO.P,TP11,1,1*%
%TO.N,/E5*%
X171008579Y-63392088D03*
%TD*%
%TO.P,TP15,1,1*%
%TO.N,/E7*%
X170408579Y-64092088D03*
%TD*%
%TO.P,TP17,1,1*%
%TO.N,/E8*%
X170408579Y-63392088D03*
%TD*%
%TO.P,TP10,1,1*%
%TO.N,/E17*%
X96008579Y-66492088D03*
%TD*%
%TO.P,TP15,1,1*%
%TO.N,/E7*%
X145408579Y-64092088D03*
%TD*%
%TO.P,TP17,1,1*%
%TO.N,/E8*%
X95408579Y-63392088D03*
%TD*%
%TO.P,TP6,1,1*%
%TO.N,/E2*%
X147308579Y-64092088D03*
%TD*%
%TO.P,TP14,1,1*%
%TO.N,/E19*%
X95408579Y-67092088D03*
%TD*%
%TO.P,TP5,1,1*%
%TO.N,/E1*%
X172208579Y-63392088D03*
%TD*%
%TO.P,TP8,1,1*%
%TO.N,/E16*%
X172708579Y-64692088D03*
%TD*%
%TO.P,TP9,1,1*%
%TO.N,/E4*%
X146658579Y-64092088D03*
%TD*%
%TO.P,TP2,1,1*%
%TO.N,/E14*%
X147708579Y-65892088D03*
%TD*%
%TO.P,TP2,1,1*%
%TO.N,/E14*%
X122708579Y-65892088D03*
%TD*%
%TO.P,TP8,1,1*%
%TO.N,/E16*%
X122708579Y-64692088D03*
%TD*%
%TO.P,TP11,1,1*%
%TO.N,/E5*%
X96008579Y-63392088D03*
%TD*%
%TO.P,TP6,1,1*%
%TO.N,/E2*%
X97308579Y-64092088D03*
%TD*%
%TO.P,TP22,1,1*%
%TO.N,/E23*%
X118708579Y-65892088D03*
%TD*%
%TO.P,TP10,1,1*%
%TO.N,/E17*%
X171008579Y-66492088D03*
%TD*%
%TO.P,TP26,1,1*%
%TO.N,GNDA*%
X118708579Y-67092088D03*
%TD*%
%TO.P,TP19,1,1*%
%TO.N,/E9*%
X119758579Y-64092088D03*
%TD*%
%TO.P,TP22,1,1*%
%TO.N,/E23*%
X168708579Y-65892088D03*
%TD*%
%TO.P,TP1,1,1*%
%TO.N,/E13*%
X172708579Y-66492088D03*
%TD*%
%TO.P,TP14,1,1*%
%TO.N,/E19*%
X170408579Y-67092088D03*
%TD*%
%TO.P,TP10,1,1*%
%TO.N,/E17*%
X146008579Y-66492088D03*
%TD*%
%TO.P,TP16,1,1*%
%TO.N,/E20*%
X120408579Y-66492088D03*
%TD*%
%TO.P,TP16,1,1*%
%TO.N,/E20*%
X145408579Y-66492088D03*
%TD*%
%TO.P,TP25,1,1*%
%TO.N,/E12*%
X169208579Y-63392088D03*
%TD*%
%TO.P,TP11,1,1*%
%TO.N,/E5*%
X146008579Y-63392088D03*
%TD*%
%TO.P,TP18,1,1*%
%TO.N,/E21*%
X93708579Y-64692088D03*
%TD*%
%TO.P,TP23,1,1*%
%TO.N,/E11*%
X94108579Y-64092088D03*
%TD*%
%TO.P,TP18,1,1*%
%TO.N,/E21*%
X143708579Y-64692088D03*
%TD*%
%TO.P,TP22,1,1*%
%TO.N,/E23*%
X93708579Y-65892088D03*
%TD*%
%TO.P,TP21,1,1*%
%TO.N,/E10*%
X169808579Y-63392088D03*
%TD*%
%TO.P,TP21,1,1*%
%TO.N,/E10*%
X144808579Y-63392088D03*
%TD*%
%TO.P,TP9,1,1*%
%TO.N,/E4*%
X96658579Y-64092088D03*
%TD*%
%TO.P,TP16,1,1*%
%TO.N,/E20*%
X95408579Y-66492088D03*
%TD*%
%TO.P,TP12,1,1*%
%TO.N,/E18*%
X96008579Y-92092088D03*
%TD*%
%TO.P,TP14,1,1*%
%TO.N,/E19*%
X120408579Y-92092088D03*
%TD*%
%TO.P,TP13,1,1*%
%TO.N,/E6*%
X146008579Y-89092088D03*
%TD*%
%TO.P,TP24,1,1*%
%TO.N,/E24*%
X168708579Y-91492088D03*
%TD*%
D11*
%TO.P,J2,1,Pin_1*%
%TO.N,/E24*%
X93783579Y-93082088D03*
%TO.P,J2,3,Pin_3*%
%TO.N,/E23*%
X94133579Y-93082088D03*
%TO.P,J2,5,Pin_5*%
%TO.N,/E22*%
X94483579Y-93082088D03*
%TO.P,J2,7,Pin_7*%
%TO.N,/E21*%
X94833579Y-93082088D03*
%TO.P,J2,9,Pin_9*%
%TO.N,/E20*%
X95183579Y-93082088D03*
%TO.P,J2,11,Pin_11*%
%TO.N,/E19*%
X95533579Y-93082088D03*
%TO.P,J2,13,Pin_13*%
%TO.N,/E18*%
X95883579Y-93082088D03*
%TO.P,J2,15,Pin_15*%
%TO.N,/E17*%
X96233579Y-93082088D03*
%TO.P,J2,17,Pin_17*%
%TO.N,/E16*%
X96583579Y-93082088D03*
%TO.P,J2,19,Pin_19*%
%TO.N,/E15*%
X96933579Y-93082088D03*
%TO.P,J2,21,Pin_21*%
%TO.N,/E14*%
X97283579Y-93082088D03*
%TO.P,J2,23,Pin_23*%
%TO.N,/E13*%
X97633579Y-93082088D03*
D12*
%TO.P,J2,MP1,MountPin1*%
%TO.N,GNDA*%
X93408579Y-93227088D03*
%TO.P,J2,MP3,MountPin3*%
%TO.N,/REF*%
X98008579Y-93227088D03*
%TD*%
D11*
%TO.P,J2,1,Pin_1*%
%TO.N,/E24*%
X168783579Y-93082088D03*
%TO.P,J2,3,Pin_3*%
%TO.N,/E23*%
X169133579Y-93082088D03*
%TO.P,J2,5,Pin_5*%
%TO.N,/E22*%
X169483579Y-93082088D03*
%TO.P,J2,7,Pin_7*%
%TO.N,/E21*%
X169833579Y-93082088D03*
%TO.P,J2,9,Pin_9*%
%TO.N,/E20*%
X170183579Y-93082088D03*
%TO.P,J2,11,Pin_11*%
%TO.N,/E19*%
X170533579Y-93082088D03*
%TO.P,J2,13,Pin_13*%
%TO.N,/E18*%
X170883579Y-93082088D03*
%TO.P,J2,15,Pin_15*%
%TO.N,/E17*%
X171233579Y-93082088D03*
%TO.P,J2,17,Pin_17*%
%TO.N,/E16*%
X171583579Y-93082088D03*
%TO.P,J2,19,Pin_19*%
%TO.N,/E15*%
X171933579Y-93082088D03*
%TO.P,J2,21,Pin_21*%
%TO.N,/E14*%
X172283579Y-93082088D03*
%TO.P,J2,23,Pin_23*%
%TO.N,/E13*%
X172633579Y-93082088D03*
D12*
%TO.P,J2,MP1,MountPin1*%
%TO.N,GNDA*%
X168408579Y-93227088D03*
%TO.P,J2,MP3,MountPin3*%
%TO.N,/REF*%
X173008579Y-93227088D03*
%TD*%
D11*
%TO.P,J2,1,Pin_1*%
%TO.N,/E24*%
X143783579Y-93082088D03*
%TO.P,J2,3,Pin_3*%
%TO.N,/E23*%
X144133579Y-93082088D03*
%TO.P,J2,5,Pin_5*%
%TO.N,/E22*%
X144483579Y-93082088D03*
%TO.P,J2,7,Pin_7*%
%TO.N,/E21*%
X144833579Y-93082088D03*
%TO.P,J2,9,Pin_9*%
%TO.N,/E20*%
X145183579Y-93082088D03*
%TO.P,J2,11,Pin_11*%
%TO.N,/E19*%
X145533579Y-93082088D03*
%TO.P,J2,13,Pin_13*%
%TO.N,/E18*%
X145883579Y-93082088D03*
%TO.P,J2,15,Pin_15*%
%TO.N,/E17*%
X146233579Y-93082088D03*
%TO.P,J2,17,Pin_17*%
%TO.N,/E16*%
X146583579Y-93082088D03*
%TO.P,J2,19,Pin_19*%
%TO.N,/E15*%
X146933579Y-93082088D03*
%TO.P,J2,21,Pin_21*%
%TO.N,/E14*%
X147283579Y-93082088D03*
%TO.P,J2,23,Pin_23*%
%TO.N,/E13*%
X147633579Y-93082088D03*
D12*
%TO.P,J2,MP1,MountPin1*%
%TO.N,GNDA*%
X143408579Y-93227088D03*
%TO.P,J2,MP3,MountPin3*%
%TO.N,/REF*%
X148008579Y-93227088D03*
%TD*%
D11*
%TO.P,J2,1,Pin_1*%
%TO.N,/E24*%
X118783579Y-93082088D03*
%TO.P,J2,3,Pin_3*%
%TO.N,/E23*%
X119133579Y-93082088D03*
%TO.P,J2,5,Pin_5*%
%TO.N,/E22*%
X119483579Y-93082088D03*
%TO.P,J2,7,Pin_7*%
%TO.N,/E21*%
X119833579Y-93082088D03*
%TO.P,J2,9,Pin_9*%
%TO.N,/E20*%
X120183579Y-93082088D03*
%TO.P,J2,11,Pin_11*%
%TO.N,/E19*%
X120533579Y-93082088D03*
%TO.P,J2,13,Pin_13*%
%TO.N,/E18*%
X120883579Y-93082088D03*
%TO.P,J2,15,Pin_15*%
%TO.N,/E17*%
X121233579Y-93082088D03*
%TO.P,J2,17,Pin_17*%
%TO.N,/E16*%
X121583579Y-93082088D03*
%TO.P,J2,19,Pin_19*%
%TO.N,/E15*%
X121933579Y-93082088D03*
%TO.P,J2,21,Pin_21*%
%TO.N,/E14*%
X122283579Y-93082088D03*
%TO.P,J2,23,Pin_23*%
%TO.N,/E13*%
X122633579Y-93082088D03*
D12*
%TO.P,J2,MP1,MountPin1*%
%TO.N,GNDA*%
X118408579Y-93227088D03*
%TO.P,J2,MP3,MountPin3*%
%TO.N,/REF*%
X123008579Y-93227088D03*
%TD*%
D10*
%TO.P,TP17,1,1*%
%TO.N,/E8*%
X120408579Y-88392088D03*
%TD*%
%TO.P,TP6,1,1*%
%TO.N,/E2*%
X172308579Y-89092088D03*
%TD*%
%TO.P,TP21,1,1*%
%TO.N,/E10*%
X94808579Y-88392088D03*
%TD*%
%TO.P,TP4,1,1*%
%TO.N,/REF*%
X122708579Y-92092088D03*
%TD*%
%TO.P,TP16,1,1*%
%TO.N,/E20*%
X170408579Y-91492088D03*
%TD*%
%TO.P,TP23,1,1*%
%TO.N,/E11*%
X169108579Y-89092088D03*
%TD*%
%TO.P,TP6,1,1*%
%TO.N,/E2*%
X122308579Y-89092088D03*
%TD*%
%TO.P,TP3,1,1*%
%TO.N,/E15*%
X122708579Y-90292088D03*
%TD*%
%TO.P,TP3,1,1*%
%TO.N,/E15*%
X97708579Y-90292088D03*
%TD*%
%TO.P,TP4,1,1*%
%TO.N,/REF*%
X97708579Y-92092088D03*
%TD*%
%TO.P,TP18,1,1*%
%TO.N,/E21*%
X118708579Y-89692088D03*
%TD*%
%TO.P,TP17,1,1*%
%TO.N,/E8*%
X145408579Y-88392088D03*
%TD*%
%TO.P,TP1,1,1*%
%TO.N,/E13*%
X122708579Y-91492088D03*
%TD*%
%TO.P,TP7,1,1*%
%TO.N,/E3*%
X146608579Y-88392088D03*
%TD*%
%TO.P,TP7,1,1*%
%TO.N,/E3*%
X171608579Y-88392088D03*
%TD*%
%TO.P,TP15,1,1*%
%TO.N,/E7*%
X95408579Y-89092088D03*
%TD*%
%TO.P,TP8,1,1*%
%TO.N,/E16*%
X97708579Y-89692088D03*
%TD*%
%TO.P,TP2,1,1*%
%TO.N,/E14*%
X172708579Y-90892088D03*
%TD*%
%TO.P,TP24,1,1*%
%TO.N,/E24*%
X93708579Y-91492088D03*
%TD*%
%TO.P,TP26,1,1*%
%TO.N,GNDA*%
X93708579Y-92092088D03*
%TD*%
%TO.P,TP7,1,1*%
%TO.N,/E3*%
X96608579Y-88392088D03*
%TD*%
%TO.P,TP3,1,1*%
%TO.N,/E15*%
X147708579Y-90292088D03*
%TD*%
%TO.P,TP4,1,1*%
%TO.N,/REF*%
X147708579Y-92092088D03*
%TD*%
%TO.P,TP20,1,1*%
%TO.N,/E22*%
X168708579Y-90292088D03*
%TD*%
%TO.P,TP9,1,1*%
%TO.N,/E4*%
X121658579Y-89092088D03*
%TD*%
%TO.P,TP13,1,1*%
%TO.N,/E6*%
X171008579Y-89092088D03*
%TD*%
%TO.P,TP13,1,1*%
%TO.N,/E6*%
X96008579Y-89092088D03*
%TD*%
%TO.P,TP5,1,1*%
%TO.N,/E1*%
X97208579Y-88392088D03*
%TD*%
%TO.P,TP1,1,1*%
%TO.N,/E13*%
X147708579Y-91492088D03*
%TD*%
%TO.P,TP26,1,1*%
%TO.N,GNDA*%
X168708579Y-92092088D03*
%TD*%
%TO.P,TP3,1,1*%
%TO.N,/E15*%
X172708579Y-90292088D03*
%TD*%
%TO.P,TP4,1,1*%
%TO.N,/REF*%
X172708579Y-92092088D03*
%TD*%
%TO.P,TP1,1,1*%
%TO.N,/E13*%
X97708579Y-91492088D03*
%TD*%
%TO.P,TP12,1,1*%
%TO.N,/E18*%
X121008579Y-92092088D03*
%TD*%
%TO.P,TP13,1,1*%
%TO.N,/E6*%
X121008579Y-89092088D03*
%TD*%
%TO.P,TP5,1,1*%
%TO.N,/E1*%
X122208579Y-88392088D03*
%TD*%
%TO.P,TP20,1,1*%
%TO.N,/E22*%
X118708579Y-90292088D03*
%TD*%
%TO.P,TP24,1,1*%
%TO.N,/E24*%
X118708579Y-91492088D03*
%TD*%
%TO.P,TP19,1,1*%
%TO.N,/E9*%
X144758579Y-89092088D03*
%TD*%
%TO.P,TP24,1,1*%
%TO.N,/E24*%
X143708579Y-91492088D03*
%TD*%
%TO.P,TP22,1,1*%
%TO.N,/E23*%
X143708579Y-90892088D03*
%TD*%
%TO.P,TP20,1,1*%
%TO.N,/E22*%
X93708579Y-90292088D03*
%TD*%
%TO.P,TP25,1,1*%
%TO.N,/E12*%
X119208579Y-88392088D03*
%TD*%
%TO.P,TP7,1,1*%
%TO.N,/E3*%
X121608579Y-88392088D03*
%TD*%
%TO.P,TP23,1,1*%
%TO.N,/E11*%
X119108579Y-89092088D03*
%TD*%
%TO.P,TP12,1,1*%
%TO.N,/E18*%
X171008579Y-92092088D03*
%TD*%
%TO.P,TP15,1,1*%
%TO.N,/E7*%
X120408579Y-89092088D03*
%TD*%
%TO.P,TP11,1,1*%
%TO.N,/E5*%
X121008579Y-88392088D03*
%TD*%
%TO.P,TP5,1,1*%
%TO.N,/E1*%
X147208579Y-88392088D03*
%TD*%
%TO.P,TP8,1,1*%
%TO.N,/E16*%
X147708579Y-89692088D03*
%TD*%
%TO.P,TP2,1,1*%
%TO.N,/E14*%
X97708579Y-90892088D03*
%TD*%
%TO.P,TP19,1,1*%
%TO.N,/E9*%
X169758579Y-89092088D03*
%TD*%
%TO.P,TP26,1,1*%
%TO.N,GNDA*%
X143708579Y-92092088D03*
%TD*%
%TO.P,TP14,1,1*%
%TO.N,/E19*%
X145408579Y-92092088D03*
%TD*%
%TO.P,TP20,1,1*%
%TO.N,/E22*%
X143708579Y-90292088D03*
%TD*%
%TO.P,TP19,1,1*%
%TO.N,/E9*%
X94758579Y-89092088D03*
%TD*%
%TO.P,TP18,1,1*%
%TO.N,/E21*%
X168708579Y-89692088D03*
%TD*%
%TO.P,TP23,1,1*%
%TO.N,/E11*%
X144108579Y-89092088D03*
%TD*%
%TO.P,TP21,1,1*%
%TO.N,/E10*%
X119808579Y-88392088D03*
%TD*%
%TO.P,TP9,1,1*%
%TO.N,/E4*%
X171658579Y-89092088D03*
%TD*%
%TO.P,TP25,1,1*%
%TO.N,/E12*%
X144208579Y-88392088D03*
%TD*%
%TO.P,TP10,1,1*%
%TO.N,/E17*%
X121008579Y-91492088D03*
%TD*%
%TO.P,TP25,1,1*%
%TO.N,/E12*%
X94208579Y-88392088D03*
%TD*%
%TO.P,TP12,1,1*%
%TO.N,/E18*%
X146008579Y-92092088D03*
%TD*%
%TO.P,TP11,1,1*%
%TO.N,/E5*%
X171008579Y-88392088D03*
%TD*%
%TO.P,TP15,1,1*%
%TO.N,/E7*%
X170408579Y-89092088D03*
%TD*%
%TO.P,TP17,1,1*%
%TO.N,/E8*%
X170408579Y-88392088D03*
%TD*%
%TO.P,TP10,1,1*%
%TO.N,/E17*%
X96008579Y-91492088D03*
%TD*%
%TO.P,TP15,1,1*%
%TO.N,/E7*%
X145408579Y-89092088D03*
%TD*%
%TO.P,TP17,1,1*%
%TO.N,/E8*%
X95408579Y-88392088D03*
%TD*%
%TO.P,TP6,1,1*%
%TO.N,/E2*%
X147308579Y-89092088D03*
%TD*%
%TO.P,TP14,1,1*%
%TO.N,/E19*%
X95408579Y-92092088D03*
%TD*%
%TO.P,TP5,1,1*%
%TO.N,/E1*%
X172208579Y-88392088D03*
%TD*%
%TO.P,TP8,1,1*%
%TO.N,/E16*%
X172708579Y-89692088D03*
%TD*%
%TO.P,TP9,1,1*%
%TO.N,/E4*%
X146658579Y-89092088D03*
%TD*%
%TO.P,TP2,1,1*%
%TO.N,/E14*%
X147708579Y-90892088D03*
%TD*%
%TO.P,TP2,1,1*%
%TO.N,/E14*%
X122708579Y-90892088D03*
%TD*%
%TO.P,TP8,1,1*%
%TO.N,/E16*%
X122708579Y-89692088D03*
%TD*%
%TO.P,TP11,1,1*%
%TO.N,/E5*%
X96008579Y-88392088D03*
%TD*%
%TO.P,TP6,1,1*%
%TO.N,/E2*%
X97308579Y-89092088D03*
%TD*%
%TO.P,TP22,1,1*%
%TO.N,/E23*%
X118708579Y-90892088D03*
%TD*%
%TO.P,TP10,1,1*%
%TO.N,/E17*%
X171008579Y-91492088D03*
%TD*%
%TO.P,TP26,1,1*%
%TO.N,GNDA*%
X118708579Y-92092088D03*
%TD*%
%TO.P,TP19,1,1*%
%TO.N,/E9*%
X119758579Y-89092088D03*
%TD*%
%TO.P,TP22,1,1*%
%TO.N,/E23*%
X168708579Y-90892088D03*
%TD*%
%TO.P,TP1,1,1*%
%TO.N,/E13*%
X172708579Y-91492088D03*
%TD*%
%TO.P,TP14,1,1*%
%TO.N,/E19*%
X170408579Y-92092088D03*
%TD*%
%TO.P,TP10,1,1*%
%TO.N,/E17*%
X146008579Y-91492088D03*
%TD*%
%TO.P,TP16,1,1*%
%TO.N,/E20*%
X120408579Y-91492088D03*
%TD*%
%TO.P,TP16,1,1*%
%TO.N,/E20*%
X145408579Y-91492088D03*
%TD*%
%TO.P,TP25,1,1*%
%TO.N,/E12*%
X169208579Y-88392088D03*
%TD*%
%TO.P,TP11,1,1*%
%TO.N,/E5*%
X146008579Y-88392088D03*
%TD*%
%TO.P,TP18,1,1*%
%TO.N,/E21*%
X93708579Y-89692088D03*
%TD*%
%TO.P,TP23,1,1*%
%TO.N,/E11*%
X94108579Y-89092088D03*
%TD*%
%TO.P,TP18,1,1*%
%TO.N,/E21*%
X143708579Y-89692088D03*
%TD*%
%TO.P,TP22,1,1*%
%TO.N,/E23*%
X93708579Y-90892088D03*
%TD*%
%TO.P,TP21,1,1*%
%TO.N,/E10*%
X169808579Y-88392088D03*
%TD*%
%TO.P,TP21,1,1*%
%TO.N,/E10*%
X144808579Y-88392088D03*
%TD*%
%TO.P,TP9,1,1*%
%TO.N,/E4*%
X96658579Y-89092088D03*
%TD*%
%TO.P,TP16,1,1*%
%TO.N,/E20*%
X95408579Y-91492088D03*
%TD*%
%TO.P,TP21,1,1*%
%TO.N,/E10*%
X144808579Y-113392088D03*
%TD*%
%TO.P,TP21,1,1*%
%TO.N,/E10*%
X169808579Y-113392088D03*
%TD*%
%TO.P,TP18,1,1*%
%TO.N,/E21*%
X143708579Y-114692088D03*
%TD*%
%TO.P,TP11,1,1*%
%TO.N,/E5*%
X146008579Y-113392088D03*
%TD*%
%TO.P,TP25,1,1*%
%TO.N,/E12*%
X169208579Y-113392088D03*
%TD*%
%TO.P,TP16,1,1*%
%TO.N,/E20*%
X145408579Y-116492088D03*
%TD*%
%TO.P,TP16,1,1*%
%TO.N,/E20*%
X120408579Y-116492088D03*
%TD*%
%TO.P,TP10,1,1*%
%TO.N,/E17*%
X146008579Y-116492088D03*
%TD*%
%TO.P,TP14,1,1*%
%TO.N,/E19*%
X170408579Y-117092088D03*
%TD*%
%TO.P,TP1,1,1*%
%TO.N,/E13*%
X172708579Y-116492088D03*
%TD*%
%TO.P,TP22,1,1*%
%TO.N,/E23*%
X168708579Y-115892088D03*
%TD*%
%TO.P,TP19,1,1*%
%TO.N,/E9*%
X119758579Y-114092088D03*
%TD*%
%TO.P,TP26,1,1*%
%TO.N,GNDA*%
X118708579Y-117092088D03*
%TD*%
%TO.P,TP10,1,1*%
%TO.N,/E17*%
X171008579Y-116492088D03*
%TD*%
%TO.P,TP22,1,1*%
%TO.N,/E23*%
X118708579Y-115892088D03*
%TD*%
%TO.P,TP8,1,1*%
%TO.N,/E16*%
X122708579Y-114692088D03*
%TD*%
%TO.P,TP2,1,1*%
%TO.N,/E14*%
X122708579Y-115892088D03*
%TD*%
%TO.P,TP2,1,1*%
%TO.N,/E14*%
X147708579Y-115892088D03*
%TD*%
%TO.P,TP9,1,1*%
%TO.N,/E4*%
X146658579Y-114092088D03*
%TD*%
%TO.P,TP8,1,1*%
%TO.N,/E16*%
X172708579Y-114692088D03*
%TD*%
%TO.P,TP5,1,1*%
%TO.N,/E1*%
X172208579Y-113392088D03*
%TD*%
%TO.P,TP6,1,1*%
%TO.N,/E2*%
X147308579Y-114092088D03*
%TD*%
%TO.P,TP15,1,1*%
%TO.N,/E7*%
X145408579Y-114092088D03*
%TD*%
%TO.P,TP17,1,1*%
%TO.N,/E8*%
X170408579Y-113392088D03*
%TD*%
%TO.P,TP15,1,1*%
%TO.N,/E7*%
X170408579Y-114092088D03*
%TD*%
%TO.P,TP11,1,1*%
%TO.N,/E5*%
X171008579Y-113392088D03*
%TD*%
%TO.P,TP12,1,1*%
%TO.N,/E18*%
X146008579Y-117092088D03*
%TD*%
%TO.P,TP10,1,1*%
%TO.N,/E17*%
X121008579Y-116492088D03*
%TD*%
%TO.P,TP25,1,1*%
%TO.N,/E12*%
X144208579Y-113392088D03*
%TD*%
%TO.P,TP9,1,1*%
%TO.N,/E4*%
X171658579Y-114092088D03*
%TD*%
%TO.P,TP21,1,1*%
%TO.N,/E10*%
X119808579Y-113392088D03*
%TD*%
%TO.P,TP23,1,1*%
%TO.N,/E11*%
X144108579Y-114092088D03*
%TD*%
%TO.P,TP18,1,1*%
%TO.N,/E21*%
X168708579Y-114692088D03*
%TD*%
%TO.P,TP20,1,1*%
%TO.N,/E22*%
X143708579Y-115292088D03*
%TD*%
%TO.P,TP14,1,1*%
%TO.N,/E19*%
X145408579Y-117092088D03*
%TD*%
%TO.P,TP26,1,1*%
%TO.N,GNDA*%
X143708579Y-117092088D03*
%TD*%
%TO.P,TP19,1,1*%
%TO.N,/E9*%
X169758579Y-114092088D03*
%TD*%
%TO.P,TP8,1,1*%
%TO.N,/E16*%
X147708579Y-114692088D03*
%TD*%
%TO.P,TP5,1,1*%
%TO.N,/E1*%
X147208579Y-113392088D03*
%TD*%
%TO.P,TP11,1,1*%
%TO.N,/E5*%
X121008579Y-113392088D03*
%TD*%
%TO.P,TP15,1,1*%
%TO.N,/E7*%
X120408579Y-114092088D03*
%TD*%
%TO.P,TP12,1,1*%
%TO.N,/E18*%
X171008579Y-117092088D03*
%TD*%
%TO.P,TP23,1,1*%
%TO.N,/E11*%
X119108579Y-114092088D03*
%TD*%
%TO.P,TP7,1,1*%
%TO.N,/E3*%
X121608579Y-113392088D03*
%TD*%
%TO.P,TP25,1,1*%
%TO.N,/E12*%
X119208579Y-113392088D03*
%TD*%
%TO.P,TP22,1,1*%
%TO.N,/E23*%
X143708579Y-115892088D03*
%TD*%
%TO.P,TP24,1,1*%
%TO.N,/E24*%
X143708579Y-116492088D03*
%TD*%
%TO.P,TP19,1,1*%
%TO.N,/E9*%
X144758579Y-114092088D03*
%TD*%
%TO.P,TP24,1,1*%
%TO.N,/E24*%
X118708579Y-116492088D03*
%TD*%
%TO.P,TP20,1,1*%
%TO.N,/E22*%
X118708579Y-115292088D03*
%TD*%
%TO.P,TP5,1,1*%
%TO.N,/E1*%
X122208579Y-113392088D03*
%TD*%
%TO.P,TP13,1,1*%
%TO.N,/E6*%
X121008579Y-114092088D03*
%TD*%
%TO.P,TP12,1,1*%
%TO.N,/E18*%
X121008579Y-117092088D03*
%TD*%
%TO.P,TP4,1,1*%
%TO.N,/REF*%
X172708579Y-117092088D03*
%TD*%
%TO.P,TP3,1,1*%
%TO.N,/E15*%
X172708579Y-115292088D03*
%TD*%
%TO.P,TP26,1,1*%
%TO.N,GNDA*%
X168708579Y-117092088D03*
%TD*%
%TO.P,TP1,1,1*%
%TO.N,/E13*%
X147708579Y-116492088D03*
%TD*%
%TO.P,TP13,1,1*%
%TO.N,/E6*%
X171008579Y-114092088D03*
%TD*%
%TO.P,TP9,1,1*%
%TO.N,/E4*%
X121658579Y-114092088D03*
%TD*%
%TO.P,TP20,1,1*%
%TO.N,/E22*%
X168708579Y-115292088D03*
%TD*%
%TO.P,TP4,1,1*%
%TO.N,/REF*%
X147708579Y-117092088D03*
%TD*%
%TO.P,TP3,1,1*%
%TO.N,/E15*%
X147708579Y-115292088D03*
%TD*%
%TO.P,TP2,1,1*%
%TO.N,/E14*%
X172708579Y-115892088D03*
%TD*%
%TO.P,TP7,1,1*%
%TO.N,/E3*%
X171608579Y-113392088D03*
%TD*%
%TO.P,TP7,1,1*%
%TO.N,/E3*%
X146608579Y-113392088D03*
%TD*%
%TO.P,TP1,1,1*%
%TO.N,/E13*%
X122708579Y-116492088D03*
%TD*%
%TO.P,TP17,1,1*%
%TO.N,/E8*%
X145408579Y-113392088D03*
%TD*%
%TO.P,TP18,1,1*%
%TO.N,/E21*%
X118708579Y-114692088D03*
%TD*%
%TO.P,TP3,1,1*%
%TO.N,/E15*%
X122708579Y-115292088D03*
%TD*%
%TO.P,TP6,1,1*%
%TO.N,/E2*%
X122308579Y-114092088D03*
%TD*%
%TO.P,TP23,1,1*%
%TO.N,/E11*%
X169108579Y-114092088D03*
%TD*%
%TO.P,TP16,1,1*%
%TO.N,/E20*%
X170408579Y-116492088D03*
%TD*%
%TO.P,TP4,1,1*%
%TO.N,/REF*%
X122708579Y-117092088D03*
%TD*%
%TO.P,TP6,1,1*%
%TO.N,/E2*%
X172308579Y-114092088D03*
%TD*%
%TO.P,TP17,1,1*%
%TO.N,/E8*%
X120408579Y-113392088D03*
%TD*%
%TO.P,TP24,1,1*%
%TO.N,/E24*%
X168708579Y-116492088D03*
%TD*%
%TO.P,TP13,1,1*%
%TO.N,/E6*%
X146008579Y-114092088D03*
%TD*%
%TO.P,TP14,1,1*%
%TO.N,/E19*%
X120408579Y-117092088D03*
%TD*%
%TO.P,TP7,1,1*%
%TO.N,/E3*%
X96608579Y-113392088D03*
%TD*%
%TO.P,TP26,1,1*%
%TO.N,GNDA*%
X93708579Y-117092088D03*
%TD*%
%TO.P,TP15,1,1*%
%TO.N,/E7*%
X95408579Y-114092088D03*
%TD*%
%TO.P,TP8,1,1*%
%TO.N,/E16*%
X97708579Y-114692088D03*
%TD*%
%TO.P,TP24,1,1*%
%TO.N,/E24*%
X93708579Y-116492088D03*
%TD*%
D13*
%TO.P,REF\u002A\u002A,1*%
%TO.N,N/C*%
X75500000Y-140700000D03*
%TD*%
%TO.P,REF\u002A\u002A,1*%
%TO.N,N/C*%
X75500000Y-40700000D03*
%TD*%
D10*
%TO.P,TP1,1,1*%
%TO.N,/E13*%
X97708579Y-116492088D03*
%TD*%
%TO.P,TP5,1,1*%
%TO.N,/E1*%
X97208579Y-113392088D03*
%TD*%
%TO.P,TP13,1,1*%
%TO.N,/E6*%
X96008579Y-114092088D03*
%TD*%
%TO.P,TP12,1,1*%
%TO.N,/E18*%
X96008579Y-117092088D03*
%TD*%
%TO.P,TP3,1,1*%
%TO.N,/E15*%
X97708579Y-115292088D03*
%TD*%
%TO.P,TP4,1,1*%
%TO.N,/REF*%
X97708579Y-117092088D03*
%TD*%
%TO.P,TP6,1,1*%
%TO.N,/E2*%
X97308579Y-114092088D03*
%TD*%
%TO.P,TP11,1,1*%
%TO.N,/E5*%
X96008579Y-113392088D03*
%TD*%
%TO.P,TP16,1,1*%
%TO.N,/E20*%
X95408579Y-116492088D03*
%TD*%
%TO.P,TP9,1,1*%
%TO.N,/E4*%
X96658579Y-114092088D03*
%TD*%
%TO.P,TP22,1,1*%
%TO.N,/E23*%
X93708579Y-115892088D03*
%TD*%
%TO.P,TP23,1,1*%
%TO.N,/E11*%
X94108579Y-114092088D03*
%TD*%
%TO.P,TP18,1,1*%
%TO.N,/E21*%
X93708579Y-114692088D03*
%TD*%
%TO.P,TP17,1,1*%
%TO.N,/E8*%
X95408579Y-113392088D03*
%TD*%
%TO.P,TP10,1,1*%
%TO.N,/E17*%
X96008579Y-116492088D03*
%TD*%
%TO.P,TP14,1,1*%
%TO.N,/E19*%
X95408579Y-117092088D03*
%TD*%
%TO.P,TP25,1,1*%
%TO.N,/E12*%
X94208579Y-113392088D03*
%TD*%
D13*
%TO.P,REF\u002A\u002A,1*%
%TO.N,N/C*%
X190500000Y-40700000D03*
%TD*%
D10*
%TO.P,TP19,1,1*%
%TO.N,/E9*%
X94758579Y-114092088D03*
%TD*%
%TO.P,TP2,1,1*%
%TO.N,/E14*%
X97708579Y-115892088D03*
%TD*%
%TO.P,TP20,1,1*%
%TO.N,/E22*%
X93708579Y-115292088D03*
%TD*%
%TO.P,TP21,1,1*%
%TO.N,/E10*%
X94808579Y-113392088D03*
%TD*%
D13*
%TO.P,REF\u002A\u002A,1*%
%TO.N,N/C*%
X190500000Y-140700000D03*
%TD*%
D12*
%TO.P,J2,MP3,MountPin3*%
%TO.N,/REF*%
X148008579Y-118227088D03*
%TO.P,J2,MP1,MountPin1*%
%TO.N,GNDA*%
X143408579Y-118227088D03*
D11*
%TO.P,J2,23,Pin_23*%
%TO.N,/E13*%
X147633579Y-118082088D03*
%TO.P,J2,21,Pin_21*%
%TO.N,/E14*%
X147283579Y-118082088D03*
%TO.P,J2,19,Pin_19*%
%TO.N,/E15*%
X146933579Y-118082088D03*
%TO.P,J2,17,Pin_17*%
%TO.N,/E16*%
X146583579Y-118082088D03*
%TO.P,J2,15,Pin_15*%
%TO.N,/E17*%
X146233579Y-118082088D03*
%TO.P,J2,13,Pin_13*%
%TO.N,/E18*%
X145883579Y-118082088D03*
%TO.P,J2,11,Pin_11*%
%TO.N,/E19*%
X145533579Y-118082088D03*
%TO.P,J2,9,Pin_9*%
%TO.N,/E20*%
X145183579Y-118082088D03*
%TO.P,J2,7,Pin_7*%
%TO.N,/E21*%
X144833579Y-118082088D03*
%TO.P,J2,5,Pin_5*%
%TO.N,/E22*%
X144483579Y-118082088D03*
%TO.P,J2,3,Pin_3*%
%TO.N,/E23*%
X144133579Y-118082088D03*
%TO.P,J2,1,Pin_1*%
%TO.N,/E24*%
X143783579Y-118082088D03*
%TD*%
D12*
%TO.P,J2,MP3,MountPin3*%
%TO.N,/REF*%
X173008579Y-118227088D03*
%TO.P,J2,MP1,MountPin1*%
%TO.N,GNDA*%
X168408579Y-118227088D03*
D11*
%TO.P,J2,23,Pin_23*%
%TO.N,/E13*%
X172633579Y-118082088D03*
%TO.P,J2,21,Pin_21*%
%TO.N,/E14*%
X172283579Y-118082088D03*
%TO.P,J2,19,Pin_19*%
%TO.N,/E15*%
X171933579Y-118082088D03*
%TO.P,J2,17,Pin_17*%
%TO.N,/E16*%
X171583579Y-118082088D03*
%TO.P,J2,15,Pin_15*%
%TO.N,/E17*%
X171233579Y-118082088D03*
%TO.P,J2,13,Pin_13*%
%TO.N,/E18*%
X170883579Y-118082088D03*
%TO.P,J2,11,Pin_11*%
%TO.N,/E19*%
X170533579Y-118082088D03*
%TO.P,J2,9,Pin_9*%
%TO.N,/E20*%
X170183579Y-118082088D03*
%TO.P,J2,7,Pin_7*%
%TO.N,/E21*%
X169833579Y-118082088D03*
%TO.P,J2,5,Pin_5*%
%TO.N,/E22*%
X169483579Y-118082088D03*
%TO.P,J2,3,Pin_3*%
%TO.N,/E23*%
X169133579Y-118082088D03*
%TO.P,J2,1,Pin_1*%
%TO.N,/E24*%
X168783579Y-118082088D03*
%TD*%
D12*
%TO.P,J2,MP3,MountPin3*%
%TO.N,/REF*%
X123008579Y-118227088D03*
%TO.P,J2,MP1,MountPin1*%
%TO.N,GNDA*%
X118408579Y-118227088D03*
D11*
%TO.P,J2,23,Pin_23*%
%TO.N,/E13*%
X122633579Y-118082088D03*
%TO.P,J2,21,Pin_21*%
%TO.N,/E14*%
X122283579Y-118082088D03*
%TO.P,J2,19,Pin_19*%
%TO.N,/E15*%
X121933579Y-118082088D03*
%TO.P,J2,17,Pin_17*%
%TO.N,/E16*%
X121583579Y-118082088D03*
%TO.P,J2,15,Pin_15*%
%TO.N,/E17*%
X121233579Y-118082088D03*
%TO.P,J2,13,Pin_13*%
%TO.N,/E18*%
X120883579Y-118082088D03*
%TO.P,J2,11,Pin_11*%
%TO.N,/E19*%
X120533579Y-118082088D03*
%TO.P,J2,9,Pin_9*%
%TO.N,/E20*%
X120183579Y-118082088D03*
%TO.P,J2,7,Pin_7*%
%TO.N,/E21*%
X119833579Y-118082088D03*
%TO.P,J2,5,Pin_5*%
%TO.N,/E22*%
X119483579Y-118082088D03*
%TO.P,J2,3,Pin_3*%
%TO.N,/E23*%
X119133579Y-118082088D03*
%TO.P,J2,1,Pin_1*%
%TO.N,/E24*%
X118783579Y-118082088D03*
%TD*%
D12*
%TO.P,J2,MP3,MountPin3*%
%TO.N,/REF*%
X98008579Y-118227088D03*
%TO.P,J2,MP1,MountPin1*%
%TO.N,GNDA*%
X93408579Y-118227088D03*
D11*
%TO.P,J2,23,Pin_23*%
%TO.N,/E13*%
X97633579Y-118082088D03*
%TO.P,J2,21,Pin_21*%
%TO.N,/E14*%
X97283579Y-118082088D03*
%TO.P,J2,19,Pin_19*%
%TO.N,/E15*%
X96933579Y-118082088D03*
%TO.P,J2,17,Pin_17*%
%TO.N,/E16*%
X96583579Y-118082088D03*
%TO.P,J2,15,Pin_15*%
%TO.N,/E17*%
X96233579Y-118082088D03*
%TO.P,J2,13,Pin_13*%
%TO.N,/E18*%
X95883579Y-118082088D03*
%TO.P,J2,11,Pin_11*%
%TO.N,/E19*%
X95533579Y-118082088D03*
%TO.P,J2,9,Pin_9*%
%TO.N,/E20*%
X95183579Y-118082088D03*
%TO.P,J2,7,Pin_7*%
%TO.N,/E21*%
X94833579Y-118082088D03*
%TO.P,J2,5,Pin_5*%
%TO.N,/E22*%
X94483579Y-118082088D03*
%TO.P,J2,3,Pin_3*%
%TO.N,/E23*%
X94133579Y-118082088D03*
%TO.P,J2,1,Pin_1*%
%TO.N,/E24*%
X93783579Y-118082088D03*
%TD*%
D14*
%TO.N,/E18*%
X146008579Y-67092088D02*
X145883579Y-67217088D01*
X170883579Y-67217088D02*
X170883579Y-67367088D01*
X120883579Y-68082088D02*
X120883579Y-67367088D01*
X96008579Y-67092088D02*
X95883579Y-67217088D01*
X95883579Y-68082088D02*
X95883579Y-67367088D01*
X170883579Y-68082088D02*
X170883579Y-67367088D01*
X145883579Y-68082088D02*
X145883579Y-67367088D01*
%TO.N,/E17*%
X171348579Y-67372088D02*
X171348579Y-67032088D01*
X96348579Y-67372088D02*
X96348579Y-67032088D01*
X96008579Y-66492088D02*
X96348579Y-66832088D01*
X171008579Y-66492088D02*
X171348579Y-66832088D01*
X146233579Y-68082088D02*
X146233579Y-67487088D01*
X146348579Y-67372088D02*
X146348579Y-67032088D01*
X171233579Y-68082088D02*
X171233579Y-67487088D01*
X121348579Y-67372088D02*
X121348579Y-67032088D01*
X96233579Y-68082088D02*
X96233579Y-67487088D01*
X121008579Y-66492088D02*
X121348579Y-66832088D01*
X146233579Y-67487088D02*
X146348579Y-67372088D01*
X96233579Y-67487088D02*
X96348579Y-67372088D01*
X146348579Y-66832088D02*
X146348579Y-67032088D01*
X121233579Y-67487088D02*
X121348579Y-67372088D01*
X146008579Y-66492088D02*
X146348579Y-66832088D01*
X121348579Y-66832088D02*
X121348579Y-67032088D01*
X121233579Y-68082088D02*
X121233579Y-67487088D01*
X171348579Y-66832088D02*
X171348579Y-67032088D01*
X96348579Y-66832088D02*
X96348579Y-67032088D01*
X171233579Y-67487088D02*
X171348579Y-67372088D01*
%TO.N,GNDA*%
X93408579Y-68227088D02*
X93408579Y-67392088D01*
X118408579Y-67392088D02*
X118708579Y-67092088D01*
X143408579Y-68227088D02*
X143408579Y-67392088D01*
X143408579Y-67392088D02*
X143708579Y-67092088D01*
X168408579Y-68227088D02*
X168408579Y-67392088D01*
X168408579Y-67392088D02*
X168708579Y-67092088D01*
X118408579Y-68227088D02*
X118408579Y-67392088D01*
X93408579Y-67392088D02*
X93708579Y-67092088D01*
%TO.N,/REF*%
X123008579Y-68227088D02*
X123008579Y-67392088D01*
X123008579Y-67392088D02*
X122708579Y-67092088D01*
X148008579Y-68227088D02*
X148008579Y-67392088D01*
X98008579Y-68227088D02*
X98008579Y-67392088D01*
X148008579Y-67392088D02*
X147708579Y-67092088D01*
X173008579Y-67392088D02*
X172708579Y-67092088D01*
X98008579Y-67392088D02*
X97708579Y-67092088D01*
X173008579Y-68227088D02*
X173008579Y-67392088D01*
%TO.N,/E16*%
X171583579Y-67637088D02*
X171668579Y-67552088D01*
X146668579Y-65732088D02*
X146668579Y-66232088D01*
X147708579Y-64692088D02*
X146803579Y-65597088D01*
X172708579Y-64692088D02*
X171803579Y-65597088D01*
X121583579Y-68082088D02*
X121583579Y-67637088D01*
X171668579Y-65732088D02*
X171668579Y-66232088D01*
X121668579Y-65732088D02*
X121668579Y-66232088D01*
X146803579Y-65597088D02*
X146668579Y-65732088D01*
X121583579Y-67637088D02*
X121668579Y-67552088D01*
X96668579Y-65732088D02*
X96668579Y-66232088D01*
X121668579Y-66232088D02*
X121668579Y-67552088D01*
X96583579Y-68082088D02*
X96583579Y-67637088D01*
X171583579Y-68082088D02*
X171583579Y-67637088D01*
X146668579Y-66232088D02*
X146668579Y-67552088D01*
X171668579Y-66232088D02*
X171668579Y-67552088D01*
X171803579Y-65597088D02*
X171668579Y-65732088D01*
X96668579Y-66232088D02*
X96668579Y-67552088D01*
X97708579Y-64692088D02*
X96803579Y-65597088D01*
X146583579Y-67637088D02*
X146668579Y-67552088D01*
X96583579Y-67637088D02*
X96668579Y-67552088D01*
X96803579Y-65597088D02*
X96668579Y-65732088D01*
%TO.N,/E15*%
X96933579Y-68082088D02*
X96933579Y-66067088D01*
%TO.N,/E16*%
X121803579Y-65597088D02*
X121668579Y-65732088D01*
%TO.N,/E15*%
X121933579Y-66067088D02*
X122708579Y-65292088D01*
%TO.N,/E16*%
X122708579Y-64692088D02*
X121803579Y-65597088D01*
X146583579Y-68082088D02*
X146583579Y-67637088D01*
%TO.N,/E15*%
X146933579Y-66067088D02*
X147708579Y-65292088D01*
%TO.N,/E14*%
X147283579Y-67727088D02*
X147232848Y-67676357D01*
%TO.N,/E15*%
X121933579Y-68082088D02*
X121933579Y-66067088D01*
X146933579Y-68082088D02*
X146933579Y-66067088D01*
%TO.N,/E14*%
X122232848Y-66367819D02*
X122708579Y-65892088D01*
X122283579Y-67727088D02*
X122232848Y-67676357D01*
%TO.N,/E15*%
X171933579Y-66067088D02*
X172708579Y-65292088D01*
%TO.N,/E14*%
X122283579Y-68082088D02*
X122283579Y-67727088D01*
%TO.N,/E15*%
X171933579Y-68082088D02*
X171933579Y-66067088D01*
X96933579Y-66067088D02*
X97708579Y-65292088D01*
%TO.N,/E14*%
X147232848Y-66367819D02*
X147708579Y-65892088D01*
X97283579Y-68082088D02*
X97283579Y-67727088D01*
X97283579Y-67727088D02*
X97232848Y-67676357D01*
X122232848Y-67676357D02*
X122232848Y-66367819D01*
%TO.N,/E13*%
X122633579Y-68082088D02*
X122633579Y-67837088D01*
X147384768Y-67588277D02*
X147384768Y-66815899D01*
X97633579Y-68082088D02*
X97633579Y-67837088D01*
%TO.N,/E14*%
X172232848Y-67676357D02*
X172232848Y-66367819D01*
X97232848Y-67676357D02*
X97232848Y-66367819D01*
%TO.N,/E13*%
X172633579Y-67837088D02*
X172384768Y-67588277D01*
X172384768Y-67588277D02*
X172384768Y-66815899D01*
%TO.N,/E14*%
X172283579Y-67727088D02*
X172232848Y-67676357D01*
%TO.N,/E13*%
X147384768Y-66815899D02*
X147708579Y-66492088D01*
X97384768Y-67588277D02*
X97384768Y-66815899D01*
X122384768Y-66815899D02*
X122708579Y-66492088D01*
X172633579Y-68082088D02*
X172633579Y-67837088D01*
%TO.N,/E14*%
X97232848Y-66367819D02*
X97708579Y-65892088D01*
X147232848Y-67676357D02*
X147232848Y-66367819D01*
%TO.N,/E13*%
X97633579Y-67837088D02*
X97384768Y-67588277D01*
%TO.N,/E14*%
X147283579Y-68082088D02*
X147283579Y-67727088D01*
X172283579Y-68082088D02*
X172283579Y-67727088D01*
X172232848Y-66367819D02*
X172708579Y-65892088D01*
%TO.N,/E13*%
X97384768Y-66815899D02*
X97708579Y-66492088D01*
X147633579Y-68082088D02*
X147633579Y-67837088D01*
X172384768Y-66815899D02*
X172708579Y-66492088D01*
X147633579Y-67837088D02*
X147384768Y-67588277D01*
X122384768Y-67588277D02*
X122384768Y-66815899D01*
X122633579Y-67837088D02*
X122384768Y-67588277D01*
%TO.N,/E24*%
X168783579Y-67557088D02*
X169032390Y-67308277D01*
X143783579Y-67557088D02*
X144032390Y-67308277D01*
X94032390Y-67308277D02*
X94032390Y-66815899D01*
X143783579Y-68082088D02*
X143783579Y-67557088D01*
X94032390Y-66815899D02*
X93708579Y-66492088D01*
X93783579Y-68082088D02*
X93783579Y-67557088D01*
X118783579Y-67557088D02*
X119032390Y-67308277D01*
X169032390Y-67308277D02*
X169032390Y-66815899D01*
X119032390Y-67308277D02*
X119032390Y-66815899D01*
X119032390Y-66815899D02*
X118708579Y-66492088D01*
X169032390Y-66815899D02*
X168708579Y-66492088D01*
X168783579Y-68082088D02*
X168783579Y-67557088D01*
X118783579Y-68082088D02*
X118783579Y-67557088D01*
X144032390Y-66815899D02*
X143708579Y-66492088D01*
X93783579Y-67557088D02*
X94032390Y-67308277D01*
X144032390Y-67308277D02*
X144032390Y-66815899D01*
%TO.N,/E23*%
X143708579Y-65892088D02*
X144184310Y-66367819D01*
X144184310Y-66367819D02*
X144184310Y-67546357D01*
X119133579Y-68082088D02*
X119133579Y-67597088D01*
X169184310Y-66367819D02*
X169184310Y-67546357D01*
X169133579Y-67597088D02*
X169184310Y-67546357D01*
X93708579Y-65892088D02*
X94184310Y-66367819D01*
X169133579Y-68082088D02*
X169133579Y-67597088D01*
X168708579Y-65892088D02*
X169184310Y-66367819D01*
X94133579Y-67597088D02*
X94184310Y-67546357D01*
X118708579Y-65892088D02*
X119184310Y-66367819D01*
X94184310Y-66367819D02*
X94184310Y-67546357D01*
X119184310Y-66367819D02*
X119184310Y-67546357D01*
X144133579Y-67597088D02*
X144184310Y-67546357D01*
X94133579Y-68082088D02*
X94133579Y-67597088D01*
X119133579Y-67597088D02*
X119184310Y-67546357D01*
X144133579Y-68082088D02*
X144133579Y-67597088D01*
%TO.N,/E22*%
X119483579Y-68082088D02*
X119483579Y-66067088D01*
X144483579Y-68082088D02*
X144483579Y-66067088D01*
X94483579Y-66067088D02*
X93708579Y-65292088D01*
X169483579Y-66067088D02*
X168708579Y-65292088D01*
X169483579Y-68082088D02*
X169483579Y-66067088D01*
X144483579Y-66067088D02*
X143708579Y-65292088D01*
X119483579Y-66067088D02*
X118708579Y-65292088D01*
X94483579Y-68082088D02*
X94483579Y-66067088D01*
%TO.N,/E21*%
X119833579Y-65817088D02*
X119833579Y-68082088D01*
X168708579Y-64692088D02*
X169833579Y-65817088D01*
X169833579Y-65817088D02*
X169833579Y-68082088D01*
X118708579Y-64692088D02*
X119833579Y-65817088D01*
X94833579Y-65817088D02*
X94833579Y-68082088D01*
X143708579Y-64692088D02*
X144833579Y-65817088D01*
X144833579Y-65817088D02*
X144833579Y-68082088D01*
X93708579Y-64692088D02*
X94833579Y-65817088D01*
%TO.N,/E20*%
X170183579Y-67537088D02*
X170084768Y-67438277D01*
X120183579Y-67537088D02*
X120084768Y-67438277D01*
X120183579Y-68082088D02*
X120183579Y-67537088D01*
X170084768Y-66815899D02*
X170084768Y-66915899D01*
X95183579Y-67537088D02*
X95084768Y-67438277D01*
X120408579Y-66492088D02*
X120084768Y-66815899D01*
X120084768Y-67438277D02*
X120084768Y-66915899D01*
X170084768Y-67438277D02*
X170084768Y-66915899D01*
X145084768Y-67438277D02*
X145084768Y-66915899D01*
X95408579Y-66492088D02*
X95084768Y-66815899D01*
X145408579Y-66492088D02*
X145084768Y-66815899D01*
X145084768Y-66815899D02*
X145084768Y-66915899D01*
X95183579Y-68082088D02*
X95183579Y-67537088D01*
X170183579Y-68082088D02*
X170183579Y-67537088D01*
X95084768Y-67438277D02*
X95084768Y-66915899D01*
X95084768Y-66815899D02*
X95084768Y-66915899D01*
X170408579Y-66492088D02*
X170084768Y-66815899D01*
X120084768Y-66815899D02*
X120084768Y-66915899D01*
X145183579Y-68082088D02*
X145183579Y-67537088D01*
X145183579Y-67537088D02*
X145084768Y-67438277D01*
%TO.N,/E19*%
X120533579Y-67217088D02*
X120533579Y-67367088D01*
X95533579Y-67217088D02*
X95533579Y-67367088D01*
X95408579Y-67092088D02*
X95533579Y-67217088D01*
X170533579Y-68082088D02*
X170533579Y-67367088D01*
X120533579Y-68082088D02*
X120533579Y-67367088D01*
X170533579Y-67217088D02*
X170533579Y-67367088D01*
X145408579Y-67092088D02*
X145533579Y-67217088D01*
X120408579Y-67092088D02*
X120533579Y-67217088D01*
X170408579Y-67092088D02*
X170533579Y-67217088D01*
X145533579Y-67217088D02*
X145533579Y-67367088D01*
X145533579Y-68082088D02*
X145533579Y-67367088D01*
X95533579Y-68082088D02*
X95533579Y-67367088D01*
%TO.N,/E18*%
X145883579Y-67217088D02*
X145883579Y-67367088D01*
X171008579Y-67092088D02*
X170883579Y-67217088D01*
X121008579Y-67092088D02*
X120883579Y-67217088D01*
X120883579Y-67217088D02*
X120883579Y-67367088D01*
X95883579Y-67217088D02*
X95883579Y-67367088D01*
X146008579Y-92092088D02*
X145883579Y-92217088D01*
X170883579Y-92217088D02*
X170883579Y-92367088D01*
X120883579Y-93082088D02*
X120883579Y-92367088D01*
X96008579Y-92092088D02*
X95883579Y-92217088D01*
X95883579Y-93082088D02*
X95883579Y-92367088D01*
X170883579Y-93082088D02*
X170883579Y-92367088D01*
X145883579Y-93082088D02*
X145883579Y-92367088D01*
%TO.N,/E17*%
X171348579Y-92372088D02*
X171348579Y-92032088D01*
X96348579Y-92372088D02*
X96348579Y-92032088D01*
X96008579Y-91492088D02*
X96348579Y-91832088D01*
X171008579Y-91492088D02*
X171348579Y-91832088D01*
X146233579Y-93082088D02*
X146233579Y-92487088D01*
X146348579Y-92372088D02*
X146348579Y-92032088D01*
X171233579Y-93082088D02*
X171233579Y-92487088D01*
X121348579Y-92372088D02*
X121348579Y-92032088D01*
X96233579Y-93082088D02*
X96233579Y-92487088D01*
X121008579Y-91492088D02*
X121348579Y-91832088D01*
X146233579Y-92487088D02*
X146348579Y-92372088D01*
X96233579Y-92487088D02*
X96348579Y-92372088D01*
X146348579Y-91832088D02*
X146348579Y-92032088D01*
X121233579Y-92487088D02*
X121348579Y-92372088D01*
X146008579Y-91492088D02*
X146348579Y-91832088D01*
X121348579Y-91832088D02*
X121348579Y-92032088D01*
X121233579Y-93082088D02*
X121233579Y-92487088D01*
X171348579Y-91832088D02*
X171348579Y-92032088D01*
X96348579Y-91832088D02*
X96348579Y-92032088D01*
X171233579Y-92487088D02*
X171348579Y-92372088D01*
%TO.N,GNDA*%
X93408579Y-93227088D02*
X93408579Y-92392088D01*
X118408579Y-92392088D02*
X118708579Y-92092088D01*
X143408579Y-93227088D02*
X143408579Y-92392088D01*
X143408579Y-92392088D02*
X143708579Y-92092088D01*
X168408579Y-93227088D02*
X168408579Y-92392088D01*
X168408579Y-92392088D02*
X168708579Y-92092088D01*
X118408579Y-93227088D02*
X118408579Y-92392088D01*
X93408579Y-92392088D02*
X93708579Y-92092088D01*
%TO.N,/REF*%
X123008579Y-93227088D02*
X123008579Y-92392088D01*
X123008579Y-92392088D02*
X122708579Y-92092088D01*
X148008579Y-93227088D02*
X148008579Y-92392088D01*
X98008579Y-93227088D02*
X98008579Y-92392088D01*
X148008579Y-92392088D02*
X147708579Y-92092088D01*
X173008579Y-92392088D02*
X172708579Y-92092088D01*
X98008579Y-92392088D02*
X97708579Y-92092088D01*
X173008579Y-93227088D02*
X173008579Y-92392088D01*
%TO.N,/E16*%
X171583579Y-92637088D02*
X171668579Y-92552088D01*
X146668579Y-90732088D02*
X146668579Y-91232088D01*
X147708579Y-89692088D02*
X146803579Y-90597088D01*
X172708579Y-89692088D02*
X171803579Y-90597088D01*
X121583579Y-93082088D02*
X121583579Y-92637088D01*
X171668579Y-90732088D02*
X171668579Y-91232088D01*
X121668579Y-90732088D02*
X121668579Y-91232088D01*
X146803579Y-90597088D02*
X146668579Y-90732088D01*
X121583579Y-92637088D02*
X121668579Y-92552088D01*
X96668579Y-90732088D02*
X96668579Y-91232088D01*
X121668579Y-91232088D02*
X121668579Y-92552088D01*
X96583579Y-93082088D02*
X96583579Y-92637088D01*
X171583579Y-93082088D02*
X171583579Y-92637088D01*
X146668579Y-91232088D02*
X146668579Y-92552088D01*
X171668579Y-91232088D02*
X171668579Y-92552088D01*
X171803579Y-90597088D02*
X171668579Y-90732088D01*
X96668579Y-91232088D02*
X96668579Y-92552088D01*
X97708579Y-89692088D02*
X96803579Y-90597088D01*
X146583579Y-92637088D02*
X146668579Y-92552088D01*
X96583579Y-92637088D02*
X96668579Y-92552088D01*
X96803579Y-90597088D02*
X96668579Y-90732088D01*
%TO.N,/E15*%
X96933579Y-93082088D02*
X96933579Y-91067088D01*
%TO.N,/E16*%
X121803579Y-90597088D02*
X121668579Y-90732088D01*
%TO.N,/E15*%
X121933579Y-91067088D02*
X122708579Y-90292088D01*
%TO.N,/E16*%
X122708579Y-89692088D02*
X121803579Y-90597088D01*
X146583579Y-93082088D02*
X146583579Y-92637088D01*
%TO.N,/E15*%
X146933579Y-91067088D02*
X147708579Y-90292088D01*
%TO.N,/E14*%
X147283579Y-92727088D02*
X147232848Y-92676357D01*
%TO.N,/E15*%
X121933579Y-93082088D02*
X121933579Y-91067088D01*
X146933579Y-93082088D02*
X146933579Y-91067088D01*
%TO.N,/E14*%
X122232848Y-91367819D02*
X122708579Y-90892088D01*
X122283579Y-92727088D02*
X122232848Y-92676357D01*
%TO.N,/E15*%
X171933579Y-91067088D02*
X172708579Y-90292088D01*
%TO.N,/E14*%
X122283579Y-93082088D02*
X122283579Y-92727088D01*
%TO.N,/E15*%
X171933579Y-93082088D02*
X171933579Y-91067088D01*
X96933579Y-91067088D02*
X97708579Y-90292088D01*
%TO.N,/E14*%
X147232848Y-91367819D02*
X147708579Y-90892088D01*
X97283579Y-93082088D02*
X97283579Y-92727088D01*
X97283579Y-92727088D02*
X97232848Y-92676357D01*
X122232848Y-92676357D02*
X122232848Y-91367819D01*
%TO.N,/E13*%
X122633579Y-93082088D02*
X122633579Y-92837088D01*
X147384768Y-92588277D02*
X147384768Y-91815899D01*
X97633579Y-93082088D02*
X97633579Y-92837088D01*
%TO.N,/E14*%
X172232848Y-92676357D02*
X172232848Y-91367819D01*
X97232848Y-92676357D02*
X97232848Y-91367819D01*
%TO.N,/E13*%
X172633579Y-92837088D02*
X172384768Y-92588277D01*
X172384768Y-92588277D02*
X172384768Y-91815899D01*
%TO.N,/E14*%
X172283579Y-92727088D02*
X172232848Y-92676357D01*
%TO.N,/E13*%
X147384768Y-91815899D02*
X147708579Y-91492088D01*
X97384768Y-92588277D02*
X97384768Y-91815899D01*
X122384768Y-91815899D02*
X122708579Y-91492088D01*
X172633579Y-93082088D02*
X172633579Y-92837088D01*
%TO.N,/E14*%
X97232848Y-91367819D02*
X97708579Y-90892088D01*
X147232848Y-92676357D02*
X147232848Y-91367819D01*
%TO.N,/E13*%
X97633579Y-92837088D02*
X97384768Y-92588277D01*
%TO.N,/E14*%
X147283579Y-93082088D02*
X147283579Y-92727088D01*
X172283579Y-93082088D02*
X172283579Y-92727088D01*
X172232848Y-91367819D02*
X172708579Y-90892088D01*
%TO.N,/E13*%
X97384768Y-91815899D02*
X97708579Y-91492088D01*
X147633579Y-93082088D02*
X147633579Y-92837088D01*
X172384768Y-91815899D02*
X172708579Y-91492088D01*
X147633579Y-92837088D02*
X147384768Y-92588277D01*
X122384768Y-92588277D02*
X122384768Y-91815899D01*
X122633579Y-92837088D02*
X122384768Y-92588277D01*
%TO.N,/E24*%
X168783579Y-92557088D02*
X169032390Y-92308277D01*
X143783579Y-92557088D02*
X144032390Y-92308277D01*
X94032390Y-92308277D02*
X94032390Y-91815899D01*
X143783579Y-93082088D02*
X143783579Y-92557088D01*
X94032390Y-91815899D02*
X93708579Y-91492088D01*
X93783579Y-93082088D02*
X93783579Y-92557088D01*
X118783579Y-92557088D02*
X119032390Y-92308277D01*
X169032390Y-92308277D02*
X169032390Y-91815899D01*
X119032390Y-92308277D02*
X119032390Y-91815899D01*
X119032390Y-91815899D02*
X118708579Y-91492088D01*
X169032390Y-91815899D02*
X168708579Y-91492088D01*
X168783579Y-93082088D02*
X168783579Y-92557088D01*
X118783579Y-93082088D02*
X118783579Y-92557088D01*
X144032390Y-91815899D02*
X143708579Y-91492088D01*
X93783579Y-92557088D02*
X94032390Y-92308277D01*
X144032390Y-92308277D02*
X144032390Y-91815899D01*
%TO.N,/E23*%
X143708579Y-90892088D02*
X144184310Y-91367819D01*
X144184310Y-91367819D02*
X144184310Y-92546357D01*
X119133579Y-93082088D02*
X119133579Y-92597088D01*
X169184310Y-91367819D02*
X169184310Y-92546357D01*
X169133579Y-92597088D02*
X169184310Y-92546357D01*
X93708579Y-90892088D02*
X94184310Y-91367819D01*
X169133579Y-93082088D02*
X169133579Y-92597088D01*
X168708579Y-90892088D02*
X169184310Y-91367819D01*
X94133579Y-92597088D02*
X94184310Y-92546357D01*
X118708579Y-90892088D02*
X119184310Y-91367819D01*
X94184310Y-91367819D02*
X94184310Y-92546357D01*
X119184310Y-91367819D02*
X119184310Y-92546357D01*
X144133579Y-92597088D02*
X144184310Y-92546357D01*
X94133579Y-93082088D02*
X94133579Y-92597088D01*
X119133579Y-92597088D02*
X119184310Y-92546357D01*
X144133579Y-93082088D02*
X144133579Y-92597088D01*
%TO.N,/E22*%
X119483579Y-93082088D02*
X119483579Y-91067088D01*
X144483579Y-93082088D02*
X144483579Y-91067088D01*
X94483579Y-91067088D02*
X93708579Y-90292088D01*
X169483579Y-91067088D02*
X168708579Y-90292088D01*
X169483579Y-93082088D02*
X169483579Y-91067088D01*
X144483579Y-91067088D02*
X143708579Y-90292088D01*
X119483579Y-91067088D02*
X118708579Y-90292088D01*
X94483579Y-93082088D02*
X94483579Y-91067088D01*
%TO.N,/E21*%
X119833579Y-90817088D02*
X119833579Y-93082088D01*
X168708579Y-89692088D02*
X169833579Y-90817088D01*
X169833579Y-90817088D02*
X169833579Y-93082088D01*
X118708579Y-89692088D02*
X119833579Y-90817088D01*
X94833579Y-90817088D02*
X94833579Y-93082088D01*
X143708579Y-89692088D02*
X144833579Y-90817088D01*
X144833579Y-90817088D02*
X144833579Y-93082088D01*
X93708579Y-89692088D02*
X94833579Y-90817088D01*
%TO.N,/E20*%
X170183579Y-92537088D02*
X170084768Y-92438277D01*
X120183579Y-92537088D02*
X120084768Y-92438277D01*
X120183579Y-93082088D02*
X120183579Y-92537088D01*
X170084768Y-91815899D02*
X170084768Y-91915899D01*
X95183579Y-92537088D02*
X95084768Y-92438277D01*
X120408579Y-91492088D02*
X120084768Y-91815899D01*
X120084768Y-92438277D02*
X120084768Y-91915899D01*
X170084768Y-92438277D02*
X170084768Y-91915899D01*
X145084768Y-92438277D02*
X145084768Y-91915899D01*
X95408579Y-91492088D02*
X95084768Y-91815899D01*
X145408579Y-91492088D02*
X145084768Y-91815899D01*
X145084768Y-91815899D02*
X145084768Y-91915899D01*
X95183579Y-93082088D02*
X95183579Y-92537088D01*
X170183579Y-93082088D02*
X170183579Y-92537088D01*
X95084768Y-92438277D02*
X95084768Y-91915899D01*
X95084768Y-91815899D02*
X95084768Y-91915899D01*
X170408579Y-91492088D02*
X170084768Y-91815899D01*
X120084768Y-91815899D02*
X120084768Y-91915899D01*
X145183579Y-93082088D02*
X145183579Y-92537088D01*
X145183579Y-92537088D02*
X145084768Y-92438277D01*
%TO.N,/E19*%
X120533579Y-92217088D02*
X120533579Y-92367088D01*
X95533579Y-92217088D02*
X95533579Y-92367088D01*
X95408579Y-92092088D02*
X95533579Y-92217088D01*
X170533579Y-93082088D02*
X170533579Y-92367088D01*
X120533579Y-93082088D02*
X120533579Y-92367088D01*
X170533579Y-92217088D02*
X170533579Y-92367088D01*
X145408579Y-92092088D02*
X145533579Y-92217088D01*
X120408579Y-92092088D02*
X120533579Y-92217088D01*
X170408579Y-92092088D02*
X170533579Y-92217088D01*
X145533579Y-92217088D02*
X145533579Y-92367088D01*
X145533579Y-93082088D02*
X145533579Y-92367088D01*
X95533579Y-93082088D02*
X95533579Y-92367088D01*
%TO.N,/E18*%
X145883579Y-92217088D02*
X145883579Y-92367088D01*
X171008579Y-92092088D02*
X170883579Y-92217088D01*
X121008579Y-92092088D02*
X120883579Y-92217088D01*
X120883579Y-92217088D02*
X120883579Y-92367088D01*
X95883579Y-92217088D02*
X95883579Y-92367088D01*
%TO.N,GNDA*%
X118408579Y-118227088D02*
X118408579Y-117392088D01*
X143408579Y-117392088D02*
X143708579Y-117092088D01*
X93408579Y-117392088D02*
X93708579Y-117092088D01*
X118408579Y-117392088D02*
X118708579Y-117092088D01*
X93408579Y-118227088D02*
X93408579Y-117392088D01*
X168408579Y-117392088D02*
X168708579Y-117092088D01*
X143408579Y-118227088D02*
X143408579Y-117392088D01*
X168408579Y-118227088D02*
X168408579Y-117392088D01*
%TO.N,/E17*%
X146008579Y-116492088D02*
X146348579Y-116832088D01*
X171233579Y-118082088D02*
X171233579Y-117487088D01*
X121233579Y-118082088D02*
X121233579Y-117487088D01*
X121348579Y-117372088D02*
X121348579Y-117032088D01*
X146348579Y-117372088D02*
X146348579Y-117032088D01*
X96348579Y-116832088D02*
X96348579Y-117032088D01*
X121008579Y-116492088D02*
X121348579Y-116832088D01*
X146348579Y-116832088D02*
X146348579Y-117032088D01*
X171233579Y-117487088D02*
X171348579Y-117372088D01*
X146233579Y-118082088D02*
X146233579Y-117487088D01*
X171348579Y-116832088D02*
X171348579Y-117032088D01*
X96233579Y-118082088D02*
X96233579Y-117487088D01*
X121348579Y-116832088D02*
X121348579Y-117032088D01*
X121233579Y-117487088D02*
X121348579Y-117372088D01*
X96233579Y-117487088D02*
X96348579Y-117372088D01*
X146233579Y-117487088D02*
X146348579Y-117372088D01*
X171348579Y-117372088D02*
X171348579Y-117032088D01*
X171008579Y-116492088D02*
X171348579Y-116832088D01*
X96348579Y-117372088D02*
X96348579Y-117032088D01*
X96008579Y-116492088D02*
X96348579Y-116832088D01*
%TO.N,/E18*%
X170883579Y-118082088D02*
X170883579Y-117367088D01*
X170883579Y-117217088D02*
X170883579Y-117367088D01*
X145883579Y-118082088D02*
X145883579Y-117367088D01*
X146008579Y-117092088D02*
X145883579Y-117217088D01*
X95883579Y-118082088D02*
X95883579Y-117367088D01*
X96008579Y-117092088D02*
X95883579Y-117217088D01*
X120883579Y-118082088D02*
X120883579Y-117367088D01*
X95883579Y-117217088D02*
X95883579Y-117367088D01*
X120883579Y-117217088D02*
X120883579Y-117367088D01*
X121008579Y-117092088D02*
X120883579Y-117217088D01*
X171008579Y-117092088D02*
X170883579Y-117217088D01*
X145883579Y-117217088D02*
X145883579Y-117367088D01*
%TO.N,/E19*%
X145533579Y-117217088D02*
X145533579Y-117367088D01*
X170408579Y-117092088D02*
X170533579Y-117217088D01*
X120408579Y-117092088D02*
X120533579Y-117217088D01*
X95533579Y-118082088D02*
X95533579Y-117367088D01*
X145533579Y-118082088D02*
X145533579Y-117367088D01*
X145408579Y-117092088D02*
X145533579Y-117217088D01*
X120533579Y-117217088D02*
X120533579Y-117367088D01*
X95533579Y-117217088D02*
X95533579Y-117367088D01*
X95408579Y-117092088D02*
X95533579Y-117217088D01*
X170533579Y-118082088D02*
X170533579Y-117367088D01*
X170533579Y-117217088D02*
X170533579Y-117367088D01*
X120533579Y-118082088D02*
X120533579Y-117367088D01*
%TO.N,/E20*%
X95084768Y-116815899D02*
X95084768Y-116915899D01*
X145183579Y-118082088D02*
X145183579Y-117537088D01*
X145183579Y-117537088D02*
X145084768Y-117438277D01*
X120084768Y-116815899D02*
X120084768Y-116915899D01*
X170408579Y-116492088D02*
X170084768Y-116815899D01*
X145084768Y-117438277D02*
X145084768Y-116915899D01*
X120183579Y-117537088D02*
X120084768Y-117438277D01*
X170183579Y-117537088D02*
X170084768Y-117438277D01*
X95408579Y-116492088D02*
X95084768Y-116815899D01*
X170084768Y-116815899D02*
X170084768Y-116915899D01*
X170183579Y-118082088D02*
X170183579Y-117537088D01*
X120408579Y-116492088D02*
X120084768Y-116815899D01*
X120183579Y-118082088D02*
X120183579Y-117537088D01*
X95183579Y-118082088D02*
X95183579Y-117537088D01*
X170084768Y-117438277D02*
X170084768Y-116915899D01*
X145084768Y-116815899D02*
X145084768Y-116915899D01*
X145408579Y-116492088D02*
X145084768Y-116815899D01*
X120084768Y-117438277D02*
X120084768Y-116915899D01*
X95084768Y-117438277D02*
X95084768Y-116915899D01*
X95183579Y-117537088D02*
X95084768Y-117438277D01*
%TO.N,/E21*%
X143708579Y-114692088D02*
X144833579Y-115817088D01*
X168708579Y-114692088D02*
X169833579Y-115817088D01*
X93708579Y-114692088D02*
X94833579Y-115817088D01*
X94833579Y-115817088D02*
X94833579Y-118082088D01*
X118708579Y-114692088D02*
X119833579Y-115817088D01*
X169833579Y-115817088D02*
X169833579Y-118082088D01*
X119833579Y-115817088D02*
X119833579Y-118082088D01*
X144833579Y-115817088D02*
X144833579Y-118082088D01*
%TO.N,/E22*%
X94483579Y-116067088D02*
X93708579Y-115292088D01*
X169483579Y-116067088D02*
X168708579Y-115292088D01*
X144483579Y-116067088D02*
X143708579Y-115292088D01*
X119483579Y-116067088D02*
X118708579Y-115292088D01*
X169483579Y-118082088D02*
X169483579Y-116067088D01*
X94483579Y-118082088D02*
X94483579Y-116067088D01*
X144483579Y-118082088D02*
X144483579Y-116067088D01*
X119483579Y-118082088D02*
X119483579Y-116067088D01*
%TO.N,/E23*%
X144133579Y-117597088D02*
X144184310Y-117546357D01*
X119133579Y-118082088D02*
X119133579Y-117597088D01*
X93708579Y-115892088D02*
X94184310Y-116367819D01*
X94184310Y-116367819D02*
X94184310Y-117546357D01*
X144184310Y-116367819D02*
X144184310Y-117546357D01*
X143708579Y-115892088D02*
X144184310Y-116367819D01*
X118708579Y-115892088D02*
X119184310Y-116367819D01*
X119133579Y-117597088D02*
X119184310Y-117546357D01*
X94133579Y-117597088D02*
X94184310Y-117546357D01*
X119184310Y-116367819D02*
X119184310Y-117546357D01*
X168708579Y-115892088D02*
X169184310Y-116367819D01*
X169133579Y-118082088D02*
X169133579Y-117597088D01*
X169133579Y-117597088D02*
X169184310Y-117546357D01*
X144133579Y-118082088D02*
X144133579Y-117597088D01*
X94133579Y-118082088D02*
X94133579Y-117597088D01*
X169184310Y-116367819D02*
X169184310Y-117546357D01*
%TO.N,/E24*%
X93783579Y-117557088D02*
X94032390Y-117308277D01*
X144032390Y-116815899D02*
X143708579Y-116492088D01*
X144032390Y-117308277D02*
X144032390Y-116815899D01*
X169032390Y-116815899D02*
X168708579Y-116492088D01*
X118783579Y-118082088D02*
X118783579Y-117557088D01*
X119032390Y-116815899D02*
X118708579Y-116492088D01*
X168783579Y-118082088D02*
X168783579Y-117557088D01*
X93783579Y-118082088D02*
X93783579Y-117557088D01*
X94032390Y-116815899D02*
X93708579Y-116492088D01*
X143783579Y-117557088D02*
X144032390Y-117308277D01*
X119032390Y-117308277D02*
X119032390Y-116815899D01*
X169032390Y-117308277D02*
X169032390Y-116815899D01*
X143783579Y-118082088D02*
X143783579Y-117557088D01*
X94032390Y-117308277D02*
X94032390Y-116815899D01*
X118783579Y-117557088D02*
X119032390Y-117308277D01*
X168783579Y-117557088D02*
X169032390Y-117308277D01*
%TO.N,/E13*%
X172384768Y-116815899D02*
X172708579Y-116492088D01*
X147633579Y-118082088D02*
X147633579Y-117837088D01*
X122633579Y-117837088D02*
X122384768Y-117588277D01*
X97384768Y-116815899D02*
X97708579Y-116492088D01*
X122384768Y-117588277D02*
X122384768Y-116815899D01*
X147633579Y-117837088D02*
X147384768Y-117588277D01*
X122384768Y-116815899D02*
X122708579Y-116492088D01*
X172633579Y-118082088D02*
X172633579Y-117837088D01*
X172384768Y-117588277D02*
X172384768Y-116815899D01*
X97384768Y-117588277D02*
X97384768Y-116815899D01*
X97633579Y-118082088D02*
X97633579Y-117837088D01*
X122633579Y-118082088D02*
X122633579Y-117837088D01*
X172633579Y-117837088D02*
X172384768Y-117588277D01*
X97633579Y-117837088D02*
X97384768Y-117588277D01*
X147384768Y-116815899D02*
X147708579Y-116492088D01*
X147384768Y-117588277D02*
X147384768Y-116815899D01*
%TO.N,/E14*%
X147283579Y-118082088D02*
X147283579Y-117727088D01*
X172283579Y-117727088D02*
X172232848Y-117676357D01*
X97232848Y-117676357D02*
X97232848Y-116367819D01*
X172232848Y-117676357D02*
X172232848Y-116367819D01*
X122232848Y-117676357D02*
X122232848Y-116367819D01*
X172232848Y-116367819D02*
X172708579Y-115892088D01*
X172283579Y-118082088D02*
X172283579Y-117727088D01*
X147232848Y-117676357D02*
X147232848Y-116367819D01*
X97232848Y-116367819D02*
X97708579Y-115892088D01*
X97283579Y-117727088D02*
X97232848Y-117676357D01*
X147283579Y-117727088D02*
X147232848Y-117676357D01*
X122283579Y-117727088D02*
X122232848Y-117676357D01*
X122232848Y-116367819D02*
X122708579Y-115892088D01*
X122283579Y-118082088D02*
X122283579Y-117727088D01*
X97283579Y-118082088D02*
X97283579Y-117727088D01*
X147232848Y-116367819D02*
X147708579Y-115892088D01*
%TO.N,/E15*%
X96933579Y-116067088D02*
X97708579Y-115292088D01*
X171933579Y-116067088D02*
X172708579Y-115292088D01*
X171933579Y-118082088D02*
X171933579Y-116067088D01*
X146933579Y-116067088D02*
X147708579Y-115292088D01*
X146933579Y-118082088D02*
X146933579Y-116067088D01*
X121933579Y-118082088D02*
X121933579Y-116067088D01*
X121933579Y-116067088D02*
X122708579Y-115292088D01*
X96933579Y-118082088D02*
X96933579Y-116067088D01*
%TO.N,/E16*%
X146583579Y-118082088D02*
X146583579Y-117637088D01*
X121803579Y-115597088D02*
X121668579Y-115732088D01*
X171583579Y-118082088D02*
X171583579Y-117637088D01*
X146668579Y-116232088D02*
X146668579Y-117552088D01*
X171803579Y-115597088D02*
X171668579Y-115732088D01*
X171668579Y-116232088D02*
X171668579Y-117552088D01*
X96583579Y-118082088D02*
X96583579Y-117637088D01*
X121668579Y-116232088D02*
X121668579Y-117552088D01*
X96803579Y-115597088D02*
X96668579Y-115732088D01*
X122708579Y-114692088D02*
X121803579Y-115597088D01*
X146583579Y-117637088D02*
X146668579Y-117552088D01*
X96583579Y-117637088D02*
X96668579Y-117552088D01*
X97708579Y-114692088D02*
X96803579Y-115597088D01*
X96668579Y-116232088D02*
X96668579Y-117552088D01*
X121583579Y-118082088D02*
X121583579Y-117637088D01*
X146668579Y-115732088D02*
X146668579Y-116232088D01*
X96668579Y-115732088D02*
X96668579Y-116232088D01*
X147708579Y-114692088D02*
X146803579Y-115597088D01*
X146803579Y-115597088D02*
X146668579Y-115732088D01*
X121583579Y-117637088D02*
X121668579Y-117552088D01*
X172708579Y-114692088D02*
X171803579Y-115597088D01*
X171668579Y-115732088D02*
X171668579Y-116232088D01*
X121668579Y-115732088D02*
X121668579Y-116232088D01*
X171583579Y-117637088D02*
X171668579Y-117552088D01*
%TO.N,/REF*%
X98008579Y-118227088D02*
X98008579Y-117392088D01*
X123008579Y-117392088D02*
X122708579Y-117092088D01*
X98008579Y-117392088D02*
X97708579Y-117092088D01*
X123008579Y-118227088D02*
X123008579Y-117392088D01*
X173008579Y-118227088D02*
X173008579Y-117392088D01*
X173008579Y-117392088D02*
X172708579Y-117092088D01*
X148008579Y-117392088D02*
X147708579Y-117092088D01*
X148008579Y-118227088D02*
X148008579Y-117392088D01*
%TD*%
%TA.AperFunction,NonConductor*%
G36*
X195342121Y-35820002D02*
G01*
X195388614Y-35873658D01*
X195400000Y-35926000D01*
X195400000Y-145474000D01*
X195379998Y-145542121D01*
X195326342Y-145588614D01*
X195274000Y-145600000D01*
X70726000Y-145600000D01*
X70657879Y-145579998D01*
X70611386Y-145526342D01*
X70600000Y-145474000D01*
X70600000Y-140688113D01*
X72094527Y-140688113D01*
X72113162Y-141055971D01*
X72113699Y-141059326D01*
X72113700Y-141059332D01*
X72154038Y-141311170D01*
X72171416Y-141419665D01*
X72268608Y-141774941D01*
X72403602Y-142117642D01*
X72574817Y-142443759D01*
X72576718Y-142446588D01*
X72576724Y-142446598D01*
X72761707Y-142721879D01*
X72780252Y-142749477D01*
X73017502Y-143031221D01*
X73120006Y-143129176D01*
X73281329Y-143283341D01*
X73281336Y-143283347D01*
X73283792Y-143285694D01*
X73576008Y-143509919D01*
X73890731Y-143701274D01*
X74224279Y-143857519D01*
X74227497Y-143858621D01*
X74227500Y-143858622D01*
X74569528Y-143975725D01*
X74569536Y-143975727D01*
X74572751Y-143976828D01*
X74932070Y-144057804D01*
X75015002Y-144067253D01*
X75294650Y-144099115D01*
X75294658Y-144099115D01*
X75298033Y-144099500D01*
X75301437Y-144099518D01*
X75301440Y-144099518D01*
X75501074Y-144100563D01*
X75666358Y-144101428D01*
X75669744Y-144101078D01*
X75669746Y-144101078D01*
X76029345Y-144063918D01*
X76029354Y-144063917D01*
X76032737Y-144063567D01*
X76036070Y-144062853D01*
X76036073Y-144062852D01*
X76213488Y-144024817D01*
X76392884Y-143986358D01*
X76742586Y-143870705D01*
X77077752Y-143717961D01*
X77174965Y-143660240D01*
X77391516Y-143531662D01*
X77391521Y-143531659D01*
X77394461Y-143529913D01*
X77421091Y-143509919D01*
X77686276Y-143310812D01*
X77689009Y-143308760D01*
X77957950Y-143057089D01*
X78198138Y-142777846D01*
X78215838Y-142752093D01*
X78404831Y-142477104D01*
X78406762Y-142474295D01*
X78408374Y-142471301D01*
X78408379Y-142471293D01*
X78579761Y-142153001D01*
X78581383Y-142149989D01*
X78719958Y-141808720D01*
X78820865Y-141454482D01*
X78882925Y-141091418D01*
X78884888Y-141059332D01*
X78905301Y-140725572D01*
X78905411Y-140723775D01*
X78905494Y-140700000D01*
X78904850Y-140688113D01*
X187094527Y-140688113D01*
X187113162Y-141055971D01*
X187113699Y-141059326D01*
X187113700Y-141059332D01*
X187154038Y-141311170D01*
X187171416Y-141419665D01*
X187268608Y-141774941D01*
X187403602Y-142117642D01*
X187574817Y-142443759D01*
X187576718Y-142446588D01*
X187576724Y-142446598D01*
X187761707Y-142721879D01*
X187780252Y-142749477D01*
X188017502Y-143031221D01*
X188120006Y-143129176D01*
X188281329Y-143283341D01*
X188281336Y-143283347D01*
X188283792Y-143285694D01*
X188576008Y-143509919D01*
X188890731Y-143701274D01*
X189224279Y-143857519D01*
X189227497Y-143858621D01*
X189227500Y-143858622D01*
X189569528Y-143975725D01*
X189569536Y-143975727D01*
X189572751Y-143976828D01*
X189932070Y-144057804D01*
X190015002Y-144067253D01*
X190294650Y-144099115D01*
X190294658Y-144099115D01*
X190298033Y-144099500D01*
X190301437Y-144099518D01*
X190301440Y-144099518D01*
X190501074Y-144100563D01*
X190666358Y-144101428D01*
X190669744Y-144101078D01*
X190669746Y-144101078D01*
X191029345Y-144063918D01*
X191029354Y-144063917D01*
X191032737Y-144063567D01*
X191036070Y-144062853D01*
X191036073Y-144062852D01*
X191213488Y-144024817D01*
X191392884Y-143986358D01*
X191742586Y-143870705D01*
X192077752Y-143717961D01*
X192174965Y-143660240D01*
X192391516Y-143531662D01*
X192391521Y-143531659D01*
X192394461Y-143529913D01*
X192421091Y-143509919D01*
X192686276Y-143310812D01*
X192689009Y-143308760D01*
X192957950Y-143057089D01*
X193198138Y-142777846D01*
X193215838Y-142752093D01*
X193404831Y-142477104D01*
X193406762Y-142474295D01*
X193408374Y-142471301D01*
X193408379Y-142471293D01*
X193579761Y-142153001D01*
X193581383Y-142149989D01*
X193719958Y-141808720D01*
X193820865Y-141454482D01*
X193882925Y-141091418D01*
X193884888Y-141059332D01*
X193905301Y-140725572D01*
X193905411Y-140723775D01*
X193905494Y-140700000D01*
X193885575Y-140332209D01*
X193826052Y-139968720D01*
X193727620Y-139613786D01*
X193724443Y-139605801D01*
X193592690Y-139274722D01*
X193591431Y-139271558D01*
X193561358Y-139214760D01*
X193420677Y-138949060D01*
X193420673Y-138949053D01*
X193419078Y-138946041D01*
X193212578Y-138641041D01*
X192974346Y-138360128D01*
X192707168Y-138106586D01*
X192414172Y-137883382D01*
X192411260Y-137881625D01*
X192411255Y-137881622D01*
X192101705Y-137694889D01*
X192101696Y-137694884D01*
X192098783Y-137693127D01*
X192095693Y-137691693D01*
X192095688Y-137691690D01*
X191931737Y-137615587D01*
X191764691Y-137538047D01*
X191761466Y-137536955D01*
X191761460Y-137536953D01*
X191419032Y-137421048D01*
X191419027Y-137421047D01*
X191415805Y-137419956D01*
X191181920Y-137368104D01*
X191059536Y-137340972D01*
X191059532Y-137340971D01*
X191056206Y-137340234D01*
X190906624Y-137323720D01*
X190693482Y-137300189D01*
X190693475Y-137300189D01*
X190690100Y-137299816D01*
X190686701Y-137299810D01*
X190686700Y-137299810D01*
X190512979Y-137299507D01*
X190321770Y-137299173D01*
X190184556Y-137313837D01*
X189958910Y-137337951D01*
X189958904Y-137337952D01*
X189955526Y-137338313D01*
X189595650Y-137416779D01*
X189246354Y-137533652D01*
X189243261Y-137535075D01*
X189243260Y-137535075D01*
X189233674Y-137539484D01*
X188911723Y-137687565D01*
X188908789Y-137689321D01*
X188908787Y-137689322D01*
X188814763Y-137745594D01*
X188595672Y-137876718D01*
X188301898Y-138098897D01*
X188033837Y-138351505D01*
X187794626Y-138631585D01*
X187792698Y-138634412D01*
X187792696Y-138634414D01*
X187786251Y-138643862D01*
X187587062Y-138935862D01*
X187413574Y-139260776D01*
X187412299Y-139263948D01*
X187412297Y-139263952D01*
X187409240Y-139271558D01*
X187276192Y-139602526D01*
X187176521Y-139957115D01*
X187175959Y-139960472D01*
X187175959Y-139960473D01*
X187174015Y-139972093D01*
X187115729Y-140320393D01*
X187094527Y-140688113D01*
X78904850Y-140688113D01*
X78885575Y-140332209D01*
X78826052Y-139968720D01*
X78727620Y-139613786D01*
X78724443Y-139605801D01*
X78592690Y-139274722D01*
X78591431Y-139271558D01*
X78561358Y-139214760D01*
X78420677Y-138949060D01*
X78420673Y-138949053D01*
X78419078Y-138946041D01*
X78212578Y-138641041D01*
X77974346Y-138360128D01*
X77707168Y-138106586D01*
X77414172Y-137883382D01*
X77411260Y-137881625D01*
X77411255Y-137881622D01*
X77101705Y-137694889D01*
X77101696Y-137694884D01*
X77098783Y-137693127D01*
X77095693Y-137691693D01*
X77095688Y-137691690D01*
X76931737Y-137615587D01*
X76764691Y-137538047D01*
X76761466Y-137536955D01*
X76761460Y-137536953D01*
X76419032Y-137421048D01*
X76419027Y-137421047D01*
X76415805Y-137419956D01*
X76181920Y-137368104D01*
X76059536Y-137340972D01*
X76059532Y-137340971D01*
X76056206Y-137340234D01*
X75906624Y-137323720D01*
X75693482Y-137300189D01*
X75693475Y-137300189D01*
X75690100Y-137299816D01*
X75686701Y-137299810D01*
X75686700Y-137299810D01*
X75512979Y-137299507D01*
X75321770Y-137299173D01*
X75184556Y-137313837D01*
X74958910Y-137337951D01*
X74958904Y-137337952D01*
X74955526Y-137338313D01*
X74595650Y-137416779D01*
X74246354Y-137533652D01*
X74243261Y-137535075D01*
X74243260Y-137535075D01*
X74233674Y-137539484D01*
X73911723Y-137687565D01*
X73908789Y-137689321D01*
X73908787Y-137689322D01*
X73814763Y-137745594D01*
X73595672Y-137876718D01*
X73301898Y-138098897D01*
X73033837Y-138351505D01*
X72794626Y-138631585D01*
X72792698Y-138634412D01*
X72792696Y-138634414D01*
X72786251Y-138643862D01*
X72587062Y-138935862D01*
X72413574Y-139260776D01*
X72412299Y-139263948D01*
X72412297Y-139263952D01*
X72409240Y-139271558D01*
X72276192Y-139602526D01*
X72176521Y-139957115D01*
X72175959Y-139960472D01*
X72175959Y-139960473D01*
X72174015Y-139972093D01*
X72115729Y-140320393D01*
X72094527Y-140688113D01*
X70600000Y-140688113D01*
X70600000Y-122192088D01*
X91103433Y-122192088D01*
X91104725Y-122196064D01*
X91121152Y-122383831D01*
X91170968Y-122569747D01*
X91252312Y-122744189D01*
X91362711Y-122901856D01*
X91498811Y-123037956D01*
X91656478Y-123148355D01*
X91661456Y-123150676D01*
X91661459Y-123150678D01*
X91825938Y-123227376D01*
X91830920Y-123229699D01*
X91836228Y-123231121D01*
X91836230Y-123231122D01*
X91894139Y-123246638D01*
X92016836Y-123279515D01*
X92086830Y-123285638D01*
X92183211Y-123294071D01*
X92183213Y-123294071D01*
X92204603Y-123295942D01*
X92208579Y-123297234D01*
X92223025Y-123292540D01*
X92237927Y-123292966D01*
X92244037Y-123292088D01*
X99192741Y-123292088D01*
X99192741Y-123292507D01*
X99193535Y-123292346D01*
X99208579Y-123297234D01*
X99212555Y-123295942D01*
X99400322Y-123279515D01*
X99523019Y-123246638D01*
X99580928Y-123231122D01*
X99580930Y-123231121D01*
X99586238Y-123229699D01*
X99591220Y-123227376D01*
X99755699Y-123150678D01*
X99755702Y-123150676D01*
X99760680Y-123148355D01*
X99918347Y-123037956D01*
X100054447Y-122901856D01*
X100164846Y-122744189D01*
X100246190Y-122569747D01*
X100296006Y-122383831D01*
X100302129Y-122313837D01*
X100310562Y-122217456D01*
X100310562Y-122217454D01*
X100312433Y-122196064D01*
X100313725Y-122192088D01*
X116103433Y-122192088D01*
X116104725Y-122196064D01*
X116121152Y-122383831D01*
X116170968Y-122569747D01*
X116252312Y-122744189D01*
X116362711Y-122901856D01*
X116498811Y-123037956D01*
X116656478Y-123148355D01*
X116661456Y-123150676D01*
X116661459Y-123150678D01*
X116825938Y-123227376D01*
X116830920Y-123229699D01*
X116836228Y-123231121D01*
X116836230Y-123231122D01*
X116894139Y-123246638D01*
X117016836Y-123279515D01*
X117086830Y-123285638D01*
X117183211Y-123294071D01*
X117183213Y-123294071D01*
X117204603Y-123295942D01*
X117208579Y-123297234D01*
X117223025Y-123292540D01*
X117237927Y-123292966D01*
X117244037Y-123292088D01*
X124192741Y-123292088D01*
X124192741Y-123292507D01*
X124193535Y-123292346D01*
X124208579Y-123297234D01*
X124212555Y-123295942D01*
X124400322Y-123279515D01*
X124523019Y-123246638D01*
X124580928Y-123231122D01*
X124580930Y-123231121D01*
X124586238Y-123229699D01*
X124591220Y-123227376D01*
X124755699Y-123150678D01*
X124755702Y-123150676D01*
X124760680Y-123148355D01*
X124918347Y-123037956D01*
X125054447Y-122901856D01*
X125164846Y-122744189D01*
X125246190Y-122569747D01*
X125296006Y-122383831D01*
X125302129Y-122313837D01*
X125310562Y-122217456D01*
X125310562Y-122217454D01*
X125312433Y-122196064D01*
X125313725Y-122192088D01*
X141103433Y-122192088D01*
X141104725Y-122196064D01*
X141121152Y-122383831D01*
X141170968Y-122569747D01*
X141252312Y-122744189D01*
X141362711Y-122901856D01*
X141498811Y-123037956D01*
X141656478Y-123148355D01*
X141661456Y-123150676D01*
X141661459Y-123150678D01*
X141825938Y-123227376D01*
X141830920Y-123229699D01*
X141836228Y-123231121D01*
X141836230Y-123231122D01*
X141894139Y-123246638D01*
X142016836Y-123279515D01*
X142086830Y-123285638D01*
X142183211Y-123294071D01*
X142183213Y-123294071D01*
X142204603Y-123295942D01*
X142208579Y-123297234D01*
X142223025Y-123292540D01*
X142237927Y-123292966D01*
X142244037Y-123292088D01*
X149192741Y-123292088D01*
X149192741Y-123292507D01*
X149193535Y-123292346D01*
X149208579Y-123297234D01*
X149212555Y-123295942D01*
X149400322Y-123279515D01*
X149523019Y-123246638D01*
X149580928Y-123231122D01*
X149580930Y-123231121D01*
X149586238Y-123229699D01*
X149591220Y-123227376D01*
X149755699Y-123150678D01*
X149755702Y-123150676D01*
X149760680Y-123148355D01*
X149918347Y-123037956D01*
X150054447Y-122901856D01*
X150164846Y-122744189D01*
X150246190Y-122569747D01*
X150296006Y-122383831D01*
X150302129Y-122313837D01*
X150310562Y-122217456D01*
X150310562Y-122217454D01*
X150312433Y-122196064D01*
X150313725Y-122192088D01*
X166103433Y-122192088D01*
X166104725Y-122196064D01*
X166121152Y-122383831D01*
X166170968Y-122569747D01*
X166252312Y-122744189D01*
X166362711Y-122901856D01*
X166498811Y-123037956D01*
X166656478Y-123148355D01*
X166661456Y-123150676D01*
X166661459Y-123150678D01*
X166825938Y-123227376D01*
X166830920Y-123229699D01*
X166836228Y-123231121D01*
X166836230Y-123231122D01*
X166894139Y-123246638D01*
X167016836Y-123279515D01*
X167086830Y-123285638D01*
X167183211Y-123294071D01*
X167183213Y-123294071D01*
X167204603Y-123295942D01*
X167208579Y-123297234D01*
X167223025Y-123292540D01*
X167237927Y-123292966D01*
X167244037Y-123292088D01*
X174192741Y-123292088D01*
X174192741Y-123292507D01*
X174193535Y-123292346D01*
X174208579Y-123297234D01*
X174212555Y-123295942D01*
X174400322Y-123279515D01*
X174523019Y-123246638D01*
X174580928Y-123231122D01*
X174580930Y-123231121D01*
X174586238Y-123229699D01*
X174591220Y-123227376D01*
X174755699Y-123150678D01*
X174755702Y-123150676D01*
X174760680Y-123148355D01*
X174918347Y-123037956D01*
X175054447Y-122901856D01*
X175164846Y-122744189D01*
X175246190Y-122569747D01*
X175296006Y-122383831D01*
X175302129Y-122313837D01*
X175310562Y-122217456D01*
X175310562Y-122217454D01*
X175312433Y-122196064D01*
X175313725Y-122192088D01*
X175309031Y-122177642D01*
X175309457Y-122162740D01*
X175308579Y-122156630D01*
X175308579Y-109557926D01*
X175308998Y-109557926D01*
X175308837Y-109557132D01*
X175313725Y-109542088D01*
X175312433Y-109538112D01*
X175296006Y-109350345D01*
X175246190Y-109164429D01*
X175164846Y-108989987D01*
X175054447Y-108832320D01*
X174918347Y-108696220D01*
X174760680Y-108585821D01*
X174755702Y-108583500D01*
X174755699Y-108583498D01*
X174591220Y-108506800D01*
X174591218Y-108506799D01*
X174586238Y-108504477D01*
X174580930Y-108503055D01*
X174580928Y-108503054D01*
X174506667Y-108483156D01*
X174400322Y-108454661D01*
X174330328Y-108448538D01*
X174233947Y-108440105D01*
X174233945Y-108440105D01*
X174212555Y-108438234D01*
X174208579Y-108436942D01*
X174194133Y-108441636D01*
X174179231Y-108441210D01*
X174173121Y-108442088D01*
X172080094Y-108442088D01*
X172080094Y-108440891D01*
X172077927Y-108441284D01*
X172066475Y-108437032D01*
X172059093Y-108439098D01*
X171929945Y-108447423D01*
X171798363Y-108484655D01*
X171792473Y-108487775D01*
X171792470Y-108487776D01*
X171683414Y-108545541D01*
X171677520Y-108548663D01*
X171572796Y-108636599D01*
X171568705Y-108641860D01*
X171568701Y-108641864D01*
X171564880Y-108646778D01*
X171507273Y-108688274D01*
X171436376Y-108692037D01*
X171382621Y-108662040D01*
X171381337Y-108660118D01*
X171297849Y-108604332D01*
X171285680Y-108601912D01*
X171285679Y-108601911D01*
X171211538Y-108587164D01*
X171199367Y-108584743D01*
X171187196Y-108587164D01*
X171113055Y-108601911D01*
X171113054Y-108601912D01*
X171100885Y-108604332D01*
X171090568Y-108611226D01*
X171090565Y-108611227D01*
X171019370Y-108658799D01*
X170951617Y-108680015D01*
X170879364Y-108658799D01*
X170808169Y-108611227D01*
X170808166Y-108611226D01*
X170797849Y-108604332D01*
X170785680Y-108601912D01*
X170785679Y-108601911D01*
X170711538Y-108587164D01*
X170699367Y-108584743D01*
X170687196Y-108587164D01*
X170613055Y-108601911D01*
X170613054Y-108601912D01*
X170600885Y-108604332D01*
X170590568Y-108611226D01*
X170590565Y-108611227D01*
X170519370Y-108658799D01*
X170451617Y-108680015D01*
X170379364Y-108658799D01*
X170308169Y-108611227D01*
X170308166Y-108611226D01*
X170297849Y-108604332D01*
X170285680Y-108601912D01*
X170285679Y-108601911D01*
X170211538Y-108587164D01*
X170199367Y-108584743D01*
X170187196Y-108587164D01*
X170113055Y-108601911D01*
X170113054Y-108601912D01*
X170100885Y-108604332D01*
X170090569Y-108611225D01*
X170044380Y-108642088D01*
X170017397Y-108660118D01*
X170015658Y-108657516D01*
X169970448Y-108682203D01*
X169899633Y-108677138D01*
X169852916Y-108646493D01*
X169848451Y-108641858D01*
X169844362Y-108636599D01*
X169839256Y-108632311D01*
X169744747Y-108552953D01*
X169739638Y-108548663D01*
X169733744Y-108545541D01*
X169624688Y-108487776D01*
X169624685Y-108487775D01*
X169618795Y-108484655D01*
X169487213Y-108447423D01*
X169432155Y-108443874D01*
X169376263Y-108440271D01*
X169358065Y-108439098D01*
X169350683Y-108437032D01*
X169337443Y-108441947D01*
X169337064Y-108441841D01*
X169337064Y-108442088D01*
X167224417Y-108442088D01*
X167224417Y-108441669D01*
X167223623Y-108441830D01*
X167208579Y-108436942D01*
X167204603Y-108438234D01*
X167016836Y-108454661D01*
X166910491Y-108483156D01*
X166836230Y-108503054D01*
X166836228Y-108503055D01*
X166830920Y-108504477D01*
X166825940Y-108506799D01*
X166825938Y-108506800D01*
X166661459Y-108583498D01*
X166661456Y-108583500D01*
X166656478Y-108585821D01*
X166498811Y-108696220D01*
X166362711Y-108832320D01*
X166252312Y-108989987D01*
X166170968Y-109164429D01*
X166121152Y-109350345D01*
X166120673Y-109355824D01*
X166106596Y-109516720D01*
X166106596Y-109516722D01*
X166104725Y-109538112D01*
X166103433Y-109542088D01*
X166108127Y-109556534D01*
X166107701Y-109571436D01*
X166108579Y-109577546D01*
X166108579Y-122176250D01*
X166108160Y-122176250D01*
X166108321Y-122177044D01*
X166103433Y-122192088D01*
X150313725Y-122192088D01*
X150309031Y-122177642D01*
X150309457Y-122162740D01*
X150308579Y-122156630D01*
X150308579Y-109557926D01*
X150308998Y-109557926D01*
X150308837Y-109557132D01*
X150313725Y-109542088D01*
X150312433Y-109538112D01*
X150296006Y-109350345D01*
X150246190Y-109164429D01*
X150164846Y-108989987D01*
X150054447Y-108832320D01*
X149918347Y-108696220D01*
X149760680Y-108585821D01*
X149755702Y-108583500D01*
X149755699Y-108583498D01*
X149591220Y-108506800D01*
X149591218Y-108506799D01*
X149586238Y-108504477D01*
X149580930Y-108503055D01*
X149580928Y-108503054D01*
X149506667Y-108483156D01*
X149400322Y-108454661D01*
X149330328Y-108448538D01*
X149233947Y-108440105D01*
X149233945Y-108440105D01*
X149212555Y-108438234D01*
X149208579Y-108436942D01*
X149194133Y-108441636D01*
X149179231Y-108441210D01*
X149173121Y-108442088D01*
X147080094Y-108442088D01*
X147080094Y-108440891D01*
X147077927Y-108441284D01*
X147066475Y-108437032D01*
X147059093Y-108439098D01*
X146929945Y-108447423D01*
X146798363Y-108484655D01*
X146792473Y-108487775D01*
X146792470Y-108487776D01*
X146683414Y-108545541D01*
X146677520Y-108548663D01*
X146572796Y-108636599D01*
X146568705Y-108641860D01*
X146568701Y-108641864D01*
X146564880Y-108646778D01*
X146507273Y-108688274D01*
X146436376Y-108692037D01*
X146382621Y-108662040D01*
X146381337Y-108660118D01*
X146297849Y-108604332D01*
X146285680Y-108601912D01*
X146285679Y-108601911D01*
X146211538Y-108587164D01*
X146199367Y-108584743D01*
X146187196Y-108587164D01*
X146113055Y-108601911D01*
X146113054Y-108601912D01*
X146100885Y-108604332D01*
X146090568Y-108611226D01*
X146090565Y-108611227D01*
X146019370Y-108658799D01*
X145951617Y-108680015D01*
X145879364Y-108658799D01*
X145808169Y-108611227D01*
X145808166Y-108611226D01*
X145797849Y-108604332D01*
X145785680Y-108601912D01*
X145785679Y-108601911D01*
X145711538Y-108587164D01*
X145699367Y-108584743D01*
X145687196Y-108587164D01*
X145613055Y-108601911D01*
X145613054Y-108601912D01*
X145600885Y-108604332D01*
X145590568Y-108611226D01*
X145590565Y-108611227D01*
X145519370Y-108658799D01*
X145451617Y-108680015D01*
X145379364Y-108658799D01*
X145308169Y-108611227D01*
X145308166Y-108611226D01*
X145297849Y-108604332D01*
X145285680Y-108601912D01*
X145285679Y-108601911D01*
X145211538Y-108587164D01*
X145199367Y-108584743D01*
X145187196Y-108587164D01*
X145113055Y-108601911D01*
X145113054Y-108601912D01*
X145100885Y-108604332D01*
X145090569Y-108611225D01*
X145044380Y-108642088D01*
X145017397Y-108660118D01*
X145015658Y-108657516D01*
X144970448Y-108682203D01*
X144899633Y-108677138D01*
X144852916Y-108646493D01*
X144848451Y-108641858D01*
X144844362Y-108636599D01*
X144839256Y-108632311D01*
X144744747Y-108552953D01*
X144739638Y-108548663D01*
X144733744Y-108545541D01*
X144624688Y-108487776D01*
X144624685Y-108487775D01*
X144618795Y-108484655D01*
X144487213Y-108447423D01*
X144432155Y-108443874D01*
X144376263Y-108440271D01*
X144358065Y-108439098D01*
X144350683Y-108437032D01*
X144337443Y-108441947D01*
X144337064Y-108441841D01*
X144337064Y-108442088D01*
X142224417Y-108442088D01*
X142224417Y-108441669D01*
X142223623Y-108441830D01*
X142208579Y-108436942D01*
X142204603Y-108438234D01*
X142016836Y-108454661D01*
X141910491Y-108483156D01*
X141836230Y-108503054D01*
X141836228Y-108503055D01*
X141830920Y-108504477D01*
X141825940Y-108506799D01*
X141825938Y-108506800D01*
X141661459Y-108583498D01*
X141661456Y-108583500D01*
X141656478Y-108585821D01*
X141498811Y-108696220D01*
X141362711Y-108832320D01*
X141252312Y-108989987D01*
X141170968Y-109164429D01*
X141121152Y-109350345D01*
X141120673Y-109355824D01*
X141106596Y-109516720D01*
X141106596Y-109516722D01*
X141104725Y-109538112D01*
X141103433Y-109542088D01*
X141108127Y-109556534D01*
X141107701Y-109571436D01*
X141108579Y-109577546D01*
X141108579Y-122176250D01*
X141108160Y-122176250D01*
X141108321Y-122177044D01*
X141103433Y-122192088D01*
X125313725Y-122192088D01*
X125309031Y-122177642D01*
X125309457Y-122162740D01*
X125308579Y-122156630D01*
X125308579Y-109557926D01*
X125308998Y-109557926D01*
X125308837Y-109557132D01*
X125313725Y-109542088D01*
X125312433Y-109538112D01*
X125296006Y-109350345D01*
X125246190Y-109164429D01*
X125164846Y-108989987D01*
X125054447Y-108832320D01*
X124918347Y-108696220D01*
X124760680Y-108585821D01*
X124755702Y-108583500D01*
X124755699Y-108583498D01*
X124591220Y-108506800D01*
X124591218Y-108506799D01*
X124586238Y-108504477D01*
X124580930Y-108503055D01*
X124580928Y-108503054D01*
X124506667Y-108483156D01*
X124400322Y-108454661D01*
X124330328Y-108448538D01*
X124233947Y-108440105D01*
X124233945Y-108440105D01*
X124212555Y-108438234D01*
X124208579Y-108436942D01*
X124194133Y-108441636D01*
X124179231Y-108441210D01*
X124173121Y-108442088D01*
X122080094Y-108442088D01*
X122080094Y-108440891D01*
X122077927Y-108441284D01*
X122066475Y-108437032D01*
X122059093Y-108439098D01*
X121929945Y-108447423D01*
X121798363Y-108484655D01*
X121792473Y-108487775D01*
X121792470Y-108487776D01*
X121683414Y-108545541D01*
X121677520Y-108548663D01*
X121572796Y-108636599D01*
X121568705Y-108641860D01*
X121568701Y-108641864D01*
X121564880Y-108646778D01*
X121507273Y-108688274D01*
X121436376Y-108692037D01*
X121382621Y-108662040D01*
X121381337Y-108660118D01*
X121297849Y-108604332D01*
X121285680Y-108601912D01*
X121285679Y-108601911D01*
X121211538Y-108587164D01*
X121199367Y-108584743D01*
X121187196Y-108587164D01*
X121113055Y-108601911D01*
X121113054Y-108601912D01*
X121100885Y-108604332D01*
X121090568Y-108611226D01*
X121090565Y-108611227D01*
X121019370Y-108658799D01*
X120951617Y-108680015D01*
X120879364Y-108658799D01*
X120808169Y-108611227D01*
X120808166Y-108611226D01*
X120797849Y-108604332D01*
X120785680Y-108601912D01*
X120785679Y-108601911D01*
X120711538Y-108587164D01*
X120699367Y-108584743D01*
X120687196Y-108587164D01*
X120613055Y-108601911D01*
X120613054Y-108601912D01*
X120600885Y-108604332D01*
X120590568Y-108611226D01*
X120590565Y-108611227D01*
X120519370Y-108658799D01*
X120451617Y-108680015D01*
X120379364Y-108658799D01*
X120308169Y-108611227D01*
X120308166Y-108611226D01*
X120297849Y-108604332D01*
X120285680Y-108601912D01*
X120285679Y-108601911D01*
X120211538Y-108587164D01*
X120199367Y-108584743D01*
X120187196Y-108587164D01*
X120113055Y-108601911D01*
X120113054Y-108601912D01*
X120100885Y-108604332D01*
X120090569Y-108611225D01*
X120044380Y-108642088D01*
X120017397Y-108660118D01*
X120015658Y-108657516D01*
X119970448Y-108682203D01*
X119899633Y-108677138D01*
X119852916Y-108646493D01*
X119848451Y-108641858D01*
X119844362Y-108636599D01*
X119839256Y-108632311D01*
X119744747Y-108552953D01*
X119739638Y-108548663D01*
X119733744Y-108545541D01*
X119624688Y-108487776D01*
X119624685Y-108487775D01*
X119618795Y-108484655D01*
X119487213Y-108447423D01*
X119432155Y-108443874D01*
X119376263Y-108440271D01*
X119358065Y-108439098D01*
X119350683Y-108437032D01*
X119337443Y-108441947D01*
X119337064Y-108441841D01*
X119337064Y-108442088D01*
X117224417Y-108442088D01*
X117224417Y-108441669D01*
X117223623Y-108441830D01*
X117208579Y-108436942D01*
X117204603Y-108438234D01*
X117016836Y-108454661D01*
X116910491Y-108483156D01*
X116836230Y-108503054D01*
X116836228Y-108503055D01*
X116830920Y-108504477D01*
X116825940Y-108506799D01*
X116825938Y-108506800D01*
X116661459Y-108583498D01*
X116661456Y-108583500D01*
X116656478Y-108585821D01*
X116498811Y-108696220D01*
X116362711Y-108832320D01*
X116252312Y-108989987D01*
X116170968Y-109164429D01*
X116121152Y-109350345D01*
X116120673Y-109355824D01*
X116106596Y-109516720D01*
X116106596Y-109516722D01*
X116104725Y-109538112D01*
X116103433Y-109542088D01*
X116108127Y-109556534D01*
X116107701Y-109571436D01*
X116108579Y-109577546D01*
X116108579Y-122176250D01*
X116108160Y-122176250D01*
X116108321Y-122177044D01*
X116103433Y-122192088D01*
X100313725Y-122192088D01*
X100309031Y-122177642D01*
X100309457Y-122162740D01*
X100308579Y-122156630D01*
X100308579Y-109557926D01*
X100308998Y-109557926D01*
X100308837Y-109557132D01*
X100313725Y-109542088D01*
X100312433Y-109538112D01*
X100296006Y-109350345D01*
X100246190Y-109164429D01*
X100164846Y-108989987D01*
X100054447Y-108832320D01*
X99918347Y-108696220D01*
X99760680Y-108585821D01*
X99755702Y-108583500D01*
X99755699Y-108583498D01*
X99591220Y-108506800D01*
X99591218Y-108506799D01*
X99586238Y-108504477D01*
X99580930Y-108503055D01*
X99580928Y-108503054D01*
X99506667Y-108483156D01*
X99400322Y-108454661D01*
X99330328Y-108448538D01*
X99233947Y-108440105D01*
X99233945Y-108440105D01*
X99212555Y-108438234D01*
X99208579Y-108436942D01*
X99194133Y-108441636D01*
X99179231Y-108441210D01*
X99173121Y-108442088D01*
X97080094Y-108442088D01*
X97080094Y-108440891D01*
X97077927Y-108441284D01*
X97066475Y-108437032D01*
X97059093Y-108439098D01*
X96929945Y-108447423D01*
X96803662Y-108483156D01*
X96803660Y-108483156D01*
X96798363Y-108484655D01*
X96798235Y-108484203D01*
X96757392Y-108492088D01*
X94659766Y-108492088D01*
X94618923Y-108484203D01*
X94618795Y-108484655D01*
X94613498Y-108483156D01*
X94613496Y-108483156D01*
X94487213Y-108447423D01*
X94432155Y-108443874D01*
X94376263Y-108440271D01*
X94358065Y-108439098D01*
X94350683Y-108437032D01*
X94337443Y-108441947D01*
X94337064Y-108441841D01*
X94337064Y-108442088D01*
X92224417Y-108442088D01*
X92224417Y-108441669D01*
X92223623Y-108441830D01*
X92208579Y-108436942D01*
X92204603Y-108438234D01*
X92016836Y-108454661D01*
X91910491Y-108483156D01*
X91836230Y-108503054D01*
X91836228Y-108503055D01*
X91830920Y-108504477D01*
X91825940Y-108506799D01*
X91825938Y-108506800D01*
X91661459Y-108583498D01*
X91661456Y-108583500D01*
X91656478Y-108585821D01*
X91498811Y-108696220D01*
X91362711Y-108832320D01*
X91252312Y-108989987D01*
X91170968Y-109164429D01*
X91121152Y-109350345D01*
X91120673Y-109355824D01*
X91106596Y-109516720D01*
X91106596Y-109516722D01*
X91104725Y-109538112D01*
X91103433Y-109542088D01*
X91108127Y-109556534D01*
X91107701Y-109571436D01*
X91108579Y-109577546D01*
X91108579Y-122176250D01*
X91108160Y-122176250D01*
X91108321Y-122177044D01*
X91103433Y-122192088D01*
X70600000Y-122192088D01*
X70600000Y-97192088D01*
X91103433Y-97192088D01*
X91104725Y-97196064D01*
X91121152Y-97383831D01*
X91170968Y-97569747D01*
X91252312Y-97744189D01*
X91362711Y-97901856D01*
X91498811Y-98037956D01*
X91656478Y-98148355D01*
X91661456Y-98150676D01*
X91661459Y-98150678D01*
X91825938Y-98227376D01*
X91830920Y-98229699D01*
X91836228Y-98231121D01*
X91836230Y-98231122D01*
X91894139Y-98246638D01*
X92016836Y-98279515D01*
X92086830Y-98285638D01*
X92183211Y-98294071D01*
X92183213Y-98294071D01*
X92204603Y-98295942D01*
X92208579Y-98297234D01*
X92223025Y-98292540D01*
X92237927Y-98292966D01*
X92244037Y-98292088D01*
X99192741Y-98292088D01*
X99192741Y-98292507D01*
X99193535Y-98292346D01*
X99208579Y-98297234D01*
X99212555Y-98295942D01*
X99400322Y-98279515D01*
X99523019Y-98246638D01*
X99580928Y-98231122D01*
X99580930Y-98231121D01*
X99586238Y-98229699D01*
X99591220Y-98227376D01*
X99755699Y-98150678D01*
X99755702Y-98150676D01*
X99760680Y-98148355D01*
X99918347Y-98037956D01*
X100054447Y-97901856D01*
X100164846Y-97744189D01*
X100246190Y-97569747D01*
X100296006Y-97383831D01*
X100302129Y-97313837D01*
X100310562Y-97217456D01*
X100310562Y-97217454D01*
X100312433Y-97196064D01*
X100313725Y-97192088D01*
X116103433Y-97192088D01*
X116104725Y-97196064D01*
X116121152Y-97383831D01*
X116170968Y-97569747D01*
X116252312Y-97744189D01*
X116362711Y-97901856D01*
X116498811Y-98037956D01*
X116656478Y-98148355D01*
X116661456Y-98150676D01*
X116661459Y-98150678D01*
X116825938Y-98227376D01*
X116830920Y-98229699D01*
X116836228Y-98231121D01*
X116836230Y-98231122D01*
X116894139Y-98246638D01*
X117016836Y-98279515D01*
X117086830Y-98285638D01*
X117183211Y-98294071D01*
X117183213Y-98294071D01*
X117204603Y-98295942D01*
X117208579Y-98297234D01*
X117223025Y-98292540D01*
X117237927Y-98292966D01*
X117244037Y-98292088D01*
X124192741Y-98292088D01*
X124192741Y-98292507D01*
X124193535Y-98292346D01*
X124208579Y-98297234D01*
X124212555Y-98295942D01*
X124400322Y-98279515D01*
X124523019Y-98246638D01*
X124580928Y-98231122D01*
X124580930Y-98231121D01*
X124586238Y-98229699D01*
X124591220Y-98227376D01*
X124755699Y-98150678D01*
X124755702Y-98150676D01*
X124760680Y-98148355D01*
X124918347Y-98037956D01*
X125054447Y-97901856D01*
X125164846Y-97744189D01*
X125246190Y-97569747D01*
X125296006Y-97383831D01*
X125302129Y-97313837D01*
X125310562Y-97217456D01*
X125310562Y-97217454D01*
X125312433Y-97196064D01*
X125313725Y-97192088D01*
X141103433Y-97192088D01*
X141104725Y-97196064D01*
X141121152Y-97383831D01*
X141170968Y-97569747D01*
X141252312Y-97744189D01*
X141362711Y-97901856D01*
X141498811Y-98037956D01*
X141656478Y-98148355D01*
X141661456Y-98150676D01*
X141661459Y-98150678D01*
X141825938Y-98227376D01*
X141830920Y-98229699D01*
X141836228Y-98231121D01*
X141836230Y-98231122D01*
X141894139Y-98246638D01*
X142016836Y-98279515D01*
X142086830Y-98285638D01*
X142183211Y-98294071D01*
X142183213Y-98294071D01*
X142204603Y-98295942D01*
X142208579Y-98297234D01*
X142223025Y-98292540D01*
X142237927Y-98292966D01*
X142244037Y-98292088D01*
X149192741Y-98292088D01*
X149192741Y-98292507D01*
X149193535Y-98292346D01*
X149208579Y-98297234D01*
X149212555Y-98295942D01*
X149400322Y-98279515D01*
X149523019Y-98246638D01*
X149580928Y-98231122D01*
X149580930Y-98231121D01*
X149586238Y-98229699D01*
X149591220Y-98227376D01*
X149755699Y-98150678D01*
X149755702Y-98150676D01*
X149760680Y-98148355D01*
X149918347Y-98037956D01*
X150054447Y-97901856D01*
X150164846Y-97744189D01*
X150246190Y-97569747D01*
X150296006Y-97383831D01*
X150302129Y-97313837D01*
X150310562Y-97217456D01*
X150310562Y-97217454D01*
X150312433Y-97196064D01*
X150313725Y-97192088D01*
X166103433Y-97192088D01*
X166104725Y-97196064D01*
X166121152Y-97383831D01*
X166170968Y-97569747D01*
X166252312Y-97744189D01*
X166362711Y-97901856D01*
X166498811Y-98037956D01*
X166656478Y-98148355D01*
X166661456Y-98150676D01*
X166661459Y-98150678D01*
X166825938Y-98227376D01*
X166830920Y-98229699D01*
X166836228Y-98231121D01*
X166836230Y-98231122D01*
X166894139Y-98246638D01*
X167016836Y-98279515D01*
X167086830Y-98285638D01*
X167183211Y-98294071D01*
X167183213Y-98294071D01*
X167204603Y-98295942D01*
X167208579Y-98297234D01*
X167223025Y-98292540D01*
X167237927Y-98292966D01*
X167244037Y-98292088D01*
X174192741Y-98292088D01*
X174192741Y-98292507D01*
X174193535Y-98292346D01*
X174208579Y-98297234D01*
X174212555Y-98295942D01*
X174400322Y-98279515D01*
X174523019Y-98246638D01*
X174580928Y-98231122D01*
X174580930Y-98231121D01*
X174586238Y-98229699D01*
X174591220Y-98227376D01*
X174755699Y-98150678D01*
X174755702Y-98150676D01*
X174760680Y-98148355D01*
X174918347Y-98037956D01*
X175054447Y-97901856D01*
X175164846Y-97744189D01*
X175246190Y-97569747D01*
X175296006Y-97383831D01*
X175302129Y-97313837D01*
X175310562Y-97217456D01*
X175310562Y-97217454D01*
X175312433Y-97196064D01*
X175313725Y-97192088D01*
X175309031Y-97177642D01*
X175309457Y-97162740D01*
X175308579Y-97156630D01*
X175308579Y-84557926D01*
X175308998Y-84557926D01*
X175308837Y-84557132D01*
X175313725Y-84542088D01*
X175312433Y-84538112D01*
X175296006Y-84350345D01*
X175246190Y-84164429D01*
X175164846Y-83989987D01*
X175054447Y-83832320D01*
X174918347Y-83696220D01*
X174760680Y-83585821D01*
X174755702Y-83583500D01*
X174755699Y-83583498D01*
X174591220Y-83506800D01*
X174591218Y-83506799D01*
X174586238Y-83504477D01*
X174580930Y-83503055D01*
X174580928Y-83503054D01*
X174506667Y-83483156D01*
X174400322Y-83454661D01*
X174330328Y-83448538D01*
X174233947Y-83440105D01*
X174233945Y-83440105D01*
X174212555Y-83438234D01*
X174208579Y-83436942D01*
X174194133Y-83441636D01*
X174179231Y-83441210D01*
X174173121Y-83442088D01*
X172080094Y-83442088D01*
X172080094Y-83440891D01*
X172077927Y-83441284D01*
X172066475Y-83437032D01*
X172059093Y-83439098D01*
X171929945Y-83447423D01*
X171798363Y-83484655D01*
X171792473Y-83487775D01*
X171792470Y-83487776D01*
X171683414Y-83545541D01*
X171677520Y-83548663D01*
X171572796Y-83636599D01*
X171568705Y-83641860D01*
X171568701Y-83641864D01*
X171564880Y-83646778D01*
X171507273Y-83688274D01*
X171436376Y-83692037D01*
X171382621Y-83662040D01*
X171381337Y-83660118D01*
X171297849Y-83604332D01*
X171285680Y-83601912D01*
X171285679Y-83601911D01*
X171211538Y-83587164D01*
X171199367Y-83584743D01*
X171187196Y-83587164D01*
X171113055Y-83601911D01*
X171113054Y-83601912D01*
X171100885Y-83604332D01*
X171090568Y-83611226D01*
X171090565Y-83611227D01*
X171019370Y-83658799D01*
X170951617Y-83680015D01*
X170879364Y-83658799D01*
X170808169Y-83611227D01*
X170808166Y-83611226D01*
X170797849Y-83604332D01*
X170785680Y-83601912D01*
X170785679Y-83601911D01*
X170711538Y-83587164D01*
X170699367Y-83584743D01*
X170687196Y-83587164D01*
X170613055Y-83601911D01*
X170613054Y-83601912D01*
X170600885Y-83604332D01*
X170590568Y-83611226D01*
X170590565Y-83611227D01*
X170519370Y-83658799D01*
X170451617Y-83680015D01*
X170379364Y-83658799D01*
X170308169Y-83611227D01*
X170308166Y-83611226D01*
X170297849Y-83604332D01*
X170285680Y-83601912D01*
X170285679Y-83601911D01*
X170211538Y-83587164D01*
X170199367Y-83584743D01*
X170187196Y-83587164D01*
X170113055Y-83601911D01*
X170113054Y-83601912D01*
X170100885Y-83604332D01*
X170090569Y-83611225D01*
X170044380Y-83642088D01*
X170017397Y-83660118D01*
X170015658Y-83657516D01*
X169970448Y-83682203D01*
X169899633Y-83677138D01*
X169852916Y-83646493D01*
X169848451Y-83641858D01*
X169844362Y-83636599D01*
X169839256Y-83632311D01*
X169744747Y-83552953D01*
X169739638Y-83548663D01*
X169733744Y-83545541D01*
X169624688Y-83487776D01*
X169624685Y-83487775D01*
X169618795Y-83484655D01*
X169487213Y-83447423D01*
X169432155Y-83443874D01*
X169376263Y-83440271D01*
X169358065Y-83439098D01*
X169350683Y-83437032D01*
X169337443Y-83441947D01*
X169337064Y-83441841D01*
X169337064Y-83442088D01*
X167224417Y-83442088D01*
X167224417Y-83441669D01*
X167223623Y-83441830D01*
X167208579Y-83436942D01*
X167204603Y-83438234D01*
X167016836Y-83454661D01*
X166910491Y-83483156D01*
X166836230Y-83503054D01*
X166836228Y-83503055D01*
X166830920Y-83504477D01*
X166825940Y-83506799D01*
X166825938Y-83506800D01*
X166661459Y-83583498D01*
X166661456Y-83583500D01*
X166656478Y-83585821D01*
X166498811Y-83696220D01*
X166362711Y-83832320D01*
X166252312Y-83989987D01*
X166170968Y-84164429D01*
X166121152Y-84350345D01*
X166120673Y-84355824D01*
X166106596Y-84516720D01*
X166106596Y-84516722D01*
X166104725Y-84538112D01*
X166103433Y-84542088D01*
X166108127Y-84556534D01*
X166107701Y-84571436D01*
X166108579Y-84577546D01*
X166108579Y-97176250D01*
X166108160Y-97176250D01*
X166108321Y-97177044D01*
X166103433Y-97192088D01*
X150313725Y-97192088D01*
X150309031Y-97177642D01*
X150309457Y-97162740D01*
X150308579Y-97156630D01*
X150308579Y-84557926D01*
X150308998Y-84557926D01*
X150308837Y-84557132D01*
X150313725Y-84542088D01*
X150312433Y-84538112D01*
X150296006Y-84350345D01*
X150246190Y-84164429D01*
X150164846Y-83989987D01*
X150054447Y-83832320D01*
X149918347Y-83696220D01*
X149760680Y-83585821D01*
X149755702Y-83583500D01*
X149755699Y-83583498D01*
X149591220Y-83506800D01*
X149591218Y-83506799D01*
X149586238Y-83504477D01*
X149580930Y-83503055D01*
X149580928Y-83503054D01*
X149506667Y-83483156D01*
X149400322Y-83454661D01*
X149330328Y-83448538D01*
X149233947Y-83440105D01*
X149233945Y-83440105D01*
X149212555Y-83438234D01*
X149208579Y-83436942D01*
X149194133Y-83441636D01*
X149179231Y-83441210D01*
X149173121Y-83442088D01*
X147080094Y-83442088D01*
X147080094Y-83440891D01*
X147077927Y-83441284D01*
X147066475Y-83437032D01*
X147059093Y-83439098D01*
X146929945Y-83447423D01*
X146798363Y-83484655D01*
X146792473Y-83487775D01*
X146792470Y-83487776D01*
X146683414Y-83545541D01*
X146677520Y-83548663D01*
X146572796Y-83636599D01*
X146568705Y-83641860D01*
X146568701Y-83641864D01*
X146564880Y-83646778D01*
X146507273Y-83688274D01*
X146436376Y-83692037D01*
X146382621Y-83662040D01*
X146381337Y-83660118D01*
X146297849Y-83604332D01*
X146285680Y-83601912D01*
X146285679Y-83601911D01*
X146211538Y-83587164D01*
X146199367Y-83584743D01*
X146187196Y-83587164D01*
X146113055Y-83601911D01*
X146113054Y-83601912D01*
X146100885Y-83604332D01*
X146090568Y-83611226D01*
X146090565Y-83611227D01*
X146019370Y-83658799D01*
X145951617Y-83680015D01*
X145879364Y-83658799D01*
X145808169Y-83611227D01*
X145808166Y-83611226D01*
X145797849Y-83604332D01*
X145785680Y-83601912D01*
X145785679Y-83601911D01*
X145711538Y-83587164D01*
X145699367Y-83584743D01*
X145687196Y-83587164D01*
X145613055Y-83601911D01*
X145613054Y-83601912D01*
X145600885Y-83604332D01*
X145590568Y-83611226D01*
X145590565Y-83611227D01*
X145519370Y-83658799D01*
X145451617Y-83680015D01*
X145379364Y-83658799D01*
X145308169Y-83611227D01*
X145308166Y-83611226D01*
X145297849Y-83604332D01*
X145285680Y-83601912D01*
X145285679Y-83601911D01*
X145211538Y-83587164D01*
X145199367Y-83584743D01*
X145187196Y-83587164D01*
X145113055Y-83601911D01*
X145113054Y-83601912D01*
X145100885Y-83604332D01*
X145090569Y-83611225D01*
X145044380Y-83642088D01*
X145017397Y-83660118D01*
X145015658Y-83657516D01*
X144970448Y-83682203D01*
X144899633Y-83677138D01*
X144852916Y-83646493D01*
X144848451Y-83641858D01*
X144844362Y-83636599D01*
X144839256Y-83632311D01*
X144744747Y-83552953D01*
X144739638Y-83548663D01*
X144733744Y-83545541D01*
X144624688Y-83487776D01*
X144624685Y-83487775D01*
X144618795Y-83484655D01*
X144487213Y-83447423D01*
X144432155Y-83443874D01*
X144376263Y-83440271D01*
X144358065Y-83439098D01*
X144350683Y-83437032D01*
X144337443Y-83441947D01*
X144337064Y-83441841D01*
X144337064Y-83442088D01*
X142224417Y-83442088D01*
X142224417Y-83441669D01*
X142223623Y-83441830D01*
X142208579Y-83436942D01*
X142204603Y-83438234D01*
X142016836Y-83454661D01*
X141910491Y-83483156D01*
X141836230Y-83503054D01*
X141836228Y-83503055D01*
X141830920Y-83504477D01*
X141825940Y-83506799D01*
X141825938Y-83506800D01*
X141661459Y-83583498D01*
X141661456Y-83583500D01*
X141656478Y-83585821D01*
X141498811Y-83696220D01*
X141362711Y-83832320D01*
X141252312Y-83989987D01*
X141170968Y-84164429D01*
X141121152Y-84350345D01*
X141120673Y-84355824D01*
X141106596Y-84516720D01*
X141106596Y-84516722D01*
X141104725Y-84538112D01*
X141103433Y-84542088D01*
X141108127Y-84556534D01*
X141107701Y-84571436D01*
X141108579Y-84577546D01*
X141108579Y-97176250D01*
X141108160Y-97176250D01*
X141108321Y-97177044D01*
X141103433Y-97192088D01*
X125313725Y-97192088D01*
X125309031Y-97177642D01*
X125309457Y-97162740D01*
X125308579Y-97156630D01*
X125308579Y-84557926D01*
X125308998Y-84557926D01*
X125308837Y-84557132D01*
X125313725Y-84542088D01*
X125312433Y-84538112D01*
X125296006Y-84350345D01*
X125246190Y-84164429D01*
X125164846Y-83989987D01*
X125054447Y-83832320D01*
X124918347Y-83696220D01*
X124760680Y-83585821D01*
X124755702Y-83583500D01*
X124755699Y-83583498D01*
X124591220Y-83506800D01*
X124591218Y-83506799D01*
X124586238Y-83504477D01*
X124580930Y-83503055D01*
X124580928Y-83503054D01*
X124506667Y-83483156D01*
X124400322Y-83454661D01*
X124330328Y-83448538D01*
X124233947Y-83440105D01*
X124233945Y-83440105D01*
X124212555Y-83438234D01*
X124208579Y-83436942D01*
X124194133Y-83441636D01*
X124179231Y-83441210D01*
X124173121Y-83442088D01*
X122080094Y-83442088D01*
X122080094Y-83440891D01*
X122077927Y-83441284D01*
X122066475Y-83437032D01*
X122059093Y-83439098D01*
X121929945Y-83447423D01*
X121798363Y-83484655D01*
X121792473Y-83487775D01*
X121792470Y-83487776D01*
X121683414Y-83545541D01*
X121677520Y-83548663D01*
X121572796Y-83636599D01*
X121568705Y-83641860D01*
X121568701Y-83641864D01*
X121564880Y-83646778D01*
X121507273Y-83688274D01*
X121436376Y-83692037D01*
X121382621Y-83662040D01*
X121381337Y-83660118D01*
X121297849Y-83604332D01*
X121285680Y-83601912D01*
X121285679Y-83601911D01*
X121211538Y-83587164D01*
X121199367Y-83584743D01*
X121187196Y-83587164D01*
X121113055Y-83601911D01*
X121113054Y-83601912D01*
X121100885Y-83604332D01*
X121090568Y-83611226D01*
X121090565Y-83611227D01*
X121019370Y-83658799D01*
X120951617Y-83680015D01*
X120879364Y-83658799D01*
X120808169Y-83611227D01*
X120808166Y-83611226D01*
X120797849Y-83604332D01*
X120785680Y-83601912D01*
X120785679Y-83601911D01*
X120711538Y-83587164D01*
X120699367Y-83584743D01*
X120687196Y-83587164D01*
X120613055Y-83601911D01*
X120613054Y-83601912D01*
X120600885Y-83604332D01*
X120590568Y-83611226D01*
X120590565Y-83611227D01*
X120519370Y-83658799D01*
X120451617Y-83680015D01*
X120379364Y-83658799D01*
X120308169Y-83611227D01*
X120308166Y-83611226D01*
X120297849Y-83604332D01*
X120285680Y-83601912D01*
X120285679Y-83601911D01*
X120211538Y-83587164D01*
X120199367Y-83584743D01*
X120187196Y-83587164D01*
X120113055Y-83601911D01*
X120113054Y-83601912D01*
X120100885Y-83604332D01*
X120090569Y-83611225D01*
X120044380Y-83642088D01*
X120017397Y-83660118D01*
X120015658Y-83657516D01*
X119970448Y-83682203D01*
X119899633Y-83677138D01*
X119852916Y-83646493D01*
X119848451Y-83641858D01*
X119844362Y-83636599D01*
X119839256Y-83632311D01*
X119744747Y-83552953D01*
X119739638Y-83548663D01*
X119733744Y-83545541D01*
X119624688Y-83487776D01*
X119624685Y-83487775D01*
X119618795Y-83484655D01*
X119487213Y-83447423D01*
X119432155Y-83443874D01*
X119376263Y-83440271D01*
X119358065Y-83439098D01*
X119350683Y-83437032D01*
X119337443Y-83441947D01*
X119337064Y-83441841D01*
X119337064Y-83442088D01*
X117224417Y-83442088D01*
X117224417Y-83441669D01*
X117223623Y-83441830D01*
X117208579Y-83436942D01*
X117204603Y-83438234D01*
X117016836Y-83454661D01*
X116910491Y-83483156D01*
X116836230Y-83503054D01*
X116836228Y-83503055D01*
X116830920Y-83504477D01*
X116825940Y-83506799D01*
X116825938Y-83506800D01*
X116661459Y-83583498D01*
X116661456Y-83583500D01*
X116656478Y-83585821D01*
X116498811Y-83696220D01*
X116362711Y-83832320D01*
X116252312Y-83989987D01*
X116170968Y-84164429D01*
X116121152Y-84350345D01*
X116120673Y-84355824D01*
X116106596Y-84516720D01*
X116106596Y-84516722D01*
X116104725Y-84538112D01*
X116103433Y-84542088D01*
X116108127Y-84556534D01*
X116107701Y-84571436D01*
X116108579Y-84577546D01*
X116108579Y-97176250D01*
X116108160Y-97176250D01*
X116108321Y-97177044D01*
X116103433Y-97192088D01*
X100313725Y-97192088D01*
X100309031Y-97177642D01*
X100309457Y-97162740D01*
X100308579Y-97156630D01*
X100308579Y-84557926D01*
X100308998Y-84557926D01*
X100308837Y-84557132D01*
X100313725Y-84542088D01*
X100312433Y-84538112D01*
X100296006Y-84350345D01*
X100246190Y-84164429D01*
X100164846Y-83989987D01*
X100054447Y-83832320D01*
X99918347Y-83696220D01*
X99760680Y-83585821D01*
X99755702Y-83583500D01*
X99755699Y-83583498D01*
X99591220Y-83506800D01*
X99591218Y-83506799D01*
X99586238Y-83504477D01*
X99580930Y-83503055D01*
X99580928Y-83503054D01*
X99506667Y-83483156D01*
X99400322Y-83454661D01*
X99330328Y-83448538D01*
X99233947Y-83440105D01*
X99233945Y-83440105D01*
X99212555Y-83438234D01*
X99208579Y-83436942D01*
X99194133Y-83441636D01*
X99179231Y-83441210D01*
X99173121Y-83442088D01*
X97080094Y-83442088D01*
X97080094Y-83440891D01*
X97077927Y-83441284D01*
X97066475Y-83437032D01*
X97059093Y-83439098D01*
X96929945Y-83447423D01*
X96803662Y-83483156D01*
X96803660Y-83483156D01*
X96798363Y-83484655D01*
X96798235Y-83484203D01*
X96757392Y-83492088D01*
X94659766Y-83492088D01*
X94618923Y-83484203D01*
X94618795Y-83484655D01*
X94613498Y-83483156D01*
X94613496Y-83483156D01*
X94487213Y-83447423D01*
X94432155Y-83443874D01*
X94376263Y-83440271D01*
X94358065Y-83439098D01*
X94350683Y-83437032D01*
X94337443Y-83441947D01*
X94337064Y-83441841D01*
X94337064Y-83442088D01*
X92224417Y-83442088D01*
X92224417Y-83441669D01*
X92223623Y-83441830D01*
X92208579Y-83436942D01*
X92204603Y-83438234D01*
X92016836Y-83454661D01*
X91910491Y-83483156D01*
X91836230Y-83503054D01*
X91836228Y-83503055D01*
X91830920Y-83504477D01*
X91825940Y-83506799D01*
X91825938Y-83506800D01*
X91661459Y-83583498D01*
X91661456Y-83583500D01*
X91656478Y-83585821D01*
X91498811Y-83696220D01*
X91362711Y-83832320D01*
X91252312Y-83989987D01*
X91170968Y-84164429D01*
X91121152Y-84350345D01*
X91120673Y-84355824D01*
X91106596Y-84516720D01*
X91106596Y-84516722D01*
X91104725Y-84538112D01*
X91103433Y-84542088D01*
X91108127Y-84556534D01*
X91107701Y-84571436D01*
X91108579Y-84577546D01*
X91108579Y-97176250D01*
X91108160Y-97176250D01*
X91108321Y-97177044D01*
X91103433Y-97192088D01*
X70600000Y-97192088D01*
X70600000Y-72192088D01*
X91103433Y-72192088D01*
X91104725Y-72196064D01*
X91121152Y-72383831D01*
X91170968Y-72569747D01*
X91252312Y-72744189D01*
X91362711Y-72901856D01*
X91498811Y-73037956D01*
X91656478Y-73148355D01*
X91661456Y-73150676D01*
X91661459Y-73150678D01*
X91825938Y-73227376D01*
X91830920Y-73229699D01*
X91836228Y-73231121D01*
X91836230Y-73231122D01*
X91894139Y-73246638D01*
X92016836Y-73279515D01*
X92086830Y-73285638D01*
X92183211Y-73294071D01*
X92183213Y-73294071D01*
X92204603Y-73295942D01*
X92208579Y-73297234D01*
X92223025Y-73292540D01*
X92237927Y-73292966D01*
X92244037Y-73292088D01*
X99192741Y-73292088D01*
X99192741Y-73292507D01*
X99193535Y-73292346D01*
X99208579Y-73297234D01*
X99212555Y-73295942D01*
X99400322Y-73279515D01*
X99523019Y-73246638D01*
X99580928Y-73231122D01*
X99580930Y-73231121D01*
X99586238Y-73229699D01*
X99591220Y-73227376D01*
X99755699Y-73150678D01*
X99755702Y-73150676D01*
X99760680Y-73148355D01*
X99918347Y-73037956D01*
X100054447Y-72901856D01*
X100164846Y-72744189D01*
X100246190Y-72569747D01*
X100296006Y-72383831D01*
X100302129Y-72313837D01*
X100310562Y-72217456D01*
X100310562Y-72217454D01*
X100312433Y-72196064D01*
X100313725Y-72192088D01*
X116103433Y-72192088D01*
X116104725Y-72196064D01*
X116121152Y-72383831D01*
X116170968Y-72569747D01*
X116252312Y-72744189D01*
X116362711Y-72901856D01*
X116498811Y-73037956D01*
X116656478Y-73148355D01*
X116661456Y-73150676D01*
X116661459Y-73150678D01*
X116825938Y-73227376D01*
X116830920Y-73229699D01*
X116836228Y-73231121D01*
X116836230Y-73231122D01*
X116894139Y-73246638D01*
X117016836Y-73279515D01*
X117086830Y-73285638D01*
X117183211Y-73294071D01*
X117183213Y-73294071D01*
X117204603Y-73295942D01*
X117208579Y-73297234D01*
X117223025Y-73292540D01*
X117237927Y-73292966D01*
X117244037Y-73292088D01*
X124192741Y-73292088D01*
X124192741Y-73292507D01*
X124193535Y-73292346D01*
X124208579Y-73297234D01*
X124212555Y-73295942D01*
X124400322Y-73279515D01*
X124523019Y-73246638D01*
X124580928Y-73231122D01*
X124580930Y-73231121D01*
X124586238Y-73229699D01*
X124591220Y-73227376D01*
X124755699Y-73150678D01*
X124755702Y-73150676D01*
X124760680Y-73148355D01*
X124918347Y-73037956D01*
X125054447Y-72901856D01*
X125164846Y-72744189D01*
X125246190Y-72569747D01*
X125296006Y-72383831D01*
X125302129Y-72313837D01*
X125310562Y-72217456D01*
X125310562Y-72217454D01*
X125312433Y-72196064D01*
X125313725Y-72192088D01*
X141103433Y-72192088D01*
X141104725Y-72196064D01*
X141121152Y-72383831D01*
X141170968Y-72569747D01*
X141252312Y-72744189D01*
X141362711Y-72901856D01*
X141498811Y-73037956D01*
X141656478Y-73148355D01*
X141661456Y-73150676D01*
X141661459Y-73150678D01*
X141825938Y-73227376D01*
X141830920Y-73229699D01*
X141836228Y-73231121D01*
X141836230Y-73231122D01*
X141894139Y-73246638D01*
X142016836Y-73279515D01*
X142086830Y-73285638D01*
X142183211Y-73294071D01*
X142183213Y-73294071D01*
X142204603Y-73295942D01*
X142208579Y-73297234D01*
X142223025Y-73292540D01*
X142237927Y-73292966D01*
X142244037Y-73292088D01*
X149192741Y-73292088D01*
X149192741Y-73292507D01*
X149193535Y-73292346D01*
X149208579Y-73297234D01*
X149212555Y-73295942D01*
X149400322Y-73279515D01*
X149523019Y-73246638D01*
X149580928Y-73231122D01*
X149580930Y-73231121D01*
X149586238Y-73229699D01*
X149591220Y-73227376D01*
X149755699Y-73150678D01*
X149755702Y-73150676D01*
X149760680Y-73148355D01*
X149918347Y-73037956D01*
X150054447Y-72901856D01*
X150164846Y-72744189D01*
X150246190Y-72569747D01*
X150296006Y-72383831D01*
X150302129Y-72313837D01*
X150310562Y-72217456D01*
X150310562Y-72217454D01*
X150312433Y-72196064D01*
X150313725Y-72192088D01*
X166103433Y-72192088D01*
X166104725Y-72196064D01*
X166121152Y-72383831D01*
X166170968Y-72569747D01*
X166252312Y-72744189D01*
X166362711Y-72901856D01*
X166498811Y-73037956D01*
X166656478Y-73148355D01*
X166661456Y-73150676D01*
X166661459Y-73150678D01*
X166825938Y-73227376D01*
X166830920Y-73229699D01*
X166836228Y-73231121D01*
X166836230Y-73231122D01*
X166894139Y-73246638D01*
X167016836Y-73279515D01*
X167086830Y-73285638D01*
X167183211Y-73294071D01*
X167183213Y-73294071D01*
X167204603Y-73295942D01*
X167208579Y-73297234D01*
X167223025Y-73292540D01*
X167237927Y-73292966D01*
X167244037Y-73292088D01*
X174192741Y-73292088D01*
X174192741Y-73292507D01*
X174193535Y-73292346D01*
X174208579Y-73297234D01*
X174212555Y-73295942D01*
X174400322Y-73279515D01*
X174523019Y-73246638D01*
X174580928Y-73231122D01*
X174580930Y-73231121D01*
X174586238Y-73229699D01*
X174591220Y-73227376D01*
X174755699Y-73150678D01*
X174755702Y-73150676D01*
X174760680Y-73148355D01*
X174918347Y-73037956D01*
X175054447Y-72901856D01*
X175164846Y-72744189D01*
X175246190Y-72569747D01*
X175296006Y-72383831D01*
X175302129Y-72313837D01*
X175310562Y-72217456D01*
X175310562Y-72217454D01*
X175312433Y-72196064D01*
X175313725Y-72192088D01*
X175309031Y-72177642D01*
X175309457Y-72162740D01*
X175308579Y-72156630D01*
X175308579Y-59557926D01*
X175308998Y-59557926D01*
X175308837Y-59557132D01*
X175313725Y-59542088D01*
X175312433Y-59538112D01*
X175296006Y-59350345D01*
X175246190Y-59164429D01*
X175164846Y-58989987D01*
X175054447Y-58832320D01*
X174918347Y-58696220D01*
X174760680Y-58585821D01*
X174755702Y-58583500D01*
X174755699Y-58583498D01*
X174591220Y-58506800D01*
X174591218Y-58506799D01*
X174586238Y-58504477D01*
X174580930Y-58503055D01*
X174580928Y-58503054D01*
X174506667Y-58483156D01*
X174400322Y-58454661D01*
X174330328Y-58448538D01*
X174233947Y-58440105D01*
X174233945Y-58440105D01*
X174212555Y-58438234D01*
X174208579Y-58436942D01*
X174194133Y-58441636D01*
X174179231Y-58441210D01*
X174173121Y-58442088D01*
X172080094Y-58442088D01*
X172080094Y-58440891D01*
X172077927Y-58441284D01*
X172066475Y-58437032D01*
X172059093Y-58439098D01*
X171929945Y-58447423D01*
X171798363Y-58484655D01*
X171792473Y-58487775D01*
X171792470Y-58487776D01*
X171683414Y-58545541D01*
X171677520Y-58548663D01*
X171572796Y-58636599D01*
X171568705Y-58641860D01*
X171568701Y-58641864D01*
X171564880Y-58646778D01*
X171507273Y-58688274D01*
X171436376Y-58692037D01*
X171382621Y-58662040D01*
X171381337Y-58660118D01*
X171297849Y-58604332D01*
X171285680Y-58601912D01*
X171285679Y-58601911D01*
X171211538Y-58587164D01*
X171199367Y-58584743D01*
X171187196Y-58587164D01*
X171113055Y-58601911D01*
X171113054Y-58601912D01*
X171100885Y-58604332D01*
X171090568Y-58611226D01*
X171090565Y-58611227D01*
X171019370Y-58658799D01*
X170951617Y-58680015D01*
X170879364Y-58658799D01*
X170808169Y-58611227D01*
X170808166Y-58611226D01*
X170797849Y-58604332D01*
X170785680Y-58601912D01*
X170785679Y-58601911D01*
X170711538Y-58587164D01*
X170699367Y-58584743D01*
X170687196Y-58587164D01*
X170613055Y-58601911D01*
X170613054Y-58601912D01*
X170600885Y-58604332D01*
X170590568Y-58611226D01*
X170590565Y-58611227D01*
X170519370Y-58658799D01*
X170451617Y-58680015D01*
X170379364Y-58658799D01*
X170308169Y-58611227D01*
X170308166Y-58611226D01*
X170297849Y-58604332D01*
X170285680Y-58601912D01*
X170285679Y-58601911D01*
X170211538Y-58587164D01*
X170199367Y-58584743D01*
X170187196Y-58587164D01*
X170113055Y-58601911D01*
X170113054Y-58601912D01*
X170100885Y-58604332D01*
X170090569Y-58611225D01*
X170044380Y-58642088D01*
X170017397Y-58660118D01*
X170015658Y-58657516D01*
X169970448Y-58682203D01*
X169899633Y-58677138D01*
X169852916Y-58646493D01*
X169848451Y-58641858D01*
X169844362Y-58636599D01*
X169839256Y-58632311D01*
X169744747Y-58552953D01*
X169739638Y-58548663D01*
X169733744Y-58545541D01*
X169624688Y-58487776D01*
X169624685Y-58487775D01*
X169618795Y-58484655D01*
X169487213Y-58447423D01*
X169432155Y-58443874D01*
X169376263Y-58440271D01*
X169358065Y-58439098D01*
X169350683Y-58437032D01*
X169337443Y-58441947D01*
X169337064Y-58441841D01*
X169337064Y-58442088D01*
X167224417Y-58442088D01*
X167224417Y-58441669D01*
X167223623Y-58441830D01*
X167208579Y-58436942D01*
X167204603Y-58438234D01*
X167016836Y-58454661D01*
X166910491Y-58483156D01*
X166836230Y-58503054D01*
X166836228Y-58503055D01*
X166830920Y-58504477D01*
X166825940Y-58506799D01*
X166825938Y-58506800D01*
X166661459Y-58583498D01*
X166661456Y-58583500D01*
X166656478Y-58585821D01*
X166498811Y-58696220D01*
X166362711Y-58832320D01*
X166252312Y-58989987D01*
X166170968Y-59164429D01*
X166121152Y-59350345D01*
X166120673Y-59355824D01*
X166106596Y-59516720D01*
X166106596Y-59516722D01*
X166104725Y-59538112D01*
X166103433Y-59542088D01*
X166108127Y-59556534D01*
X166107701Y-59571436D01*
X166108579Y-59577546D01*
X166108579Y-72176250D01*
X166108160Y-72176250D01*
X166108321Y-72177044D01*
X166103433Y-72192088D01*
X150313725Y-72192088D01*
X150309031Y-72177642D01*
X150309457Y-72162740D01*
X150308579Y-72156630D01*
X150308579Y-59557926D01*
X150308998Y-59557926D01*
X150308837Y-59557132D01*
X150313725Y-59542088D01*
X150312433Y-59538112D01*
X150296006Y-59350345D01*
X150246190Y-59164429D01*
X150164846Y-58989987D01*
X150054447Y-58832320D01*
X149918347Y-58696220D01*
X149760680Y-58585821D01*
X149755702Y-58583500D01*
X149755699Y-58583498D01*
X149591220Y-58506800D01*
X149591218Y-58506799D01*
X149586238Y-58504477D01*
X149580930Y-58503055D01*
X149580928Y-58503054D01*
X149506667Y-58483156D01*
X149400322Y-58454661D01*
X149330328Y-58448538D01*
X149233947Y-58440105D01*
X149233945Y-58440105D01*
X149212555Y-58438234D01*
X149208579Y-58436942D01*
X149194133Y-58441636D01*
X149179231Y-58441210D01*
X149173121Y-58442088D01*
X147080094Y-58442088D01*
X147080094Y-58440891D01*
X147077927Y-58441284D01*
X147066475Y-58437032D01*
X147059093Y-58439098D01*
X146929945Y-58447423D01*
X146798363Y-58484655D01*
X146792473Y-58487775D01*
X146792470Y-58487776D01*
X146683414Y-58545541D01*
X146677520Y-58548663D01*
X146572796Y-58636599D01*
X146568705Y-58641860D01*
X146568701Y-58641864D01*
X146564880Y-58646778D01*
X146507273Y-58688274D01*
X146436376Y-58692037D01*
X146382621Y-58662040D01*
X146381337Y-58660118D01*
X146297849Y-58604332D01*
X146285680Y-58601912D01*
X146285679Y-58601911D01*
X146211538Y-58587164D01*
X146199367Y-58584743D01*
X146187196Y-58587164D01*
X146113055Y-58601911D01*
X146113054Y-58601912D01*
X146100885Y-58604332D01*
X146090568Y-58611226D01*
X146090565Y-58611227D01*
X146019370Y-58658799D01*
X145951617Y-58680015D01*
X145879364Y-58658799D01*
X145808169Y-58611227D01*
X145808166Y-58611226D01*
X145797849Y-58604332D01*
X145785680Y-58601912D01*
X145785679Y-58601911D01*
X145711538Y-58587164D01*
X145699367Y-58584743D01*
X145687196Y-58587164D01*
X145613055Y-58601911D01*
X145613054Y-58601912D01*
X145600885Y-58604332D01*
X145590568Y-58611226D01*
X145590565Y-58611227D01*
X145519370Y-58658799D01*
X145451617Y-58680015D01*
X145379364Y-58658799D01*
X145308169Y-58611227D01*
X145308166Y-58611226D01*
X145297849Y-58604332D01*
X145285680Y-58601912D01*
X145285679Y-58601911D01*
X145211538Y-58587164D01*
X145199367Y-58584743D01*
X145187196Y-58587164D01*
X145113055Y-58601911D01*
X145113054Y-58601912D01*
X145100885Y-58604332D01*
X145090569Y-58611225D01*
X145044380Y-58642088D01*
X145017397Y-58660118D01*
X145015658Y-58657516D01*
X144970448Y-58682203D01*
X144899633Y-58677138D01*
X144852916Y-58646493D01*
X144848451Y-58641858D01*
X144844362Y-58636599D01*
X144839256Y-58632311D01*
X144744747Y-58552953D01*
X144739638Y-58548663D01*
X144733744Y-58545541D01*
X144624688Y-58487776D01*
X144624685Y-58487775D01*
X144618795Y-58484655D01*
X144487213Y-58447423D01*
X144432155Y-58443874D01*
X144376263Y-58440271D01*
X144358065Y-58439098D01*
X144350683Y-58437032D01*
X144337443Y-58441947D01*
X144337064Y-58441841D01*
X144337064Y-58442088D01*
X142224417Y-58442088D01*
X142224417Y-58441669D01*
X142223623Y-58441830D01*
X142208579Y-58436942D01*
X142204603Y-58438234D01*
X142016836Y-58454661D01*
X141910491Y-58483156D01*
X141836230Y-58503054D01*
X141836228Y-58503055D01*
X141830920Y-58504477D01*
X141825940Y-58506799D01*
X141825938Y-58506800D01*
X141661459Y-58583498D01*
X141661456Y-58583500D01*
X141656478Y-58585821D01*
X141498811Y-58696220D01*
X141362711Y-58832320D01*
X141252312Y-58989987D01*
X141170968Y-59164429D01*
X141121152Y-59350345D01*
X141120673Y-59355824D01*
X141106596Y-59516720D01*
X141106596Y-59516722D01*
X141104725Y-59538112D01*
X141103433Y-59542088D01*
X141108127Y-59556534D01*
X141107701Y-59571436D01*
X141108579Y-59577546D01*
X141108579Y-72176250D01*
X141108160Y-72176250D01*
X141108321Y-72177044D01*
X141103433Y-72192088D01*
X125313725Y-72192088D01*
X125309031Y-72177642D01*
X125309457Y-72162740D01*
X125308579Y-72156630D01*
X125308579Y-59557926D01*
X125308998Y-59557926D01*
X125308837Y-59557132D01*
X125313725Y-59542088D01*
X125312433Y-59538112D01*
X125296006Y-59350345D01*
X125246190Y-59164429D01*
X125164846Y-58989987D01*
X125054447Y-58832320D01*
X124918347Y-58696220D01*
X124760680Y-58585821D01*
X124755702Y-58583500D01*
X124755699Y-58583498D01*
X124591220Y-58506800D01*
X124591218Y-58506799D01*
X124586238Y-58504477D01*
X124580930Y-58503055D01*
X124580928Y-58503054D01*
X124506667Y-58483156D01*
X124400322Y-58454661D01*
X124330328Y-58448538D01*
X124233947Y-58440105D01*
X124233945Y-58440105D01*
X124212555Y-58438234D01*
X124208579Y-58436942D01*
X124194133Y-58441636D01*
X124179231Y-58441210D01*
X124173121Y-58442088D01*
X122080094Y-58442088D01*
X122080094Y-58440891D01*
X122077927Y-58441284D01*
X122066475Y-58437032D01*
X122059093Y-58439098D01*
X121929945Y-58447423D01*
X121798363Y-58484655D01*
X121792473Y-58487775D01*
X121792470Y-58487776D01*
X121683414Y-58545541D01*
X121677520Y-58548663D01*
X121572796Y-58636599D01*
X121568705Y-58641860D01*
X121568701Y-58641864D01*
X121564880Y-58646778D01*
X121507273Y-58688274D01*
X121436376Y-58692037D01*
X121382621Y-58662040D01*
X121381337Y-58660118D01*
X121297849Y-58604332D01*
X121285680Y-58601912D01*
X121285679Y-58601911D01*
X121211538Y-58587164D01*
X121199367Y-58584743D01*
X121187196Y-58587164D01*
X121113055Y-58601911D01*
X121113054Y-58601912D01*
X121100885Y-58604332D01*
X121090568Y-58611226D01*
X121090565Y-58611227D01*
X121019370Y-58658799D01*
X120951617Y-58680015D01*
X120879364Y-58658799D01*
X120808169Y-58611227D01*
X120808166Y-58611226D01*
X120797849Y-58604332D01*
X120785680Y-58601912D01*
X120785679Y-58601911D01*
X120711538Y-58587164D01*
X120699367Y-58584743D01*
X120687196Y-58587164D01*
X120613055Y-58601911D01*
X120613054Y-58601912D01*
X120600885Y-58604332D01*
X120590568Y-58611226D01*
X120590565Y-58611227D01*
X120519370Y-58658799D01*
X120451617Y-58680015D01*
X120379364Y-58658799D01*
X120308169Y-58611227D01*
X120308166Y-58611226D01*
X120297849Y-58604332D01*
X120285680Y-58601912D01*
X120285679Y-58601911D01*
X120211538Y-58587164D01*
X120199367Y-58584743D01*
X120187196Y-58587164D01*
X120113055Y-58601911D01*
X120113054Y-58601912D01*
X120100885Y-58604332D01*
X120090569Y-58611225D01*
X120044380Y-58642088D01*
X120017397Y-58660118D01*
X120015658Y-58657516D01*
X119970448Y-58682203D01*
X119899633Y-58677138D01*
X119852916Y-58646493D01*
X119848451Y-58641858D01*
X119844362Y-58636599D01*
X119839256Y-58632311D01*
X119744747Y-58552953D01*
X119739638Y-58548663D01*
X119733744Y-58545541D01*
X119624688Y-58487776D01*
X119624685Y-58487775D01*
X119618795Y-58484655D01*
X119487213Y-58447423D01*
X119432155Y-58443874D01*
X119376263Y-58440271D01*
X119358065Y-58439098D01*
X119350683Y-58437032D01*
X119337443Y-58441947D01*
X119337064Y-58441841D01*
X119337064Y-58442088D01*
X117224417Y-58442088D01*
X117224417Y-58441669D01*
X117223623Y-58441830D01*
X117208579Y-58436942D01*
X117204603Y-58438234D01*
X117016836Y-58454661D01*
X116910491Y-58483156D01*
X116836230Y-58503054D01*
X116836228Y-58503055D01*
X116830920Y-58504477D01*
X116825940Y-58506799D01*
X116825938Y-58506800D01*
X116661459Y-58583498D01*
X116661456Y-58583500D01*
X116656478Y-58585821D01*
X116498811Y-58696220D01*
X116362711Y-58832320D01*
X116252312Y-58989987D01*
X116170968Y-59164429D01*
X116121152Y-59350345D01*
X116120673Y-59355824D01*
X116106596Y-59516720D01*
X116106596Y-59516722D01*
X116104725Y-59538112D01*
X116103433Y-59542088D01*
X116108127Y-59556534D01*
X116107701Y-59571436D01*
X116108579Y-59577546D01*
X116108579Y-72176250D01*
X116108160Y-72176250D01*
X116108321Y-72177044D01*
X116103433Y-72192088D01*
X100313725Y-72192088D01*
X100309031Y-72177642D01*
X100309457Y-72162740D01*
X100308579Y-72156630D01*
X100308579Y-59557926D01*
X100308998Y-59557926D01*
X100308837Y-59557132D01*
X100313725Y-59542088D01*
X100312433Y-59538112D01*
X100296006Y-59350345D01*
X100246190Y-59164429D01*
X100164846Y-58989987D01*
X100054447Y-58832320D01*
X99918347Y-58696220D01*
X99760680Y-58585821D01*
X99755702Y-58583500D01*
X99755699Y-58583498D01*
X99591220Y-58506800D01*
X99591218Y-58506799D01*
X99586238Y-58504477D01*
X99580930Y-58503055D01*
X99580928Y-58503054D01*
X99506667Y-58483156D01*
X99400322Y-58454661D01*
X99330328Y-58448538D01*
X99233947Y-58440105D01*
X99233945Y-58440105D01*
X99212555Y-58438234D01*
X99208579Y-58436942D01*
X99194133Y-58441636D01*
X99179231Y-58441210D01*
X99173121Y-58442088D01*
X97080094Y-58442088D01*
X97080094Y-58440891D01*
X97077927Y-58441284D01*
X97066475Y-58437032D01*
X97059093Y-58439098D01*
X96929945Y-58447423D01*
X96803662Y-58483156D01*
X96803660Y-58483156D01*
X96798363Y-58484655D01*
X96798235Y-58484203D01*
X96757392Y-58492088D01*
X94659766Y-58492088D01*
X94618923Y-58484203D01*
X94618795Y-58484655D01*
X94613498Y-58483156D01*
X94613496Y-58483156D01*
X94487213Y-58447423D01*
X94432155Y-58443874D01*
X94376263Y-58440271D01*
X94358065Y-58439098D01*
X94350683Y-58437032D01*
X94337443Y-58441947D01*
X94337064Y-58441841D01*
X94337064Y-58442088D01*
X92224417Y-58442088D01*
X92224417Y-58441669D01*
X92223623Y-58441830D01*
X92208579Y-58436942D01*
X92204603Y-58438234D01*
X92016836Y-58454661D01*
X91910491Y-58483156D01*
X91836230Y-58503054D01*
X91836228Y-58503055D01*
X91830920Y-58504477D01*
X91825940Y-58506799D01*
X91825938Y-58506800D01*
X91661459Y-58583498D01*
X91661456Y-58583500D01*
X91656478Y-58585821D01*
X91498811Y-58696220D01*
X91362711Y-58832320D01*
X91252312Y-58989987D01*
X91170968Y-59164429D01*
X91121152Y-59350345D01*
X91120673Y-59355824D01*
X91106596Y-59516720D01*
X91106596Y-59516722D01*
X91104725Y-59538112D01*
X91103433Y-59542088D01*
X91108127Y-59556534D01*
X91107701Y-59571436D01*
X91108579Y-59577546D01*
X91108579Y-72176250D01*
X91108160Y-72176250D01*
X91108321Y-72177044D01*
X91103433Y-72192088D01*
X70600000Y-72192088D01*
X70600000Y-40688113D01*
X72094527Y-40688113D01*
X72113162Y-41055971D01*
X72113699Y-41059326D01*
X72113700Y-41059332D01*
X72154038Y-41311170D01*
X72171416Y-41419665D01*
X72268608Y-41774941D01*
X72403602Y-42117642D01*
X72574817Y-42443759D01*
X72576718Y-42446588D01*
X72576724Y-42446598D01*
X72761707Y-42721879D01*
X72780252Y-42749477D01*
X73017502Y-43031221D01*
X73120006Y-43129176D01*
X73281329Y-43283341D01*
X73281336Y-43283347D01*
X73283792Y-43285694D01*
X73576008Y-43509919D01*
X73890731Y-43701274D01*
X74224279Y-43857519D01*
X74227497Y-43858621D01*
X74227500Y-43858622D01*
X74569528Y-43975725D01*
X74569536Y-43975727D01*
X74572751Y-43976828D01*
X74932070Y-44057804D01*
X75015002Y-44067253D01*
X75294650Y-44099115D01*
X75294658Y-44099115D01*
X75298033Y-44099500D01*
X75301437Y-44099518D01*
X75301440Y-44099518D01*
X75501074Y-44100563D01*
X75666358Y-44101428D01*
X75669744Y-44101078D01*
X75669746Y-44101078D01*
X76029345Y-44063918D01*
X76029354Y-44063917D01*
X76032737Y-44063567D01*
X76036070Y-44062853D01*
X76036073Y-44062852D01*
X76213488Y-44024817D01*
X76392884Y-43986358D01*
X76742586Y-43870705D01*
X77077752Y-43717961D01*
X77174965Y-43660240D01*
X77391516Y-43531662D01*
X77391521Y-43531659D01*
X77394461Y-43529913D01*
X77421091Y-43509919D01*
X77686276Y-43310812D01*
X77689009Y-43308760D01*
X77957950Y-43057089D01*
X78198138Y-42777846D01*
X78215838Y-42752093D01*
X78404831Y-42477104D01*
X78406762Y-42474295D01*
X78408374Y-42471301D01*
X78408379Y-42471293D01*
X78579761Y-42153001D01*
X78581383Y-42149989D01*
X78719958Y-41808720D01*
X78820865Y-41454482D01*
X78882925Y-41091418D01*
X78884888Y-41059332D01*
X78905301Y-40725572D01*
X78905411Y-40723775D01*
X78905494Y-40700000D01*
X78904850Y-40688113D01*
X187094527Y-40688113D01*
X187113162Y-41055971D01*
X187113699Y-41059326D01*
X187113700Y-41059332D01*
X187154038Y-41311170D01*
X187171416Y-41419665D01*
X187268608Y-41774941D01*
X187403602Y-42117642D01*
X187574817Y-42443759D01*
X187576718Y-42446588D01*
X187576724Y-42446598D01*
X187761707Y-42721879D01*
X187780252Y-42749477D01*
X188017502Y-43031221D01*
X188120006Y-43129176D01*
X188281329Y-43283341D01*
X188281336Y-43283347D01*
X188283792Y-43285694D01*
X188576008Y-43509919D01*
X188890731Y-43701274D01*
X189224279Y-43857519D01*
X189227497Y-43858621D01*
X189227500Y-43858622D01*
X189569528Y-43975725D01*
X189569536Y-43975727D01*
X189572751Y-43976828D01*
X189932070Y-44057804D01*
X190015002Y-44067253D01*
X190294650Y-44099115D01*
X190294658Y-44099115D01*
X190298033Y-44099500D01*
X190301437Y-44099518D01*
X190301440Y-44099518D01*
X190501074Y-44100563D01*
X190666358Y-44101428D01*
X190669744Y-44101078D01*
X190669746Y-44101078D01*
X191029345Y-44063918D01*
X191029354Y-44063917D01*
X191032737Y-44063567D01*
X191036070Y-44062853D01*
X191036073Y-44062852D01*
X191213488Y-44024817D01*
X191392884Y-43986358D01*
X191742586Y-43870705D01*
X192077752Y-43717961D01*
X192174965Y-43660240D01*
X192391516Y-43531662D01*
X192391521Y-43531659D01*
X192394461Y-43529913D01*
X192421091Y-43509919D01*
X192686276Y-43310812D01*
X192689009Y-43308760D01*
X192957950Y-43057089D01*
X193198138Y-42777846D01*
X193215838Y-42752093D01*
X193404831Y-42477104D01*
X193406762Y-42474295D01*
X193408374Y-42471301D01*
X193408379Y-42471293D01*
X193579761Y-42153001D01*
X193581383Y-42149989D01*
X193719958Y-41808720D01*
X193820865Y-41454482D01*
X193882925Y-41091418D01*
X193884888Y-41059332D01*
X193905301Y-40725572D01*
X193905411Y-40723775D01*
X193905494Y-40700000D01*
X193885575Y-40332209D01*
X193826052Y-39968720D01*
X193727620Y-39613786D01*
X193724443Y-39605801D01*
X193592690Y-39274722D01*
X193591431Y-39271558D01*
X193561358Y-39214760D01*
X193420677Y-38949060D01*
X193420673Y-38949053D01*
X193419078Y-38946041D01*
X193212578Y-38641041D01*
X192974346Y-38360128D01*
X192707168Y-38106586D01*
X192414172Y-37883382D01*
X192411260Y-37881625D01*
X192411255Y-37881622D01*
X192101705Y-37694889D01*
X192101696Y-37694884D01*
X192098783Y-37693127D01*
X192095693Y-37691693D01*
X192095688Y-37691690D01*
X191931737Y-37615587D01*
X191764691Y-37538047D01*
X191761466Y-37536955D01*
X191761460Y-37536953D01*
X191419032Y-37421048D01*
X191419027Y-37421047D01*
X191415805Y-37419956D01*
X191181920Y-37368104D01*
X191059536Y-37340972D01*
X191059532Y-37340971D01*
X191056206Y-37340234D01*
X190906624Y-37323720D01*
X190693482Y-37300189D01*
X190693475Y-37300189D01*
X190690100Y-37299816D01*
X190686701Y-37299810D01*
X190686700Y-37299810D01*
X190512979Y-37299507D01*
X190321770Y-37299173D01*
X190184556Y-37313837D01*
X189958910Y-37337951D01*
X189958904Y-37337952D01*
X189955526Y-37338313D01*
X189595650Y-37416779D01*
X189246354Y-37533652D01*
X189243261Y-37535075D01*
X189243260Y-37535075D01*
X189233674Y-37539484D01*
X188911723Y-37687565D01*
X188908789Y-37689321D01*
X188908787Y-37689322D01*
X188814763Y-37745594D01*
X188595672Y-37876718D01*
X188301898Y-38098897D01*
X188033837Y-38351505D01*
X187794626Y-38631585D01*
X187792698Y-38634412D01*
X187792696Y-38634414D01*
X187786251Y-38643862D01*
X187587062Y-38935862D01*
X187413574Y-39260776D01*
X187412299Y-39263948D01*
X187412297Y-39263952D01*
X187409240Y-39271558D01*
X187276192Y-39602526D01*
X187176521Y-39957115D01*
X187175959Y-39960472D01*
X187175959Y-39960473D01*
X187174015Y-39972093D01*
X187115729Y-40320393D01*
X187094527Y-40688113D01*
X78904850Y-40688113D01*
X78885575Y-40332209D01*
X78826052Y-39968720D01*
X78727620Y-39613786D01*
X78724443Y-39605801D01*
X78592690Y-39274722D01*
X78591431Y-39271558D01*
X78561358Y-39214760D01*
X78420677Y-38949060D01*
X78420673Y-38949053D01*
X78419078Y-38946041D01*
X78212578Y-38641041D01*
X77974346Y-38360128D01*
X77707168Y-38106586D01*
X77414172Y-37883382D01*
X77411260Y-37881625D01*
X77411255Y-37881622D01*
X77101705Y-37694889D01*
X77101696Y-37694884D01*
X77098783Y-37693127D01*
X77095693Y-37691693D01*
X77095688Y-37691690D01*
X76931737Y-37615587D01*
X76764691Y-37538047D01*
X76761466Y-37536955D01*
X76761460Y-37536953D01*
X76419032Y-37421048D01*
X76419027Y-37421047D01*
X76415805Y-37419956D01*
X76181920Y-37368104D01*
X76059536Y-37340972D01*
X76059532Y-37340971D01*
X76056206Y-37340234D01*
X75906624Y-37323720D01*
X75693482Y-37300189D01*
X75693475Y-37300189D01*
X75690100Y-37299816D01*
X75686701Y-37299810D01*
X75686700Y-37299810D01*
X75512979Y-37299507D01*
X75321770Y-37299173D01*
X75184556Y-37313837D01*
X74958910Y-37337951D01*
X74958904Y-37337952D01*
X74955526Y-37338313D01*
X74595650Y-37416779D01*
X74246354Y-37533652D01*
X74243261Y-37535075D01*
X74243260Y-37535075D01*
X74233674Y-37539484D01*
X73911723Y-37687565D01*
X73908789Y-37689321D01*
X73908787Y-37689322D01*
X73814763Y-37745594D01*
X73595672Y-37876718D01*
X73301898Y-38098897D01*
X73033837Y-38351505D01*
X72794626Y-38631585D01*
X72792698Y-38634412D01*
X72792696Y-38634414D01*
X72786251Y-38643862D01*
X72587062Y-38935862D01*
X72413574Y-39260776D01*
X72412299Y-39263948D01*
X72412297Y-39263952D01*
X72409240Y-39271558D01*
X72276192Y-39602526D01*
X72176521Y-39957115D01*
X72175959Y-39960472D01*
X72175959Y-39960473D01*
X72174015Y-39972093D01*
X72115729Y-40320393D01*
X72094527Y-40688113D01*
X70600000Y-40688113D01*
X70600000Y-35926000D01*
X70620002Y-35857879D01*
X70673658Y-35811386D01*
X70726000Y-35800000D01*
X195274000Y-35800000D01*
X195342121Y-35820002D01*
G37*
%TD.AperFunction*%
M02*
