%TF.GenerationSoftware,KiCad,Pcbnew,(6.0.0)*%
%TF.CreationDate,2022-03-28T07:48:23-07:00*%
%TF.ProjectId,pupdrive-eib24_panel,70757064-7269-4766-952d-65696232345f,A*%
%TF.SameCoordinates,Original*%
%TF.FileFunction,Copper,L2,Bot*%
%TF.FilePolarity,Positive*%
%FSLAX46Y46*%
G04 Gerber Fmt 4.6, Leading zero omitted, Abs format (unit mm)*
G04 Created by KiCad (PCBNEW (6.0.0)) date 2022-03-28 07:48:23*
%MOMM*%
%LPD*%
G01*
G04 APERTURE LIST*
G04 Aperture macros list*
%AMRoundRect*
0 Rectangle with rounded corners*
0 $1 Rounding radius*
0 $2 $3 $4 $5 $6 $7 $8 $9 X,Y pos of 4 corners*
0 Add a 4 corners polygon primitive as box body*
4,1,4,$2,$3,$4,$5,$6,$7,$8,$9,$2,$3,0*
0 Add four circle primitives for the rounded corners*
1,1,$1+$1,$2,$3*
1,1,$1+$1,$4,$5*
1,1,$1+$1,$6,$7*
1,1,$1+$1,$8,$9*
0 Add four rect primitives between the rounded corners*
20,1,$1+$1,$2,$3,$4,$5,0*
20,1,$1+$1,$4,$5,$6,$7,0*
20,1,$1+$1,$6,$7,$8,$9,0*
20,1,$1+$1,$8,$9,$2,$3,0*%
G04 Aperture macros list end*
%TA.AperFunction,ComponentPad*%
%ADD10C,0.420000*%
%TD*%
%TA.AperFunction,ComponentPad*%
%ADD11C,6.400000*%
%TD*%
%TA.AperFunction,SMDPad,CuDef*%
%ADD12RoundRect,0.008000X-0.072000X-0.212000X0.072000X-0.212000X0.072000X0.212000X-0.072000X0.212000X0*%
%TD*%
%TA.AperFunction,SMDPad,CuDef*%
%ADD13RoundRect,0.010500X-0.094500X-0.229500X0.094500X-0.229500X0.094500X0.229500X-0.094500X0.229500X0*%
%TD*%
%TA.AperFunction,Conductor*%
%ADD14C,0.076200*%
%TD*%
G04 APERTURE END LIST*
D10*
%TO.P,TP19,1,1*%
%TO.N,/E9*%
X143757107Y-79007107D03*
%TD*%
%TO.P,TP7,1,1*%
%TO.N,/E3*%
X170607107Y-98307107D03*
%TD*%
%TO.P,TP6,1,1*%
%TO.N,/E2*%
X121307107Y-79007107D03*
%TD*%
%TO.P,TP26,1,1*%
%TO.N,GNDA*%
X117707107Y-102007107D03*
%TD*%
%TO.P,TP2,1,1*%
%TO.N,/E14*%
X121707107Y-100807107D03*
%TD*%
%TO.P,TP16,1,1*%
%TO.N,/E20*%
X119407107Y-101407107D03*
%TD*%
%TO.P,TP20,1,1*%
%TO.N,/E22*%
X117707107Y-80207107D03*
%TD*%
%TO.P,TP9,1,1*%
%TO.N,/E4*%
X95657107Y-79007107D03*
%TD*%
%TO.P,TP7,1,1*%
%TO.N,/E3*%
X170607107Y-118307107D03*
%TD*%
%TO.P,TP18,1,1*%
%TO.N,/E21*%
X92707107Y-58307107D03*
%TD*%
%TO.P,TP16,1,1*%
%TO.N,/E20*%
X94407107Y-81407107D03*
%TD*%
%TO.P,TP9,1,1*%
%TO.N,/E4*%
X170657107Y-99007107D03*
%TD*%
%TO.P,TP3,1,1*%
%TO.N,/E15*%
X146707107Y-120207107D03*
%TD*%
%TO.P,TP15,1,1*%
%TO.N,/E7*%
X119407107Y-57707107D03*
%TD*%
%TO.P,TP7,1,1*%
%TO.N,/E3*%
X95607107Y-118307107D03*
%TD*%
%TO.P,TP26,1,1*%
%TO.N,GNDA*%
X92707107Y-122007107D03*
%TD*%
%TO.P,TP19,1,1*%
%TO.N,/E9*%
X168757107Y-79007107D03*
%TD*%
%TO.P,TP15,1,1*%
%TO.N,/E7*%
X94407107Y-119007107D03*
%TD*%
%TO.P,TP1,1,1*%
%TO.N,/E13*%
X146707107Y-81407107D03*
%TD*%
%TO.P,TP8,1,1*%
%TO.N,/E16*%
X96707107Y-119607107D03*
%TD*%
%TO.P,TP9,1,1*%
%TO.N,/E4*%
X120657107Y-79007107D03*
%TD*%
%TO.P,TP24,1,1*%
%TO.N,/E24*%
X92707107Y-121407107D03*
%TD*%
%TO.P,TP2,1,1*%
%TO.N,/E14*%
X171707107Y-120807107D03*
%TD*%
%TO.P,TP4,1,1*%
%TO.N,/REF*%
X121707107Y-102007107D03*
%TD*%
%TO.P,TP20,1,1*%
%TO.N,/E22*%
X167707107Y-120207107D03*
%TD*%
%TO.P,TP22,1,1*%
%TO.N,/E23*%
X117707107Y-80807107D03*
%TD*%
%TO.P,TP4,1,1*%
%TO.N,/REF*%
X146707107Y-60707107D03*
%TD*%
%TO.P,TP3,1,1*%
%TO.N,/E15*%
X146707107Y-100207107D03*
%TD*%
%TO.P,TP4,1,1*%
%TO.N,/REF*%
X146707107Y-122007107D03*
%TD*%
%TO.P,TP18,1,1*%
%TO.N,/E21*%
X92707107Y-79607107D03*
%TD*%
%TO.P,TP26,1,1*%
%TO.N,GNDA*%
X167707107Y-82007107D03*
%TD*%
%TO.P,TP9,1,1*%
%TO.N,/E4*%
X145657107Y-99007107D03*
%TD*%
%TO.P,TP2,1,1*%
%TO.N,/E14*%
X171707107Y-59507107D03*
%TD*%
%TO.P,TP14,1,1*%
%TO.N,/E19*%
X144407107Y-60707107D03*
%TD*%
%TO.P,TP1,1,1*%
%TO.N,/E13*%
X121707107Y-60107107D03*
%TD*%
%TO.P,TP13,1,1*%
%TO.N,/E6*%
X120007107Y-119007107D03*
%TD*%
D11*
%TO.P,REF\u002A\u002A,1*%
%TO.N,N/C*%
X75500000Y-140700000D03*
%TD*%
D10*
%TO.P,TP21,1,1*%
%TO.N,/E10*%
X143807107Y-57007107D03*
%TD*%
%TO.P,TP15,1,1*%
%TO.N,/E7*%
X94407107Y-99007107D03*
%TD*%
%TO.P,TP1,1,1*%
%TO.N,/E13*%
X171707107Y-60107107D03*
%TD*%
D11*
%TO.P,REF\u002A\u002A,1*%
%TO.N,N/C*%
X75500000Y-40700000D03*
%TD*%
D10*
%TO.P,TP12,1,1*%
%TO.N,/E18*%
X145007107Y-82007107D03*
%TD*%
%TO.P,TP5,1,1*%
%TO.N,/E1*%
X121207107Y-118307107D03*
%TD*%
%TO.P,TP18,1,1*%
%TO.N,/E21*%
X117707107Y-58307107D03*
%TD*%
%TO.P,TP10,1,1*%
%TO.N,/E17*%
X120007107Y-60107107D03*
%TD*%
%TO.P,TP7,1,1*%
%TO.N,/E3*%
X170607107Y-78307107D03*
%TD*%
%TO.P,TP22,1,1*%
%TO.N,/E23*%
X92707107Y-100807107D03*
%TD*%
%TO.P,TP19,1,1*%
%TO.N,/E9*%
X93757107Y-99007107D03*
%TD*%
%TO.P,TP8,1,1*%
%TO.N,/E16*%
X96707107Y-79607107D03*
%TD*%
%TO.P,TP5,1,1*%
%TO.N,/E1*%
X146207107Y-57007107D03*
%TD*%
%TO.P,TP19,1,1*%
%TO.N,/E9*%
X93757107Y-57707107D03*
%TD*%
%TO.P,TP12,1,1*%
%TO.N,/E18*%
X120007107Y-122007107D03*
%TD*%
%TO.P,TP21,1,1*%
%TO.N,/E10*%
X143807107Y-98307107D03*
%TD*%
%TO.P,TP1,1,1*%
%TO.N,/E13*%
X96707107Y-121407107D03*
%TD*%
%TO.P,TP16,1,1*%
%TO.N,/E20*%
X119407107Y-60107107D03*
%TD*%
%TO.P,TP10,1,1*%
%TO.N,/E17*%
X145007107Y-101407107D03*
%TD*%
%TO.P,TP1,1,1*%
%TO.N,/E13*%
X146707107Y-121407107D03*
%TD*%
%TO.P,TP15,1,1*%
%TO.N,/E7*%
X94407107Y-57707107D03*
%TD*%
%TO.P,TP1,1,1*%
%TO.N,/E13*%
X121707107Y-101407107D03*
%TD*%
%TO.P,TP9,1,1*%
%TO.N,/E4*%
X120657107Y-119007107D03*
%TD*%
%TO.P,TP5,1,1*%
%TO.N,/E1*%
X96207107Y-118307107D03*
%TD*%
%TO.P,TP15,1,1*%
%TO.N,/E7*%
X144407107Y-99007107D03*
%TD*%
%TO.P,TP5,1,1*%
%TO.N,/E1*%
X146207107Y-98307107D03*
%TD*%
%TO.P,TP13,1,1*%
%TO.N,/E6*%
X170007107Y-119007107D03*
%TD*%
%TO.P,TP24,1,1*%
%TO.N,/E24*%
X167707107Y-101407107D03*
%TD*%
%TO.P,TP20,1,1*%
%TO.N,/E22*%
X167707107Y-80207107D03*
%TD*%
%TO.P,TP6,1,1*%
%TO.N,/E2*%
X171307107Y-79007107D03*
%TD*%
%TO.P,TP9,1,1*%
%TO.N,/E4*%
X170657107Y-57707107D03*
%TD*%
%TO.P,TP24,1,1*%
%TO.N,/E24*%
X142707107Y-101407107D03*
%TD*%
%TO.P,TP16,1,1*%
%TO.N,/E20*%
X169407107Y-81407107D03*
%TD*%
%TO.P,TP4,1,1*%
%TO.N,/REF*%
X171707107Y-122007107D03*
%TD*%
%TO.P,TP3,1,1*%
%TO.N,/E15*%
X171707107Y-120207107D03*
%TD*%
%TO.P,TP26,1,1*%
%TO.N,GNDA*%
X167707107Y-122007107D03*
%TD*%
%TO.P,TP13,1,1*%
%TO.N,/E6*%
X95007107Y-119007107D03*
%TD*%
%TO.P,TP23,1,1*%
%TO.N,/E11*%
X143107107Y-99007107D03*
%TD*%
%TO.P,TP14,1,1*%
%TO.N,/E19*%
X119407107Y-122007107D03*
%TD*%
%TO.P,TP20,1,1*%
%TO.N,/E22*%
X92707107Y-58907107D03*
%TD*%
%TO.P,TP12,1,1*%
%TO.N,/E18*%
X95007107Y-122007107D03*
%TD*%
%TO.P,TP21,1,1*%
%TO.N,/E10*%
X168807107Y-98307107D03*
%TD*%
%TO.P,TP12,1,1*%
%TO.N,/E18*%
X95007107Y-60707107D03*
%TD*%
%TO.P,TP4,1,1*%
%TO.N,/REF*%
X171707107Y-102007107D03*
%TD*%
%TO.P,TP21,1,1*%
%TO.N,/E10*%
X118807107Y-98307107D03*
%TD*%
%TO.P,TP1,1,1*%
%TO.N,/E13*%
X96707107Y-60107107D03*
%TD*%
%TO.P,TP8,1,1*%
%TO.N,/E16*%
X146707107Y-58307107D03*
%TD*%
%TO.P,TP19,1,1*%
%TO.N,/E9*%
X118757107Y-79007107D03*
%TD*%
%TO.P,TP13,1,1*%
%TO.N,/E6*%
X145007107Y-119007107D03*
%TD*%
%TO.P,TP20,1,1*%
%TO.N,/E22*%
X92707107Y-80207107D03*
%TD*%
%TO.P,TP17,1,1*%
%TO.N,/E8*%
X144407107Y-98307107D03*
%TD*%
%TO.P,TP1,1,1*%
%TO.N,/E13*%
X146707107Y-60107107D03*
%TD*%
%TO.P,TP13,1,1*%
%TO.N,/E6*%
X145007107Y-79007107D03*
%TD*%
%TO.P,TP19,1,1*%
%TO.N,/E9*%
X143757107Y-99007107D03*
%TD*%
%TO.P,TP24,1,1*%
%TO.N,/E24*%
X167707107Y-121407107D03*
%TD*%
%TO.P,TP12,1,1*%
%TO.N,/E18*%
X120007107Y-82007107D03*
%TD*%
%TO.P,TP3,1,1*%
%TO.N,/E15*%
X171707107Y-80207107D03*
%TD*%
%TO.P,TP7,1,1*%
%TO.N,/E3*%
X120607107Y-78307107D03*
%TD*%
%TO.P,TP8,1,1*%
%TO.N,/E16*%
X121707107Y-79607107D03*
%TD*%
%TO.P,TP3,1,1*%
%TO.N,/E15*%
X96707107Y-120207107D03*
%TD*%
%TO.P,TP12,1,1*%
%TO.N,/E18*%
X120007107Y-102007107D03*
%TD*%
%TO.P,TP18,1,1*%
%TO.N,/E21*%
X142707107Y-99607107D03*
%TD*%
%TO.P,TP7,1,1*%
%TO.N,/E3*%
X145607107Y-118307107D03*
%TD*%
%TO.P,TP18,1,1*%
%TO.N,/E21*%
X117707107Y-119607107D03*
%TD*%
%TO.P,TP25,1,1*%
%TO.N,/E12*%
X168207107Y-57007107D03*
%TD*%
%TO.P,TP24,1,1*%
%TO.N,/E24*%
X117707107Y-81407107D03*
%TD*%
%TO.P,TP23,1,1*%
%TO.N,/E11*%
X143107107Y-57707107D03*
%TD*%
%TO.P,TP2,1,1*%
%TO.N,/E14*%
X96707107Y-80807107D03*
%TD*%
%TO.P,TP23,1,1*%
%TO.N,/E11*%
X93107107Y-57707107D03*
%TD*%
%TO.P,TP17,1,1*%
%TO.N,/E8*%
X144407107Y-118307107D03*
%TD*%
%TO.P,TP4,1,1*%
%TO.N,/REF*%
X96707107Y-82007107D03*
%TD*%
%TO.P,TP4,1,1*%
%TO.N,/REF*%
X171707107Y-82007107D03*
%TD*%
%TO.P,TP1,1,1*%
%TO.N,/E13*%
X121707107Y-121407107D03*
%TD*%
%TO.P,TP4,1,1*%
%TO.N,/REF*%
X96707107Y-102007107D03*
%TD*%
%TO.P,TP18,1,1*%
%TO.N,/E21*%
X167707107Y-58307107D03*
%TD*%
%TO.P,TP4,1,1*%
%TO.N,/REF*%
X171707107Y-60707107D03*
%TD*%
%TO.P,TP20,1,1*%
%TO.N,/E22*%
X92707107Y-100207107D03*
%TD*%
%TO.P,TP5,1,1*%
%TO.N,/E1*%
X96207107Y-98307107D03*
%TD*%
%TO.P,TP4,1,1*%
%TO.N,/REF*%
X96707107Y-122007107D03*
%TD*%
%TO.P,TP7,1,1*%
%TO.N,/E3*%
X120607107Y-98307107D03*
%TD*%
%TO.P,TP13,1,1*%
%TO.N,/E6*%
X95007107Y-79007107D03*
%TD*%
%TO.P,TP6,1,1*%
%TO.N,/E2*%
X96307107Y-79007107D03*
%TD*%
%TO.P,TP16,1,1*%
%TO.N,/E20*%
X169407107Y-121407107D03*
%TD*%
%TO.P,TP7,1,1*%
%TO.N,/E3*%
X120607107Y-57007107D03*
%TD*%
%TO.P,TP14,1,1*%
%TO.N,/E19*%
X169407107Y-82007107D03*
%TD*%
%TO.P,TP22,1,1*%
%TO.N,/E23*%
X92707107Y-80807107D03*
%TD*%
%TO.P,TP3,1,1*%
%TO.N,/E15*%
X121707107Y-120207107D03*
%TD*%
%TO.P,TP23,1,1*%
%TO.N,/E11*%
X168107107Y-119007107D03*
%TD*%
%TO.P,TP6,1,1*%
%TO.N,/E2*%
X121307107Y-119007107D03*
%TD*%
%TO.P,TP13,1,1*%
%TO.N,/E6*%
X145007107Y-99007107D03*
%TD*%
%TO.P,TP22,1,1*%
%TO.N,/E23*%
X92707107Y-59507107D03*
%TD*%
%TO.P,TP25,1,1*%
%TO.N,/E12*%
X118207107Y-78307107D03*
%TD*%
%TO.P,TP16,1,1*%
%TO.N,/E20*%
X169407107Y-101407107D03*
%TD*%
%TO.P,TP8,1,1*%
%TO.N,/E16*%
X146707107Y-79607107D03*
%TD*%
%TO.P,TP17,1,1*%
%TO.N,/E8*%
X169407107Y-98307107D03*
%TD*%
%TO.P,TP17,1,1*%
%TO.N,/E8*%
X169407107Y-57007107D03*
%TD*%
%TO.P,TP4,1,1*%
%TO.N,/REF*%
X96707107Y-60707107D03*
%TD*%
%TO.P,TP17,1,1*%
%TO.N,/E8*%
X94407107Y-98307107D03*
%TD*%
%TO.P,TP11,1,1*%
%TO.N,/E5*%
X145007107Y-98307107D03*
%TD*%
%TO.P,TP5,1,1*%
%TO.N,/E1*%
X96207107Y-57007107D03*
%TD*%
%TO.P,TP14,1,1*%
%TO.N,/E19*%
X119407107Y-102007107D03*
%TD*%
%TO.P,TP26,1,1*%
%TO.N,GNDA*%
X142707107Y-102007107D03*
%TD*%
%TO.P,TP24,1,1*%
%TO.N,/E24*%
X117707107Y-60107107D03*
%TD*%
%TO.P,TP21,1,1*%
%TO.N,/E10*%
X168807107Y-78307107D03*
%TD*%
%TO.P,TP19,1,1*%
%TO.N,/E9*%
X118757107Y-57707107D03*
%TD*%
%TO.P,TP6,1,1*%
%TO.N,/E2*%
X96307107Y-119007107D03*
%TD*%
%TO.P,TP21,1,1*%
%TO.N,/E10*%
X118807107Y-78307107D03*
%TD*%
%TO.P,TP17,1,1*%
%TO.N,/E8*%
X144407107Y-78307107D03*
%TD*%
%TO.P,TP18,1,1*%
%TO.N,/E21*%
X167707107Y-99607107D03*
%TD*%
%TO.P,TP8,1,1*%
%TO.N,/E16*%
X121707107Y-58307107D03*
%TD*%
%TO.P,TP8,1,1*%
%TO.N,/E16*%
X171707107Y-99607107D03*
%TD*%
%TO.P,TP2,1,1*%
%TO.N,/E14*%
X146707107Y-59507107D03*
%TD*%
%TO.P,TP18,1,1*%
%TO.N,/E21*%
X142707107Y-58307107D03*
%TD*%
%TO.P,TP4,1,1*%
%TO.N,/REF*%
X146707107Y-102007107D03*
%TD*%
%TO.P,TP1,1,1*%
%TO.N,/E13*%
X171707107Y-101407107D03*
%TD*%
%TO.P,TP6,1,1*%
%TO.N,/E2*%
X121307107Y-57707107D03*
%TD*%
%TO.P,TP14,1,1*%
%TO.N,/E19*%
X94407107Y-60707107D03*
%TD*%
%TO.P,TP13,1,1*%
%TO.N,/E6*%
X120007107Y-79007107D03*
%TD*%
%TO.P,TP11,1,1*%
%TO.N,/E5*%
X120007107Y-78307107D03*
%TD*%
%TO.P,TP2,1,1*%
%TO.N,/E14*%
X146707107Y-120807107D03*
%TD*%
%TO.P,TP22,1,1*%
%TO.N,/E23*%
X167707107Y-100807107D03*
%TD*%
%TO.P,TP8,1,1*%
%TO.N,/E16*%
X171707107Y-79607107D03*
%TD*%
%TO.P,TP7,1,1*%
%TO.N,/E3*%
X145607107Y-78307107D03*
%TD*%
%TO.P,TP3,1,1*%
%TO.N,/E15*%
X121707107Y-58907107D03*
%TD*%
%TO.P,TP20,1,1*%
%TO.N,/E22*%
X142707107Y-100207107D03*
%TD*%
%TO.P,TP2,1,1*%
%TO.N,/E14*%
X146707107Y-100807107D03*
%TD*%
%TO.P,TP2,1,1*%
%TO.N,/E14*%
X121707107Y-120807107D03*
%TD*%
%TO.P,TP4,1,1*%
%TO.N,/REF*%
X121707107Y-82007107D03*
%TD*%
%TO.P,TP8,1,1*%
%TO.N,/E16*%
X121707107Y-119607107D03*
%TD*%
%TO.P,TP24,1,1*%
%TO.N,/E24*%
X167707107Y-60107107D03*
%TD*%
%TO.P,TP11,1,1*%
%TO.N,/E5*%
X95007107Y-118307107D03*
%TD*%
%TO.P,TP2,1,1*%
%TO.N,/E14*%
X121707107Y-59507107D03*
%TD*%
%TO.P,TP10,1,1*%
%TO.N,/E17*%
X95007107Y-101407107D03*
%TD*%
%TO.P,TP15,1,1*%
%TO.N,/E7*%
X169407107Y-99007107D03*
%TD*%
%TO.P,TP9,1,1*%
%TO.N,/E4*%
X95657107Y-99007107D03*
%TD*%
%TO.P,TP9,1,1*%
%TO.N,/E4*%
X145657107Y-119007107D03*
%TD*%
%TO.P,TP10,1,1*%
%TO.N,/E17*%
X170007107Y-81407107D03*
%TD*%
%TO.P,TP13,1,1*%
%TO.N,/E6*%
X145007107Y-57707107D03*
%TD*%
%TO.P,TP14,1,1*%
%TO.N,/E19*%
X94407107Y-82007107D03*
%TD*%
%TO.P,TP6,1,1*%
%TO.N,/E2*%
X96307107Y-99007107D03*
%TD*%
%TO.P,TP16,1,1*%
%TO.N,/E20*%
X94407107Y-121407107D03*
%TD*%
%TO.P,TP1,1,1*%
%TO.N,/E13*%
X121707107Y-81407107D03*
%TD*%
%TO.P,TP3,1,1*%
%TO.N,/E15*%
X121707107Y-100207107D03*
%TD*%
%TO.P,TP8,1,1*%
%TO.N,/E16*%
X96707107Y-99607107D03*
%TD*%
%TO.P,TP21,1,1*%
%TO.N,/E10*%
X143807107Y-118307107D03*
%TD*%
%TO.P,TP3,1,1*%
%TO.N,/E15*%
X121707107Y-80207107D03*
%TD*%
%TO.P,TP9,1,1*%
%TO.N,/E4*%
X95657107Y-119007107D03*
%TD*%
%TO.P,TP7,1,1*%
%TO.N,/E3*%
X170607107Y-57007107D03*
%TD*%
%TO.P,TP11,1,1*%
%TO.N,/E5*%
X145007107Y-78307107D03*
%TD*%
%TO.P,TP21,1,1*%
%TO.N,/E10*%
X168807107Y-118307107D03*
%TD*%
%TO.P,TP24,1,1*%
%TO.N,/E24*%
X117707107Y-101407107D03*
%TD*%
%TO.P,TP11,1,1*%
%TO.N,/E5*%
X170007107Y-57007107D03*
%TD*%
%TO.P,TP22,1,1*%
%TO.N,/E23*%
X92707107Y-120807107D03*
%TD*%
%TO.P,TP22,1,1*%
%TO.N,/E23*%
X142707107Y-59507107D03*
%TD*%
%TO.P,TP12,1,1*%
%TO.N,/E18*%
X170007107Y-102007107D03*
%TD*%
%TO.P,TP16,1,1*%
%TO.N,/E20*%
X94407107Y-60107107D03*
%TD*%
%TO.P,TP3,1,1*%
%TO.N,/E15*%
X96707107Y-58907107D03*
%TD*%
%TO.P,TP14,1,1*%
%TO.N,/E19*%
X119407107Y-60707107D03*
%TD*%
%TO.P,TP11,1,1*%
%TO.N,/E5*%
X170007107Y-98307107D03*
%TD*%
%TO.P,TP8,1,1*%
%TO.N,/E16*%
X121707107Y-99607107D03*
%TD*%
%TO.P,TP2,1,1*%
%TO.N,/E14*%
X146707107Y-80807107D03*
%TD*%
%TO.P,TP18,1,1*%
%TO.N,/E21*%
X142707107Y-119607107D03*
%TD*%
%TO.P,TP20,1,1*%
%TO.N,/E22*%
X117707107Y-58907107D03*
%TD*%
%TO.P,TP5,1,1*%
%TO.N,/E1*%
X121207107Y-57007107D03*
%TD*%
%TO.P,TP23,1,1*%
%TO.N,/E11*%
X93107107Y-119007107D03*
%TD*%
%TO.P,TP14,1,1*%
%TO.N,/E19*%
X169407107Y-60707107D03*
%TD*%
%TO.P,TP16,1,1*%
%TO.N,/E20*%
X169407107Y-60107107D03*
%TD*%
%TO.P,TP18,1,1*%
%TO.N,/E21*%
X117707107Y-99607107D03*
%TD*%
%TO.P,TP8,1,1*%
%TO.N,/E16*%
X171707107Y-58307107D03*
%TD*%
%TO.P,TP22,1,1*%
%TO.N,/E23*%
X142707107Y-100807107D03*
%TD*%
%TO.P,TP12,1,1*%
%TO.N,/E18*%
X170007107Y-60707107D03*
%TD*%
%TO.P,TP25,1,1*%
%TO.N,/E12*%
X168207107Y-118307107D03*
%TD*%
%TO.P,TP10,1,1*%
%TO.N,/E17*%
X120007107Y-101407107D03*
%TD*%
%TO.P,TP9,1,1*%
%TO.N,/E4*%
X145657107Y-57707107D03*
%TD*%
%TO.P,TP3,1,1*%
%TO.N,/E15*%
X171707107Y-58907107D03*
%TD*%
%TO.P,TP18,1,1*%
%TO.N,/E21*%
X92707107Y-119607107D03*
%TD*%
%TO.P,TP25,1,1*%
%TO.N,/E12*%
X118207107Y-98307107D03*
%TD*%
%TO.P,TP18,1,1*%
%TO.N,/E21*%
X92707107Y-99607107D03*
%TD*%
%TO.P,TP24,1,1*%
%TO.N,/E24*%
X142707107Y-81407107D03*
%TD*%
%TO.P,TP14,1,1*%
%TO.N,/E19*%
X144407107Y-82007107D03*
%TD*%
%TO.P,TP15,1,1*%
%TO.N,/E7*%
X169407107Y-57707107D03*
%TD*%
%TO.P,TP26,1,1*%
%TO.N,GNDA*%
X92707107Y-60707107D03*
%TD*%
%TO.P,TP11,1,1*%
%TO.N,/E5*%
X145007107Y-118307107D03*
%TD*%
%TO.P,TP10,1,1*%
%TO.N,/E17*%
X145007107Y-121407107D03*
%TD*%
%TO.P,TP26,1,1*%
%TO.N,GNDA*%
X167707107Y-102007107D03*
%TD*%
%TO.P,TP4,1,1*%
%TO.N,/REF*%
X121707107Y-60707107D03*
%TD*%
%TO.P,TP16,1,1*%
%TO.N,/E20*%
X119407107Y-121407107D03*
%TD*%
%TO.P,TP16,1,1*%
%TO.N,/E20*%
X144407107Y-121407107D03*
%TD*%
%TO.P,TP10,1,1*%
%TO.N,/E17*%
X95007107Y-60107107D03*
%TD*%
%TO.P,TP22,1,1*%
%TO.N,/E23*%
X117707107Y-100807107D03*
%TD*%
%TO.P,TP9,1,1*%
%TO.N,/E4*%
X95657107Y-57707107D03*
%TD*%
%TO.P,TP23,1,1*%
%TO.N,/E11*%
X118107107Y-57707107D03*
%TD*%
%TO.P,TP25,1,1*%
%TO.N,/E12*%
X143207107Y-57007107D03*
%TD*%
%TO.P,TP5,1,1*%
%TO.N,/E1*%
X121207107Y-78307107D03*
%TD*%
%TO.P,TP17,1,1*%
%TO.N,/E8*%
X119407107Y-98307107D03*
%TD*%
%TO.P,TP26,1,1*%
%TO.N,GNDA*%
X117707107Y-60707107D03*
%TD*%
%TO.P,TP25,1,1*%
%TO.N,/E12*%
X118207107Y-57007107D03*
%TD*%
%TO.P,TP12,1,1*%
%TO.N,/E18*%
X145007107Y-60707107D03*
%TD*%
%TO.P,TP13,1,1*%
%TO.N,/E6*%
X170007107Y-57707107D03*
%TD*%
%TO.P,TP14,1,1*%
%TO.N,/E19*%
X169407107Y-122007107D03*
%TD*%
%TO.P,TP23,1,1*%
%TO.N,/E11*%
X118107107Y-99007107D03*
%TD*%
%TO.P,TP6,1,1*%
%TO.N,/E2*%
X146307107Y-79007107D03*
%TD*%
%TO.P,TP26,1,1*%
%TO.N,GNDA*%
X117707107Y-82007107D03*
%TD*%
%TO.P,TP14,1,1*%
%TO.N,/E19*%
X119407107Y-82007107D03*
%TD*%
%TO.P,TP16,1,1*%
%TO.N,/E20*%
X119407107Y-81407107D03*
%TD*%
%TO.P,TP1,1,1*%
%TO.N,/E13*%
X171707107Y-121407107D03*
%TD*%
%TO.P,TP17,1,1*%
%TO.N,/E8*%
X169407107Y-78307107D03*
%TD*%
%TO.P,TP1,1,1*%
%TO.N,/E13*%
X96707107Y-81407107D03*
%TD*%
%TO.P,TP23,1,1*%
%TO.N,/E11*%
X168107107Y-79007107D03*
%TD*%
%TO.P,TP19,1,1*%
%TO.N,/E9*%
X143757107Y-57707107D03*
%TD*%
%TO.P,TP10,1,1*%
%TO.N,/E17*%
X170007107Y-101407107D03*
%TD*%
%TO.P,TP13,1,1*%
%TO.N,/E6*%
X170007107Y-99007107D03*
%TD*%
%TO.P,TP5,1,1*%
%TO.N,/E1*%
X171207107Y-57007107D03*
%TD*%
%TO.P,TP19,1,1*%
%TO.N,/E9*%
X118757107Y-119007107D03*
%TD*%
%TO.P,TP22,1,1*%
%TO.N,/E23*%
X117707107Y-120807107D03*
%TD*%
%TO.P,TP10,1,1*%
%TO.N,/E17*%
X170007107Y-121407107D03*
%TD*%
%TO.P,TP21,1,1*%
%TO.N,/E10*%
X93807107Y-98307107D03*
%TD*%
%TO.P,TP22,1,1*%
%TO.N,/E23*%
X167707107Y-120807107D03*
%TD*%
%TO.P,TP13,1,1*%
%TO.N,/E6*%
X95007107Y-57707107D03*
%TD*%
%TO.P,TP11,1,1*%
%TO.N,/E5*%
X145007107Y-57007107D03*
%TD*%
%TO.P,TP12,1,1*%
%TO.N,/E18*%
X120007107Y-60707107D03*
%TD*%
%TO.P,TP7,1,1*%
%TO.N,/E3*%
X95607107Y-78307107D03*
%TD*%
%TO.P,TP26,1,1*%
%TO.N,GNDA*%
X117707107Y-122007107D03*
%TD*%
%TO.P,TP5,1,1*%
%TO.N,/E1*%
X121207107Y-98307107D03*
%TD*%
%TO.P,TP23,1,1*%
%TO.N,/E11*%
X93107107Y-99007107D03*
%TD*%
%TO.P,TP6,1,1*%
%TO.N,/E2*%
X121307107Y-99007107D03*
%TD*%
%TO.P,TP7,1,1*%
%TO.N,/E3*%
X145607107Y-98307107D03*
%TD*%
%TO.P,TP23,1,1*%
%TO.N,/E11*%
X118107107Y-79007107D03*
%TD*%
%TO.P,TP15,1,1*%
%TO.N,/E7*%
X144407107Y-119007107D03*
%TD*%
%TO.P,TP17,1,1*%
%TO.N,/E8*%
X119407107Y-57007107D03*
%TD*%
%TO.P,TP17,1,1*%
%TO.N,/E8*%
X94407107Y-118307107D03*
%TD*%
%TO.P,TP21,1,1*%
%TO.N,/E10*%
X143807107Y-78307107D03*
%TD*%
%TO.P,TP1,1,1*%
%TO.N,/E13*%
X171707107Y-81407107D03*
%TD*%
%TO.P,TP17,1,1*%
%TO.N,/E8*%
X119407107Y-78307107D03*
%TD*%
%TO.P,TP8,1,1*%
%TO.N,/E16*%
X171707107Y-119607107D03*
%TD*%
%TO.P,TP24,1,1*%
%TO.N,/E24*%
X92707107Y-60107107D03*
%TD*%
%TO.P,TP13,1,1*%
%TO.N,/E6*%
X170007107Y-79007107D03*
%TD*%
%TO.P,TP10,1,1*%
%TO.N,/E17*%
X95007107Y-121407107D03*
%TD*%
%TO.P,TP5,1,1*%
%TO.N,/E1*%
X96207107Y-78307107D03*
%TD*%
%TO.P,TP21,1,1*%
%TO.N,/E10*%
X93807107Y-78307107D03*
%TD*%
%TO.P,TP9,1,1*%
%TO.N,/E4*%
X170657107Y-79007107D03*
%TD*%
%TO.P,TP15,1,1*%
%TO.N,/E7*%
X144407107Y-79007107D03*
%TD*%
%TO.P,TP21,1,1*%
%TO.N,/E10*%
X93807107Y-57007107D03*
%TD*%
%TO.P,TP12,1,1*%
%TO.N,/E18*%
X95007107Y-102007107D03*
%TD*%
%TO.P,TP14,1,1*%
%TO.N,/E19*%
X94407107Y-122007107D03*
%TD*%
%TO.P,TP3,1,1*%
%TO.N,/E15*%
X96707107Y-100207107D03*
%TD*%
%TO.P,TP6,1,1*%
%TO.N,/E2*%
X146307107Y-119007107D03*
%TD*%
%TO.P,TP6,1,1*%
%TO.N,/E2*%
X96307107Y-57707107D03*
%TD*%
%TO.P,TP2,1,1*%
%TO.N,/E14*%
X96707107Y-59507107D03*
%TD*%
%TO.P,TP19,1,1*%
%TO.N,/E9*%
X168757107Y-99007107D03*
%TD*%
%TO.P,TP5,1,1*%
%TO.N,/E1*%
X171207107Y-118307107D03*
%TD*%
%TO.P,TP5,1,1*%
%TO.N,/E1*%
X171207107Y-98307107D03*
%TD*%
%TO.P,TP12,1,1*%
%TO.N,/E18*%
X145007107Y-122007107D03*
%TD*%
%TO.P,TP15,1,1*%
%TO.N,/E7*%
X169407107Y-119007107D03*
%TD*%
%TO.P,TP10,1,1*%
%TO.N,/E17*%
X120007107Y-121407107D03*
%TD*%
%TO.P,TP6,1,1*%
%TO.N,/E2*%
X146307107Y-57707107D03*
%TD*%
%TO.P,TP7,1,1*%
%TO.N,/E3*%
X145607107Y-57007107D03*
%TD*%
%TO.P,TP5,1,1*%
%TO.N,/E1*%
X171207107Y-78307107D03*
%TD*%
%TO.P,TP25,1,1*%
%TO.N,/E12*%
X93207107Y-118307107D03*
%TD*%
%TO.P,TP16,1,1*%
%TO.N,/E20*%
X144407107Y-101407107D03*
%TD*%
%TO.P,TP10,1,1*%
%TO.N,/E17*%
X145007107Y-81407107D03*
%TD*%
%TO.P,TP17,1,1*%
%TO.N,/E8*%
X169407107Y-118307107D03*
%TD*%
%TO.P,TP7,1,1*%
%TO.N,/E3*%
X95607107Y-98307107D03*
%TD*%
%TO.P,TP15,1,1*%
%TO.N,/E7*%
X169407107Y-79007107D03*
%TD*%
%TO.P,TP15,1,1*%
%TO.N,/E7*%
X144407107Y-57707107D03*
%TD*%
%TO.P,TP11,1,1*%
%TO.N,/E5*%
X170007107Y-118307107D03*
%TD*%
%TO.P,TP2,1,1*%
%TO.N,/E14*%
X171707107Y-80807107D03*
%TD*%
%TO.P,TP3,1,1*%
%TO.N,/E15*%
X146707107Y-58907107D03*
%TD*%
%TO.P,TP26,1,1*%
%TO.N,GNDA*%
X92707107Y-102007107D03*
%TD*%
%TO.P,TP25,1,1*%
%TO.N,/E12*%
X168207107Y-78307107D03*
%TD*%
%TO.P,TP8,1,1*%
%TO.N,/E16*%
X146707107Y-99607107D03*
%TD*%
%TO.P,TP12,1,1*%
%TO.N,/E18*%
X170007107Y-82007107D03*
%TD*%
%TO.P,TP11,1,1*%
%TO.N,/E5*%
X120007107Y-98307107D03*
%TD*%
D11*
%TO.P,REF\u002A\u002A,1*%
%TO.N,N/C*%
X190500000Y-40700000D03*
%TD*%
D10*
%TO.P,TP20,1,1*%
%TO.N,/E22*%
X142707107Y-58907107D03*
%TD*%
%TO.P,TP9,1,1*%
%TO.N,/E4*%
X170657107Y-119007107D03*
%TD*%
%TO.P,TP14,1,1*%
%TO.N,/E19*%
X144407107Y-102007107D03*
%TD*%
%TO.P,TP13,1,1*%
%TO.N,/E6*%
X120007107Y-57707107D03*
%TD*%
%TO.P,TP11,1,1*%
%TO.N,/E5*%
X95007107Y-57007107D03*
%TD*%
%TO.P,TP25,1,1*%
%TO.N,/E12*%
X93207107Y-78307107D03*
%TD*%
%TO.P,TP14,1,1*%
%TO.N,/E19*%
X169407107Y-102007107D03*
%TD*%
%TO.P,TP6,1,1*%
%TO.N,/E2*%
X146307107Y-99007107D03*
%TD*%
%TO.P,TP7,1,1*%
%TO.N,/E3*%
X95607107Y-57007107D03*
%TD*%
%TO.P,TP21,1,1*%
%TO.N,/E10*%
X118807107Y-118307107D03*
%TD*%
%TO.P,TP2,1,1*%
%TO.N,/E14*%
X171707107Y-100807107D03*
%TD*%
%TO.P,TP26,1,1*%
%TO.N,GNDA*%
X142707107Y-82007107D03*
%TD*%
%TO.P,TP1,1,1*%
%TO.N,/E13*%
X146707107Y-101407107D03*
%TD*%
%TO.P,TP18,1,1*%
%TO.N,/E21*%
X117707107Y-79607107D03*
%TD*%
%TO.P,TP25,1,1*%
%TO.N,/E12*%
X143207107Y-118307107D03*
%TD*%
%TO.P,TP23,1,1*%
%TO.N,/E11*%
X168107107Y-57707107D03*
%TD*%
%TO.P,TP18,1,1*%
%TO.N,/E21*%
X167707107Y-119607107D03*
%TD*%
%TO.P,TP17,1,1*%
%TO.N,/E8*%
X94407107Y-78307107D03*
%TD*%
%TO.P,TP23,1,1*%
%TO.N,/E11*%
X143107107Y-119007107D03*
%TD*%
%TO.P,TP20,1,1*%
%TO.N,/E22*%
X142707107Y-120207107D03*
%TD*%
%TO.P,TP18,1,1*%
%TO.N,/E21*%
X167707107Y-79607107D03*
%TD*%
%TO.P,TP26,1,1*%
%TO.N,GNDA*%
X92707107Y-82007107D03*
%TD*%
%TO.P,TP17,1,1*%
%TO.N,/E8*%
X94407107Y-57007107D03*
%TD*%
%TO.P,TP19,1,1*%
%TO.N,/E9*%
X168757107Y-119007107D03*
%TD*%
%TO.P,TP14,1,1*%
%TO.N,/E19*%
X144407107Y-122007107D03*
%TD*%
%TO.P,TP16,1,1*%
%TO.N,/E20*%
X94407107Y-101407107D03*
%TD*%
%TO.P,TP15,1,1*%
%TO.N,/E7*%
X119407107Y-79007107D03*
%TD*%
%TO.P,TP13,1,1*%
%TO.N,/E6*%
X95007107Y-99007107D03*
%TD*%
%TO.P,TP10,1,1*%
%TO.N,/E17*%
X170007107Y-60107107D03*
%TD*%
%TO.P,TP6,1,1*%
%TO.N,/E2*%
X171307107Y-99007107D03*
%TD*%
%TO.P,TP2,1,1*%
%TO.N,/E14*%
X96707107Y-100807107D03*
%TD*%
%TO.P,TP17,1,1*%
%TO.N,/E8*%
X144407107Y-57007107D03*
%TD*%
%TO.P,TP24,1,1*%
%TO.N,/E24*%
X92707107Y-101407107D03*
%TD*%
%TO.P,TP19,1,1*%
%TO.N,/E9*%
X168757107Y-57707107D03*
%TD*%
%TO.P,TP26,1,1*%
%TO.N,GNDA*%
X142707107Y-122007107D03*
%TD*%
%TO.P,TP12,1,1*%
%TO.N,/E18*%
X95007107Y-82007107D03*
%TD*%
%TO.P,TP3,1,1*%
%TO.N,/E15*%
X96707107Y-80207107D03*
%TD*%
%TO.P,TP19,1,1*%
%TO.N,/E9*%
X93757107Y-119007107D03*
%TD*%
%TO.P,TP25,1,1*%
%TO.N,/E12*%
X168207107Y-98307107D03*
%TD*%
%TO.P,TP2,1,1*%
%TO.N,/E14*%
X96707107Y-120807107D03*
%TD*%
%TO.P,TP8,1,1*%
%TO.N,/E16*%
X96707107Y-58307107D03*
%TD*%
%TO.P,TP11,1,1*%
%TO.N,/E5*%
X120007107Y-118307107D03*
%TD*%
%TO.P,TP25,1,1*%
%TO.N,/E12*%
X143207107Y-98307107D03*
%TD*%
%TO.P,TP9,1,1*%
%TO.N,/E4*%
X120657107Y-57707107D03*
%TD*%
%TO.P,TP7,1,1*%
%TO.N,/E3*%
X120607107Y-118307107D03*
%TD*%
%TO.P,TP13,1,1*%
%TO.N,/E6*%
X120007107Y-99007107D03*
%TD*%
%TO.P,TP11,1,1*%
%TO.N,/E5*%
X120007107Y-57007107D03*
%TD*%
%TO.P,TP23,1,1*%
%TO.N,/E11*%
X118107107Y-119007107D03*
%TD*%
%TO.P,TP25,1,1*%
%TO.N,/E12*%
X118207107Y-118307107D03*
%TD*%
%TO.P,TP15,1,1*%
%TO.N,/E7*%
X119407107Y-119007107D03*
%TD*%
%TO.P,TP20,1,1*%
%TO.N,/E22*%
X92707107Y-120207107D03*
%TD*%
%TO.P,TP24,1,1*%
%TO.N,/E24*%
X142707107Y-60107107D03*
%TD*%
%TO.P,TP19,1,1*%
%TO.N,/E9*%
X118757107Y-99007107D03*
%TD*%
%TO.P,TP15,1,1*%
%TO.N,/E7*%
X119407107Y-99007107D03*
%TD*%
%TO.P,TP19,1,1*%
%TO.N,/E9*%
X93757107Y-79007107D03*
%TD*%
%TO.P,TP10,1,1*%
%TO.N,/E17*%
X145007107Y-60107107D03*
%TD*%
%TO.P,TP5,1,1*%
%TO.N,/E1*%
X146207107Y-78307107D03*
%TD*%
%TO.P,TP18,1,1*%
%TO.N,/E21*%
X142707107Y-79607107D03*
%TD*%
%TO.P,TP8,1,1*%
%TO.N,/E16*%
X146707107Y-119607107D03*
%TD*%
%TO.P,TP22,1,1*%
%TO.N,/E23*%
X142707107Y-120807107D03*
%TD*%
%TO.P,TP4,1,1*%
%TO.N,/REF*%
X146707107Y-82007107D03*
%TD*%
%TO.P,TP22,1,1*%
%TO.N,/E23*%
X167707107Y-59507107D03*
%TD*%
%TO.P,TP20,1,1*%
%TO.N,/E22*%
X167707107Y-58907107D03*
%TD*%
%TO.P,TP20,1,1*%
%TO.N,/E22*%
X167707107Y-100207107D03*
%TD*%
%TO.P,TP11,1,1*%
%TO.N,/E5*%
X170007107Y-78307107D03*
%TD*%
%TO.P,TP5,1,1*%
%TO.N,/E1*%
X146207107Y-118307107D03*
%TD*%
%TO.P,TP24,1,1*%
%TO.N,/E24*%
X142707107Y-121407107D03*
%TD*%
%TO.P,TP9,1,1*%
%TO.N,/E4*%
X145657107Y-79007107D03*
%TD*%
%TO.P,TP19,1,1*%
%TO.N,/E9*%
X143757107Y-119007107D03*
%TD*%
%TO.P,TP21,1,1*%
%TO.N,/E10*%
X118807107Y-57007107D03*
%TD*%
%TO.P,TP16,1,1*%
%TO.N,/E20*%
X144407107Y-81407107D03*
%TD*%
%TO.P,TP23,1,1*%
%TO.N,/E11*%
X93107107Y-79007107D03*
%TD*%
%TO.P,TP12,1,1*%
%TO.N,/E18*%
X170007107Y-122007107D03*
%TD*%
%TO.P,TP10,1,1*%
%TO.N,/E17*%
X120007107Y-81407107D03*
%TD*%
%TO.P,TP12,1,1*%
%TO.N,/E18*%
X145007107Y-102007107D03*
%TD*%
%TO.P,TP11,1,1*%
%TO.N,/E5*%
X95007107Y-98307107D03*
%TD*%
%TO.P,TP24,1,1*%
%TO.N,/E24*%
X117707107Y-121407107D03*
%TD*%
%TO.P,TP6,1,1*%
%TO.N,/E2*%
X171307107Y-57707107D03*
%TD*%
%TO.P,TP25,1,1*%
%TO.N,/E12*%
X143207107Y-78307107D03*
%TD*%
%TO.P,TP22,1,1*%
%TO.N,/E23*%
X142707107Y-80807107D03*
%TD*%
%TO.P,TP21,1,1*%
%TO.N,/E10*%
X168807107Y-57007107D03*
%TD*%
%TO.P,TP20,1,1*%
%TO.N,/E22*%
X117707107Y-120207107D03*
%TD*%
%TO.P,TP15,1,1*%
%TO.N,/E7*%
X94407107Y-79007107D03*
%TD*%
%TO.P,TP16,1,1*%
%TO.N,/E20*%
X144407107Y-60107107D03*
%TD*%
%TO.P,TP23,1,1*%
%TO.N,/E11*%
X143107107Y-79007107D03*
%TD*%
%TO.P,TP22,1,1*%
%TO.N,/E23*%
X117707107Y-59507107D03*
%TD*%
%TO.P,TP14,1,1*%
%TO.N,/E19*%
X94407107Y-102007107D03*
%TD*%
%TO.P,TP10,1,1*%
%TO.N,/E17*%
X95007107Y-81407107D03*
%TD*%
%TO.P,TP23,1,1*%
%TO.N,/E11*%
X168107107Y-99007107D03*
%TD*%
%TO.P,TP25,1,1*%
%TO.N,/E12*%
X93207107Y-57007107D03*
%TD*%
%TO.P,TP1,1,1*%
%TO.N,/E13*%
X96707107Y-101407107D03*
%TD*%
%TO.P,TP26,1,1*%
%TO.N,GNDA*%
X167707107Y-60707107D03*
%TD*%
%TO.P,TP21,1,1*%
%TO.N,/E10*%
X93807107Y-118307107D03*
%TD*%
%TO.P,TP2,1,1*%
%TO.N,/E14*%
X121707107Y-80807107D03*
%TD*%
%TO.P,TP25,1,1*%
%TO.N,/E12*%
X93207107Y-98307107D03*
%TD*%
%TO.P,TP3,1,1*%
%TO.N,/E15*%
X146707107Y-80207107D03*
%TD*%
%TO.P,TP6,1,1*%
%TO.N,/E2*%
X171307107Y-119007107D03*
%TD*%
%TO.P,TP20,1,1*%
%TO.N,/E22*%
X142707107Y-80207107D03*
%TD*%
%TO.P,TP24,1,1*%
%TO.N,/E24*%
X167707107Y-81407107D03*
%TD*%
%TO.P,TP22,1,1*%
%TO.N,/E23*%
X167707107Y-80807107D03*
%TD*%
%TO.P,TP3,1,1*%
%TO.N,/E15*%
X171707107Y-100207107D03*
%TD*%
%TO.P,TP9,1,1*%
%TO.N,/E4*%
X120657107Y-99007107D03*
%TD*%
D11*
%TO.P,REF\u002A\u002A,1*%
%TO.N,N/C*%
X190500000Y-140700000D03*
%TD*%
D10*
%TO.P,TP24,1,1*%
%TO.N,/E24*%
X92707107Y-81407107D03*
%TD*%
%TO.P,TP17,1,1*%
%TO.N,/E8*%
X119407107Y-118307107D03*
%TD*%
%TO.P,TP11,1,1*%
%TO.N,/E5*%
X95007107Y-78307107D03*
%TD*%
%TO.P,TP26,1,1*%
%TO.N,GNDA*%
X142707107Y-60707107D03*
%TD*%
%TO.P,TP20,1,1*%
%TO.N,/E22*%
X117707107Y-100207107D03*
%TD*%
%TO.P,TP4,1,1*%
%TO.N,/REF*%
X121707107Y-122007107D03*
%TD*%
D12*
%TO.P,J2,1,Pin_1*%
%TO.N,/E24*%
X92782107Y-82997107D03*
%TO.P,J2,3,Pin_3*%
%TO.N,/E23*%
X93132107Y-82997107D03*
%TO.P,J2,5,Pin_5*%
%TO.N,/E22*%
X93482107Y-82997107D03*
%TO.P,J2,7,Pin_7*%
%TO.N,/E21*%
X93832107Y-82997107D03*
%TO.P,J2,9,Pin_9*%
%TO.N,/E20*%
X94182107Y-82997107D03*
%TO.P,J2,11,Pin_11*%
%TO.N,/E19*%
X94532107Y-82997107D03*
%TO.P,J2,13,Pin_13*%
%TO.N,/E18*%
X94882107Y-82997107D03*
%TO.P,J2,15,Pin_15*%
%TO.N,/E17*%
X95232107Y-82997107D03*
%TO.P,J2,17,Pin_17*%
%TO.N,/E16*%
X95582107Y-82997107D03*
%TO.P,J2,19,Pin_19*%
%TO.N,/E15*%
X95932107Y-82997107D03*
%TO.P,J2,21,Pin_21*%
%TO.N,/E14*%
X96282107Y-82997107D03*
%TO.P,J2,23,Pin_23*%
%TO.N,/E13*%
X96632107Y-82997107D03*
D13*
%TO.P,J2,MP1,MountPin1*%
%TO.N,GNDA*%
X92407107Y-83142107D03*
%TO.P,J2,MP3,MountPin3*%
%TO.N,/REF*%
X97007107Y-83142107D03*
%TD*%
D12*
%TO.P,J2,1,Pin_1*%
%TO.N,/E24*%
X167782107Y-61697107D03*
%TO.P,J2,3,Pin_3*%
%TO.N,/E23*%
X168132107Y-61697107D03*
%TO.P,J2,5,Pin_5*%
%TO.N,/E22*%
X168482107Y-61697107D03*
%TO.P,J2,7,Pin_7*%
%TO.N,/E21*%
X168832107Y-61697107D03*
%TO.P,J2,9,Pin_9*%
%TO.N,/E20*%
X169182107Y-61697107D03*
%TO.P,J2,11,Pin_11*%
%TO.N,/E19*%
X169532107Y-61697107D03*
%TO.P,J2,13,Pin_13*%
%TO.N,/E18*%
X169882107Y-61697107D03*
%TO.P,J2,15,Pin_15*%
%TO.N,/E17*%
X170232107Y-61697107D03*
%TO.P,J2,17,Pin_17*%
%TO.N,/E16*%
X170582107Y-61697107D03*
%TO.P,J2,19,Pin_19*%
%TO.N,/E15*%
X170932107Y-61697107D03*
%TO.P,J2,21,Pin_21*%
%TO.N,/E14*%
X171282107Y-61697107D03*
%TO.P,J2,23,Pin_23*%
%TO.N,/E13*%
X171632107Y-61697107D03*
D13*
%TO.P,J2,MP1,MountPin1*%
%TO.N,GNDA*%
X167407107Y-61842107D03*
%TO.P,J2,MP3,MountPin3*%
%TO.N,/REF*%
X172007107Y-61842107D03*
%TD*%
D12*
%TO.P,J2,1,Pin_1*%
%TO.N,/E24*%
X117782107Y-61697107D03*
%TO.P,J2,3,Pin_3*%
%TO.N,/E23*%
X118132107Y-61697107D03*
%TO.P,J2,5,Pin_5*%
%TO.N,/E22*%
X118482107Y-61697107D03*
%TO.P,J2,7,Pin_7*%
%TO.N,/E21*%
X118832107Y-61697107D03*
%TO.P,J2,9,Pin_9*%
%TO.N,/E20*%
X119182107Y-61697107D03*
%TO.P,J2,11,Pin_11*%
%TO.N,/E19*%
X119532107Y-61697107D03*
%TO.P,J2,13,Pin_13*%
%TO.N,/E18*%
X119882107Y-61697107D03*
%TO.P,J2,15,Pin_15*%
%TO.N,/E17*%
X120232107Y-61697107D03*
%TO.P,J2,17,Pin_17*%
%TO.N,/E16*%
X120582107Y-61697107D03*
%TO.P,J2,19,Pin_19*%
%TO.N,/E15*%
X120932107Y-61697107D03*
%TO.P,J2,21,Pin_21*%
%TO.N,/E14*%
X121282107Y-61697107D03*
%TO.P,J2,23,Pin_23*%
%TO.N,/E13*%
X121632107Y-61697107D03*
D13*
%TO.P,J2,MP1,MountPin1*%
%TO.N,GNDA*%
X117407107Y-61842107D03*
%TO.P,J2,MP3,MountPin3*%
%TO.N,/REF*%
X122007107Y-61842107D03*
%TD*%
D12*
%TO.P,J2,1,Pin_1*%
%TO.N,/E24*%
X142782107Y-102997107D03*
%TO.P,J2,3,Pin_3*%
%TO.N,/E23*%
X143132107Y-102997107D03*
%TO.P,J2,5,Pin_5*%
%TO.N,/E22*%
X143482107Y-102997107D03*
%TO.P,J2,7,Pin_7*%
%TO.N,/E21*%
X143832107Y-102997107D03*
%TO.P,J2,9,Pin_9*%
%TO.N,/E20*%
X144182107Y-102997107D03*
%TO.P,J2,11,Pin_11*%
%TO.N,/E19*%
X144532107Y-102997107D03*
%TO.P,J2,13,Pin_13*%
%TO.N,/E18*%
X144882107Y-102997107D03*
%TO.P,J2,15,Pin_15*%
%TO.N,/E17*%
X145232107Y-102997107D03*
%TO.P,J2,17,Pin_17*%
%TO.N,/E16*%
X145582107Y-102997107D03*
%TO.P,J2,19,Pin_19*%
%TO.N,/E15*%
X145932107Y-102997107D03*
%TO.P,J2,21,Pin_21*%
%TO.N,/E14*%
X146282107Y-102997107D03*
%TO.P,J2,23,Pin_23*%
%TO.N,/E13*%
X146632107Y-102997107D03*
D13*
%TO.P,J2,MP1,MountPin1*%
%TO.N,GNDA*%
X142407107Y-103142107D03*
%TO.P,J2,MP3,MountPin3*%
%TO.N,/REF*%
X147007107Y-103142107D03*
%TD*%
D12*
%TO.P,J2,1,Pin_1*%
%TO.N,/E24*%
X142782107Y-122997107D03*
%TO.P,J2,3,Pin_3*%
%TO.N,/E23*%
X143132107Y-122997107D03*
%TO.P,J2,5,Pin_5*%
%TO.N,/E22*%
X143482107Y-122997107D03*
%TO.P,J2,7,Pin_7*%
%TO.N,/E21*%
X143832107Y-122997107D03*
%TO.P,J2,9,Pin_9*%
%TO.N,/E20*%
X144182107Y-122997107D03*
%TO.P,J2,11,Pin_11*%
%TO.N,/E19*%
X144532107Y-122997107D03*
%TO.P,J2,13,Pin_13*%
%TO.N,/E18*%
X144882107Y-122997107D03*
%TO.P,J2,15,Pin_15*%
%TO.N,/E17*%
X145232107Y-122997107D03*
%TO.P,J2,17,Pin_17*%
%TO.N,/E16*%
X145582107Y-122997107D03*
%TO.P,J2,19,Pin_19*%
%TO.N,/E15*%
X145932107Y-122997107D03*
%TO.P,J2,21,Pin_21*%
%TO.N,/E14*%
X146282107Y-122997107D03*
%TO.P,J2,23,Pin_23*%
%TO.N,/E13*%
X146632107Y-122997107D03*
D13*
%TO.P,J2,MP1,MountPin1*%
%TO.N,GNDA*%
X142407107Y-123142107D03*
%TO.P,J2,MP3,MountPin3*%
%TO.N,/REF*%
X147007107Y-123142107D03*
%TD*%
D12*
%TO.P,J2,1,Pin_1*%
%TO.N,/E24*%
X92782107Y-61697107D03*
%TO.P,J2,3,Pin_3*%
%TO.N,/E23*%
X93132107Y-61697107D03*
%TO.P,J2,5,Pin_5*%
%TO.N,/E22*%
X93482107Y-61697107D03*
%TO.P,J2,7,Pin_7*%
%TO.N,/E21*%
X93832107Y-61697107D03*
%TO.P,J2,9,Pin_9*%
%TO.N,/E20*%
X94182107Y-61697107D03*
%TO.P,J2,11,Pin_11*%
%TO.N,/E19*%
X94532107Y-61697107D03*
%TO.P,J2,13,Pin_13*%
%TO.N,/E18*%
X94882107Y-61697107D03*
%TO.P,J2,15,Pin_15*%
%TO.N,/E17*%
X95232107Y-61697107D03*
%TO.P,J2,17,Pin_17*%
%TO.N,/E16*%
X95582107Y-61697107D03*
%TO.P,J2,19,Pin_19*%
%TO.N,/E15*%
X95932107Y-61697107D03*
%TO.P,J2,21,Pin_21*%
%TO.N,/E14*%
X96282107Y-61697107D03*
%TO.P,J2,23,Pin_23*%
%TO.N,/E13*%
X96632107Y-61697107D03*
D13*
%TO.P,J2,MP1,MountPin1*%
%TO.N,GNDA*%
X92407107Y-61842107D03*
%TO.P,J2,MP3,MountPin3*%
%TO.N,/REF*%
X97007107Y-61842107D03*
%TD*%
D12*
%TO.P,J2,1,Pin_1*%
%TO.N,/E24*%
X167782107Y-82997107D03*
%TO.P,J2,3,Pin_3*%
%TO.N,/E23*%
X168132107Y-82997107D03*
%TO.P,J2,5,Pin_5*%
%TO.N,/E22*%
X168482107Y-82997107D03*
%TO.P,J2,7,Pin_7*%
%TO.N,/E21*%
X168832107Y-82997107D03*
%TO.P,J2,9,Pin_9*%
%TO.N,/E20*%
X169182107Y-82997107D03*
%TO.P,J2,11,Pin_11*%
%TO.N,/E19*%
X169532107Y-82997107D03*
%TO.P,J2,13,Pin_13*%
%TO.N,/E18*%
X169882107Y-82997107D03*
%TO.P,J2,15,Pin_15*%
%TO.N,/E17*%
X170232107Y-82997107D03*
%TO.P,J2,17,Pin_17*%
%TO.N,/E16*%
X170582107Y-82997107D03*
%TO.P,J2,19,Pin_19*%
%TO.N,/E15*%
X170932107Y-82997107D03*
%TO.P,J2,21,Pin_21*%
%TO.N,/E14*%
X171282107Y-82997107D03*
%TO.P,J2,23,Pin_23*%
%TO.N,/E13*%
X171632107Y-82997107D03*
D13*
%TO.P,J2,MP1,MountPin1*%
%TO.N,GNDA*%
X167407107Y-83142107D03*
%TO.P,J2,MP3,MountPin3*%
%TO.N,/REF*%
X172007107Y-83142107D03*
%TD*%
D12*
%TO.P,J2,1,Pin_1*%
%TO.N,/E24*%
X167782107Y-122997107D03*
%TO.P,J2,3,Pin_3*%
%TO.N,/E23*%
X168132107Y-122997107D03*
%TO.P,J2,5,Pin_5*%
%TO.N,/E22*%
X168482107Y-122997107D03*
%TO.P,J2,7,Pin_7*%
%TO.N,/E21*%
X168832107Y-122997107D03*
%TO.P,J2,9,Pin_9*%
%TO.N,/E20*%
X169182107Y-122997107D03*
%TO.P,J2,11,Pin_11*%
%TO.N,/E19*%
X169532107Y-122997107D03*
%TO.P,J2,13,Pin_13*%
%TO.N,/E18*%
X169882107Y-122997107D03*
%TO.P,J2,15,Pin_15*%
%TO.N,/E17*%
X170232107Y-122997107D03*
%TO.P,J2,17,Pin_17*%
%TO.N,/E16*%
X170582107Y-122997107D03*
%TO.P,J2,19,Pin_19*%
%TO.N,/E15*%
X170932107Y-122997107D03*
%TO.P,J2,21,Pin_21*%
%TO.N,/E14*%
X171282107Y-122997107D03*
%TO.P,J2,23,Pin_23*%
%TO.N,/E13*%
X171632107Y-122997107D03*
D13*
%TO.P,J2,MP1,MountPin1*%
%TO.N,GNDA*%
X167407107Y-123142107D03*
%TO.P,J2,MP3,MountPin3*%
%TO.N,/REF*%
X172007107Y-123142107D03*
%TD*%
D12*
%TO.P,J2,1,Pin_1*%
%TO.N,/E24*%
X167782107Y-102997107D03*
%TO.P,J2,3,Pin_3*%
%TO.N,/E23*%
X168132107Y-102997107D03*
%TO.P,J2,5,Pin_5*%
%TO.N,/E22*%
X168482107Y-102997107D03*
%TO.P,J2,7,Pin_7*%
%TO.N,/E21*%
X168832107Y-102997107D03*
%TO.P,J2,9,Pin_9*%
%TO.N,/E20*%
X169182107Y-102997107D03*
%TO.P,J2,11,Pin_11*%
%TO.N,/E19*%
X169532107Y-102997107D03*
%TO.P,J2,13,Pin_13*%
%TO.N,/E18*%
X169882107Y-102997107D03*
%TO.P,J2,15,Pin_15*%
%TO.N,/E17*%
X170232107Y-102997107D03*
%TO.P,J2,17,Pin_17*%
%TO.N,/E16*%
X170582107Y-102997107D03*
%TO.P,J2,19,Pin_19*%
%TO.N,/E15*%
X170932107Y-102997107D03*
%TO.P,J2,21,Pin_21*%
%TO.N,/E14*%
X171282107Y-102997107D03*
%TO.P,J2,23,Pin_23*%
%TO.N,/E13*%
X171632107Y-102997107D03*
D13*
%TO.P,J2,MP1,MountPin1*%
%TO.N,GNDA*%
X167407107Y-103142107D03*
%TO.P,J2,MP3,MountPin3*%
%TO.N,/REF*%
X172007107Y-103142107D03*
%TD*%
D12*
%TO.P,J2,1,Pin_1*%
%TO.N,/E24*%
X117782107Y-122997107D03*
%TO.P,J2,3,Pin_3*%
%TO.N,/E23*%
X118132107Y-122997107D03*
%TO.P,J2,5,Pin_5*%
%TO.N,/E22*%
X118482107Y-122997107D03*
%TO.P,J2,7,Pin_7*%
%TO.N,/E21*%
X118832107Y-122997107D03*
%TO.P,J2,9,Pin_9*%
%TO.N,/E20*%
X119182107Y-122997107D03*
%TO.P,J2,11,Pin_11*%
%TO.N,/E19*%
X119532107Y-122997107D03*
%TO.P,J2,13,Pin_13*%
%TO.N,/E18*%
X119882107Y-122997107D03*
%TO.P,J2,15,Pin_15*%
%TO.N,/E17*%
X120232107Y-122997107D03*
%TO.P,J2,17,Pin_17*%
%TO.N,/E16*%
X120582107Y-122997107D03*
%TO.P,J2,19,Pin_19*%
%TO.N,/E15*%
X120932107Y-122997107D03*
%TO.P,J2,21,Pin_21*%
%TO.N,/E14*%
X121282107Y-122997107D03*
%TO.P,J2,23,Pin_23*%
%TO.N,/E13*%
X121632107Y-122997107D03*
D13*
%TO.P,J2,MP1,MountPin1*%
%TO.N,GNDA*%
X117407107Y-123142107D03*
%TO.P,J2,MP3,MountPin3*%
%TO.N,/REF*%
X122007107Y-123142107D03*
%TD*%
D12*
%TO.P,J2,1,Pin_1*%
%TO.N,/E24*%
X142782107Y-61697107D03*
%TO.P,J2,3,Pin_3*%
%TO.N,/E23*%
X143132107Y-61697107D03*
%TO.P,J2,5,Pin_5*%
%TO.N,/E22*%
X143482107Y-61697107D03*
%TO.P,J2,7,Pin_7*%
%TO.N,/E21*%
X143832107Y-61697107D03*
%TO.P,J2,9,Pin_9*%
%TO.N,/E20*%
X144182107Y-61697107D03*
%TO.P,J2,11,Pin_11*%
%TO.N,/E19*%
X144532107Y-61697107D03*
%TO.P,J2,13,Pin_13*%
%TO.N,/E18*%
X144882107Y-61697107D03*
%TO.P,J2,15,Pin_15*%
%TO.N,/E17*%
X145232107Y-61697107D03*
%TO.P,J2,17,Pin_17*%
%TO.N,/E16*%
X145582107Y-61697107D03*
%TO.P,J2,19,Pin_19*%
%TO.N,/E15*%
X145932107Y-61697107D03*
%TO.P,J2,21,Pin_21*%
%TO.N,/E14*%
X146282107Y-61697107D03*
%TO.P,J2,23,Pin_23*%
%TO.N,/E13*%
X146632107Y-61697107D03*
D13*
%TO.P,J2,MP1,MountPin1*%
%TO.N,GNDA*%
X142407107Y-61842107D03*
%TO.P,J2,MP3,MountPin3*%
%TO.N,/REF*%
X147007107Y-61842107D03*
%TD*%
D12*
%TO.P,J2,1,Pin_1*%
%TO.N,/E24*%
X92782107Y-102997107D03*
%TO.P,J2,3,Pin_3*%
%TO.N,/E23*%
X93132107Y-102997107D03*
%TO.P,J2,5,Pin_5*%
%TO.N,/E22*%
X93482107Y-102997107D03*
%TO.P,J2,7,Pin_7*%
%TO.N,/E21*%
X93832107Y-102997107D03*
%TO.P,J2,9,Pin_9*%
%TO.N,/E20*%
X94182107Y-102997107D03*
%TO.P,J2,11,Pin_11*%
%TO.N,/E19*%
X94532107Y-102997107D03*
%TO.P,J2,13,Pin_13*%
%TO.N,/E18*%
X94882107Y-102997107D03*
%TO.P,J2,15,Pin_15*%
%TO.N,/E17*%
X95232107Y-102997107D03*
%TO.P,J2,17,Pin_17*%
%TO.N,/E16*%
X95582107Y-102997107D03*
%TO.P,J2,19,Pin_19*%
%TO.N,/E15*%
X95932107Y-102997107D03*
%TO.P,J2,21,Pin_21*%
%TO.N,/E14*%
X96282107Y-102997107D03*
%TO.P,J2,23,Pin_23*%
%TO.N,/E13*%
X96632107Y-102997107D03*
D13*
%TO.P,J2,MP1,MountPin1*%
%TO.N,GNDA*%
X92407107Y-103142107D03*
%TO.P,J2,MP3,MountPin3*%
%TO.N,/REF*%
X97007107Y-103142107D03*
%TD*%
D12*
%TO.P,J2,1,Pin_1*%
%TO.N,/E24*%
X142782107Y-82997107D03*
%TO.P,J2,3,Pin_3*%
%TO.N,/E23*%
X143132107Y-82997107D03*
%TO.P,J2,5,Pin_5*%
%TO.N,/E22*%
X143482107Y-82997107D03*
%TO.P,J2,7,Pin_7*%
%TO.N,/E21*%
X143832107Y-82997107D03*
%TO.P,J2,9,Pin_9*%
%TO.N,/E20*%
X144182107Y-82997107D03*
%TO.P,J2,11,Pin_11*%
%TO.N,/E19*%
X144532107Y-82997107D03*
%TO.P,J2,13,Pin_13*%
%TO.N,/E18*%
X144882107Y-82997107D03*
%TO.P,J2,15,Pin_15*%
%TO.N,/E17*%
X145232107Y-82997107D03*
%TO.P,J2,17,Pin_17*%
%TO.N,/E16*%
X145582107Y-82997107D03*
%TO.P,J2,19,Pin_19*%
%TO.N,/E15*%
X145932107Y-82997107D03*
%TO.P,J2,21,Pin_21*%
%TO.N,/E14*%
X146282107Y-82997107D03*
%TO.P,J2,23,Pin_23*%
%TO.N,/E13*%
X146632107Y-82997107D03*
D13*
%TO.P,J2,MP1,MountPin1*%
%TO.N,GNDA*%
X142407107Y-83142107D03*
%TO.P,J2,MP3,MountPin3*%
%TO.N,/REF*%
X147007107Y-83142107D03*
%TD*%
D12*
%TO.P,J2,1,Pin_1*%
%TO.N,/E24*%
X92782107Y-122997107D03*
%TO.P,J2,3,Pin_3*%
%TO.N,/E23*%
X93132107Y-122997107D03*
%TO.P,J2,5,Pin_5*%
%TO.N,/E22*%
X93482107Y-122997107D03*
%TO.P,J2,7,Pin_7*%
%TO.N,/E21*%
X93832107Y-122997107D03*
%TO.P,J2,9,Pin_9*%
%TO.N,/E20*%
X94182107Y-122997107D03*
%TO.P,J2,11,Pin_11*%
%TO.N,/E19*%
X94532107Y-122997107D03*
%TO.P,J2,13,Pin_13*%
%TO.N,/E18*%
X94882107Y-122997107D03*
%TO.P,J2,15,Pin_15*%
%TO.N,/E17*%
X95232107Y-122997107D03*
%TO.P,J2,17,Pin_17*%
%TO.N,/E16*%
X95582107Y-122997107D03*
%TO.P,J2,19,Pin_19*%
%TO.N,/E15*%
X95932107Y-122997107D03*
%TO.P,J2,21,Pin_21*%
%TO.N,/E14*%
X96282107Y-122997107D03*
%TO.P,J2,23,Pin_23*%
%TO.N,/E13*%
X96632107Y-122997107D03*
D13*
%TO.P,J2,MP1,MountPin1*%
%TO.N,GNDA*%
X92407107Y-123142107D03*
%TO.P,J2,MP3,MountPin3*%
%TO.N,/REF*%
X97007107Y-123142107D03*
%TD*%
D12*
%TO.P,J2,1,Pin_1*%
%TO.N,/E24*%
X117782107Y-82997107D03*
%TO.P,J2,3,Pin_3*%
%TO.N,/E23*%
X118132107Y-82997107D03*
%TO.P,J2,5,Pin_5*%
%TO.N,/E22*%
X118482107Y-82997107D03*
%TO.P,J2,7,Pin_7*%
%TO.N,/E21*%
X118832107Y-82997107D03*
%TO.P,J2,9,Pin_9*%
%TO.N,/E20*%
X119182107Y-82997107D03*
%TO.P,J2,11,Pin_11*%
%TO.N,/E19*%
X119532107Y-82997107D03*
%TO.P,J2,13,Pin_13*%
%TO.N,/E18*%
X119882107Y-82997107D03*
%TO.P,J2,15,Pin_15*%
%TO.N,/E17*%
X120232107Y-82997107D03*
%TO.P,J2,17,Pin_17*%
%TO.N,/E16*%
X120582107Y-82997107D03*
%TO.P,J2,19,Pin_19*%
%TO.N,/E15*%
X120932107Y-82997107D03*
%TO.P,J2,21,Pin_21*%
%TO.N,/E14*%
X121282107Y-82997107D03*
%TO.P,J2,23,Pin_23*%
%TO.N,/E13*%
X121632107Y-82997107D03*
D13*
%TO.P,J2,MP1,MountPin1*%
%TO.N,GNDA*%
X117407107Y-83142107D03*
%TO.P,J2,MP3,MountPin3*%
%TO.N,/REF*%
X122007107Y-83142107D03*
%TD*%
D12*
%TO.P,J2,1,Pin_1*%
%TO.N,/E24*%
X117782107Y-102997107D03*
%TO.P,J2,3,Pin_3*%
%TO.N,/E23*%
X118132107Y-102997107D03*
%TO.P,J2,5,Pin_5*%
%TO.N,/E22*%
X118482107Y-102997107D03*
%TO.P,J2,7,Pin_7*%
%TO.N,/E21*%
X118832107Y-102997107D03*
%TO.P,J2,9,Pin_9*%
%TO.N,/E20*%
X119182107Y-102997107D03*
%TO.P,J2,11,Pin_11*%
%TO.N,/E19*%
X119532107Y-102997107D03*
%TO.P,J2,13,Pin_13*%
%TO.N,/E18*%
X119882107Y-102997107D03*
%TO.P,J2,15,Pin_15*%
%TO.N,/E17*%
X120232107Y-102997107D03*
%TO.P,J2,17,Pin_17*%
%TO.N,/E16*%
X120582107Y-102997107D03*
%TO.P,J2,19,Pin_19*%
%TO.N,/E15*%
X120932107Y-102997107D03*
%TO.P,J2,21,Pin_21*%
%TO.N,/E14*%
X121282107Y-102997107D03*
%TO.P,J2,23,Pin_23*%
%TO.N,/E13*%
X121632107Y-102997107D03*
D13*
%TO.P,J2,MP1,MountPin1*%
%TO.N,GNDA*%
X117407107Y-103142107D03*
%TO.P,J2,MP3,MountPin3*%
%TO.N,/REF*%
X122007107Y-103142107D03*
%TD*%
D14*
%TO.N,GNDA*%
X92407107Y-61842107D02*
X92407107Y-61007107D01*
X92407107Y-61007107D02*
X92707107Y-60707107D01*
X117407107Y-123142107D02*
X117407107Y-122307107D01*
X142407107Y-122307107D02*
X142707107Y-122007107D01*
X142407107Y-103142107D02*
X142407107Y-102307107D01*
X117407107Y-82307107D02*
X117707107Y-82007107D01*
X92407107Y-82307107D02*
X92707107Y-82007107D01*
X142407107Y-102307107D02*
X142707107Y-102007107D01*
X92407107Y-122307107D02*
X92707107Y-122007107D01*
X117407107Y-122307107D02*
X117707107Y-122007107D01*
X92407107Y-83142107D02*
X92407107Y-82307107D01*
X92407107Y-103142107D02*
X92407107Y-102307107D01*
X117407107Y-61007107D02*
X117707107Y-60707107D01*
X92407107Y-102307107D02*
X92707107Y-102007107D01*
X92407107Y-123142107D02*
X92407107Y-122307107D01*
X167407107Y-82307107D02*
X167707107Y-82007107D01*
X117407107Y-61842107D02*
X117407107Y-61007107D01*
X167407107Y-103142107D02*
X167407107Y-102307107D01*
X167407107Y-61007107D02*
X167707107Y-60707107D01*
X167407107Y-61842107D02*
X167407107Y-61007107D01*
X117407107Y-102307107D02*
X117707107Y-102007107D01*
X167407107Y-122307107D02*
X167707107Y-122007107D01*
X167407107Y-83142107D02*
X167407107Y-82307107D01*
X117407107Y-83142107D02*
X117407107Y-82307107D01*
X142407107Y-123142107D02*
X142407107Y-122307107D01*
X142407107Y-82307107D02*
X142707107Y-82007107D01*
X167407107Y-102307107D02*
X167707107Y-102007107D01*
X167407107Y-123142107D02*
X167407107Y-122307107D01*
X142407107Y-61842107D02*
X142407107Y-61007107D01*
X117407107Y-103142107D02*
X117407107Y-102307107D01*
X142407107Y-83142107D02*
X142407107Y-82307107D01*
X142407107Y-61007107D02*
X142707107Y-60707107D01*
%TO.N,/E17*%
X95347107Y-101747107D02*
X95347107Y-101947107D01*
X95347107Y-60987107D02*
X95347107Y-60647107D01*
X170007107Y-60107107D02*
X170347107Y-60447107D01*
X145232107Y-61102107D02*
X145347107Y-60987107D01*
X120347107Y-101747107D02*
X120347107Y-101947107D01*
X95232107Y-61102107D02*
X95347107Y-60987107D01*
X145232107Y-82997107D02*
X145232107Y-82402107D01*
X145007107Y-121407107D02*
X145347107Y-121747107D01*
X170232107Y-61102107D02*
X170347107Y-60987107D01*
X170347107Y-101747107D02*
X170347107Y-101947107D01*
X170232107Y-61697107D02*
X170232107Y-61102107D01*
X170347107Y-60987107D02*
X170347107Y-60647107D01*
X95347107Y-81747107D02*
X95347107Y-81947107D01*
X170232107Y-122997107D02*
X170232107Y-122402107D01*
X120347107Y-60447107D02*
X120347107Y-60647107D01*
X170007107Y-81407107D02*
X170347107Y-81747107D01*
X170347107Y-60447107D02*
X170347107Y-60647107D01*
X120232107Y-122997107D02*
X120232107Y-122402107D01*
X120232107Y-102402107D02*
X120347107Y-102287107D01*
X145232107Y-102402107D02*
X145347107Y-102287107D01*
X120347107Y-82287107D02*
X120347107Y-81947107D01*
X95007107Y-101407107D02*
X95347107Y-101747107D01*
X95232107Y-82402107D02*
X95347107Y-82287107D01*
X120232107Y-102997107D02*
X120232107Y-102402107D01*
X120347107Y-122287107D02*
X120347107Y-121947107D01*
X120232107Y-82997107D02*
X120232107Y-82402107D01*
X170232107Y-82402107D02*
X170347107Y-82287107D01*
X120007107Y-81407107D02*
X120347107Y-81747107D01*
X95347107Y-102287107D02*
X95347107Y-101947107D01*
X145347107Y-122287107D02*
X145347107Y-121947107D01*
X95232107Y-102402107D02*
X95347107Y-102287107D01*
X145232107Y-61697107D02*
X145232107Y-61102107D01*
X95347107Y-121747107D02*
X95347107Y-121947107D01*
X120007107Y-101407107D02*
X120347107Y-101747107D01*
X145347107Y-60987107D02*
X145347107Y-60647107D01*
X145347107Y-101747107D02*
X145347107Y-101947107D01*
X170347107Y-102287107D02*
X170347107Y-101947107D01*
X145347107Y-82287107D02*
X145347107Y-81947107D01*
X145232107Y-82402107D02*
X145347107Y-82287107D01*
X170007107Y-101407107D02*
X170347107Y-101747107D01*
X170347107Y-81747107D02*
X170347107Y-81947107D01*
X170232107Y-102402107D02*
X170347107Y-102287107D01*
X120007107Y-121407107D02*
X120347107Y-121747107D01*
X145347107Y-121747107D02*
X145347107Y-121947107D01*
X95007107Y-81407107D02*
X95347107Y-81747107D01*
X95232107Y-82997107D02*
X95232107Y-82402107D01*
X170232107Y-122402107D02*
X170347107Y-122287107D01*
X120007107Y-60107107D02*
X120347107Y-60447107D01*
X170232107Y-102997107D02*
X170232107Y-102402107D01*
X145232107Y-122997107D02*
X145232107Y-122402107D01*
X170347107Y-121747107D02*
X170347107Y-121947107D01*
X145347107Y-102287107D02*
X145347107Y-101947107D01*
X120347107Y-81747107D02*
X120347107Y-81947107D01*
X95232107Y-122997107D02*
X95232107Y-122402107D01*
X95347107Y-82287107D02*
X95347107Y-81947107D01*
X95232107Y-102997107D02*
X95232107Y-102402107D01*
X145007107Y-60107107D02*
X145347107Y-60447107D01*
X145347107Y-81747107D02*
X145347107Y-81947107D01*
X120232107Y-61697107D02*
X120232107Y-61102107D01*
X120347107Y-121747107D02*
X120347107Y-121947107D01*
X120347107Y-60987107D02*
X120347107Y-60647107D01*
X120232107Y-122402107D02*
X120347107Y-122287107D01*
X145007107Y-101407107D02*
X145347107Y-101747107D01*
X95232107Y-122402107D02*
X95347107Y-122287107D01*
X95232107Y-61697107D02*
X95232107Y-61102107D01*
X145232107Y-102997107D02*
X145232107Y-102402107D01*
X170232107Y-82997107D02*
X170232107Y-82402107D01*
X145232107Y-122402107D02*
X145347107Y-122287107D01*
X120232107Y-61102107D02*
X120347107Y-60987107D01*
X95007107Y-60107107D02*
X95347107Y-60447107D01*
X170347107Y-122287107D02*
X170347107Y-121947107D01*
X120347107Y-102287107D02*
X120347107Y-101947107D01*
X170347107Y-82287107D02*
X170347107Y-81947107D01*
X145347107Y-60447107D02*
X145347107Y-60647107D01*
X170007107Y-121407107D02*
X170347107Y-121747107D01*
X95347107Y-122287107D02*
X95347107Y-121947107D01*
X120232107Y-82402107D02*
X120347107Y-82287107D01*
X145007107Y-81407107D02*
X145347107Y-81747107D01*
X95347107Y-60447107D02*
X95347107Y-60647107D01*
X95007107Y-121407107D02*
X95347107Y-121747107D01*
%TO.N,/E18*%
X169882107Y-122997107D02*
X169882107Y-122282107D01*
X169882107Y-122132107D02*
X169882107Y-122282107D01*
X145007107Y-60707107D02*
X144882107Y-60832107D01*
X94882107Y-60832107D02*
X94882107Y-60982107D01*
X144882107Y-102132107D02*
X144882107Y-102282107D01*
X144882107Y-102997107D02*
X144882107Y-102282107D01*
X95007107Y-82007107D02*
X94882107Y-82132107D01*
X144882107Y-122997107D02*
X144882107Y-122282107D01*
X169882107Y-102132107D02*
X169882107Y-102282107D01*
X119882107Y-102132107D02*
X119882107Y-102282107D01*
X169882107Y-82132107D02*
X169882107Y-82282107D01*
X119882107Y-102997107D02*
X119882107Y-102282107D01*
X94882107Y-102132107D02*
X94882107Y-102282107D01*
X145007107Y-122007107D02*
X144882107Y-122132107D01*
X170007107Y-82007107D02*
X169882107Y-82132107D01*
X95007107Y-102007107D02*
X94882107Y-102132107D01*
X169882107Y-82997107D02*
X169882107Y-82282107D01*
X94882107Y-122997107D02*
X94882107Y-122282107D01*
X94882107Y-82997107D02*
X94882107Y-82282107D01*
X145007107Y-102007107D02*
X144882107Y-102132107D01*
X94882107Y-102997107D02*
X94882107Y-102282107D01*
X169882107Y-102997107D02*
X169882107Y-102282107D01*
X170007107Y-60707107D02*
X169882107Y-60832107D01*
X95007107Y-60707107D02*
X94882107Y-60832107D01*
X169882107Y-60832107D02*
X169882107Y-60982107D01*
X170007107Y-102007107D02*
X169882107Y-102132107D01*
X169882107Y-61697107D02*
X169882107Y-60982107D01*
X94882107Y-82132107D02*
X94882107Y-82282107D01*
X95007107Y-122007107D02*
X94882107Y-122132107D01*
X94882107Y-61697107D02*
X94882107Y-60982107D01*
X119882107Y-82997107D02*
X119882107Y-82282107D01*
X144882107Y-60832107D02*
X144882107Y-60982107D01*
X119882107Y-122997107D02*
X119882107Y-122282107D01*
X120007107Y-82007107D02*
X119882107Y-82132107D01*
X120007107Y-60707107D02*
X119882107Y-60832107D01*
X144882107Y-82132107D02*
X144882107Y-82282107D01*
X94882107Y-122132107D02*
X94882107Y-122282107D01*
X144882107Y-82997107D02*
X144882107Y-82282107D01*
X119882107Y-60832107D02*
X119882107Y-60982107D01*
X119882107Y-122132107D02*
X119882107Y-122282107D01*
X120007107Y-122007107D02*
X119882107Y-122132107D01*
X119882107Y-61697107D02*
X119882107Y-60982107D01*
X119882107Y-82132107D02*
X119882107Y-82282107D01*
X120007107Y-102007107D02*
X119882107Y-102132107D01*
X145007107Y-82007107D02*
X144882107Y-82132107D01*
X144882107Y-61697107D02*
X144882107Y-60982107D01*
X170007107Y-122007107D02*
X169882107Y-122132107D01*
X144882107Y-122132107D02*
X144882107Y-122282107D01*
%TO.N,/E19*%
X144532107Y-122132107D02*
X144532107Y-122282107D01*
X144407107Y-102007107D02*
X144532107Y-102132107D01*
X119407107Y-60707107D02*
X119532107Y-60832107D01*
X119532107Y-61697107D02*
X119532107Y-60982107D01*
X94532107Y-102997107D02*
X94532107Y-102282107D01*
X94532107Y-82132107D02*
X94532107Y-82282107D01*
X169532107Y-82132107D02*
X169532107Y-82282107D01*
X144532107Y-102132107D02*
X144532107Y-102282107D01*
X169407107Y-122007107D02*
X169532107Y-122132107D01*
X144407107Y-82007107D02*
X144532107Y-82132107D01*
X144532107Y-61697107D02*
X144532107Y-60982107D01*
X169532107Y-60832107D02*
X169532107Y-60982107D01*
X169532107Y-102997107D02*
X169532107Y-102282107D01*
X144532107Y-60832107D02*
X144532107Y-60982107D01*
X119532107Y-82132107D02*
X119532107Y-82282107D01*
X119532107Y-102997107D02*
X119532107Y-102282107D01*
X119407107Y-122007107D02*
X119532107Y-122132107D01*
X94532107Y-60832107D02*
X94532107Y-60982107D01*
X119407107Y-102007107D02*
X119532107Y-102132107D01*
X94532107Y-122997107D02*
X94532107Y-122282107D01*
X144532107Y-122997107D02*
X144532107Y-122282107D01*
X169407107Y-102007107D02*
X169532107Y-102132107D01*
X119407107Y-82007107D02*
X119532107Y-82132107D01*
X94532107Y-61697107D02*
X94532107Y-60982107D01*
X169407107Y-82007107D02*
X169532107Y-82132107D01*
X144407107Y-122007107D02*
X144532107Y-122132107D01*
X169532107Y-82997107D02*
X169532107Y-82282107D01*
X94407107Y-82007107D02*
X94532107Y-82132107D01*
X119532107Y-122132107D02*
X119532107Y-122282107D01*
X169407107Y-60707107D02*
X169532107Y-60832107D01*
X94532107Y-122132107D02*
X94532107Y-122282107D01*
X144532107Y-82997107D02*
X144532107Y-82282107D01*
X169532107Y-61697107D02*
X169532107Y-60982107D01*
X94532107Y-102132107D02*
X94532107Y-102282107D01*
X169532107Y-102132107D02*
X169532107Y-102282107D01*
X94407107Y-122007107D02*
X94532107Y-122132107D01*
X144532107Y-82132107D02*
X144532107Y-82282107D01*
X119532107Y-82997107D02*
X119532107Y-82282107D01*
X94532107Y-82997107D02*
X94532107Y-82282107D01*
X94407107Y-60707107D02*
X94532107Y-60832107D01*
X144407107Y-60707107D02*
X144532107Y-60832107D01*
X169532107Y-122997107D02*
X169532107Y-122282107D01*
X119532107Y-102132107D02*
X119532107Y-102282107D01*
X144532107Y-102997107D02*
X144532107Y-102282107D01*
X119532107Y-60832107D02*
X119532107Y-60982107D01*
X169532107Y-122132107D02*
X169532107Y-122282107D01*
X94407107Y-102007107D02*
X94532107Y-102132107D01*
X119532107Y-122997107D02*
X119532107Y-122282107D01*
%TO.N,/E20*%
X119182107Y-102997107D02*
X119182107Y-102452107D01*
X119083296Y-101730918D02*
X119083296Y-101830918D01*
X169407107Y-101407107D02*
X169083296Y-101730918D01*
X169182107Y-82997107D02*
X169182107Y-82452107D01*
X94083296Y-121730918D02*
X94083296Y-121830918D01*
X144083296Y-82353296D02*
X144083296Y-81830918D01*
X144182107Y-122997107D02*
X144182107Y-122452107D01*
X144182107Y-122452107D02*
X144083296Y-122353296D01*
X119083296Y-121730918D02*
X119083296Y-121830918D01*
X119182107Y-82997107D02*
X119182107Y-82452107D01*
X144182107Y-82452107D02*
X144083296Y-82353296D01*
X94182107Y-102452107D02*
X94083296Y-102353296D01*
X144407107Y-81407107D02*
X144083296Y-81730918D01*
X169407107Y-121407107D02*
X169083296Y-121730918D01*
X169407107Y-81407107D02*
X169083296Y-81730918D01*
X94182107Y-61152107D02*
X94083296Y-61053296D01*
X169182107Y-82452107D02*
X169083296Y-82353296D01*
X144182107Y-102452107D02*
X144083296Y-102353296D01*
X94182107Y-82452107D02*
X94083296Y-82353296D01*
X169182107Y-61697107D02*
X169182107Y-61152107D01*
X144407107Y-60107107D02*
X144083296Y-60430918D01*
X94407107Y-81407107D02*
X94083296Y-81730918D01*
X169083296Y-60430918D02*
X169083296Y-60530918D01*
X144083296Y-81730918D02*
X144083296Y-81830918D01*
X94083296Y-60430918D02*
X94083296Y-60530918D01*
X94407107Y-60107107D02*
X94083296Y-60430918D01*
X144083296Y-122353296D02*
X144083296Y-121830918D01*
X119182107Y-122452107D02*
X119083296Y-122353296D01*
X119182107Y-82452107D02*
X119083296Y-82353296D01*
X94083296Y-61053296D02*
X94083296Y-60530918D01*
X94083296Y-81730918D02*
X94083296Y-81830918D01*
X169182107Y-122452107D02*
X169083296Y-122353296D01*
X144407107Y-101407107D02*
X144083296Y-101730918D01*
X94083296Y-82353296D02*
X94083296Y-81830918D01*
X94407107Y-121407107D02*
X94083296Y-121730918D01*
X94182107Y-102997107D02*
X94182107Y-102452107D01*
X119182107Y-61152107D02*
X119083296Y-61053296D01*
X169182107Y-102452107D02*
X169083296Y-102353296D01*
X169083296Y-121730918D02*
X169083296Y-121830918D01*
X119083296Y-81730918D02*
X119083296Y-81830918D01*
X119407107Y-101407107D02*
X119083296Y-101730918D01*
X169182107Y-122997107D02*
X169182107Y-122452107D01*
X119407107Y-121407107D02*
X119083296Y-121730918D01*
X169182107Y-102997107D02*
X169182107Y-102452107D01*
X119083296Y-61053296D02*
X119083296Y-60530918D01*
X144182107Y-102997107D02*
X144182107Y-102452107D01*
X169083296Y-101730918D02*
X169083296Y-101830918D01*
X169083296Y-82353296D02*
X169083296Y-81830918D01*
X119083296Y-60430918D02*
X119083296Y-60530918D01*
X144083296Y-101730918D02*
X144083296Y-101830918D01*
X119182107Y-61697107D02*
X119182107Y-61152107D01*
X169407107Y-60107107D02*
X169083296Y-60430918D01*
X119182107Y-122997107D02*
X119182107Y-122452107D01*
X94182107Y-122997107D02*
X94182107Y-122452107D01*
X94182107Y-82997107D02*
X94182107Y-82452107D01*
X144182107Y-61697107D02*
X144182107Y-61152107D01*
X169083296Y-122353296D02*
X169083296Y-121830918D01*
X94407107Y-101407107D02*
X94083296Y-101730918D01*
X169083296Y-102353296D02*
X169083296Y-101830918D01*
X144083296Y-102353296D02*
X144083296Y-101830918D01*
X144083296Y-121730918D02*
X144083296Y-121830918D01*
X169083296Y-81730918D02*
X169083296Y-81830918D01*
X119083296Y-82353296D02*
X119083296Y-81830918D01*
X144083296Y-60430918D02*
X144083296Y-60530918D01*
X144083296Y-61053296D02*
X144083296Y-60530918D01*
X119182107Y-102452107D02*
X119083296Y-102353296D01*
X169182107Y-61152107D02*
X169083296Y-61053296D01*
X94182107Y-61697107D02*
X94182107Y-61152107D01*
X169083296Y-61053296D02*
X169083296Y-60530918D01*
X144182107Y-82997107D02*
X144182107Y-82452107D01*
X144407107Y-121407107D02*
X144083296Y-121730918D01*
X119083296Y-122353296D02*
X119083296Y-121830918D01*
X94083296Y-122353296D02*
X94083296Y-121830918D01*
X119407107Y-60107107D02*
X119083296Y-60430918D01*
X94083296Y-101730918D02*
X94083296Y-101830918D01*
X94083296Y-102353296D02*
X94083296Y-101830918D01*
X119407107Y-81407107D02*
X119083296Y-81730918D01*
X144182107Y-61152107D02*
X144083296Y-61053296D01*
X119083296Y-102353296D02*
X119083296Y-101830918D01*
X94182107Y-122452107D02*
X94083296Y-122353296D01*
%TO.N,/E21*%
X142707107Y-119607107D02*
X143832107Y-120732107D01*
X167707107Y-99607107D02*
X168832107Y-100732107D01*
X117707107Y-99607107D02*
X118832107Y-100732107D01*
X167707107Y-79607107D02*
X168832107Y-80732107D01*
X142707107Y-99607107D02*
X143832107Y-100732107D01*
X143832107Y-80732107D02*
X143832107Y-82997107D01*
X118832107Y-80732107D02*
X118832107Y-82997107D01*
X117707107Y-79607107D02*
X118832107Y-80732107D01*
X167707107Y-119607107D02*
X168832107Y-120732107D01*
X118832107Y-100732107D02*
X118832107Y-102997107D01*
X92707107Y-58307107D02*
X93832107Y-59432107D01*
X168832107Y-100732107D02*
X168832107Y-102997107D01*
X93832107Y-80732107D02*
X93832107Y-82997107D01*
X168832107Y-59432107D02*
X168832107Y-61697107D01*
X143832107Y-59432107D02*
X143832107Y-61697107D01*
X168832107Y-80732107D02*
X168832107Y-82997107D01*
X92707107Y-119607107D02*
X93832107Y-120732107D01*
X142707107Y-79607107D02*
X143832107Y-80732107D01*
X143832107Y-100732107D02*
X143832107Y-102997107D01*
X93832107Y-100732107D02*
X93832107Y-102997107D01*
X93832107Y-120732107D02*
X93832107Y-122997107D01*
X92707107Y-99607107D02*
X93832107Y-100732107D01*
X118832107Y-59432107D02*
X118832107Y-61697107D01*
X117707107Y-119607107D02*
X118832107Y-120732107D01*
X142707107Y-58307107D02*
X143832107Y-59432107D01*
X168832107Y-120732107D02*
X168832107Y-122997107D01*
X118832107Y-120732107D02*
X118832107Y-122997107D01*
X143832107Y-120732107D02*
X143832107Y-122997107D01*
X167707107Y-58307107D02*
X168832107Y-59432107D01*
X92707107Y-79607107D02*
X93832107Y-80732107D01*
X117707107Y-58307107D02*
X118832107Y-59432107D01*
X93832107Y-59432107D02*
X93832107Y-61697107D01*
%TO.N,/E22*%
X143482107Y-59682107D02*
X142707107Y-58907107D01*
X93482107Y-120982107D02*
X92707107Y-120207107D01*
X143482107Y-100982107D02*
X142707107Y-100207107D01*
X168482107Y-120982107D02*
X167707107Y-120207107D01*
X93482107Y-100982107D02*
X92707107Y-100207107D01*
X168482107Y-80982107D02*
X167707107Y-80207107D01*
X143482107Y-120982107D02*
X142707107Y-120207107D01*
X93482107Y-80982107D02*
X92707107Y-80207107D01*
X118482107Y-59682107D02*
X117707107Y-58907107D01*
X143482107Y-82997107D02*
X143482107Y-80982107D01*
X168482107Y-61697107D02*
X168482107Y-59682107D01*
X93482107Y-59682107D02*
X92707107Y-58907107D01*
X168482107Y-102997107D02*
X168482107Y-100982107D01*
X168482107Y-59682107D02*
X167707107Y-58907107D01*
X118482107Y-82997107D02*
X118482107Y-80982107D01*
X118482107Y-120982107D02*
X117707107Y-120207107D01*
X168482107Y-82997107D02*
X168482107Y-80982107D01*
X168482107Y-122997107D02*
X168482107Y-120982107D01*
X143482107Y-61697107D02*
X143482107Y-59682107D01*
X93482107Y-61697107D02*
X93482107Y-59682107D01*
X93482107Y-122997107D02*
X93482107Y-120982107D01*
X93482107Y-102997107D02*
X93482107Y-100982107D01*
X118482107Y-61697107D02*
X118482107Y-59682107D01*
X143482107Y-122997107D02*
X143482107Y-120982107D01*
X118482107Y-102997107D02*
X118482107Y-100982107D01*
X93482107Y-82997107D02*
X93482107Y-80982107D01*
X118482107Y-80982107D02*
X117707107Y-80207107D01*
X168482107Y-100982107D02*
X167707107Y-100207107D01*
X143482107Y-102997107D02*
X143482107Y-100982107D01*
X118482107Y-100982107D02*
X117707107Y-100207107D01*
X143482107Y-80982107D02*
X142707107Y-80207107D01*
X118482107Y-122997107D02*
X118482107Y-120982107D01*
%TO.N,/E23*%
X143132107Y-122512107D02*
X143182838Y-122461376D01*
X142707107Y-80807107D02*
X143182838Y-81282838D01*
X93182838Y-59982838D02*
X93182838Y-61161376D01*
X168182838Y-101282838D02*
X168182838Y-102461376D01*
X118132107Y-122997107D02*
X118132107Y-122512107D01*
X167707107Y-80807107D02*
X168182838Y-81282838D01*
X93132107Y-82997107D02*
X93132107Y-82512107D01*
X118132107Y-61212107D02*
X118182838Y-61161376D01*
X93132107Y-102512107D02*
X93182838Y-102461376D01*
X92707107Y-59507107D02*
X93182838Y-59982838D01*
X142707107Y-100807107D02*
X143182838Y-101282838D01*
X117707107Y-100807107D02*
X118182838Y-101282838D01*
X143182838Y-59982838D02*
X143182838Y-61161376D01*
X92707107Y-120807107D02*
X93182838Y-121282838D01*
X168132107Y-102997107D02*
X168132107Y-102512107D01*
X93182838Y-121282838D02*
X93182838Y-122461376D01*
X143182838Y-121282838D02*
X143182838Y-122461376D01*
X93182838Y-81282838D02*
X93182838Y-82461376D01*
X142707107Y-120807107D02*
X143182838Y-121282838D01*
X93132107Y-102997107D02*
X93132107Y-102512107D01*
X117707107Y-120807107D02*
X118182838Y-121282838D01*
X118182838Y-101282838D02*
X118182838Y-102461376D01*
X92707107Y-80807107D02*
X93182838Y-81282838D01*
X168182838Y-81282838D02*
X168182838Y-82461376D01*
X168182838Y-59982838D02*
X168182838Y-61161376D01*
X118132107Y-122512107D02*
X118182838Y-122461376D01*
X167707107Y-100807107D02*
X168182838Y-101282838D01*
X118132107Y-61697107D02*
X118132107Y-61212107D01*
X118132107Y-102997107D02*
X118132107Y-102512107D01*
X118132107Y-82512107D02*
X118182838Y-82461376D01*
X117707107Y-80807107D02*
X118182838Y-81282838D01*
X168132107Y-61212107D02*
X168182838Y-61161376D01*
X93132107Y-122512107D02*
X93182838Y-122461376D01*
X118132107Y-102512107D02*
X118182838Y-102461376D01*
X168132107Y-82997107D02*
X168132107Y-82512107D01*
X143132107Y-82997107D02*
X143132107Y-82512107D01*
X118182838Y-121282838D02*
X118182838Y-122461376D01*
X143132107Y-102512107D02*
X143182838Y-102461376D01*
X143132107Y-61212107D02*
X143182838Y-61161376D01*
X168132107Y-61697107D02*
X168132107Y-61212107D01*
X142707107Y-59507107D02*
X143182838Y-59982838D01*
X167707107Y-120807107D02*
X168182838Y-121282838D01*
X92707107Y-100807107D02*
X93182838Y-101282838D01*
X168132107Y-102512107D02*
X168182838Y-102461376D01*
X168132107Y-122997107D02*
X168132107Y-122512107D01*
X143182838Y-101282838D02*
X143182838Y-102461376D01*
X168132107Y-122512107D02*
X168182838Y-122461376D01*
X143132107Y-122997107D02*
X143132107Y-122512107D01*
X93132107Y-122997107D02*
X93132107Y-122512107D01*
X167707107Y-59507107D02*
X168182838Y-59982838D01*
X117707107Y-59507107D02*
X118182838Y-59982838D01*
X143132107Y-102997107D02*
X143132107Y-102512107D01*
X93132107Y-61212107D02*
X93182838Y-61161376D01*
X168182838Y-121282838D02*
X168182838Y-122461376D01*
X143132107Y-82512107D02*
X143182838Y-82461376D01*
X118132107Y-82997107D02*
X118132107Y-82512107D01*
X93182838Y-101282838D02*
X93182838Y-102461376D01*
X143132107Y-61697107D02*
X143132107Y-61212107D01*
X118182838Y-59982838D02*
X118182838Y-61161376D01*
X143182838Y-81282838D02*
X143182838Y-82461376D01*
X93132107Y-82512107D02*
X93182838Y-82461376D01*
X168132107Y-82512107D02*
X168182838Y-82461376D01*
X93132107Y-61697107D02*
X93132107Y-61212107D01*
X118182838Y-81282838D02*
X118182838Y-82461376D01*
%TO.N,/E24*%
X92782107Y-122472107D02*
X93030918Y-122223296D01*
X167782107Y-82997107D02*
X167782107Y-82472107D01*
X93030918Y-101730918D02*
X92707107Y-101407107D01*
X93030918Y-82223296D02*
X93030918Y-81730918D01*
X142782107Y-82472107D02*
X143030918Y-82223296D01*
X118030918Y-60923296D02*
X118030918Y-60430918D01*
X92782107Y-82472107D02*
X93030918Y-82223296D01*
X93030918Y-102223296D02*
X93030918Y-101730918D01*
X92782107Y-102997107D02*
X92782107Y-102472107D01*
X143030918Y-82223296D02*
X143030918Y-81730918D01*
X92782107Y-61697107D02*
X92782107Y-61172107D01*
X168030918Y-82223296D02*
X168030918Y-81730918D01*
X143030918Y-121730918D02*
X142707107Y-121407107D01*
X142782107Y-102472107D02*
X143030918Y-102223296D01*
X142782107Y-61172107D02*
X143030918Y-60923296D01*
X117782107Y-102997107D02*
X117782107Y-102472107D01*
X143030918Y-122223296D02*
X143030918Y-121730918D01*
X168030918Y-121730918D02*
X167707107Y-121407107D01*
X117782107Y-122997107D02*
X117782107Y-122472107D01*
X118030918Y-121730918D02*
X117707107Y-121407107D01*
X117782107Y-102472107D02*
X118030918Y-102223296D01*
X117782107Y-82997107D02*
X117782107Y-82472107D01*
X167782107Y-82472107D02*
X168030918Y-82223296D01*
X142782107Y-82997107D02*
X142782107Y-82472107D01*
X167782107Y-122997107D02*
X167782107Y-122472107D01*
X143030918Y-60923296D02*
X143030918Y-60430918D01*
X92782107Y-122997107D02*
X92782107Y-122472107D01*
X143030918Y-60430918D02*
X142707107Y-60107107D01*
X117782107Y-82472107D02*
X118030918Y-82223296D01*
X167782107Y-102997107D02*
X167782107Y-102472107D01*
X92782107Y-82997107D02*
X92782107Y-82472107D01*
X168030918Y-60430918D02*
X167707107Y-60107107D01*
X93030918Y-60430918D02*
X92707107Y-60107107D01*
X93030918Y-121730918D02*
X92707107Y-121407107D01*
X142782107Y-122472107D02*
X143030918Y-122223296D01*
X167782107Y-61697107D02*
X167782107Y-61172107D01*
X118030918Y-82223296D02*
X118030918Y-81730918D01*
X92782107Y-102472107D02*
X93030918Y-102223296D01*
X168030918Y-102223296D02*
X168030918Y-101730918D01*
X117782107Y-61697107D02*
X117782107Y-61172107D01*
X93030918Y-60923296D02*
X93030918Y-60430918D01*
X118030918Y-102223296D02*
X118030918Y-101730918D01*
X118030918Y-122223296D02*
X118030918Y-121730918D01*
X168030918Y-81730918D02*
X167707107Y-81407107D01*
X168030918Y-122223296D02*
X168030918Y-121730918D01*
X167782107Y-102472107D02*
X168030918Y-102223296D01*
X143030918Y-101730918D02*
X142707107Y-101407107D01*
X142782107Y-61697107D02*
X142782107Y-61172107D01*
X142782107Y-122997107D02*
X142782107Y-122472107D01*
X93030918Y-81730918D02*
X92707107Y-81407107D01*
X168030918Y-60923296D02*
X168030918Y-60430918D01*
X93030918Y-122223296D02*
X93030918Y-121730918D01*
X117782107Y-61172107D02*
X118030918Y-60923296D01*
X167782107Y-61172107D02*
X168030918Y-60923296D01*
X168030918Y-101730918D02*
X167707107Y-101407107D01*
X143030918Y-102223296D02*
X143030918Y-101730918D01*
X118030918Y-101730918D02*
X117707107Y-101407107D01*
X143030918Y-81730918D02*
X142707107Y-81407107D01*
X118030918Y-60430918D02*
X117707107Y-60107107D01*
X117782107Y-122472107D02*
X118030918Y-122223296D01*
X142782107Y-102997107D02*
X142782107Y-102472107D01*
X167782107Y-122472107D02*
X168030918Y-122223296D01*
X118030918Y-81730918D02*
X117707107Y-81407107D01*
X92782107Y-61172107D02*
X93030918Y-60923296D01*
%TO.N,/E13*%
X96632107Y-82752107D02*
X96383296Y-82503296D01*
X121632107Y-82997107D02*
X121632107Y-82752107D01*
X171383296Y-121730918D02*
X171707107Y-121407107D01*
X121383296Y-61203296D02*
X121383296Y-60430918D01*
X146632107Y-122997107D02*
X146632107Y-122752107D01*
X171383296Y-60430918D02*
X171707107Y-60107107D01*
X146632107Y-102997107D02*
X146632107Y-102752107D01*
X96383296Y-101730918D02*
X96707107Y-101407107D01*
X121632107Y-122752107D02*
X121383296Y-122503296D01*
X146632107Y-82752107D02*
X146383296Y-82503296D01*
X121383296Y-102503296D02*
X121383296Y-101730918D01*
X146383296Y-60430918D02*
X146707107Y-60107107D01*
X96383296Y-121730918D02*
X96707107Y-121407107D01*
X121383296Y-122503296D02*
X121383296Y-121730918D01*
X146383296Y-81730918D02*
X146707107Y-81407107D01*
X146632107Y-82997107D02*
X146632107Y-82752107D01*
X146632107Y-61697107D02*
X146632107Y-61452107D01*
X171632107Y-102997107D02*
X171632107Y-102752107D01*
X171632107Y-82997107D02*
X171632107Y-82752107D01*
X121383296Y-82503296D02*
X121383296Y-81730918D01*
X146383296Y-101730918D02*
X146707107Y-101407107D01*
X146383296Y-82503296D02*
X146383296Y-81730918D01*
X146632107Y-122752107D02*
X146383296Y-122503296D01*
X121383296Y-121730918D02*
X121707107Y-121407107D01*
X171632107Y-122997107D02*
X171632107Y-122752107D01*
X146383296Y-102503296D02*
X146383296Y-101730918D01*
X146632107Y-61452107D02*
X146383296Y-61203296D01*
X171383296Y-101730918D02*
X171707107Y-101407107D01*
X121383296Y-101730918D02*
X121707107Y-101407107D01*
X171383296Y-122503296D02*
X171383296Y-121730918D01*
X96632107Y-61452107D02*
X96383296Y-61203296D01*
X96383296Y-122503296D02*
X96383296Y-121730918D01*
X96632107Y-102752107D02*
X96383296Y-102503296D01*
X96383296Y-82503296D02*
X96383296Y-81730918D01*
X96632107Y-122997107D02*
X96632107Y-122752107D01*
X171383296Y-82503296D02*
X171383296Y-81730918D01*
X121632107Y-102752107D02*
X121383296Y-102503296D01*
X121632107Y-122997107D02*
X121632107Y-122752107D01*
X146632107Y-102752107D02*
X146383296Y-102503296D01*
X171632107Y-122752107D02*
X171383296Y-122503296D01*
X171383296Y-102503296D02*
X171383296Y-101730918D01*
X96632107Y-102997107D02*
X96632107Y-102752107D01*
X121632107Y-82752107D02*
X121383296Y-82503296D01*
X121383296Y-60430918D02*
X121707107Y-60107107D01*
X146383296Y-61203296D02*
X146383296Y-60430918D01*
X96383296Y-61203296D02*
X96383296Y-60430918D01*
X96632107Y-82997107D02*
X96632107Y-82752107D01*
X96383296Y-81730918D02*
X96707107Y-81407107D01*
X121383296Y-81730918D02*
X121707107Y-81407107D01*
X96383296Y-60430918D02*
X96707107Y-60107107D01*
X171632107Y-61697107D02*
X171632107Y-61452107D01*
X96632107Y-122752107D02*
X96383296Y-122503296D01*
X171632107Y-102752107D02*
X171383296Y-102503296D01*
X96632107Y-61697107D02*
X96632107Y-61452107D01*
X146383296Y-121730918D02*
X146707107Y-121407107D01*
X121632107Y-61697107D02*
X121632107Y-61452107D01*
X146383296Y-122503296D02*
X146383296Y-121730918D01*
X121632107Y-102997107D02*
X121632107Y-102752107D01*
X171632107Y-61452107D02*
X171383296Y-61203296D01*
X96383296Y-102503296D02*
X96383296Y-101730918D01*
X171383296Y-81730918D02*
X171707107Y-81407107D01*
X171383296Y-61203296D02*
X171383296Y-60430918D01*
X121632107Y-61452107D02*
X121383296Y-61203296D01*
X171632107Y-82752107D02*
X171383296Y-82503296D01*
%TO.N,/E14*%
X121231376Y-102591376D02*
X121231376Y-101282838D01*
X121282107Y-61342107D02*
X121231376Y-61291376D01*
X171231376Y-82591376D02*
X171231376Y-81282838D01*
X146282107Y-122997107D02*
X146282107Y-122642107D01*
X96282107Y-102997107D02*
X96282107Y-102642107D01*
X171282107Y-122642107D02*
X171231376Y-122591376D01*
X121282107Y-82642107D02*
X121231376Y-82591376D01*
X146231376Y-102591376D02*
X146231376Y-101282838D01*
X146231376Y-81282838D02*
X146707107Y-80807107D01*
X96231376Y-122591376D02*
X96231376Y-121282838D01*
X171231376Y-61291376D02*
X171231376Y-59982838D01*
X171231376Y-122591376D02*
X171231376Y-121282838D01*
X96231376Y-61291376D02*
X96231376Y-59982838D01*
X121231376Y-122591376D02*
X121231376Y-121282838D01*
X171231376Y-102591376D02*
X171231376Y-101282838D01*
X121231376Y-81282838D02*
X121707107Y-80807107D01*
X171231376Y-121282838D02*
X171707107Y-120807107D01*
X171282107Y-122997107D02*
X171282107Y-122642107D01*
X96231376Y-59982838D02*
X96707107Y-59507107D01*
X146231376Y-122591376D02*
X146231376Y-121282838D01*
X96231376Y-121282838D02*
X96707107Y-120807107D01*
X171282107Y-61697107D02*
X171282107Y-61342107D01*
X96282107Y-61342107D02*
X96231376Y-61291376D01*
X171282107Y-102642107D02*
X171231376Y-102591376D01*
X96282107Y-82642107D02*
X96231376Y-82591376D01*
X96282107Y-122642107D02*
X96231376Y-122591376D01*
X121231376Y-101282838D02*
X121707107Y-100807107D01*
X146282107Y-122642107D02*
X146231376Y-122591376D01*
X121231376Y-82591376D02*
X121231376Y-81282838D01*
X146282107Y-82642107D02*
X146231376Y-82591376D01*
X121231376Y-59982838D02*
X121707107Y-59507107D01*
X146231376Y-61291376D02*
X146231376Y-59982838D01*
X171231376Y-101282838D02*
X171707107Y-100807107D01*
X171282107Y-82997107D02*
X171282107Y-82642107D01*
X96231376Y-102591376D02*
X96231376Y-101282838D01*
X146231376Y-82591376D02*
X146231376Y-81282838D01*
X121282107Y-122642107D02*
X121231376Y-122591376D01*
X121231376Y-121282838D02*
X121707107Y-120807107D01*
X121282107Y-61697107D02*
X121282107Y-61342107D01*
X146282107Y-61697107D02*
X146282107Y-61342107D01*
X96231376Y-101282838D02*
X96707107Y-100807107D01*
X171282107Y-102997107D02*
X171282107Y-102642107D01*
X121282107Y-122997107D02*
X121282107Y-122642107D01*
X146282107Y-102997107D02*
X146282107Y-102642107D01*
X146231376Y-59982838D02*
X146707107Y-59507107D01*
X171282107Y-82642107D02*
X171231376Y-82591376D01*
X121282107Y-82997107D02*
X121282107Y-82642107D01*
X96282107Y-122997107D02*
X96282107Y-122642107D01*
X146282107Y-82997107D02*
X146282107Y-82642107D01*
X96282107Y-61697107D02*
X96282107Y-61342107D01*
X121231376Y-61291376D02*
X121231376Y-59982838D01*
X121282107Y-102642107D02*
X121231376Y-102591376D01*
X171282107Y-61342107D02*
X171231376Y-61291376D01*
X146282107Y-61342107D02*
X146231376Y-61291376D01*
X146231376Y-121282838D02*
X146707107Y-120807107D01*
X146231376Y-101282838D02*
X146707107Y-100807107D01*
X171231376Y-59982838D02*
X171707107Y-59507107D01*
X171231376Y-81282838D02*
X171707107Y-80807107D01*
X96231376Y-82591376D02*
X96231376Y-81282838D01*
X96282107Y-102642107D02*
X96231376Y-102591376D01*
X96231376Y-81282838D02*
X96707107Y-80807107D01*
X146282107Y-102642107D02*
X146231376Y-102591376D01*
X121282107Y-102997107D02*
X121282107Y-102642107D01*
X96282107Y-82997107D02*
X96282107Y-82642107D01*
%TO.N,/E15*%
X145932107Y-59682107D02*
X146707107Y-58907107D01*
X95932107Y-120982107D02*
X96707107Y-120207107D01*
X170932107Y-120982107D02*
X171707107Y-120207107D01*
X170932107Y-122997107D02*
X170932107Y-120982107D01*
X145932107Y-120982107D02*
X146707107Y-120207107D01*
X95932107Y-61697107D02*
X95932107Y-59682107D01*
X170932107Y-102997107D02*
X170932107Y-100982107D01*
X95932107Y-59682107D02*
X96707107Y-58907107D01*
X145932107Y-102997107D02*
X145932107Y-100982107D01*
X145932107Y-80982107D02*
X146707107Y-80207107D01*
X170932107Y-80982107D02*
X171707107Y-80207107D01*
X170932107Y-61697107D02*
X170932107Y-59682107D01*
X95932107Y-82997107D02*
X95932107Y-80982107D01*
X120932107Y-82997107D02*
X120932107Y-80982107D01*
X120932107Y-102997107D02*
X120932107Y-100982107D01*
X120932107Y-61697107D02*
X120932107Y-59682107D01*
X145932107Y-82997107D02*
X145932107Y-80982107D01*
X145932107Y-122997107D02*
X145932107Y-120982107D01*
X145932107Y-100982107D02*
X146707107Y-100207107D01*
X120932107Y-122997107D02*
X120932107Y-120982107D01*
X120932107Y-59682107D02*
X121707107Y-58907107D01*
X145932107Y-61697107D02*
X145932107Y-59682107D01*
X95932107Y-80982107D02*
X96707107Y-80207107D01*
X95932107Y-102997107D02*
X95932107Y-100982107D01*
X120932107Y-120982107D02*
X121707107Y-120207107D01*
X120932107Y-80982107D02*
X121707107Y-80207107D01*
X95932107Y-100982107D02*
X96707107Y-100207107D01*
X170932107Y-59682107D02*
X171707107Y-58907107D01*
X120932107Y-100982107D02*
X121707107Y-100207107D01*
X170932107Y-82997107D02*
X170932107Y-80982107D01*
X95932107Y-122997107D02*
X95932107Y-120982107D01*
X170932107Y-100982107D02*
X171707107Y-100207107D01*
%TO.N,/E16*%
X121707107Y-58307107D02*
X120802107Y-59212107D01*
X95667107Y-59847107D02*
X95667107Y-61167107D01*
X145582107Y-122997107D02*
X145582107Y-122552107D01*
X170582107Y-102552107D02*
X170667107Y-102467107D01*
X95802107Y-80512107D02*
X95667107Y-80647107D01*
X120802107Y-80512107D02*
X120667107Y-80647107D01*
X145802107Y-100512107D02*
X145667107Y-100647107D01*
X170582107Y-82552107D02*
X170667107Y-82467107D01*
X120667107Y-59847107D02*
X120667107Y-61167107D01*
X170802107Y-59212107D02*
X170667107Y-59347107D01*
X171707107Y-79607107D02*
X170802107Y-80512107D01*
X120802107Y-120512107D02*
X120667107Y-120647107D01*
X171707107Y-58307107D02*
X170802107Y-59212107D01*
X170582107Y-122997107D02*
X170582107Y-122552107D01*
X145667107Y-121147107D02*
X145667107Y-122467107D01*
X170802107Y-120512107D02*
X170667107Y-120647107D01*
X95802107Y-100512107D02*
X95667107Y-100647107D01*
X145667107Y-80647107D02*
X145667107Y-81147107D01*
X170667107Y-121147107D02*
X170667107Y-122467107D01*
X96707107Y-58307107D02*
X95802107Y-59212107D01*
X146707107Y-79607107D02*
X145802107Y-80512107D01*
X145667107Y-59347107D02*
X145667107Y-59847107D01*
X170582107Y-82997107D02*
X170582107Y-82552107D01*
X95582107Y-61252107D02*
X95667107Y-61167107D01*
X145582107Y-82997107D02*
X145582107Y-82552107D01*
X95582107Y-122997107D02*
X95582107Y-122552107D01*
X145802107Y-80512107D02*
X145667107Y-80647107D01*
X95582107Y-102997107D02*
X95582107Y-102552107D01*
X120802107Y-59212107D02*
X120667107Y-59347107D01*
X120667107Y-121147107D02*
X120667107Y-122467107D01*
X146707107Y-99607107D02*
X145802107Y-100512107D01*
X170667107Y-101147107D02*
X170667107Y-102467107D01*
X145667107Y-100647107D02*
X145667107Y-101147107D01*
X120667107Y-101147107D02*
X120667107Y-102467107D01*
X145582107Y-102552107D02*
X145667107Y-102467107D01*
X95667107Y-59347107D02*
X95667107Y-59847107D01*
X95582107Y-61697107D02*
X95582107Y-61252107D01*
X95802107Y-120512107D02*
X95667107Y-120647107D01*
X170667107Y-100647107D02*
X170667107Y-101147107D01*
X170802107Y-80512107D02*
X170667107Y-80647107D01*
X145582107Y-82552107D02*
X145667107Y-82467107D01*
X146707107Y-58307107D02*
X145802107Y-59212107D01*
X170667107Y-81147107D02*
X170667107Y-82467107D01*
X120582107Y-82997107D02*
X120582107Y-82552107D01*
X121707107Y-119607107D02*
X120802107Y-120512107D01*
X145582107Y-122552107D02*
X145667107Y-122467107D01*
X95582107Y-122552107D02*
X95667107Y-122467107D01*
X121707107Y-79607107D02*
X120802107Y-80512107D01*
X145667107Y-81147107D02*
X145667107Y-82467107D01*
X95582107Y-82997107D02*
X95582107Y-82552107D01*
X170802107Y-100512107D02*
X170667107Y-100647107D01*
X95667107Y-80647107D02*
X95667107Y-81147107D01*
X96707107Y-119607107D02*
X95802107Y-120512107D01*
X145667107Y-59847107D02*
X145667107Y-61167107D01*
X95667107Y-121147107D02*
X95667107Y-122467107D01*
X120582107Y-122997107D02*
X120582107Y-122552107D01*
X145667107Y-101147107D02*
X145667107Y-102467107D01*
X95582107Y-82552107D02*
X95667107Y-82467107D01*
X120667107Y-81147107D02*
X120667107Y-82467107D01*
X145667107Y-120647107D02*
X145667107Y-121147107D01*
X95667107Y-120647107D02*
X95667107Y-121147107D01*
X170582107Y-61252107D02*
X170667107Y-61167107D01*
X120667107Y-100647107D02*
X120667107Y-101147107D01*
X145582107Y-61697107D02*
X145582107Y-61252107D01*
X170667107Y-59847107D02*
X170667107Y-61167107D01*
X145582107Y-102997107D02*
X145582107Y-102552107D01*
X120582107Y-102552107D02*
X120667107Y-102467107D01*
X170582107Y-102997107D02*
X170582107Y-102552107D01*
X170667107Y-80647107D02*
X170667107Y-81147107D01*
X120667107Y-80647107D02*
X120667107Y-81147107D01*
X146707107Y-119607107D02*
X145802107Y-120512107D01*
X120582107Y-61697107D02*
X120582107Y-61252107D01*
X96707107Y-99607107D02*
X95802107Y-100512107D01*
X145802107Y-59212107D02*
X145667107Y-59347107D01*
X145802107Y-120512107D02*
X145667107Y-120647107D01*
X120582107Y-82552107D02*
X120667107Y-82467107D01*
X120582107Y-122552107D02*
X120667107Y-122467107D01*
X171707107Y-119607107D02*
X170802107Y-120512107D01*
X170667107Y-59347107D02*
X170667107Y-59847107D01*
X96707107Y-79607107D02*
X95802107Y-80512107D01*
X120667107Y-59347107D02*
X120667107Y-59847107D01*
X95667107Y-101147107D02*
X95667107Y-102467107D01*
X120802107Y-100512107D02*
X120667107Y-100647107D01*
X170667107Y-120647107D02*
X170667107Y-121147107D01*
X170582107Y-61697107D02*
X170582107Y-61252107D01*
X120667107Y-120647107D02*
X120667107Y-121147107D01*
X120582107Y-61252107D02*
X120667107Y-61167107D01*
X171707107Y-99607107D02*
X170802107Y-100512107D01*
X95667107Y-81147107D02*
X95667107Y-82467107D01*
X170582107Y-122552107D02*
X170667107Y-122467107D01*
X120582107Y-102997107D02*
X120582107Y-102552107D01*
X95802107Y-59212107D02*
X95667107Y-59347107D01*
X95582107Y-102552107D02*
X95667107Y-102467107D01*
X121707107Y-99607107D02*
X120802107Y-100512107D01*
X145582107Y-61252107D02*
X145667107Y-61167107D01*
X95667107Y-100647107D02*
X95667107Y-101147107D01*
%TO.N,/REF*%
X172007107Y-61007107D02*
X171707107Y-60707107D01*
X97007107Y-103142107D02*
X97007107Y-102307107D01*
X97007107Y-123142107D02*
X97007107Y-122307107D01*
X97007107Y-61842107D02*
X97007107Y-61007107D01*
X122007107Y-122307107D02*
X121707107Y-122007107D01*
X172007107Y-83142107D02*
X172007107Y-82307107D01*
X97007107Y-122307107D02*
X96707107Y-122007107D01*
X97007107Y-82307107D02*
X96707107Y-82007107D01*
X172007107Y-82307107D02*
X171707107Y-82007107D01*
X122007107Y-123142107D02*
X122007107Y-122307107D01*
X122007107Y-83142107D02*
X122007107Y-82307107D01*
X97007107Y-102307107D02*
X96707107Y-102007107D01*
X172007107Y-123142107D02*
X172007107Y-122307107D01*
X147007107Y-61007107D02*
X146707107Y-60707107D01*
X172007107Y-61842107D02*
X172007107Y-61007107D01*
X172007107Y-103142107D02*
X172007107Y-102307107D01*
X122007107Y-61842107D02*
X122007107Y-61007107D01*
X122007107Y-61007107D02*
X121707107Y-60707107D01*
X122007107Y-102307107D02*
X121707107Y-102007107D01*
X172007107Y-122307107D02*
X171707107Y-122007107D01*
X147007107Y-122307107D02*
X146707107Y-122007107D01*
X147007107Y-103142107D02*
X147007107Y-102307107D01*
X122007107Y-103142107D02*
X122007107Y-102307107D01*
X147007107Y-102307107D02*
X146707107Y-102007107D01*
X97007107Y-83142107D02*
X97007107Y-82307107D01*
X97007107Y-61007107D02*
X96707107Y-60707107D01*
X147007107Y-82307107D02*
X146707107Y-82007107D01*
X122007107Y-82307107D02*
X121707107Y-82007107D01*
X147007107Y-123142107D02*
X147007107Y-122307107D01*
X172007107Y-102307107D02*
X171707107Y-102007107D01*
X147007107Y-61842107D02*
X147007107Y-61007107D01*
X147007107Y-83142107D02*
X147007107Y-82307107D01*
%TD*%
%TA.AperFunction,NonConductor*%
G36*
X195342121Y-35820002D02*
G01*
X195388614Y-35873658D01*
X195400000Y-35926000D01*
X195400000Y-145474000D01*
X195379998Y-145542121D01*
X195326342Y-145588614D01*
X195274000Y-145600000D01*
X70726000Y-145600000D01*
X70657879Y-145579998D01*
X70611386Y-145526342D01*
X70600000Y-145474000D01*
X70600000Y-140688462D01*
X72194672Y-140688462D01*
X72194844Y-140691857D01*
X72194844Y-140691858D01*
X72212587Y-141042108D01*
X72212759Y-141045503D01*
X72213296Y-141048858D01*
X72213297Y-141048864D01*
X72252403Y-141293013D01*
X72269300Y-141398502D01*
X72363635Y-141743330D01*
X72494658Y-142075953D01*
X72496241Y-142078968D01*
X72659255Y-142389464D01*
X72659260Y-142389472D01*
X72660839Y-142392480D01*
X72860232Y-142689208D01*
X73090505Y-142962666D01*
X73348965Y-143209656D01*
X73632587Y-143427287D01*
X73635498Y-143429057D01*
X73635504Y-143429061D01*
X73772586Y-143512408D01*
X73938055Y-143613015D01*
X74261795Y-143764665D01*
X74265013Y-143765767D01*
X74265016Y-143765768D01*
X74596796Y-143879362D01*
X74596804Y-143879364D01*
X74600019Y-143880465D01*
X74948771Y-143959060D01*
X74997869Y-143964654D01*
X75300589Y-143999145D01*
X75300597Y-143999145D01*
X75303972Y-143999530D01*
X75307376Y-143999548D01*
X75307379Y-143999548D01*
X75501890Y-144000566D01*
X75661465Y-144001402D01*
X75664851Y-144001052D01*
X75664853Y-144001052D01*
X76013678Y-143965005D01*
X76013687Y-143965004D01*
X76017070Y-143964654D01*
X76020403Y-143963940D01*
X76020406Y-143963939D01*
X76128777Y-143940706D01*
X76366626Y-143889715D01*
X76706045Y-143777463D01*
X77031355Y-143629211D01*
X77126442Y-143572752D01*
X77335806Y-143448442D01*
X77335811Y-143448439D01*
X77338751Y-143446693D01*
X77364598Y-143427287D01*
X77436778Y-143373092D01*
X77624637Y-143232043D01*
X77885669Y-142987774D01*
X78118793Y-142716742D01*
X78139663Y-142686376D01*
X78319352Y-142424927D01*
X78319357Y-142424920D01*
X78321282Y-142422118D01*
X78322894Y-142419124D01*
X78322899Y-142419116D01*
X78489146Y-142110361D01*
X78490768Y-142107349D01*
X78625268Y-141776116D01*
X78633705Y-141746500D01*
X78722274Y-141435573D01*
X78723208Y-141432295D01*
X78783443Y-141079907D01*
X78785548Y-141045503D01*
X78805157Y-140724873D01*
X78805267Y-140723075D01*
X78805348Y-140700000D01*
X78804723Y-140688462D01*
X187194672Y-140688462D01*
X187194844Y-140691857D01*
X187194844Y-140691858D01*
X187212587Y-141042108D01*
X187212759Y-141045503D01*
X187213296Y-141048858D01*
X187213297Y-141048864D01*
X187252403Y-141293013D01*
X187269300Y-141398502D01*
X187363635Y-141743330D01*
X187494658Y-142075953D01*
X187496241Y-142078968D01*
X187659255Y-142389464D01*
X187659260Y-142389472D01*
X187660839Y-142392480D01*
X187860232Y-142689208D01*
X188090505Y-142962666D01*
X188348965Y-143209656D01*
X188632587Y-143427287D01*
X188635498Y-143429057D01*
X188635504Y-143429061D01*
X188772586Y-143512408D01*
X188938055Y-143613015D01*
X189261795Y-143764665D01*
X189265013Y-143765767D01*
X189265016Y-143765768D01*
X189596796Y-143879362D01*
X189596804Y-143879364D01*
X189600019Y-143880465D01*
X189948771Y-143959060D01*
X189997869Y-143964654D01*
X190300589Y-143999145D01*
X190300597Y-143999145D01*
X190303972Y-143999530D01*
X190307376Y-143999548D01*
X190307379Y-143999548D01*
X190501890Y-144000566D01*
X190661465Y-144001402D01*
X190664851Y-144001052D01*
X190664853Y-144001052D01*
X191013678Y-143965005D01*
X191013687Y-143965004D01*
X191017070Y-143964654D01*
X191020403Y-143963940D01*
X191020406Y-143963939D01*
X191128777Y-143940706D01*
X191366626Y-143889715D01*
X191706045Y-143777463D01*
X192031355Y-143629211D01*
X192126442Y-143572752D01*
X192335806Y-143448442D01*
X192335811Y-143448439D01*
X192338751Y-143446693D01*
X192364598Y-143427287D01*
X192436778Y-143373092D01*
X192624637Y-143232043D01*
X192885669Y-142987774D01*
X193118793Y-142716742D01*
X193139663Y-142686376D01*
X193319352Y-142424927D01*
X193319357Y-142424920D01*
X193321282Y-142422118D01*
X193322894Y-142419124D01*
X193322899Y-142419116D01*
X193489146Y-142110361D01*
X193490768Y-142107349D01*
X193625268Y-141776116D01*
X193633705Y-141746500D01*
X193722274Y-141435573D01*
X193723208Y-141432295D01*
X193783443Y-141079907D01*
X193785548Y-141045503D01*
X193805157Y-140724873D01*
X193805267Y-140723075D01*
X193805348Y-140700000D01*
X193786015Y-140343025D01*
X193728242Y-139990225D01*
X193632704Y-139645728D01*
X193629659Y-139638075D01*
X193501780Y-139316730D01*
X193501776Y-139316722D01*
X193500520Y-139313565D01*
X193494979Y-139303100D01*
X193334831Y-139000632D01*
X193334829Y-139000629D01*
X193333236Y-138997620D01*
X193132809Y-138701590D01*
X192901582Y-138428937D01*
X192642262Y-138182851D01*
X192639555Y-138180789D01*
X192639547Y-138180782D01*
X192478966Y-138058453D01*
X192357881Y-137966211D01*
X192051767Y-137781551D01*
X192037058Y-137774723D01*
X191730581Y-137632461D01*
X191730579Y-137632460D01*
X191727500Y-137631031D01*
X191724288Y-137629944D01*
X191724281Y-137629941D01*
X191392110Y-137517508D01*
X191392105Y-137517506D01*
X191388874Y-137516413D01*
X191039849Y-137439036D01*
X190914473Y-137425194D01*
X190687890Y-137400179D01*
X190687885Y-137400179D01*
X190684509Y-137399806D01*
X190681110Y-137399800D01*
X190681109Y-137399800D01*
X190512506Y-137399506D01*
X190327011Y-137399182D01*
X190193770Y-137413421D01*
X189974921Y-137436809D01*
X189974915Y-137436810D01*
X189971537Y-137437171D01*
X189622245Y-137513329D01*
X189283220Y-137626765D01*
X188958430Y-137776152D01*
X188955496Y-137777908D01*
X188955494Y-137777909D01*
X188949409Y-137781551D01*
X188651673Y-137959742D01*
X188366538Y-138175388D01*
X188106360Y-138420567D01*
X187874183Y-138692411D01*
X187872264Y-138695224D01*
X187872261Y-138695228D01*
X187867922Y-138701590D01*
X187672723Y-138987740D01*
X187671116Y-138990750D01*
X187671114Y-138990753D01*
X187665839Y-139000632D01*
X187504337Y-139303100D01*
X187370995Y-139634800D01*
X187274255Y-139978961D01*
X187215251Y-140331556D01*
X187194672Y-140688462D01*
X78804723Y-140688462D01*
X78786015Y-140343025D01*
X78728242Y-139990225D01*
X78632704Y-139645728D01*
X78629659Y-139638075D01*
X78501780Y-139316730D01*
X78501776Y-139316722D01*
X78500520Y-139313565D01*
X78494979Y-139303100D01*
X78334831Y-139000632D01*
X78334829Y-139000629D01*
X78333236Y-138997620D01*
X78132809Y-138701590D01*
X77901582Y-138428937D01*
X77642262Y-138182851D01*
X77639555Y-138180789D01*
X77639547Y-138180782D01*
X77478966Y-138058453D01*
X77357881Y-137966211D01*
X77051767Y-137781551D01*
X77037058Y-137774723D01*
X76730581Y-137632461D01*
X76730579Y-137632460D01*
X76727500Y-137631031D01*
X76724288Y-137629944D01*
X76724281Y-137629941D01*
X76392110Y-137517508D01*
X76392105Y-137517506D01*
X76388874Y-137516413D01*
X76039849Y-137439036D01*
X75914473Y-137425194D01*
X75687890Y-137400179D01*
X75687885Y-137400179D01*
X75684509Y-137399806D01*
X75681110Y-137399800D01*
X75681109Y-137399800D01*
X75512506Y-137399506D01*
X75327011Y-137399182D01*
X75193770Y-137413421D01*
X74974921Y-137436809D01*
X74974915Y-137436810D01*
X74971537Y-137437171D01*
X74622245Y-137513329D01*
X74283220Y-137626765D01*
X73958430Y-137776152D01*
X73955496Y-137777908D01*
X73955494Y-137777909D01*
X73949409Y-137781551D01*
X73651673Y-137959742D01*
X73366538Y-138175388D01*
X73106360Y-138420567D01*
X72874183Y-138692411D01*
X72872264Y-138695224D01*
X72872261Y-138695228D01*
X72867922Y-138701590D01*
X72672723Y-138987740D01*
X72671116Y-138990750D01*
X72671114Y-138990753D01*
X72665839Y-139000632D01*
X72504337Y-139303100D01*
X72370995Y-139634800D01*
X72274255Y-139978961D01*
X72215251Y-140331556D01*
X72194672Y-140688462D01*
X70600000Y-140688462D01*
X70600000Y-127107107D01*
X90101961Y-127107107D01*
X90103253Y-127111083D01*
X90119680Y-127298850D01*
X90169496Y-127484766D01*
X90250840Y-127659208D01*
X90361239Y-127816875D01*
X90497339Y-127952975D01*
X90655006Y-128063374D01*
X90659984Y-128065695D01*
X90659987Y-128065697D01*
X90824466Y-128142395D01*
X90829448Y-128144718D01*
X90834756Y-128146140D01*
X90834758Y-128146141D01*
X90892667Y-128161657D01*
X91015364Y-128194534D01*
X91085358Y-128200657D01*
X91181739Y-128209090D01*
X91181741Y-128209090D01*
X91203131Y-128210961D01*
X91207107Y-128212253D01*
X91221553Y-128207559D01*
X91236455Y-128207985D01*
X91242565Y-128207107D01*
X98191269Y-128207107D01*
X98191269Y-128207526D01*
X98192063Y-128207365D01*
X98207107Y-128212253D01*
X98211083Y-128210961D01*
X98398850Y-128194534D01*
X98521547Y-128161657D01*
X98579456Y-128146141D01*
X98579458Y-128146140D01*
X98584766Y-128144718D01*
X98589748Y-128142395D01*
X98754227Y-128065697D01*
X98754230Y-128065695D01*
X98759208Y-128063374D01*
X98916875Y-127952975D01*
X99052975Y-127816875D01*
X99163374Y-127659208D01*
X99244718Y-127484766D01*
X99294534Y-127298850D01*
X99300657Y-127228856D01*
X99309090Y-127132475D01*
X99309090Y-127132473D01*
X99310961Y-127111083D01*
X99312253Y-127107107D01*
X115101961Y-127107107D01*
X115103253Y-127111083D01*
X115119680Y-127298850D01*
X115169496Y-127484766D01*
X115250840Y-127659208D01*
X115361239Y-127816875D01*
X115497339Y-127952975D01*
X115655006Y-128063374D01*
X115659984Y-128065695D01*
X115659987Y-128065697D01*
X115824466Y-128142395D01*
X115829448Y-128144718D01*
X115834756Y-128146140D01*
X115834758Y-128146141D01*
X115892667Y-128161657D01*
X116015364Y-128194534D01*
X116085358Y-128200657D01*
X116181739Y-128209090D01*
X116181741Y-128209090D01*
X116203131Y-128210961D01*
X116207107Y-128212253D01*
X116221553Y-128207559D01*
X116236455Y-128207985D01*
X116242565Y-128207107D01*
X123191269Y-128207107D01*
X123191269Y-128207526D01*
X123192063Y-128207365D01*
X123207107Y-128212253D01*
X123211083Y-128210961D01*
X123398850Y-128194534D01*
X123521547Y-128161657D01*
X123579456Y-128146141D01*
X123579458Y-128146140D01*
X123584766Y-128144718D01*
X123589748Y-128142395D01*
X123754227Y-128065697D01*
X123754230Y-128065695D01*
X123759208Y-128063374D01*
X123916875Y-127952975D01*
X124052975Y-127816875D01*
X124163374Y-127659208D01*
X124244718Y-127484766D01*
X124294534Y-127298850D01*
X124300657Y-127228856D01*
X124309090Y-127132475D01*
X124309090Y-127132473D01*
X124310961Y-127111083D01*
X124312253Y-127107107D01*
X140101961Y-127107107D01*
X140103253Y-127111083D01*
X140119680Y-127298850D01*
X140169496Y-127484766D01*
X140250840Y-127659208D01*
X140361239Y-127816875D01*
X140497339Y-127952975D01*
X140655006Y-128063374D01*
X140659984Y-128065695D01*
X140659987Y-128065697D01*
X140824466Y-128142395D01*
X140829448Y-128144718D01*
X140834756Y-128146140D01*
X140834758Y-128146141D01*
X140892667Y-128161657D01*
X141015364Y-128194534D01*
X141085358Y-128200657D01*
X141181739Y-128209090D01*
X141181741Y-128209090D01*
X141203131Y-128210961D01*
X141207107Y-128212253D01*
X141221553Y-128207559D01*
X141236455Y-128207985D01*
X141242565Y-128207107D01*
X148191269Y-128207107D01*
X148191269Y-128207526D01*
X148192063Y-128207365D01*
X148207107Y-128212253D01*
X148211083Y-128210961D01*
X148398850Y-128194534D01*
X148521547Y-128161657D01*
X148579456Y-128146141D01*
X148579458Y-128146140D01*
X148584766Y-128144718D01*
X148589748Y-128142395D01*
X148754227Y-128065697D01*
X148754230Y-128065695D01*
X148759208Y-128063374D01*
X148916875Y-127952975D01*
X149052975Y-127816875D01*
X149163374Y-127659208D01*
X149244718Y-127484766D01*
X149294534Y-127298850D01*
X149300657Y-127228856D01*
X149309090Y-127132475D01*
X149309090Y-127132473D01*
X149310961Y-127111083D01*
X149312253Y-127107107D01*
X165101961Y-127107107D01*
X165103253Y-127111083D01*
X165119680Y-127298850D01*
X165169496Y-127484766D01*
X165250840Y-127659208D01*
X165361239Y-127816875D01*
X165497339Y-127952975D01*
X165655006Y-128063374D01*
X165659984Y-128065695D01*
X165659987Y-128065697D01*
X165824466Y-128142395D01*
X165829448Y-128144718D01*
X165834756Y-128146140D01*
X165834758Y-128146141D01*
X165892667Y-128161657D01*
X166015364Y-128194534D01*
X166085358Y-128200657D01*
X166181739Y-128209090D01*
X166181741Y-128209090D01*
X166203131Y-128210961D01*
X166207107Y-128212253D01*
X166221553Y-128207559D01*
X166236455Y-128207985D01*
X166242565Y-128207107D01*
X173191269Y-128207107D01*
X173191269Y-128207526D01*
X173192063Y-128207365D01*
X173207107Y-128212253D01*
X173211083Y-128210961D01*
X173398850Y-128194534D01*
X173521547Y-128161657D01*
X173579456Y-128146141D01*
X173579458Y-128146140D01*
X173584766Y-128144718D01*
X173589748Y-128142395D01*
X173754227Y-128065697D01*
X173754230Y-128065695D01*
X173759208Y-128063374D01*
X173916875Y-127952975D01*
X174052975Y-127816875D01*
X174163374Y-127659208D01*
X174244718Y-127484766D01*
X174294534Y-127298850D01*
X174300657Y-127228856D01*
X174309090Y-127132475D01*
X174309090Y-127132473D01*
X174310961Y-127111083D01*
X174312253Y-127107107D01*
X174307559Y-127092661D01*
X174307985Y-127077759D01*
X174307107Y-127071649D01*
X174307107Y-116722945D01*
X174307526Y-116722945D01*
X174307365Y-116722151D01*
X174312253Y-116707107D01*
X174310961Y-116703131D01*
X174294534Y-116515364D01*
X174244718Y-116329448D01*
X174163374Y-116155006D01*
X174052975Y-115997339D01*
X173916875Y-115861239D01*
X173759208Y-115750840D01*
X173754230Y-115748519D01*
X173754227Y-115748517D01*
X173589748Y-115671819D01*
X173589746Y-115671818D01*
X173584766Y-115669496D01*
X173579458Y-115668074D01*
X173579456Y-115668073D01*
X173521547Y-115652557D01*
X173398850Y-115619680D01*
X173328856Y-115613557D01*
X173232475Y-115605124D01*
X173232473Y-115605124D01*
X173211083Y-115603253D01*
X173207107Y-115601961D01*
X173192661Y-115606655D01*
X173177759Y-115606229D01*
X173171649Y-115607107D01*
X171222945Y-115607107D01*
X171222945Y-115606688D01*
X171222151Y-115606849D01*
X171207107Y-115601961D01*
X171205243Y-115602567D01*
X171184023Y-115604533D01*
X171184022Y-115604533D01*
X171009912Y-115620667D01*
X171004117Y-115621204D01*
X170998520Y-115622796D01*
X170998517Y-115622797D01*
X170906078Y-115649098D01*
X170808039Y-115676993D01*
X170802828Y-115679588D01*
X170774089Y-115693898D01*
X170717926Y-115707107D01*
X168696288Y-115707107D01*
X168640125Y-115693898D01*
X168611386Y-115679588D01*
X168606175Y-115676993D01*
X168508136Y-115649098D01*
X168415697Y-115622797D01*
X168415694Y-115622796D01*
X168410097Y-115621204D01*
X168208971Y-115602567D01*
X168207107Y-115601961D01*
X168192670Y-115606652D01*
X168177788Y-115606224D01*
X168171649Y-115607107D01*
X166222945Y-115607107D01*
X166222945Y-115606688D01*
X166222151Y-115606849D01*
X166207107Y-115601961D01*
X166203131Y-115603253D01*
X166015364Y-115619680D01*
X165892667Y-115652557D01*
X165834758Y-115668073D01*
X165834756Y-115668074D01*
X165829448Y-115669496D01*
X165824468Y-115671818D01*
X165824466Y-115671819D01*
X165659987Y-115748517D01*
X165659984Y-115748519D01*
X165655006Y-115750840D01*
X165497339Y-115861239D01*
X165361239Y-115997339D01*
X165250840Y-116155006D01*
X165169496Y-116329448D01*
X165119680Y-116515364D01*
X165119201Y-116520843D01*
X165105124Y-116681739D01*
X165105124Y-116681741D01*
X165103253Y-116703131D01*
X165101961Y-116707107D01*
X165106655Y-116721553D01*
X165106229Y-116736455D01*
X165107107Y-116742565D01*
X165107107Y-127091269D01*
X165106688Y-127091269D01*
X165106849Y-127092063D01*
X165101961Y-127107107D01*
X149312253Y-127107107D01*
X149307559Y-127092661D01*
X149307985Y-127077759D01*
X149307107Y-127071649D01*
X149307107Y-116722945D01*
X149307526Y-116722945D01*
X149307365Y-116722151D01*
X149312253Y-116707107D01*
X149310961Y-116703131D01*
X149294534Y-116515364D01*
X149244718Y-116329448D01*
X149163374Y-116155006D01*
X149052975Y-115997339D01*
X148916875Y-115861239D01*
X148759208Y-115750840D01*
X148754230Y-115748519D01*
X148754227Y-115748517D01*
X148589748Y-115671819D01*
X148589746Y-115671818D01*
X148584766Y-115669496D01*
X148579458Y-115668074D01*
X148579456Y-115668073D01*
X148521547Y-115652557D01*
X148398850Y-115619680D01*
X148328856Y-115613557D01*
X148232475Y-115605124D01*
X148232473Y-115605124D01*
X148211083Y-115603253D01*
X148207107Y-115601961D01*
X148192661Y-115606655D01*
X148177759Y-115606229D01*
X148171649Y-115607107D01*
X146222945Y-115607107D01*
X146222945Y-115606688D01*
X146222151Y-115606849D01*
X146207107Y-115601961D01*
X146205243Y-115602567D01*
X146184023Y-115604533D01*
X146184022Y-115604533D01*
X146009912Y-115620667D01*
X146004117Y-115621204D01*
X145998520Y-115622796D01*
X145998517Y-115622797D01*
X145906078Y-115649098D01*
X145808039Y-115676993D01*
X145802828Y-115679588D01*
X145774089Y-115693898D01*
X145717926Y-115707107D01*
X143696288Y-115707107D01*
X143640125Y-115693898D01*
X143611386Y-115679588D01*
X143606175Y-115676993D01*
X143508136Y-115649098D01*
X143415697Y-115622797D01*
X143415694Y-115622796D01*
X143410097Y-115621204D01*
X143208971Y-115602567D01*
X143207107Y-115601961D01*
X143192670Y-115606652D01*
X143177788Y-115606224D01*
X143171649Y-115607107D01*
X141222945Y-115607107D01*
X141222945Y-115606688D01*
X141222151Y-115606849D01*
X141207107Y-115601961D01*
X141203131Y-115603253D01*
X141015364Y-115619680D01*
X140892667Y-115652557D01*
X140834758Y-115668073D01*
X140834756Y-115668074D01*
X140829448Y-115669496D01*
X140824468Y-115671818D01*
X140824466Y-115671819D01*
X140659987Y-115748517D01*
X140659984Y-115748519D01*
X140655006Y-115750840D01*
X140497339Y-115861239D01*
X140361239Y-115997339D01*
X140250840Y-116155006D01*
X140169496Y-116329448D01*
X140119680Y-116515364D01*
X140119201Y-116520843D01*
X140105124Y-116681739D01*
X140105124Y-116681741D01*
X140103253Y-116703131D01*
X140101961Y-116707107D01*
X140106655Y-116721553D01*
X140106229Y-116736455D01*
X140107107Y-116742565D01*
X140107107Y-127091269D01*
X140106688Y-127091269D01*
X140106849Y-127092063D01*
X140101961Y-127107107D01*
X124312253Y-127107107D01*
X124307559Y-127092661D01*
X124307985Y-127077759D01*
X124307107Y-127071649D01*
X124307107Y-116722945D01*
X124307526Y-116722945D01*
X124307365Y-116722151D01*
X124312253Y-116707107D01*
X124310961Y-116703131D01*
X124294534Y-116515364D01*
X124244718Y-116329448D01*
X124163374Y-116155006D01*
X124052975Y-115997339D01*
X123916875Y-115861239D01*
X123759208Y-115750840D01*
X123754230Y-115748519D01*
X123754227Y-115748517D01*
X123589748Y-115671819D01*
X123589746Y-115671818D01*
X123584766Y-115669496D01*
X123579458Y-115668074D01*
X123579456Y-115668073D01*
X123521547Y-115652557D01*
X123398850Y-115619680D01*
X123328856Y-115613557D01*
X123232475Y-115605124D01*
X123232473Y-115605124D01*
X123211083Y-115603253D01*
X123207107Y-115601961D01*
X123192661Y-115606655D01*
X123177759Y-115606229D01*
X123171649Y-115607107D01*
X121222945Y-115607107D01*
X121222945Y-115606688D01*
X121222151Y-115606849D01*
X121207107Y-115601961D01*
X121205243Y-115602567D01*
X121184023Y-115604533D01*
X121184022Y-115604533D01*
X121009912Y-115620667D01*
X121004117Y-115621204D01*
X120998520Y-115622796D01*
X120998517Y-115622797D01*
X120906078Y-115649098D01*
X120808039Y-115676993D01*
X120802828Y-115679588D01*
X120774089Y-115693898D01*
X120717926Y-115707107D01*
X118696288Y-115707107D01*
X118640125Y-115693898D01*
X118611386Y-115679588D01*
X118606175Y-115676993D01*
X118508136Y-115649098D01*
X118415697Y-115622797D01*
X118415694Y-115622796D01*
X118410097Y-115621204D01*
X118208971Y-115602567D01*
X118207107Y-115601961D01*
X118192670Y-115606652D01*
X118177788Y-115606224D01*
X118171649Y-115607107D01*
X116222945Y-115607107D01*
X116222945Y-115606688D01*
X116222151Y-115606849D01*
X116207107Y-115601961D01*
X116203131Y-115603253D01*
X116015364Y-115619680D01*
X115892667Y-115652557D01*
X115834758Y-115668073D01*
X115834756Y-115668074D01*
X115829448Y-115669496D01*
X115824468Y-115671818D01*
X115824466Y-115671819D01*
X115659987Y-115748517D01*
X115659984Y-115748519D01*
X115655006Y-115750840D01*
X115497339Y-115861239D01*
X115361239Y-115997339D01*
X115250840Y-116155006D01*
X115169496Y-116329448D01*
X115119680Y-116515364D01*
X115119201Y-116520843D01*
X115105124Y-116681739D01*
X115105124Y-116681741D01*
X115103253Y-116703131D01*
X115101961Y-116707107D01*
X115106655Y-116721553D01*
X115106229Y-116736455D01*
X115107107Y-116742565D01*
X115107107Y-127091269D01*
X115106688Y-127091269D01*
X115106849Y-127092063D01*
X115101961Y-127107107D01*
X99312253Y-127107107D01*
X99307559Y-127092661D01*
X99307985Y-127077759D01*
X99307107Y-127071649D01*
X99307107Y-116722945D01*
X99307526Y-116722945D01*
X99307365Y-116722151D01*
X99312253Y-116707107D01*
X99310961Y-116703131D01*
X99294534Y-116515364D01*
X99244718Y-116329448D01*
X99163374Y-116155006D01*
X99052975Y-115997339D01*
X98916875Y-115861239D01*
X98759208Y-115750840D01*
X98754230Y-115748519D01*
X98754227Y-115748517D01*
X98589748Y-115671819D01*
X98589746Y-115671818D01*
X98584766Y-115669496D01*
X98579458Y-115668074D01*
X98579456Y-115668073D01*
X98521547Y-115652557D01*
X98398850Y-115619680D01*
X98328856Y-115613557D01*
X98232475Y-115605124D01*
X98232473Y-115605124D01*
X98211083Y-115603253D01*
X98207107Y-115601961D01*
X98192661Y-115606655D01*
X98177759Y-115606229D01*
X98171649Y-115607107D01*
X96222945Y-115607107D01*
X96222945Y-115606688D01*
X96222151Y-115606849D01*
X96207107Y-115601961D01*
X96205243Y-115602567D01*
X96184023Y-115604533D01*
X96184022Y-115604533D01*
X96009912Y-115620667D01*
X96004117Y-115621204D01*
X95998520Y-115622796D01*
X95998517Y-115622797D01*
X95906078Y-115649098D01*
X95808039Y-115676993D01*
X95802828Y-115679588D01*
X95774089Y-115693898D01*
X95717926Y-115707107D01*
X93696288Y-115707107D01*
X93640125Y-115693898D01*
X93611386Y-115679588D01*
X93606175Y-115676993D01*
X93508136Y-115649098D01*
X93415697Y-115622797D01*
X93415694Y-115622796D01*
X93410097Y-115621204D01*
X93208971Y-115602567D01*
X93207107Y-115601961D01*
X93192670Y-115606652D01*
X93177788Y-115606224D01*
X93171649Y-115607107D01*
X91222945Y-115607107D01*
X91222945Y-115606688D01*
X91222151Y-115606849D01*
X91207107Y-115601961D01*
X91203131Y-115603253D01*
X91015364Y-115619680D01*
X90892667Y-115652557D01*
X90834758Y-115668073D01*
X90834756Y-115668074D01*
X90829448Y-115669496D01*
X90824468Y-115671818D01*
X90824466Y-115671819D01*
X90659987Y-115748517D01*
X90659984Y-115748519D01*
X90655006Y-115750840D01*
X90497339Y-115861239D01*
X90361239Y-115997339D01*
X90250840Y-116155006D01*
X90169496Y-116329448D01*
X90119680Y-116515364D01*
X90119201Y-116520843D01*
X90105124Y-116681739D01*
X90105124Y-116681741D01*
X90103253Y-116703131D01*
X90101961Y-116707107D01*
X90106655Y-116721553D01*
X90106229Y-116736455D01*
X90107107Y-116742565D01*
X90107107Y-127091269D01*
X90106688Y-127091269D01*
X90106849Y-127092063D01*
X90101961Y-127107107D01*
X70600000Y-127107107D01*
X70600000Y-107107107D01*
X90101961Y-107107107D01*
X90103253Y-107111083D01*
X90119680Y-107298850D01*
X90169496Y-107484766D01*
X90250840Y-107659208D01*
X90361239Y-107816875D01*
X90497339Y-107952975D01*
X90655006Y-108063374D01*
X90659984Y-108065695D01*
X90659987Y-108065697D01*
X90824466Y-108142395D01*
X90829448Y-108144718D01*
X90834756Y-108146140D01*
X90834758Y-108146141D01*
X90892667Y-108161657D01*
X91015364Y-108194534D01*
X91085358Y-108200657D01*
X91181739Y-108209090D01*
X91181741Y-108209090D01*
X91203131Y-108210961D01*
X91207107Y-108212253D01*
X91221553Y-108207559D01*
X91236455Y-108207985D01*
X91242565Y-108207107D01*
X98191269Y-108207107D01*
X98191269Y-108207526D01*
X98192063Y-108207365D01*
X98207107Y-108212253D01*
X98211083Y-108210961D01*
X98398850Y-108194534D01*
X98521547Y-108161657D01*
X98579456Y-108146141D01*
X98579458Y-108146140D01*
X98584766Y-108144718D01*
X98589748Y-108142395D01*
X98754227Y-108065697D01*
X98754230Y-108065695D01*
X98759208Y-108063374D01*
X98916875Y-107952975D01*
X99052975Y-107816875D01*
X99163374Y-107659208D01*
X99244718Y-107484766D01*
X99294534Y-107298850D01*
X99300657Y-107228856D01*
X99309090Y-107132475D01*
X99309090Y-107132473D01*
X99310961Y-107111083D01*
X99312253Y-107107107D01*
X115101961Y-107107107D01*
X115103253Y-107111083D01*
X115119680Y-107298850D01*
X115169496Y-107484766D01*
X115250840Y-107659208D01*
X115361239Y-107816875D01*
X115497339Y-107952975D01*
X115655006Y-108063374D01*
X115659984Y-108065695D01*
X115659987Y-108065697D01*
X115824466Y-108142395D01*
X115829448Y-108144718D01*
X115834756Y-108146140D01*
X115834758Y-108146141D01*
X115892667Y-108161657D01*
X116015364Y-108194534D01*
X116085358Y-108200657D01*
X116181739Y-108209090D01*
X116181741Y-108209090D01*
X116203131Y-108210961D01*
X116207107Y-108212253D01*
X116221553Y-108207559D01*
X116236455Y-108207985D01*
X116242565Y-108207107D01*
X123191269Y-108207107D01*
X123191269Y-108207526D01*
X123192063Y-108207365D01*
X123207107Y-108212253D01*
X123211083Y-108210961D01*
X123398850Y-108194534D01*
X123521547Y-108161657D01*
X123579456Y-108146141D01*
X123579458Y-108146140D01*
X123584766Y-108144718D01*
X123589748Y-108142395D01*
X123754227Y-108065697D01*
X123754230Y-108065695D01*
X123759208Y-108063374D01*
X123916875Y-107952975D01*
X124052975Y-107816875D01*
X124163374Y-107659208D01*
X124244718Y-107484766D01*
X124294534Y-107298850D01*
X124300657Y-107228856D01*
X124309090Y-107132475D01*
X124309090Y-107132473D01*
X124310961Y-107111083D01*
X124312253Y-107107107D01*
X140101961Y-107107107D01*
X140103253Y-107111083D01*
X140119680Y-107298850D01*
X140169496Y-107484766D01*
X140250840Y-107659208D01*
X140361239Y-107816875D01*
X140497339Y-107952975D01*
X140655006Y-108063374D01*
X140659984Y-108065695D01*
X140659987Y-108065697D01*
X140824466Y-108142395D01*
X140829448Y-108144718D01*
X140834756Y-108146140D01*
X140834758Y-108146141D01*
X140892667Y-108161657D01*
X141015364Y-108194534D01*
X141085358Y-108200657D01*
X141181739Y-108209090D01*
X141181741Y-108209090D01*
X141203131Y-108210961D01*
X141207107Y-108212253D01*
X141221553Y-108207559D01*
X141236455Y-108207985D01*
X141242565Y-108207107D01*
X148191269Y-108207107D01*
X148191269Y-108207526D01*
X148192063Y-108207365D01*
X148207107Y-108212253D01*
X148211083Y-108210961D01*
X148398850Y-108194534D01*
X148521547Y-108161657D01*
X148579456Y-108146141D01*
X148579458Y-108146140D01*
X148584766Y-108144718D01*
X148589748Y-108142395D01*
X148754227Y-108065697D01*
X148754230Y-108065695D01*
X148759208Y-108063374D01*
X148916875Y-107952975D01*
X149052975Y-107816875D01*
X149163374Y-107659208D01*
X149244718Y-107484766D01*
X149294534Y-107298850D01*
X149300657Y-107228856D01*
X149309090Y-107132475D01*
X149309090Y-107132473D01*
X149310961Y-107111083D01*
X149312253Y-107107107D01*
X165101961Y-107107107D01*
X165103253Y-107111083D01*
X165119680Y-107298850D01*
X165169496Y-107484766D01*
X165250840Y-107659208D01*
X165361239Y-107816875D01*
X165497339Y-107952975D01*
X165655006Y-108063374D01*
X165659984Y-108065695D01*
X165659987Y-108065697D01*
X165824466Y-108142395D01*
X165829448Y-108144718D01*
X165834756Y-108146140D01*
X165834758Y-108146141D01*
X165892667Y-108161657D01*
X166015364Y-108194534D01*
X166085358Y-108200657D01*
X166181739Y-108209090D01*
X166181741Y-108209090D01*
X166203131Y-108210961D01*
X166207107Y-108212253D01*
X166221553Y-108207559D01*
X166236455Y-108207985D01*
X166242565Y-108207107D01*
X173191269Y-108207107D01*
X173191269Y-108207526D01*
X173192063Y-108207365D01*
X173207107Y-108212253D01*
X173211083Y-108210961D01*
X173398850Y-108194534D01*
X173521547Y-108161657D01*
X173579456Y-108146141D01*
X173579458Y-108146140D01*
X173584766Y-108144718D01*
X173589748Y-108142395D01*
X173754227Y-108065697D01*
X173754230Y-108065695D01*
X173759208Y-108063374D01*
X173916875Y-107952975D01*
X174052975Y-107816875D01*
X174163374Y-107659208D01*
X174244718Y-107484766D01*
X174294534Y-107298850D01*
X174300657Y-107228856D01*
X174309090Y-107132475D01*
X174309090Y-107132473D01*
X174310961Y-107111083D01*
X174312253Y-107107107D01*
X174307559Y-107092661D01*
X174307985Y-107077759D01*
X174307107Y-107071649D01*
X174307107Y-96722945D01*
X174307526Y-96722945D01*
X174307365Y-96722151D01*
X174312253Y-96707107D01*
X174310961Y-96703131D01*
X174294534Y-96515364D01*
X174244718Y-96329448D01*
X174163374Y-96155006D01*
X174052975Y-95997339D01*
X173916875Y-95861239D01*
X173759208Y-95750840D01*
X173754230Y-95748519D01*
X173754227Y-95748517D01*
X173589748Y-95671819D01*
X173589746Y-95671818D01*
X173584766Y-95669496D01*
X173579458Y-95668074D01*
X173579456Y-95668073D01*
X173521547Y-95652557D01*
X173398850Y-95619680D01*
X173328856Y-95613557D01*
X173232475Y-95605124D01*
X173232473Y-95605124D01*
X173211083Y-95603253D01*
X173207107Y-95601961D01*
X173192661Y-95606655D01*
X173177759Y-95606229D01*
X173171649Y-95607107D01*
X171222945Y-95607107D01*
X171222945Y-95606688D01*
X171222151Y-95606849D01*
X171207107Y-95601961D01*
X171205243Y-95602567D01*
X171184023Y-95604533D01*
X171184022Y-95604533D01*
X171009912Y-95620667D01*
X171004117Y-95621204D01*
X170998520Y-95622796D01*
X170998517Y-95622797D01*
X170906078Y-95649098D01*
X170808039Y-95676993D01*
X170802828Y-95679588D01*
X170774089Y-95693898D01*
X170717926Y-95707107D01*
X168696288Y-95707107D01*
X168640125Y-95693898D01*
X168611386Y-95679588D01*
X168606175Y-95676993D01*
X168508136Y-95649098D01*
X168415697Y-95622797D01*
X168415694Y-95622796D01*
X168410097Y-95621204D01*
X168208971Y-95602567D01*
X168207107Y-95601961D01*
X168192670Y-95606652D01*
X168177788Y-95606224D01*
X168171649Y-95607107D01*
X166222945Y-95607107D01*
X166222945Y-95606688D01*
X166222151Y-95606849D01*
X166207107Y-95601961D01*
X166203131Y-95603253D01*
X166015364Y-95619680D01*
X165892667Y-95652557D01*
X165834758Y-95668073D01*
X165834756Y-95668074D01*
X165829448Y-95669496D01*
X165824468Y-95671818D01*
X165824466Y-95671819D01*
X165659987Y-95748517D01*
X165659984Y-95748519D01*
X165655006Y-95750840D01*
X165497339Y-95861239D01*
X165361239Y-95997339D01*
X165250840Y-96155006D01*
X165169496Y-96329448D01*
X165119680Y-96515364D01*
X165119201Y-96520843D01*
X165105124Y-96681739D01*
X165105124Y-96681741D01*
X165103253Y-96703131D01*
X165101961Y-96707107D01*
X165106655Y-96721553D01*
X165106229Y-96736455D01*
X165107107Y-96742565D01*
X165107107Y-107091269D01*
X165106688Y-107091269D01*
X165106849Y-107092063D01*
X165101961Y-107107107D01*
X149312253Y-107107107D01*
X149307559Y-107092661D01*
X149307985Y-107077759D01*
X149307107Y-107071649D01*
X149307107Y-96722945D01*
X149307526Y-96722945D01*
X149307365Y-96722151D01*
X149312253Y-96707107D01*
X149310961Y-96703131D01*
X149294534Y-96515364D01*
X149244718Y-96329448D01*
X149163374Y-96155006D01*
X149052975Y-95997339D01*
X148916875Y-95861239D01*
X148759208Y-95750840D01*
X148754230Y-95748519D01*
X148754227Y-95748517D01*
X148589748Y-95671819D01*
X148589746Y-95671818D01*
X148584766Y-95669496D01*
X148579458Y-95668074D01*
X148579456Y-95668073D01*
X148521547Y-95652557D01*
X148398850Y-95619680D01*
X148328856Y-95613557D01*
X148232475Y-95605124D01*
X148232473Y-95605124D01*
X148211083Y-95603253D01*
X148207107Y-95601961D01*
X148192661Y-95606655D01*
X148177759Y-95606229D01*
X148171649Y-95607107D01*
X146222945Y-95607107D01*
X146222945Y-95606688D01*
X146222151Y-95606849D01*
X146207107Y-95601961D01*
X146205243Y-95602567D01*
X146184023Y-95604533D01*
X146184022Y-95604533D01*
X146009912Y-95620667D01*
X146004117Y-95621204D01*
X145998520Y-95622796D01*
X145998517Y-95622797D01*
X145906078Y-95649098D01*
X145808039Y-95676993D01*
X145802828Y-95679588D01*
X145774089Y-95693898D01*
X145717926Y-95707107D01*
X143696288Y-95707107D01*
X143640125Y-95693898D01*
X143611386Y-95679588D01*
X143606175Y-95676993D01*
X143508136Y-95649098D01*
X143415697Y-95622797D01*
X143415694Y-95622796D01*
X143410097Y-95621204D01*
X143208971Y-95602567D01*
X143207107Y-95601961D01*
X143192670Y-95606652D01*
X143177788Y-95606224D01*
X143171649Y-95607107D01*
X141222945Y-95607107D01*
X141222945Y-95606688D01*
X141222151Y-95606849D01*
X141207107Y-95601961D01*
X141203131Y-95603253D01*
X141015364Y-95619680D01*
X140892667Y-95652557D01*
X140834758Y-95668073D01*
X140834756Y-95668074D01*
X140829448Y-95669496D01*
X140824468Y-95671818D01*
X140824466Y-95671819D01*
X140659987Y-95748517D01*
X140659984Y-95748519D01*
X140655006Y-95750840D01*
X140497339Y-95861239D01*
X140361239Y-95997339D01*
X140250840Y-96155006D01*
X140169496Y-96329448D01*
X140119680Y-96515364D01*
X140119201Y-96520843D01*
X140105124Y-96681739D01*
X140105124Y-96681741D01*
X140103253Y-96703131D01*
X140101961Y-96707107D01*
X140106655Y-96721553D01*
X140106229Y-96736455D01*
X140107107Y-96742565D01*
X140107107Y-107091269D01*
X140106688Y-107091269D01*
X140106849Y-107092063D01*
X140101961Y-107107107D01*
X124312253Y-107107107D01*
X124307559Y-107092661D01*
X124307985Y-107077759D01*
X124307107Y-107071649D01*
X124307107Y-96722945D01*
X124307526Y-96722945D01*
X124307365Y-96722151D01*
X124312253Y-96707107D01*
X124310961Y-96703131D01*
X124294534Y-96515364D01*
X124244718Y-96329448D01*
X124163374Y-96155006D01*
X124052975Y-95997339D01*
X123916875Y-95861239D01*
X123759208Y-95750840D01*
X123754230Y-95748519D01*
X123754227Y-95748517D01*
X123589748Y-95671819D01*
X123589746Y-95671818D01*
X123584766Y-95669496D01*
X123579458Y-95668074D01*
X123579456Y-95668073D01*
X123521547Y-95652557D01*
X123398850Y-95619680D01*
X123328856Y-95613557D01*
X123232475Y-95605124D01*
X123232473Y-95605124D01*
X123211083Y-95603253D01*
X123207107Y-95601961D01*
X123192661Y-95606655D01*
X123177759Y-95606229D01*
X123171649Y-95607107D01*
X121222945Y-95607107D01*
X121222945Y-95606688D01*
X121222151Y-95606849D01*
X121207107Y-95601961D01*
X121205243Y-95602567D01*
X121184023Y-95604533D01*
X121184022Y-95604533D01*
X121009912Y-95620667D01*
X121004117Y-95621204D01*
X120998520Y-95622796D01*
X120998517Y-95622797D01*
X120906078Y-95649098D01*
X120808039Y-95676993D01*
X120802828Y-95679588D01*
X120774089Y-95693898D01*
X120717926Y-95707107D01*
X118696288Y-95707107D01*
X118640125Y-95693898D01*
X118611386Y-95679588D01*
X118606175Y-95676993D01*
X118508136Y-95649098D01*
X118415697Y-95622797D01*
X118415694Y-95622796D01*
X118410097Y-95621204D01*
X118208971Y-95602567D01*
X118207107Y-95601961D01*
X118192670Y-95606652D01*
X118177788Y-95606224D01*
X118171649Y-95607107D01*
X116222945Y-95607107D01*
X116222945Y-95606688D01*
X116222151Y-95606849D01*
X116207107Y-95601961D01*
X116203131Y-95603253D01*
X116015364Y-95619680D01*
X115892667Y-95652557D01*
X115834758Y-95668073D01*
X115834756Y-95668074D01*
X115829448Y-95669496D01*
X115824468Y-95671818D01*
X115824466Y-95671819D01*
X115659987Y-95748517D01*
X115659984Y-95748519D01*
X115655006Y-95750840D01*
X115497339Y-95861239D01*
X115361239Y-95997339D01*
X115250840Y-96155006D01*
X115169496Y-96329448D01*
X115119680Y-96515364D01*
X115119201Y-96520843D01*
X115105124Y-96681739D01*
X115105124Y-96681741D01*
X115103253Y-96703131D01*
X115101961Y-96707107D01*
X115106655Y-96721553D01*
X115106229Y-96736455D01*
X115107107Y-96742565D01*
X115107107Y-107091269D01*
X115106688Y-107091269D01*
X115106849Y-107092063D01*
X115101961Y-107107107D01*
X99312253Y-107107107D01*
X99307559Y-107092661D01*
X99307985Y-107077759D01*
X99307107Y-107071649D01*
X99307107Y-96722945D01*
X99307526Y-96722945D01*
X99307365Y-96722151D01*
X99312253Y-96707107D01*
X99310961Y-96703131D01*
X99294534Y-96515364D01*
X99244718Y-96329448D01*
X99163374Y-96155006D01*
X99052975Y-95997339D01*
X98916875Y-95861239D01*
X98759208Y-95750840D01*
X98754230Y-95748519D01*
X98754227Y-95748517D01*
X98589748Y-95671819D01*
X98589746Y-95671818D01*
X98584766Y-95669496D01*
X98579458Y-95668074D01*
X98579456Y-95668073D01*
X98521547Y-95652557D01*
X98398850Y-95619680D01*
X98328856Y-95613557D01*
X98232475Y-95605124D01*
X98232473Y-95605124D01*
X98211083Y-95603253D01*
X98207107Y-95601961D01*
X98192661Y-95606655D01*
X98177759Y-95606229D01*
X98171649Y-95607107D01*
X96222945Y-95607107D01*
X96222945Y-95606688D01*
X96222151Y-95606849D01*
X96207107Y-95601961D01*
X96205243Y-95602567D01*
X96184023Y-95604533D01*
X96184022Y-95604533D01*
X96009912Y-95620667D01*
X96004117Y-95621204D01*
X95998520Y-95622796D01*
X95998517Y-95622797D01*
X95906078Y-95649098D01*
X95808039Y-95676993D01*
X95802828Y-95679588D01*
X95774089Y-95693898D01*
X95717926Y-95707107D01*
X93696288Y-95707107D01*
X93640125Y-95693898D01*
X93611386Y-95679588D01*
X93606175Y-95676993D01*
X93508136Y-95649098D01*
X93415697Y-95622797D01*
X93415694Y-95622796D01*
X93410097Y-95621204D01*
X93208971Y-95602567D01*
X93207107Y-95601961D01*
X93192670Y-95606652D01*
X93177788Y-95606224D01*
X93171649Y-95607107D01*
X91222945Y-95607107D01*
X91222945Y-95606688D01*
X91222151Y-95606849D01*
X91207107Y-95601961D01*
X91203131Y-95603253D01*
X91015364Y-95619680D01*
X90892667Y-95652557D01*
X90834758Y-95668073D01*
X90834756Y-95668074D01*
X90829448Y-95669496D01*
X90824468Y-95671818D01*
X90824466Y-95671819D01*
X90659987Y-95748517D01*
X90659984Y-95748519D01*
X90655006Y-95750840D01*
X90497339Y-95861239D01*
X90361239Y-95997339D01*
X90250840Y-96155006D01*
X90169496Y-96329448D01*
X90119680Y-96515364D01*
X90119201Y-96520843D01*
X90105124Y-96681739D01*
X90105124Y-96681741D01*
X90103253Y-96703131D01*
X90101961Y-96707107D01*
X90106655Y-96721553D01*
X90106229Y-96736455D01*
X90107107Y-96742565D01*
X90107107Y-107091269D01*
X90106688Y-107091269D01*
X90106849Y-107092063D01*
X90101961Y-107107107D01*
X70600000Y-107107107D01*
X70600000Y-87107107D01*
X90101961Y-87107107D01*
X90103253Y-87111083D01*
X90119680Y-87298850D01*
X90169496Y-87484766D01*
X90250840Y-87659208D01*
X90361239Y-87816875D01*
X90497339Y-87952975D01*
X90655006Y-88063374D01*
X90659984Y-88065695D01*
X90659987Y-88065697D01*
X90824466Y-88142395D01*
X90829448Y-88144718D01*
X90834756Y-88146140D01*
X90834758Y-88146141D01*
X90892667Y-88161657D01*
X91015364Y-88194534D01*
X91085358Y-88200657D01*
X91181739Y-88209090D01*
X91181741Y-88209090D01*
X91203131Y-88210961D01*
X91207107Y-88212253D01*
X91221553Y-88207559D01*
X91236455Y-88207985D01*
X91242565Y-88207107D01*
X98191269Y-88207107D01*
X98191269Y-88207526D01*
X98192063Y-88207365D01*
X98207107Y-88212253D01*
X98211083Y-88210961D01*
X98398850Y-88194534D01*
X98521547Y-88161657D01*
X98579456Y-88146141D01*
X98579458Y-88146140D01*
X98584766Y-88144718D01*
X98589748Y-88142395D01*
X98754227Y-88065697D01*
X98754230Y-88065695D01*
X98759208Y-88063374D01*
X98916875Y-87952975D01*
X99052975Y-87816875D01*
X99163374Y-87659208D01*
X99244718Y-87484766D01*
X99294534Y-87298850D01*
X99300657Y-87228856D01*
X99309090Y-87132475D01*
X99309090Y-87132473D01*
X99310961Y-87111083D01*
X99312253Y-87107107D01*
X115101961Y-87107107D01*
X115103253Y-87111083D01*
X115119680Y-87298850D01*
X115169496Y-87484766D01*
X115250840Y-87659208D01*
X115361239Y-87816875D01*
X115497339Y-87952975D01*
X115655006Y-88063374D01*
X115659984Y-88065695D01*
X115659987Y-88065697D01*
X115824466Y-88142395D01*
X115829448Y-88144718D01*
X115834756Y-88146140D01*
X115834758Y-88146141D01*
X115892667Y-88161657D01*
X116015364Y-88194534D01*
X116085358Y-88200657D01*
X116181739Y-88209090D01*
X116181741Y-88209090D01*
X116203131Y-88210961D01*
X116207107Y-88212253D01*
X116221553Y-88207559D01*
X116236455Y-88207985D01*
X116242565Y-88207107D01*
X123191269Y-88207107D01*
X123191269Y-88207526D01*
X123192063Y-88207365D01*
X123207107Y-88212253D01*
X123211083Y-88210961D01*
X123398850Y-88194534D01*
X123521547Y-88161657D01*
X123579456Y-88146141D01*
X123579458Y-88146140D01*
X123584766Y-88144718D01*
X123589748Y-88142395D01*
X123754227Y-88065697D01*
X123754230Y-88065695D01*
X123759208Y-88063374D01*
X123916875Y-87952975D01*
X124052975Y-87816875D01*
X124163374Y-87659208D01*
X124244718Y-87484766D01*
X124294534Y-87298850D01*
X124300657Y-87228856D01*
X124309090Y-87132475D01*
X124309090Y-87132473D01*
X124310961Y-87111083D01*
X124312253Y-87107107D01*
X140101961Y-87107107D01*
X140103253Y-87111083D01*
X140119680Y-87298850D01*
X140169496Y-87484766D01*
X140250840Y-87659208D01*
X140361239Y-87816875D01*
X140497339Y-87952975D01*
X140655006Y-88063374D01*
X140659984Y-88065695D01*
X140659987Y-88065697D01*
X140824466Y-88142395D01*
X140829448Y-88144718D01*
X140834756Y-88146140D01*
X140834758Y-88146141D01*
X140892667Y-88161657D01*
X141015364Y-88194534D01*
X141085358Y-88200657D01*
X141181739Y-88209090D01*
X141181741Y-88209090D01*
X141203131Y-88210961D01*
X141207107Y-88212253D01*
X141221553Y-88207559D01*
X141236455Y-88207985D01*
X141242565Y-88207107D01*
X148191269Y-88207107D01*
X148191269Y-88207526D01*
X148192063Y-88207365D01*
X148207107Y-88212253D01*
X148211083Y-88210961D01*
X148398850Y-88194534D01*
X148521547Y-88161657D01*
X148579456Y-88146141D01*
X148579458Y-88146140D01*
X148584766Y-88144718D01*
X148589748Y-88142395D01*
X148754227Y-88065697D01*
X148754230Y-88065695D01*
X148759208Y-88063374D01*
X148916875Y-87952975D01*
X149052975Y-87816875D01*
X149163374Y-87659208D01*
X149244718Y-87484766D01*
X149294534Y-87298850D01*
X149300657Y-87228856D01*
X149309090Y-87132475D01*
X149309090Y-87132473D01*
X149310961Y-87111083D01*
X149312253Y-87107107D01*
X165101961Y-87107107D01*
X165103253Y-87111083D01*
X165119680Y-87298850D01*
X165169496Y-87484766D01*
X165250840Y-87659208D01*
X165361239Y-87816875D01*
X165497339Y-87952975D01*
X165655006Y-88063374D01*
X165659984Y-88065695D01*
X165659987Y-88065697D01*
X165824466Y-88142395D01*
X165829448Y-88144718D01*
X165834756Y-88146140D01*
X165834758Y-88146141D01*
X165892667Y-88161657D01*
X166015364Y-88194534D01*
X166085358Y-88200657D01*
X166181739Y-88209090D01*
X166181741Y-88209090D01*
X166203131Y-88210961D01*
X166207107Y-88212253D01*
X166221553Y-88207559D01*
X166236455Y-88207985D01*
X166242565Y-88207107D01*
X173191269Y-88207107D01*
X173191269Y-88207526D01*
X173192063Y-88207365D01*
X173207107Y-88212253D01*
X173211083Y-88210961D01*
X173398850Y-88194534D01*
X173521547Y-88161657D01*
X173579456Y-88146141D01*
X173579458Y-88146140D01*
X173584766Y-88144718D01*
X173589748Y-88142395D01*
X173754227Y-88065697D01*
X173754230Y-88065695D01*
X173759208Y-88063374D01*
X173916875Y-87952975D01*
X174052975Y-87816875D01*
X174163374Y-87659208D01*
X174244718Y-87484766D01*
X174294534Y-87298850D01*
X174300657Y-87228856D01*
X174309090Y-87132475D01*
X174309090Y-87132473D01*
X174310961Y-87111083D01*
X174312253Y-87107107D01*
X174307559Y-87092661D01*
X174307985Y-87077759D01*
X174307107Y-87071649D01*
X174307107Y-76722945D01*
X174307526Y-76722945D01*
X174307365Y-76722151D01*
X174312253Y-76707107D01*
X174310961Y-76703131D01*
X174294534Y-76515364D01*
X174244718Y-76329448D01*
X174163374Y-76155006D01*
X174052975Y-75997339D01*
X173916875Y-75861239D01*
X173759208Y-75750840D01*
X173754230Y-75748519D01*
X173754227Y-75748517D01*
X173589748Y-75671819D01*
X173589746Y-75671818D01*
X173584766Y-75669496D01*
X173579458Y-75668074D01*
X173579456Y-75668073D01*
X173521547Y-75652557D01*
X173398850Y-75619680D01*
X173328856Y-75613557D01*
X173232475Y-75605124D01*
X173232473Y-75605124D01*
X173211083Y-75603253D01*
X173207107Y-75601961D01*
X173192661Y-75606655D01*
X173177759Y-75606229D01*
X173171649Y-75607107D01*
X171222945Y-75607107D01*
X171222945Y-75606688D01*
X171222151Y-75606849D01*
X171207107Y-75601961D01*
X171205243Y-75602567D01*
X171184023Y-75604533D01*
X171184022Y-75604533D01*
X171009912Y-75620667D01*
X171004117Y-75621204D01*
X170998520Y-75622796D01*
X170998517Y-75622797D01*
X170906078Y-75649099D01*
X170808039Y-75676993D01*
X170802828Y-75679588D01*
X170774089Y-75693898D01*
X170717926Y-75707107D01*
X168696288Y-75707107D01*
X168640125Y-75693898D01*
X168611386Y-75679588D01*
X168606175Y-75676993D01*
X168508136Y-75649099D01*
X168415697Y-75622797D01*
X168415694Y-75622796D01*
X168410097Y-75621204D01*
X168208971Y-75602567D01*
X168207107Y-75601961D01*
X168192670Y-75606652D01*
X168177788Y-75606224D01*
X168171649Y-75607107D01*
X166222945Y-75607107D01*
X166222945Y-75606688D01*
X166222151Y-75606849D01*
X166207107Y-75601961D01*
X166203131Y-75603253D01*
X166015364Y-75619680D01*
X165892667Y-75652557D01*
X165834758Y-75668073D01*
X165834756Y-75668074D01*
X165829448Y-75669496D01*
X165824468Y-75671818D01*
X165824466Y-75671819D01*
X165659987Y-75748517D01*
X165659984Y-75748519D01*
X165655006Y-75750840D01*
X165497339Y-75861239D01*
X165361239Y-75997339D01*
X165250840Y-76155006D01*
X165169496Y-76329448D01*
X165119680Y-76515364D01*
X165119201Y-76520843D01*
X165105124Y-76681739D01*
X165105124Y-76681741D01*
X165103253Y-76703131D01*
X165101961Y-76707107D01*
X165106655Y-76721553D01*
X165106229Y-76736455D01*
X165107107Y-76742565D01*
X165107107Y-87091269D01*
X165106688Y-87091269D01*
X165106849Y-87092063D01*
X165101961Y-87107107D01*
X149312253Y-87107107D01*
X149307559Y-87092661D01*
X149307985Y-87077759D01*
X149307107Y-87071649D01*
X149307107Y-76722945D01*
X149307526Y-76722945D01*
X149307365Y-76722151D01*
X149312253Y-76707107D01*
X149310961Y-76703131D01*
X149294534Y-76515364D01*
X149244718Y-76329448D01*
X149163374Y-76155006D01*
X149052975Y-75997339D01*
X148916875Y-75861239D01*
X148759208Y-75750840D01*
X148754230Y-75748519D01*
X148754227Y-75748517D01*
X148589748Y-75671819D01*
X148589746Y-75671818D01*
X148584766Y-75669496D01*
X148579458Y-75668074D01*
X148579456Y-75668073D01*
X148521547Y-75652557D01*
X148398850Y-75619680D01*
X148328856Y-75613557D01*
X148232475Y-75605124D01*
X148232473Y-75605124D01*
X148211083Y-75603253D01*
X148207107Y-75601961D01*
X148192661Y-75606655D01*
X148177759Y-75606229D01*
X148171649Y-75607107D01*
X146222945Y-75607107D01*
X146222945Y-75606688D01*
X146222151Y-75606849D01*
X146207107Y-75601961D01*
X146205243Y-75602567D01*
X146184023Y-75604533D01*
X146184022Y-75604533D01*
X146009912Y-75620667D01*
X146004117Y-75621204D01*
X145998520Y-75622796D01*
X145998517Y-75622797D01*
X145906078Y-75649099D01*
X145808039Y-75676993D01*
X145802828Y-75679588D01*
X145774089Y-75693898D01*
X145717926Y-75707107D01*
X143696288Y-75707107D01*
X143640125Y-75693898D01*
X143611386Y-75679588D01*
X143606175Y-75676993D01*
X143508136Y-75649099D01*
X143415697Y-75622797D01*
X143415694Y-75622796D01*
X143410097Y-75621204D01*
X143208971Y-75602567D01*
X143207107Y-75601961D01*
X143192670Y-75606652D01*
X143177788Y-75606224D01*
X143171649Y-75607107D01*
X141222945Y-75607107D01*
X141222945Y-75606688D01*
X141222151Y-75606849D01*
X141207107Y-75601961D01*
X141203131Y-75603253D01*
X141015364Y-75619680D01*
X140892667Y-75652557D01*
X140834758Y-75668073D01*
X140834756Y-75668074D01*
X140829448Y-75669496D01*
X140824468Y-75671818D01*
X140824466Y-75671819D01*
X140659987Y-75748517D01*
X140659984Y-75748519D01*
X140655006Y-75750840D01*
X140497339Y-75861239D01*
X140361239Y-75997339D01*
X140250840Y-76155006D01*
X140169496Y-76329448D01*
X140119680Y-76515364D01*
X140119201Y-76520843D01*
X140105124Y-76681739D01*
X140105124Y-76681741D01*
X140103253Y-76703131D01*
X140101961Y-76707107D01*
X140106655Y-76721553D01*
X140106229Y-76736455D01*
X140107107Y-76742565D01*
X140107107Y-87091269D01*
X140106688Y-87091269D01*
X140106849Y-87092063D01*
X140101961Y-87107107D01*
X124312253Y-87107107D01*
X124307559Y-87092661D01*
X124307985Y-87077759D01*
X124307107Y-87071649D01*
X124307107Y-76722945D01*
X124307526Y-76722945D01*
X124307365Y-76722151D01*
X124312253Y-76707107D01*
X124310961Y-76703131D01*
X124294534Y-76515364D01*
X124244718Y-76329448D01*
X124163374Y-76155006D01*
X124052975Y-75997339D01*
X123916875Y-75861239D01*
X123759208Y-75750840D01*
X123754230Y-75748519D01*
X123754227Y-75748517D01*
X123589748Y-75671819D01*
X123589746Y-75671818D01*
X123584766Y-75669496D01*
X123579458Y-75668074D01*
X123579456Y-75668073D01*
X123521547Y-75652557D01*
X123398850Y-75619680D01*
X123328856Y-75613557D01*
X123232475Y-75605124D01*
X123232473Y-75605124D01*
X123211083Y-75603253D01*
X123207107Y-75601961D01*
X123192661Y-75606655D01*
X123177759Y-75606229D01*
X123171649Y-75607107D01*
X121222945Y-75607107D01*
X121222945Y-75606688D01*
X121222151Y-75606849D01*
X121207107Y-75601961D01*
X121205243Y-75602567D01*
X121184023Y-75604533D01*
X121184022Y-75604533D01*
X121009912Y-75620667D01*
X121004117Y-75621204D01*
X120998520Y-75622796D01*
X120998517Y-75622797D01*
X120906078Y-75649099D01*
X120808039Y-75676993D01*
X120802828Y-75679588D01*
X120774089Y-75693898D01*
X120717926Y-75707107D01*
X118696288Y-75707107D01*
X118640125Y-75693898D01*
X118611386Y-75679588D01*
X118606175Y-75676993D01*
X118508136Y-75649099D01*
X118415697Y-75622797D01*
X118415694Y-75622796D01*
X118410097Y-75621204D01*
X118208971Y-75602567D01*
X118207107Y-75601961D01*
X118192670Y-75606652D01*
X118177788Y-75606224D01*
X118171649Y-75607107D01*
X116222945Y-75607107D01*
X116222945Y-75606688D01*
X116222151Y-75606849D01*
X116207107Y-75601961D01*
X116203131Y-75603253D01*
X116015364Y-75619680D01*
X115892667Y-75652557D01*
X115834758Y-75668073D01*
X115834756Y-75668074D01*
X115829448Y-75669496D01*
X115824468Y-75671818D01*
X115824466Y-75671819D01*
X115659987Y-75748517D01*
X115659984Y-75748519D01*
X115655006Y-75750840D01*
X115497339Y-75861239D01*
X115361239Y-75997339D01*
X115250840Y-76155006D01*
X115169496Y-76329448D01*
X115119680Y-76515364D01*
X115119201Y-76520843D01*
X115105124Y-76681739D01*
X115105124Y-76681741D01*
X115103253Y-76703131D01*
X115101961Y-76707107D01*
X115106655Y-76721553D01*
X115106229Y-76736455D01*
X115107107Y-76742565D01*
X115107107Y-87091269D01*
X115106688Y-87091269D01*
X115106849Y-87092063D01*
X115101961Y-87107107D01*
X99312253Y-87107107D01*
X99307559Y-87092661D01*
X99307985Y-87077759D01*
X99307107Y-87071649D01*
X99307107Y-76722945D01*
X99307526Y-76722945D01*
X99307365Y-76722151D01*
X99312253Y-76707107D01*
X99310961Y-76703131D01*
X99294534Y-76515364D01*
X99244718Y-76329448D01*
X99163374Y-76155006D01*
X99052975Y-75997339D01*
X98916875Y-75861239D01*
X98759208Y-75750840D01*
X98754230Y-75748519D01*
X98754227Y-75748517D01*
X98589748Y-75671819D01*
X98589746Y-75671818D01*
X98584766Y-75669496D01*
X98579458Y-75668074D01*
X98579456Y-75668073D01*
X98521547Y-75652557D01*
X98398850Y-75619680D01*
X98328856Y-75613557D01*
X98232475Y-75605124D01*
X98232473Y-75605124D01*
X98211083Y-75603253D01*
X98207107Y-75601961D01*
X98192661Y-75606655D01*
X98177759Y-75606229D01*
X98171649Y-75607107D01*
X96222945Y-75607107D01*
X96222945Y-75606688D01*
X96222151Y-75606849D01*
X96207107Y-75601961D01*
X96205243Y-75602567D01*
X96184023Y-75604533D01*
X96184022Y-75604533D01*
X96009912Y-75620667D01*
X96004117Y-75621204D01*
X95998520Y-75622796D01*
X95998517Y-75622797D01*
X95906078Y-75649099D01*
X95808039Y-75676993D01*
X95802828Y-75679588D01*
X95774089Y-75693898D01*
X95717926Y-75707107D01*
X93696288Y-75707107D01*
X93640125Y-75693898D01*
X93611386Y-75679588D01*
X93606175Y-75676993D01*
X93508136Y-75649099D01*
X93415697Y-75622797D01*
X93415694Y-75622796D01*
X93410097Y-75621204D01*
X93208971Y-75602567D01*
X93207107Y-75601961D01*
X93192670Y-75606652D01*
X93177788Y-75606224D01*
X93171649Y-75607107D01*
X91222945Y-75607107D01*
X91222945Y-75606688D01*
X91222151Y-75606849D01*
X91207107Y-75601961D01*
X91203131Y-75603253D01*
X91015364Y-75619680D01*
X90892667Y-75652557D01*
X90834758Y-75668073D01*
X90834756Y-75668074D01*
X90829448Y-75669496D01*
X90824468Y-75671818D01*
X90824466Y-75671819D01*
X90659987Y-75748517D01*
X90659984Y-75748519D01*
X90655006Y-75750840D01*
X90497339Y-75861239D01*
X90361239Y-75997339D01*
X90250840Y-76155006D01*
X90169496Y-76329448D01*
X90119680Y-76515364D01*
X90119201Y-76520843D01*
X90105124Y-76681739D01*
X90105124Y-76681741D01*
X90103253Y-76703131D01*
X90101961Y-76707107D01*
X90106655Y-76721553D01*
X90106229Y-76736455D01*
X90107107Y-76742565D01*
X90107107Y-87091269D01*
X90106688Y-87091269D01*
X90106849Y-87092063D01*
X90101961Y-87107107D01*
X70600000Y-87107107D01*
X70600000Y-65807107D01*
X90101961Y-65807107D01*
X90103253Y-65811083D01*
X90119680Y-65998850D01*
X90169496Y-66184766D01*
X90250840Y-66359208D01*
X90361239Y-66516875D01*
X90497339Y-66652975D01*
X90655006Y-66763374D01*
X90659984Y-66765695D01*
X90659987Y-66765697D01*
X90824466Y-66842395D01*
X90829448Y-66844718D01*
X90834756Y-66846140D01*
X90834758Y-66846141D01*
X90892667Y-66861657D01*
X91015364Y-66894534D01*
X91085358Y-66900657D01*
X91181739Y-66909090D01*
X91181741Y-66909090D01*
X91203131Y-66910961D01*
X91207107Y-66912253D01*
X91221553Y-66907559D01*
X91236455Y-66907985D01*
X91242565Y-66907107D01*
X98191269Y-66907107D01*
X98191269Y-66907526D01*
X98192063Y-66907365D01*
X98207107Y-66912253D01*
X98211083Y-66910961D01*
X98398850Y-66894534D01*
X98521547Y-66861657D01*
X98579456Y-66846141D01*
X98579458Y-66846140D01*
X98584766Y-66844718D01*
X98589748Y-66842395D01*
X98754227Y-66765697D01*
X98754230Y-66765695D01*
X98759208Y-66763374D01*
X98916875Y-66652975D01*
X99052975Y-66516875D01*
X99163374Y-66359208D01*
X99244718Y-66184766D01*
X99294534Y-65998850D01*
X99300657Y-65928856D01*
X99309090Y-65832475D01*
X99309090Y-65832473D01*
X99310961Y-65811083D01*
X99312253Y-65807107D01*
X115101961Y-65807107D01*
X115103253Y-65811083D01*
X115119680Y-65998850D01*
X115169496Y-66184766D01*
X115250840Y-66359208D01*
X115361239Y-66516875D01*
X115497339Y-66652975D01*
X115655006Y-66763374D01*
X115659984Y-66765695D01*
X115659987Y-66765697D01*
X115824466Y-66842395D01*
X115829448Y-66844718D01*
X115834756Y-66846140D01*
X115834758Y-66846141D01*
X115892667Y-66861657D01*
X116015364Y-66894534D01*
X116085358Y-66900657D01*
X116181739Y-66909090D01*
X116181741Y-66909090D01*
X116203131Y-66910961D01*
X116207107Y-66912253D01*
X116221553Y-66907559D01*
X116236455Y-66907985D01*
X116242565Y-66907107D01*
X123191269Y-66907107D01*
X123191269Y-66907526D01*
X123192063Y-66907365D01*
X123207107Y-66912253D01*
X123211083Y-66910961D01*
X123398850Y-66894534D01*
X123521547Y-66861657D01*
X123579456Y-66846141D01*
X123579458Y-66846140D01*
X123584766Y-66844718D01*
X123589748Y-66842395D01*
X123754227Y-66765697D01*
X123754230Y-66765695D01*
X123759208Y-66763374D01*
X123916875Y-66652975D01*
X124052975Y-66516875D01*
X124163374Y-66359208D01*
X124244718Y-66184766D01*
X124294534Y-65998850D01*
X124300657Y-65928856D01*
X124309090Y-65832475D01*
X124309090Y-65832473D01*
X124310961Y-65811083D01*
X124312253Y-65807107D01*
X140101961Y-65807107D01*
X140103253Y-65811083D01*
X140119680Y-65998850D01*
X140169496Y-66184766D01*
X140250840Y-66359208D01*
X140361239Y-66516875D01*
X140497339Y-66652975D01*
X140655006Y-66763374D01*
X140659984Y-66765695D01*
X140659987Y-66765697D01*
X140824466Y-66842395D01*
X140829448Y-66844718D01*
X140834756Y-66846140D01*
X140834758Y-66846141D01*
X140892667Y-66861657D01*
X141015364Y-66894534D01*
X141085358Y-66900657D01*
X141181739Y-66909090D01*
X141181741Y-66909090D01*
X141203131Y-66910961D01*
X141207107Y-66912253D01*
X141221553Y-66907559D01*
X141236455Y-66907985D01*
X141242565Y-66907107D01*
X148191269Y-66907107D01*
X148191269Y-66907526D01*
X148192063Y-66907365D01*
X148207107Y-66912253D01*
X148211083Y-66910961D01*
X148398850Y-66894534D01*
X148521547Y-66861657D01*
X148579456Y-66846141D01*
X148579458Y-66846140D01*
X148584766Y-66844718D01*
X148589748Y-66842395D01*
X148754227Y-66765697D01*
X148754230Y-66765695D01*
X148759208Y-66763374D01*
X148916875Y-66652975D01*
X149052975Y-66516875D01*
X149163374Y-66359208D01*
X149244718Y-66184766D01*
X149294534Y-65998850D01*
X149300657Y-65928856D01*
X149309090Y-65832475D01*
X149309090Y-65832473D01*
X149310961Y-65811083D01*
X149312253Y-65807107D01*
X165101961Y-65807107D01*
X165103253Y-65811083D01*
X165119680Y-65998850D01*
X165169496Y-66184766D01*
X165250840Y-66359208D01*
X165361239Y-66516875D01*
X165497339Y-66652975D01*
X165655006Y-66763374D01*
X165659984Y-66765695D01*
X165659987Y-66765697D01*
X165824466Y-66842395D01*
X165829448Y-66844718D01*
X165834756Y-66846140D01*
X165834758Y-66846141D01*
X165892667Y-66861657D01*
X166015364Y-66894534D01*
X166085358Y-66900657D01*
X166181739Y-66909090D01*
X166181741Y-66909090D01*
X166203131Y-66910961D01*
X166207107Y-66912253D01*
X166221553Y-66907559D01*
X166236455Y-66907985D01*
X166242565Y-66907107D01*
X173191269Y-66907107D01*
X173191269Y-66907526D01*
X173192063Y-66907365D01*
X173207107Y-66912253D01*
X173211083Y-66910961D01*
X173398850Y-66894534D01*
X173521547Y-66861657D01*
X173579456Y-66846141D01*
X173579458Y-66846140D01*
X173584766Y-66844718D01*
X173589748Y-66842395D01*
X173754227Y-66765697D01*
X173754230Y-66765695D01*
X173759208Y-66763374D01*
X173916875Y-66652975D01*
X174052975Y-66516875D01*
X174163374Y-66359208D01*
X174244718Y-66184766D01*
X174294534Y-65998850D01*
X174300657Y-65928856D01*
X174309090Y-65832475D01*
X174309090Y-65832473D01*
X174310961Y-65811083D01*
X174312253Y-65807107D01*
X174307559Y-65792661D01*
X174307985Y-65777759D01*
X174307107Y-65771649D01*
X174307107Y-55422945D01*
X174307526Y-55422945D01*
X174307365Y-55422151D01*
X174312253Y-55407107D01*
X174310961Y-55403131D01*
X174294534Y-55215364D01*
X174244718Y-55029448D01*
X174163374Y-54855006D01*
X174052975Y-54697339D01*
X173916875Y-54561239D01*
X173759208Y-54450840D01*
X173754230Y-54448519D01*
X173754227Y-54448517D01*
X173589748Y-54371819D01*
X173589746Y-54371818D01*
X173584766Y-54369496D01*
X173579458Y-54368074D01*
X173579456Y-54368073D01*
X173521547Y-54352557D01*
X173398850Y-54319680D01*
X173328856Y-54313557D01*
X173232475Y-54305124D01*
X173232473Y-54305124D01*
X173211083Y-54303253D01*
X173207107Y-54301961D01*
X173192661Y-54306655D01*
X173177759Y-54306229D01*
X173171649Y-54307107D01*
X171222945Y-54307107D01*
X171222945Y-54306688D01*
X171222151Y-54306849D01*
X171207107Y-54301961D01*
X171205243Y-54302567D01*
X171184023Y-54304533D01*
X171184022Y-54304533D01*
X171009912Y-54320667D01*
X171004117Y-54321204D01*
X170998520Y-54322796D01*
X170998517Y-54322797D01*
X170906078Y-54349098D01*
X170808039Y-54376993D01*
X170802828Y-54379588D01*
X170774089Y-54393898D01*
X170717926Y-54407107D01*
X168696288Y-54407107D01*
X168640125Y-54393898D01*
X168611386Y-54379588D01*
X168606175Y-54376993D01*
X168508136Y-54349098D01*
X168415697Y-54322797D01*
X168415694Y-54322796D01*
X168410097Y-54321204D01*
X168208971Y-54302567D01*
X168207107Y-54301961D01*
X168192670Y-54306652D01*
X168177788Y-54306224D01*
X168171649Y-54307107D01*
X166222945Y-54307107D01*
X166222945Y-54306688D01*
X166222151Y-54306849D01*
X166207107Y-54301961D01*
X166203131Y-54303253D01*
X166015364Y-54319680D01*
X165892667Y-54352557D01*
X165834758Y-54368073D01*
X165834756Y-54368074D01*
X165829448Y-54369496D01*
X165824468Y-54371818D01*
X165824466Y-54371819D01*
X165659987Y-54448517D01*
X165659984Y-54448519D01*
X165655006Y-54450840D01*
X165497339Y-54561239D01*
X165361239Y-54697339D01*
X165250840Y-54855006D01*
X165169496Y-55029448D01*
X165119680Y-55215364D01*
X165119201Y-55220843D01*
X165105124Y-55381739D01*
X165105124Y-55381741D01*
X165103253Y-55403131D01*
X165101961Y-55407107D01*
X165106655Y-55421553D01*
X165106229Y-55436455D01*
X165107107Y-55442565D01*
X165107107Y-65791269D01*
X165106688Y-65791269D01*
X165106849Y-65792063D01*
X165101961Y-65807107D01*
X149312253Y-65807107D01*
X149307559Y-65792661D01*
X149307985Y-65777759D01*
X149307107Y-65771649D01*
X149307107Y-55422945D01*
X149307526Y-55422945D01*
X149307365Y-55422151D01*
X149312253Y-55407107D01*
X149310961Y-55403131D01*
X149294534Y-55215364D01*
X149244718Y-55029448D01*
X149163374Y-54855006D01*
X149052975Y-54697339D01*
X148916875Y-54561239D01*
X148759208Y-54450840D01*
X148754230Y-54448519D01*
X148754227Y-54448517D01*
X148589748Y-54371819D01*
X148589746Y-54371818D01*
X148584766Y-54369496D01*
X148579458Y-54368074D01*
X148579456Y-54368073D01*
X148521547Y-54352557D01*
X148398850Y-54319680D01*
X148328856Y-54313557D01*
X148232475Y-54305124D01*
X148232473Y-54305124D01*
X148211083Y-54303253D01*
X148207107Y-54301961D01*
X148192661Y-54306655D01*
X148177759Y-54306229D01*
X148171649Y-54307107D01*
X146222945Y-54307107D01*
X146222945Y-54306688D01*
X146222151Y-54306849D01*
X146207107Y-54301961D01*
X146205243Y-54302567D01*
X146184023Y-54304533D01*
X146184022Y-54304533D01*
X146009912Y-54320667D01*
X146004117Y-54321204D01*
X145998520Y-54322796D01*
X145998517Y-54322797D01*
X145906078Y-54349098D01*
X145808039Y-54376993D01*
X145802828Y-54379588D01*
X145774089Y-54393898D01*
X145717926Y-54407107D01*
X143696288Y-54407107D01*
X143640125Y-54393898D01*
X143611386Y-54379588D01*
X143606175Y-54376993D01*
X143508136Y-54349098D01*
X143415697Y-54322797D01*
X143415694Y-54322796D01*
X143410097Y-54321204D01*
X143208971Y-54302567D01*
X143207107Y-54301961D01*
X143192670Y-54306652D01*
X143177788Y-54306224D01*
X143171649Y-54307107D01*
X141222945Y-54307107D01*
X141222945Y-54306688D01*
X141222151Y-54306849D01*
X141207107Y-54301961D01*
X141203131Y-54303253D01*
X141015364Y-54319680D01*
X140892667Y-54352557D01*
X140834758Y-54368073D01*
X140834756Y-54368074D01*
X140829448Y-54369496D01*
X140824468Y-54371818D01*
X140824466Y-54371819D01*
X140659987Y-54448517D01*
X140659984Y-54448519D01*
X140655006Y-54450840D01*
X140497339Y-54561239D01*
X140361239Y-54697339D01*
X140250840Y-54855006D01*
X140169496Y-55029448D01*
X140119680Y-55215364D01*
X140119201Y-55220843D01*
X140105124Y-55381739D01*
X140105124Y-55381741D01*
X140103253Y-55403131D01*
X140101961Y-55407107D01*
X140106655Y-55421553D01*
X140106229Y-55436455D01*
X140107107Y-55442565D01*
X140107107Y-65791269D01*
X140106688Y-65791269D01*
X140106849Y-65792063D01*
X140101961Y-65807107D01*
X124312253Y-65807107D01*
X124307559Y-65792661D01*
X124307985Y-65777759D01*
X124307107Y-65771649D01*
X124307107Y-55422945D01*
X124307526Y-55422945D01*
X124307365Y-55422151D01*
X124312253Y-55407107D01*
X124310961Y-55403131D01*
X124294534Y-55215364D01*
X124244718Y-55029448D01*
X124163374Y-54855006D01*
X124052975Y-54697339D01*
X123916875Y-54561239D01*
X123759208Y-54450840D01*
X123754230Y-54448519D01*
X123754227Y-54448517D01*
X123589748Y-54371819D01*
X123589746Y-54371818D01*
X123584766Y-54369496D01*
X123579458Y-54368074D01*
X123579456Y-54368073D01*
X123521547Y-54352557D01*
X123398850Y-54319680D01*
X123328856Y-54313557D01*
X123232475Y-54305124D01*
X123232473Y-54305124D01*
X123211083Y-54303253D01*
X123207107Y-54301961D01*
X123192661Y-54306655D01*
X123177759Y-54306229D01*
X123171649Y-54307107D01*
X121222945Y-54307107D01*
X121222945Y-54306688D01*
X121222151Y-54306849D01*
X121207107Y-54301961D01*
X121205243Y-54302567D01*
X121184023Y-54304533D01*
X121184022Y-54304533D01*
X121009912Y-54320667D01*
X121004117Y-54321204D01*
X120998520Y-54322796D01*
X120998517Y-54322797D01*
X120906078Y-54349098D01*
X120808039Y-54376993D01*
X120802828Y-54379588D01*
X120774089Y-54393898D01*
X120717926Y-54407107D01*
X118696288Y-54407107D01*
X118640125Y-54393898D01*
X118611386Y-54379588D01*
X118606175Y-54376993D01*
X118508136Y-54349098D01*
X118415697Y-54322797D01*
X118415694Y-54322796D01*
X118410097Y-54321204D01*
X118208971Y-54302567D01*
X118207107Y-54301961D01*
X118192670Y-54306652D01*
X118177788Y-54306224D01*
X118171649Y-54307107D01*
X116222945Y-54307107D01*
X116222945Y-54306688D01*
X116222151Y-54306849D01*
X116207107Y-54301961D01*
X116203131Y-54303253D01*
X116015364Y-54319680D01*
X115892667Y-54352557D01*
X115834758Y-54368073D01*
X115834756Y-54368074D01*
X115829448Y-54369496D01*
X115824468Y-54371818D01*
X115824466Y-54371819D01*
X115659987Y-54448517D01*
X115659984Y-54448519D01*
X115655006Y-54450840D01*
X115497339Y-54561239D01*
X115361239Y-54697339D01*
X115250840Y-54855006D01*
X115169496Y-55029448D01*
X115119680Y-55215364D01*
X115119201Y-55220843D01*
X115105124Y-55381739D01*
X115105124Y-55381741D01*
X115103253Y-55403131D01*
X115101961Y-55407107D01*
X115106655Y-55421553D01*
X115106229Y-55436455D01*
X115107107Y-55442565D01*
X115107107Y-65791269D01*
X115106688Y-65791269D01*
X115106849Y-65792063D01*
X115101961Y-65807107D01*
X99312253Y-65807107D01*
X99307559Y-65792661D01*
X99307985Y-65777759D01*
X99307107Y-65771649D01*
X99307107Y-55422945D01*
X99307526Y-55422945D01*
X99307365Y-55422151D01*
X99312253Y-55407107D01*
X99310961Y-55403131D01*
X99294534Y-55215364D01*
X99244718Y-55029448D01*
X99163374Y-54855006D01*
X99052975Y-54697339D01*
X98916875Y-54561239D01*
X98759208Y-54450840D01*
X98754230Y-54448519D01*
X98754227Y-54448517D01*
X98589748Y-54371819D01*
X98589746Y-54371818D01*
X98584766Y-54369496D01*
X98579458Y-54368074D01*
X98579456Y-54368073D01*
X98521547Y-54352557D01*
X98398850Y-54319680D01*
X98328856Y-54313557D01*
X98232475Y-54305124D01*
X98232473Y-54305124D01*
X98211083Y-54303253D01*
X98207107Y-54301961D01*
X98192661Y-54306655D01*
X98177759Y-54306229D01*
X98171649Y-54307107D01*
X96222945Y-54307107D01*
X96222945Y-54306688D01*
X96222151Y-54306849D01*
X96207107Y-54301961D01*
X96205243Y-54302567D01*
X96184023Y-54304533D01*
X96184022Y-54304533D01*
X96009912Y-54320667D01*
X96004117Y-54321204D01*
X95998520Y-54322796D01*
X95998517Y-54322797D01*
X95906078Y-54349098D01*
X95808039Y-54376993D01*
X95802828Y-54379588D01*
X95774089Y-54393898D01*
X95717926Y-54407107D01*
X93696288Y-54407107D01*
X93640125Y-54393898D01*
X93611386Y-54379588D01*
X93606175Y-54376993D01*
X93508136Y-54349098D01*
X93415697Y-54322797D01*
X93415694Y-54322796D01*
X93410097Y-54321204D01*
X93208971Y-54302567D01*
X93207107Y-54301961D01*
X93192670Y-54306652D01*
X93177788Y-54306224D01*
X93171649Y-54307107D01*
X91222945Y-54307107D01*
X91222945Y-54306688D01*
X91222151Y-54306849D01*
X91207107Y-54301961D01*
X91203131Y-54303253D01*
X91015364Y-54319680D01*
X90892667Y-54352557D01*
X90834758Y-54368073D01*
X90834756Y-54368074D01*
X90829448Y-54369496D01*
X90824468Y-54371818D01*
X90824466Y-54371819D01*
X90659987Y-54448517D01*
X90659984Y-54448519D01*
X90655006Y-54450840D01*
X90497339Y-54561239D01*
X90361239Y-54697339D01*
X90250840Y-54855006D01*
X90169496Y-55029448D01*
X90119680Y-55215364D01*
X90119201Y-55220843D01*
X90105124Y-55381739D01*
X90105124Y-55381741D01*
X90103253Y-55403131D01*
X90101961Y-55407107D01*
X90106655Y-55421553D01*
X90106229Y-55436455D01*
X90107107Y-55442565D01*
X90107107Y-65791269D01*
X90106688Y-65791269D01*
X90106849Y-65792063D01*
X90101961Y-65807107D01*
X70600000Y-65807107D01*
X70600000Y-40688462D01*
X72194672Y-40688462D01*
X72194844Y-40691857D01*
X72194844Y-40691858D01*
X72212587Y-41042108D01*
X72212759Y-41045503D01*
X72213296Y-41048858D01*
X72213297Y-41048864D01*
X72252403Y-41293013D01*
X72269300Y-41398502D01*
X72363635Y-41743330D01*
X72494658Y-42075953D01*
X72496241Y-42078968D01*
X72659255Y-42389464D01*
X72659260Y-42389472D01*
X72660839Y-42392480D01*
X72860232Y-42689208D01*
X73090505Y-42962666D01*
X73348965Y-43209656D01*
X73632587Y-43427287D01*
X73635498Y-43429057D01*
X73635504Y-43429061D01*
X73772586Y-43512408D01*
X73938055Y-43613015D01*
X74261795Y-43764665D01*
X74265013Y-43765767D01*
X74265016Y-43765768D01*
X74596796Y-43879362D01*
X74596804Y-43879364D01*
X74600019Y-43880465D01*
X74948771Y-43959060D01*
X74997869Y-43964654D01*
X75300589Y-43999145D01*
X75300597Y-43999145D01*
X75303972Y-43999530D01*
X75307376Y-43999548D01*
X75307379Y-43999548D01*
X75501890Y-44000566D01*
X75661465Y-44001402D01*
X75664851Y-44001052D01*
X75664853Y-44001052D01*
X76013678Y-43965005D01*
X76013687Y-43965004D01*
X76017070Y-43964654D01*
X76020403Y-43963940D01*
X76020406Y-43963939D01*
X76128777Y-43940706D01*
X76366626Y-43889715D01*
X76706045Y-43777463D01*
X77031355Y-43629211D01*
X77126442Y-43572752D01*
X77335806Y-43448442D01*
X77335811Y-43448439D01*
X77338751Y-43446693D01*
X77364598Y-43427287D01*
X77436778Y-43373092D01*
X77624637Y-43232043D01*
X77885669Y-42987774D01*
X78118793Y-42716742D01*
X78139663Y-42686376D01*
X78319352Y-42424927D01*
X78319357Y-42424920D01*
X78321282Y-42422118D01*
X78322894Y-42419124D01*
X78322899Y-42419116D01*
X78489146Y-42110361D01*
X78490768Y-42107349D01*
X78625268Y-41776116D01*
X78633705Y-41746500D01*
X78722274Y-41435573D01*
X78723208Y-41432295D01*
X78783443Y-41079907D01*
X78785548Y-41045503D01*
X78805157Y-40724873D01*
X78805267Y-40723075D01*
X78805348Y-40700000D01*
X78804723Y-40688462D01*
X187194672Y-40688462D01*
X187194844Y-40691857D01*
X187194844Y-40691858D01*
X187212587Y-41042108D01*
X187212759Y-41045503D01*
X187213296Y-41048858D01*
X187213297Y-41048864D01*
X187252403Y-41293013D01*
X187269300Y-41398502D01*
X187363635Y-41743330D01*
X187494658Y-42075953D01*
X187496241Y-42078968D01*
X187659255Y-42389464D01*
X187659260Y-42389472D01*
X187660839Y-42392480D01*
X187860232Y-42689208D01*
X188090505Y-42962666D01*
X188348965Y-43209656D01*
X188632587Y-43427287D01*
X188635498Y-43429057D01*
X188635504Y-43429061D01*
X188772586Y-43512408D01*
X188938055Y-43613015D01*
X189261795Y-43764665D01*
X189265013Y-43765767D01*
X189265016Y-43765768D01*
X189596796Y-43879362D01*
X189596804Y-43879364D01*
X189600019Y-43880465D01*
X189948771Y-43959060D01*
X189997869Y-43964654D01*
X190300589Y-43999145D01*
X190300597Y-43999145D01*
X190303972Y-43999530D01*
X190307376Y-43999548D01*
X190307379Y-43999548D01*
X190501890Y-44000566D01*
X190661465Y-44001402D01*
X190664851Y-44001052D01*
X190664853Y-44001052D01*
X191013678Y-43965005D01*
X191013687Y-43965004D01*
X191017070Y-43964654D01*
X191020403Y-43963940D01*
X191020406Y-43963939D01*
X191128777Y-43940706D01*
X191366626Y-43889715D01*
X191706045Y-43777463D01*
X192031355Y-43629211D01*
X192126442Y-43572752D01*
X192335806Y-43448442D01*
X192335811Y-43448439D01*
X192338751Y-43446693D01*
X192364598Y-43427287D01*
X192436778Y-43373092D01*
X192624637Y-43232043D01*
X192885669Y-42987774D01*
X193118793Y-42716742D01*
X193139663Y-42686376D01*
X193319352Y-42424927D01*
X193319357Y-42424920D01*
X193321282Y-42422118D01*
X193322894Y-42419124D01*
X193322899Y-42419116D01*
X193489146Y-42110361D01*
X193490768Y-42107349D01*
X193625268Y-41776116D01*
X193633705Y-41746500D01*
X193722274Y-41435573D01*
X193723208Y-41432295D01*
X193783443Y-41079907D01*
X193785548Y-41045503D01*
X193805157Y-40724873D01*
X193805267Y-40723075D01*
X193805348Y-40700000D01*
X193786015Y-40343025D01*
X193728242Y-39990225D01*
X193632704Y-39645728D01*
X193629659Y-39638075D01*
X193501780Y-39316730D01*
X193501776Y-39316722D01*
X193500520Y-39313565D01*
X193494979Y-39303100D01*
X193334831Y-39000632D01*
X193334829Y-39000629D01*
X193333236Y-38997620D01*
X193132809Y-38701590D01*
X192901582Y-38428937D01*
X192642262Y-38182851D01*
X192639555Y-38180789D01*
X192639547Y-38180782D01*
X192478966Y-38058453D01*
X192357881Y-37966211D01*
X192051767Y-37781551D01*
X192037058Y-37774723D01*
X191730581Y-37632461D01*
X191730579Y-37632460D01*
X191727500Y-37631031D01*
X191724288Y-37629944D01*
X191724281Y-37629941D01*
X191392110Y-37517508D01*
X191392105Y-37517506D01*
X191388874Y-37516413D01*
X191039849Y-37439036D01*
X190914473Y-37425194D01*
X190687890Y-37400179D01*
X190687885Y-37400179D01*
X190684509Y-37399806D01*
X190681110Y-37399800D01*
X190681109Y-37399800D01*
X190512506Y-37399506D01*
X190327011Y-37399182D01*
X190193770Y-37413421D01*
X189974921Y-37436809D01*
X189974915Y-37436810D01*
X189971537Y-37437171D01*
X189622245Y-37513329D01*
X189283220Y-37626765D01*
X188958430Y-37776152D01*
X188955496Y-37777908D01*
X188955494Y-37777909D01*
X188949409Y-37781551D01*
X188651673Y-37959742D01*
X188366538Y-38175388D01*
X188106360Y-38420567D01*
X187874183Y-38692411D01*
X187872264Y-38695224D01*
X187872261Y-38695228D01*
X187867922Y-38701590D01*
X187672723Y-38987740D01*
X187671116Y-38990750D01*
X187671114Y-38990753D01*
X187665839Y-39000632D01*
X187504337Y-39303100D01*
X187370995Y-39634800D01*
X187274255Y-39978961D01*
X187215251Y-40331556D01*
X187194672Y-40688462D01*
X78804723Y-40688462D01*
X78786015Y-40343025D01*
X78728242Y-39990225D01*
X78632704Y-39645728D01*
X78629659Y-39638075D01*
X78501780Y-39316730D01*
X78501776Y-39316722D01*
X78500520Y-39313565D01*
X78494979Y-39303100D01*
X78334831Y-39000632D01*
X78334829Y-39000629D01*
X78333236Y-38997620D01*
X78132809Y-38701590D01*
X77901582Y-38428937D01*
X77642262Y-38182851D01*
X77639555Y-38180789D01*
X77639547Y-38180782D01*
X77478966Y-38058453D01*
X77357881Y-37966211D01*
X77051767Y-37781551D01*
X77037058Y-37774723D01*
X76730581Y-37632461D01*
X76730579Y-37632460D01*
X76727500Y-37631031D01*
X76724288Y-37629944D01*
X76724281Y-37629941D01*
X76392110Y-37517508D01*
X76392105Y-37517506D01*
X76388874Y-37516413D01*
X76039849Y-37439036D01*
X75914473Y-37425194D01*
X75687890Y-37400179D01*
X75687885Y-37400179D01*
X75684509Y-37399806D01*
X75681110Y-37399800D01*
X75681109Y-37399800D01*
X75512506Y-37399506D01*
X75327011Y-37399182D01*
X75193770Y-37413421D01*
X74974921Y-37436809D01*
X74974915Y-37436810D01*
X74971537Y-37437171D01*
X74622245Y-37513329D01*
X74283220Y-37626765D01*
X73958430Y-37776152D01*
X73955496Y-37777908D01*
X73955494Y-37777909D01*
X73949409Y-37781551D01*
X73651673Y-37959742D01*
X73366538Y-38175388D01*
X73106360Y-38420567D01*
X72874183Y-38692411D01*
X72872264Y-38695224D01*
X72872261Y-38695228D01*
X72867922Y-38701590D01*
X72672723Y-38987740D01*
X72671116Y-38990750D01*
X72671114Y-38990753D01*
X72665839Y-39000632D01*
X72504337Y-39303100D01*
X72370995Y-39634800D01*
X72274255Y-39978961D01*
X72215251Y-40331556D01*
X72194672Y-40688462D01*
X70600000Y-40688462D01*
X70600000Y-35926000D01*
X70620002Y-35857879D01*
X70673658Y-35811386D01*
X70726000Y-35800000D01*
X195274000Y-35800000D01*
X195342121Y-35820002D01*
G37*
%TD.AperFunction*%
M02*
