M48
; DRILL file {KiCad (6.0.0)} date Tue Nov 29 13:53:09 2022
; FORMAT={-:-/ absolute / inch / decimal}
; #@! TF.CreationDate,2022-11-29T13:53:09-05:00
; #@! TF.GenerationSoftware,Kicad,Pcbnew,(6.0.0)
; #@! TF.FileFunction,Plated,1,2,PTH
FMAT,2
INCH
; #@! TA.AperFunction,Plated,PTH,ComponentDrill
T1C0.0120
; #@! TA.AperFunction,Plated,PTH,ComponentDrill
T2C0.1260
%
G90
G05
T1
X3.6893Y-2.5469
X3.6893Y-2.5706
X3.6893Y-2.5942
X3.6893Y-2.6178
X3.6893Y-2.6414
X3.6893Y-3.5312
X3.6893Y-3.5548
X3.6893Y-3.5784
X3.6893Y-3.6021
X3.6893Y-3.6257
X3.6893Y-4.5154
X3.6893Y-4.5391
X3.6893Y-4.5627
X3.6893Y-4.5863
X3.6893Y-4.6099
X3.7051Y-2.5233
X3.7051Y-3.5076
X3.7051Y-4.4918
X3.709Y-2.4958
X3.709Y-3.48
X3.709Y-4.4643
X3.7307Y-2.5233
X3.7307Y-3.5076
X3.7307Y-4.4918
X3.7326Y-2.4958
X3.7326Y-3.48
X3.7326Y-4.4643
X3.7562Y-2.4958
X3.7562Y-2.5233
X3.7562Y-2.6178
X3.7562Y-2.6414
X3.7562Y-3.48
X3.7562Y-3.5076
X3.7562Y-3.6021
X3.7562Y-3.6257
X3.7562Y-4.4643
X3.7562Y-4.4918
X3.7562Y-4.5863
X3.7562Y-4.6099
X3.7799Y-2.4958
X3.7799Y-2.5233
X3.7799Y-2.6178
X3.7799Y-2.6414
X3.7799Y-3.48
X3.7799Y-3.5076
X3.7799Y-3.6021
X3.7799Y-3.6257
X3.7799Y-4.4643
X3.7799Y-4.4918
X3.7799Y-4.5863
X3.7799Y-4.6099
X3.8035Y-2.4958
X3.8035Y-3.48
X3.8035Y-4.4643
X3.8055Y-2.5233
X3.8055Y-3.5076
X3.8055Y-4.4918
X3.8271Y-2.4958
X3.8271Y-3.48
X3.8271Y-4.4643
X3.831Y-2.5233
X3.831Y-3.5076
X3.831Y-4.4918
X3.8468Y-2.5469
X3.8468Y-2.5706
X3.8468Y-2.5942
X3.8468Y-2.6178
X3.8468Y-2.6414
X3.8468Y-3.5312
X3.8468Y-3.5548
X3.8468Y-3.5784
X3.8468Y-3.6021
X3.8468Y-3.6257
X3.8468Y-4.5154
X3.8468Y-4.5391
X3.8468Y-4.5627
X3.8468Y-4.5863
X3.8468Y-4.6099
X4.6736Y-2.5469
X4.6736Y-2.5706
X4.6736Y-2.5942
X4.6736Y-2.6178
X4.6736Y-2.6414
X4.6736Y-3.5312
X4.6736Y-3.5548
X4.6736Y-3.5784
X4.6736Y-3.6021
X4.6736Y-3.6257
X4.6736Y-4.5154
X4.6736Y-4.5391
X4.6736Y-4.5627
X4.6736Y-4.5863
X4.6736Y-4.6099
X4.6893Y-2.5233
X4.6893Y-3.5076
X4.6893Y-4.4918
X4.6933Y-2.4958
X4.6933Y-3.48
X4.6933Y-4.4643
X4.7149Y-2.5233
X4.7149Y-3.5076
X4.7149Y-4.4918
X4.7169Y-2.4958
X4.7169Y-3.48
X4.7169Y-4.4643
X4.7405Y-2.4958
X4.7405Y-2.5233
X4.7405Y-2.6178
X4.7405Y-2.6414
X4.7405Y-3.48
X4.7405Y-3.5076
X4.7405Y-3.6021
X4.7405Y-3.6257
X4.7405Y-4.4643
X4.7405Y-4.4918
X4.7405Y-4.5863
X4.7405Y-4.6099
X4.7641Y-2.4958
X4.7641Y-2.5233
X4.7641Y-2.6178
X4.7641Y-2.6414
X4.7641Y-3.48
X4.7641Y-3.5076
X4.7641Y-3.6021
X4.7641Y-3.6257
X4.7641Y-4.4643
X4.7641Y-4.4918
X4.7641Y-4.5863
X4.7641Y-4.6099
X4.7877Y-2.4958
X4.7877Y-3.48
X4.7877Y-4.4643
X4.7897Y-2.5233
X4.7897Y-3.5076
X4.7897Y-4.4918
X4.8114Y-2.4958
X4.8114Y-3.48
X4.8114Y-4.4643
X4.8153Y-2.5233
X4.8153Y-3.5076
X4.8153Y-4.4918
X4.831Y-2.5469
X4.831Y-2.5706
X4.831Y-2.5942
X4.831Y-2.6178
X4.831Y-2.6414
X4.831Y-3.5312
X4.831Y-3.5548
X4.831Y-3.5784
X4.831Y-3.6021
X4.831Y-3.6257
X4.831Y-4.5154
X4.831Y-4.5391
X4.831Y-4.5627
X4.831Y-4.5863
X4.831Y-4.6099
X5.6578Y-2.5469
X5.6578Y-2.5706
X5.6578Y-2.5942
X5.6578Y-2.6178
X5.6578Y-2.6414
X5.6578Y-3.5312
X5.6578Y-3.5548
X5.6578Y-3.5784
X5.6578Y-3.6021
X5.6578Y-3.6257
X5.6578Y-4.5154
X5.6578Y-4.5391
X5.6578Y-4.5627
X5.6578Y-4.5863
X5.6578Y-4.6099
X5.6736Y-2.5233
X5.6736Y-3.5076
X5.6736Y-4.4918
X5.6775Y-2.4958
X5.6775Y-3.48
X5.6775Y-4.4643
X5.6992Y-2.5233
X5.6992Y-3.5076
X5.6992Y-4.4918
X5.7011Y-2.4958
X5.7011Y-3.48
X5.7011Y-4.4643
X5.7247Y-2.4958
X5.7247Y-2.5233
X5.7247Y-2.6178
X5.7247Y-2.6414
X5.7247Y-3.48
X5.7247Y-3.5076
X5.7247Y-3.6021
X5.7247Y-3.6257
X5.7247Y-4.4643
X5.7247Y-4.4918
X5.7247Y-4.5863
X5.7247Y-4.6099
X5.7484Y-2.4958
X5.7484Y-2.5233
X5.7484Y-2.6178
X5.7484Y-2.6414
X5.7484Y-3.48
X5.7484Y-3.5076
X5.7484Y-3.6021
X5.7484Y-3.6257
X5.7484Y-4.4643
X5.7484Y-4.4918
X5.7484Y-4.5863
X5.7484Y-4.6099
X5.772Y-2.4958
X5.772Y-3.48
X5.772Y-4.4643
X5.774Y-2.5233
X5.774Y-3.5076
X5.774Y-4.4918
X5.7956Y-2.4958
X5.7956Y-3.48
X5.7956Y-4.4643
X5.7996Y-2.5233
X5.7996Y-3.5076
X5.7996Y-4.4918
X5.8153Y-2.5469
X5.8153Y-2.5706
X5.8153Y-2.5942
X5.8153Y-2.6178
X5.8153Y-2.6414
X5.8153Y-3.5312
X5.8153Y-3.5548
X5.8153Y-3.5784
X5.8153Y-3.6021
X5.8153Y-3.6257
X5.8153Y-4.5154
X5.8153Y-4.5391
X5.8153Y-4.5627
X5.8153Y-4.5863
X5.8153Y-4.6099
X6.6421Y-2.5469
X6.6421Y-2.5706
X6.6421Y-2.5942
X6.6421Y-2.6178
X6.6421Y-2.6414
X6.6421Y-3.5312
X6.6421Y-3.5548
X6.6421Y-3.5784
X6.6421Y-3.6021
X6.6421Y-3.6257
X6.6421Y-4.5154
X6.6421Y-4.5391
X6.6421Y-4.5627
X6.6421Y-4.5863
X6.6421Y-4.6099
X6.6578Y-2.5233
X6.6578Y-3.5076
X6.6578Y-4.4918
X6.6618Y-2.4958
X6.6618Y-3.48
X6.6618Y-4.4643
X6.6834Y-2.5233
X6.6834Y-3.5076
X6.6834Y-4.4918
X6.6854Y-2.4958
X6.6854Y-3.48
X6.6854Y-4.4643
X6.709Y-2.4958
X6.709Y-2.5233
X6.709Y-2.6178
X6.709Y-2.6414
X6.709Y-3.48
X6.709Y-3.5076
X6.709Y-3.6021
X6.709Y-3.6257
X6.709Y-4.4643
X6.709Y-4.4918
X6.709Y-4.5863
X6.709Y-4.6099
X6.7326Y-2.4958
X6.7326Y-2.5233
X6.7326Y-2.6178
X6.7326Y-2.6414
X6.7326Y-3.48
X6.7326Y-3.5076
X6.7326Y-3.6021
X6.7326Y-3.6257
X6.7326Y-4.4643
X6.7326Y-4.4918
X6.7326Y-4.5863
X6.7326Y-4.6099
X6.7562Y-2.4958
X6.7562Y-3.48
X6.7562Y-4.4643
X6.7582Y-2.5233
X6.7582Y-3.5076
X6.7582Y-4.4918
X6.7799Y-2.4958
X6.7799Y-3.48
X6.7799Y-4.4643
X6.7838Y-2.5233
X6.7838Y-3.5076
X6.7838Y-4.4918
X6.7996Y-2.5469
X6.7996Y-2.5706
X6.7996Y-2.5942
X6.7996Y-2.6178
X6.7996Y-2.6414
X6.7996Y-3.5312
X6.7996Y-3.5548
X6.7996Y-3.5784
X6.7996Y-3.6021
X6.7996Y-3.6257
X6.7996Y-4.5154
X6.7996Y-4.5391
X6.7996Y-4.5627
X6.7996Y-4.5863
X6.7996Y-4.6099
T2
X2.9724Y-1.6024
X2.9724Y-5.5394
X7.5Y-1.6024
X7.5Y-5.5394
T0
M30
