%TF.GenerationSoftware,KiCad,Pcbnew,(6.0.0)*%
%TF.CreationDate,2022-03-28T07:48:23-07:00*%
%TF.ProjectId,pupdrive-eib24_panel,70757064-7269-4766-952d-65696232345f,A*%
%TF.SameCoordinates,Original*%
%TF.FileFunction,Legend,Top*%
%TF.FilePolarity,Positive*%
%FSLAX46Y46*%
G04 Gerber Fmt 4.6, Leading zero omitted, Abs format (unit mm)*
G04 Created by KiCad (PCBNEW (6.0.0)) date 2022-03-28 07:48:23*
%MOMM*%
%LPD*%
G01*
G04 APERTURE LIST*
%ADD10C,0.120000*%
%ADD11C,0.100000*%
%ADD12C,0.300000*%
%ADD13C,0.150000*%
G04 APERTURE END LIST*
D10*
X144007107Y-56607107D02*
X144107107Y-56807107D01*
X119107107Y-99207107D02*
X119207107Y-99407107D01*
X93207107Y-81357107D02*
X93007107Y-81557107D01*
X145407107Y-77907107D02*
X145307107Y-78107107D01*
X142807107Y-98107107D02*
X142907107Y-97907107D01*
X96207107Y-121357107D02*
X96207107Y-119657107D01*
X145207107Y-99407107D02*
X145307107Y-99207107D01*
X96607107Y-98107107D02*
X96507107Y-97907107D01*
X171207107Y-81357107D02*
X171207107Y-79657107D01*
X96207107Y-79657107D02*
X96407107Y-79457107D01*
X171507107Y-77907107D02*
X170407107Y-77907107D01*
X121507107Y-117907107D02*
X120407107Y-117907107D01*
X168207107Y-121357107D02*
X168007107Y-121557107D01*
X95407107Y-56607107D02*
X95307107Y-56807107D01*
X168007107Y-58157107D02*
X168207107Y-58357107D01*
X94107107Y-79207107D02*
X94207107Y-79407107D01*
X171507107Y-97907107D02*
X170407107Y-97907107D01*
X145407107Y-117907107D02*
X145307107Y-118107107D01*
X119107107Y-79207107D02*
X119207107Y-79407107D01*
X96607107Y-118107107D02*
X96507107Y-117907107D01*
X96407107Y-121557107D02*
X96207107Y-121357107D01*
X142807107Y-56807107D02*
X142907107Y-56607107D01*
X121607107Y-98107107D02*
X121507107Y-97907107D01*
X94207107Y-79407107D02*
X95207107Y-79407107D01*
X146607107Y-78107107D02*
X146507107Y-77907107D01*
X121407107Y-121557107D02*
X121207107Y-121357107D01*
X142907107Y-56607107D02*
X144007107Y-56607107D01*
X121207107Y-99657107D02*
X121407107Y-99457107D01*
X95407107Y-117907107D02*
X95307107Y-118107107D01*
X146407107Y-121557107D02*
X146207107Y-121357107D01*
X144207107Y-119407107D02*
X145207107Y-119407107D01*
X118207107Y-101357107D02*
X118007107Y-101557107D01*
X120207107Y-79407107D02*
X120307107Y-79207107D01*
X145407107Y-56607107D02*
X145307107Y-56807107D01*
X120407107Y-56607107D02*
X120307107Y-56807107D01*
X146407107Y-81557107D02*
X146207107Y-81357107D01*
X92807107Y-56807107D02*
X92907107Y-56607107D01*
X96507107Y-77907107D02*
X95407107Y-77907107D01*
X118207107Y-99657107D02*
X118207107Y-101357107D01*
X119007107Y-77907107D02*
X119107107Y-78107107D01*
X169207107Y-99407107D02*
X170207107Y-99407107D01*
X92807107Y-98107107D02*
X92907107Y-97907107D01*
X94007107Y-97907107D02*
X94107107Y-98107107D01*
X169207107Y-58107107D02*
X170207107Y-58107107D01*
X92907107Y-97907107D02*
X94007107Y-97907107D01*
X146507107Y-77907107D02*
X145407107Y-77907107D01*
X117807107Y-118107107D02*
X117907107Y-117907107D01*
X146207107Y-79657107D02*
X146407107Y-79457107D01*
X117807107Y-98107107D02*
X117907107Y-97907107D01*
X121507107Y-97907107D02*
X120407107Y-97907107D01*
X171207107Y-101357107D02*
X171207107Y-99657107D01*
X120407107Y-77907107D02*
X120307107Y-78107107D01*
X93207107Y-60057107D02*
X93007107Y-60257107D01*
X146507107Y-97907107D02*
X145407107Y-97907107D01*
X146207107Y-121357107D02*
X146207107Y-119657107D01*
X171507107Y-117907107D02*
X170407107Y-117907107D01*
X170407107Y-56607107D02*
X170307107Y-56807107D01*
X118207107Y-81357107D02*
X118007107Y-81557107D01*
X92807107Y-78107107D02*
X92907107Y-77907107D01*
X146207107Y-101357107D02*
X146207107Y-99657107D01*
X118007107Y-58157107D02*
X118207107Y-58357107D01*
X143007107Y-99457107D02*
X143207107Y-99657107D01*
X167807107Y-56807107D02*
X167907107Y-56607107D01*
X119207107Y-119407107D02*
X120207107Y-119407107D01*
X143207107Y-121357107D02*
X143007107Y-121557107D01*
X121607107Y-56807107D02*
X121507107Y-56607107D01*
X145207107Y-119407107D02*
X145307107Y-119207107D01*
X93007107Y-58157107D02*
X93207107Y-58357107D01*
X119007107Y-97907107D02*
X119107107Y-98107107D01*
X143007107Y-58157107D02*
X143207107Y-58357107D01*
X168207107Y-99657107D02*
X168207107Y-101357107D01*
X142807107Y-78107107D02*
X142907107Y-77907107D01*
X167807107Y-118107107D02*
X167907107Y-117907107D01*
X93007107Y-79457107D02*
X93207107Y-79657107D01*
X143007107Y-79457107D02*
X143207107Y-79657107D01*
X118007107Y-99457107D02*
X118207107Y-99657107D01*
X144207107Y-58107107D02*
X145207107Y-58107107D01*
X145207107Y-58107107D02*
X145307107Y-57907107D01*
X168207107Y-79657107D02*
X168207107Y-81357107D01*
X171507107Y-56607107D02*
X170407107Y-56607107D01*
X118207107Y-60057107D02*
X118007107Y-60257107D01*
X94107107Y-119207107D02*
X94207107Y-119407107D01*
X93207107Y-119657107D02*
X93207107Y-121357107D01*
X169007107Y-117907107D02*
X169107107Y-118107107D01*
X143207107Y-60057107D02*
X143007107Y-60257107D01*
X119207107Y-58107107D02*
X120207107Y-58107107D01*
X167907107Y-77907107D02*
X169007107Y-77907107D01*
X168007107Y-99457107D02*
X168207107Y-99657107D01*
X171607107Y-78107107D02*
X171507107Y-77907107D01*
X167807107Y-98107107D02*
X167907107Y-97907107D01*
X142907107Y-117907107D02*
X144007107Y-117907107D01*
X118207107Y-121357107D02*
X118007107Y-121557107D01*
X121207107Y-79657107D02*
X121407107Y-79457107D01*
X96207107Y-119657107D02*
X96407107Y-119457107D01*
X121407107Y-81557107D02*
X121207107Y-81357107D01*
X94107107Y-57907107D02*
X94207107Y-58107107D01*
X118007107Y-119457107D02*
X118207107Y-119657107D01*
X143207107Y-58357107D02*
X143207107Y-60057107D01*
X171207107Y-119657107D02*
X171407107Y-119457107D01*
X168207107Y-58357107D02*
X168207107Y-60057107D01*
X168207107Y-60057107D02*
X168007107Y-60257107D01*
X96207107Y-58357107D02*
X96407107Y-58157107D01*
X94007107Y-77907107D02*
X94107107Y-78107107D01*
X120407107Y-117907107D02*
X120307107Y-118107107D01*
X94207107Y-119407107D02*
X95207107Y-119407107D01*
X145207107Y-79407107D02*
X145307107Y-79207107D01*
X96407107Y-60257107D02*
X96207107Y-60057107D01*
X171207107Y-79657107D02*
X171407107Y-79457107D01*
X169107107Y-99207107D02*
X169207107Y-99407107D01*
X170407107Y-97907107D02*
X170307107Y-98107107D01*
X93207107Y-79657107D02*
X93207107Y-81357107D01*
X95207107Y-58107107D02*
X95307107Y-57907107D01*
X143207107Y-119657107D02*
X143207107Y-121357107D01*
X169207107Y-119407107D02*
X170207107Y-119407107D01*
X118207107Y-79657107D02*
X118207107Y-81357107D01*
X146507107Y-56607107D02*
X145407107Y-56607107D01*
X92807107Y-118107107D02*
X92907107Y-117907107D01*
X96407107Y-101557107D02*
X96207107Y-101357107D01*
X144007107Y-117907107D02*
X144107107Y-118107107D01*
X96507107Y-117907107D02*
X95407107Y-117907107D01*
X146207107Y-58357107D02*
X146407107Y-58157107D01*
X95407107Y-77907107D02*
X95307107Y-78107107D01*
X171207107Y-121357107D02*
X171207107Y-119657107D01*
X121207107Y-119657107D02*
X121407107Y-119457107D01*
X117907107Y-56607107D02*
X119007107Y-56607107D01*
X171207107Y-60057107D02*
X171207107Y-58357107D01*
X146207107Y-119657107D02*
X146407107Y-119457107D01*
X170407107Y-117907107D02*
X170307107Y-118107107D01*
X144007107Y-77907107D02*
X144107107Y-78107107D01*
X167807107Y-78107107D02*
X167907107Y-77907107D01*
X121407107Y-60257107D02*
X121207107Y-60057107D01*
X168207107Y-101357107D02*
X168007107Y-101557107D01*
X146607107Y-56807107D02*
X146507107Y-56607107D01*
X121207107Y-58357107D02*
X121407107Y-58157107D01*
X121207107Y-121357107D02*
X121207107Y-119657107D01*
X118007107Y-79457107D02*
X118207107Y-79657107D01*
X169007107Y-77907107D02*
X169107107Y-78107107D01*
X146407107Y-60257107D02*
X146207107Y-60057107D01*
X168007107Y-119457107D02*
X168207107Y-119657107D01*
X146507107Y-117907107D02*
X145407107Y-117907107D01*
X171207107Y-99657107D02*
X171407107Y-99457107D01*
X143207107Y-79657107D02*
X143207107Y-81357107D01*
X96207107Y-99657107D02*
X96407107Y-99457107D01*
X96207107Y-101357107D02*
X96207107Y-99657107D01*
X170407107Y-77907107D02*
X170307107Y-78107107D01*
X143207107Y-99657107D02*
X143207107Y-101357107D01*
X120207107Y-119407107D02*
X120307107Y-119207107D01*
X96207107Y-81357107D02*
X96207107Y-79657107D01*
X93007107Y-119457107D02*
X93207107Y-119657107D01*
X146607107Y-98107107D02*
X146507107Y-97907107D01*
X146207107Y-99657107D02*
X146407107Y-99457107D01*
X96507107Y-56607107D02*
X95407107Y-56607107D01*
X96607107Y-78107107D02*
X96507107Y-77907107D01*
X119007107Y-117907107D02*
X119107107Y-118107107D01*
X144207107Y-99407107D02*
X145207107Y-99407107D01*
X144107107Y-79207107D02*
X144207107Y-79407107D01*
X143207107Y-101357107D02*
X143007107Y-101557107D01*
X94207107Y-99407107D02*
X95207107Y-99407107D01*
X168207107Y-81357107D02*
X168007107Y-81557107D01*
X169107107Y-57907107D02*
X169207107Y-58107107D01*
X144207107Y-79407107D02*
X145207107Y-79407107D01*
X119207107Y-79407107D02*
X120207107Y-79407107D01*
X94007107Y-56607107D02*
X94107107Y-56807107D01*
X171607107Y-98107107D02*
X171507107Y-97907107D01*
X117807107Y-56807107D02*
X117907107Y-56607107D01*
X170207107Y-79407107D02*
X170307107Y-79207107D01*
X92907107Y-117907107D02*
X94007107Y-117907107D01*
X119107107Y-119207107D02*
X119207107Y-119407107D01*
X167907107Y-97907107D02*
X169007107Y-97907107D01*
X168007107Y-79457107D02*
X168207107Y-79657107D01*
X169207107Y-79407107D02*
X170207107Y-79407107D01*
X121407107Y-101557107D02*
X121207107Y-101357107D01*
X117907107Y-117907107D02*
X119007107Y-117907107D01*
X146207107Y-81357107D02*
X146207107Y-79657107D01*
X92907107Y-56607107D02*
X94007107Y-56607107D01*
X142807107Y-118107107D02*
X142907107Y-117907107D01*
X96407107Y-81557107D02*
X96207107Y-81357107D01*
X96207107Y-60057107D02*
X96207107Y-58357107D01*
X95207107Y-99407107D02*
X95307107Y-99207107D01*
X93207107Y-121357107D02*
X93007107Y-121557107D01*
X144107107Y-57907107D02*
X144207107Y-58107107D01*
X143007107Y-119457107D02*
X143207107Y-119657107D01*
X144107107Y-119207107D02*
X144207107Y-119407107D01*
X94207107Y-58107107D02*
X95207107Y-58107107D01*
X142907107Y-77907107D02*
X144007107Y-77907107D01*
X146607107Y-118107107D02*
X146507107Y-117907107D01*
X146407107Y-101557107D02*
X146207107Y-101357107D01*
X121607107Y-118107107D02*
X121507107Y-117907107D01*
X117907107Y-97907107D02*
X119007107Y-97907107D01*
X117907107Y-77907107D02*
X119007107Y-77907107D01*
X94007107Y-117907107D02*
X94107107Y-118107107D01*
X167907107Y-56607107D02*
X169007107Y-56607107D01*
X121207107Y-101357107D02*
X121207107Y-99657107D01*
X95207107Y-79407107D02*
X95307107Y-79207107D01*
X96507107Y-97907107D02*
X95407107Y-97907107D01*
X94107107Y-99207107D02*
X94207107Y-99407107D01*
X119107107Y-57907107D02*
X119207107Y-58107107D01*
X171207107Y-58357107D02*
X171407107Y-58157107D01*
X170207107Y-119407107D02*
X170307107Y-119207107D01*
X121207107Y-81357107D02*
X121207107Y-79657107D01*
X171607107Y-118107107D02*
X171507107Y-117907107D01*
X171407107Y-121557107D02*
X171207107Y-121357107D01*
X119207107Y-99407107D02*
X120207107Y-99407107D01*
X96607107Y-56807107D02*
X96507107Y-56607107D01*
X120407107Y-97907107D02*
X120307107Y-98107107D01*
X168207107Y-119657107D02*
X168207107Y-121357107D01*
X169007107Y-56607107D02*
X169107107Y-56807107D01*
X169107107Y-119207107D02*
X169207107Y-119407107D01*
X118207107Y-119657107D02*
X118207107Y-121357107D01*
X171407107Y-101557107D02*
X171207107Y-101357107D01*
X144107107Y-99207107D02*
X144207107Y-99407107D01*
X95207107Y-119407107D02*
X95307107Y-119207107D01*
X145407107Y-97907107D02*
X145307107Y-98107107D01*
X117807107Y-78107107D02*
X117907107Y-77907107D01*
X171407107Y-81557107D02*
X171207107Y-81357107D01*
X93207107Y-99657107D02*
X93207107Y-101357107D01*
X171607107Y-56807107D02*
X171507107Y-56607107D01*
X121207107Y-60057107D02*
X121207107Y-58357107D01*
X92907107Y-77907107D02*
X94007107Y-77907107D01*
X171407107Y-60257107D02*
X171207107Y-60057107D01*
X169107107Y-79207107D02*
X169207107Y-79407107D01*
X120207107Y-58107107D02*
X120307107Y-57907107D01*
X169007107Y-97907107D02*
X169107107Y-98107107D01*
X121607107Y-78107107D02*
X121507107Y-77907107D01*
X93007107Y-99457107D02*
X93207107Y-99657107D01*
X121507107Y-77907107D02*
X120407107Y-77907107D01*
X144007107Y-97907107D02*
X144107107Y-98107107D01*
X93207107Y-58357107D02*
X93207107Y-60057107D01*
X120207107Y-99407107D02*
X120307107Y-99207107D01*
X170207107Y-58107107D02*
X170307107Y-57907107D01*
X170207107Y-99407107D02*
X170307107Y-99207107D01*
X118207107Y-58357107D02*
X118207107Y-60057107D01*
X143207107Y-81357107D02*
X143007107Y-81557107D01*
X146207107Y-60057107D02*
X146207107Y-58357107D01*
X121507107Y-56607107D02*
X120407107Y-56607107D01*
X119007107Y-56607107D02*
X119107107Y-56807107D01*
X93207107Y-101357107D02*
X93007107Y-101557107D01*
X95407107Y-97907107D02*
X95307107Y-98107107D01*
X142907107Y-97907107D02*
X144007107Y-97907107D01*
X167907107Y-117907107D02*
X169007107Y-117907107D01*
D11*
X168788059Y-99840440D02*
X168788059Y-99592821D01*
X168940440Y-99726154D01*
X168940440Y-99669011D01*
X168959487Y-99630916D01*
X168978535Y-99611868D01*
X169016630Y-99592821D01*
X169111868Y-99592821D01*
X169149964Y-99611868D01*
X169169011Y-99630916D01*
X169188059Y-99669011D01*
X169188059Y-99783297D01*
X169169011Y-99821392D01*
X169149964Y-99840440D01*
X118107107Y-81911869D02*
X118088059Y-81949964D01*
X118088059Y-82007107D01*
X118107107Y-82064250D01*
X118145202Y-82102345D01*
X118183297Y-82121392D01*
X118259487Y-82140440D01*
X118316630Y-82140440D01*
X118392821Y-82121392D01*
X118430916Y-82102345D01*
X118469011Y-82064250D01*
X118488059Y-82007107D01*
X118488059Y-81969011D01*
X118469011Y-81911869D01*
X118449964Y-81892821D01*
X118316630Y-81892821D01*
X118316630Y-81969011D01*
X121721392Y-78330916D02*
X121988059Y-78330916D01*
X121569011Y-78426154D02*
X121854726Y-78521392D01*
X121854726Y-78273773D01*
X96721392Y-78330916D02*
X96988059Y-78330916D01*
X96569011Y-78426154D02*
X96854726Y-78521392D01*
X96854726Y-78273773D01*
X117426154Y-78521392D02*
X117407107Y-78502345D01*
X117388059Y-78464249D01*
X117388059Y-78369011D01*
X117407107Y-78330916D01*
X117426154Y-78311868D01*
X117464249Y-78292821D01*
X117502345Y-78292821D01*
X117559487Y-78311868D01*
X117788059Y-78540440D01*
X117788059Y-78292821D01*
X93107107Y-121911869D02*
X93088059Y-121949964D01*
X93088059Y-122007107D01*
X93107107Y-122064250D01*
X93145202Y-122102345D01*
X93183297Y-122121392D01*
X93259487Y-122140440D01*
X93316630Y-122140440D01*
X93392821Y-122121392D01*
X93430916Y-122102345D01*
X93469011Y-122064250D01*
X93488059Y-122007107D01*
X93488059Y-121969011D01*
X93469011Y-121911869D01*
X93449964Y-121892821D01*
X93316630Y-121892821D01*
X93316630Y-121969011D01*
X93688059Y-81726154D02*
X93688059Y-81688059D01*
X93707107Y-81649964D01*
X93726154Y-81630916D01*
X93764249Y-81611868D01*
X93840440Y-81592821D01*
X93935678Y-81592821D01*
X94011868Y-81611868D01*
X94049964Y-81630916D01*
X94069011Y-81649964D01*
X94088059Y-81688059D01*
X94088059Y-81726154D01*
X94069011Y-81764249D01*
X94049964Y-81783297D01*
X94011868Y-81802345D01*
X93935678Y-81821392D01*
X93840440Y-81821392D01*
X93764249Y-81802345D01*
X93726154Y-81783297D01*
X93707107Y-81764249D01*
X93688059Y-81726154D01*
X145688059Y-59111868D02*
X145688059Y-59302345D01*
X145878535Y-59321392D01*
X145859487Y-59302345D01*
X145840440Y-59264249D01*
X145840440Y-59169011D01*
X145859487Y-59130916D01*
X145878535Y-59111868D01*
X145916630Y-59092821D01*
X146011868Y-59092821D01*
X146049964Y-59111868D01*
X146069011Y-59130916D01*
X146088059Y-59169011D01*
X146088059Y-59264249D01*
X146069011Y-59302345D01*
X146049964Y-59321392D01*
X93688059Y-121726154D02*
X93688059Y-121688059D01*
X93707107Y-121649964D01*
X93726154Y-121630916D01*
X93764249Y-121611868D01*
X93840440Y-121592821D01*
X93935678Y-121592821D01*
X94011868Y-121611868D01*
X94049964Y-121630916D01*
X94069011Y-121649964D01*
X94088059Y-121688059D01*
X94088059Y-121726154D01*
X94069011Y-121764249D01*
X94049964Y-121783297D01*
X94011868Y-121802345D01*
X93935678Y-121821392D01*
X93840440Y-121821392D01*
X93764249Y-121802345D01*
X93726154Y-121783297D01*
X93707107Y-121764249D01*
X93688059Y-121726154D01*
X168788059Y-100392821D02*
X168788059Y-100621392D01*
X168788059Y-100507107D02*
X168388059Y-100507107D01*
X168445202Y-100545202D01*
X168483297Y-100583297D01*
X168502345Y-100621392D01*
X93788059Y-99840440D02*
X93788059Y-99592821D01*
X93940440Y-99726154D01*
X93940440Y-99669011D01*
X93959487Y-99630916D01*
X93978535Y-99611868D01*
X94016630Y-99592821D01*
X94111868Y-99592821D01*
X94149964Y-99611868D01*
X94169011Y-99630916D01*
X94188059Y-99669011D01*
X94188059Y-99783297D01*
X94169011Y-99821392D01*
X94149964Y-99840440D01*
X93788059Y-100392821D02*
X93788059Y-100621392D01*
X93788059Y-100507107D02*
X93388059Y-100507107D01*
X93445202Y-100545202D01*
X93483297Y-100583297D01*
X93502345Y-100621392D01*
X92426154Y-78521392D02*
X92407107Y-78502345D01*
X92388059Y-78464249D01*
X92388059Y-78369011D01*
X92407107Y-78330916D01*
X92426154Y-78311868D01*
X92464249Y-78292821D01*
X92502345Y-78292821D01*
X92559487Y-78311868D01*
X92788059Y-78540440D01*
X92788059Y-78292821D01*
X168688059Y-81726154D02*
X168688059Y-81688059D01*
X168707107Y-81649964D01*
X168726154Y-81630916D01*
X168764249Y-81611868D01*
X168840440Y-81592821D01*
X168935678Y-81592821D01*
X169011868Y-81611868D01*
X169049964Y-81630916D01*
X169069011Y-81649964D01*
X169088059Y-81688059D01*
X169088059Y-81726154D01*
X169069011Y-81764249D01*
X169049964Y-81783297D01*
X169011868Y-81802345D01*
X168935678Y-81821392D01*
X168840440Y-81821392D01*
X168764249Y-81802345D01*
X168726154Y-81783297D01*
X168707107Y-81764249D01*
X168688059Y-81726154D01*
X93788059Y-59092821D02*
X93788059Y-59321392D01*
X93788059Y-59207107D02*
X93388059Y-59207107D01*
X93445202Y-59245202D01*
X93483297Y-59283297D01*
X93502345Y-59321392D01*
X143788059Y-58540440D02*
X143788059Y-58292821D01*
X143940440Y-58426154D01*
X143940440Y-58369011D01*
X143959487Y-58330916D01*
X143978535Y-58311868D01*
X144016630Y-58292821D01*
X144111868Y-58292821D01*
X144149964Y-58311868D01*
X144169011Y-58330916D01*
X144188059Y-58369011D01*
X144188059Y-58483297D01*
X144169011Y-58521392D01*
X144149964Y-58540440D01*
X117426154Y-57221392D02*
X117407107Y-57202345D01*
X117388059Y-57164249D01*
X117388059Y-57069011D01*
X117407107Y-57030916D01*
X117426154Y-57011868D01*
X117464249Y-56992821D01*
X117502345Y-56992821D01*
X117559487Y-57011868D01*
X117788059Y-57240440D01*
X117788059Y-56992821D01*
X143788059Y-100392821D02*
X143788059Y-100621392D01*
X143788059Y-100507107D02*
X143388059Y-100507107D01*
X143445202Y-100545202D01*
X143483297Y-100583297D01*
X143502345Y-100621392D01*
X142426154Y-57221392D02*
X142407107Y-57202345D01*
X142388059Y-57164249D01*
X142388059Y-57069011D01*
X142407107Y-57030916D01*
X142426154Y-57011868D01*
X142464249Y-56992821D01*
X142502345Y-56992821D01*
X142559487Y-57011868D01*
X142788059Y-57240440D01*
X142788059Y-56992821D01*
X146721392Y-78330916D02*
X146988059Y-78330916D01*
X146569011Y-78426154D02*
X146854726Y-78521392D01*
X146854726Y-78273773D01*
X168788059Y-119840440D02*
X168788059Y-119592821D01*
X168940440Y-119726154D01*
X168940440Y-119669011D01*
X168959487Y-119630916D01*
X168978535Y-119611868D01*
X169016630Y-119592821D01*
X169111868Y-119592821D01*
X169149964Y-119611868D01*
X169169011Y-119630916D01*
X169188059Y-119669011D01*
X169188059Y-119783297D01*
X169169011Y-119821392D01*
X169149964Y-119840440D01*
X121288059Y-101902821D02*
X121097583Y-102036154D01*
X121288059Y-102131392D02*
X120888059Y-102131392D01*
X120888059Y-101979011D01*
X120907107Y-101940916D01*
X120926154Y-101921869D01*
X120964249Y-101902821D01*
X121021392Y-101902821D01*
X121059487Y-101921869D01*
X121078535Y-101940916D01*
X121097583Y-101979011D01*
X121097583Y-102131392D01*
X93788059Y-80392821D02*
X93788059Y-80621392D01*
X93788059Y-80507107D02*
X93388059Y-80507107D01*
X93445202Y-80545202D01*
X93483297Y-80583297D01*
X93502345Y-80621392D01*
X118688059Y-60426154D02*
X118688059Y-60388059D01*
X118707107Y-60349964D01*
X118726154Y-60330916D01*
X118764249Y-60311868D01*
X118840440Y-60292821D01*
X118935678Y-60292821D01*
X119011868Y-60311868D01*
X119049964Y-60330916D01*
X119069011Y-60349964D01*
X119088059Y-60388059D01*
X119088059Y-60426154D01*
X119069011Y-60464249D01*
X119049964Y-60483297D01*
X119011868Y-60502345D01*
X118935678Y-60521392D01*
X118840440Y-60521392D01*
X118764249Y-60502345D01*
X118726154Y-60483297D01*
X118707107Y-60464249D01*
X118688059Y-60426154D01*
X146288059Y-81902821D02*
X146097583Y-82036154D01*
X146288059Y-82131392D02*
X145888059Y-82131392D01*
X145888059Y-81979011D01*
X145907107Y-81940916D01*
X145926154Y-81921869D01*
X145964249Y-81902821D01*
X146021392Y-81902821D01*
X146059487Y-81921869D01*
X146078535Y-81940916D01*
X146097583Y-81979011D01*
X146097583Y-82131392D01*
X146721392Y-98330916D02*
X146988059Y-98330916D01*
X146569011Y-98426154D02*
X146854726Y-98521392D01*
X146854726Y-98273773D01*
X168688059Y-60426154D02*
X168688059Y-60388059D01*
X168707107Y-60349964D01*
X168726154Y-60330916D01*
X168764249Y-60311868D01*
X168840440Y-60292821D01*
X168935678Y-60292821D01*
X169011868Y-60311868D01*
X169049964Y-60330916D01*
X169069011Y-60349964D01*
X169088059Y-60388059D01*
X169088059Y-60426154D01*
X169069011Y-60464249D01*
X169049964Y-60483297D01*
X169011868Y-60502345D01*
X168935678Y-60521392D01*
X168840440Y-60521392D01*
X168764249Y-60502345D01*
X168726154Y-60483297D01*
X168707107Y-60464249D01*
X168688059Y-60426154D01*
X142426154Y-98521392D02*
X142407107Y-98502345D01*
X142388059Y-98464249D01*
X142388059Y-98369011D01*
X142407107Y-98330916D01*
X142426154Y-98311868D01*
X142464249Y-98292821D01*
X142502345Y-98292821D01*
X142559487Y-98311868D01*
X142788059Y-98540440D01*
X142788059Y-98292821D01*
X118107107Y-121911869D02*
X118088059Y-121949964D01*
X118088059Y-122007107D01*
X118107107Y-122064250D01*
X118145202Y-122102345D01*
X118183297Y-122121392D01*
X118259487Y-122140440D01*
X118316630Y-122140440D01*
X118392821Y-122121392D01*
X118430916Y-122102345D01*
X118469011Y-122064250D01*
X118488059Y-122007107D01*
X118488059Y-121969011D01*
X118469011Y-121911869D01*
X118449964Y-121892821D01*
X118316630Y-121892821D01*
X118316630Y-121969011D01*
X120688059Y-100411868D02*
X120688059Y-100602345D01*
X120878535Y-100621392D01*
X120859487Y-100602345D01*
X120840440Y-100564249D01*
X120840440Y-100469011D01*
X120859487Y-100430916D01*
X120878535Y-100411868D01*
X120916630Y-100392821D01*
X121011868Y-100392821D01*
X121049964Y-100411868D01*
X121069011Y-100430916D01*
X121088059Y-100469011D01*
X121088059Y-100564249D01*
X121069011Y-100602345D01*
X121049964Y-100621392D01*
X168788059Y-59092821D02*
X168788059Y-59321392D01*
X168788059Y-59207107D02*
X168388059Y-59207107D01*
X168445202Y-59245202D01*
X168483297Y-59283297D01*
X168502345Y-59321392D01*
X118788059Y-58540440D02*
X118788059Y-58292821D01*
X118940440Y-58426154D01*
X118940440Y-58369011D01*
X118959487Y-58330916D01*
X118978535Y-58311868D01*
X119016630Y-58292821D01*
X119111868Y-58292821D01*
X119149964Y-58311868D01*
X119169011Y-58330916D01*
X119188059Y-58369011D01*
X119188059Y-58483297D01*
X119169011Y-58521392D01*
X119149964Y-58540440D01*
X168788059Y-58540440D02*
X168788059Y-58292821D01*
X168940440Y-58426154D01*
X168940440Y-58369011D01*
X168959487Y-58330916D01*
X168978535Y-58311868D01*
X169016630Y-58292821D01*
X169111868Y-58292821D01*
X169149964Y-58311868D01*
X169169011Y-58330916D01*
X169188059Y-58369011D01*
X169188059Y-58483297D01*
X169169011Y-58521392D01*
X169149964Y-58540440D01*
X118107107Y-60611869D02*
X118088059Y-60649964D01*
X118088059Y-60707107D01*
X118107107Y-60764250D01*
X118145202Y-60802345D01*
X118183297Y-60821392D01*
X118259487Y-60840440D01*
X118316630Y-60840440D01*
X118392821Y-60821392D01*
X118430916Y-60802345D01*
X118469011Y-60764250D01*
X118488059Y-60707107D01*
X118488059Y-60669011D01*
X118469011Y-60611869D01*
X118449964Y-60592821D01*
X118316630Y-60592821D01*
X118316630Y-60669011D01*
X92426154Y-118521392D02*
X92407107Y-118502345D01*
X92388059Y-118464249D01*
X92388059Y-118369011D01*
X92407107Y-118330916D01*
X92426154Y-118311868D01*
X92464249Y-118292821D01*
X92502345Y-118292821D01*
X92559487Y-118311868D01*
X92788059Y-118540440D01*
X92788059Y-118292821D01*
X92426154Y-98521392D02*
X92407107Y-98502345D01*
X92388059Y-98464249D01*
X92388059Y-98369011D01*
X92407107Y-98330916D01*
X92426154Y-98311868D01*
X92464249Y-98292821D01*
X92502345Y-98292821D01*
X92559487Y-98311868D01*
X92788059Y-98540440D01*
X92788059Y-98292821D01*
X171288059Y-60602821D02*
X171097583Y-60736154D01*
X171288059Y-60831392D02*
X170888059Y-60831392D01*
X170888059Y-60679011D01*
X170907107Y-60640916D01*
X170926154Y-60621869D01*
X170964249Y-60602821D01*
X171021392Y-60602821D01*
X171059487Y-60621869D01*
X171078535Y-60640916D01*
X171097583Y-60679011D01*
X171097583Y-60831392D01*
X143788059Y-80392821D02*
X143788059Y-80621392D01*
X143788059Y-80507107D02*
X143388059Y-80507107D01*
X143445202Y-80545202D01*
X143483297Y-80583297D01*
X143502345Y-80621392D01*
X168107107Y-60611869D02*
X168088059Y-60649964D01*
X168088059Y-60707107D01*
X168107107Y-60764250D01*
X168145202Y-60802345D01*
X168183297Y-60821392D01*
X168259487Y-60840440D01*
X168316630Y-60840440D01*
X168392821Y-60821392D01*
X168430916Y-60802345D01*
X168469011Y-60764250D01*
X168488059Y-60707107D01*
X168488059Y-60669011D01*
X168469011Y-60611869D01*
X168449964Y-60592821D01*
X168316630Y-60592821D01*
X168316630Y-60669011D01*
X170688059Y-59111868D02*
X170688059Y-59302345D01*
X170878535Y-59321392D01*
X170859487Y-59302345D01*
X170840440Y-59264249D01*
X170840440Y-59169011D01*
X170859487Y-59130916D01*
X170878535Y-59111868D01*
X170916630Y-59092821D01*
X171011868Y-59092821D01*
X171049964Y-59111868D01*
X171069011Y-59130916D01*
X171088059Y-59169011D01*
X171088059Y-59264249D01*
X171069011Y-59302345D01*
X171049964Y-59321392D01*
X143688059Y-60426154D02*
X143688059Y-60388059D01*
X143707107Y-60349964D01*
X143726154Y-60330916D01*
X143764249Y-60311868D01*
X143840440Y-60292821D01*
X143935678Y-60292821D01*
X144011868Y-60311868D01*
X144049964Y-60330916D01*
X144069011Y-60349964D01*
X144088059Y-60388059D01*
X144088059Y-60426154D01*
X144069011Y-60464249D01*
X144049964Y-60483297D01*
X144011868Y-60502345D01*
X143935678Y-60521392D01*
X143840440Y-60521392D01*
X143764249Y-60502345D01*
X143726154Y-60483297D01*
X143707107Y-60464249D01*
X143688059Y-60426154D01*
X168788059Y-120392821D02*
X168788059Y-120621392D01*
X168788059Y-120507107D02*
X168388059Y-120507107D01*
X168445202Y-120545202D01*
X168483297Y-120583297D01*
X168502345Y-120621392D01*
X96721392Y-57030916D02*
X96988059Y-57030916D01*
X96569011Y-57126154D02*
X96854726Y-57221392D01*
X96854726Y-56973773D01*
X143788059Y-79840440D02*
X143788059Y-79592821D01*
X143940440Y-79726154D01*
X143940440Y-79669011D01*
X143959487Y-79630916D01*
X143978535Y-79611868D01*
X144016630Y-79592821D01*
X144111868Y-79592821D01*
X144149964Y-79611868D01*
X144169011Y-79630916D01*
X144188059Y-79669011D01*
X144188059Y-79783297D01*
X144169011Y-79821392D01*
X144149964Y-79840440D01*
X167426154Y-57221392D02*
X167407107Y-57202345D01*
X167388059Y-57164249D01*
X167388059Y-57069011D01*
X167407107Y-57030916D01*
X167426154Y-57011868D01*
X167464249Y-56992821D01*
X167502345Y-56992821D01*
X167559487Y-57011868D01*
X167788059Y-57240440D01*
X167788059Y-56992821D01*
X146721392Y-118330916D02*
X146988059Y-118330916D01*
X146569011Y-118426154D02*
X146854726Y-118521392D01*
X146854726Y-118273773D01*
X118788059Y-100392821D02*
X118788059Y-100621392D01*
X118788059Y-100507107D02*
X118388059Y-100507107D01*
X118445202Y-100545202D01*
X118483297Y-100583297D01*
X118502345Y-100621392D01*
X96721392Y-98330916D02*
X96988059Y-98330916D01*
X96569011Y-98426154D02*
X96854726Y-98521392D01*
X96854726Y-98273773D01*
X121288059Y-60602821D02*
X121097583Y-60736154D01*
X121288059Y-60831392D02*
X120888059Y-60831392D01*
X120888059Y-60679011D01*
X120907107Y-60640916D01*
X120926154Y-60621869D01*
X120964249Y-60602821D01*
X121021392Y-60602821D01*
X121059487Y-60621869D01*
X121078535Y-60640916D01*
X121097583Y-60679011D01*
X121097583Y-60831392D01*
X146288059Y-101902821D02*
X146097583Y-102036154D01*
X146288059Y-102131392D02*
X145888059Y-102131392D01*
X145888059Y-101979011D01*
X145907107Y-101940916D01*
X145926154Y-101921869D01*
X145964249Y-101902821D01*
X146021392Y-101902821D01*
X146059487Y-101921869D01*
X146078535Y-101940916D01*
X146097583Y-101979011D01*
X146097583Y-102131392D01*
X170688059Y-80411868D02*
X170688059Y-80602345D01*
X170878535Y-80621392D01*
X170859487Y-80602345D01*
X170840440Y-80564249D01*
X170840440Y-80469011D01*
X170859487Y-80430916D01*
X170878535Y-80411868D01*
X170916630Y-80392821D01*
X171011868Y-80392821D01*
X171049964Y-80411868D01*
X171069011Y-80430916D01*
X171088059Y-80469011D01*
X171088059Y-80564249D01*
X171069011Y-80602345D01*
X171049964Y-80621392D01*
X171721392Y-78330916D02*
X171988059Y-78330916D01*
X171569011Y-78426154D02*
X171854726Y-78521392D01*
X171854726Y-78273773D01*
X146721392Y-57030916D02*
X146988059Y-57030916D01*
X146569011Y-57126154D02*
X146854726Y-57221392D01*
X146854726Y-56973773D01*
X96721392Y-118330916D02*
X96988059Y-118330916D01*
X96569011Y-118426154D02*
X96854726Y-118521392D01*
X96854726Y-118273773D01*
X168688059Y-121726154D02*
X168688059Y-121688059D01*
X168707107Y-121649964D01*
X168726154Y-121630916D01*
X168764249Y-121611868D01*
X168840440Y-121592821D01*
X168935678Y-121592821D01*
X169011868Y-121611868D01*
X169049964Y-121630916D01*
X169069011Y-121649964D01*
X169088059Y-121688059D01*
X169088059Y-121726154D01*
X169069011Y-121764249D01*
X169049964Y-121783297D01*
X169011868Y-121802345D01*
X168935678Y-121821392D01*
X168840440Y-121821392D01*
X168764249Y-121802345D01*
X168726154Y-121783297D01*
X168707107Y-121764249D01*
X168688059Y-121726154D01*
X96288059Y-60602821D02*
X96097583Y-60736154D01*
X96288059Y-60831392D02*
X95888059Y-60831392D01*
X95888059Y-60679011D01*
X95907107Y-60640916D01*
X95926154Y-60621869D01*
X95964249Y-60602821D01*
X96021392Y-60602821D01*
X96059487Y-60621869D01*
X96078535Y-60640916D01*
X96097583Y-60679011D01*
X96097583Y-60831392D01*
X168788059Y-80392821D02*
X168788059Y-80621392D01*
X168788059Y-80507107D02*
X168388059Y-80507107D01*
X168445202Y-80545202D01*
X168483297Y-80583297D01*
X168502345Y-80621392D01*
X120688059Y-120411868D02*
X120688059Y-120602345D01*
X120878535Y-120621392D01*
X120859487Y-120602345D01*
X120840440Y-120564249D01*
X120840440Y-120469011D01*
X120859487Y-120430916D01*
X120878535Y-120411868D01*
X120916630Y-120392821D01*
X121011868Y-120392821D01*
X121049964Y-120411868D01*
X121069011Y-120430916D01*
X121088059Y-120469011D01*
X121088059Y-120564249D01*
X121069011Y-120602345D01*
X121049964Y-120621392D01*
X121288059Y-81902821D02*
X121097583Y-82036154D01*
X121288059Y-82131392D02*
X120888059Y-82131392D01*
X120888059Y-81979011D01*
X120907107Y-81940916D01*
X120926154Y-81921869D01*
X120964249Y-81902821D01*
X121021392Y-81902821D01*
X121059487Y-81921869D01*
X121078535Y-81940916D01*
X121097583Y-81979011D01*
X121097583Y-82131392D01*
X168107107Y-101911869D02*
X168088059Y-101949964D01*
X168088059Y-102007107D01*
X168107107Y-102064250D01*
X168145202Y-102102345D01*
X168183297Y-102121392D01*
X168259487Y-102140440D01*
X168316630Y-102140440D01*
X168392821Y-102121392D01*
X168430916Y-102102345D01*
X168469011Y-102064250D01*
X168488059Y-102007107D01*
X168488059Y-101969011D01*
X168469011Y-101911869D01*
X168449964Y-101892821D01*
X168316630Y-101892821D01*
X168316630Y-101969011D01*
X168107107Y-121911869D02*
X168088059Y-121949964D01*
X168088059Y-122007107D01*
X168107107Y-122064250D01*
X168145202Y-122102345D01*
X168183297Y-122121392D01*
X168259487Y-122140440D01*
X168316630Y-122140440D01*
X168392821Y-122121392D01*
X168430916Y-122102345D01*
X168469011Y-122064250D01*
X168488059Y-122007107D01*
X168488059Y-121969011D01*
X168469011Y-121911869D01*
X168449964Y-121892821D01*
X168316630Y-121892821D01*
X168316630Y-121969011D01*
X171288059Y-81902821D02*
X171097583Y-82036154D01*
X171288059Y-82131392D02*
X170888059Y-82131392D01*
X170888059Y-81979011D01*
X170907107Y-81940916D01*
X170926154Y-81921869D01*
X170964249Y-81902821D01*
X171021392Y-81902821D01*
X171059487Y-81921869D01*
X171078535Y-81940916D01*
X171097583Y-81979011D01*
X171097583Y-82131392D01*
X118688059Y-81726154D02*
X118688059Y-81688059D01*
X118707107Y-81649964D01*
X118726154Y-81630916D01*
X118764249Y-81611868D01*
X118840440Y-81592821D01*
X118935678Y-81592821D01*
X119011868Y-81611868D01*
X119049964Y-81630916D01*
X119069011Y-81649964D01*
X119088059Y-81688059D01*
X119088059Y-81726154D01*
X119069011Y-81764249D01*
X119049964Y-81783297D01*
X119011868Y-81802345D01*
X118935678Y-81821392D01*
X118840440Y-81821392D01*
X118764249Y-81802345D01*
X118726154Y-81783297D01*
X118707107Y-81764249D01*
X118688059Y-81726154D01*
X95688059Y-59111868D02*
X95688059Y-59302345D01*
X95878535Y-59321392D01*
X95859487Y-59302345D01*
X95840440Y-59264249D01*
X95840440Y-59169011D01*
X95859487Y-59130916D01*
X95878535Y-59111868D01*
X95916630Y-59092821D01*
X96011868Y-59092821D01*
X96049964Y-59111868D01*
X96069011Y-59130916D01*
X96088059Y-59169011D01*
X96088059Y-59264249D01*
X96069011Y-59302345D01*
X96049964Y-59321392D01*
X143688059Y-81726154D02*
X143688059Y-81688059D01*
X143707107Y-81649964D01*
X143726154Y-81630916D01*
X143764249Y-81611868D01*
X143840440Y-81592821D01*
X143935678Y-81592821D01*
X144011868Y-81611868D01*
X144049964Y-81630916D01*
X144069011Y-81649964D01*
X144088059Y-81688059D01*
X144088059Y-81726154D01*
X144069011Y-81764249D01*
X144049964Y-81783297D01*
X144011868Y-81802345D01*
X143935678Y-81821392D01*
X143840440Y-81821392D01*
X143764249Y-81802345D01*
X143726154Y-81783297D01*
X143707107Y-81764249D01*
X143688059Y-81726154D01*
X120688059Y-59111868D02*
X120688059Y-59302345D01*
X120878535Y-59321392D01*
X120859487Y-59302345D01*
X120840440Y-59264249D01*
X120840440Y-59169011D01*
X120859487Y-59130916D01*
X120878535Y-59111868D01*
X120916630Y-59092821D01*
X121011868Y-59092821D01*
X121049964Y-59111868D01*
X121069011Y-59130916D01*
X121088059Y-59169011D01*
X121088059Y-59264249D01*
X121069011Y-59302345D01*
X121049964Y-59321392D01*
X121721392Y-118330916D02*
X121988059Y-118330916D01*
X121569011Y-118426154D02*
X121854726Y-118521392D01*
X121854726Y-118273773D01*
X118788059Y-59092821D02*
X118788059Y-59321392D01*
X118788059Y-59207107D02*
X118388059Y-59207107D01*
X118445202Y-59245202D01*
X118483297Y-59283297D01*
X118502345Y-59321392D01*
X167426154Y-98521392D02*
X167407107Y-98502345D01*
X167388059Y-98464249D01*
X167388059Y-98369011D01*
X167407107Y-98330916D01*
X167426154Y-98311868D01*
X167464249Y-98292821D01*
X167502345Y-98292821D01*
X167559487Y-98311868D01*
X167788059Y-98540440D01*
X167788059Y-98292821D01*
X121288059Y-121902821D02*
X121097583Y-122036154D01*
X121288059Y-122131392D02*
X120888059Y-122131392D01*
X120888059Y-121979011D01*
X120907107Y-121940916D01*
X120926154Y-121921869D01*
X120964249Y-121902821D01*
X121021392Y-121902821D01*
X121059487Y-121921869D01*
X121078535Y-121940916D01*
X121097583Y-121979011D01*
X121097583Y-122131392D01*
X93788059Y-120392821D02*
X93788059Y-120621392D01*
X93788059Y-120507107D02*
X93388059Y-120507107D01*
X93445202Y-120545202D01*
X93483297Y-120583297D01*
X93502345Y-120621392D01*
X96288059Y-121902821D02*
X96097583Y-122036154D01*
X96288059Y-122131392D02*
X95888059Y-122131392D01*
X95888059Y-121979011D01*
X95907107Y-121940916D01*
X95926154Y-121921869D01*
X95964249Y-121902821D01*
X96021392Y-121902821D01*
X96059487Y-121921869D01*
X96078535Y-121940916D01*
X96097583Y-121979011D01*
X96097583Y-122131392D01*
X170688059Y-120411868D02*
X170688059Y-120602345D01*
X170878535Y-120621392D01*
X170859487Y-120602345D01*
X170840440Y-120564249D01*
X170840440Y-120469011D01*
X170859487Y-120430916D01*
X170878535Y-120411868D01*
X170916630Y-120392821D01*
X171011868Y-120392821D01*
X171049964Y-120411868D01*
X171069011Y-120430916D01*
X171088059Y-120469011D01*
X171088059Y-120564249D01*
X171069011Y-120602345D01*
X171049964Y-120621392D01*
X143107107Y-101911869D02*
X143088059Y-101949964D01*
X143088059Y-102007107D01*
X143107107Y-102064250D01*
X143145202Y-102102345D01*
X143183297Y-102121392D01*
X143259487Y-102140440D01*
X143316630Y-102140440D01*
X143392821Y-102121392D01*
X143430916Y-102102345D01*
X143469011Y-102064250D01*
X143488059Y-102007107D01*
X143488059Y-101969011D01*
X143469011Y-101911869D01*
X143449964Y-101892821D01*
X143316630Y-101892821D01*
X143316630Y-101969011D01*
X93107107Y-101911869D02*
X93088059Y-101949964D01*
X93088059Y-102007107D01*
X93107107Y-102064250D01*
X93145202Y-102102345D01*
X93183297Y-102121392D01*
X93259487Y-102140440D01*
X93316630Y-102140440D01*
X93392821Y-102121392D01*
X93430916Y-102102345D01*
X93469011Y-102064250D01*
X93488059Y-102007107D01*
X93488059Y-101969011D01*
X93469011Y-101911869D01*
X93449964Y-101892821D01*
X93316630Y-101892821D01*
X93316630Y-101969011D01*
X171288059Y-121902821D02*
X171097583Y-122036154D01*
X171288059Y-122131392D02*
X170888059Y-122131392D01*
X170888059Y-121979011D01*
X170907107Y-121940916D01*
X170926154Y-121921869D01*
X170964249Y-121902821D01*
X171021392Y-121902821D01*
X171059487Y-121921869D01*
X171078535Y-121940916D01*
X171097583Y-121979011D01*
X171097583Y-122131392D01*
X118107107Y-101911869D02*
X118088059Y-101949964D01*
X118088059Y-102007107D01*
X118107107Y-102064250D01*
X118145202Y-102102345D01*
X118183297Y-102121392D01*
X118259487Y-102140440D01*
X118316630Y-102140440D01*
X118392821Y-102121392D01*
X118430916Y-102102345D01*
X118469011Y-102064250D01*
X118488059Y-102007107D01*
X118488059Y-101969011D01*
X118469011Y-101911869D01*
X118449964Y-101892821D01*
X118316630Y-101892821D01*
X118316630Y-101969011D01*
X117426154Y-98521392D02*
X117407107Y-98502345D01*
X117388059Y-98464249D01*
X117388059Y-98369011D01*
X117407107Y-98330916D01*
X117426154Y-98311868D01*
X117464249Y-98292821D01*
X117502345Y-98292821D01*
X117559487Y-98311868D01*
X117788059Y-98540440D01*
X117788059Y-98292821D01*
X171721392Y-57030916D02*
X171988059Y-57030916D01*
X171569011Y-57126154D02*
X171854726Y-57221392D01*
X171854726Y-56973773D01*
X143688059Y-121726154D02*
X143688059Y-121688059D01*
X143707107Y-121649964D01*
X143726154Y-121630916D01*
X143764249Y-121611868D01*
X143840440Y-121592821D01*
X143935678Y-121592821D01*
X144011868Y-121611868D01*
X144049964Y-121630916D01*
X144069011Y-121649964D01*
X144088059Y-121688059D01*
X144088059Y-121726154D01*
X144069011Y-121764249D01*
X144049964Y-121783297D01*
X144011868Y-121802345D01*
X143935678Y-121821392D01*
X143840440Y-121821392D01*
X143764249Y-121802345D01*
X143726154Y-121783297D01*
X143707107Y-121764249D01*
X143688059Y-121726154D01*
X95688059Y-120411868D02*
X95688059Y-120602345D01*
X95878535Y-120621392D01*
X95859487Y-120602345D01*
X95840440Y-120564249D01*
X95840440Y-120469011D01*
X95859487Y-120430916D01*
X95878535Y-120411868D01*
X95916630Y-120392821D01*
X96011868Y-120392821D01*
X96049964Y-120411868D01*
X96069011Y-120430916D01*
X96088059Y-120469011D01*
X96088059Y-120564249D01*
X96069011Y-120602345D01*
X96049964Y-120621392D01*
X118788059Y-99840440D02*
X118788059Y-99592821D01*
X118940440Y-99726154D01*
X118940440Y-99669011D01*
X118959487Y-99630916D01*
X118978535Y-99611868D01*
X119016630Y-99592821D01*
X119111868Y-99592821D01*
X119149964Y-99611868D01*
X119169011Y-99630916D01*
X119188059Y-99669011D01*
X119188059Y-99783297D01*
X119169011Y-99821392D01*
X119149964Y-99840440D01*
X146288059Y-60602821D02*
X146097583Y-60736154D01*
X146288059Y-60831392D02*
X145888059Y-60831392D01*
X145888059Y-60679011D01*
X145907107Y-60640916D01*
X145926154Y-60621869D01*
X145964249Y-60602821D01*
X146021392Y-60602821D01*
X146059487Y-60621869D01*
X146078535Y-60640916D01*
X146097583Y-60679011D01*
X146097583Y-60831392D01*
X143788059Y-59092821D02*
X143788059Y-59321392D01*
X143788059Y-59207107D02*
X143388059Y-59207107D01*
X143445202Y-59245202D01*
X143483297Y-59283297D01*
X143502345Y-59321392D01*
X167426154Y-78521392D02*
X167407107Y-78502345D01*
X167388059Y-78464249D01*
X167388059Y-78369011D01*
X167407107Y-78330916D01*
X167426154Y-78311868D01*
X167464249Y-78292821D01*
X167502345Y-78292821D01*
X167559487Y-78311868D01*
X167788059Y-78540440D01*
X167788059Y-78292821D01*
X143788059Y-99840440D02*
X143788059Y-99592821D01*
X143940440Y-99726154D01*
X143940440Y-99669011D01*
X143959487Y-99630916D01*
X143978535Y-99611868D01*
X144016630Y-99592821D01*
X144111868Y-99592821D01*
X144149964Y-99611868D01*
X144169011Y-99630916D01*
X144188059Y-99669011D01*
X144188059Y-99783297D01*
X144169011Y-99821392D01*
X144149964Y-99840440D01*
X118788059Y-79840440D02*
X118788059Y-79592821D01*
X118940440Y-79726154D01*
X118940440Y-79669011D01*
X118959487Y-79630916D01*
X118978535Y-79611868D01*
X119016630Y-79592821D01*
X119111868Y-79592821D01*
X119149964Y-79611868D01*
X119169011Y-79630916D01*
X119188059Y-79669011D01*
X119188059Y-79783297D01*
X119169011Y-79821392D01*
X119149964Y-79840440D01*
X142426154Y-78521392D02*
X142407107Y-78502345D01*
X142388059Y-78464249D01*
X142388059Y-78369011D01*
X142407107Y-78330916D01*
X142426154Y-78311868D01*
X142464249Y-78292821D01*
X142502345Y-78292821D01*
X142559487Y-78311868D01*
X142788059Y-78540440D01*
X142788059Y-78292821D01*
X118688059Y-121726154D02*
X118688059Y-121688059D01*
X118707107Y-121649964D01*
X118726154Y-121630916D01*
X118764249Y-121611868D01*
X118840440Y-121592821D01*
X118935678Y-121592821D01*
X119011868Y-121611868D01*
X119049964Y-121630916D01*
X119069011Y-121649964D01*
X119088059Y-121688059D01*
X119088059Y-121726154D01*
X119069011Y-121764249D01*
X119049964Y-121783297D01*
X119011868Y-121802345D01*
X118935678Y-121821392D01*
X118840440Y-121821392D01*
X118764249Y-121802345D01*
X118726154Y-121783297D01*
X118707107Y-121764249D01*
X118688059Y-121726154D01*
X120688059Y-80411868D02*
X120688059Y-80602345D01*
X120878535Y-80621392D01*
X120859487Y-80602345D01*
X120840440Y-80564249D01*
X120840440Y-80469011D01*
X120859487Y-80430916D01*
X120878535Y-80411868D01*
X120916630Y-80392821D01*
X121011868Y-80392821D01*
X121049964Y-80411868D01*
X121069011Y-80430916D01*
X121088059Y-80469011D01*
X121088059Y-80564249D01*
X121069011Y-80602345D01*
X121049964Y-80621392D01*
X92426154Y-57221392D02*
X92407107Y-57202345D01*
X92388059Y-57164249D01*
X92388059Y-57069011D01*
X92407107Y-57030916D01*
X92426154Y-57011868D01*
X92464249Y-56992821D01*
X92502345Y-56992821D01*
X92559487Y-57011868D01*
X92788059Y-57240440D01*
X92788059Y-56992821D01*
X121721392Y-98330916D02*
X121988059Y-98330916D01*
X121569011Y-98426154D02*
X121854726Y-98521392D01*
X121854726Y-98273773D01*
X170688059Y-100411868D02*
X170688059Y-100602345D01*
X170878535Y-100621392D01*
X170859487Y-100602345D01*
X170840440Y-100564249D01*
X170840440Y-100469011D01*
X170859487Y-100430916D01*
X170878535Y-100411868D01*
X170916630Y-100392821D01*
X171011868Y-100392821D01*
X171049964Y-100411868D01*
X171069011Y-100430916D01*
X171088059Y-100469011D01*
X171088059Y-100564249D01*
X171069011Y-100602345D01*
X171049964Y-100621392D01*
X117426154Y-118521392D02*
X117407107Y-118502345D01*
X117388059Y-118464249D01*
X117388059Y-118369011D01*
X117407107Y-118330916D01*
X117426154Y-118311868D01*
X117464249Y-118292821D01*
X117502345Y-118292821D01*
X117559487Y-118311868D01*
X117788059Y-118540440D01*
X117788059Y-118292821D01*
X143107107Y-81911869D02*
X143088059Y-81949964D01*
X143088059Y-82007107D01*
X143107107Y-82064250D01*
X143145202Y-82102345D01*
X143183297Y-82121392D01*
X143259487Y-82140440D01*
X143316630Y-82140440D01*
X143392821Y-82121392D01*
X143430916Y-82102345D01*
X143469011Y-82064250D01*
X143488059Y-82007107D01*
X143488059Y-81969011D01*
X143469011Y-81911869D01*
X143449964Y-81892821D01*
X143316630Y-81892821D01*
X143316630Y-81969011D01*
X118788059Y-120392821D02*
X118788059Y-120621392D01*
X118788059Y-120507107D02*
X118388059Y-120507107D01*
X118445202Y-120545202D01*
X118483297Y-120583297D01*
X118502345Y-120621392D01*
X143107107Y-121911869D02*
X143088059Y-121949964D01*
X143088059Y-122007107D01*
X143107107Y-122064250D01*
X143145202Y-122102345D01*
X143183297Y-122121392D01*
X143259487Y-122140440D01*
X143316630Y-122140440D01*
X143392821Y-122121392D01*
X143430916Y-122102345D01*
X143469011Y-122064250D01*
X143488059Y-122007107D01*
X143488059Y-121969011D01*
X143469011Y-121911869D01*
X143449964Y-121892821D01*
X143316630Y-121892821D01*
X143316630Y-121969011D01*
X93788059Y-58540440D02*
X93788059Y-58292821D01*
X93940440Y-58426154D01*
X93940440Y-58369011D01*
X93959487Y-58330916D01*
X93978535Y-58311868D01*
X94016630Y-58292821D01*
X94111868Y-58292821D01*
X94149964Y-58311868D01*
X94169011Y-58330916D01*
X94188059Y-58369011D01*
X94188059Y-58483297D01*
X94169011Y-58521392D01*
X94149964Y-58540440D01*
X121721392Y-57030916D02*
X121988059Y-57030916D01*
X121569011Y-57126154D02*
X121854726Y-57221392D01*
X121854726Y-56973773D01*
X168107107Y-81911869D02*
X168088059Y-81949964D01*
X168088059Y-82007107D01*
X168107107Y-82064250D01*
X168145202Y-82102345D01*
X168183297Y-82121392D01*
X168259487Y-82140440D01*
X168316630Y-82140440D01*
X168392821Y-82121392D01*
X168430916Y-82102345D01*
X168469011Y-82064250D01*
X168488059Y-82007107D01*
X168488059Y-81969011D01*
X168469011Y-81911869D01*
X168449964Y-81892821D01*
X168316630Y-81892821D01*
X168316630Y-81969011D01*
X167426154Y-118521392D02*
X167407107Y-118502345D01*
X167388059Y-118464249D01*
X167388059Y-118369011D01*
X167407107Y-118330916D01*
X167426154Y-118311868D01*
X167464249Y-118292821D01*
X167502345Y-118292821D01*
X167559487Y-118311868D01*
X167788059Y-118540440D01*
X167788059Y-118292821D01*
X95688059Y-80411868D02*
X95688059Y-80602345D01*
X95878535Y-80621392D01*
X95859487Y-80602345D01*
X95840440Y-80564249D01*
X95840440Y-80469011D01*
X95859487Y-80430916D01*
X95878535Y-80411868D01*
X95916630Y-80392821D01*
X96011868Y-80392821D01*
X96049964Y-80411868D01*
X96069011Y-80430916D01*
X96088059Y-80469011D01*
X96088059Y-80564249D01*
X96069011Y-80602345D01*
X96049964Y-80621392D01*
X96288059Y-81902821D02*
X96097583Y-82036154D01*
X96288059Y-82131392D02*
X95888059Y-82131392D01*
X95888059Y-81979011D01*
X95907107Y-81940916D01*
X95926154Y-81921869D01*
X95964249Y-81902821D01*
X96021392Y-81902821D01*
X96059487Y-81921869D01*
X96078535Y-81940916D01*
X96097583Y-81979011D01*
X96097583Y-82131392D01*
X145688059Y-100411868D02*
X145688059Y-100602345D01*
X145878535Y-100621392D01*
X145859487Y-100602345D01*
X145840440Y-100564249D01*
X145840440Y-100469011D01*
X145859487Y-100430916D01*
X145878535Y-100411868D01*
X145916630Y-100392821D01*
X146011868Y-100392821D01*
X146049964Y-100411868D01*
X146069011Y-100430916D01*
X146088059Y-100469011D01*
X146088059Y-100564249D01*
X146069011Y-100602345D01*
X146049964Y-100621392D01*
X143107107Y-60611869D02*
X143088059Y-60649964D01*
X143088059Y-60707107D01*
X143107107Y-60764250D01*
X143145202Y-60802345D01*
X143183297Y-60821392D01*
X143259487Y-60840440D01*
X143316630Y-60840440D01*
X143392821Y-60821392D01*
X143430916Y-60802345D01*
X143469011Y-60764250D01*
X143488059Y-60707107D01*
X143488059Y-60669011D01*
X143469011Y-60611869D01*
X143449964Y-60592821D01*
X143316630Y-60592821D01*
X143316630Y-60669011D01*
X93788059Y-119840440D02*
X93788059Y-119592821D01*
X93940440Y-119726154D01*
X93940440Y-119669011D01*
X93959487Y-119630916D01*
X93978535Y-119611868D01*
X94016630Y-119592821D01*
X94111868Y-119592821D01*
X94149964Y-119611868D01*
X94169011Y-119630916D01*
X94188059Y-119669011D01*
X94188059Y-119783297D01*
X94169011Y-119821392D01*
X94149964Y-119840440D01*
X118788059Y-80392821D02*
X118788059Y-80621392D01*
X118788059Y-80507107D02*
X118388059Y-80507107D01*
X118445202Y-80545202D01*
X118483297Y-80583297D01*
X118502345Y-80621392D01*
X145688059Y-120411868D02*
X145688059Y-120602345D01*
X145878535Y-120621392D01*
X145859487Y-120602345D01*
X145840440Y-120564249D01*
X145840440Y-120469011D01*
X145859487Y-120430916D01*
X145878535Y-120411868D01*
X145916630Y-120392821D01*
X146011868Y-120392821D01*
X146049964Y-120411868D01*
X146069011Y-120430916D01*
X146088059Y-120469011D01*
X146088059Y-120564249D01*
X146069011Y-120602345D01*
X146049964Y-120621392D01*
X118688059Y-101726154D02*
X118688059Y-101688059D01*
X118707107Y-101649964D01*
X118726154Y-101630916D01*
X118764249Y-101611868D01*
X118840440Y-101592821D01*
X118935678Y-101592821D01*
X119011868Y-101611868D01*
X119049964Y-101630916D01*
X119069011Y-101649964D01*
X119088059Y-101688059D01*
X119088059Y-101726154D01*
X119069011Y-101764249D01*
X119049964Y-101783297D01*
X119011868Y-101802345D01*
X118935678Y-101821392D01*
X118840440Y-101821392D01*
X118764249Y-101802345D01*
X118726154Y-101783297D01*
X118707107Y-101764249D01*
X118688059Y-101726154D01*
X143688059Y-101726154D02*
X143688059Y-101688059D01*
X143707107Y-101649964D01*
X143726154Y-101630916D01*
X143764249Y-101611868D01*
X143840440Y-101592821D01*
X143935678Y-101592821D01*
X144011868Y-101611868D01*
X144049964Y-101630916D01*
X144069011Y-101649964D01*
X144088059Y-101688059D01*
X144088059Y-101726154D01*
X144069011Y-101764249D01*
X144049964Y-101783297D01*
X144011868Y-101802345D01*
X143935678Y-101821392D01*
X143840440Y-101821392D01*
X143764249Y-101802345D01*
X143726154Y-101783297D01*
X143707107Y-101764249D01*
X143688059Y-101726154D01*
X168788059Y-79840440D02*
X168788059Y-79592821D01*
X168940440Y-79726154D01*
X168940440Y-79669011D01*
X168959487Y-79630916D01*
X168978535Y-79611868D01*
X169016630Y-79592821D01*
X169111868Y-79592821D01*
X169149964Y-79611868D01*
X169169011Y-79630916D01*
X169188059Y-79669011D01*
X169188059Y-79783297D01*
X169169011Y-79821392D01*
X169149964Y-79840440D01*
X93788059Y-79840440D02*
X93788059Y-79592821D01*
X93940440Y-79726154D01*
X93940440Y-79669011D01*
X93959487Y-79630916D01*
X93978535Y-79611868D01*
X94016630Y-79592821D01*
X94111868Y-79592821D01*
X94149964Y-79611868D01*
X94169011Y-79630916D01*
X94188059Y-79669011D01*
X94188059Y-79783297D01*
X94169011Y-79821392D01*
X94149964Y-79840440D01*
X171721392Y-98330916D02*
X171988059Y-98330916D01*
X171569011Y-98426154D02*
X171854726Y-98521392D01*
X171854726Y-98273773D01*
X146288059Y-121902821D02*
X146097583Y-122036154D01*
X146288059Y-122131392D02*
X145888059Y-122131392D01*
X145888059Y-121979011D01*
X145907107Y-121940916D01*
X145926154Y-121921869D01*
X145964249Y-121902821D01*
X146021392Y-121902821D01*
X146059487Y-121921869D01*
X146078535Y-121940916D01*
X146097583Y-121979011D01*
X146097583Y-122131392D01*
X93107107Y-60611869D02*
X93088059Y-60649964D01*
X93088059Y-60707107D01*
X93107107Y-60764250D01*
X93145202Y-60802345D01*
X93183297Y-60821392D01*
X93259487Y-60840440D01*
X93316630Y-60840440D01*
X93392821Y-60821392D01*
X93430916Y-60802345D01*
X93469011Y-60764250D01*
X93488059Y-60707107D01*
X93488059Y-60669011D01*
X93469011Y-60611869D01*
X93449964Y-60592821D01*
X93316630Y-60592821D01*
X93316630Y-60669011D01*
X96288059Y-101902821D02*
X96097583Y-102036154D01*
X96288059Y-102131392D02*
X95888059Y-102131392D01*
X95888059Y-101979011D01*
X95907107Y-101940916D01*
X95926154Y-101921869D01*
X95964249Y-101902821D01*
X96021392Y-101902821D01*
X96059487Y-101921869D01*
X96078535Y-101940916D01*
X96097583Y-101979011D01*
X96097583Y-102131392D01*
X145688059Y-80411868D02*
X145688059Y-80602345D01*
X145878535Y-80621392D01*
X145859487Y-80602345D01*
X145840440Y-80564249D01*
X145840440Y-80469011D01*
X145859487Y-80430916D01*
X145878535Y-80411868D01*
X145916630Y-80392821D01*
X146011868Y-80392821D01*
X146049964Y-80411868D01*
X146069011Y-80430916D01*
X146088059Y-80469011D01*
X146088059Y-80564249D01*
X146069011Y-80602345D01*
X146049964Y-80621392D01*
X142426154Y-118521392D02*
X142407107Y-118502345D01*
X142388059Y-118464249D01*
X142388059Y-118369011D01*
X142407107Y-118330916D01*
X142426154Y-118311868D01*
X142464249Y-118292821D01*
X142502345Y-118292821D01*
X142559487Y-118311868D01*
X142788059Y-118540440D01*
X142788059Y-118292821D01*
X93688059Y-101726154D02*
X93688059Y-101688059D01*
X93707107Y-101649964D01*
X93726154Y-101630916D01*
X93764249Y-101611868D01*
X93840440Y-101592821D01*
X93935678Y-101592821D01*
X94011868Y-101611868D01*
X94049964Y-101630916D01*
X94069011Y-101649964D01*
X94088059Y-101688059D01*
X94088059Y-101726154D01*
X94069011Y-101764249D01*
X94049964Y-101783297D01*
X94011868Y-101802345D01*
X93935678Y-101821392D01*
X93840440Y-101821392D01*
X93764249Y-101802345D01*
X93726154Y-101783297D01*
X93707107Y-101764249D01*
X93688059Y-101726154D01*
X171288059Y-101902821D02*
X171097583Y-102036154D01*
X171288059Y-102131392D02*
X170888059Y-102131392D01*
X170888059Y-101979011D01*
X170907107Y-101940916D01*
X170926154Y-101921869D01*
X170964249Y-101902821D01*
X171021392Y-101902821D01*
X171059487Y-101921869D01*
X171078535Y-101940916D01*
X171097583Y-101979011D01*
X171097583Y-102131392D01*
X168688059Y-101726154D02*
X168688059Y-101688059D01*
X168707107Y-101649964D01*
X168726154Y-101630916D01*
X168764249Y-101611868D01*
X168840440Y-101592821D01*
X168935678Y-101592821D01*
X169011868Y-101611868D01*
X169049964Y-101630916D01*
X169069011Y-101649964D01*
X169088059Y-101688059D01*
X169088059Y-101726154D01*
X169069011Y-101764249D01*
X169049964Y-101783297D01*
X169011868Y-101802345D01*
X168935678Y-101821392D01*
X168840440Y-101821392D01*
X168764249Y-101802345D01*
X168726154Y-101783297D01*
X168707107Y-101764249D01*
X168688059Y-101726154D01*
X143788059Y-119840440D02*
X143788059Y-119592821D01*
X143940440Y-119726154D01*
X143940440Y-119669011D01*
X143959487Y-119630916D01*
X143978535Y-119611868D01*
X144016630Y-119592821D01*
X144111868Y-119592821D01*
X144149964Y-119611868D01*
X144169011Y-119630916D01*
X144188059Y-119669011D01*
X144188059Y-119783297D01*
X144169011Y-119821392D01*
X144149964Y-119840440D01*
X171721392Y-118330916D02*
X171988059Y-118330916D01*
X171569011Y-118426154D02*
X171854726Y-118521392D01*
X171854726Y-118273773D01*
X93688059Y-60426154D02*
X93688059Y-60388059D01*
X93707107Y-60349964D01*
X93726154Y-60330916D01*
X93764249Y-60311868D01*
X93840440Y-60292821D01*
X93935678Y-60292821D01*
X94011868Y-60311868D01*
X94049964Y-60330916D01*
X94069011Y-60349964D01*
X94088059Y-60388059D01*
X94088059Y-60426154D01*
X94069011Y-60464249D01*
X94049964Y-60483297D01*
X94011868Y-60502345D01*
X93935678Y-60521392D01*
X93840440Y-60521392D01*
X93764249Y-60502345D01*
X93726154Y-60483297D01*
X93707107Y-60464249D01*
X93688059Y-60426154D01*
X143788059Y-120392821D02*
X143788059Y-120621392D01*
X143788059Y-120507107D02*
X143388059Y-120507107D01*
X143445202Y-120545202D01*
X143483297Y-120583297D01*
X143502345Y-120621392D01*
X95688059Y-100411868D02*
X95688059Y-100602345D01*
X95878535Y-100621392D01*
X95859487Y-100602345D01*
X95840440Y-100564249D01*
X95840440Y-100469011D01*
X95859487Y-100430916D01*
X95878535Y-100411868D01*
X95916630Y-100392821D01*
X96011868Y-100392821D01*
X96049964Y-100411868D01*
X96069011Y-100430916D01*
X96088059Y-100469011D01*
X96088059Y-100564249D01*
X96069011Y-100602345D01*
X96049964Y-100621392D01*
X93107107Y-81911869D02*
X93088059Y-81949964D01*
X93088059Y-82007107D01*
X93107107Y-82064250D01*
X93145202Y-82102345D01*
X93183297Y-82121392D01*
X93259487Y-82140440D01*
X93316630Y-82140440D01*
X93392821Y-82121392D01*
X93430916Y-82102345D01*
X93469011Y-82064250D01*
X93488059Y-82007107D01*
X93488059Y-81969011D01*
X93469011Y-81911869D01*
X93449964Y-81892821D01*
X93316630Y-81892821D01*
X93316630Y-81969011D01*
X118788059Y-119840440D02*
X118788059Y-119592821D01*
X118940440Y-119726154D01*
X118940440Y-119669011D01*
X118959487Y-119630916D01*
X118978535Y-119611868D01*
X119016630Y-119592821D01*
X119111868Y-119592821D01*
X119149964Y-119611868D01*
X119169011Y-119630916D01*
X119188059Y-119669011D01*
X119188059Y-119783297D01*
X119169011Y-119821392D01*
X119149964Y-119840440D01*
D12*
X90785714Y-140804761D02*
X90785714Y-138804761D01*
X91547619Y-138804761D01*
X91738095Y-138900000D01*
X91833333Y-138995238D01*
X91928571Y-139185714D01*
X91928571Y-139471428D01*
X91833333Y-139661904D01*
X91738095Y-139757142D01*
X91547619Y-139852380D01*
X90785714Y-139852380D01*
X93642857Y-139471428D02*
X93642857Y-140804761D01*
X92785714Y-139471428D02*
X92785714Y-140519047D01*
X92880952Y-140709523D01*
X93071428Y-140804761D01*
X93357142Y-140804761D01*
X93547619Y-140709523D01*
X93642857Y-140614285D01*
X94595238Y-139471428D02*
X94595238Y-141471428D01*
X94595238Y-139566666D02*
X94785714Y-139471428D01*
X95166666Y-139471428D01*
X95357142Y-139566666D01*
X95452380Y-139661904D01*
X95547619Y-139852380D01*
X95547619Y-140423809D01*
X95452380Y-140614285D01*
X95357142Y-140709523D01*
X95166666Y-140804761D01*
X94785714Y-140804761D01*
X94595238Y-140709523D01*
X97261904Y-140804761D02*
X97261904Y-138804761D01*
X97261904Y-140709523D02*
X97071428Y-140804761D01*
X96690476Y-140804761D01*
X96500000Y-140709523D01*
X96404761Y-140614285D01*
X96309523Y-140423809D01*
X96309523Y-139852380D01*
X96404761Y-139661904D01*
X96500000Y-139566666D01*
X96690476Y-139471428D01*
X97071428Y-139471428D01*
X97261904Y-139566666D01*
X98214285Y-140804761D02*
X98214285Y-139471428D01*
X98214285Y-139852380D02*
X98309523Y-139661904D01*
X98404761Y-139566666D01*
X98595238Y-139471428D01*
X98785714Y-139471428D01*
X99452380Y-140804761D02*
X99452380Y-139471428D01*
X99452380Y-138804761D02*
X99357142Y-138900000D01*
X99452380Y-138995238D01*
X99547619Y-138900000D01*
X99452380Y-138804761D01*
X99452380Y-138995238D01*
X100214285Y-139471428D02*
X100690476Y-140804761D01*
X101166666Y-139471428D01*
X102690476Y-140709523D02*
X102500000Y-140804761D01*
X102119047Y-140804761D01*
X101928571Y-140709523D01*
X101833333Y-140519047D01*
X101833333Y-139757142D01*
X101928571Y-139566666D01*
X102119047Y-139471428D01*
X102500000Y-139471428D01*
X102690476Y-139566666D01*
X102785714Y-139757142D01*
X102785714Y-139947619D01*
X101833333Y-140138095D01*
X105166666Y-139757142D02*
X105833333Y-139757142D01*
X106119047Y-140804761D02*
X105166666Y-140804761D01*
X105166666Y-138804761D01*
X106119047Y-138804761D01*
X106976190Y-140804761D02*
X106976190Y-138804761D01*
X108595238Y-139757142D02*
X108880952Y-139852380D01*
X108976190Y-139947619D01*
X109071428Y-140138095D01*
X109071428Y-140423809D01*
X108976190Y-140614285D01*
X108880952Y-140709523D01*
X108690476Y-140804761D01*
X107928571Y-140804761D01*
X107928571Y-138804761D01*
X108595238Y-138804761D01*
X108785714Y-138900000D01*
X108880952Y-138995238D01*
X108976190Y-139185714D01*
X108976190Y-139376190D01*
X108880952Y-139566666D01*
X108785714Y-139661904D01*
X108595238Y-139757142D01*
X107928571Y-139757142D01*
X109928571Y-140042857D02*
X111452380Y-140042857D01*
X112309523Y-138995238D02*
X112404761Y-138900000D01*
X112595238Y-138804761D01*
X113071428Y-138804761D01*
X113261904Y-138900000D01*
X113357142Y-138995238D01*
X113452380Y-139185714D01*
X113452380Y-139376190D01*
X113357142Y-139661904D01*
X112214285Y-140804761D01*
X113452380Y-140804761D01*
X115166666Y-139471428D02*
X115166666Y-140804761D01*
X114690476Y-138709523D02*
X114214285Y-140138095D01*
X115452380Y-140138095D01*
X118880952Y-140804761D02*
X118214285Y-139852380D01*
X117738095Y-140804761D02*
X117738095Y-138804761D01*
X118500000Y-138804761D01*
X118690476Y-138900000D01*
X118785714Y-138995238D01*
X118880952Y-139185714D01*
X118880952Y-139471428D01*
X118785714Y-139661904D01*
X118690476Y-139757142D01*
X118500000Y-139852380D01*
X117738095Y-139852380D01*
X120500000Y-140709523D02*
X120309523Y-140804761D01*
X119928571Y-140804761D01*
X119738095Y-140709523D01*
X119642857Y-140519047D01*
X119642857Y-139757142D01*
X119738095Y-139566666D01*
X119928571Y-139471428D01*
X120309523Y-139471428D01*
X120500000Y-139566666D01*
X120595238Y-139757142D01*
X120595238Y-139947619D01*
X119642857Y-140138095D01*
X121261904Y-139471428D02*
X121738095Y-140804761D01*
X122214285Y-139471428D01*
X122976190Y-140614285D02*
X123071428Y-140709523D01*
X122976190Y-140804761D01*
X122880952Y-140709523D01*
X122976190Y-140614285D01*
X122976190Y-140804761D01*
X125357142Y-140233333D02*
X126309523Y-140233333D01*
X125166666Y-140804761D02*
X125833333Y-138804761D01*
X126499999Y-140804761D01*
D13*
%TO.C,*%
%TD*%
M02*
