%TF.GenerationSoftware,KiCad,Pcbnew,(6.0.0)*%
%TF.CreationDate,2022-11-29T13:54:36-05:00*%
%TF.ProjectId,pupdrive-eib24_panel,70757064-7269-4766-952d-65696232345f,B*%
%TF.SameCoordinates,Original*%
%TF.FileFunction,Soldermask,Top*%
%TF.FilePolarity,Negative*%
%FSLAX46Y46*%
G04 Gerber Fmt 4.6, Leading zero omitted, Abs format (unit mm)*
G04 Created by KiCad (PCBNEW (6.0.0)) date 2022-11-29 13:54:36*
%MOMM*%
%LPD*%
G01*
G04 APERTURE LIST*
G04 Aperture macros list*
%AMRoundRect*
0 Rectangle with rounded corners*
0 $1 Rounding radius*
0 $2 $3 $4 $5 $6 $7 $8 $9 X,Y pos of 4 corners*
0 Add a 4 corners polygon primitive as box body*
4,1,4,$2,$3,$4,$5,$6,$7,$8,$9,$2,$3,0*
0 Add four circle primitives for the rounded corners*
1,1,$1+$1,$2,$3*
1,1,$1+$1,$4,$5*
1,1,$1+$1,$6,$7*
1,1,$1+$1,$8,$9*
0 Add four rect primitives between the rounded corners*
20,1,$1+$1,$2,$3,$4,$5,0*
20,1,$1+$1,$4,$5,$6,$7,0*
20,1,$1+$1,$6,$7,$8,$9,0*
20,1,$1+$1,$8,$9,$2,$3,0*%
G04 Aperture macros list end*
%ADD10C,0.360000*%
%ADD11C,0.550000*%
%ADD12C,0.420000*%
%ADD13RoundRect,0.008000X0.072000X0.212000X-0.072000X0.212000X-0.072000X-0.212000X0.072000X-0.212000X0*%
%ADD14RoundRect,0.010500X0.094500X0.229500X-0.094500X0.229500X-0.094500X-0.229500X0.094500X-0.229500X0*%
%ADD15C,6.400000*%
G04 APERTURE END LIST*
D10*
%TO.C,*%
X167460000Y-139297500D02*
X167460000Y-139777500D01*
D11*
X161420000Y-134977500D02*
X164020000Y-132577500D01*
D10*
X164100000Y-138897500D02*
X164100000Y-140657500D01*
X167100000Y-138897500D02*
X166860000Y-138897500D01*
X173160000Y-140717500D02*
X173080000Y-140677500D01*
X161800000Y-140297500D02*
X161800000Y-139257500D01*
D11*
X167620000Y-137577500D02*
X168220000Y-135577500D01*
D10*
X160840000Y-138897500D02*
X160840000Y-140657500D01*
X162460000Y-139257500D02*
X162460000Y-140297500D01*
X170760000Y-140657500D02*
X170740000Y-139257500D01*
X160170000Y-140297500D02*
X160170000Y-139257500D01*
X172940000Y-140557500D02*
X172940000Y-140517500D01*
D11*
X167620000Y-137577500D02*
X161420000Y-134977500D01*
D10*
X162580000Y-139777500D02*
X163420000Y-139777500D01*
X173180000Y-140717500D02*
X173420000Y-140717500D01*
X166860000Y-140657500D02*
X167220000Y-140657500D01*
X168100000Y-140657500D02*
X168700000Y-140657500D01*
X164700000Y-138897500D02*
X164100000Y-138897500D01*
D11*
X167620000Y-137577500D02*
X166420000Y-131177500D01*
D10*
X173780000Y-140337500D02*
X173780000Y-140237500D01*
X173780000Y-140237500D02*
X173760000Y-140137500D01*
D11*
X168220000Y-135577500D02*
X164020000Y-132577500D01*
X161420000Y-134977500D02*
X168220000Y-135577500D01*
D10*
X172920000Y-139397500D02*
X173000000Y-139517500D01*
X163060000Y-138897500D02*
X162820000Y-138897500D01*
X171620000Y-141457500D02*
X171480000Y-141657500D01*
X161440000Y-138897500D02*
X160840000Y-138897500D01*
X160840000Y-140657500D02*
X161440000Y-140657500D01*
X170380000Y-138897500D02*
X169920000Y-138897500D01*
X172980000Y-140617500D02*
X172940000Y-140557500D01*
X160840000Y-140677500D02*
X160840000Y-141717500D01*
X169780000Y-140637500D02*
X169780000Y-137797500D01*
X173080000Y-140677500D02*
X172980000Y-140617500D01*
X171200000Y-138717500D02*
X171860000Y-140637500D01*
X173600000Y-138857500D02*
X173700000Y-138917500D01*
X173760000Y-140137500D02*
X173580000Y-139957500D01*
X173700000Y-138917500D02*
X173740000Y-138977500D01*
X168100000Y-138897500D02*
X168100000Y-140657500D01*
X162820000Y-140657500D02*
X163180000Y-140657500D01*
X159220000Y-139257500D02*
X159220000Y-140297500D01*
X173000000Y-139517500D02*
X173320000Y-139757500D01*
X168700000Y-138897500D02*
X168100000Y-138897500D01*
X171480000Y-141657500D02*
X171300000Y-141697500D01*
X172480000Y-138717500D02*
X171640000Y-141417500D01*
X159610000Y-138897500D02*
X159810000Y-138897500D01*
X171300000Y-141697500D02*
X171200000Y-141697500D01*
X165060000Y-140657500D02*
X165060000Y-139257500D01*
X168100000Y-140677500D02*
X168100000Y-141717500D01*
X173740000Y-138977500D02*
X173740000Y-139017500D01*
X166500000Y-139257500D02*
X166500000Y-140297500D01*
X163420000Y-139297500D02*
X163420000Y-139777500D01*
X172900000Y-139297500D02*
X172920000Y-139397500D01*
D11*
X166420000Y-131177500D02*
X168220000Y-135577500D01*
X164020000Y-132577500D02*
X167620000Y-137577500D01*
D10*
X173580000Y-139957500D02*
X173260000Y-139717500D01*
X173520000Y-138817500D02*
X173600000Y-138857500D01*
X159780000Y-140657500D02*
X159590000Y-140657500D01*
X169060000Y-140297500D02*
X169060000Y-139257500D01*
X166620000Y-139777500D02*
X167460000Y-139777500D01*
X173500000Y-138817500D02*
X173260000Y-138817500D01*
X172900000Y-139197500D02*
X172900000Y-139297500D01*
X161440000Y-140657500D02*
G75*
G03*
X161800000Y-140297500I-2J360002D01*
G01*
X160170000Y-139257500D02*
G75*
G03*
X159810000Y-138897500I-360002J-2D01*
G01*
X159220000Y-140297500D02*
G75*
G03*
X159580000Y-140657500I360002J2D01*
G01*
X166500000Y-140297500D02*
G75*
G03*
X166860000Y-140657500I360002J2D01*
G01*
X162460000Y-140297500D02*
G75*
G03*
X162820000Y-140657500I360002J2D01*
G01*
X167460000Y-139257500D02*
G75*
G03*
X167100000Y-138897500I-360002J-2D01*
G01*
X162820000Y-138897500D02*
G75*
G03*
X162460000Y-139257500I2J-360002D01*
G01*
X173260000Y-138817500D02*
G75*
G03*
X172900000Y-139177500I2J-360002D01*
G01*
X169060000Y-139257500D02*
G75*
G03*
X168700000Y-138897500I-360002J-2D01*
G01*
X161800000Y-139257500D02*
G75*
G03*
X161440000Y-138897500I-360002J-2D01*
G01*
X159810000Y-140657500D02*
G75*
G03*
X160170000Y-140297500I-2J360002D01*
G01*
X159580000Y-138897500D02*
G75*
G03*
X159220000Y-139257500I2J-360002D01*
G01*
X166860000Y-138897500D02*
G75*
G03*
X166500000Y-139257500I2J-360002D01*
G01*
X163420000Y-139257500D02*
G75*
G03*
X163060000Y-138897500I-360002J-2D01*
G01*
X168700000Y-140657500D02*
G75*
G03*
X169060000Y-140297500I-2J360002D01*
G01*
X173420000Y-140717500D02*
G75*
G03*
X173780000Y-140357500I-2J360002D01*
G01*
X167220000Y-140657500D02*
G75*
G03*
X167360000Y-140517500I0J140000D01*
G01*
X165060000Y-139257500D02*
G75*
G03*
X164700000Y-138897500I-360002J-2D01*
G01*
X170740000Y-139257500D02*
G75*
G03*
X170380000Y-138897500I-360002J-2D01*
G01*
X163180000Y-140657500D02*
G75*
G03*
X163320000Y-140517500I0J140000D01*
G01*
%TO.C,G\u002A\u002A\u002A*%
G36*
X90710990Y-136229949D02*
G01*
X90698361Y-136061353D01*
X90685193Y-135884582D01*
X90671619Y-135701444D01*
X90657769Y-135513745D01*
X90643777Y-135323291D01*
X90629774Y-135131889D01*
X90615894Y-134941344D01*
X90602266Y-134753464D01*
X90589025Y-134570054D01*
X90576302Y-134392922D01*
X90564230Y-134223873D01*
X90552939Y-134064715D01*
X90542563Y-133917252D01*
X90533234Y-133783293D01*
X90525083Y-133664642D01*
X90518244Y-133563107D01*
X90512847Y-133480494D01*
X90509026Y-133418610D01*
X90506912Y-133379260D01*
X90506637Y-133364251D01*
X90506678Y-133364168D01*
X90521461Y-133361267D01*
X90559906Y-133356919D01*
X90619521Y-133351298D01*
X90697815Y-133344574D01*
X90792295Y-133336920D01*
X90900468Y-133328509D01*
X91019843Y-133319511D01*
X91147928Y-133310100D01*
X91282230Y-133300448D01*
X91420257Y-133290726D01*
X91559517Y-133281106D01*
X91697517Y-133271762D01*
X91831766Y-133262864D01*
X91959772Y-133254585D01*
X92079042Y-133247097D01*
X92187083Y-133240573D01*
X92281405Y-133235183D01*
X92359514Y-133231101D01*
X92418919Y-133228499D01*
X92457127Y-133227548D01*
X92471646Y-133228420D01*
X92471685Y-133228468D01*
X92473794Y-133243228D01*
X92477648Y-133282485D01*
X92483111Y-133344482D01*
X92490044Y-133427464D01*
X92498309Y-133529673D01*
X92507768Y-133649353D01*
X92518284Y-133784748D01*
X92529719Y-133934101D01*
X92541935Y-134095655D01*
X92554794Y-134267654D01*
X92568158Y-134448342D01*
X92578703Y-134592242D01*
X92592332Y-134778082D01*
X92605537Y-134956356D01*
X92618180Y-135125330D01*
X92630127Y-135283271D01*
X92641243Y-135428446D01*
X92651391Y-135559123D01*
X92660437Y-135673567D01*
X92668245Y-135770047D01*
X92674679Y-135846829D01*
X92679605Y-135902180D01*
X92682886Y-135934368D01*
X92684220Y-135942280D01*
X92686901Y-135929518D01*
X92692883Y-135892348D01*
X92701928Y-135832447D01*
X92713800Y-135751488D01*
X92728260Y-135651146D01*
X92745071Y-135533097D01*
X92763996Y-135399016D01*
X92784798Y-135250578D01*
X92807240Y-135089458D01*
X92831084Y-134917330D01*
X92856093Y-134735870D01*
X92882029Y-134546753D01*
X92884957Y-134525344D01*
X92910959Y-134335399D01*
X92936003Y-134152865D01*
X92959856Y-133979422D01*
X92982283Y-133816752D01*
X93003052Y-133666535D01*
X93021928Y-133530452D01*
X93038679Y-133410183D01*
X93053069Y-133307410D01*
X93064867Y-133223812D01*
X93073838Y-133161072D01*
X93079748Y-133120868D01*
X93082364Y-133104883D01*
X93082440Y-133104676D01*
X93095762Y-133105792D01*
X93133055Y-133110227D01*
X93192216Y-133117702D01*
X93271141Y-133127939D01*
X93367728Y-133140660D01*
X93479872Y-133155586D01*
X93605470Y-133172440D01*
X93742419Y-133190944D01*
X93888616Y-133210819D01*
X93993837Y-133225195D01*
X94145816Y-133245956D01*
X94290469Y-133265634D01*
X94425634Y-133283938D01*
X94549147Y-133300581D01*
X94658844Y-133315272D01*
X94752563Y-133327724D01*
X94828140Y-133337646D01*
X94883411Y-133344750D01*
X94916214Y-133348746D01*
X94924534Y-133349542D01*
X94943643Y-133339118D01*
X94947565Y-133319517D01*
X94947565Y-133289397D01*
X96127888Y-133233789D01*
X96301769Y-133225710D01*
X96468111Y-133218204D01*
X96625038Y-133211341D01*
X96770677Y-133205194D01*
X96903152Y-133199834D01*
X97020588Y-133195333D01*
X97121112Y-133191764D01*
X97202847Y-133189197D01*
X97263920Y-133187705D01*
X97302455Y-133187360D01*
X97316578Y-133188233D01*
X97316580Y-133188235D01*
X97318009Y-133202083D01*
X97320553Y-133240407D01*
X97324126Y-133301415D01*
X97328642Y-133383319D01*
X97334016Y-133484329D01*
X97340162Y-133602654D01*
X97346995Y-133736505D01*
X97354430Y-133884092D01*
X97362381Y-134043626D01*
X97370763Y-134213315D01*
X97379489Y-134391371D01*
X97388476Y-134576004D01*
X97397637Y-134765424D01*
X97406887Y-134957841D01*
X97416140Y-135151464D01*
X97425311Y-135344505D01*
X97434315Y-135535174D01*
X97443066Y-135721680D01*
X97451478Y-135902233D01*
X97459467Y-136075045D01*
X97466946Y-136238325D01*
X97473831Y-136390283D01*
X97480036Y-136529129D01*
X97485475Y-136653074D01*
X97490063Y-136760327D01*
X97493714Y-136849099D01*
X97496344Y-136917601D01*
X97497866Y-136964041D01*
X97498196Y-136986631D01*
X97498005Y-136988581D01*
X97484798Y-136989558D01*
X97447574Y-136991651D01*
X97388610Y-136994750D01*
X97310181Y-136998747D01*
X97214564Y-137003533D01*
X97104035Y-137009000D01*
X96980870Y-137015038D01*
X96847345Y-137021539D01*
X96705736Y-137028395D01*
X96558320Y-137035497D01*
X96407372Y-137042735D01*
X96255168Y-137050002D01*
X96103985Y-137057188D01*
X95956099Y-137064186D01*
X95813786Y-137070885D01*
X95679322Y-137077179D01*
X95554983Y-137082957D01*
X95443045Y-137088111D01*
X95345784Y-137092533D01*
X95265478Y-137096113D01*
X95204400Y-137098744D01*
X95164829Y-137100316D01*
X95149387Y-137100734D01*
X95139875Y-137087941D01*
X95131704Y-137052265D01*
X95126309Y-137005000D01*
X95124351Y-136975253D01*
X95121326Y-136921731D01*
X95117360Y-136846957D01*
X95112577Y-136753450D01*
X95107104Y-136643730D01*
X95101064Y-136520318D01*
X95094585Y-136385734D01*
X95087792Y-136242500D01*
X95080809Y-136093134D01*
X95079050Y-136055168D01*
X95072187Y-135907826D01*
X95065599Y-135768422D01*
X95059394Y-135639149D01*
X95053682Y-135522204D01*
X95048574Y-135419782D01*
X95044180Y-135334077D01*
X95040610Y-135267285D01*
X95037972Y-135221601D01*
X95036379Y-135199220D01*
X95036080Y-135197289D01*
X95033781Y-135209405D01*
X95028244Y-135245544D01*
X95019757Y-135303647D01*
X95008610Y-135381652D01*
X94995092Y-135477500D01*
X94979493Y-135589130D01*
X94962102Y-135714482D01*
X94943208Y-135851496D01*
X94923102Y-135998111D01*
X94906295Y-136121247D01*
X94885325Y-136274458D01*
X94865211Y-136420003D01*
X94846254Y-136555785D01*
X94828755Y-136679709D01*
X94813016Y-136789677D01*
X94799341Y-136883593D01*
X94788029Y-136959363D01*
X94779383Y-137014888D01*
X94773706Y-137048075D01*
X94771521Y-137057115D01*
X94757441Y-137056733D01*
X94719321Y-137052996D01*
X94659194Y-137046159D01*
X94579092Y-137036482D01*
X94481046Y-137024221D01*
X94367090Y-137009635D01*
X94239256Y-136992980D01*
X94099575Y-136974515D01*
X93950080Y-136954496D01*
X93792804Y-136933182D01*
X93779437Y-136931360D01*
X93620975Y-136909794D01*
X93469670Y-136889308D01*
X93327609Y-136870178D01*
X93196881Y-136852680D01*
X93079575Y-136837091D01*
X92977779Y-136823686D01*
X92893582Y-136812742D01*
X92829072Y-136804536D01*
X92786337Y-136799344D01*
X92767467Y-136797441D01*
X92767142Y-136797438D01*
X92750869Y-136799647D01*
X92743394Y-136810140D01*
X92742797Y-136835341D01*
X92745826Y-136868873D01*
X92753169Y-136940025D01*
X92669201Y-136948275D01*
X92624712Y-136952291D01*
X92559839Y-136957647D01*
X92477104Y-136964166D01*
X92379031Y-136971670D01*
X92268139Y-136979980D01*
X92146952Y-136988921D01*
X92017992Y-136998313D01*
X91883780Y-137007980D01*
X91746838Y-137017743D01*
X91609689Y-137027426D01*
X91474854Y-137036850D01*
X91344856Y-137045838D01*
X91222215Y-137054212D01*
X91109455Y-137061795D01*
X91009098Y-137068409D01*
X90923664Y-137073876D01*
X90855677Y-137078019D01*
X90807658Y-137080660D01*
X90782129Y-137081622D01*
X90778593Y-137081426D01*
X90776761Y-137067684D01*
X90773201Y-137029511D01*
X90768045Y-136968712D01*
X90761425Y-136887095D01*
X90753473Y-136786465D01*
X90744322Y-136668629D01*
X90734103Y-136535394D01*
X90728239Y-136458206D01*
X90973546Y-136458206D01*
X90981012Y-136534820D01*
X91005774Y-136605534D01*
X91020651Y-136630384D01*
X91059876Y-136671320D01*
X91117642Y-136712683D01*
X91186571Y-136750317D01*
X91259286Y-136780067D01*
X91312680Y-136794875D01*
X91378698Y-136803937D01*
X91460598Y-136808296D01*
X91548691Y-136808059D01*
X91633289Y-136803332D01*
X91704703Y-136794220D01*
X91723212Y-136790390D01*
X91850988Y-136748965D01*
X91967643Y-136686479D01*
X92077062Y-136600701D01*
X92111451Y-136567701D01*
X92199835Y-136465939D01*
X93065333Y-136465939D01*
X93076087Y-136555197D01*
X93107879Y-136628911D01*
X93146663Y-136675276D01*
X93210330Y-136717625D01*
X93285147Y-136740111D01*
X93363782Y-136741613D01*
X93438906Y-136721011D01*
X93440673Y-136720204D01*
X93481388Y-136697129D01*
X93516266Y-136670411D01*
X93522299Y-136664380D01*
X93537832Y-136646593D01*
X93550969Y-136628249D01*
X93562048Y-136606914D01*
X93571405Y-136580155D01*
X93579377Y-136545538D01*
X93586301Y-136500628D01*
X93592513Y-136442991D01*
X93598351Y-136370195D01*
X93604150Y-136279804D01*
X93610248Y-136169385D01*
X93616982Y-136036503D01*
X93621272Y-135948993D01*
X93649752Y-135364480D01*
X93887389Y-135371942D01*
X93980360Y-135374358D01*
X94052338Y-135374845D01*
X94108594Y-135373176D01*
X94154403Y-135369121D01*
X94195036Y-135362452D01*
X94216786Y-135357658D01*
X94357530Y-135311156D01*
X94486993Y-135242186D01*
X94602822Y-135153042D01*
X94702664Y-135046018D01*
X94784166Y-134923406D01*
X94844975Y-134787501D01*
X94863768Y-134727045D01*
X94873951Y-134675795D01*
X94882974Y-134604607D01*
X94890526Y-134519850D01*
X94896297Y-134427894D01*
X94899977Y-134335109D01*
X94901253Y-134247863D01*
X94899816Y-134172527D01*
X94895354Y-134115469D01*
X94894038Y-134106607D01*
X94857124Y-133960610D01*
X94798107Y-133825982D01*
X94719082Y-133704776D01*
X94693548Y-133676927D01*
X95208810Y-133676927D01*
X95208887Y-133716537D01*
X95209753Y-133766304D01*
X95211450Y-133827641D01*
X95214019Y-133901960D01*
X95217501Y-133990674D01*
X95221939Y-134095194D01*
X95227374Y-134216932D01*
X95233846Y-134357301D01*
X95241398Y-134517713D01*
X95250071Y-134699581D01*
X95259906Y-134904315D01*
X95270945Y-135133330D01*
X95276003Y-135238187D01*
X95287343Y-135471764D01*
X95297629Y-135680282D01*
X95306936Y-135864978D01*
X95315339Y-136027088D01*
X95322911Y-136167849D01*
X95329728Y-136288500D01*
X95335863Y-136390277D01*
X95341392Y-136474418D01*
X95346388Y-136542159D01*
X95350928Y-136594738D01*
X95355083Y-136633392D01*
X95358930Y-136659358D01*
X95362425Y-136673561D01*
X95400259Y-136741552D01*
X95455231Y-136794829D01*
X95522069Y-136830753D01*
X95595500Y-136846689D01*
X95670255Y-136839998D01*
X95685886Y-136835385D01*
X95759598Y-136797873D01*
X95819323Y-136741552D01*
X95845465Y-136701543D01*
X95860000Y-136669550D01*
X95868433Y-136636496D01*
X95871995Y-136594246D01*
X95871920Y-136534668D01*
X95871771Y-136527927D01*
X95870594Y-136491112D01*
X95868296Y-136431598D01*
X95865020Y-136352502D01*
X95860911Y-136256940D01*
X95856115Y-136148028D01*
X95850775Y-136028883D01*
X95845037Y-135902620D01*
X95839045Y-135772357D01*
X95832944Y-135641209D01*
X95826879Y-135512293D01*
X95820994Y-135388725D01*
X95815435Y-135273621D01*
X95810346Y-135170097D01*
X95805871Y-135081270D01*
X95802156Y-135010257D01*
X95799345Y-134960172D01*
X95797959Y-134938777D01*
X95796633Y-134899570D01*
X95798905Y-134874787D01*
X95803121Y-134869761D01*
X95813353Y-134883463D01*
X95832784Y-134915462D01*
X95858448Y-134960712D01*
X95882333Y-135004663D01*
X95901195Y-135039704D01*
X95931343Y-135095322D01*
X95971410Y-135169011D01*
X96020032Y-135258268D01*
X96075841Y-135360587D01*
X96137472Y-135473463D01*
X96203559Y-135594392D01*
X96272736Y-135720870D01*
X96332697Y-135830415D01*
X96402507Y-135957910D01*
X96469689Y-136080611D01*
X96532976Y-136196206D01*
X96591104Y-136302383D01*
X96642807Y-136396831D01*
X96686820Y-136477238D01*
X96721877Y-136541293D01*
X96746713Y-136586684D01*
X96759391Y-136609870D01*
X96813594Y-136689445D01*
X96875651Y-136743939D01*
X96945746Y-136773448D01*
X97024059Y-136778071D01*
X97063445Y-136771744D01*
X97132248Y-136744507D01*
X97193397Y-136698413D01*
X97240029Y-136639659D01*
X97260541Y-136593731D01*
X97262910Y-136581740D01*
X97264608Y-136562424D01*
X97265586Y-136534418D01*
X97265794Y-136496360D01*
X97265182Y-136446886D01*
X97263701Y-136384632D01*
X97261300Y-136308236D01*
X97257931Y-136216334D01*
X97253543Y-136107562D01*
X97248086Y-135980558D01*
X97241512Y-135833957D01*
X97233770Y-135666396D01*
X97224811Y-135476513D01*
X97214584Y-135262943D01*
X97204174Y-135047675D01*
X97192965Y-134817083D01*
X97182907Y-134611309D01*
X97173905Y-134428878D01*
X97165865Y-134268317D01*
X97158691Y-134128151D01*
X97152289Y-134006907D01*
X97146563Y-133903110D01*
X97141419Y-133815287D01*
X97136761Y-133741963D01*
X97132495Y-133681664D01*
X97128525Y-133632917D01*
X97124757Y-133594247D01*
X97121096Y-133564179D01*
X97117446Y-133541241D01*
X97113712Y-133523959D01*
X97109801Y-133510857D01*
X97105616Y-133500462D01*
X97104294Y-133497654D01*
X97059522Y-133433482D01*
X96998553Y-133386267D01*
X96926906Y-133358098D01*
X96850104Y-133351063D01*
X96773666Y-133367249D01*
X96766778Y-133370006D01*
X96699608Y-133407911D01*
X96651642Y-133458840D01*
X96621366Y-133525479D01*
X96607270Y-133610513D01*
X96605803Y-133655964D01*
X96606435Y-133687969D01*
X96608238Y-133743184D01*
X96611072Y-133818534D01*
X96614795Y-133910941D01*
X96619267Y-134017327D01*
X96624347Y-134134616D01*
X96629896Y-134259731D01*
X96635771Y-134389593D01*
X96641834Y-134521126D01*
X96647943Y-134651253D01*
X96653957Y-134776897D01*
X96659736Y-134894980D01*
X96665140Y-135002425D01*
X96670027Y-135096155D01*
X96674258Y-135173092D01*
X96677692Y-135230161D01*
X96677786Y-135231606D01*
X96680924Y-135284990D01*
X96681361Y-135315928D01*
X96678514Y-135328208D01*
X96671798Y-135325621D01*
X96664605Y-135317150D01*
X96660774Y-135312190D01*
X96656764Y-135306644D01*
X96651780Y-135299065D01*
X96645027Y-135288007D01*
X96635710Y-135272022D01*
X96623036Y-135249663D01*
X96606208Y-135219483D01*
X96584433Y-135180034D01*
X96556915Y-135129869D01*
X96522860Y-135067541D01*
X96481473Y-134991602D01*
X96431960Y-134900606D01*
X96373525Y-134793106D01*
X96305374Y-134667653D01*
X96226712Y-134522801D01*
X96136745Y-134357102D01*
X96079214Y-134251140D01*
X96009884Y-134123842D01*
X95943453Y-134002631D01*
X95881110Y-133889629D01*
X95824049Y-133786961D01*
X95773460Y-133696750D01*
X95730533Y-133621120D01*
X95696462Y-133562195D01*
X95672436Y-133522099D01*
X95659647Y-133502954D01*
X95659351Y-133502615D01*
X95613600Y-133464276D01*
X95556770Y-133434067D01*
X95500079Y-133417434D01*
X95480570Y-133415803D01*
X95400601Y-133427752D01*
X95325969Y-133461872D01*
X95263299Y-133514254D01*
X95226889Y-133565451D01*
X95222602Y-133573498D01*
X95218814Y-133581818D01*
X95215566Y-133591822D01*
X95212901Y-133604923D01*
X95210858Y-133622532D01*
X95209481Y-133646063D01*
X95208810Y-133676927D01*
X94693548Y-133676927D01*
X94622142Y-133599047D01*
X94509380Y-133510847D01*
X94382891Y-133442232D01*
X94244769Y-133395255D01*
X94150694Y-133377422D01*
X94085217Y-133370102D01*
X94005610Y-133363383D01*
X93916312Y-133357422D01*
X93821766Y-133352376D01*
X93726413Y-133348402D01*
X93634693Y-133345657D01*
X93551049Y-133344299D01*
X93479921Y-133344484D01*
X93425751Y-133346370D01*
X93392979Y-133350114D01*
X93391218Y-133350551D01*
X93336048Y-133376062D01*
X93282972Y-133418620D01*
X93239660Y-133470609D01*
X93213784Y-133524413D01*
X93212953Y-133527532D01*
X93210863Y-133546258D01*
X93207653Y-133589196D01*
X93203428Y-133654265D01*
X93198294Y-133739383D01*
X93192355Y-133842469D01*
X93185715Y-133961443D01*
X93178478Y-134094222D01*
X93170750Y-134238726D01*
X93162635Y-134392875D01*
X93154237Y-134554586D01*
X93145661Y-134721778D01*
X93137012Y-134892371D01*
X93128393Y-135064283D01*
X93119911Y-135235433D01*
X93111668Y-135403740D01*
X93103771Y-135567123D01*
X93096322Y-135723501D01*
X93089428Y-135870793D01*
X93083192Y-136006917D01*
X93077719Y-136129793D01*
X93073113Y-136237338D01*
X93069479Y-136327473D01*
X93066922Y-136398116D01*
X93065546Y-136447186D01*
X93065333Y-136465939D01*
X92199835Y-136465939D01*
X92215499Y-136447904D01*
X92293911Y-136322737D01*
X92346910Y-136191745D01*
X92374717Y-136054471D01*
X92377590Y-136021706D01*
X92378253Y-135991446D01*
X92377903Y-135938028D01*
X92376625Y-135863762D01*
X92374503Y-135770956D01*
X92371621Y-135661919D01*
X92368065Y-135538959D01*
X92363919Y-135404386D01*
X92359266Y-135260508D01*
X92354193Y-135109634D01*
X92348782Y-134954073D01*
X92343119Y-134796133D01*
X92337289Y-134638124D01*
X92331375Y-134482354D01*
X92325462Y-134331131D01*
X92319635Y-134186765D01*
X92313978Y-134051564D01*
X92308576Y-133927838D01*
X92303512Y-133817894D01*
X92298873Y-133724042D01*
X92294742Y-133648590D01*
X92291203Y-133593848D01*
X92288342Y-133562123D01*
X92287350Y-133556171D01*
X92261676Y-133499648D01*
X92217744Y-133445405D01*
X92163000Y-133401397D01*
X92123929Y-133381579D01*
X92046236Y-133365065D01*
X91969201Y-133372445D01*
X91897964Y-133401679D01*
X91837665Y-133450724D01*
X91796192Y-133511748D01*
X91761934Y-133581769D01*
X91801794Y-134660029D01*
X91809858Y-134878238D01*
X91816979Y-135071715D01*
X91823181Y-135242032D01*
X91828486Y-135390763D01*
X91832918Y-135519478D01*
X91836499Y-135629750D01*
X91839253Y-135723151D01*
X91841202Y-135801253D01*
X91842370Y-135865629D01*
X91842779Y-135917849D01*
X91842453Y-135959487D01*
X91841415Y-135992114D01*
X91839688Y-136017303D01*
X91837294Y-136036625D01*
X91834257Y-136051653D01*
X91830600Y-136063959D01*
X91826346Y-136075114D01*
X91822651Y-136083972D01*
X91798938Y-136124820D01*
X91763565Y-136168817D01*
X91739295Y-136192802D01*
X91660923Y-136245565D01*
X91575199Y-136274235D01*
X91485888Y-136278325D01*
X91396750Y-136257350D01*
X91361604Y-136241637D01*
X91303482Y-136222049D01*
X91236331Y-136214694D01*
X91171167Y-136219864D01*
X91123604Y-136235319D01*
X91071216Y-136271515D01*
X91024443Y-136319643D01*
X90991487Y-136370739D01*
X90985006Y-136386831D01*
X90973546Y-136458206D01*
X90728239Y-136458206D01*
X90722948Y-136388565D01*
X90710990Y-136229949D01*
G37*
G36*
X93923956Y-133894323D02*
G01*
X94014197Y-133901435D01*
X94114324Y-133916034D01*
X94193416Y-133941428D01*
X94255394Y-133980052D01*
X94304182Y-134034343D01*
X94343247Y-134105706D01*
X94354236Y-134132266D01*
X94361704Y-134157199D01*
X94366035Y-134185752D01*
X94367612Y-134223172D01*
X94366819Y-134274706D01*
X94364039Y-134345602D01*
X94362799Y-134373087D01*
X94355571Y-134484205D01*
X94344170Y-134572861D01*
X94327061Y-134642782D01*
X94302711Y-134697692D01*
X94269587Y-134741319D01*
X94226154Y-134777388D01*
X94186500Y-134801391D01*
X94144929Y-134820495D01*
X94098996Y-134833523D01*
X94043893Y-134840980D01*
X93974814Y-134843371D01*
X93886952Y-134841200D01*
X93833277Y-134838495D01*
X93774012Y-134834624D01*
X93725225Y-134830438D01*
X93692425Y-134826474D01*
X93681183Y-134823627D01*
X93680886Y-134809826D01*
X93681795Y-134773126D01*
X93683755Y-134716916D01*
X93686614Y-134644582D01*
X93690219Y-134559514D01*
X93694416Y-134465097D01*
X93699052Y-134364721D01*
X93703975Y-134261773D01*
X93709032Y-134159640D01*
X93714068Y-134061711D01*
X93718932Y-133971373D01*
X93722664Y-133905674D01*
X93736191Y-133895869D01*
X93774801Y-133890701D01*
X93837666Y-133890182D01*
X93923956Y-133894323D01*
G37*
%TD*%
D12*
%TO.C,TP12*%
X96008579Y-67092088D03*
%TD*%
D13*
%TO.C,J1*%
X147633579Y-68082088D03*
X147283579Y-68082088D03*
X146933579Y-68082088D03*
X146583579Y-68082088D03*
X146233579Y-68082088D03*
X145883579Y-68082088D03*
X145533579Y-68082088D03*
X145183579Y-68082088D03*
X144833579Y-68082088D03*
X144483579Y-68082088D03*
X144133579Y-68082088D03*
X143783579Y-68082088D03*
D14*
X148008579Y-68227088D03*
X143408579Y-68227088D03*
%TD*%
D12*
%TO.C,TP14*%
X120408579Y-67092088D03*
%TD*%
%TO.C,TP13*%
X146008579Y-64092088D03*
%TD*%
%TO.C,TP24*%
X168708579Y-66492088D03*
%TD*%
%TO.C,TP17*%
X120408579Y-63392088D03*
%TD*%
%TO.C,TP6*%
X172308579Y-64092088D03*
%TD*%
%TO.C,TP21*%
X94808579Y-63392088D03*
%TD*%
%TO.C,TP4*%
X122708579Y-67092088D03*
%TD*%
%TO.C,TP16*%
X170408579Y-66492088D03*
%TD*%
%TO.C,TP23*%
X169108579Y-64092088D03*
%TD*%
%TO.C,TP6*%
X122308579Y-64092088D03*
%TD*%
%TO.C,TP3*%
X122708579Y-65292088D03*
%TD*%
%TO.C,TP3*%
X97708579Y-65292088D03*
%TD*%
%TO.C,TP4*%
X97708579Y-67092088D03*
%TD*%
%TO.C,TP18*%
X118708579Y-64692088D03*
%TD*%
%TO.C,TP17*%
X145408579Y-63392088D03*
%TD*%
%TO.C,TP1*%
X122708579Y-66492088D03*
%TD*%
%TO.C,TP7*%
X146608579Y-63392088D03*
%TD*%
%TO.C,TP7*%
X171608579Y-63392088D03*
%TD*%
%TO.C,TP15*%
X95408579Y-64092088D03*
%TD*%
%TO.C,TP8*%
X97708579Y-64692088D03*
%TD*%
%TO.C,TP2*%
X172708579Y-65892088D03*
%TD*%
%TO.C,TP24*%
X93708579Y-66492088D03*
%TD*%
%TO.C,TP26*%
X93708579Y-67092088D03*
%TD*%
%TO.C,TP7*%
X96608579Y-63392088D03*
%TD*%
%TO.C,TP3*%
X147708579Y-65292088D03*
%TD*%
%TO.C,TP4*%
X147708579Y-67092088D03*
%TD*%
%TO.C,TP20*%
X168708579Y-65292088D03*
%TD*%
%TO.C,TP9*%
X121658579Y-64092088D03*
%TD*%
%TO.C,TP13*%
X171008579Y-64092088D03*
%TD*%
%TO.C,TP13*%
X96008579Y-64092088D03*
%TD*%
%TO.C,TP5*%
X97208579Y-63392088D03*
%TD*%
%TO.C,TP1*%
X147708579Y-66492088D03*
%TD*%
%TO.C,TP26*%
X168708579Y-67092088D03*
%TD*%
%TO.C,TP3*%
X172708579Y-65292088D03*
%TD*%
%TO.C,TP4*%
X172708579Y-67092088D03*
%TD*%
%TO.C,TP1*%
X97708579Y-66492088D03*
%TD*%
%TO.C,TP12*%
X121008579Y-67092088D03*
%TD*%
%TO.C,TP13*%
X121008579Y-64092088D03*
%TD*%
%TO.C,TP5*%
X122208579Y-63392088D03*
%TD*%
%TO.C,TP20*%
X118708579Y-65292088D03*
%TD*%
%TO.C,TP24*%
X118708579Y-66492088D03*
%TD*%
%TO.C,TP19*%
X144758579Y-64092088D03*
%TD*%
%TO.C,TP24*%
X143708579Y-66492088D03*
%TD*%
%TO.C,TP22*%
X143708579Y-65892088D03*
%TD*%
%TO.C,TP20*%
X93708579Y-65292088D03*
%TD*%
%TO.C,TP25*%
X119208579Y-63392088D03*
%TD*%
%TO.C,TP7*%
X121608579Y-63392088D03*
%TD*%
%TO.C,TP23*%
X119108579Y-64092088D03*
%TD*%
%TO.C,TP12*%
X171008579Y-67092088D03*
%TD*%
%TO.C,TP15*%
X120408579Y-64092088D03*
%TD*%
%TO.C,TP11*%
X121008579Y-63392088D03*
%TD*%
%TO.C,TP5*%
X147208579Y-63392088D03*
%TD*%
%TO.C,TP8*%
X147708579Y-64692088D03*
%TD*%
%TO.C,TP2*%
X97708579Y-65892088D03*
%TD*%
%TO.C,TP19*%
X169758579Y-64092088D03*
%TD*%
%TO.C,TP26*%
X143708579Y-67092088D03*
%TD*%
%TO.C,TP14*%
X145408579Y-67092088D03*
%TD*%
%TO.C,TP20*%
X143708579Y-65292088D03*
%TD*%
D13*
%TO.C,J1*%
X172633579Y-68082088D03*
X172283579Y-68082088D03*
X171933579Y-68082088D03*
X171583579Y-68082088D03*
X171233579Y-68082088D03*
X170883579Y-68082088D03*
X170533579Y-68082088D03*
X170183579Y-68082088D03*
X169833579Y-68082088D03*
X169483579Y-68082088D03*
X169133579Y-68082088D03*
X168783579Y-68082088D03*
D14*
X173008579Y-68227088D03*
X168408579Y-68227088D03*
%TD*%
D12*
%TO.C,TP19*%
X94758579Y-64092088D03*
%TD*%
%TO.C,TP18*%
X168708579Y-64692088D03*
%TD*%
%TO.C,TP23*%
X144108579Y-64092088D03*
%TD*%
D13*
%TO.C,J1*%
X122633579Y-68082088D03*
X122283579Y-68082088D03*
X121933579Y-68082088D03*
X121583579Y-68082088D03*
X121233579Y-68082088D03*
X120883579Y-68082088D03*
X120533579Y-68082088D03*
X120183579Y-68082088D03*
X119833579Y-68082088D03*
X119483579Y-68082088D03*
X119133579Y-68082088D03*
X118783579Y-68082088D03*
D14*
X123008579Y-68227088D03*
X118408579Y-68227088D03*
%TD*%
D12*
%TO.C,TP21*%
X119808579Y-63392088D03*
%TD*%
%TO.C,TP9*%
X171658579Y-64092088D03*
%TD*%
%TO.C,TP25*%
X144208579Y-63392088D03*
%TD*%
%TO.C,TP10*%
X121008579Y-66492088D03*
%TD*%
%TO.C,TP25*%
X94208579Y-63392088D03*
%TD*%
%TO.C,TP12*%
X146008579Y-67092088D03*
%TD*%
%TO.C,TP11*%
X171008579Y-63392088D03*
%TD*%
%TO.C,TP15*%
X170408579Y-64092088D03*
%TD*%
%TO.C,TP17*%
X170408579Y-63392088D03*
%TD*%
D13*
%TO.C,J1*%
X97633579Y-68082088D03*
X97283579Y-68082088D03*
X96933579Y-68082088D03*
X96583579Y-68082088D03*
X96233579Y-68082088D03*
X95883579Y-68082088D03*
X95533579Y-68082088D03*
X95183579Y-68082088D03*
X94833579Y-68082088D03*
X94483579Y-68082088D03*
X94133579Y-68082088D03*
X93783579Y-68082088D03*
D14*
X98008579Y-68227088D03*
X93408579Y-68227088D03*
%TD*%
D12*
%TO.C,TP10*%
X96008579Y-66492088D03*
%TD*%
%TO.C,TP15*%
X145408579Y-64092088D03*
%TD*%
%TO.C,TP17*%
X95408579Y-63392088D03*
%TD*%
%TO.C,TP6*%
X147308579Y-64092088D03*
%TD*%
%TO.C,TP14*%
X95408579Y-67092088D03*
%TD*%
%TO.C,TP5*%
X172208579Y-63392088D03*
%TD*%
%TO.C,TP8*%
X172708579Y-64692088D03*
%TD*%
%TO.C,TP9*%
X146658579Y-64092088D03*
%TD*%
%TO.C,TP2*%
X147708579Y-65892088D03*
%TD*%
%TO.C,TP2*%
X122708579Y-65892088D03*
%TD*%
%TO.C,TP8*%
X122708579Y-64692088D03*
%TD*%
%TO.C,TP11*%
X96008579Y-63392088D03*
%TD*%
%TO.C,TP6*%
X97308579Y-64092088D03*
%TD*%
%TO.C,TP22*%
X118708579Y-65892088D03*
%TD*%
%TO.C,TP10*%
X171008579Y-66492088D03*
%TD*%
%TO.C,TP26*%
X118708579Y-67092088D03*
%TD*%
%TO.C,TP19*%
X119758579Y-64092088D03*
%TD*%
%TO.C,TP22*%
X168708579Y-65892088D03*
%TD*%
%TO.C,TP1*%
X172708579Y-66492088D03*
%TD*%
%TO.C,TP14*%
X170408579Y-67092088D03*
%TD*%
%TO.C,TP10*%
X146008579Y-66492088D03*
%TD*%
%TO.C,TP16*%
X120408579Y-66492088D03*
%TD*%
%TO.C,TP16*%
X145408579Y-66492088D03*
%TD*%
%TO.C,TP25*%
X169208579Y-63392088D03*
%TD*%
%TO.C,TP11*%
X146008579Y-63392088D03*
%TD*%
%TO.C,TP18*%
X93708579Y-64692088D03*
%TD*%
%TO.C,TP23*%
X94108579Y-64092088D03*
%TD*%
%TO.C,TP18*%
X143708579Y-64692088D03*
%TD*%
%TO.C,TP22*%
X93708579Y-65892088D03*
%TD*%
%TO.C,TP21*%
X169808579Y-63392088D03*
%TD*%
%TO.C,TP21*%
X144808579Y-63392088D03*
%TD*%
%TO.C,TP9*%
X96658579Y-64092088D03*
%TD*%
%TO.C,TP16*%
X95408579Y-66492088D03*
%TD*%
%TO.C,TP12*%
X96008579Y-92092088D03*
%TD*%
D13*
%TO.C,J1*%
X147633579Y-93082088D03*
X147283579Y-93082088D03*
X146933579Y-93082088D03*
X146583579Y-93082088D03*
X146233579Y-93082088D03*
X145883579Y-93082088D03*
X145533579Y-93082088D03*
X145183579Y-93082088D03*
X144833579Y-93082088D03*
X144483579Y-93082088D03*
X144133579Y-93082088D03*
X143783579Y-93082088D03*
D14*
X148008579Y-93227088D03*
X143408579Y-93227088D03*
%TD*%
D12*
%TO.C,TP14*%
X120408579Y-92092088D03*
%TD*%
%TO.C,TP13*%
X146008579Y-89092088D03*
%TD*%
%TO.C,TP24*%
X168708579Y-91492088D03*
%TD*%
%TO.C,TP17*%
X120408579Y-88392088D03*
%TD*%
%TO.C,TP6*%
X172308579Y-89092088D03*
%TD*%
%TO.C,TP21*%
X94808579Y-88392088D03*
%TD*%
%TO.C,TP4*%
X122708579Y-92092088D03*
%TD*%
%TO.C,TP16*%
X170408579Y-91492088D03*
%TD*%
%TO.C,TP23*%
X169108579Y-89092088D03*
%TD*%
%TO.C,TP6*%
X122308579Y-89092088D03*
%TD*%
%TO.C,TP3*%
X122708579Y-90292088D03*
%TD*%
%TO.C,TP3*%
X97708579Y-90292088D03*
%TD*%
%TO.C,TP4*%
X97708579Y-92092088D03*
%TD*%
%TO.C,TP18*%
X118708579Y-89692088D03*
%TD*%
%TO.C,TP17*%
X145408579Y-88392088D03*
%TD*%
%TO.C,TP1*%
X122708579Y-91492088D03*
%TD*%
%TO.C,TP7*%
X146608579Y-88392088D03*
%TD*%
%TO.C,TP7*%
X171608579Y-88392088D03*
%TD*%
%TO.C,TP15*%
X95408579Y-89092088D03*
%TD*%
%TO.C,TP8*%
X97708579Y-89692088D03*
%TD*%
%TO.C,TP2*%
X172708579Y-90892088D03*
%TD*%
%TO.C,TP24*%
X93708579Y-91492088D03*
%TD*%
%TO.C,TP26*%
X93708579Y-92092088D03*
%TD*%
%TO.C,TP7*%
X96608579Y-88392088D03*
%TD*%
%TO.C,TP3*%
X147708579Y-90292088D03*
%TD*%
%TO.C,TP4*%
X147708579Y-92092088D03*
%TD*%
%TO.C,TP20*%
X168708579Y-90292088D03*
%TD*%
%TO.C,TP9*%
X121658579Y-89092088D03*
%TD*%
%TO.C,TP13*%
X171008579Y-89092088D03*
%TD*%
%TO.C,TP13*%
X96008579Y-89092088D03*
%TD*%
%TO.C,TP5*%
X97208579Y-88392088D03*
%TD*%
%TO.C,TP1*%
X147708579Y-91492088D03*
%TD*%
%TO.C,TP26*%
X168708579Y-92092088D03*
%TD*%
%TO.C,TP3*%
X172708579Y-90292088D03*
%TD*%
%TO.C,TP4*%
X172708579Y-92092088D03*
%TD*%
%TO.C,TP1*%
X97708579Y-91492088D03*
%TD*%
%TO.C,TP12*%
X121008579Y-92092088D03*
%TD*%
%TO.C,TP13*%
X121008579Y-89092088D03*
%TD*%
%TO.C,TP5*%
X122208579Y-88392088D03*
%TD*%
%TO.C,TP20*%
X118708579Y-90292088D03*
%TD*%
%TO.C,TP24*%
X118708579Y-91492088D03*
%TD*%
%TO.C,TP19*%
X144758579Y-89092088D03*
%TD*%
%TO.C,TP24*%
X143708579Y-91492088D03*
%TD*%
%TO.C,TP22*%
X143708579Y-90892088D03*
%TD*%
%TO.C,TP20*%
X93708579Y-90292088D03*
%TD*%
%TO.C,TP25*%
X119208579Y-88392088D03*
%TD*%
%TO.C,TP7*%
X121608579Y-88392088D03*
%TD*%
%TO.C,TP23*%
X119108579Y-89092088D03*
%TD*%
%TO.C,TP12*%
X171008579Y-92092088D03*
%TD*%
%TO.C,TP15*%
X120408579Y-89092088D03*
%TD*%
%TO.C,TP11*%
X121008579Y-88392088D03*
%TD*%
%TO.C,TP5*%
X147208579Y-88392088D03*
%TD*%
%TO.C,TP8*%
X147708579Y-89692088D03*
%TD*%
%TO.C,TP2*%
X97708579Y-90892088D03*
%TD*%
%TO.C,TP19*%
X169758579Y-89092088D03*
%TD*%
%TO.C,TP26*%
X143708579Y-92092088D03*
%TD*%
%TO.C,TP14*%
X145408579Y-92092088D03*
%TD*%
%TO.C,TP20*%
X143708579Y-90292088D03*
%TD*%
D13*
%TO.C,J1*%
X172633579Y-93082088D03*
X172283579Y-93082088D03*
X171933579Y-93082088D03*
X171583579Y-93082088D03*
X171233579Y-93082088D03*
X170883579Y-93082088D03*
X170533579Y-93082088D03*
X170183579Y-93082088D03*
X169833579Y-93082088D03*
X169483579Y-93082088D03*
X169133579Y-93082088D03*
X168783579Y-93082088D03*
D14*
X173008579Y-93227088D03*
X168408579Y-93227088D03*
%TD*%
D12*
%TO.C,TP19*%
X94758579Y-89092088D03*
%TD*%
%TO.C,TP18*%
X168708579Y-89692088D03*
%TD*%
%TO.C,TP23*%
X144108579Y-89092088D03*
%TD*%
D13*
%TO.C,J1*%
X122633579Y-93082088D03*
X122283579Y-93082088D03*
X121933579Y-93082088D03*
X121583579Y-93082088D03*
X121233579Y-93082088D03*
X120883579Y-93082088D03*
X120533579Y-93082088D03*
X120183579Y-93082088D03*
X119833579Y-93082088D03*
X119483579Y-93082088D03*
X119133579Y-93082088D03*
X118783579Y-93082088D03*
D14*
X123008579Y-93227088D03*
X118408579Y-93227088D03*
%TD*%
D12*
%TO.C,TP21*%
X119808579Y-88392088D03*
%TD*%
%TO.C,TP9*%
X171658579Y-89092088D03*
%TD*%
%TO.C,TP25*%
X144208579Y-88392088D03*
%TD*%
%TO.C,TP10*%
X121008579Y-91492088D03*
%TD*%
%TO.C,TP25*%
X94208579Y-88392088D03*
%TD*%
%TO.C,TP12*%
X146008579Y-92092088D03*
%TD*%
%TO.C,TP11*%
X171008579Y-88392088D03*
%TD*%
%TO.C,TP15*%
X170408579Y-89092088D03*
%TD*%
%TO.C,TP17*%
X170408579Y-88392088D03*
%TD*%
D13*
%TO.C,J1*%
X97633579Y-93082088D03*
X97283579Y-93082088D03*
X96933579Y-93082088D03*
X96583579Y-93082088D03*
X96233579Y-93082088D03*
X95883579Y-93082088D03*
X95533579Y-93082088D03*
X95183579Y-93082088D03*
X94833579Y-93082088D03*
X94483579Y-93082088D03*
X94133579Y-93082088D03*
X93783579Y-93082088D03*
D14*
X98008579Y-93227088D03*
X93408579Y-93227088D03*
%TD*%
D12*
%TO.C,TP10*%
X96008579Y-91492088D03*
%TD*%
%TO.C,TP15*%
X145408579Y-89092088D03*
%TD*%
%TO.C,TP17*%
X95408579Y-88392088D03*
%TD*%
%TO.C,TP6*%
X147308579Y-89092088D03*
%TD*%
%TO.C,TP14*%
X95408579Y-92092088D03*
%TD*%
%TO.C,TP5*%
X172208579Y-88392088D03*
%TD*%
%TO.C,TP8*%
X172708579Y-89692088D03*
%TD*%
%TO.C,TP9*%
X146658579Y-89092088D03*
%TD*%
%TO.C,TP2*%
X147708579Y-90892088D03*
%TD*%
%TO.C,TP2*%
X122708579Y-90892088D03*
%TD*%
%TO.C,TP8*%
X122708579Y-89692088D03*
%TD*%
%TO.C,TP11*%
X96008579Y-88392088D03*
%TD*%
%TO.C,TP6*%
X97308579Y-89092088D03*
%TD*%
%TO.C,TP22*%
X118708579Y-90892088D03*
%TD*%
%TO.C,TP10*%
X171008579Y-91492088D03*
%TD*%
%TO.C,TP26*%
X118708579Y-92092088D03*
%TD*%
%TO.C,TP19*%
X119758579Y-89092088D03*
%TD*%
%TO.C,TP22*%
X168708579Y-90892088D03*
%TD*%
%TO.C,TP1*%
X172708579Y-91492088D03*
%TD*%
%TO.C,TP14*%
X170408579Y-92092088D03*
%TD*%
%TO.C,TP10*%
X146008579Y-91492088D03*
%TD*%
%TO.C,TP16*%
X120408579Y-91492088D03*
%TD*%
%TO.C,TP16*%
X145408579Y-91492088D03*
%TD*%
%TO.C,TP25*%
X169208579Y-88392088D03*
%TD*%
%TO.C,TP11*%
X146008579Y-88392088D03*
%TD*%
%TO.C,TP18*%
X93708579Y-89692088D03*
%TD*%
%TO.C,TP23*%
X94108579Y-89092088D03*
%TD*%
%TO.C,TP18*%
X143708579Y-89692088D03*
%TD*%
%TO.C,TP22*%
X93708579Y-90892088D03*
%TD*%
%TO.C,TP21*%
X169808579Y-88392088D03*
%TD*%
%TO.C,TP21*%
X144808579Y-88392088D03*
%TD*%
%TO.C,TP9*%
X96658579Y-89092088D03*
%TD*%
%TO.C,TP16*%
X95408579Y-91492088D03*
%TD*%
%TO.C,TP21*%
X144808579Y-113392088D03*
%TD*%
%TO.C,TP21*%
X169808579Y-113392088D03*
%TD*%
%TO.C,TP18*%
X143708579Y-114692088D03*
%TD*%
%TO.C,TP11*%
X146008579Y-113392088D03*
%TD*%
%TO.C,TP25*%
X169208579Y-113392088D03*
%TD*%
%TO.C,TP16*%
X145408579Y-116492088D03*
%TD*%
%TO.C,TP16*%
X120408579Y-116492088D03*
%TD*%
%TO.C,TP10*%
X146008579Y-116492088D03*
%TD*%
%TO.C,TP14*%
X170408579Y-117092088D03*
%TD*%
%TO.C,TP1*%
X172708579Y-116492088D03*
%TD*%
%TO.C,TP22*%
X168708579Y-115892088D03*
%TD*%
%TO.C,TP19*%
X119758579Y-114092088D03*
%TD*%
%TO.C,TP26*%
X118708579Y-117092088D03*
%TD*%
%TO.C,TP10*%
X171008579Y-116492088D03*
%TD*%
%TO.C,TP22*%
X118708579Y-115892088D03*
%TD*%
%TO.C,TP8*%
X122708579Y-114692088D03*
%TD*%
%TO.C,TP2*%
X122708579Y-115892088D03*
%TD*%
%TO.C,TP2*%
X147708579Y-115892088D03*
%TD*%
%TO.C,TP9*%
X146658579Y-114092088D03*
%TD*%
%TO.C,TP8*%
X172708579Y-114692088D03*
%TD*%
%TO.C,TP5*%
X172208579Y-113392088D03*
%TD*%
%TO.C,TP6*%
X147308579Y-114092088D03*
%TD*%
%TO.C,TP15*%
X145408579Y-114092088D03*
%TD*%
%TO.C,TP17*%
X170408579Y-113392088D03*
%TD*%
%TO.C,TP15*%
X170408579Y-114092088D03*
%TD*%
%TO.C,TP11*%
X171008579Y-113392088D03*
%TD*%
%TO.C,TP12*%
X146008579Y-117092088D03*
%TD*%
%TO.C,TP10*%
X121008579Y-116492088D03*
%TD*%
%TO.C,TP25*%
X144208579Y-113392088D03*
%TD*%
%TO.C,TP9*%
X171658579Y-114092088D03*
%TD*%
%TO.C,TP21*%
X119808579Y-113392088D03*
%TD*%
D13*
%TO.C,J1*%
X122633579Y-118082088D03*
X122283579Y-118082088D03*
X121933579Y-118082088D03*
X121583579Y-118082088D03*
X121233579Y-118082088D03*
X120883579Y-118082088D03*
X120533579Y-118082088D03*
X120183579Y-118082088D03*
X119833579Y-118082088D03*
X119483579Y-118082088D03*
X119133579Y-118082088D03*
X118783579Y-118082088D03*
D14*
X123008579Y-118227088D03*
X118408579Y-118227088D03*
%TD*%
D12*
%TO.C,TP23*%
X144108579Y-114092088D03*
%TD*%
%TO.C,TP18*%
X168708579Y-114692088D03*
%TD*%
D13*
%TO.C,J1*%
X172633579Y-118082088D03*
X172283579Y-118082088D03*
X171933579Y-118082088D03*
X171583579Y-118082088D03*
X171233579Y-118082088D03*
X170883579Y-118082088D03*
X170533579Y-118082088D03*
X170183579Y-118082088D03*
X169833579Y-118082088D03*
X169483579Y-118082088D03*
X169133579Y-118082088D03*
X168783579Y-118082088D03*
D14*
X173008579Y-118227088D03*
X168408579Y-118227088D03*
%TD*%
D12*
%TO.C,TP20*%
X143708579Y-115292088D03*
%TD*%
%TO.C,TP14*%
X145408579Y-117092088D03*
%TD*%
%TO.C,TP26*%
X143708579Y-117092088D03*
%TD*%
%TO.C,TP19*%
X169758579Y-114092088D03*
%TD*%
%TO.C,TP8*%
X147708579Y-114692088D03*
%TD*%
%TO.C,TP5*%
X147208579Y-113392088D03*
%TD*%
%TO.C,TP11*%
X121008579Y-113392088D03*
%TD*%
%TO.C,TP15*%
X120408579Y-114092088D03*
%TD*%
%TO.C,TP12*%
X171008579Y-117092088D03*
%TD*%
%TO.C,TP23*%
X119108579Y-114092088D03*
%TD*%
%TO.C,TP7*%
X121608579Y-113392088D03*
%TD*%
%TO.C,TP25*%
X119208579Y-113392088D03*
%TD*%
%TO.C,TP22*%
X143708579Y-115892088D03*
%TD*%
%TO.C,TP24*%
X143708579Y-116492088D03*
%TD*%
%TO.C,TP19*%
X144758579Y-114092088D03*
%TD*%
%TO.C,TP24*%
X118708579Y-116492088D03*
%TD*%
%TO.C,TP20*%
X118708579Y-115292088D03*
%TD*%
%TO.C,TP5*%
X122208579Y-113392088D03*
%TD*%
%TO.C,TP13*%
X121008579Y-114092088D03*
%TD*%
%TO.C,TP12*%
X121008579Y-117092088D03*
%TD*%
%TO.C,TP4*%
X172708579Y-117092088D03*
%TD*%
%TO.C,TP3*%
X172708579Y-115292088D03*
%TD*%
%TO.C,TP26*%
X168708579Y-117092088D03*
%TD*%
%TO.C,TP1*%
X147708579Y-116492088D03*
%TD*%
%TO.C,TP13*%
X171008579Y-114092088D03*
%TD*%
%TO.C,TP9*%
X121658579Y-114092088D03*
%TD*%
%TO.C,TP20*%
X168708579Y-115292088D03*
%TD*%
%TO.C,TP4*%
X147708579Y-117092088D03*
%TD*%
%TO.C,TP3*%
X147708579Y-115292088D03*
%TD*%
%TO.C,TP2*%
X172708579Y-115892088D03*
%TD*%
%TO.C,TP7*%
X171608579Y-113392088D03*
%TD*%
%TO.C,TP7*%
X146608579Y-113392088D03*
%TD*%
%TO.C,TP1*%
X122708579Y-116492088D03*
%TD*%
%TO.C,TP17*%
X145408579Y-113392088D03*
%TD*%
%TO.C,TP18*%
X118708579Y-114692088D03*
%TD*%
%TO.C,TP3*%
X122708579Y-115292088D03*
%TD*%
%TO.C,TP6*%
X122308579Y-114092088D03*
%TD*%
%TO.C,TP23*%
X169108579Y-114092088D03*
%TD*%
%TO.C,TP16*%
X170408579Y-116492088D03*
%TD*%
%TO.C,TP4*%
X122708579Y-117092088D03*
%TD*%
%TO.C,TP6*%
X172308579Y-114092088D03*
%TD*%
%TO.C,TP17*%
X120408579Y-113392088D03*
%TD*%
%TO.C,TP24*%
X168708579Y-116492088D03*
%TD*%
%TO.C,TP13*%
X146008579Y-114092088D03*
%TD*%
%TO.C,TP14*%
X120408579Y-117092088D03*
%TD*%
D13*
%TO.C,J1*%
X147633579Y-118082088D03*
X147283579Y-118082088D03*
X146933579Y-118082088D03*
X146583579Y-118082088D03*
X146233579Y-118082088D03*
X145883579Y-118082088D03*
X145533579Y-118082088D03*
X145183579Y-118082088D03*
X144833579Y-118082088D03*
X144483579Y-118082088D03*
X144133579Y-118082088D03*
X143783579Y-118082088D03*
D14*
X148008579Y-118227088D03*
X143408579Y-118227088D03*
%TD*%
D12*
%TO.C,TP7*%
X96608579Y-113392088D03*
%TD*%
%TO.C,TP26*%
X93708579Y-117092088D03*
%TD*%
%TO.C,TP15*%
X95408579Y-114092088D03*
%TD*%
%TO.C,TP8*%
X97708579Y-114692088D03*
%TD*%
%TO.C,TP24*%
X93708579Y-116492088D03*
%TD*%
D15*
%TO.C,REF\u002A\u002A*%
X75500000Y-140700000D03*
%TD*%
%TO.C,REF\u002A\u002A*%
X75500000Y-40700000D03*
%TD*%
D12*
%TO.C,TP1*%
X97708579Y-116492088D03*
%TD*%
%TO.C,TP5*%
X97208579Y-113392088D03*
%TD*%
%TO.C,TP13*%
X96008579Y-114092088D03*
%TD*%
%TO.C,TP12*%
X96008579Y-117092088D03*
%TD*%
%TO.C,TP3*%
X97708579Y-115292088D03*
%TD*%
%TO.C,TP4*%
X97708579Y-117092088D03*
%TD*%
%TO.C,TP6*%
X97308579Y-114092088D03*
%TD*%
%TO.C,TP11*%
X96008579Y-113392088D03*
%TD*%
%TO.C,TP16*%
X95408579Y-116492088D03*
%TD*%
%TO.C,TP9*%
X96658579Y-114092088D03*
%TD*%
%TO.C,TP22*%
X93708579Y-115892088D03*
%TD*%
%TO.C,TP23*%
X94108579Y-114092088D03*
%TD*%
%TO.C,TP18*%
X93708579Y-114692088D03*
%TD*%
%TO.C,TP17*%
X95408579Y-113392088D03*
%TD*%
%TO.C,TP10*%
X96008579Y-116492088D03*
%TD*%
%TO.C,TP14*%
X95408579Y-117092088D03*
%TD*%
%TO.C,TP25*%
X94208579Y-113392088D03*
%TD*%
D13*
%TO.C,J1*%
X97633579Y-118082088D03*
X97283579Y-118082088D03*
X96933579Y-118082088D03*
X96583579Y-118082088D03*
X96233579Y-118082088D03*
X95883579Y-118082088D03*
X95533579Y-118082088D03*
X95183579Y-118082088D03*
X94833579Y-118082088D03*
X94483579Y-118082088D03*
X94133579Y-118082088D03*
X93783579Y-118082088D03*
D14*
X98008579Y-118227088D03*
X93408579Y-118227088D03*
%TD*%
D15*
%TO.C,REF\u002A\u002A*%
X190500000Y-40700000D03*
%TD*%
D12*
%TO.C,TP19*%
X94758579Y-114092088D03*
%TD*%
%TO.C,TP2*%
X97708579Y-115892088D03*
%TD*%
%TO.C,TP20*%
X93708579Y-115292088D03*
%TD*%
%TO.C,TP21*%
X94808579Y-113392088D03*
%TD*%
D15*
%TO.C,REF\u002A\u002A*%
X190500000Y-140700000D03*
%TD*%
M02*
