%TF.GenerationSoftware,KiCad,Pcbnew,(6.0.0)*%
%TF.CreationDate,2022-03-28T07:48:23-07:00*%
%TF.ProjectId,pupdrive-eib24_panel,70757064-7269-4766-952d-65696232345f,A*%
%TF.SameCoordinates,Original*%
%TF.FileFunction,AssemblyDrawing,Bot*%
%FSLAX46Y46*%
G04 Gerber Fmt 4.6, Leading zero omitted, Abs format (unit mm)*
G04 Created by KiCad (PCBNEW (6.0.0)) date 2022-03-28 07:48:23*
%MOMM*%
%LPD*%
G01*
G04 APERTURE LIST*
%ADD10C,0.150000*%
G04 APERTURE END LIST*
D10*
%TO.C,J2*%
X90849964Y-82154726D02*
X90945202Y-82154726D01*
X91040440Y-82107107D01*
X91088059Y-82059487D01*
X91135678Y-81964249D01*
X91183297Y-81773773D01*
X91183297Y-81535678D01*
X91135678Y-81345202D01*
X91088059Y-81249964D01*
X91040440Y-81202345D01*
X90945202Y-81154726D01*
X90849964Y-81154726D01*
X90754726Y-81202345D01*
X90707107Y-81249964D01*
X90659487Y-81345202D01*
X90611868Y-81535678D01*
X90611868Y-81773773D01*
X90659487Y-81964249D01*
X90707107Y-82059487D01*
X90754726Y-82107107D01*
X90849964Y-82154726D01*
X92088059Y-82154726D02*
X91611868Y-82154726D01*
X91564249Y-81678535D01*
X91611868Y-81726154D01*
X91707107Y-81773773D01*
X91945202Y-81773773D01*
X92040440Y-81726154D01*
X92088059Y-81678535D01*
X92135678Y-81583297D01*
X92135678Y-81345202D01*
X92088059Y-81249964D01*
X92040440Y-81202345D01*
X91945202Y-81154726D01*
X91707107Y-81154726D01*
X91611868Y-81202345D01*
X91564249Y-81249964D01*
X92754726Y-82154726D02*
X92849964Y-82154726D01*
X92945202Y-82107107D01*
X92992821Y-82059487D01*
X93040440Y-81964249D01*
X93088059Y-81773773D01*
X93088059Y-81535678D01*
X93040440Y-81345202D01*
X92992821Y-81249964D01*
X92945202Y-81202345D01*
X92849964Y-81154726D01*
X92754726Y-81154726D01*
X92659487Y-81202345D01*
X92611868Y-81249964D01*
X92564249Y-81345202D01*
X92516630Y-81535678D01*
X92516630Y-81773773D01*
X92564249Y-81964249D01*
X92611868Y-82059487D01*
X92659487Y-82107107D01*
X92754726Y-82154726D01*
X93421392Y-82154726D02*
X94088059Y-82154726D01*
X93659487Y-81154726D01*
X94659487Y-82154726D02*
X94754726Y-82154726D01*
X94849964Y-82107107D01*
X94897583Y-82059487D01*
X94945202Y-81964249D01*
X94992821Y-81773773D01*
X94992821Y-81535678D01*
X94945202Y-81345202D01*
X94897583Y-81249964D01*
X94849964Y-81202345D01*
X94754726Y-81154726D01*
X94659487Y-81154726D01*
X94564249Y-81202345D01*
X94516630Y-81249964D01*
X94469011Y-81345202D01*
X94421392Y-81535678D01*
X94421392Y-81773773D01*
X94469011Y-81964249D01*
X94516630Y-82059487D01*
X94564249Y-82107107D01*
X94659487Y-82154726D01*
X95373773Y-82059487D02*
X95421392Y-82107107D01*
X95516630Y-82154726D01*
X95754726Y-82154726D01*
X95849964Y-82107107D01*
X95897583Y-82059487D01*
X95945202Y-81964249D01*
X95945202Y-81869011D01*
X95897583Y-81726154D01*
X95326154Y-81154726D01*
X95945202Y-81154726D01*
X96802345Y-81821392D02*
X96802345Y-81154726D01*
X96564249Y-82202345D02*
X96326154Y-81488059D01*
X96945202Y-81488059D01*
X97278535Y-82059487D02*
X97326154Y-82107107D01*
X97421392Y-82154726D01*
X97659487Y-82154726D01*
X97754726Y-82107107D01*
X97802345Y-82059487D01*
X97849964Y-81964249D01*
X97849964Y-81869011D01*
X97802345Y-81726154D01*
X97230916Y-81154726D01*
X97849964Y-81154726D01*
X98230916Y-82059487D02*
X98278535Y-82107107D01*
X98373773Y-82154726D01*
X98611868Y-82154726D01*
X98707107Y-82107107D01*
X98754726Y-82059487D01*
X98802345Y-81964249D01*
X98802345Y-81869011D01*
X98754726Y-81726154D01*
X98183297Y-81154726D01*
X98802345Y-81154726D01*
X94373773Y-86454726D02*
X94373773Y-85740440D01*
X94326154Y-85597583D01*
X94230916Y-85502345D01*
X94088059Y-85454726D01*
X93992821Y-85454726D01*
X94802345Y-86359487D02*
X94849964Y-86407107D01*
X94945202Y-86454726D01*
X95183297Y-86454726D01*
X95278535Y-86407107D01*
X95326154Y-86359487D01*
X95373773Y-86264249D01*
X95373773Y-86169011D01*
X95326154Y-86026154D01*
X94754726Y-85454726D01*
X95373773Y-85454726D01*
X165849964Y-60854726D02*
X165945202Y-60854726D01*
X166040440Y-60807107D01*
X166088059Y-60759487D01*
X166135678Y-60664249D01*
X166183297Y-60473773D01*
X166183297Y-60235678D01*
X166135678Y-60045202D01*
X166088059Y-59949964D01*
X166040440Y-59902345D01*
X165945202Y-59854726D01*
X165849964Y-59854726D01*
X165754726Y-59902345D01*
X165707107Y-59949964D01*
X165659487Y-60045202D01*
X165611868Y-60235678D01*
X165611868Y-60473773D01*
X165659487Y-60664249D01*
X165707107Y-60759487D01*
X165754726Y-60807107D01*
X165849964Y-60854726D01*
X167088059Y-60854726D02*
X166611868Y-60854726D01*
X166564249Y-60378535D01*
X166611868Y-60426154D01*
X166707107Y-60473773D01*
X166945202Y-60473773D01*
X167040440Y-60426154D01*
X167088059Y-60378535D01*
X167135678Y-60283297D01*
X167135678Y-60045202D01*
X167088059Y-59949964D01*
X167040440Y-59902345D01*
X166945202Y-59854726D01*
X166707107Y-59854726D01*
X166611868Y-59902345D01*
X166564249Y-59949964D01*
X167754726Y-60854726D02*
X167849964Y-60854726D01*
X167945202Y-60807107D01*
X167992821Y-60759487D01*
X168040440Y-60664249D01*
X168088059Y-60473773D01*
X168088059Y-60235678D01*
X168040440Y-60045202D01*
X167992821Y-59949964D01*
X167945202Y-59902345D01*
X167849964Y-59854726D01*
X167754726Y-59854726D01*
X167659487Y-59902345D01*
X167611868Y-59949964D01*
X167564249Y-60045202D01*
X167516630Y-60235678D01*
X167516630Y-60473773D01*
X167564249Y-60664249D01*
X167611868Y-60759487D01*
X167659487Y-60807107D01*
X167754726Y-60854726D01*
X168421392Y-60854726D02*
X169088059Y-60854726D01*
X168659487Y-59854726D01*
X169659487Y-60854726D02*
X169754726Y-60854726D01*
X169849964Y-60807107D01*
X169897583Y-60759487D01*
X169945202Y-60664249D01*
X169992821Y-60473773D01*
X169992821Y-60235678D01*
X169945202Y-60045202D01*
X169897583Y-59949964D01*
X169849964Y-59902345D01*
X169754726Y-59854726D01*
X169659487Y-59854726D01*
X169564249Y-59902345D01*
X169516630Y-59949964D01*
X169469011Y-60045202D01*
X169421392Y-60235678D01*
X169421392Y-60473773D01*
X169469011Y-60664249D01*
X169516630Y-60759487D01*
X169564249Y-60807107D01*
X169659487Y-60854726D01*
X170373773Y-60759487D02*
X170421392Y-60807107D01*
X170516630Y-60854726D01*
X170754726Y-60854726D01*
X170849964Y-60807107D01*
X170897583Y-60759487D01*
X170945202Y-60664249D01*
X170945202Y-60569011D01*
X170897583Y-60426154D01*
X170326154Y-59854726D01*
X170945202Y-59854726D01*
X171802345Y-60521392D02*
X171802345Y-59854726D01*
X171564249Y-60902345D02*
X171326154Y-60188059D01*
X171945202Y-60188059D01*
X172278535Y-60759487D02*
X172326154Y-60807107D01*
X172421392Y-60854726D01*
X172659487Y-60854726D01*
X172754726Y-60807107D01*
X172802345Y-60759487D01*
X172849964Y-60664249D01*
X172849964Y-60569011D01*
X172802345Y-60426154D01*
X172230916Y-59854726D01*
X172849964Y-59854726D01*
X173230916Y-60759487D02*
X173278535Y-60807107D01*
X173373773Y-60854726D01*
X173611868Y-60854726D01*
X173707107Y-60807107D01*
X173754726Y-60759487D01*
X173802345Y-60664249D01*
X173802345Y-60569011D01*
X173754726Y-60426154D01*
X173183297Y-59854726D01*
X173802345Y-59854726D01*
X169373773Y-65154726D02*
X169373773Y-64440440D01*
X169326154Y-64297583D01*
X169230916Y-64202345D01*
X169088059Y-64154726D01*
X168992821Y-64154726D01*
X169802345Y-65059487D02*
X169849964Y-65107107D01*
X169945202Y-65154726D01*
X170183297Y-65154726D01*
X170278535Y-65107107D01*
X170326154Y-65059487D01*
X170373773Y-64964249D01*
X170373773Y-64869011D01*
X170326154Y-64726154D01*
X169754726Y-64154726D01*
X170373773Y-64154726D01*
X115849964Y-60854726D02*
X115945202Y-60854726D01*
X116040440Y-60807107D01*
X116088059Y-60759487D01*
X116135678Y-60664249D01*
X116183297Y-60473773D01*
X116183297Y-60235678D01*
X116135678Y-60045202D01*
X116088059Y-59949964D01*
X116040440Y-59902345D01*
X115945202Y-59854726D01*
X115849964Y-59854726D01*
X115754726Y-59902345D01*
X115707107Y-59949964D01*
X115659487Y-60045202D01*
X115611868Y-60235678D01*
X115611868Y-60473773D01*
X115659487Y-60664249D01*
X115707107Y-60759487D01*
X115754726Y-60807107D01*
X115849964Y-60854726D01*
X117088059Y-60854726D02*
X116611868Y-60854726D01*
X116564249Y-60378535D01*
X116611868Y-60426154D01*
X116707107Y-60473773D01*
X116945202Y-60473773D01*
X117040440Y-60426154D01*
X117088059Y-60378535D01*
X117135678Y-60283297D01*
X117135678Y-60045202D01*
X117088059Y-59949964D01*
X117040440Y-59902345D01*
X116945202Y-59854726D01*
X116707107Y-59854726D01*
X116611868Y-59902345D01*
X116564249Y-59949964D01*
X117754726Y-60854726D02*
X117849964Y-60854726D01*
X117945202Y-60807107D01*
X117992821Y-60759487D01*
X118040440Y-60664249D01*
X118088059Y-60473773D01*
X118088059Y-60235678D01*
X118040440Y-60045202D01*
X117992821Y-59949964D01*
X117945202Y-59902345D01*
X117849964Y-59854726D01*
X117754726Y-59854726D01*
X117659487Y-59902345D01*
X117611868Y-59949964D01*
X117564249Y-60045202D01*
X117516630Y-60235678D01*
X117516630Y-60473773D01*
X117564249Y-60664249D01*
X117611868Y-60759487D01*
X117659487Y-60807107D01*
X117754726Y-60854726D01*
X118421392Y-60854726D02*
X119088059Y-60854726D01*
X118659487Y-59854726D01*
X119659487Y-60854726D02*
X119754726Y-60854726D01*
X119849964Y-60807107D01*
X119897583Y-60759487D01*
X119945202Y-60664249D01*
X119992821Y-60473773D01*
X119992821Y-60235678D01*
X119945202Y-60045202D01*
X119897583Y-59949964D01*
X119849964Y-59902345D01*
X119754726Y-59854726D01*
X119659487Y-59854726D01*
X119564249Y-59902345D01*
X119516630Y-59949964D01*
X119469011Y-60045202D01*
X119421392Y-60235678D01*
X119421392Y-60473773D01*
X119469011Y-60664249D01*
X119516630Y-60759487D01*
X119564249Y-60807107D01*
X119659487Y-60854726D01*
X120373773Y-60759487D02*
X120421392Y-60807107D01*
X120516630Y-60854726D01*
X120754726Y-60854726D01*
X120849964Y-60807107D01*
X120897583Y-60759487D01*
X120945202Y-60664249D01*
X120945202Y-60569011D01*
X120897583Y-60426154D01*
X120326154Y-59854726D01*
X120945202Y-59854726D01*
X121802345Y-60521392D02*
X121802345Y-59854726D01*
X121564249Y-60902345D02*
X121326154Y-60188059D01*
X121945202Y-60188059D01*
X122278535Y-60759487D02*
X122326154Y-60807107D01*
X122421392Y-60854726D01*
X122659487Y-60854726D01*
X122754726Y-60807107D01*
X122802345Y-60759487D01*
X122849964Y-60664249D01*
X122849964Y-60569011D01*
X122802345Y-60426154D01*
X122230916Y-59854726D01*
X122849964Y-59854726D01*
X123230916Y-60759487D02*
X123278535Y-60807107D01*
X123373773Y-60854726D01*
X123611868Y-60854726D01*
X123707107Y-60807107D01*
X123754726Y-60759487D01*
X123802345Y-60664249D01*
X123802345Y-60569011D01*
X123754726Y-60426154D01*
X123183297Y-59854726D01*
X123802345Y-59854726D01*
X119373773Y-65154726D02*
X119373773Y-64440440D01*
X119326154Y-64297583D01*
X119230916Y-64202345D01*
X119088059Y-64154726D01*
X118992821Y-64154726D01*
X119802345Y-65059487D02*
X119849964Y-65107107D01*
X119945202Y-65154726D01*
X120183297Y-65154726D01*
X120278535Y-65107107D01*
X120326154Y-65059487D01*
X120373773Y-64964249D01*
X120373773Y-64869011D01*
X120326154Y-64726154D01*
X119754726Y-64154726D01*
X120373773Y-64154726D01*
X140849964Y-102154726D02*
X140945202Y-102154726D01*
X141040440Y-102107107D01*
X141088059Y-102059487D01*
X141135678Y-101964249D01*
X141183297Y-101773773D01*
X141183297Y-101535678D01*
X141135678Y-101345202D01*
X141088059Y-101249964D01*
X141040440Y-101202345D01*
X140945202Y-101154726D01*
X140849964Y-101154726D01*
X140754726Y-101202345D01*
X140707107Y-101249964D01*
X140659487Y-101345202D01*
X140611868Y-101535678D01*
X140611868Y-101773773D01*
X140659487Y-101964249D01*
X140707107Y-102059487D01*
X140754726Y-102107107D01*
X140849964Y-102154726D01*
X142088059Y-102154726D02*
X141611868Y-102154726D01*
X141564249Y-101678535D01*
X141611868Y-101726154D01*
X141707107Y-101773773D01*
X141945202Y-101773773D01*
X142040440Y-101726154D01*
X142088059Y-101678535D01*
X142135678Y-101583297D01*
X142135678Y-101345202D01*
X142088059Y-101249964D01*
X142040440Y-101202345D01*
X141945202Y-101154726D01*
X141707107Y-101154726D01*
X141611868Y-101202345D01*
X141564249Y-101249964D01*
X142754726Y-102154726D02*
X142849964Y-102154726D01*
X142945202Y-102107107D01*
X142992821Y-102059487D01*
X143040440Y-101964249D01*
X143088059Y-101773773D01*
X143088059Y-101535678D01*
X143040440Y-101345202D01*
X142992821Y-101249964D01*
X142945202Y-101202345D01*
X142849964Y-101154726D01*
X142754726Y-101154726D01*
X142659487Y-101202345D01*
X142611868Y-101249964D01*
X142564249Y-101345202D01*
X142516630Y-101535678D01*
X142516630Y-101773773D01*
X142564249Y-101964249D01*
X142611868Y-102059487D01*
X142659487Y-102107107D01*
X142754726Y-102154726D01*
X143421392Y-102154726D02*
X144088059Y-102154726D01*
X143659487Y-101154726D01*
X144659487Y-102154726D02*
X144754726Y-102154726D01*
X144849964Y-102107107D01*
X144897583Y-102059487D01*
X144945202Y-101964249D01*
X144992821Y-101773773D01*
X144992821Y-101535678D01*
X144945202Y-101345202D01*
X144897583Y-101249964D01*
X144849964Y-101202345D01*
X144754726Y-101154726D01*
X144659487Y-101154726D01*
X144564249Y-101202345D01*
X144516630Y-101249964D01*
X144469011Y-101345202D01*
X144421392Y-101535678D01*
X144421392Y-101773773D01*
X144469011Y-101964249D01*
X144516630Y-102059487D01*
X144564249Y-102107107D01*
X144659487Y-102154726D01*
X145373773Y-102059487D02*
X145421392Y-102107107D01*
X145516630Y-102154726D01*
X145754726Y-102154726D01*
X145849964Y-102107107D01*
X145897583Y-102059487D01*
X145945202Y-101964249D01*
X145945202Y-101869011D01*
X145897583Y-101726154D01*
X145326154Y-101154726D01*
X145945202Y-101154726D01*
X146802345Y-101821392D02*
X146802345Y-101154726D01*
X146564249Y-102202345D02*
X146326154Y-101488059D01*
X146945202Y-101488059D01*
X147278535Y-102059487D02*
X147326154Y-102107107D01*
X147421392Y-102154726D01*
X147659487Y-102154726D01*
X147754726Y-102107107D01*
X147802345Y-102059487D01*
X147849964Y-101964249D01*
X147849964Y-101869011D01*
X147802345Y-101726154D01*
X147230916Y-101154726D01*
X147849964Y-101154726D01*
X148230916Y-102059487D02*
X148278535Y-102107107D01*
X148373773Y-102154726D01*
X148611868Y-102154726D01*
X148707107Y-102107107D01*
X148754726Y-102059487D01*
X148802345Y-101964249D01*
X148802345Y-101869011D01*
X148754726Y-101726154D01*
X148183297Y-101154726D01*
X148802345Y-101154726D01*
X144373773Y-106454726D02*
X144373773Y-105740440D01*
X144326154Y-105597583D01*
X144230916Y-105502345D01*
X144088059Y-105454726D01*
X143992821Y-105454726D01*
X144802345Y-106359487D02*
X144849964Y-106407107D01*
X144945202Y-106454726D01*
X145183297Y-106454726D01*
X145278535Y-106407107D01*
X145326154Y-106359487D01*
X145373773Y-106264249D01*
X145373773Y-106169011D01*
X145326154Y-106026154D01*
X144754726Y-105454726D01*
X145373773Y-105454726D01*
X140849964Y-122154726D02*
X140945202Y-122154726D01*
X141040440Y-122107107D01*
X141088059Y-122059487D01*
X141135678Y-121964249D01*
X141183297Y-121773773D01*
X141183297Y-121535678D01*
X141135678Y-121345202D01*
X141088059Y-121249964D01*
X141040440Y-121202345D01*
X140945202Y-121154726D01*
X140849964Y-121154726D01*
X140754726Y-121202345D01*
X140707107Y-121249964D01*
X140659487Y-121345202D01*
X140611868Y-121535678D01*
X140611868Y-121773773D01*
X140659487Y-121964249D01*
X140707107Y-122059487D01*
X140754726Y-122107107D01*
X140849964Y-122154726D01*
X142088059Y-122154726D02*
X141611868Y-122154726D01*
X141564249Y-121678535D01*
X141611868Y-121726154D01*
X141707107Y-121773773D01*
X141945202Y-121773773D01*
X142040440Y-121726154D01*
X142088059Y-121678535D01*
X142135678Y-121583297D01*
X142135678Y-121345202D01*
X142088059Y-121249964D01*
X142040440Y-121202345D01*
X141945202Y-121154726D01*
X141707107Y-121154726D01*
X141611868Y-121202345D01*
X141564249Y-121249964D01*
X142754726Y-122154726D02*
X142849964Y-122154726D01*
X142945202Y-122107107D01*
X142992821Y-122059487D01*
X143040440Y-121964249D01*
X143088059Y-121773773D01*
X143088059Y-121535678D01*
X143040440Y-121345202D01*
X142992821Y-121249964D01*
X142945202Y-121202345D01*
X142849964Y-121154726D01*
X142754726Y-121154726D01*
X142659487Y-121202345D01*
X142611868Y-121249964D01*
X142564249Y-121345202D01*
X142516630Y-121535678D01*
X142516630Y-121773773D01*
X142564249Y-121964249D01*
X142611868Y-122059487D01*
X142659487Y-122107107D01*
X142754726Y-122154726D01*
X143421392Y-122154726D02*
X144088059Y-122154726D01*
X143659487Y-121154726D01*
X144659487Y-122154726D02*
X144754726Y-122154726D01*
X144849964Y-122107107D01*
X144897583Y-122059487D01*
X144945202Y-121964249D01*
X144992821Y-121773773D01*
X144992821Y-121535678D01*
X144945202Y-121345202D01*
X144897583Y-121249964D01*
X144849964Y-121202345D01*
X144754726Y-121154726D01*
X144659487Y-121154726D01*
X144564249Y-121202345D01*
X144516630Y-121249964D01*
X144469011Y-121345202D01*
X144421392Y-121535678D01*
X144421392Y-121773773D01*
X144469011Y-121964249D01*
X144516630Y-122059487D01*
X144564249Y-122107107D01*
X144659487Y-122154726D01*
X145373773Y-122059487D02*
X145421392Y-122107107D01*
X145516630Y-122154726D01*
X145754726Y-122154726D01*
X145849964Y-122107107D01*
X145897583Y-122059487D01*
X145945202Y-121964249D01*
X145945202Y-121869011D01*
X145897583Y-121726154D01*
X145326154Y-121154726D01*
X145945202Y-121154726D01*
X146802345Y-121821392D02*
X146802345Y-121154726D01*
X146564249Y-122202345D02*
X146326154Y-121488059D01*
X146945202Y-121488059D01*
X147278535Y-122059487D02*
X147326154Y-122107107D01*
X147421392Y-122154726D01*
X147659487Y-122154726D01*
X147754726Y-122107107D01*
X147802345Y-122059487D01*
X147849964Y-121964249D01*
X147849964Y-121869011D01*
X147802345Y-121726154D01*
X147230916Y-121154726D01*
X147849964Y-121154726D01*
X148230916Y-122059487D02*
X148278535Y-122107107D01*
X148373773Y-122154726D01*
X148611868Y-122154726D01*
X148707107Y-122107107D01*
X148754726Y-122059487D01*
X148802345Y-121964249D01*
X148802345Y-121869011D01*
X148754726Y-121726154D01*
X148183297Y-121154726D01*
X148802345Y-121154726D01*
X144373773Y-126454726D02*
X144373773Y-125740440D01*
X144326154Y-125597583D01*
X144230916Y-125502345D01*
X144088059Y-125454726D01*
X143992821Y-125454726D01*
X144802345Y-126359487D02*
X144849964Y-126407107D01*
X144945202Y-126454726D01*
X145183297Y-126454726D01*
X145278535Y-126407107D01*
X145326154Y-126359487D01*
X145373773Y-126264249D01*
X145373773Y-126169011D01*
X145326154Y-126026154D01*
X144754726Y-125454726D01*
X145373773Y-125454726D01*
X90849964Y-60854726D02*
X90945202Y-60854726D01*
X91040440Y-60807107D01*
X91088059Y-60759487D01*
X91135678Y-60664249D01*
X91183297Y-60473773D01*
X91183297Y-60235678D01*
X91135678Y-60045202D01*
X91088059Y-59949964D01*
X91040440Y-59902345D01*
X90945202Y-59854726D01*
X90849964Y-59854726D01*
X90754726Y-59902345D01*
X90707107Y-59949964D01*
X90659487Y-60045202D01*
X90611868Y-60235678D01*
X90611868Y-60473773D01*
X90659487Y-60664249D01*
X90707107Y-60759487D01*
X90754726Y-60807107D01*
X90849964Y-60854726D01*
X92088059Y-60854726D02*
X91611868Y-60854726D01*
X91564249Y-60378535D01*
X91611868Y-60426154D01*
X91707107Y-60473773D01*
X91945202Y-60473773D01*
X92040440Y-60426154D01*
X92088059Y-60378535D01*
X92135678Y-60283297D01*
X92135678Y-60045202D01*
X92088059Y-59949964D01*
X92040440Y-59902345D01*
X91945202Y-59854726D01*
X91707107Y-59854726D01*
X91611868Y-59902345D01*
X91564249Y-59949964D01*
X92754726Y-60854726D02*
X92849964Y-60854726D01*
X92945202Y-60807107D01*
X92992821Y-60759487D01*
X93040440Y-60664249D01*
X93088059Y-60473773D01*
X93088059Y-60235678D01*
X93040440Y-60045202D01*
X92992821Y-59949964D01*
X92945202Y-59902345D01*
X92849964Y-59854726D01*
X92754726Y-59854726D01*
X92659487Y-59902345D01*
X92611868Y-59949964D01*
X92564249Y-60045202D01*
X92516630Y-60235678D01*
X92516630Y-60473773D01*
X92564249Y-60664249D01*
X92611868Y-60759487D01*
X92659487Y-60807107D01*
X92754726Y-60854726D01*
X93421392Y-60854726D02*
X94088059Y-60854726D01*
X93659487Y-59854726D01*
X94659487Y-60854726D02*
X94754726Y-60854726D01*
X94849964Y-60807107D01*
X94897583Y-60759487D01*
X94945202Y-60664249D01*
X94992821Y-60473773D01*
X94992821Y-60235678D01*
X94945202Y-60045202D01*
X94897583Y-59949964D01*
X94849964Y-59902345D01*
X94754726Y-59854726D01*
X94659487Y-59854726D01*
X94564249Y-59902345D01*
X94516630Y-59949964D01*
X94469011Y-60045202D01*
X94421392Y-60235678D01*
X94421392Y-60473773D01*
X94469011Y-60664249D01*
X94516630Y-60759487D01*
X94564249Y-60807107D01*
X94659487Y-60854726D01*
X95373773Y-60759487D02*
X95421392Y-60807107D01*
X95516630Y-60854726D01*
X95754726Y-60854726D01*
X95849964Y-60807107D01*
X95897583Y-60759487D01*
X95945202Y-60664249D01*
X95945202Y-60569011D01*
X95897583Y-60426154D01*
X95326154Y-59854726D01*
X95945202Y-59854726D01*
X96802345Y-60521392D02*
X96802345Y-59854726D01*
X96564249Y-60902345D02*
X96326154Y-60188059D01*
X96945202Y-60188059D01*
X97278535Y-60759487D02*
X97326154Y-60807107D01*
X97421392Y-60854726D01*
X97659487Y-60854726D01*
X97754726Y-60807107D01*
X97802345Y-60759487D01*
X97849964Y-60664249D01*
X97849964Y-60569011D01*
X97802345Y-60426154D01*
X97230916Y-59854726D01*
X97849964Y-59854726D01*
X98230916Y-60759487D02*
X98278535Y-60807107D01*
X98373773Y-60854726D01*
X98611868Y-60854726D01*
X98707107Y-60807107D01*
X98754726Y-60759487D01*
X98802345Y-60664249D01*
X98802345Y-60569011D01*
X98754726Y-60426154D01*
X98183297Y-59854726D01*
X98802345Y-59854726D01*
X94373773Y-65154726D02*
X94373773Y-64440440D01*
X94326154Y-64297583D01*
X94230916Y-64202345D01*
X94088059Y-64154726D01*
X93992821Y-64154726D01*
X94802345Y-65059487D02*
X94849964Y-65107107D01*
X94945202Y-65154726D01*
X95183297Y-65154726D01*
X95278535Y-65107107D01*
X95326154Y-65059487D01*
X95373773Y-64964249D01*
X95373773Y-64869011D01*
X95326154Y-64726154D01*
X94754726Y-64154726D01*
X95373773Y-64154726D01*
X165849964Y-82154726D02*
X165945202Y-82154726D01*
X166040440Y-82107107D01*
X166088059Y-82059487D01*
X166135678Y-81964249D01*
X166183297Y-81773773D01*
X166183297Y-81535678D01*
X166135678Y-81345202D01*
X166088059Y-81249964D01*
X166040440Y-81202345D01*
X165945202Y-81154726D01*
X165849964Y-81154726D01*
X165754726Y-81202345D01*
X165707107Y-81249964D01*
X165659487Y-81345202D01*
X165611868Y-81535678D01*
X165611868Y-81773773D01*
X165659487Y-81964249D01*
X165707107Y-82059487D01*
X165754726Y-82107107D01*
X165849964Y-82154726D01*
X167088059Y-82154726D02*
X166611868Y-82154726D01*
X166564249Y-81678535D01*
X166611868Y-81726154D01*
X166707107Y-81773773D01*
X166945202Y-81773773D01*
X167040440Y-81726154D01*
X167088059Y-81678535D01*
X167135678Y-81583297D01*
X167135678Y-81345202D01*
X167088059Y-81249964D01*
X167040440Y-81202345D01*
X166945202Y-81154726D01*
X166707107Y-81154726D01*
X166611868Y-81202345D01*
X166564249Y-81249964D01*
X167754726Y-82154726D02*
X167849964Y-82154726D01*
X167945202Y-82107107D01*
X167992821Y-82059487D01*
X168040440Y-81964249D01*
X168088059Y-81773773D01*
X168088059Y-81535678D01*
X168040440Y-81345202D01*
X167992821Y-81249964D01*
X167945202Y-81202345D01*
X167849964Y-81154726D01*
X167754726Y-81154726D01*
X167659487Y-81202345D01*
X167611868Y-81249964D01*
X167564249Y-81345202D01*
X167516630Y-81535678D01*
X167516630Y-81773773D01*
X167564249Y-81964249D01*
X167611868Y-82059487D01*
X167659487Y-82107107D01*
X167754726Y-82154726D01*
X168421392Y-82154726D02*
X169088059Y-82154726D01*
X168659487Y-81154726D01*
X169659487Y-82154726D02*
X169754726Y-82154726D01*
X169849964Y-82107107D01*
X169897583Y-82059487D01*
X169945202Y-81964249D01*
X169992821Y-81773773D01*
X169992821Y-81535678D01*
X169945202Y-81345202D01*
X169897583Y-81249964D01*
X169849964Y-81202345D01*
X169754726Y-81154726D01*
X169659487Y-81154726D01*
X169564249Y-81202345D01*
X169516630Y-81249964D01*
X169469011Y-81345202D01*
X169421392Y-81535678D01*
X169421392Y-81773773D01*
X169469011Y-81964249D01*
X169516630Y-82059487D01*
X169564249Y-82107107D01*
X169659487Y-82154726D01*
X170373773Y-82059487D02*
X170421392Y-82107107D01*
X170516630Y-82154726D01*
X170754726Y-82154726D01*
X170849964Y-82107107D01*
X170897583Y-82059487D01*
X170945202Y-81964249D01*
X170945202Y-81869011D01*
X170897583Y-81726154D01*
X170326154Y-81154726D01*
X170945202Y-81154726D01*
X171802345Y-81821392D02*
X171802345Y-81154726D01*
X171564249Y-82202345D02*
X171326154Y-81488059D01*
X171945202Y-81488059D01*
X172278535Y-82059487D02*
X172326154Y-82107107D01*
X172421392Y-82154726D01*
X172659487Y-82154726D01*
X172754726Y-82107107D01*
X172802345Y-82059487D01*
X172849964Y-81964249D01*
X172849964Y-81869011D01*
X172802345Y-81726154D01*
X172230916Y-81154726D01*
X172849964Y-81154726D01*
X173230916Y-82059487D02*
X173278535Y-82107107D01*
X173373773Y-82154726D01*
X173611868Y-82154726D01*
X173707107Y-82107107D01*
X173754726Y-82059487D01*
X173802345Y-81964249D01*
X173802345Y-81869011D01*
X173754726Y-81726154D01*
X173183297Y-81154726D01*
X173802345Y-81154726D01*
X169373773Y-86454726D02*
X169373773Y-85740440D01*
X169326154Y-85597583D01*
X169230916Y-85502345D01*
X169088059Y-85454726D01*
X168992821Y-85454726D01*
X169802345Y-86359487D02*
X169849964Y-86407107D01*
X169945202Y-86454726D01*
X170183297Y-86454726D01*
X170278535Y-86407107D01*
X170326154Y-86359487D01*
X170373773Y-86264249D01*
X170373773Y-86169011D01*
X170326154Y-86026154D01*
X169754726Y-85454726D01*
X170373773Y-85454726D01*
X165849964Y-122154726D02*
X165945202Y-122154726D01*
X166040440Y-122107107D01*
X166088059Y-122059487D01*
X166135678Y-121964249D01*
X166183297Y-121773773D01*
X166183297Y-121535678D01*
X166135678Y-121345202D01*
X166088059Y-121249964D01*
X166040440Y-121202345D01*
X165945202Y-121154726D01*
X165849964Y-121154726D01*
X165754726Y-121202345D01*
X165707107Y-121249964D01*
X165659487Y-121345202D01*
X165611868Y-121535678D01*
X165611868Y-121773773D01*
X165659487Y-121964249D01*
X165707107Y-122059487D01*
X165754726Y-122107107D01*
X165849964Y-122154726D01*
X167088059Y-122154726D02*
X166611868Y-122154726D01*
X166564249Y-121678535D01*
X166611868Y-121726154D01*
X166707107Y-121773773D01*
X166945202Y-121773773D01*
X167040440Y-121726154D01*
X167088059Y-121678535D01*
X167135678Y-121583297D01*
X167135678Y-121345202D01*
X167088059Y-121249964D01*
X167040440Y-121202345D01*
X166945202Y-121154726D01*
X166707107Y-121154726D01*
X166611868Y-121202345D01*
X166564249Y-121249964D01*
X167754726Y-122154726D02*
X167849964Y-122154726D01*
X167945202Y-122107107D01*
X167992821Y-122059487D01*
X168040440Y-121964249D01*
X168088059Y-121773773D01*
X168088059Y-121535678D01*
X168040440Y-121345202D01*
X167992821Y-121249964D01*
X167945202Y-121202345D01*
X167849964Y-121154726D01*
X167754726Y-121154726D01*
X167659487Y-121202345D01*
X167611868Y-121249964D01*
X167564249Y-121345202D01*
X167516630Y-121535678D01*
X167516630Y-121773773D01*
X167564249Y-121964249D01*
X167611868Y-122059487D01*
X167659487Y-122107107D01*
X167754726Y-122154726D01*
X168421392Y-122154726D02*
X169088059Y-122154726D01*
X168659487Y-121154726D01*
X169659487Y-122154726D02*
X169754726Y-122154726D01*
X169849964Y-122107107D01*
X169897583Y-122059487D01*
X169945202Y-121964249D01*
X169992821Y-121773773D01*
X169992821Y-121535678D01*
X169945202Y-121345202D01*
X169897583Y-121249964D01*
X169849964Y-121202345D01*
X169754726Y-121154726D01*
X169659487Y-121154726D01*
X169564249Y-121202345D01*
X169516630Y-121249964D01*
X169469011Y-121345202D01*
X169421392Y-121535678D01*
X169421392Y-121773773D01*
X169469011Y-121964249D01*
X169516630Y-122059487D01*
X169564249Y-122107107D01*
X169659487Y-122154726D01*
X170373773Y-122059487D02*
X170421392Y-122107107D01*
X170516630Y-122154726D01*
X170754726Y-122154726D01*
X170849964Y-122107107D01*
X170897583Y-122059487D01*
X170945202Y-121964249D01*
X170945202Y-121869011D01*
X170897583Y-121726154D01*
X170326154Y-121154726D01*
X170945202Y-121154726D01*
X171802345Y-121821392D02*
X171802345Y-121154726D01*
X171564249Y-122202345D02*
X171326154Y-121488059D01*
X171945202Y-121488059D01*
X172278535Y-122059487D02*
X172326154Y-122107107D01*
X172421392Y-122154726D01*
X172659487Y-122154726D01*
X172754726Y-122107107D01*
X172802345Y-122059487D01*
X172849964Y-121964249D01*
X172849964Y-121869011D01*
X172802345Y-121726154D01*
X172230916Y-121154726D01*
X172849964Y-121154726D01*
X173230916Y-122059487D02*
X173278535Y-122107107D01*
X173373773Y-122154726D01*
X173611868Y-122154726D01*
X173707107Y-122107107D01*
X173754726Y-122059487D01*
X173802345Y-121964249D01*
X173802345Y-121869011D01*
X173754726Y-121726154D01*
X173183297Y-121154726D01*
X173802345Y-121154726D01*
X169373773Y-126454726D02*
X169373773Y-125740440D01*
X169326154Y-125597583D01*
X169230916Y-125502345D01*
X169088059Y-125454726D01*
X168992821Y-125454726D01*
X169802345Y-126359487D02*
X169849964Y-126407107D01*
X169945202Y-126454726D01*
X170183297Y-126454726D01*
X170278535Y-126407107D01*
X170326154Y-126359487D01*
X170373773Y-126264249D01*
X170373773Y-126169011D01*
X170326154Y-126026154D01*
X169754726Y-125454726D01*
X170373773Y-125454726D01*
X165849964Y-102154726D02*
X165945202Y-102154726D01*
X166040440Y-102107107D01*
X166088059Y-102059487D01*
X166135678Y-101964249D01*
X166183297Y-101773773D01*
X166183297Y-101535678D01*
X166135678Y-101345202D01*
X166088059Y-101249964D01*
X166040440Y-101202345D01*
X165945202Y-101154726D01*
X165849964Y-101154726D01*
X165754726Y-101202345D01*
X165707107Y-101249964D01*
X165659487Y-101345202D01*
X165611868Y-101535678D01*
X165611868Y-101773773D01*
X165659487Y-101964249D01*
X165707107Y-102059487D01*
X165754726Y-102107107D01*
X165849964Y-102154726D01*
X167088059Y-102154726D02*
X166611868Y-102154726D01*
X166564249Y-101678535D01*
X166611868Y-101726154D01*
X166707107Y-101773773D01*
X166945202Y-101773773D01*
X167040440Y-101726154D01*
X167088059Y-101678535D01*
X167135678Y-101583297D01*
X167135678Y-101345202D01*
X167088059Y-101249964D01*
X167040440Y-101202345D01*
X166945202Y-101154726D01*
X166707107Y-101154726D01*
X166611868Y-101202345D01*
X166564249Y-101249964D01*
X167754726Y-102154726D02*
X167849964Y-102154726D01*
X167945202Y-102107107D01*
X167992821Y-102059487D01*
X168040440Y-101964249D01*
X168088059Y-101773773D01*
X168088059Y-101535678D01*
X168040440Y-101345202D01*
X167992821Y-101249964D01*
X167945202Y-101202345D01*
X167849964Y-101154726D01*
X167754726Y-101154726D01*
X167659487Y-101202345D01*
X167611868Y-101249964D01*
X167564249Y-101345202D01*
X167516630Y-101535678D01*
X167516630Y-101773773D01*
X167564249Y-101964249D01*
X167611868Y-102059487D01*
X167659487Y-102107107D01*
X167754726Y-102154726D01*
X168421392Y-102154726D02*
X169088059Y-102154726D01*
X168659487Y-101154726D01*
X169659487Y-102154726D02*
X169754726Y-102154726D01*
X169849964Y-102107107D01*
X169897583Y-102059487D01*
X169945202Y-101964249D01*
X169992821Y-101773773D01*
X169992821Y-101535678D01*
X169945202Y-101345202D01*
X169897583Y-101249964D01*
X169849964Y-101202345D01*
X169754726Y-101154726D01*
X169659487Y-101154726D01*
X169564249Y-101202345D01*
X169516630Y-101249964D01*
X169469011Y-101345202D01*
X169421392Y-101535678D01*
X169421392Y-101773773D01*
X169469011Y-101964249D01*
X169516630Y-102059487D01*
X169564249Y-102107107D01*
X169659487Y-102154726D01*
X170373773Y-102059487D02*
X170421392Y-102107107D01*
X170516630Y-102154726D01*
X170754726Y-102154726D01*
X170849964Y-102107107D01*
X170897583Y-102059487D01*
X170945202Y-101964249D01*
X170945202Y-101869011D01*
X170897583Y-101726154D01*
X170326154Y-101154726D01*
X170945202Y-101154726D01*
X171802345Y-101821392D02*
X171802345Y-101154726D01*
X171564249Y-102202345D02*
X171326154Y-101488059D01*
X171945202Y-101488059D01*
X172278535Y-102059487D02*
X172326154Y-102107107D01*
X172421392Y-102154726D01*
X172659487Y-102154726D01*
X172754726Y-102107107D01*
X172802345Y-102059487D01*
X172849964Y-101964249D01*
X172849964Y-101869011D01*
X172802345Y-101726154D01*
X172230916Y-101154726D01*
X172849964Y-101154726D01*
X173230916Y-102059487D02*
X173278535Y-102107107D01*
X173373773Y-102154726D01*
X173611868Y-102154726D01*
X173707107Y-102107107D01*
X173754726Y-102059487D01*
X173802345Y-101964249D01*
X173802345Y-101869011D01*
X173754726Y-101726154D01*
X173183297Y-101154726D01*
X173802345Y-101154726D01*
X169373773Y-106454726D02*
X169373773Y-105740440D01*
X169326154Y-105597583D01*
X169230916Y-105502345D01*
X169088059Y-105454726D01*
X168992821Y-105454726D01*
X169802345Y-106359487D02*
X169849964Y-106407107D01*
X169945202Y-106454726D01*
X170183297Y-106454726D01*
X170278535Y-106407107D01*
X170326154Y-106359487D01*
X170373773Y-106264249D01*
X170373773Y-106169011D01*
X170326154Y-106026154D01*
X169754726Y-105454726D01*
X170373773Y-105454726D01*
X115849964Y-122154726D02*
X115945202Y-122154726D01*
X116040440Y-122107107D01*
X116088059Y-122059487D01*
X116135678Y-121964249D01*
X116183297Y-121773773D01*
X116183297Y-121535678D01*
X116135678Y-121345202D01*
X116088059Y-121249964D01*
X116040440Y-121202345D01*
X115945202Y-121154726D01*
X115849964Y-121154726D01*
X115754726Y-121202345D01*
X115707107Y-121249964D01*
X115659487Y-121345202D01*
X115611868Y-121535678D01*
X115611868Y-121773773D01*
X115659487Y-121964249D01*
X115707107Y-122059487D01*
X115754726Y-122107107D01*
X115849964Y-122154726D01*
X117088059Y-122154726D02*
X116611868Y-122154726D01*
X116564249Y-121678535D01*
X116611868Y-121726154D01*
X116707107Y-121773773D01*
X116945202Y-121773773D01*
X117040440Y-121726154D01*
X117088059Y-121678535D01*
X117135678Y-121583297D01*
X117135678Y-121345202D01*
X117088059Y-121249964D01*
X117040440Y-121202345D01*
X116945202Y-121154726D01*
X116707107Y-121154726D01*
X116611868Y-121202345D01*
X116564249Y-121249964D01*
X117754726Y-122154726D02*
X117849964Y-122154726D01*
X117945202Y-122107107D01*
X117992821Y-122059487D01*
X118040440Y-121964249D01*
X118088059Y-121773773D01*
X118088059Y-121535678D01*
X118040440Y-121345202D01*
X117992821Y-121249964D01*
X117945202Y-121202345D01*
X117849964Y-121154726D01*
X117754726Y-121154726D01*
X117659487Y-121202345D01*
X117611868Y-121249964D01*
X117564249Y-121345202D01*
X117516630Y-121535678D01*
X117516630Y-121773773D01*
X117564249Y-121964249D01*
X117611868Y-122059487D01*
X117659487Y-122107107D01*
X117754726Y-122154726D01*
X118421392Y-122154726D02*
X119088059Y-122154726D01*
X118659487Y-121154726D01*
X119659487Y-122154726D02*
X119754726Y-122154726D01*
X119849964Y-122107107D01*
X119897583Y-122059487D01*
X119945202Y-121964249D01*
X119992821Y-121773773D01*
X119992821Y-121535678D01*
X119945202Y-121345202D01*
X119897583Y-121249964D01*
X119849964Y-121202345D01*
X119754726Y-121154726D01*
X119659487Y-121154726D01*
X119564249Y-121202345D01*
X119516630Y-121249964D01*
X119469011Y-121345202D01*
X119421392Y-121535678D01*
X119421392Y-121773773D01*
X119469011Y-121964249D01*
X119516630Y-122059487D01*
X119564249Y-122107107D01*
X119659487Y-122154726D01*
X120373773Y-122059487D02*
X120421392Y-122107107D01*
X120516630Y-122154726D01*
X120754726Y-122154726D01*
X120849964Y-122107107D01*
X120897583Y-122059487D01*
X120945202Y-121964249D01*
X120945202Y-121869011D01*
X120897583Y-121726154D01*
X120326154Y-121154726D01*
X120945202Y-121154726D01*
X121802345Y-121821392D02*
X121802345Y-121154726D01*
X121564249Y-122202345D02*
X121326154Y-121488059D01*
X121945202Y-121488059D01*
X122278535Y-122059487D02*
X122326154Y-122107107D01*
X122421392Y-122154726D01*
X122659487Y-122154726D01*
X122754726Y-122107107D01*
X122802345Y-122059487D01*
X122849964Y-121964249D01*
X122849964Y-121869011D01*
X122802345Y-121726154D01*
X122230916Y-121154726D01*
X122849964Y-121154726D01*
X123230916Y-122059487D02*
X123278535Y-122107107D01*
X123373773Y-122154726D01*
X123611868Y-122154726D01*
X123707107Y-122107107D01*
X123754726Y-122059487D01*
X123802345Y-121964249D01*
X123802345Y-121869011D01*
X123754726Y-121726154D01*
X123183297Y-121154726D01*
X123802345Y-121154726D01*
X119373773Y-126454726D02*
X119373773Y-125740440D01*
X119326154Y-125597583D01*
X119230916Y-125502345D01*
X119088059Y-125454726D01*
X118992821Y-125454726D01*
X119802345Y-126359487D02*
X119849964Y-126407107D01*
X119945202Y-126454726D01*
X120183297Y-126454726D01*
X120278535Y-126407107D01*
X120326154Y-126359487D01*
X120373773Y-126264249D01*
X120373773Y-126169011D01*
X120326154Y-126026154D01*
X119754726Y-125454726D01*
X120373773Y-125454726D01*
X140849964Y-60854726D02*
X140945202Y-60854726D01*
X141040440Y-60807107D01*
X141088059Y-60759487D01*
X141135678Y-60664249D01*
X141183297Y-60473773D01*
X141183297Y-60235678D01*
X141135678Y-60045202D01*
X141088059Y-59949964D01*
X141040440Y-59902345D01*
X140945202Y-59854726D01*
X140849964Y-59854726D01*
X140754726Y-59902345D01*
X140707107Y-59949964D01*
X140659487Y-60045202D01*
X140611868Y-60235678D01*
X140611868Y-60473773D01*
X140659487Y-60664249D01*
X140707107Y-60759487D01*
X140754726Y-60807107D01*
X140849964Y-60854726D01*
X142088059Y-60854726D02*
X141611868Y-60854726D01*
X141564249Y-60378535D01*
X141611868Y-60426154D01*
X141707107Y-60473773D01*
X141945202Y-60473773D01*
X142040440Y-60426154D01*
X142088059Y-60378535D01*
X142135678Y-60283297D01*
X142135678Y-60045202D01*
X142088059Y-59949964D01*
X142040440Y-59902345D01*
X141945202Y-59854726D01*
X141707107Y-59854726D01*
X141611868Y-59902345D01*
X141564249Y-59949964D01*
X142754726Y-60854726D02*
X142849964Y-60854726D01*
X142945202Y-60807107D01*
X142992821Y-60759487D01*
X143040440Y-60664249D01*
X143088059Y-60473773D01*
X143088059Y-60235678D01*
X143040440Y-60045202D01*
X142992821Y-59949964D01*
X142945202Y-59902345D01*
X142849964Y-59854726D01*
X142754726Y-59854726D01*
X142659487Y-59902345D01*
X142611868Y-59949964D01*
X142564249Y-60045202D01*
X142516630Y-60235678D01*
X142516630Y-60473773D01*
X142564249Y-60664249D01*
X142611868Y-60759487D01*
X142659487Y-60807107D01*
X142754726Y-60854726D01*
X143421392Y-60854726D02*
X144088059Y-60854726D01*
X143659487Y-59854726D01*
X144659487Y-60854726D02*
X144754726Y-60854726D01*
X144849964Y-60807107D01*
X144897583Y-60759487D01*
X144945202Y-60664249D01*
X144992821Y-60473773D01*
X144992821Y-60235678D01*
X144945202Y-60045202D01*
X144897583Y-59949964D01*
X144849964Y-59902345D01*
X144754726Y-59854726D01*
X144659487Y-59854726D01*
X144564249Y-59902345D01*
X144516630Y-59949964D01*
X144469011Y-60045202D01*
X144421392Y-60235678D01*
X144421392Y-60473773D01*
X144469011Y-60664249D01*
X144516630Y-60759487D01*
X144564249Y-60807107D01*
X144659487Y-60854726D01*
X145373773Y-60759487D02*
X145421392Y-60807107D01*
X145516630Y-60854726D01*
X145754726Y-60854726D01*
X145849964Y-60807107D01*
X145897583Y-60759487D01*
X145945202Y-60664249D01*
X145945202Y-60569011D01*
X145897583Y-60426154D01*
X145326154Y-59854726D01*
X145945202Y-59854726D01*
X146802345Y-60521392D02*
X146802345Y-59854726D01*
X146564249Y-60902345D02*
X146326154Y-60188059D01*
X146945202Y-60188059D01*
X147278535Y-60759487D02*
X147326154Y-60807107D01*
X147421392Y-60854726D01*
X147659487Y-60854726D01*
X147754726Y-60807107D01*
X147802345Y-60759487D01*
X147849964Y-60664249D01*
X147849964Y-60569011D01*
X147802345Y-60426154D01*
X147230916Y-59854726D01*
X147849964Y-59854726D01*
X148230916Y-60759487D02*
X148278535Y-60807107D01*
X148373773Y-60854726D01*
X148611868Y-60854726D01*
X148707107Y-60807107D01*
X148754726Y-60759487D01*
X148802345Y-60664249D01*
X148802345Y-60569011D01*
X148754726Y-60426154D01*
X148183297Y-59854726D01*
X148802345Y-59854726D01*
X144373773Y-65154726D02*
X144373773Y-64440440D01*
X144326154Y-64297583D01*
X144230916Y-64202345D01*
X144088059Y-64154726D01*
X143992821Y-64154726D01*
X144802345Y-65059487D02*
X144849964Y-65107107D01*
X144945202Y-65154726D01*
X145183297Y-65154726D01*
X145278535Y-65107107D01*
X145326154Y-65059487D01*
X145373773Y-64964249D01*
X145373773Y-64869011D01*
X145326154Y-64726154D01*
X144754726Y-64154726D01*
X145373773Y-64154726D01*
X90849964Y-102154726D02*
X90945202Y-102154726D01*
X91040440Y-102107107D01*
X91088059Y-102059487D01*
X91135678Y-101964249D01*
X91183297Y-101773773D01*
X91183297Y-101535678D01*
X91135678Y-101345202D01*
X91088059Y-101249964D01*
X91040440Y-101202345D01*
X90945202Y-101154726D01*
X90849964Y-101154726D01*
X90754726Y-101202345D01*
X90707107Y-101249964D01*
X90659487Y-101345202D01*
X90611868Y-101535678D01*
X90611868Y-101773773D01*
X90659487Y-101964249D01*
X90707107Y-102059487D01*
X90754726Y-102107107D01*
X90849964Y-102154726D01*
X92088059Y-102154726D02*
X91611868Y-102154726D01*
X91564249Y-101678535D01*
X91611868Y-101726154D01*
X91707107Y-101773773D01*
X91945202Y-101773773D01*
X92040440Y-101726154D01*
X92088059Y-101678535D01*
X92135678Y-101583297D01*
X92135678Y-101345202D01*
X92088059Y-101249964D01*
X92040440Y-101202345D01*
X91945202Y-101154726D01*
X91707107Y-101154726D01*
X91611868Y-101202345D01*
X91564249Y-101249964D01*
X92754726Y-102154726D02*
X92849964Y-102154726D01*
X92945202Y-102107107D01*
X92992821Y-102059487D01*
X93040440Y-101964249D01*
X93088059Y-101773773D01*
X93088059Y-101535678D01*
X93040440Y-101345202D01*
X92992821Y-101249964D01*
X92945202Y-101202345D01*
X92849964Y-101154726D01*
X92754726Y-101154726D01*
X92659487Y-101202345D01*
X92611868Y-101249964D01*
X92564249Y-101345202D01*
X92516630Y-101535678D01*
X92516630Y-101773773D01*
X92564249Y-101964249D01*
X92611868Y-102059487D01*
X92659487Y-102107107D01*
X92754726Y-102154726D01*
X93421392Y-102154726D02*
X94088059Y-102154726D01*
X93659487Y-101154726D01*
X94659487Y-102154726D02*
X94754726Y-102154726D01*
X94849964Y-102107107D01*
X94897583Y-102059487D01*
X94945202Y-101964249D01*
X94992821Y-101773773D01*
X94992821Y-101535678D01*
X94945202Y-101345202D01*
X94897583Y-101249964D01*
X94849964Y-101202345D01*
X94754726Y-101154726D01*
X94659487Y-101154726D01*
X94564249Y-101202345D01*
X94516630Y-101249964D01*
X94469011Y-101345202D01*
X94421392Y-101535678D01*
X94421392Y-101773773D01*
X94469011Y-101964249D01*
X94516630Y-102059487D01*
X94564249Y-102107107D01*
X94659487Y-102154726D01*
X95373773Y-102059487D02*
X95421392Y-102107107D01*
X95516630Y-102154726D01*
X95754726Y-102154726D01*
X95849964Y-102107107D01*
X95897583Y-102059487D01*
X95945202Y-101964249D01*
X95945202Y-101869011D01*
X95897583Y-101726154D01*
X95326154Y-101154726D01*
X95945202Y-101154726D01*
X96802345Y-101821392D02*
X96802345Y-101154726D01*
X96564249Y-102202345D02*
X96326154Y-101488059D01*
X96945202Y-101488059D01*
X97278535Y-102059487D02*
X97326154Y-102107107D01*
X97421392Y-102154726D01*
X97659487Y-102154726D01*
X97754726Y-102107107D01*
X97802345Y-102059487D01*
X97849964Y-101964249D01*
X97849964Y-101869011D01*
X97802345Y-101726154D01*
X97230916Y-101154726D01*
X97849964Y-101154726D01*
X98230916Y-102059487D02*
X98278535Y-102107107D01*
X98373773Y-102154726D01*
X98611868Y-102154726D01*
X98707107Y-102107107D01*
X98754726Y-102059487D01*
X98802345Y-101964249D01*
X98802345Y-101869011D01*
X98754726Y-101726154D01*
X98183297Y-101154726D01*
X98802345Y-101154726D01*
X94373773Y-106454726D02*
X94373773Y-105740440D01*
X94326154Y-105597583D01*
X94230916Y-105502345D01*
X94088059Y-105454726D01*
X93992821Y-105454726D01*
X94802345Y-106359487D02*
X94849964Y-106407107D01*
X94945202Y-106454726D01*
X95183297Y-106454726D01*
X95278535Y-106407107D01*
X95326154Y-106359487D01*
X95373773Y-106264249D01*
X95373773Y-106169011D01*
X95326154Y-106026154D01*
X94754726Y-105454726D01*
X95373773Y-105454726D01*
X140849964Y-82154726D02*
X140945202Y-82154726D01*
X141040440Y-82107107D01*
X141088059Y-82059487D01*
X141135678Y-81964249D01*
X141183297Y-81773773D01*
X141183297Y-81535678D01*
X141135678Y-81345202D01*
X141088059Y-81249964D01*
X141040440Y-81202345D01*
X140945202Y-81154726D01*
X140849964Y-81154726D01*
X140754726Y-81202345D01*
X140707107Y-81249964D01*
X140659487Y-81345202D01*
X140611868Y-81535678D01*
X140611868Y-81773773D01*
X140659487Y-81964249D01*
X140707107Y-82059487D01*
X140754726Y-82107107D01*
X140849964Y-82154726D01*
X142088059Y-82154726D02*
X141611868Y-82154726D01*
X141564249Y-81678535D01*
X141611868Y-81726154D01*
X141707107Y-81773773D01*
X141945202Y-81773773D01*
X142040440Y-81726154D01*
X142088059Y-81678535D01*
X142135678Y-81583297D01*
X142135678Y-81345202D01*
X142088059Y-81249964D01*
X142040440Y-81202345D01*
X141945202Y-81154726D01*
X141707107Y-81154726D01*
X141611868Y-81202345D01*
X141564249Y-81249964D01*
X142754726Y-82154726D02*
X142849964Y-82154726D01*
X142945202Y-82107107D01*
X142992821Y-82059487D01*
X143040440Y-81964249D01*
X143088059Y-81773773D01*
X143088059Y-81535678D01*
X143040440Y-81345202D01*
X142992821Y-81249964D01*
X142945202Y-81202345D01*
X142849964Y-81154726D01*
X142754726Y-81154726D01*
X142659487Y-81202345D01*
X142611868Y-81249964D01*
X142564249Y-81345202D01*
X142516630Y-81535678D01*
X142516630Y-81773773D01*
X142564249Y-81964249D01*
X142611868Y-82059487D01*
X142659487Y-82107107D01*
X142754726Y-82154726D01*
X143421392Y-82154726D02*
X144088059Y-82154726D01*
X143659487Y-81154726D01*
X144659487Y-82154726D02*
X144754726Y-82154726D01*
X144849964Y-82107107D01*
X144897583Y-82059487D01*
X144945202Y-81964249D01*
X144992821Y-81773773D01*
X144992821Y-81535678D01*
X144945202Y-81345202D01*
X144897583Y-81249964D01*
X144849964Y-81202345D01*
X144754726Y-81154726D01*
X144659487Y-81154726D01*
X144564249Y-81202345D01*
X144516630Y-81249964D01*
X144469011Y-81345202D01*
X144421392Y-81535678D01*
X144421392Y-81773773D01*
X144469011Y-81964249D01*
X144516630Y-82059487D01*
X144564249Y-82107107D01*
X144659487Y-82154726D01*
X145373773Y-82059487D02*
X145421392Y-82107107D01*
X145516630Y-82154726D01*
X145754726Y-82154726D01*
X145849964Y-82107107D01*
X145897583Y-82059487D01*
X145945202Y-81964249D01*
X145945202Y-81869011D01*
X145897583Y-81726154D01*
X145326154Y-81154726D01*
X145945202Y-81154726D01*
X146802345Y-81821392D02*
X146802345Y-81154726D01*
X146564249Y-82202345D02*
X146326154Y-81488059D01*
X146945202Y-81488059D01*
X147278535Y-82059487D02*
X147326154Y-82107107D01*
X147421392Y-82154726D01*
X147659487Y-82154726D01*
X147754726Y-82107107D01*
X147802345Y-82059487D01*
X147849964Y-81964249D01*
X147849964Y-81869011D01*
X147802345Y-81726154D01*
X147230916Y-81154726D01*
X147849964Y-81154726D01*
X148230916Y-82059487D02*
X148278535Y-82107107D01*
X148373773Y-82154726D01*
X148611868Y-82154726D01*
X148707107Y-82107107D01*
X148754726Y-82059487D01*
X148802345Y-81964249D01*
X148802345Y-81869011D01*
X148754726Y-81726154D01*
X148183297Y-81154726D01*
X148802345Y-81154726D01*
X144373773Y-86454726D02*
X144373773Y-85740440D01*
X144326154Y-85597583D01*
X144230916Y-85502345D01*
X144088059Y-85454726D01*
X143992821Y-85454726D01*
X144802345Y-86359487D02*
X144849964Y-86407107D01*
X144945202Y-86454726D01*
X145183297Y-86454726D01*
X145278535Y-86407107D01*
X145326154Y-86359487D01*
X145373773Y-86264249D01*
X145373773Y-86169011D01*
X145326154Y-86026154D01*
X144754726Y-85454726D01*
X145373773Y-85454726D01*
X90849964Y-122154726D02*
X90945202Y-122154726D01*
X91040440Y-122107107D01*
X91088059Y-122059487D01*
X91135678Y-121964249D01*
X91183297Y-121773773D01*
X91183297Y-121535678D01*
X91135678Y-121345202D01*
X91088059Y-121249964D01*
X91040440Y-121202345D01*
X90945202Y-121154726D01*
X90849964Y-121154726D01*
X90754726Y-121202345D01*
X90707107Y-121249964D01*
X90659487Y-121345202D01*
X90611868Y-121535678D01*
X90611868Y-121773773D01*
X90659487Y-121964249D01*
X90707107Y-122059487D01*
X90754726Y-122107107D01*
X90849964Y-122154726D01*
X92088059Y-122154726D02*
X91611868Y-122154726D01*
X91564249Y-121678535D01*
X91611868Y-121726154D01*
X91707107Y-121773773D01*
X91945202Y-121773773D01*
X92040440Y-121726154D01*
X92088059Y-121678535D01*
X92135678Y-121583297D01*
X92135678Y-121345202D01*
X92088059Y-121249964D01*
X92040440Y-121202345D01*
X91945202Y-121154726D01*
X91707107Y-121154726D01*
X91611868Y-121202345D01*
X91564249Y-121249964D01*
X92754726Y-122154726D02*
X92849964Y-122154726D01*
X92945202Y-122107107D01*
X92992821Y-122059487D01*
X93040440Y-121964249D01*
X93088059Y-121773773D01*
X93088059Y-121535678D01*
X93040440Y-121345202D01*
X92992821Y-121249964D01*
X92945202Y-121202345D01*
X92849964Y-121154726D01*
X92754726Y-121154726D01*
X92659487Y-121202345D01*
X92611868Y-121249964D01*
X92564249Y-121345202D01*
X92516630Y-121535678D01*
X92516630Y-121773773D01*
X92564249Y-121964249D01*
X92611868Y-122059487D01*
X92659487Y-122107107D01*
X92754726Y-122154726D01*
X93421392Y-122154726D02*
X94088059Y-122154726D01*
X93659487Y-121154726D01*
X94659487Y-122154726D02*
X94754726Y-122154726D01*
X94849964Y-122107107D01*
X94897583Y-122059487D01*
X94945202Y-121964249D01*
X94992821Y-121773773D01*
X94992821Y-121535678D01*
X94945202Y-121345202D01*
X94897583Y-121249964D01*
X94849964Y-121202345D01*
X94754726Y-121154726D01*
X94659487Y-121154726D01*
X94564249Y-121202345D01*
X94516630Y-121249964D01*
X94469011Y-121345202D01*
X94421392Y-121535678D01*
X94421392Y-121773773D01*
X94469011Y-121964249D01*
X94516630Y-122059487D01*
X94564249Y-122107107D01*
X94659487Y-122154726D01*
X95373773Y-122059487D02*
X95421392Y-122107107D01*
X95516630Y-122154726D01*
X95754726Y-122154726D01*
X95849964Y-122107107D01*
X95897583Y-122059487D01*
X95945202Y-121964249D01*
X95945202Y-121869011D01*
X95897583Y-121726154D01*
X95326154Y-121154726D01*
X95945202Y-121154726D01*
X96802345Y-121821392D02*
X96802345Y-121154726D01*
X96564249Y-122202345D02*
X96326154Y-121488059D01*
X96945202Y-121488059D01*
X97278535Y-122059487D02*
X97326154Y-122107107D01*
X97421392Y-122154726D01*
X97659487Y-122154726D01*
X97754726Y-122107107D01*
X97802345Y-122059487D01*
X97849964Y-121964249D01*
X97849964Y-121869011D01*
X97802345Y-121726154D01*
X97230916Y-121154726D01*
X97849964Y-121154726D01*
X98230916Y-122059487D02*
X98278535Y-122107107D01*
X98373773Y-122154726D01*
X98611868Y-122154726D01*
X98707107Y-122107107D01*
X98754726Y-122059487D01*
X98802345Y-121964249D01*
X98802345Y-121869011D01*
X98754726Y-121726154D01*
X98183297Y-121154726D01*
X98802345Y-121154726D01*
X94373773Y-126454726D02*
X94373773Y-125740440D01*
X94326154Y-125597583D01*
X94230916Y-125502345D01*
X94088059Y-125454726D01*
X93992821Y-125454726D01*
X94802345Y-126359487D02*
X94849964Y-126407107D01*
X94945202Y-126454726D01*
X95183297Y-126454726D01*
X95278535Y-126407107D01*
X95326154Y-126359487D01*
X95373773Y-126264249D01*
X95373773Y-126169011D01*
X95326154Y-126026154D01*
X94754726Y-125454726D01*
X95373773Y-125454726D01*
X115849964Y-82154726D02*
X115945202Y-82154726D01*
X116040440Y-82107107D01*
X116088059Y-82059487D01*
X116135678Y-81964249D01*
X116183297Y-81773773D01*
X116183297Y-81535678D01*
X116135678Y-81345202D01*
X116088059Y-81249964D01*
X116040440Y-81202345D01*
X115945202Y-81154726D01*
X115849964Y-81154726D01*
X115754726Y-81202345D01*
X115707107Y-81249964D01*
X115659487Y-81345202D01*
X115611868Y-81535678D01*
X115611868Y-81773773D01*
X115659487Y-81964249D01*
X115707107Y-82059487D01*
X115754726Y-82107107D01*
X115849964Y-82154726D01*
X117088059Y-82154726D02*
X116611868Y-82154726D01*
X116564249Y-81678535D01*
X116611868Y-81726154D01*
X116707107Y-81773773D01*
X116945202Y-81773773D01*
X117040440Y-81726154D01*
X117088059Y-81678535D01*
X117135678Y-81583297D01*
X117135678Y-81345202D01*
X117088059Y-81249964D01*
X117040440Y-81202345D01*
X116945202Y-81154726D01*
X116707107Y-81154726D01*
X116611868Y-81202345D01*
X116564249Y-81249964D01*
X117754726Y-82154726D02*
X117849964Y-82154726D01*
X117945202Y-82107107D01*
X117992821Y-82059487D01*
X118040440Y-81964249D01*
X118088059Y-81773773D01*
X118088059Y-81535678D01*
X118040440Y-81345202D01*
X117992821Y-81249964D01*
X117945202Y-81202345D01*
X117849964Y-81154726D01*
X117754726Y-81154726D01*
X117659487Y-81202345D01*
X117611868Y-81249964D01*
X117564249Y-81345202D01*
X117516630Y-81535678D01*
X117516630Y-81773773D01*
X117564249Y-81964249D01*
X117611868Y-82059487D01*
X117659487Y-82107107D01*
X117754726Y-82154726D01*
X118421392Y-82154726D02*
X119088059Y-82154726D01*
X118659487Y-81154726D01*
X119659487Y-82154726D02*
X119754726Y-82154726D01*
X119849964Y-82107107D01*
X119897583Y-82059487D01*
X119945202Y-81964249D01*
X119992821Y-81773773D01*
X119992821Y-81535678D01*
X119945202Y-81345202D01*
X119897583Y-81249964D01*
X119849964Y-81202345D01*
X119754726Y-81154726D01*
X119659487Y-81154726D01*
X119564249Y-81202345D01*
X119516630Y-81249964D01*
X119469011Y-81345202D01*
X119421392Y-81535678D01*
X119421392Y-81773773D01*
X119469011Y-81964249D01*
X119516630Y-82059487D01*
X119564249Y-82107107D01*
X119659487Y-82154726D01*
X120373773Y-82059487D02*
X120421392Y-82107107D01*
X120516630Y-82154726D01*
X120754726Y-82154726D01*
X120849964Y-82107107D01*
X120897583Y-82059487D01*
X120945202Y-81964249D01*
X120945202Y-81869011D01*
X120897583Y-81726154D01*
X120326154Y-81154726D01*
X120945202Y-81154726D01*
X121802345Y-81821392D02*
X121802345Y-81154726D01*
X121564249Y-82202345D02*
X121326154Y-81488059D01*
X121945202Y-81488059D01*
X122278535Y-82059487D02*
X122326154Y-82107107D01*
X122421392Y-82154726D01*
X122659487Y-82154726D01*
X122754726Y-82107107D01*
X122802345Y-82059487D01*
X122849964Y-81964249D01*
X122849964Y-81869011D01*
X122802345Y-81726154D01*
X122230916Y-81154726D01*
X122849964Y-81154726D01*
X123230916Y-82059487D02*
X123278535Y-82107107D01*
X123373773Y-82154726D01*
X123611868Y-82154726D01*
X123707107Y-82107107D01*
X123754726Y-82059487D01*
X123802345Y-81964249D01*
X123802345Y-81869011D01*
X123754726Y-81726154D01*
X123183297Y-81154726D01*
X123802345Y-81154726D01*
X119373773Y-86454726D02*
X119373773Y-85740440D01*
X119326154Y-85597583D01*
X119230916Y-85502345D01*
X119088059Y-85454726D01*
X118992821Y-85454726D01*
X119802345Y-86359487D02*
X119849964Y-86407107D01*
X119945202Y-86454726D01*
X120183297Y-86454726D01*
X120278535Y-86407107D01*
X120326154Y-86359487D01*
X120373773Y-86264249D01*
X120373773Y-86169011D01*
X120326154Y-86026154D01*
X119754726Y-85454726D01*
X120373773Y-85454726D01*
X115849964Y-102154726D02*
X115945202Y-102154726D01*
X116040440Y-102107107D01*
X116088059Y-102059487D01*
X116135678Y-101964249D01*
X116183297Y-101773773D01*
X116183297Y-101535678D01*
X116135678Y-101345202D01*
X116088059Y-101249964D01*
X116040440Y-101202345D01*
X115945202Y-101154726D01*
X115849964Y-101154726D01*
X115754726Y-101202345D01*
X115707107Y-101249964D01*
X115659487Y-101345202D01*
X115611868Y-101535678D01*
X115611868Y-101773773D01*
X115659487Y-101964249D01*
X115707107Y-102059487D01*
X115754726Y-102107107D01*
X115849964Y-102154726D01*
X117088059Y-102154726D02*
X116611868Y-102154726D01*
X116564249Y-101678535D01*
X116611868Y-101726154D01*
X116707107Y-101773773D01*
X116945202Y-101773773D01*
X117040440Y-101726154D01*
X117088059Y-101678535D01*
X117135678Y-101583297D01*
X117135678Y-101345202D01*
X117088059Y-101249964D01*
X117040440Y-101202345D01*
X116945202Y-101154726D01*
X116707107Y-101154726D01*
X116611868Y-101202345D01*
X116564249Y-101249964D01*
X117754726Y-102154726D02*
X117849964Y-102154726D01*
X117945202Y-102107107D01*
X117992821Y-102059487D01*
X118040440Y-101964249D01*
X118088059Y-101773773D01*
X118088059Y-101535678D01*
X118040440Y-101345202D01*
X117992821Y-101249964D01*
X117945202Y-101202345D01*
X117849964Y-101154726D01*
X117754726Y-101154726D01*
X117659487Y-101202345D01*
X117611868Y-101249964D01*
X117564249Y-101345202D01*
X117516630Y-101535678D01*
X117516630Y-101773773D01*
X117564249Y-101964249D01*
X117611868Y-102059487D01*
X117659487Y-102107107D01*
X117754726Y-102154726D01*
X118421392Y-102154726D02*
X119088059Y-102154726D01*
X118659487Y-101154726D01*
X119659487Y-102154726D02*
X119754726Y-102154726D01*
X119849964Y-102107107D01*
X119897583Y-102059487D01*
X119945202Y-101964249D01*
X119992821Y-101773773D01*
X119992821Y-101535678D01*
X119945202Y-101345202D01*
X119897583Y-101249964D01*
X119849964Y-101202345D01*
X119754726Y-101154726D01*
X119659487Y-101154726D01*
X119564249Y-101202345D01*
X119516630Y-101249964D01*
X119469011Y-101345202D01*
X119421392Y-101535678D01*
X119421392Y-101773773D01*
X119469011Y-101964249D01*
X119516630Y-102059487D01*
X119564249Y-102107107D01*
X119659487Y-102154726D01*
X120373773Y-102059487D02*
X120421392Y-102107107D01*
X120516630Y-102154726D01*
X120754726Y-102154726D01*
X120849964Y-102107107D01*
X120897583Y-102059487D01*
X120945202Y-101964249D01*
X120945202Y-101869011D01*
X120897583Y-101726154D01*
X120326154Y-101154726D01*
X120945202Y-101154726D01*
X121802345Y-101821392D02*
X121802345Y-101154726D01*
X121564249Y-102202345D02*
X121326154Y-101488059D01*
X121945202Y-101488059D01*
X122278535Y-102059487D02*
X122326154Y-102107107D01*
X122421392Y-102154726D01*
X122659487Y-102154726D01*
X122754726Y-102107107D01*
X122802345Y-102059487D01*
X122849964Y-101964249D01*
X122849964Y-101869011D01*
X122802345Y-101726154D01*
X122230916Y-101154726D01*
X122849964Y-101154726D01*
X123230916Y-102059487D02*
X123278535Y-102107107D01*
X123373773Y-102154726D01*
X123611868Y-102154726D01*
X123707107Y-102107107D01*
X123754726Y-102059487D01*
X123802345Y-101964249D01*
X123802345Y-101869011D01*
X123754726Y-101726154D01*
X123183297Y-101154726D01*
X123802345Y-101154726D01*
X119373773Y-106454726D02*
X119373773Y-105740440D01*
X119326154Y-105597583D01*
X119230916Y-105502345D01*
X119088059Y-105454726D01*
X118992821Y-105454726D01*
X119802345Y-106359487D02*
X119849964Y-106407107D01*
X119945202Y-106454726D01*
X120183297Y-106454726D01*
X120278535Y-106407107D01*
X120326154Y-106359487D01*
X120373773Y-106264249D01*
X120373773Y-106169011D01*
X120326154Y-106026154D01*
X119754726Y-105454726D01*
X120373773Y-105454726D01*
%TD*%
M02*
