%TF.GenerationSoftware,KiCad,Pcbnew,(6.0.0)*%
%TF.CreationDate,2022-11-29T13:54:36-05:00*%
%TF.ProjectId,pupdrive-eib24_panel,70757064-7269-4766-952d-65696232345f,B*%
%TF.SameCoordinates,Original*%
%TF.FileFunction,Copper,L1,Top*%
%TF.FilePolarity,Positive*%
%FSLAX46Y46*%
G04 Gerber Fmt 4.6, Leading zero omitted, Abs format (unit mm)*
G04 Created by KiCad (PCBNEW (6.0.0)) date 2022-11-29 13:54:36*
%MOMM*%
%LPD*%
G01*
G04 APERTURE LIST*
G04 Aperture macros list*
%AMRoundRect*
0 Rectangle with rounded corners*
0 $1 Rounding radius*
0 $2 $3 $4 $5 $6 $7 $8 $9 X,Y pos of 4 corners*
0 Add a 4 corners polygon primitive as box body*
4,1,4,$2,$3,$4,$5,$6,$7,$8,$9,$2,$3,0*
0 Add four circle primitives for the rounded corners*
1,1,$1+$1,$2,$3*
1,1,$1+$1,$4,$5*
1,1,$1+$1,$6,$7*
1,1,$1+$1,$8,$9*
0 Add four rect primitives between the rounded corners*
20,1,$1+$1,$2,$3,$4,$5,0*
20,1,$1+$1,$4,$5,$6,$7,0*
20,1,$1+$1,$6,$7,$8,$9,0*
20,1,$1+$1,$8,$9,$2,$3,0*%
G04 Aperture macros list end*
%TA.AperFunction,EtchedComponent*%
%ADD10C,0.360000*%
%TD*%
%TA.AperFunction,EtchedComponent*%
%ADD11C,0.550000*%
%TD*%
%TA.AperFunction,ComponentPad*%
%ADD12C,0.420000*%
%TD*%
%TA.AperFunction,SMDPad,CuDef*%
%ADD13RoundRect,0.008000X0.072000X0.212000X-0.072000X0.212000X-0.072000X-0.212000X0.072000X-0.212000X0*%
%TD*%
%TA.AperFunction,SMDPad,CuDef*%
%ADD14RoundRect,0.010500X0.094500X0.229500X-0.094500X0.229500X-0.094500X-0.229500X0.094500X-0.229500X0*%
%TD*%
%TA.AperFunction,ComponentPad*%
%ADD15C,6.400000*%
%TD*%
%TA.AperFunction,Conductor*%
%ADD16C,0.076200*%
%TD*%
G04 APERTURE END LIST*
D10*
%TO.C,*%
X169060000Y-140297500D02*
X169060000Y-139257500D01*
X166620000Y-139777500D02*
X167460000Y-139777500D01*
X162820000Y-140657500D02*
X163180000Y-140657500D01*
X173500000Y-138817500D02*
X173260000Y-138817500D01*
X173160000Y-140717500D02*
X173080000Y-140677500D01*
X161800000Y-140297500D02*
X161800000Y-139257500D01*
X160840000Y-138897500D02*
X160840000Y-140657500D01*
X169780000Y-140637500D02*
X169780000Y-137797500D01*
X173180000Y-140717500D02*
X173420000Y-140717500D01*
X170380000Y-138897500D02*
X169920000Y-138897500D01*
X173700000Y-138917500D02*
X173740000Y-138977500D01*
X172940000Y-140557500D02*
X172940000Y-140517500D01*
X168100000Y-140677500D02*
X168100000Y-141717500D01*
X168700000Y-138897500D02*
X168100000Y-138897500D01*
X162580000Y-139777500D02*
X163420000Y-139777500D01*
D11*
X166420000Y-131177500D02*
X168220000Y-135577500D01*
D10*
X159640000Y-140657500D02*
X159760000Y-140657500D01*
X173000000Y-139517500D02*
X173320000Y-139757500D01*
X172900000Y-139297500D02*
X172920000Y-139397500D01*
X159610000Y-138897500D02*
X159820000Y-138897500D01*
X173580000Y-139957500D02*
X173260000Y-139717500D01*
X163420000Y-139297500D02*
X163420000Y-139777500D01*
X173740000Y-138977500D02*
X173740000Y-139017500D01*
X172980000Y-140617500D02*
X172940000Y-140557500D01*
X167460000Y-139297500D02*
X167460000Y-139777500D01*
X165060000Y-140657500D02*
X165060000Y-139257500D01*
X173760000Y-140137500D02*
X173580000Y-139957500D01*
X170760000Y-140657500D02*
X170740000Y-139257500D01*
D11*
X167620000Y-137577500D02*
X166420000Y-131177500D01*
D10*
X171480000Y-141657500D02*
X171300000Y-141697500D01*
D11*
X167620000Y-137577500D02*
X168220000Y-135577500D01*
D10*
X160170000Y-140297500D02*
X160170000Y-139257500D01*
X173600000Y-138857500D02*
X173700000Y-138917500D01*
X172920000Y-139397500D02*
X173000000Y-139517500D01*
X164100000Y-138897500D02*
X164100000Y-140657500D01*
X173780000Y-140337500D02*
X173780000Y-140237500D01*
D11*
X168220000Y-135577500D02*
X164020000Y-132577500D01*
D10*
X160840000Y-140677500D02*
X160840000Y-141717500D01*
D11*
X161420000Y-134977500D02*
X164020000Y-132577500D01*
D10*
X166860000Y-140657500D02*
X167220000Y-140657500D01*
X173520000Y-138817500D02*
X173600000Y-138857500D01*
X171620000Y-141457500D02*
X171480000Y-141657500D01*
X172900000Y-139197500D02*
X172900000Y-139297500D01*
X168100000Y-138897500D02*
X168100000Y-140657500D01*
X159220000Y-139257500D02*
X159220000Y-140297500D01*
X167100000Y-138897500D02*
X166860000Y-138897500D01*
X164700000Y-138897500D02*
X164100000Y-138897500D01*
X172480000Y-138717500D02*
X171640000Y-141417500D01*
X166500000Y-139257500D02*
X166500000Y-140297500D01*
X171200000Y-138717500D02*
X171860000Y-140637500D01*
X168100000Y-140657500D02*
X168700000Y-140657500D01*
X162460000Y-139257500D02*
X162460000Y-140297500D01*
D11*
X161420000Y-134977500D02*
X168220000Y-135577500D01*
D10*
X171300000Y-141697500D02*
X171200000Y-141697500D01*
D11*
X167620000Y-137577500D02*
X161420000Y-134977500D01*
D10*
X173780000Y-140237500D02*
X173760000Y-140137500D01*
X160840000Y-140657500D02*
X161440000Y-140657500D01*
X173080000Y-140677500D02*
X172980000Y-140617500D01*
D11*
X164020000Y-132577500D02*
X167620000Y-137577500D01*
D10*
X163060000Y-138897500D02*
X162820000Y-138897500D01*
X161440000Y-138897500D02*
X160840000Y-138897500D01*
X166500000Y-140297500D02*
G75*
G03*
X166860000Y-140657500I360002J2D01*
G01*
X162820000Y-138897500D02*
G75*
G03*
X162460000Y-139257500I2J-360002D01*
G01*
X165060000Y-139257500D02*
G75*
G03*
X164700000Y-138897500I-360002J-2D01*
G01*
X160170000Y-139257500D02*
G75*
G03*
X159810000Y-138897500I-360002J-2D01*
G01*
X167220000Y-140657500D02*
G75*
G03*
X167360000Y-140517500I0J140000D01*
G01*
X162460000Y-140297500D02*
G75*
G03*
X162820000Y-140657500I360002J2D01*
G01*
X166860000Y-138897500D02*
G75*
G03*
X166500000Y-139257500I2J-360002D01*
G01*
X173420000Y-140717500D02*
G75*
G03*
X173780000Y-140357500I-2J360002D01*
G01*
X163180000Y-140657500D02*
G75*
G03*
X163320000Y-140517500I0J140000D01*
G01*
X163420000Y-139257500D02*
G75*
G03*
X163060000Y-138897500I-360002J-2D01*
G01*
X159580000Y-138897500D02*
G75*
G03*
X159220000Y-139257500I2J-360002D01*
G01*
X167460000Y-139257500D02*
G75*
G03*
X167100000Y-138897500I-360002J-2D01*
G01*
X161800000Y-139257500D02*
G75*
G03*
X161440000Y-138897500I-360002J-2D01*
G01*
X173260000Y-138817500D02*
G75*
G03*
X172900000Y-139177500I2J-360002D01*
G01*
X170740000Y-139257500D02*
G75*
G03*
X170380000Y-138897500I-360002J-2D01*
G01*
X159220000Y-140297500D02*
G75*
G03*
X159580000Y-140657500I360002J2D01*
G01*
X159810000Y-140657500D02*
G75*
G03*
X160170000Y-140297500I-2J360002D01*
G01*
X168700000Y-140657500D02*
G75*
G03*
X169060000Y-140297500I-2J360002D01*
G01*
X169060000Y-139257500D02*
G75*
G03*
X168700000Y-138897500I-360002J-2D01*
G01*
X161440000Y-140657500D02*
G75*
G03*
X161800000Y-140297500I-2J360002D01*
G01*
%TD*%
D12*
%TO.P,TP12,1,1*%
%TO.N,/E18*%
X96008579Y-67092088D03*
%TD*%
D13*
%TO.P,J1,1,Pin_1*%
%TO.N,/E1*%
X147633579Y-68082088D03*
%TO.P,J1,3,Pin_3*%
%TO.N,/E2*%
X147283579Y-68082088D03*
%TO.P,J1,5,Pin_5*%
%TO.N,/E3*%
X146933579Y-68082088D03*
%TO.P,J1,7,Pin_7*%
%TO.N,/E4*%
X146583579Y-68082088D03*
%TO.P,J1,9,Pin_9*%
%TO.N,/E5*%
X146233579Y-68082088D03*
%TO.P,J1,11,Pin_11*%
%TO.N,/E6*%
X145883579Y-68082088D03*
%TO.P,J1,13,Pin_13*%
%TO.N,/E7*%
X145533579Y-68082088D03*
%TO.P,J1,15,Pin_15*%
%TO.N,/E8*%
X145183579Y-68082088D03*
%TO.P,J1,17,Pin_17*%
%TO.N,/E9*%
X144833579Y-68082088D03*
%TO.P,J1,19,Pin_19*%
%TO.N,/E10*%
X144483579Y-68082088D03*
%TO.P,J1,21,Pin_21*%
%TO.N,/E11*%
X144133579Y-68082088D03*
%TO.P,J1,23,Pin_23*%
%TO.N,/E12*%
X143783579Y-68082088D03*
D14*
%TO.P,J1,MP1,MountPin1*%
%TO.N,/REF*%
X148008579Y-68227088D03*
%TO.P,J1,MP3,MountPin3*%
%TO.N,GNDA*%
X143408579Y-68227088D03*
%TD*%
D12*
%TO.P,TP14,1,1*%
%TO.N,/E19*%
X120408579Y-67092088D03*
%TD*%
%TO.P,TP13,1,1*%
%TO.N,/E6*%
X146008579Y-64092088D03*
%TD*%
%TO.P,TP24,1,1*%
%TO.N,/E24*%
X168708579Y-66492088D03*
%TD*%
%TO.P,TP17,1,1*%
%TO.N,/E8*%
X120408579Y-63392088D03*
%TD*%
%TO.P,TP6,1,1*%
%TO.N,/E2*%
X172308579Y-64092088D03*
%TD*%
%TO.P,TP21,1,1*%
%TO.N,/E10*%
X94808579Y-63392088D03*
%TD*%
%TO.P,TP4,1,1*%
%TO.N,/REF*%
X122708579Y-67092088D03*
%TD*%
%TO.P,TP16,1,1*%
%TO.N,/E20*%
X170408579Y-66492088D03*
%TD*%
%TO.P,TP23,1,1*%
%TO.N,/E11*%
X169108579Y-64092088D03*
%TD*%
%TO.P,TP6,1,1*%
%TO.N,/E2*%
X122308579Y-64092088D03*
%TD*%
%TO.P,TP3,1,1*%
%TO.N,/E15*%
X122708579Y-65292088D03*
%TD*%
%TO.P,TP3,1,1*%
%TO.N,/E15*%
X97708579Y-65292088D03*
%TD*%
%TO.P,TP4,1,1*%
%TO.N,/REF*%
X97708579Y-67092088D03*
%TD*%
%TO.P,TP18,1,1*%
%TO.N,/E21*%
X118708579Y-64692088D03*
%TD*%
%TO.P,TP17,1,1*%
%TO.N,/E8*%
X145408579Y-63392088D03*
%TD*%
%TO.P,TP1,1,1*%
%TO.N,/E13*%
X122708579Y-66492088D03*
%TD*%
%TO.P,TP7,1,1*%
%TO.N,/E3*%
X146608579Y-63392088D03*
%TD*%
%TO.P,TP7,1,1*%
%TO.N,/E3*%
X171608579Y-63392088D03*
%TD*%
%TO.P,TP15,1,1*%
%TO.N,/E7*%
X95408579Y-64092088D03*
%TD*%
%TO.P,TP8,1,1*%
%TO.N,/E16*%
X97708579Y-64692088D03*
%TD*%
%TO.P,TP2,1,1*%
%TO.N,/E14*%
X172708579Y-65892088D03*
%TD*%
%TO.P,TP24,1,1*%
%TO.N,/E24*%
X93708579Y-66492088D03*
%TD*%
%TO.P,TP26,1,1*%
%TO.N,GNDA*%
X93708579Y-67092088D03*
%TD*%
%TO.P,TP7,1,1*%
%TO.N,/E3*%
X96608579Y-63392088D03*
%TD*%
%TO.P,TP3,1,1*%
%TO.N,/E15*%
X147708579Y-65292088D03*
%TD*%
%TO.P,TP4,1,1*%
%TO.N,/REF*%
X147708579Y-67092088D03*
%TD*%
%TO.P,TP20,1,1*%
%TO.N,/E22*%
X168708579Y-65292088D03*
%TD*%
%TO.P,TP9,1,1*%
%TO.N,/E4*%
X121658579Y-64092088D03*
%TD*%
%TO.P,TP13,1,1*%
%TO.N,/E6*%
X171008579Y-64092088D03*
%TD*%
%TO.P,TP13,1,1*%
%TO.N,/E6*%
X96008579Y-64092088D03*
%TD*%
%TO.P,TP5,1,1*%
%TO.N,/E1*%
X97208579Y-63392088D03*
%TD*%
%TO.P,TP1,1,1*%
%TO.N,/E13*%
X147708579Y-66492088D03*
%TD*%
%TO.P,TP26,1,1*%
%TO.N,GNDA*%
X168708579Y-67092088D03*
%TD*%
%TO.P,TP3,1,1*%
%TO.N,/E15*%
X172708579Y-65292088D03*
%TD*%
%TO.P,TP4,1,1*%
%TO.N,/REF*%
X172708579Y-67092088D03*
%TD*%
%TO.P,TP1,1,1*%
%TO.N,/E13*%
X97708579Y-66492088D03*
%TD*%
%TO.P,TP12,1,1*%
%TO.N,/E18*%
X121008579Y-67092088D03*
%TD*%
%TO.P,TP13,1,1*%
%TO.N,/E6*%
X121008579Y-64092088D03*
%TD*%
%TO.P,TP5,1,1*%
%TO.N,/E1*%
X122208579Y-63392088D03*
%TD*%
%TO.P,TP20,1,1*%
%TO.N,/E22*%
X118708579Y-65292088D03*
%TD*%
%TO.P,TP24,1,1*%
%TO.N,/E24*%
X118708579Y-66492088D03*
%TD*%
%TO.P,TP19,1,1*%
%TO.N,/E9*%
X144758579Y-64092088D03*
%TD*%
%TO.P,TP24,1,1*%
%TO.N,/E24*%
X143708579Y-66492088D03*
%TD*%
%TO.P,TP22,1,1*%
%TO.N,/E23*%
X143708579Y-65892088D03*
%TD*%
%TO.P,TP20,1,1*%
%TO.N,/E22*%
X93708579Y-65292088D03*
%TD*%
%TO.P,TP25,1,1*%
%TO.N,/E12*%
X119208579Y-63392088D03*
%TD*%
%TO.P,TP7,1,1*%
%TO.N,/E3*%
X121608579Y-63392088D03*
%TD*%
%TO.P,TP23,1,1*%
%TO.N,/E11*%
X119108579Y-64092088D03*
%TD*%
%TO.P,TP12,1,1*%
%TO.N,/E18*%
X171008579Y-67092088D03*
%TD*%
%TO.P,TP15,1,1*%
%TO.N,/E7*%
X120408579Y-64092088D03*
%TD*%
%TO.P,TP11,1,1*%
%TO.N,/E5*%
X121008579Y-63392088D03*
%TD*%
%TO.P,TP5,1,1*%
%TO.N,/E1*%
X147208579Y-63392088D03*
%TD*%
%TO.P,TP8,1,1*%
%TO.N,/E16*%
X147708579Y-64692088D03*
%TD*%
%TO.P,TP2,1,1*%
%TO.N,/E14*%
X97708579Y-65892088D03*
%TD*%
%TO.P,TP19,1,1*%
%TO.N,/E9*%
X169758579Y-64092088D03*
%TD*%
%TO.P,TP26,1,1*%
%TO.N,GNDA*%
X143708579Y-67092088D03*
%TD*%
%TO.P,TP14,1,1*%
%TO.N,/E19*%
X145408579Y-67092088D03*
%TD*%
%TO.P,TP20,1,1*%
%TO.N,/E22*%
X143708579Y-65292088D03*
%TD*%
D13*
%TO.P,J1,1,Pin_1*%
%TO.N,/E1*%
X172633579Y-68082088D03*
%TO.P,J1,3,Pin_3*%
%TO.N,/E2*%
X172283579Y-68082088D03*
%TO.P,J1,5,Pin_5*%
%TO.N,/E3*%
X171933579Y-68082088D03*
%TO.P,J1,7,Pin_7*%
%TO.N,/E4*%
X171583579Y-68082088D03*
%TO.P,J1,9,Pin_9*%
%TO.N,/E5*%
X171233579Y-68082088D03*
%TO.P,J1,11,Pin_11*%
%TO.N,/E6*%
X170883579Y-68082088D03*
%TO.P,J1,13,Pin_13*%
%TO.N,/E7*%
X170533579Y-68082088D03*
%TO.P,J1,15,Pin_15*%
%TO.N,/E8*%
X170183579Y-68082088D03*
%TO.P,J1,17,Pin_17*%
%TO.N,/E9*%
X169833579Y-68082088D03*
%TO.P,J1,19,Pin_19*%
%TO.N,/E10*%
X169483579Y-68082088D03*
%TO.P,J1,21,Pin_21*%
%TO.N,/E11*%
X169133579Y-68082088D03*
%TO.P,J1,23,Pin_23*%
%TO.N,/E12*%
X168783579Y-68082088D03*
D14*
%TO.P,J1,MP1,MountPin1*%
%TO.N,/REF*%
X173008579Y-68227088D03*
%TO.P,J1,MP3,MountPin3*%
%TO.N,GNDA*%
X168408579Y-68227088D03*
%TD*%
D12*
%TO.P,TP19,1,1*%
%TO.N,/E9*%
X94758579Y-64092088D03*
%TD*%
%TO.P,TP18,1,1*%
%TO.N,/E21*%
X168708579Y-64692088D03*
%TD*%
%TO.P,TP23,1,1*%
%TO.N,/E11*%
X144108579Y-64092088D03*
%TD*%
D13*
%TO.P,J1,1,Pin_1*%
%TO.N,/E1*%
X122633579Y-68082088D03*
%TO.P,J1,3,Pin_3*%
%TO.N,/E2*%
X122283579Y-68082088D03*
%TO.P,J1,5,Pin_5*%
%TO.N,/E3*%
X121933579Y-68082088D03*
%TO.P,J1,7,Pin_7*%
%TO.N,/E4*%
X121583579Y-68082088D03*
%TO.P,J1,9,Pin_9*%
%TO.N,/E5*%
X121233579Y-68082088D03*
%TO.P,J1,11,Pin_11*%
%TO.N,/E6*%
X120883579Y-68082088D03*
%TO.P,J1,13,Pin_13*%
%TO.N,/E7*%
X120533579Y-68082088D03*
%TO.P,J1,15,Pin_15*%
%TO.N,/E8*%
X120183579Y-68082088D03*
%TO.P,J1,17,Pin_17*%
%TO.N,/E9*%
X119833579Y-68082088D03*
%TO.P,J1,19,Pin_19*%
%TO.N,/E10*%
X119483579Y-68082088D03*
%TO.P,J1,21,Pin_21*%
%TO.N,/E11*%
X119133579Y-68082088D03*
%TO.P,J1,23,Pin_23*%
%TO.N,/E12*%
X118783579Y-68082088D03*
D14*
%TO.P,J1,MP1,MountPin1*%
%TO.N,/REF*%
X123008579Y-68227088D03*
%TO.P,J1,MP3,MountPin3*%
%TO.N,GNDA*%
X118408579Y-68227088D03*
%TD*%
D12*
%TO.P,TP21,1,1*%
%TO.N,/E10*%
X119808579Y-63392088D03*
%TD*%
%TO.P,TP9,1,1*%
%TO.N,/E4*%
X171658579Y-64092088D03*
%TD*%
%TO.P,TP25,1,1*%
%TO.N,/E12*%
X144208579Y-63392088D03*
%TD*%
%TO.P,TP10,1,1*%
%TO.N,/E17*%
X121008579Y-66492088D03*
%TD*%
%TO.P,TP25,1,1*%
%TO.N,/E12*%
X94208579Y-63392088D03*
%TD*%
%TO.P,TP12,1,1*%
%TO.N,/E18*%
X146008579Y-67092088D03*
%TD*%
%TO.P,TP11,1,1*%
%TO.N,/E5*%
X171008579Y-63392088D03*
%TD*%
%TO.P,TP15,1,1*%
%TO.N,/E7*%
X170408579Y-64092088D03*
%TD*%
%TO.P,TP17,1,1*%
%TO.N,/E8*%
X170408579Y-63392088D03*
%TD*%
D13*
%TO.P,J1,1,Pin_1*%
%TO.N,/E1*%
X97633579Y-68082088D03*
%TO.P,J1,3,Pin_3*%
%TO.N,/E2*%
X97283579Y-68082088D03*
%TO.P,J1,5,Pin_5*%
%TO.N,/E3*%
X96933579Y-68082088D03*
%TO.P,J1,7,Pin_7*%
%TO.N,/E4*%
X96583579Y-68082088D03*
%TO.P,J1,9,Pin_9*%
%TO.N,/E5*%
X96233579Y-68082088D03*
%TO.P,J1,11,Pin_11*%
%TO.N,/E6*%
X95883579Y-68082088D03*
%TO.P,J1,13,Pin_13*%
%TO.N,/E7*%
X95533579Y-68082088D03*
%TO.P,J1,15,Pin_15*%
%TO.N,/E8*%
X95183579Y-68082088D03*
%TO.P,J1,17,Pin_17*%
%TO.N,/E9*%
X94833579Y-68082088D03*
%TO.P,J1,19,Pin_19*%
%TO.N,/E10*%
X94483579Y-68082088D03*
%TO.P,J1,21,Pin_21*%
%TO.N,/E11*%
X94133579Y-68082088D03*
%TO.P,J1,23,Pin_23*%
%TO.N,/E12*%
X93783579Y-68082088D03*
D14*
%TO.P,J1,MP1,MountPin1*%
%TO.N,/REF*%
X98008579Y-68227088D03*
%TO.P,J1,MP3,MountPin3*%
%TO.N,GNDA*%
X93408579Y-68227088D03*
%TD*%
D12*
%TO.P,TP10,1,1*%
%TO.N,/E17*%
X96008579Y-66492088D03*
%TD*%
%TO.P,TP15,1,1*%
%TO.N,/E7*%
X145408579Y-64092088D03*
%TD*%
%TO.P,TP17,1,1*%
%TO.N,/E8*%
X95408579Y-63392088D03*
%TD*%
%TO.P,TP6,1,1*%
%TO.N,/E2*%
X147308579Y-64092088D03*
%TD*%
%TO.P,TP14,1,1*%
%TO.N,/E19*%
X95408579Y-67092088D03*
%TD*%
%TO.P,TP5,1,1*%
%TO.N,/E1*%
X172208579Y-63392088D03*
%TD*%
%TO.P,TP8,1,1*%
%TO.N,/E16*%
X172708579Y-64692088D03*
%TD*%
%TO.P,TP9,1,1*%
%TO.N,/E4*%
X146658579Y-64092088D03*
%TD*%
%TO.P,TP2,1,1*%
%TO.N,/E14*%
X147708579Y-65892088D03*
%TD*%
%TO.P,TP2,1,1*%
%TO.N,/E14*%
X122708579Y-65892088D03*
%TD*%
%TO.P,TP8,1,1*%
%TO.N,/E16*%
X122708579Y-64692088D03*
%TD*%
%TO.P,TP11,1,1*%
%TO.N,/E5*%
X96008579Y-63392088D03*
%TD*%
%TO.P,TP6,1,1*%
%TO.N,/E2*%
X97308579Y-64092088D03*
%TD*%
%TO.P,TP22,1,1*%
%TO.N,/E23*%
X118708579Y-65892088D03*
%TD*%
%TO.P,TP10,1,1*%
%TO.N,/E17*%
X171008579Y-66492088D03*
%TD*%
%TO.P,TP26,1,1*%
%TO.N,GNDA*%
X118708579Y-67092088D03*
%TD*%
%TO.P,TP19,1,1*%
%TO.N,/E9*%
X119758579Y-64092088D03*
%TD*%
%TO.P,TP22,1,1*%
%TO.N,/E23*%
X168708579Y-65892088D03*
%TD*%
%TO.P,TP1,1,1*%
%TO.N,/E13*%
X172708579Y-66492088D03*
%TD*%
%TO.P,TP14,1,1*%
%TO.N,/E19*%
X170408579Y-67092088D03*
%TD*%
%TO.P,TP10,1,1*%
%TO.N,/E17*%
X146008579Y-66492088D03*
%TD*%
%TO.P,TP16,1,1*%
%TO.N,/E20*%
X120408579Y-66492088D03*
%TD*%
%TO.P,TP16,1,1*%
%TO.N,/E20*%
X145408579Y-66492088D03*
%TD*%
%TO.P,TP25,1,1*%
%TO.N,/E12*%
X169208579Y-63392088D03*
%TD*%
%TO.P,TP11,1,1*%
%TO.N,/E5*%
X146008579Y-63392088D03*
%TD*%
%TO.P,TP18,1,1*%
%TO.N,/E21*%
X93708579Y-64692088D03*
%TD*%
%TO.P,TP23,1,1*%
%TO.N,/E11*%
X94108579Y-64092088D03*
%TD*%
%TO.P,TP18,1,1*%
%TO.N,/E21*%
X143708579Y-64692088D03*
%TD*%
%TO.P,TP22,1,1*%
%TO.N,/E23*%
X93708579Y-65892088D03*
%TD*%
%TO.P,TP21,1,1*%
%TO.N,/E10*%
X169808579Y-63392088D03*
%TD*%
%TO.P,TP21,1,1*%
%TO.N,/E10*%
X144808579Y-63392088D03*
%TD*%
%TO.P,TP9,1,1*%
%TO.N,/E4*%
X96658579Y-64092088D03*
%TD*%
%TO.P,TP16,1,1*%
%TO.N,/E20*%
X95408579Y-66492088D03*
%TD*%
%TO.P,TP12,1,1*%
%TO.N,/E18*%
X96008579Y-92092088D03*
%TD*%
D13*
%TO.P,J1,1,Pin_1*%
%TO.N,/E1*%
X147633579Y-93082088D03*
%TO.P,J1,3,Pin_3*%
%TO.N,/E2*%
X147283579Y-93082088D03*
%TO.P,J1,5,Pin_5*%
%TO.N,/E3*%
X146933579Y-93082088D03*
%TO.P,J1,7,Pin_7*%
%TO.N,/E4*%
X146583579Y-93082088D03*
%TO.P,J1,9,Pin_9*%
%TO.N,/E5*%
X146233579Y-93082088D03*
%TO.P,J1,11,Pin_11*%
%TO.N,/E6*%
X145883579Y-93082088D03*
%TO.P,J1,13,Pin_13*%
%TO.N,/E7*%
X145533579Y-93082088D03*
%TO.P,J1,15,Pin_15*%
%TO.N,/E8*%
X145183579Y-93082088D03*
%TO.P,J1,17,Pin_17*%
%TO.N,/E9*%
X144833579Y-93082088D03*
%TO.P,J1,19,Pin_19*%
%TO.N,/E10*%
X144483579Y-93082088D03*
%TO.P,J1,21,Pin_21*%
%TO.N,/E11*%
X144133579Y-93082088D03*
%TO.P,J1,23,Pin_23*%
%TO.N,/E12*%
X143783579Y-93082088D03*
D14*
%TO.P,J1,MP1,MountPin1*%
%TO.N,/REF*%
X148008579Y-93227088D03*
%TO.P,J1,MP3,MountPin3*%
%TO.N,GNDA*%
X143408579Y-93227088D03*
%TD*%
D12*
%TO.P,TP14,1,1*%
%TO.N,/E19*%
X120408579Y-92092088D03*
%TD*%
%TO.P,TP13,1,1*%
%TO.N,/E6*%
X146008579Y-89092088D03*
%TD*%
%TO.P,TP24,1,1*%
%TO.N,/E24*%
X168708579Y-91492088D03*
%TD*%
%TO.P,TP17,1,1*%
%TO.N,/E8*%
X120408579Y-88392088D03*
%TD*%
%TO.P,TP6,1,1*%
%TO.N,/E2*%
X172308579Y-89092088D03*
%TD*%
%TO.P,TP21,1,1*%
%TO.N,/E10*%
X94808579Y-88392088D03*
%TD*%
%TO.P,TP4,1,1*%
%TO.N,/REF*%
X122708579Y-92092088D03*
%TD*%
%TO.P,TP16,1,1*%
%TO.N,/E20*%
X170408579Y-91492088D03*
%TD*%
%TO.P,TP23,1,1*%
%TO.N,/E11*%
X169108579Y-89092088D03*
%TD*%
%TO.P,TP6,1,1*%
%TO.N,/E2*%
X122308579Y-89092088D03*
%TD*%
%TO.P,TP3,1,1*%
%TO.N,/E15*%
X122708579Y-90292088D03*
%TD*%
%TO.P,TP3,1,1*%
%TO.N,/E15*%
X97708579Y-90292088D03*
%TD*%
%TO.P,TP4,1,1*%
%TO.N,/REF*%
X97708579Y-92092088D03*
%TD*%
%TO.P,TP18,1,1*%
%TO.N,/E21*%
X118708579Y-89692088D03*
%TD*%
%TO.P,TP17,1,1*%
%TO.N,/E8*%
X145408579Y-88392088D03*
%TD*%
%TO.P,TP1,1,1*%
%TO.N,/E13*%
X122708579Y-91492088D03*
%TD*%
%TO.P,TP7,1,1*%
%TO.N,/E3*%
X146608579Y-88392088D03*
%TD*%
%TO.P,TP7,1,1*%
%TO.N,/E3*%
X171608579Y-88392088D03*
%TD*%
%TO.P,TP15,1,1*%
%TO.N,/E7*%
X95408579Y-89092088D03*
%TD*%
%TO.P,TP8,1,1*%
%TO.N,/E16*%
X97708579Y-89692088D03*
%TD*%
%TO.P,TP2,1,1*%
%TO.N,/E14*%
X172708579Y-90892088D03*
%TD*%
%TO.P,TP24,1,1*%
%TO.N,/E24*%
X93708579Y-91492088D03*
%TD*%
%TO.P,TP26,1,1*%
%TO.N,GNDA*%
X93708579Y-92092088D03*
%TD*%
%TO.P,TP7,1,1*%
%TO.N,/E3*%
X96608579Y-88392088D03*
%TD*%
%TO.P,TP3,1,1*%
%TO.N,/E15*%
X147708579Y-90292088D03*
%TD*%
%TO.P,TP4,1,1*%
%TO.N,/REF*%
X147708579Y-92092088D03*
%TD*%
%TO.P,TP20,1,1*%
%TO.N,/E22*%
X168708579Y-90292088D03*
%TD*%
%TO.P,TP9,1,1*%
%TO.N,/E4*%
X121658579Y-89092088D03*
%TD*%
%TO.P,TP13,1,1*%
%TO.N,/E6*%
X171008579Y-89092088D03*
%TD*%
%TO.P,TP13,1,1*%
%TO.N,/E6*%
X96008579Y-89092088D03*
%TD*%
%TO.P,TP5,1,1*%
%TO.N,/E1*%
X97208579Y-88392088D03*
%TD*%
%TO.P,TP1,1,1*%
%TO.N,/E13*%
X147708579Y-91492088D03*
%TD*%
%TO.P,TP26,1,1*%
%TO.N,GNDA*%
X168708579Y-92092088D03*
%TD*%
%TO.P,TP3,1,1*%
%TO.N,/E15*%
X172708579Y-90292088D03*
%TD*%
%TO.P,TP4,1,1*%
%TO.N,/REF*%
X172708579Y-92092088D03*
%TD*%
%TO.P,TP1,1,1*%
%TO.N,/E13*%
X97708579Y-91492088D03*
%TD*%
%TO.P,TP12,1,1*%
%TO.N,/E18*%
X121008579Y-92092088D03*
%TD*%
%TO.P,TP13,1,1*%
%TO.N,/E6*%
X121008579Y-89092088D03*
%TD*%
%TO.P,TP5,1,1*%
%TO.N,/E1*%
X122208579Y-88392088D03*
%TD*%
%TO.P,TP20,1,1*%
%TO.N,/E22*%
X118708579Y-90292088D03*
%TD*%
%TO.P,TP24,1,1*%
%TO.N,/E24*%
X118708579Y-91492088D03*
%TD*%
%TO.P,TP19,1,1*%
%TO.N,/E9*%
X144758579Y-89092088D03*
%TD*%
%TO.P,TP24,1,1*%
%TO.N,/E24*%
X143708579Y-91492088D03*
%TD*%
%TO.P,TP22,1,1*%
%TO.N,/E23*%
X143708579Y-90892088D03*
%TD*%
%TO.P,TP20,1,1*%
%TO.N,/E22*%
X93708579Y-90292088D03*
%TD*%
%TO.P,TP25,1,1*%
%TO.N,/E12*%
X119208579Y-88392088D03*
%TD*%
%TO.P,TP7,1,1*%
%TO.N,/E3*%
X121608579Y-88392088D03*
%TD*%
%TO.P,TP23,1,1*%
%TO.N,/E11*%
X119108579Y-89092088D03*
%TD*%
%TO.P,TP12,1,1*%
%TO.N,/E18*%
X171008579Y-92092088D03*
%TD*%
%TO.P,TP15,1,1*%
%TO.N,/E7*%
X120408579Y-89092088D03*
%TD*%
%TO.P,TP11,1,1*%
%TO.N,/E5*%
X121008579Y-88392088D03*
%TD*%
%TO.P,TP5,1,1*%
%TO.N,/E1*%
X147208579Y-88392088D03*
%TD*%
%TO.P,TP8,1,1*%
%TO.N,/E16*%
X147708579Y-89692088D03*
%TD*%
%TO.P,TP2,1,1*%
%TO.N,/E14*%
X97708579Y-90892088D03*
%TD*%
%TO.P,TP19,1,1*%
%TO.N,/E9*%
X169758579Y-89092088D03*
%TD*%
%TO.P,TP26,1,1*%
%TO.N,GNDA*%
X143708579Y-92092088D03*
%TD*%
%TO.P,TP14,1,1*%
%TO.N,/E19*%
X145408579Y-92092088D03*
%TD*%
%TO.P,TP20,1,1*%
%TO.N,/E22*%
X143708579Y-90292088D03*
%TD*%
D13*
%TO.P,J1,1,Pin_1*%
%TO.N,/E1*%
X172633579Y-93082088D03*
%TO.P,J1,3,Pin_3*%
%TO.N,/E2*%
X172283579Y-93082088D03*
%TO.P,J1,5,Pin_5*%
%TO.N,/E3*%
X171933579Y-93082088D03*
%TO.P,J1,7,Pin_7*%
%TO.N,/E4*%
X171583579Y-93082088D03*
%TO.P,J1,9,Pin_9*%
%TO.N,/E5*%
X171233579Y-93082088D03*
%TO.P,J1,11,Pin_11*%
%TO.N,/E6*%
X170883579Y-93082088D03*
%TO.P,J1,13,Pin_13*%
%TO.N,/E7*%
X170533579Y-93082088D03*
%TO.P,J1,15,Pin_15*%
%TO.N,/E8*%
X170183579Y-93082088D03*
%TO.P,J1,17,Pin_17*%
%TO.N,/E9*%
X169833579Y-93082088D03*
%TO.P,J1,19,Pin_19*%
%TO.N,/E10*%
X169483579Y-93082088D03*
%TO.P,J1,21,Pin_21*%
%TO.N,/E11*%
X169133579Y-93082088D03*
%TO.P,J1,23,Pin_23*%
%TO.N,/E12*%
X168783579Y-93082088D03*
D14*
%TO.P,J1,MP1,MountPin1*%
%TO.N,/REF*%
X173008579Y-93227088D03*
%TO.P,J1,MP3,MountPin3*%
%TO.N,GNDA*%
X168408579Y-93227088D03*
%TD*%
D12*
%TO.P,TP19,1,1*%
%TO.N,/E9*%
X94758579Y-89092088D03*
%TD*%
%TO.P,TP18,1,1*%
%TO.N,/E21*%
X168708579Y-89692088D03*
%TD*%
%TO.P,TP23,1,1*%
%TO.N,/E11*%
X144108579Y-89092088D03*
%TD*%
D13*
%TO.P,J1,1,Pin_1*%
%TO.N,/E1*%
X122633579Y-93082088D03*
%TO.P,J1,3,Pin_3*%
%TO.N,/E2*%
X122283579Y-93082088D03*
%TO.P,J1,5,Pin_5*%
%TO.N,/E3*%
X121933579Y-93082088D03*
%TO.P,J1,7,Pin_7*%
%TO.N,/E4*%
X121583579Y-93082088D03*
%TO.P,J1,9,Pin_9*%
%TO.N,/E5*%
X121233579Y-93082088D03*
%TO.P,J1,11,Pin_11*%
%TO.N,/E6*%
X120883579Y-93082088D03*
%TO.P,J1,13,Pin_13*%
%TO.N,/E7*%
X120533579Y-93082088D03*
%TO.P,J1,15,Pin_15*%
%TO.N,/E8*%
X120183579Y-93082088D03*
%TO.P,J1,17,Pin_17*%
%TO.N,/E9*%
X119833579Y-93082088D03*
%TO.P,J1,19,Pin_19*%
%TO.N,/E10*%
X119483579Y-93082088D03*
%TO.P,J1,21,Pin_21*%
%TO.N,/E11*%
X119133579Y-93082088D03*
%TO.P,J1,23,Pin_23*%
%TO.N,/E12*%
X118783579Y-93082088D03*
D14*
%TO.P,J1,MP1,MountPin1*%
%TO.N,/REF*%
X123008579Y-93227088D03*
%TO.P,J1,MP3,MountPin3*%
%TO.N,GNDA*%
X118408579Y-93227088D03*
%TD*%
D12*
%TO.P,TP21,1,1*%
%TO.N,/E10*%
X119808579Y-88392088D03*
%TD*%
%TO.P,TP9,1,1*%
%TO.N,/E4*%
X171658579Y-89092088D03*
%TD*%
%TO.P,TP25,1,1*%
%TO.N,/E12*%
X144208579Y-88392088D03*
%TD*%
%TO.P,TP10,1,1*%
%TO.N,/E17*%
X121008579Y-91492088D03*
%TD*%
%TO.P,TP25,1,1*%
%TO.N,/E12*%
X94208579Y-88392088D03*
%TD*%
%TO.P,TP12,1,1*%
%TO.N,/E18*%
X146008579Y-92092088D03*
%TD*%
%TO.P,TP11,1,1*%
%TO.N,/E5*%
X171008579Y-88392088D03*
%TD*%
%TO.P,TP15,1,1*%
%TO.N,/E7*%
X170408579Y-89092088D03*
%TD*%
%TO.P,TP17,1,1*%
%TO.N,/E8*%
X170408579Y-88392088D03*
%TD*%
D13*
%TO.P,J1,1,Pin_1*%
%TO.N,/E1*%
X97633579Y-93082088D03*
%TO.P,J1,3,Pin_3*%
%TO.N,/E2*%
X97283579Y-93082088D03*
%TO.P,J1,5,Pin_5*%
%TO.N,/E3*%
X96933579Y-93082088D03*
%TO.P,J1,7,Pin_7*%
%TO.N,/E4*%
X96583579Y-93082088D03*
%TO.P,J1,9,Pin_9*%
%TO.N,/E5*%
X96233579Y-93082088D03*
%TO.P,J1,11,Pin_11*%
%TO.N,/E6*%
X95883579Y-93082088D03*
%TO.P,J1,13,Pin_13*%
%TO.N,/E7*%
X95533579Y-93082088D03*
%TO.P,J1,15,Pin_15*%
%TO.N,/E8*%
X95183579Y-93082088D03*
%TO.P,J1,17,Pin_17*%
%TO.N,/E9*%
X94833579Y-93082088D03*
%TO.P,J1,19,Pin_19*%
%TO.N,/E10*%
X94483579Y-93082088D03*
%TO.P,J1,21,Pin_21*%
%TO.N,/E11*%
X94133579Y-93082088D03*
%TO.P,J1,23,Pin_23*%
%TO.N,/E12*%
X93783579Y-93082088D03*
D14*
%TO.P,J1,MP1,MountPin1*%
%TO.N,/REF*%
X98008579Y-93227088D03*
%TO.P,J1,MP3,MountPin3*%
%TO.N,GNDA*%
X93408579Y-93227088D03*
%TD*%
D12*
%TO.P,TP10,1,1*%
%TO.N,/E17*%
X96008579Y-91492088D03*
%TD*%
%TO.P,TP15,1,1*%
%TO.N,/E7*%
X145408579Y-89092088D03*
%TD*%
%TO.P,TP17,1,1*%
%TO.N,/E8*%
X95408579Y-88392088D03*
%TD*%
%TO.P,TP6,1,1*%
%TO.N,/E2*%
X147308579Y-89092088D03*
%TD*%
%TO.P,TP14,1,1*%
%TO.N,/E19*%
X95408579Y-92092088D03*
%TD*%
%TO.P,TP5,1,1*%
%TO.N,/E1*%
X172208579Y-88392088D03*
%TD*%
%TO.P,TP8,1,1*%
%TO.N,/E16*%
X172708579Y-89692088D03*
%TD*%
%TO.P,TP9,1,1*%
%TO.N,/E4*%
X146658579Y-89092088D03*
%TD*%
%TO.P,TP2,1,1*%
%TO.N,/E14*%
X147708579Y-90892088D03*
%TD*%
%TO.P,TP2,1,1*%
%TO.N,/E14*%
X122708579Y-90892088D03*
%TD*%
%TO.P,TP8,1,1*%
%TO.N,/E16*%
X122708579Y-89692088D03*
%TD*%
%TO.P,TP11,1,1*%
%TO.N,/E5*%
X96008579Y-88392088D03*
%TD*%
%TO.P,TP6,1,1*%
%TO.N,/E2*%
X97308579Y-89092088D03*
%TD*%
%TO.P,TP22,1,1*%
%TO.N,/E23*%
X118708579Y-90892088D03*
%TD*%
%TO.P,TP10,1,1*%
%TO.N,/E17*%
X171008579Y-91492088D03*
%TD*%
%TO.P,TP26,1,1*%
%TO.N,GNDA*%
X118708579Y-92092088D03*
%TD*%
%TO.P,TP19,1,1*%
%TO.N,/E9*%
X119758579Y-89092088D03*
%TD*%
%TO.P,TP22,1,1*%
%TO.N,/E23*%
X168708579Y-90892088D03*
%TD*%
%TO.P,TP1,1,1*%
%TO.N,/E13*%
X172708579Y-91492088D03*
%TD*%
%TO.P,TP14,1,1*%
%TO.N,/E19*%
X170408579Y-92092088D03*
%TD*%
%TO.P,TP10,1,1*%
%TO.N,/E17*%
X146008579Y-91492088D03*
%TD*%
%TO.P,TP16,1,1*%
%TO.N,/E20*%
X120408579Y-91492088D03*
%TD*%
%TO.P,TP16,1,1*%
%TO.N,/E20*%
X145408579Y-91492088D03*
%TD*%
%TO.P,TP25,1,1*%
%TO.N,/E12*%
X169208579Y-88392088D03*
%TD*%
%TO.P,TP11,1,1*%
%TO.N,/E5*%
X146008579Y-88392088D03*
%TD*%
%TO.P,TP18,1,1*%
%TO.N,/E21*%
X93708579Y-89692088D03*
%TD*%
%TO.P,TP23,1,1*%
%TO.N,/E11*%
X94108579Y-89092088D03*
%TD*%
%TO.P,TP18,1,1*%
%TO.N,/E21*%
X143708579Y-89692088D03*
%TD*%
%TO.P,TP22,1,1*%
%TO.N,/E23*%
X93708579Y-90892088D03*
%TD*%
%TO.P,TP21,1,1*%
%TO.N,/E10*%
X169808579Y-88392088D03*
%TD*%
%TO.P,TP21,1,1*%
%TO.N,/E10*%
X144808579Y-88392088D03*
%TD*%
%TO.P,TP9,1,1*%
%TO.N,/E4*%
X96658579Y-89092088D03*
%TD*%
%TO.P,TP16,1,1*%
%TO.N,/E20*%
X95408579Y-91492088D03*
%TD*%
%TO.P,TP21,1,1*%
%TO.N,/E10*%
X144808579Y-113392088D03*
%TD*%
%TO.P,TP21,1,1*%
%TO.N,/E10*%
X169808579Y-113392088D03*
%TD*%
%TO.P,TP18,1,1*%
%TO.N,/E21*%
X143708579Y-114692088D03*
%TD*%
%TO.P,TP11,1,1*%
%TO.N,/E5*%
X146008579Y-113392088D03*
%TD*%
%TO.P,TP25,1,1*%
%TO.N,/E12*%
X169208579Y-113392088D03*
%TD*%
%TO.P,TP16,1,1*%
%TO.N,/E20*%
X145408579Y-116492088D03*
%TD*%
%TO.P,TP16,1,1*%
%TO.N,/E20*%
X120408579Y-116492088D03*
%TD*%
%TO.P,TP10,1,1*%
%TO.N,/E17*%
X146008579Y-116492088D03*
%TD*%
%TO.P,TP14,1,1*%
%TO.N,/E19*%
X170408579Y-117092088D03*
%TD*%
%TO.P,TP1,1,1*%
%TO.N,/E13*%
X172708579Y-116492088D03*
%TD*%
%TO.P,TP22,1,1*%
%TO.N,/E23*%
X168708579Y-115892088D03*
%TD*%
%TO.P,TP19,1,1*%
%TO.N,/E9*%
X119758579Y-114092088D03*
%TD*%
%TO.P,TP26,1,1*%
%TO.N,GNDA*%
X118708579Y-117092088D03*
%TD*%
%TO.P,TP10,1,1*%
%TO.N,/E17*%
X171008579Y-116492088D03*
%TD*%
%TO.P,TP22,1,1*%
%TO.N,/E23*%
X118708579Y-115892088D03*
%TD*%
%TO.P,TP8,1,1*%
%TO.N,/E16*%
X122708579Y-114692088D03*
%TD*%
%TO.P,TP2,1,1*%
%TO.N,/E14*%
X122708579Y-115892088D03*
%TD*%
%TO.P,TP2,1,1*%
%TO.N,/E14*%
X147708579Y-115892088D03*
%TD*%
%TO.P,TP9,1,1*%
%TO.N,/E4*%
X146658579Y-114092088D03*
%TD*%
%TO.P,TP8,1,1*%
%TO.N,/E16*%
X172708579Y-114692088D03*
%TD*%
%TO.P,TP5,1,1*%
%TO.N,/E1*%
X172208579Y-113392088D03*
%TD*%
%TO.P,TP6,1,1*%
%TO.N,/E2*%
X147308579Y-114092088D03*
%TD*%
%TO.P,TP15,1,1*%
%TO.N,/E7*%
X145408579Y-114092088D03*
%TD*%
%TO.P,TP17,1,1*%
%TO.N,/E8*%
X170408579Y-113392088D03*
%TD*%
%TO.P,TP15,1,1*%
%TO.N,/E7*%
X170408579Y-114092088D03*
%TD*%
%TO.P,TP11,1,1*%
%TO.N,/E5*%
X171008579Y-113392088D03*
%TD*%
%TO.P,TP12,1,1*%
%TO.N,/E18*%
X146008579Y-117092088D03*
%TD*%
%TO.P,TP10,1,1*%
%TO.N,/E17*%
X121008579Y-116492088D03*
%TD*%
%TO.P,TP25,1,1*%
%TO.N,/E12*%
X144208579Y-113392088D03*
%TD*%
%TO.P,TP9,1,1*%
%TO.N,/E4*%
X171658579Y-114092088D03*
%TD*%
%TO.P,TP21,1,1*%
%TO.N,/E10*%
X119808579Y-113392088D03*
%TD*%
D13*
%TO.P,J1,1,Pin_1*%
%TO.N,/E1*%
X122633579Y-118082088D03*
%TO.P,J1,3,Pin_3*%
%TO.N,/E2*%
X122283579Y-118082088D03*
%TO.P,J1,5,Pin_5*%
%TO.N,/E3*%
X121933579Y-118082088D03*
%TO.P,J1,7,Pin_7*%
%TO.N,/E4*%
X121583579Y-118082088D03*
%TO.P,J1,9,Pin_9*%
%TO.N,/E5*%
X121233579Y-118082088D03*
%TO.P,J1,11,Pin_11*%
%TO.N,/E6*%
X120883579Y-118082088D03*
%TO.P,J1,13,Pin_13*%
%TO.N,/E7*%
X120533579Y-118082088D03*
%TO.P,J1,15,Pin_15*%
%TO.N,/E8*%
X120183579Y-118082088D03*
%TO.P,J1,17,Pin_17*%
%TO.N,/E9*%
X119833579Y-118082088D03*
%TO.P,J1,19,Pin_19*%
%TO.N,/E10*%
X119483579Y-118082088D03*
%TO.P,J1,21,Pin_21*%
%TO.N,/E11*%
X119133579Y-118082088D03*
%TO.P,J1,23,Pin_23*%
%TO.N,/E12*%
X118783579Y-118082088D03*
D14*
%TO.P,J1,MP1,MountPin1*%
%TO.N,/REF*%
X123008579Y-118227088D03*
%TO.P,J1,MP3,MountPin3*%
%TO.N,GNDA*%
X118408579Y-118227088D03*
%TD*%
D12*
%TO.P,TP23,1,1*%
%TO.N,/E11*%
X144108579Y-114092088D03*
%TD*%
%TO.P,TP18,1,1*%
%TO.N,/E21*%
X168708579Y-114692088D03*
%TD*%
D13*
%TO.P,J1,1,Pin_1*%
%TO.N,/E1*%
X172633579Y-118082088D03*
%TO.P,J1,3,Pin_3*%
%TO.N,/E2*%
X172283579Y-118082088D03*
%TO.P,J1,5,Pin_5*%
%TO.N,/E3*%
X171933579Y-118082088D03*
%TO.P,J1,7,Pin_7*%
%TO.N,/E4*%
X171583579Y-118082088D03*
%TO.P,J1,9,Pin_9*%
%TO.N,/E5*%
X171233579Y-118082088D03*
%TO.P,J1,11,Pin_11*%
%TO.N,/E6*%
X170883579Y-118082088D03*
%TO.P,J1,13,Pin_13*%
%TO.N,/E7*%
X170533579Y-118082088D03*
%TO.P,J1,15,Pin_15*%
%TO.N,/E8*%
X170183579Y-118082088D03*
%TO.P,J1,17,Pin_17*%
%TO.N,/E9*%
X169833579Y-118082088D03*
%TO.P,J1,19,Pin_19*%
%TO.N,/E10*%
X169483579Y-118082088D03*
%TO.P,J1,21,Pin_21*%
%TO.N,/E11*%
X169133579Y-118082088D03*
%TO.P,J1,23,Pin_23*%
%TO.N,/E12*%
X168783579Y-118082088D03*
D14*
%TO.P,J1,MP1,MountPin1*%
%TO.N,/REF*%
X173008579Y-118227088D03*
%TO.P,J1,MP3,MountPin3*%
%TO.N,GNDA*%
X168408579Y-118227088D03*
%TD*%
D12*
%TO.P,TP20,1,1*%
%TO.N,/E22*%
X143708579Y-115292088D03*
%TD*%
%TO.P,TP14,1,1*%
%TO.N,/E19*%
X145408579Y-117092088D03*
%TD*%
%TO.P,TP26,1,1*%
%TO.N,GNDA*%
X143708579Y-117092088D03*
%TD*%
%TO.P,TP19,1,1*%
%TO.N,/E9*%
X169758579Y-114092088D03*
%TD*%
%TO.P,TP8,1,1*%
%TO.N,/E16*%
X147708579Y-114692088D03*
%TD*%
%TO.P,TP5,1,1*%
%TO.N,/E1*%
X147208579Y-113392088D03*
%TD*%
%TO.P,TP11,1,1*%
%TO.N,/E5*%
X121008579Y-113392088D03*
%TD*%
%TO.P,TP15,1,1*%
%TO.N,/E7*%
X120408579Y-114092088D03*
%TD*%
%TO.P,TP12,1,1*%
%TO.N,/E18*%
X171008579Y-117092088D03*
%TD*%
%TO.P,TP23,1,1*%
%TO.N,/E11*%
X119108579Y-114092088D03*
%TD*%
%TO.P,TP7,1,1*%
%TO.N,/E3*%
X121608579Y-113392088D03*
%TD*%
%TO.P,TP25,1,1*%
%TO.N,/E12*%
X119208579Y-113392088D03*
%TD*%
%TO.P,TP22,1,1*%
%TO.N,/E23*%
X143708579Y-115892088D03*
%TD*%
%TO.P,TP24,1,1*%
%TO.N,/E24*%
X143708579Y-116492088D03*
%TD*%
%TO.P,TP19,1,1*%
%TO.N,/E9*%
X144758579Y-114092088D03*
%TD*%
%TO.P,TP24,1,1*%
%TO.N,/E24*%
X118708579Y-116492088D03*
%TD*%
%TO.P,TP20,1,1*%
%TO.N,/E22*%
X118708579Y-115292088D03*
%TD*%
%TO.P,TP5,1,1*%
%TO.N,/E1*%
X122208579Y-113392088D03*
%TD*%
%TO.P,TP13,1,1*%
%TO.N,/E6*%
X121008579Y-114092088D03*
%TD*%
%TO.P,TP12,1,1*%
%TO.N,/E18*%
X121008579Y-117092088D03*
%TD*%
%TO.P,TP4,1,1*%
%TO.N,/REF*%
X172708579Y-117092088D03*
%TD*%
%TO.P,TP3,1,1*%
%TO.N,/E15*%
X172708579Y-115292088D03*
%TD*%
%TO.P,TP26,1,1*%
%TO.N,GNDA*%
X168708579Y-117092088D03*
%TD*%
%TO.P,TP1,1,1*%
%TO.N,/E13*%
X147708579Y-116492088D03*
%TD*%
%TO.P,TP13,1,1*%
%TO.N,/E6*%
X171008579Y-114092088D03*
%TD*%
%TO.P,TP9,1,1*%
%TO.N,/E4*%
X121658579Y-114092088D03*
%TD*%
%TO.P,TP20,1,1*%
%TO.N,/E22*%
X168708579Y-115292088D03*
%TD*%
%TO.P,TP4,1,1*%
%TO.N,/REF*%
X147708579Y-117092088D03*
%TD*%
%TO.P,TP3,1,1*%
%TO.N,/E15*%
X147708579Y-115292088D03*
%TD*%
%TO.P,TP2,1,1*%
%TO.N,/E14*%
X172708579Y-115892088D03*
%TD*%
%TO.P,TP7,1,1*%
%TO.N,/E3*%
X171608579Y-113392088D03*
%TD*%
%TO.P,TP7,1,1*%
%TO.N,/E3*%
X146608579Y-113392088D03*
%TD*%
%TO.P,TP1,1,1*%
%TO.N,/E13*%
X122708579Y-116492088D03*
%TD*%
%TO.P,TP17,1,1*%
%TO.N,/E8*%
X145408579Y-113392088D03*
%TD*%
%TO.P,TP18,1,1*%
%TO.N,/E21*%
X118708579Y-114692088D03*
%TD*%
%TO.P,TP3,1,1*%
%TO.N,/E15*%
X122708579Y-115292088D03*
%TD*%
%TO.P,TP6,1,1*%
%TO.N,/E2*%
X122308579Y-114092088D03*
%TD*%
%TO.P,TP23,1,1*%
%TO.N,/E11*%
X169108579Y-114092088D03*
%TD*%
%TO.P,TP16,1,1*%
%TO.N,/E20*%
X170408579Y-116492088D03*
%TD*%
%TO.P,TP4,1,1*%
%TO.N,/REF*%
X122708579Y-117092088D03*
%TD*%
%TO.P,TP6,1,1*%
%TO.N,/E2*%
X172308579Y-114092088D03*
%TD*%
%TO.P,TP17,1,1*%
%TO.N,/E8*%
X120408579Y-113392088D03*
%TD*%
%TO.P,TP24,1,1*%
%TO.N,/E24*%
X168708579Y-116492088D03*
%TD*%
%TO.P,TP13,1,1*%
%TO.N,/E6*%
X146008579Y-114092088D03*
%TD*%
%TO.P,TP14,1,1*%
%TO.N,/E19*%
X120408579Y-117092088D03*
%TD*%
D13*
%TO.P,J1,1,Pin_1*%
%TO.N,/E1*%
X147633579Y-118082088D03*
%TO.P,J1,3,Pin_3*%
%TO.N,/E2*%
X147283579Y-118082088D03*
%TO.P,J1,5,Pin_5*%
%TO.N,/E3*%
X146933579Y-118082088D03*
%TO.P,J1,7,Pin_7*%
%TO.N,/E4*%
X146583579Y-118082088D03*
%TO.P,J1,9,Pin_9*%
%TO.N,/E5*%
X146233579Y-118082088D03*
%TO.P,J1,11,Pin_11*%
%TO.N,/E6*%
X145883579Y-118082088D03*
%TO.P,J1,13,Pin_13*%
%TO.N,/E7*%
X145533579Y-118082088D03*
%TO.P,J1,15,Pin_15*%
%TO.N,/E8*%
X145183579Y-118082088D03*
%TO.P,J1,17,Pin_17*%
%TO.N,/E9*%
X144833579Y-118082088D03*
%TO.P,J1,19,Pin_19*%
%TO.N,/E10*%
X144483579Y-118082088D03*
%TO.P,J1,21,Pin_21*%
%TO.N,/E11*%
X144133579Y-118082088D03*
%TO.P,J1,23,Pin_23*%
%TO.N,/E12*%
X143783579Y-118082088D03*
D14*
%TO.P,J1,MP1,MountPin1*%
%TO.N,/REF*%
X148008579Y-118227088D03*
%TO.P,J1,MP3,MountPin3*%
%TO.N,GNDA*%
X143408579Y-118227088D03*
%TD*%
D12*
%TO.P,TP7,1,1*%
%TO.N,/E3*%
X96608579Y-113392088D03*
%TD*%
%TO.P,TP26,1,1*%
%TO.N,GNDA*%
X93708579Y-117092088D03*
%TD*%
%TO.P,TP15,1,1*%
%TO.N,/E7*%
X95408579Y-114092088D03*
%TD*%
%TO.P,TP8,1,1*%
%TO.N,/E16*%
X97708579Y-114692088D03*
%TD*%
%TO.P,TP24,1,1*%
%TO.N,/E24*%
X93708579Y-116492088D03*
%TD*%
D15*
%TO.P,REF\u002A\u002A,1*%
%TO.N,N/C*%
X75500000Y-140700000D03*
%TD*%
%TO.P,REF\u002A\u002A,1*%
%TO.N,N/C*%
X75500000Y-40700000D03*
%TD*%
D12*
%TO.P,TP1,1,1*%
%TO.N,/E13*%
X97708579Y-116492088D03*
%TD*%
%TO.P,TP5,1,1*%
%TO.N,/E1*%
X97208579Y-113392088D03*
%TD*%
%TO.P,TP13,1,1*%
%TO.N,/E6*%
X96008579Y-114092088D03*
%TD*%
%TO.P,TP12,1,1*%
%TO.N,/E18*%
X96008579Y-117092088D03*
%TD*%
%TO.P,TP3,1,1*%
%TO.N,/E15*%
X97708579Y-115292088D03*
%TD*%
%TO.P,TP4,1,1*%
%TO.N,/REF*%
X97708579Y-117092088D03*
%TD*%
%TO.P,TP6,1,1*%
%TO.N,/E2*%
X97308579Y-114092088D03*
%TD*%
%TO.P,TP11,1,1*%
%TO.N,/E5*%
X96008579Y-113392088D03*
%TD*%
%TO.P,TP16,1,1*%
%TO.N,/E20*%
X95408579Y-116492088D03*
%TD*%
%TO.P,TP9,1,1*%
%TO.N,/E4*%
X96658579Y-114092088D03*
%TD*%
%TO.P,TP22,1,1*%
%TO.N,/E23*%
X93708579Y-115892088D03*
%TD*%
%TO.P,TP23,1,1*%
%TO.N,/E11*%
X94108579Y-114092088D03*
%TD*%
%TO.P,TP18,1,1*%
%TO.N,/E21*%
X93708579Y-114692088D03*
%TD*%
%TO.P,TP17,1,1*%
%TO.N,/E8*%
X95408579Y-113392088D03*
%TD*%
%TO.P,TP10,1,1*%
%TO.N,/E17*%
X96008579Y-116492088D03*
%TD*%
%TO.P,TP14,1,1*%
%TO.N,/E19*%
X95408579Y-117092088D03*
%TD*%
%TO.P,TP25,1,1*%
%TO.N,/E12*%
X94208579Y-113392088D03*
%TD*%
D13*
%TO.P,J1,1,Pin_1*%
%TO.N,/E1*%
X97633579Y-118082088D03*
%TO.P,J1,3,Pin_3*%
%TO.N,/E2*%
X97283579Y-118082088D03*
%TO.P,J1,5,Pin_5*%
%TO.N,/E3*%
X96933579Y-118082088D03*
%TO.P,J1,7,Pin_7*%
%TO.N,/E4*%
X96583579Y-118082088D03*
%TO.P,J1,9,Pin_9*%
%TO.N,/E5*%
X96233579Y-118082088D03*
%TO.P,J1,11,Pin_11*%
%TO.N,/E6*%
X95883579Y-118082088D03*
%TO.P,J1,13,Pin_13*%
%TO.N,/E7*%
X95533579Y-118082088D03*
%TO.P,J1,15,Pin_15*%
%TO.N,/E8*%
X95183579Y-118082088D03*
%TO.P,J1,17,Pin_17*%
%TO.N,/E9*%
X94833579Y-118082088D03*
%TO.P,J1,19,Pin_19*%
%TO.N,/E10*%
X94483579Y-118082088D03*
%TO.P,J1,21,Pin_21*%
%TO.N,/E11*%
X94133579Y-118082088D03*
%TO.P,J1,23,Pin_23*%
%TO.N,/E12*%
X93783579Y-118082088D03*
D14*
%TO.P,J1,MP1,MountPin1*%
%TO.N,/REF*%
X98008579Y-118227088D03*
%TO.P,J1,MP3,MountPin3*%
%TO.N,GNDA*%
X93408579Y-118227088D03*
%TD*%
D15*
%TO.P,REF\u002A\u002A,1*%
%TO.N,N/C*%
X190500000Y-40700000D03*
%TD*%
D12*
%TO.P,TP19,1,1*%
%TO.N,/E9*%
X94758579Y-114092088D03*
%TD*%
%TO.P,TP2,1,1*%
%TO.N,/E14*%
X97708579Y-115892088D03*
%TD*%
%TO.P,TP20,1,1*%
%TO.N,/E22*%
X93708579Y-115292088D03*
%TD*%
%TO.P,TP21,1,1*%
%TO.N,/E10*%
X94808579Y-113392088D03*
%TD*%
D15*
%TO.P,REF\u002A\u002A,1*%
%TO.N,N/C*%
X190500000Y-140700000D03*
%TD*%
D16*
%TO.N,GNDA*%
X143408579Y-67392088D02*
X143708579Y-67092088D01*
X93408579Y-68227088D02*
X93408579Y-67392088D01*
X143408579Y-68227088D02*
X143408579Y-67392088D01*
X168408579Y-67392088D02*
X168708579Y-67092088D01*
X118408579Y-67392088D02*
X118708579Y-67092088D01*
%TO.N,/E2*%
X172232848Y-64167819D02*
X172232848Y-64316357D01*
X147283579Y-67782088D02*
X147232848Y-67731357D01*
X97283579Y-67782088D02*
X97232848Y-67731357D01*
X97232848Y-64316357D02*
X97232848Y-67731357D01*
X147232848Y-64316357D02*
X147232848Y-67731357D01*
X172232848Y-64316357D02*
X172232848Y-67731357D01*
X172283579Y-67782088D02*
X172232848Y-67731357D01*
X172308579Y-64092088D02*
X172232848Y-64167819D01*
X97308579Y-64092088D02*
X97232848Y-64167819D01*
X122283579Y-67782088D02*
X122232848Y-67731357D01*
X122232848Y-64167819D02*
X122232848Y-64316357D01*
X147308579Y-64092088D02*
X147232848Y-64167819D01*
X97283579Y-68082088D02*
X97283579Y-67782088D01*
X97232848Y-64167819D02*
X97232848Y-64316357D01*
X122283579Y-68082088D02*
X122283579Y-67782088D01*
X172283579Y-68082088D02*
X172283579Y-67782088D01*
X147283579Y-68082088D02*
X147283579Y-67782088D01*
X147232848Y-64167819D02*
X147232848Y-64316357D01*
X122308579Y-64092088D02*
X122232848Y-64167819D01*
X122232848Y-64316357D02*
X122232848Y-67731357D01*
%TO.N,/E1*%
X172658579Y-64200027D02*
X172384768Y-64473838D01*
X172384768Y-67268277D02*
X172633579Y-67517088D01*
X147658579Y-64200027D02*
X147384768Y-64473838D01*
X147633579Y-67517088D02*
X147633579Y-68082088D01*
X122384768Y-67268277D02*
X122633579Y-67517088D01*
X172384768Y-64473838D02*
X172384768Y-67268277D01*
X122633579Y-67517088D02*
X122633579Y-68082088D01*
X97208579Y-63392088D02*
X97658579Y-63842088D01*
X172633579Y-67517088D02*
X172633579Y-68082088D01*
X97384768Y-67268277D02*
X97633579Y-67517088D01*
X97658579Y-64200027D02*
X97384768Y-64473838D01*
X172208579Y-63392088D02*
X172658579Y-63842088D01*
X147384768Y-67268277D02*
X147633579Y-67517088D01*
X97633579Y-67517088D02*
X97633579Y-68082088D01*
X122384768Y-64473838D02*
X122384768Y-67268277D01*
X97658579Y-63842088D02*
X97658579Y-64200027D01*
X147658579Y-63842088D02*
X147658579Y-64200027D01*
X147208579Y-63392088D02*
X147658579Y-63842088D01*
X172658579Y-63842088D02*
X172658579Y-64200027D01*
X122658579Y-64200027D02*
X122384768Y-64473838D01*
X97384768Y-64473838D02*
X97384768Y-67268277D01*
X122208579Y-63392088D02*
X122658579Y-63842088D01*
X147384768Y-64473838D02*
X147384768Y-67268277D01*
%TO.N,GNDA*%
X168408579Y-68227088D02*
X168408579Y-67392088D01*
%TO.N,/E1*%
X122658579Y-63842088D02*
X122658579Y-64200027D01*
%TO.N,GNDA*%
X118408579Y-68227088D02*
X118408579Y-67392088D01*
X93408579Y-67392088D02*
X93708579Y-67092088D01*
%TO.N,/REF*%
X122708579Y-67092088D02*
X123008579Y-67392088D01*
X148008579Y-67392088D02*
X148008579Y-68227088D01*
X147708579Y-67092088D02*
X148008579Y-67392088D01*
X173008579Y-67392088D02*
X173008579Y-68227088D01*
X98008579Y-67392088D02*
X98008579Y-68227088D01*
X172708579Y-67092088D02*
X173008579Y-67392088D01*
X123008579Y-67392088D02*
X123008579Y-68227088D01*
X97708579Y-67092088D02*
X98008579Y-67392088D01*
%TO.N,/E12*%
X168784768Y-63815899D02*
X169208579Y-63392088D01*
X94108579Y-67342088D02*
X94108579Y-64634149D01*
X169108579Y-67342088D02*
X169108579Y-64634149D01*
X118784768Y-63815899D02*
X119208579Y-63392088D01*
X119108579Y-67342088D02*
X119108579Y-64634149D01*
X93783579Y-67667088D02*
X94108579Y-67342088D01*
X119108579Y-64634149D02*
X118784768Y-64310338D01*
X168783579Y-68082088D02*
X168783579Y-67667088D01*
X143783579Y-67667088D02*
X144108579Y-67342088D01*
X143784768Y-63815899D02*
X144208579Y-63392088D01*
X118783579Y-68082088D02*
X118783579Y-67667088D01*
X118783579Y-67667088D02*
X119108579Y-67342088D01*
X93784768Y-64310338D02*
X93784768Y-63815899D01*
X144108579Y-67342088D02*
X144108579Y-64634149D01*
X168784768Y-64310338D02*
X168784768Y-63815899D01*
X94108579Y-64634149D02*
X93784768Y-64310338D01*
X143784768Y-64310338D02*
X143784768Y-63815899D01*
%TO.N,/E11*%
X144260499Y-64244008D02*
X144108579Y-64092088D01*
%TO.N,/E12*%
X93783579Y-68082088D02*
X93783579Y-67667088D01*
X93784768Y-63815899D02*
X94208579Y-63392088D01*
X169108579Y-64634149D02*
X168784768Y-64310338D01*
X143783579Y-68082088D02*
X143783579Y-67667088D01*
X118784768Y-64310338D02*
X118784768Y-63815899D01*
X168783579Y-67667088D02*
X169108579Y-67342088D01*
X144108579Y-64634149D02*
X143784768Y-64310338D01*
%TO.N,/E11*%
X169260499Y-67442069D02*
X169260499Y-64244008D01*
X119260499Y-64244008D02*
X119108579Y-64092088D01*
X119133579Y-68082088D02*
X119133579Y-67568989D01*
X144133579Y-67568989D02*
X144260499Y-67442069D01*
X94133579Y-67568989D02*
X94260499Y-67442069D01*
X119260499Y-67442069D02*
X119260499Y-64244008D01*
X119133579Y-67568989D02*
X119260499Y-67442069D01*
X94260499Y-64244008D02*
X94108579Y-64092088D01*
X94260499Y-67442069D02*
X94260499Y-64244008D01*
X169133579Y-67568989D02*
X169260499Y-67442069D01*
X144133579Y-68082088D02*
X144133579Y-67568989D01*
%TO.N,/E10*%
X94434768Y-63765899D02*
X94808579Y-63392088D01*
%TO.N,/E11*%
X169260499Y-64244008D02*
X169108579Y-64092088D01*
X94133579Y-68082088D02*
X94133579Y-67568989D01*
X144260499Y-67442069D02*
X144260499Y-64244008D01*
%TO.N,/E10*%
X144483579Y-67659408D02*
X144483579Y-68082088D01*
%TO.N,/E11*%
X169133579Y-68082088D02*
X169133579Y-67568989D01*
%TO.N,/E10*%
X94434768Y-64203430D02*
X94434768Y-63765899D01*
X169434768Y-63765899D02*
X169808579Y-63392088D01*
X119434768Y-63765899D02*
X119808579Y-63392088D01*
X144412419Y-67588248D02*
X144483579Y-67659408D01*
X94412419Y-64225779D02*
X94434768Y-64203430D01*
X169412419Y-67588248D02*
X169412419Y-64225779D01*
X94412419Y-67588248D02*
X94412419Y-64225779D01*
X144434768Y-63765899D02*
X144808579Y-63392088D01*
X119412419Y-67588248D02*
X119483579Y-67659408D01*
X169412419Y-67588248D02*
X169483579Y-67659408D01*
X94483579Y-67659408D02*
X94483579Y-68082088D01*
X169434768Y-64203430D02*
X169434768Y-63765899D01*
X169412419Y-64225779D02*
X169434768Y-64203430D01*
X169483579Y-67659408D02*
X169483579Y-68082088D01*
X94412419Y-67588248D02*
X94483579Y-67659408D01*
X119434768Y-64203430D02*
X119434768Y-63765899D01*
X119412419Y-64225779D02*
X119434768Y-64203430D01*
X119483579Y-67659408D02*
X119483579Y-68082088D01*
%TO.N,/E9*%
X119833579Y-68082088D02*
X119833579Y-67637088D01*
%TO.N,/E10*%
X144412419Y-64225779D02*
X144434768Y-64203430D01*
X144412419Y-67588248D02*
X144412419Y-64225779D01*
%TO.N,/E9*%
X144564339Y-64286328D02*
X144758579Y-64092088D01*
X119564339Y-64286328D02*
X119758579Y-64092088D01*
X144833579Y-68082088D02*
X144833579Y-67637088D01*
X144564339Y-67367848D02*
X144564339Y-64286328D01*
X94564339Y-64286328D02*
X94758579Y-64092088D01*
X119564339Y-67367848D02*
X119564339Y-64286328D01*
X169833579Y-68082088D02*
X169833579Y-67637088D01*
%TO.N,/E10*%
X144434768Y-64203430D02*
X144434768Y-63765899D01*
%TO.N,/E9*%
X94564339Y-67367848D02*
X94564339Y-64286328D01*
X119833579Y-67637088D02*
X119564339Y-67367848D01*
%TO.N,/E10*%
X119412419Y-67588248D02*
X119412419Y-64225779D01*
%TO.N,/E9*%
X169564339Y-67367848D02*
X169564339Y-64286328D01*
X144833579Y-67637088D02*
X144564339Y-67367848D01*
X169564339Y-64286328D02*
X169758579Y-64092088D01*
X169833579Y-67637088D02*
X169564339Y-67367848D01*
X94833579Y-67637088D02*
X94564339Y-67367848D01*
X94833579Y-68082088D02*
X94833579Y-67637088D01*
%TO.N,/E8*%
X95183579Y-67767088D02*
X94716259Y-67299768D01*
X145082390Y-64226216D02*
X145082390Y-63718277D01*
X119716259Y-67299768D02*
X119716259Y-64592347D01*
X170082390Y-63718277D02*
X170408579Y-63392088D01*
X170183579Y-67767088D02*
X169716259Y-67299768D01*
X169716259Y-64592347D02*
X170082390Y-64226216D01*
X94716259Y-67299768D02*
X94716259Y-64592347D01*
X95082390Y-64226216D02*
X95082390Y-63718277D01*
X145183579Y-67767088D02*
X144716259Y-67299768D01*
X120183579Y-67767088D02*
X119716259Y-67299768D01*
X144716259Y-64592347D02*
X145082390Y-64226216D01*
X169716259Y-67299768D02*
X169716259Y-64592347D01*
X95183579Y-68082088D02*
X95183579Y-67767088D01*
X145183579Y-68082088D02*
X145183579Y-67767088D01*
X170183579Y-68082088D02*
X170183579Y-67767088D01*
X95082390Y-63718277D02*
X95408579Y-63392088D01*
X144716259Y-67299768D02*
X144716259Y-64592347D01*
X120183579Y-68082088D02*
X120183579Y-67767088D01*
X94716259Y-64592347D02*
X95082390Y-64226216D01*
X119716259Y-64592347D02*
X120082390Y-64226216D01*
X170082390Y-64226216D02*
X170082390Y-63718277D01*
X120082390Y-63718277D02*
X120408579Y-63392088D01*
X120082390Y-64226216D02*
X120082390Y-63718277D01*
X145082390Y-63718277D02*
X145408579Y-63392088D01*
%TO.N,/E7*%
X95533579Y-68082088D02*
X95533579Y-67817088D01*
X119868179Y-64732488D02*
X120408579Y-64192088D01*
X145408579Y-64192088D02*
X145408579Y-64092088D01*
X145533579Y-68082088D02*
X145533579Y-67817088D01*
X144868179Y-67151688D02*
X144868179Y-64732488D01*
X95408579Y-64192088D02*
X95408579Y-64092088D01*
X169868179Y-67151688D02*
X169868179Y-64732488D01*
X120533579Y-67817088D02*
X119868179Y-67151688D01*
X170533579Y-67817088D02*
X169868179Y-67151688D01*
X94868179Y-64732488D02*
X95408579Y-64192088D01*
X119868179Y-67151688D02*
X119868179Y-64732488D01*
X145533579Y-67817088D02*
X144868179Y-67151688D01*
X170533579Y-68082088D02*
X170533579Y-67817088D01*
%TO.N,/E6*%
X145883579Y-67817088D02*
X146608579Y-67092088D01*
%TO.N,/E7*%
X144868179Y-64732488D02*
X145408579Y-64192088D01*
%TO.N,/E6*%
X170883579Y-67817088D02*
X171608579Y-67092088D01*
%TO.N,/E7*%
X120408579Y-64192088D02*
X120408579Y-64092088D01*
X169868179Y-64732488D02*
X170408579Y-64192088D01*
X94868179Y-67151688D02*
X94868179Y-64732488D01*
%TO.N,/E6*%
X171608579Y-67092088D02*
X171608579Y-64867088D01*
X121608579Y-67092088D02*
X121608579Y-64867088D01*
%TO.N,/E7*%
X95533579Y-67817088D02*
X94868179Y-67151688D01*
X120533579Y-68082088D02*
X120533579Y-67817088D01*
X170408579Y-64192088D02*
X170408579Y-64092088D01*
%TO.N,/E6*%
X121608579Y-64867088D02*
X121071079Y-64329588D01*
X96608579Y-67092088D02*
X96608579Y-64867088D01*
X146008579Y-64267088D02*
X146071079Y-64329588D01*
X120883579Y-67817088D02*
X121608579Y-67092088D01*
X95883579Y-68082088D02*
X95883579Y-67817088D01*
X121008579Y-64267088D02*
X121071079Y-64329588D01*
X146608579Y-67092088D02*
X146608579Y-64867088D01*
X95883579Y-67817088D02*
X96608579Y-67092088D01*
X171008579Y-64092088D02*
X171008579Y-64267088D01*
X171608579Y-64867088D02*
X171071079Y-64329588D01*
X96008579Y-64092088D02*
X96008579Y-64267088D01*
X171008579Y-64267088D02*
X171071079Y-64329588D01*
X121008579Y-64092088D02*
X121008579Y-64267088D01*
X96608579Y-64867088D02*
X96071079Y-64329588D01*
X146008579Y-64092088D02*
X146008579Y-64267088D01*
X96008579Y-64267088D02*
X96071079Y-64329588D01*
X170883579Y-68082088D02*
X170883579Y-67817088D01*
X146608579Y-64867088D02*
X146071079Y-64329588D01*
X120883579Y-68082088D02*
X120883579Y-67817088D01*
%TO.N,/E5*%
X121334768Y-63718277D02*
X121008579Y-63392088D01*
%TO.N,/E6*%
X145883579Y-68082088D02*
X145883579Y-67817088D01*
%TO.N,/E5*%
X171334768Y-64318277D02*
X171334768Y-63718277D01*
X146233579Y-67867088D02*
X146777088Y-67323579D01*
X146777088Y-64760597D02*
X146334768Y-64318277D01*
X96334768Y-64318277D02*
X96334768Y-63718277D01*
X171777088Y-67323579D02*
X171777088Y-64760597D01*
X96334768Y-63718277D02*
X96008579Y-63392088D01*
X146334768Y-63718277D02*
X146008579Y-63392088D01*
X146233579Y-68082088D02*
X146233579Y-67867088D01*
X171233579Y-67867088D02*
X171777088Y-67323579D01*
X146777088Y-67323579D02*
X146777088Y-64760597D01*
X146334768Y-64318277D02*
X146334768Y-63718277D01*
X96233579Y-68082088D02*
X96233579Y-67867088D01*
X171334768Y-63718277D02*
X171008579Y-63392088D01*
X96233579Y-67867088D02*
X96777088Y-67323579D01*
X121233579Y-67867088D02*
X121777088Y-67323579D01*
X96777088Y-64760597D02*
X96334768Y-64318277D01*
X96777088Y-67323579D02*
X96777088Y-64760597D01*
X121334768Y-64318277D02*
X121334768Y-63718277D01*
X171777088Y-64760597D02*
X171334768Y-64318277D01*
X121777088Y-67323579D02*
X121777088Y-64760597D01*
X121233579Y-68082088D02*
X121233579Y-67867088D01*
X171233579Y-68082088D02*
X171233579Y-67867088D01*
X121777088Y-64760597D02*
X121334768Y-64318277D01*
%TO.N,/E4*%
X96929008Y-64429743D02*
X96658579Y-64159314D01*
X171583579Y-68082088D02*
X171583579Y-67817088D01*
X146583579Y-68082088D02*
X146583579Y-67817088D01*
X121658579Y-64159314D02*
X121658579Y-64092088D01*
X96929008Y-67471659D02*
X96929008Y-64429743D01*
X121583579Y-67817088D02*
X121929008Y-67471659D01*
X171929008Y-67471659D02*
X171929008Y-64429743D01*
X146583579Y-67817088D02*
X146929008Y-67471659D01*
X121929008Y-64429743D02*
X121658579Y-64159314D01*
X146658579Y-64159314D02*
X146658579Y-64092088D01*
X96583579Y-68082088D02*
X96583579Y-67817088D01*
X121929008Y-67471659D02*
X121929008Y-64429743D01*
X121583579Y-68082088D02*
X121583579Y-67817088D01*
X146929008Y-64429743D02*
X146658579Y-64159314D01*
X96658579Y-64159314D02*
X96658579Y-64092088D01*
X171658579Y-64159314D02*
X171658579Y-64092088D01*
X171583579Y-67817088D02*
X171929008Y-67471659D01*
X146929008Y-67471659D02*
X146929008Y-64429743D01*
X171929008Y-64429743D02*
X171658579Y-64159314D01*
X96583579Y-67817088D02*
X96929008Y-67471659D01*
%TO.N,/E3*%
X171933579Y-67811786D02*
X172080928Y-67664437D01*
X146982390Y-64268277D02*
X146982390Y-63765899D01*
X97080928Y-67664437D02*
X97080928Y-64366815D01*
X97080928Y-64366815D02*
X96982390Y-64268277D01*
X122080928Y-67664437D02*
X122080928Y-64366815D01*
X96933579Y-67811786D02*
X97080928Y-67664437D01*
X146933579Y-67811786D02*
X147080928Y-67664437D01*
X147080928Y-67664437D02*
X147080928Y-64366815D01*
X147080928Y-64366815D02*
X146982390Y-64268277D01*
X121933579Y-67811786D02*
X122080928Y-67664437D01*
X171982390Y-64268277D02*
X171982390Y-63765899D01*
X96982390Y-63765899D02*
X96608579Y-63392088D01*
X121933579Y-68082088D02*
X121933579Y-67811786D01*
X96933579Y-68082088D02*
X96933579Y-67811786D01*
X146933579Y-68082088D02*
X146933579Y-67811786D01*
X96982390Y-64268277D02*
X96982390Y-63765899D01*
X146982390Y-63765899D02*
X146608579Y-63392088D01*
X172080928Y-67664437D02*
X172080928Y-64366815D01*
X122080928Y-64366815D02*
X121982390Y-64268277D01*
X172080928Y-64366815D02*
X171982390Y-64268277D01*
X121982390Y-63765899D02*
X121608579Y-63392088D01*
X121982390Y-64268277D02*
X121982390Y-63765899D01*
X171982390Y-63765899D02*
X171608579Y-63392088D01*
X171933579Y-68082088D02*
X171933579Y-67811786D01*
%TO.N,GNDA*%
X143408579Y-92392088D02*
X143708579Y-92092088D01*
X93408579Y-93227088D02*
X93408579Y-92392088D01*
X143408579Y-93227088D02*
X143408579Y-92392088D01*
X168408579Y-92392088D02*
X168708579Y-92092088D01*
X118408579Y-92392088D02*
X118708579Y-92092088D01*
%TO.N,/E2*%
X172232848Y-89167819D02*
X172232848Y-89316357D01*
X147283579Y-92782088D02*
X147232848Y-92731357D01*
X97283579Y-92782088D02*
X97232848Y-92731357D01*
X97232848Y-89316357D02*
X97232848Y-92731357D01*
X147232848Y-89316357D02*
X147232848Y-92731357D01*
X172232848Y-89316357D02*
X172232848Y-92731357D01*
X172283579Y-92782088D02*
X172232848Y-92731357D01*
X172308579Y-89092088D02*
X172232848Y-89167819D01*
X97308579Y-89092088D02*
X97232848Y-89167819D01*
X122283579Y-92782088D02*
X122232848Y-92731357D01*
X122232848Y-89167819D02*
X122232848Y-89316357D01*
X147308579Y-89092088D02*
X147232848Y-89167819D01*
X97283579Y-93082088D02*
X97283579Y-92782088D01*
X97232848Y-89167819D02*
X97232848Y-89316357D01*
X122283579Y-93082088D02*
X122283579Y-92782088D01*
X172283579Y-93082088D02*
X172283579Y-92782088D01*
X147283579Y-93082088D02*
X147283579Y-92782088D01*
X147232848Y-89167819D02*
X147232848Y-89316357D01*
X122308579Y-89092088D02*
X122232848Y-89167819D01*
X122232848Y-89316357D02*
X122232848Y-92731357D01*
%TO.N,/E1*%
X172658579Y-89200027D02*
X172384768Y-89473838D01*
X172384768Y-92268277D02*
X172633579Y-92517088D01*
X147658579Y-89200027D02*
X147384768Y-89473838D01*
X147633579Y-92517088D02*
X147633579Y-93082088D01*
X122384768Y-92268277D02*
X122633579Y-92517088D01*
X172384768Y-89473838D02*
X172384768Y-92268277D01*
X122633579Y-92517088D02*
X122633579Y-93082088D01*
X97208579Y-88392088D02*
X97658579Y-88842088D01*
X172633579Y-92517088D02*
X172633579Y-93082088D01*
X97384768Y-92268277D02*
X97633579Y-92517088D01*
X97658579Y-89200027D02*
X97384768Y-89473838D01*
X172208579Y-88392088D02*
X172658579Y-88842088D01*
X147384768Y-92268277D02*
X147633579Y-92517088D01*
X97633579Y-92517088D02*
X97633579Y-93082088D01*
X122384768Y-89473838D02*
X122384768Y-92268277D01*
X97658579Y-88842088D02*
X97658579Y-89200027D01*
X147658579Y-88842088D02*
X147658579Y-89200027D01*
X147208579Y-88392088D02*
X147658579Y-88842088D01*
X172658579Y-88842088D02*
X172658579Y-89200027D01*
X122658579Y-89200027D02*
X122384768Y-89473838D01*
X97384768Y-89473838D02*
X97384768Y-92268277D01*
X122208579Y-88392088D02*
X122658579Y-88842088D01*
X147384768Y-89473838D02*
X147384768Y-92268277D01*
%TO.N,GNDA*%
X168408579Y-93227088D02*
X168408579Y-92392088D01*
%TO.N,/E1*%
X122658579Y-88842088D02*
X122658579Y-89200027D01*
%TO.N,GNDA*%
X118408579Y-93227088D02*
X118408579Y-92392088D01*
X93408579Y-92392088D02*
X93708579Y-92092088D01*
%TO.N,/REF*%
X122708579Y-92092088D02*
X123008579Y-92392088D01*
X148008579Y-92392088D02*
X148008579Y-93227088D01*
X147708579Y-92092088D02*
X148008579Y-92392088D01*
X173008579Y-92392088D02*
X173008579Y-93227088D01*
X98008579Y-92392088D02*
X98008579Y-93227088D01*
X172708579Y-92092088D02*
X173008579Y-92392088D01*
X123008579Y-92392088D02*
X123008579Y-93227088D01*
X97708579Y-92092088D02*
X98008579Y-92392088D01*
%TO.N,/E12*%
X168784768Y-88815899D02*
X169208579Y-88392088D01*
X94108579Y-92342088D02*
X94108579Y-89634149D01*
X169108579Y-92342088D02*
X169108579Y-89634149D01*
X118784768Y-88815899D02*
X119208579Y-88392088D01*
X119108579Y-92342088D02*
X119108579Y-89634149D01*
X93783579Y-92667088D02*
X94108579Y-92342088D01*
X119108579Y-89634149D02*
X118784768Y-89310338D01*
X168783579Y-93082088D02*
X168783579Y-92667088D01*
X143783579Y-92667088D02*
X144108579Y-92342088D01*
X143784768Y-88815899D02*
X144208579Y-88392088D01*
X118783579Y-93082088D02*
X118783579Y-92667088D01*
X118783579Y-92667088D02*
X119108579Y-92342088D01*
X93784768Y-89310338D02*
X93784768Y-88815899D01*
X144108579Y-92342088D02*
X144108579Y-89634149D01*
X168784768Y-89310338D02*
X168784768Y-88815899D01*
X94108579Y-89634149D02*
X93784768Y-89310338D01*
X143784768Y-89310338D02*
X143784768Y-88815899D01*
%TO.N,/E11*%
X144260499Y-89244008D02*
X144108579Y-89092088D01*
%TO.N,/E12*%
X93783579Y-93082088D02*
X93783579Y-92667088D01*
X93784768Y-88815899D02*
X94208579Y-88392088D01*
X169108579Y-89634149D02*
X168784768Y-89310338D01*
X143783579Y-93082088D02*
X143783579Y-92667088D01*
X118784768Y-89310338D02*
X118784768Y-88815899D01*
X168783579Y-92667088D02*
X169108579Y-92342088D01*
X144108579Y-89634149D02*
X143784768Y-89310338D01*
%TO.N,/E11*%
X169260499Y-92442069D02*
X169260499Y-89244008D01*
X119260499Y-89244008D02*
X119108579Y-89092088D01*
X119133579Y-93082088D02*
X119133579Y-92568989D01*
X144133579Y-92568989D02*
X144260499Y-92442069D01*
X94133579Y-92568989D02*
X94260499Y-92442069D01*
X119260499Y-92442069D02*
X119260499Y-89244008D01*
X119133579Y-92568989D02*
X119260499Y-92442069D01*
X94260499Y-89244008D02*
X94108579Y-89092088D01*
X94260499Y-92442069D02*
X94260499Y-89244008D01*
X169133579Y-92568989D02*
X169260499Y-92442069D01*
X144133579Y-93082088D02*
X144133579Y-92568989D01*
%TO.N,/E10*%
X94434768Y-88765899D02*
X94808579Y-88392088D01*
%TO.N,/E11*%
X169260499Y-89244008D02*
X169108579Y-89092088D01*
X94133579Y-93082088D02*
X94133579Y-92568989D01*
X144260499Y-92442069D02*
X144260499Y-89244008D01*
%TO.N,/E10*%
X144483579Y-92659408D02*
X144483579Y-93082088D01*
%TO.N,/E11*%
X169133579Y-93082088D02*
X169133579Y-92568989D01*
%TO.N,/E10*%
X94434768Y-89203430D02*
X94434768Y-88765899D01*
X169434768Y-88765899D02*
X169808579Y-88392088D01*
X119434768Y-88765899D02*
X119808579Y-88392088D01*
X144412419Y-92588248D02*
X144483579Y-92659408D01*
X94412419Y-89225779D02*
X94434768Y-89203430D01*
X169412419Y-92588248D02*
X169412419Y-89225779D01*
X94412419Y-92588248D02*
X94412419Y-89225779D01*
X144434768Y-88765899D02*
X144808579Y-88392088D01*
X119412419Y-92588248D02*
X119483579Y-92659408D01*
X169412419Y-92588248D02*
X169483579Y-92659408D01*
X94483579Y-92659408D02*
X94483579Y-93082088D01*
X169434768Y-89203430D02*
X169434768Y-88765899D01*
X169412419Y-89225779D02*
X169434768Y-89203430D01*
X169483579Y-92659408D02*
X169483579Y-93082088D01*
X94412419Y-92588248D02*
X94483579Y-92659408D01*
X119434768Y-89203430D02*
X119434768Y-88765899D01*
X119412419Y-89225779D02*
X119434768Y-89203430D01*
X119483579Y-92659408D02*
X119483579Y-93082088D01*
%TO.N,/E9*%
X119833579Y-93082088D02*
X119833579Y-92637088D01*
%TO.N,/E10*%
X144412419Y-89225779D02*
X144434768Y-89203430D01*
X144412419Y-92588248D02*
X144412419Y-89225779D01*
%TO.N,/E9*%
X144564339Y-89286328D02*
X144758579Y-89092088D01*
X119564339Y-89286328D02*
X119758579Y-89092088D01*
X144833579Y-93082088D02*
X144833579Y-92637088D01*
X144564339Y-92367848D02*
X144564339Y-89286328D01*
X94564339Y-89286328D02*
X94758579Y-89092088D01*
X119564339Y-92367848D02*
X119564339Y-89286328D01*
X169833579Y-93082088D02*
X169833579Y-92637088D01*
%TO.N,/E10*%
X144434768Y-89203430D02*
X144434768Y-88765899D01*
%TO.N,/E9*%
X94564339Y-92367848D02*
X94564339Y-89286328D01*
X119833579Y-92637088D02*
X119564339Y-92367848D01*
%TO.N,/E10*%
X119412419Y-92588248D02*
X119412419Y-89225779D01*
%TO.N,/E9*%
X169564339Y-92367848D02*
X169564339Y-89286328D01*
X144833579Y-92637088D02*
X144564339Y-92367848D01*
X169564339Y-89286328D02*
X169758579Y-89092088D01*
X169833579Y-92637088D02*
X169564339Y-92367848D01*
X94833579Y-92637088D02*
X94564339Y-92367848D01*
X94833579Y-93082088D02*
X94833579Y-92637088D01*
%TO.N,/E8*%
X95183579Y-92767088D02*
X94716259Y-92299768D01*
X145082390Y-89226216D02*
X145082390Y-88718277D01*
X119716259Y-92299768D02*
X119716259Y-89592347D01*
X170082390Y-88718277D02*
X170408579Y-88392088D01*
X170183579Y-92767088D02*
X169716259Y-92299768D01*
X169716259Y-89592347D02*
X170082390Y-89226216D01*
X94716259Y-92299768D02*
X94716259Y-89592347D01*
X95082390Y-89226216D02*
X95082390Y-88718277D01*
X145183579Y-92767088D02*
X144716259Y-92299768D01*
X120183579Y-92767088D02*
X119716259Y-92299768D01*
X144716259Y-89592347D02*
X145082390Y-89226216D01*
X169716259Y-92299768D02*
X169716259Y-89592347D01*
X95183579Y-93082088D02*
X95183579Y-92767088D01*
X145183579Y-93082088D02*
X145183579Y-92767088D01*
X170183579Y-93082088D02*
X170183579Y-92767088D01*
X95082390Y-88718277D02*
X95408579Y-88392088D01*
X144716259Y-92299768D02*
X144716259Y-89592347D01*
X120183579Y-93082088D02*
X120183579Y-92767088D01*
X94716259Y-89592347D02*
X95082390Y-89226216D01*
X119716259Y-89592347D02*
X120082390Y-89226216D01*
X170082390Y-89226216D02*
X170082390Y-88718277D01*
X120082390Y-88718277D02*
X120408579Y-88392088D01*
X120082390Y-89226216D02*
X120082390Y-88718277D01*
X145082390Y-88718277D02*
X145408579Y-88392088D01*
%TO.N,/E7*%
X95533579Y-93082088D02*
X95533579Y-92817088D01*
X119868179Y-89732488D02*
X120408579Y-89192088D01*
X145408579Y-89192088D02*
X145408579Y-89092088D01*
X145533579Y-93082088D02*
X145533579Y-92817088D01*
X144868179Y-92151688D02*
X144868179Y-89732488D01*
X95408579Y-89192088D02*
X95408579Y-89092088D01*
X169868179Y-92151688D02*
X169868179Y-89732488D01*
X120533579Y-92817088D02*
X119868179Y-92151688D01*
X170533579Y-92817088D02*
X169868179Y-92151688D01*
X94868179Y-89732488D02*
X95408579Y-89192088D01*
X119868179Y-92151688D02*
X119868179Y-89732488D01*
X145533579Y-92817088D02*
X144868179Y-92151688D01*
X170533579Y-93082088D02*
X170533579Y-92817088D01*
%TO.N,/E6*%
X145883579Y-92817088D02*
X146608579Y-92092088D01*
%TO.N,/E7*%
X144868179Y-89732488D02*
X145408579Y-89192088D01*
%TO.N,/E6*%
X170883579Y-92817088D02*
X171608579Y-92092088D01*
%TO.N,/E7*%
X120408579Y-89192088D02*
X120408579Y-89092088D01*
X169868179Y-89732488D02*
X170408579Y-89192088D01*
X94868179Y-92151688D02*
X94868179Y-89732488D01*
%TO.N,/E6*%
X171608579Y-92092088D02*
X171608579Y-89867088D01*
X121608579Y-92092088D02*
X121608579Y-89867088D01*
%TO.N,/E7*%
X95533579Y-92817088D02*
X94868179Y-92151688D01*
X120533579Y-93082088D02*
X120533579Y-92817088D01*
X170408579Y-89192088D02*
X170408579Y-89092088D01*
%TO.N,/E6*%
X121608579Y-89867088D02*
X121071079Y-89329588D01*
X96608579Y-92092088D02*
X96608579Y-89867088D01*
X146008579Y-89267088D02*
X146071079Y-89329588D01*
X120883579Y-92817088D02*
X121608579Y-92092088D01*
X95883579Y-93082088D02*
X95883579Y-92817088D01*
X121008579Y-89267088D02*
X121071079Y-89329588D01*
X146608579Y-92092088D02*
X146608579Y-89867088D01*
X95883579Y-92817088D02*
X96608579Y-92092088D01*
X171008579Y-89092088D02*
X171008579Y-89267088D01*
X171608579Y-89867088D02*
X171071079Y-89329588D01*
X96008579Y-89092088D02*
X96008579Y-89267088D01*
X171008579Y-89267088D02*
X171071079Y-89329588D01*
X121008579Y-89092088D02*
X121008579Y-89267088D01*
X96608579Y-89867088D02*
X96071079Y-89329588D01*
X146008579Y-89092088D02*
X146008579Y-89267088D01*
X96008579Y-89267088D02*
X96071079Y-89329588D01*
X170883579Y-93082088D02*
X170883579Y-92817088D01*
X146608579Y-89867088D02*
X146071079Y-89329588D01*
X120883579Y-93082088D02*
X120883579Y-92817088D01*
%TO.N,/E5*%
X121334768Y-88718277D02*
X121008579Y-88392088D01*
%TO.N,/E6*%
X145883579Y-93082088D02*
X145883579Y-92817088D01*
%TO.N,/E5*%
X171334768Y-89318277D02*
X171334768Y-88718277D01*
X146233579Y-92867088D02*
X146777088Y-92323579D01*
X146777088Y-89760597D02*
X146334768Y-89318277D01*
X96334768Y-89318277D02*
X96334768Y-88718277D01*
X171777088Y-92323579D02*
X171777088Y-89760597D01*
X96334768Y-88718277D02*
X96008579Y-88392088D01*
X146334768Y-88718277D02*
X146008579Y-88392088D01*
X146233579Y-93082088D02*
X146233579Y-92867088D01*
X171233579Y-92867088D02*
X171777088Y-92323579D01*
X146777088Y-92323579D02*
X146777088Y-89760597D01*
X146334768Y-89318277D02*
X146334768Y-88718277D01*
X96233579Y-93082088D02*
X96233579Y-92867088D01*
X171334768Y-88718277D02*
X171008579Y-88392088D01*
X96233579Y-92867088D02*
X96777088Y-92323579D01*
X121233579Y-92867088D02*
X121777088Y-92323579D01*
X96777088Y-89760597D02*
X96334768Y-89318277D01*
X96777088Y-92323579D02*
X96777088Y-89760597D01*
X121334768Y-89318277D02*
X121334768Y-88718277D01*
X171777088Y-89760597D02*
X171334768Y-89318277D01*
X121777088Y-92323579D02*
X121777088Y-89760597D01*
X121233579Y-93082088D02*
X121233579Y-92867088D01*
X171233579Y-93082088D02*
X171233579Y-92867088D01*
X121777088Y-89760597D02*
X121334768Y-89318277D01*
%TO.N,/E4*%
X96929008Y-89429743D02*
X96658579Y-89159314D01*
X171583579Y-93082088D02*
X171583579Y-92817088D01*
X146583579Y-93082088D02*
X146583579Y-92817088D01*
X121658579Y-89159314D02*
X121658579Y-89092088D01*
X96929008Y-92471659D02*
X96929008Y-89429743D01*
X121583579Y-92817088D02*
X121929008Y-92471659D01*
X171929008Y-92471659D02*
X171929008Y-89429743D01*
X146583579Y-92817088D02*
X146929008Y-92471659D01*
X121929008Y-89429743D02*
X121658579Y-89159314D01*
X146658579Y-89159314D02*
X146658579Y-89092088D01*
X96583579Y-93082088D02*
X96583579Y-92817088D01*
X121929008Y-92471659D02*
X121929008Y-89429743D01*
X121583579Y-93082088D02*
X121583579Y-92817088D01*
X146929008Y-89429743D02*
X146658579Y-89159314D01*
X96658579Y-89159314D02*
X96658579Y-89092088D01*
X171658579Y-89159314D02*
X171658579Y-89092088D01*
X171583579Y-92817088D02*
X171929008Y-92471659D01*
X146929008Y-92471659D02*
X146929008Y-89429743D01*
X171929008Y-89429743D02*
X171658579Y-89159314D01*
X96583579Y-92817088D02*
X96929008Y-92471659D01*
%TO.N,/E3*%
X171933579Y-92811786D02*
X172080928Y-92664437D01*
X146982390Y-89268277D02*
X146982390Y-88765899D01*
X97080928Y-92664437D02*
X97080928Y-89366815D01*
X97080928Y-89366815D02*
X96982390Y-89268277D01*
X122080928Y-92664437D02*
X122080928Y-89366815D01*
X96933579Y-92811786D02*
X97080928Y-92664437D01*
X146933579Y-92811786D02*
X147080928Y-92664437D01*
X147080928Y-92664437D02*
X147080928Y-89366815D01*
X147080928Y-89366815D02*
X146982390Y-89268277D01*
X121933579Y-92811786D02*
X122080928Y-92664437D01*
X171982390Y-89268277D02*
X171982390Y-88765899D01*
X96982390Y-88765899D02*
X96608579Y-88392088D01*
X121933579Y-93082088D02*
X121933579Y-92811786D01*
X96933579Y-93082088D02*
X96933579Y-92811786D01*
X146933579Y-93082088D02*
X146933579Y-92811786D01*
X96982390Y-89268277D02*
X96982390Y-88765899D01*
X146982390Y-88765899D02*
X146608579Y-88392088D01*
X172080928Y-92664437D02*
X172080928Y-89366815D01*
X122080928Y-89366815D02*
X121982390Y-89268277D01*
X172080928Y-89366815D02*
X171982390Y-89268277D01*
X121982390Y-88765899D02*
X121608579Y-88392088D01*
X121982390Y-89268277D02*
X121982390Y-88765899D01*
X171982390Y-88765899D02*
X171608579Y-88392088D01*
X171933579Y-93082088D02*
X171933579Y-92811786D01*
X171933579Y-118082088D02*
X171933579Y-117811786D01*
X171982390Y-113765899D02*
X171608579Y-113392088D01*
X121982390Y-114268277D02*
X121982390Y-113765899D01*
X121982390Y-113765899D02*
X121608579Y-113392088D01*
X172080928Y-114366815D02*
X171982390Y-114268277D01*
X122080928Y-114366815D02*
X121982390Y-114268277D01*
X172080928Y-117664437D02*
X172080928Y-114366815D01*
X146982390Y-113765899D02*
X146608579Y-113392088D01*
X146933579Y-118082088D02*
X146933579Y-117811786D01*
X121933579Y-118082088D02*
X121933579Y-117811786D01*
X171982390Y-114268277D02*
X171982390Y-113765899D01*
X121933579Y-117811786D02*
X122080928Y-117664437D01*
X147080928Y-114366815D02*
X146982390Y-114268277D01*
X147080928Y-117664437D02*
X147080928Y-114366815D01*
X146933579Y-117811786D02*
X147080928Y-117664437D01*
X122080928Y-117664437D02*
X122080928Y-114366815D01*
X146982390Y-114268277D02*
X146982390Y-113765899D01*
X171933579Y-117811786D02*
X172080928Y-117664437D01*
%TO.N,/E4*%
X171929008Y-114429743D02*
X171658579Y-114159314D01*
X146929008Y-117471659D02*
X146929008Y-114429743D01*
X171583579Y-117817088D02*
X171929008Y-117471659D01*
X171658579Y-114159314D02*
X171658579Y-114092088D01*
X146929008Y-114429743D02*
X146658579Y-114159314D01*
X121583579Y-118082088D02*
X121583579Y-117817088D01*
X121929008Y-117471659D02*
X121929008Y-114429743D01*
X146658579Y-114159314D02*
X146658579Y-114092088D01*
X121929008Y-114429743D02*
X121658579Y-114159314D01*
X146583579Y-117817088D02*
X146929008Y-117471659D01*
X171929008Y-117471659D02*
X171929008Y-114429743D01*
X121583579Y-117817088D02*
X121929008Y-117471659D01*
X121658579Y-114159314D02*
X121658579Y-114092088D01*
X146583579Y-118082088D02*
X146583579Y-117817088D01*
X171583579Y-118082088D02*
X171583579Y-117817088D01*
%TO.N,/E5*%
X121777088Y-114760597D02*
X121334768Y-114318277D01*
X171233579Y-118082088D02*
X171233579Y-117867088D01*
X121233579Y-118082088D02*
X121233579Y-117867088D01*
X121777088Y-117323579D02*
X121777088Y-114760597D01*
X171777088Y-114760597D02*
X171334768Y-114318277D01*
X121334768Y-114318277D02*
X121334768Y-113718277D01*
X121233579Y-117867088D02*
X121777088Y-117323579D01*
X171334768Y-113718277D02*
X171008579Y-113392088D01*
X146334768Y-114318277D02*
X146334768Y-113718277D01*
X146777088Y-117323579D02*
X146777088Y-114760597D01*
X171233579Y-117867088D02*
X171777088Y-117323579D01*
X146233579Y-118082088D02*
X146233579Y-117867088D01*
X146334768Y-113718277D02*
X146008579Y-113392088D01*
X171777088Y-117323579D02*
X171777088Y-114760597D01*
X146777088Y-114760597D02*
X146334768Y-114318277D01*
X146233579Y-117867088D02*
X146777088Y-117323579D01*
X171334768Y-114318277D02*
X171334768Y-113718277D01*
%TO.N,/E6*%
X145883579Y-118082088D02*
X145883579Y-117817088D01*
%TO.N,/E5*%
X121334768Y-113718277D02*
X121008579Y-113392088D01*
%TO.N,/E6*%
X120883579Y-118082088D02*
X120883579Y-117817088D01*
X146608579Y-114867088D02*
X146071079Y-114329588D01*
X170883579Y-118082088D02*
X170883579Y-117817088D01*
X146008579Y-114092088D02*
X146008579Y-114267088D01*
X121008579Y-114092088D02*
X121008579Y-114267088D01*
X171008579Y-114267088D02*
X171071079Y-114329588D01*
X171608579Y-114867088D02*
X171071079Y-114329588D01*
X171008579Y-114092088D02*
X171008579Y-114267088D01*
X146608579Y-117092088D02*
X146608579Y-114867088D01*
X121008579Y-114267088D02*
X121071079Y-114329588D01*
X120883579Y-117817088D02*
X121608579Y-117092088D01*
X146008579Y-114267088D02*
X146071079Y-114329588D01*
X121608579Y-114867088D02*
X121071079Y-114329588D01*
%TO.N,/E7*%
X170408579Y-114192088D02*
X170408579Y-114092088D01*
X120533579Y-118082088D02*
X120533579Y-117817088D01*
%TO.N,/E6*%
X121608579Y-117092088D02*
X121608579Y-114867088D01*
X171608579Y-117092088D02*
X171608579Y-114867088D01*
%TO.N,/E7*%
X169868179Y-114732488D02*
X170408579Y-114192088D01*
X120408579Y-114192088D02*
X120408579Y-114092088D01*
%TO.N,/E6*%
X170883579Y-117817088D02*
X171608579Y-117092088D01*
%TO.N,/E7*%
X144868179Y-114732488D02*
X145408579Y-114192088D01*
%TO.N,/E6*%
X145883579Y-117817088D02*
X146608579Y-117092088D01*
%TO.N,/E7*%
X170533579Y-118082088D02*
X170533579Y-117817088D01*
X145533579Y-117817088D02*
X144868179Y-117151688D01*
X119868179Y-117151688D02*
X119868179Y-114732488D01*
X170533579Y-117817088D02*
X169868179Y-117151688D01*
X120533579Y-117817088D02*
X119868179Y-117151688D01*
X169868179Y-117151688D02*
X169868179Y-114732488D01*
X144868179Y-117151688D02*
X144868179Y-114732488D01*
X145533579Y-118082088D02*
X145533579Y-117817088D01*
X145408579Y-114192088D02*
X145408579Y-114092088D01*
X119868179Y-114732488D02*
X120408579Y-114192088D01*
%TO.N,/E8*%
X145082390Y-113718277D02*
X145408579Y-113392088D01*
X120082390Y-114226216D02*
X120082390Y-113718277D01*
X120082390Y-113718277D02*
X120408579Y-113392088D01*
X170082390Y-114226216D02*
X170082390Y-113718277D01*
X119716259Y-114592347D02*
X120082390Y-114226216D01*
X120183579Y-118082088D02*
X120183579Y-117767088D01*
X144716259Y-117299768D02*
X144716259Y-114592347D01*
X170183579Y-118082088D02*
X170183579Y-117767088D01*
X145183579Y-118082088D02*
X145183579Y-117767088D01*
X169716259Y-117299768D02*
X169716259Y-114592347D01*
X144716259Y-114592347D02*
X145082390Y-114226216D01*
X120183579Y-117767088D02*
X119716259Y-117299768D01*
X145183579Y-117767088D02*
X144716259Y-117299768D01*
X169716259Y-114592347D02*
X170082390Y-114226216D01*
X170183579Y-117767088D02*
X169716259Y-117299768D01*
X170082390Y-113718277D02*
X170408579Y-113392088D01*
X119716259Y-117299768D02*
X119716259Y-114592347D01*
X145082390Y-114226216D02*
X145082390Y-113718277D01*
%TO.N,/E9*%
X169833579Y-117637088D02*
X169564339Y-117367848D01*
X169564339Y-114286328D02*
X169758579Y-114092088D01*
X144833579Y-117637088D02*
X144564339Y-117367848D01*
X169564339Y-117367848D02*
X169564339Y-114286328D01*
%TO.N,/E10*%
X119412419Y-117588248D02*
X119412419Y-114225779D01*
%TO.N,/E9*%
X119833579Y-117637088D02*
X119564339Y-117367848D01*
%TO.N,/E10*%
X144434768Y-114203430D02*
X144434768Y-113765899D01*
%TO.N,/E9*%
X169833579Y-118082088D02*
X169833579Y-117637088D01*
X119564339Y-117367848D02*
X119564339Y-114286328D01*
X144564339Y-117367848D02*
X144564339Y-114286328D01*
X144833579Y-118082088D02*
X144833579Y-117637088D01*
X119564339Y-114286328D02*
X119758579Y-114092088D01*
X144564339Y-114286328D02*
X144758579Y-114092088D01*
%TO.N,/E10*%
X144412419Y-117588248D02*
X144412419Y-114225779D01*
X144412419Y-114225779D02*
X144434768Y-114203430D01*
%TO.N,/E9*%
X119833579Y-118082088D02*
X119833579Y-117637088D01*
%TO.N,/E10*%
X119483579Y-117659408D02*
X119483579Y-118082088D01*
X119412419Y-114225779D02*
X119434768Y-114203430D01*
X119434768Y-114203430D02*
X119434768Y-113765899D01*
X169483579Y-117659408D02*
X169483579Y-118082088D01*
X169412419Y-114225779D02*
X169434768Y-114203430D01*
X169434768Y-114203430D02*
X169434768Y-113765899D01*
X169412419Y-117588248D02*
X169483579Y-117659408D01*
X119412419Y-117588248D02*
X119483579Y-117659408D01*
X144434768Y-113765899D02*
X144808579Y-113392088D01*
X169412419Y-117588248D02*
X169412419Y-114225779D01*
X144412419Y-117588248D02*
X144483579Y-117659408D01*
X119434768Y-113765899D02*
X119808579Y-113392088D01*
X169434768Y-113765899D02*
X169808579Y-113392088D01*
%TO.N,/E11*%
X169133579Y-118082088D02*
X169133579Y-117568989D01*
%TO.N,/E10*%
X144483579Y-117659408D02*
X144483579Y-118082088D01*
%TO.N,/E11*%
X144260499Y-117442069D02*
X144260499Y-114244008D01*
X169260499Y-114244008D02*
X169108579Y-114092088D01*
X144133579Y-118082088D02*
X144133579Y-117568989D01*
X169133579Y-117568989D02*
X169260499Y-117442069D01*
X119133579Y-117568989D02*
X119260499Y-117442069D01*
X119260499Y-117442069D02*
X119260499Y-114244008D01*
X144133579Y-117568989D02*
X144260499Y-117442069D01*
X119133579Y-118082088D02*
X119133579Y-117568989D01*
X119260499Y-114244008D02*
X119108579Y-114092088D01*
X169260499Y-117442069D02*
X169260499Y-114244008D01*
%TO.N,/E12*%
X144108579Y-114634149D02*
X143784768Y-114310338D01*
X168783579Y-117667088D02*
X169108579Y-117342088D01*
X118784768Y-114310338D02*
X118784768Y-113815899D01*
X143783579Y-118082088D02*
X143783579Y-117667088D01*
X169108579Y-114634149D02*
X168784768Y-114310338D01*
%TO.N,/E11*%
X144260499Y-114244008D02*
X144108579Y-114092088D01*
%TO.N,/E12*%
X143784768Y-114310338D02*
X143784768Y-113815899D01*
X168784768Y-114310338D02*
X168784768Y-113815899D01*
X144108579Y-117342088D02*
X144108579Y-114634149D01*
X118783579Y-117667088D02*
X119108579Y-117342088D01*
X118783579Y-118082088D02*
X118783579Y-117667088D01*
X143784768Y-113815899D02*
X144208579Y-113392088D01*
X143783579Y-117667088D02*
X144108579Y-117342088D01*
X168783579Y-118082088D02*
X168783579Y-117667088D01*
X119108579Y-114634149D02*
X118784768Y-114310338D01*
X119108579Y-117342088D02*
X119108579Y-114634149D01*
X118784768Y-113815899D02*
X119208579Y-113392088D01*
X169108579Y-117342088D02*
X169108579Y-114634149D01*
X168784768Y-113815899D02*
X169208579Y-113392088D01*
%TO.N,/REF*%
X123008579Y-117392088D02*
X123008579Y-118227088D01*
X172708579Y-117092088D02*
X173008579Y-117392088D01*
X173008579Y-117392088D02*
X173008579Y-118227088D01*
X147708579Y-117092088D02*
X148008579Y-117392088D01*
X148008579Y-117392088D02*
X148008579Y-118227088D01*
X122708579Y-117092088D02*
X123008579Y-117392088D01*
%TO.N,GNDA*%
X118408579Y-118227088D02*
X118408579Y-117392088D01*
%TO.N,/E1*%
X122658579Y-113842088D02*
X122658579Y-114200027D01*
%TO.N,GNDA*%
X168408579Y-118227088D02*
X168408579Y-117392088D01*
%TO.N,/E1*%
X147384768Y-114473838D02*
X147384768Y-117268277D01*
X122208579Y-113392088D02*
X122658579Y-113842088D01*
X122658579Y-114200027D02*
X122384768Y-114473838D01*
X172658579Y-113842088D02*
X172658579Y-114200027D01*
X147208579Y-113392088D02*
X147658579Y-113842088D01*
X147658579Y-113842088D02*
X147658579Y-114200027D01*
X122384768Y-114473838D02*
X122384768Y-117268277D01*
X147384768Y-117268277D02*
X147633579Y-117517088D01*
X172208579Y-113392088D02*
X172658579Y-113842088D01*
X172633579Y-117517088D02*
X172633579Y-118082088D01*
X122633579Y-117517088D02*
X122633579Y-118082088D01*
X172384768Y-114473838D02*
X172384768Y-117268277D01*
X122384768Y-117268277D02*
X122633579Y-117517088D01*
X147633579Y-117517088D02*
X147633579Y-118082088D01*
X147658579Y-114200027D02*
X147384768Y-114473838D01*
X172384768Y-117268277D02*
X172633579Y-117517088D01*
X172658579Y-114200027D02*
X172384768Y-114473838D01*
%TO.N,/E2*%
X122232848Y-114316357D02*
X122232848Y-117731357D01*
X122308579Y-114092088D02*
X122232848Y-114167819D01*
X147232848Y-114167819D02*
X147232848Y-114316357D01*
X147283579Y-118082088D02*
X147283579Y-117782088D01*
X172283579Y-118082088D02*
X172283579Y-117782088D01*
X122283579Y-118082088D02*
X122283579Y-117782088D01*
X147308579Y-114092088D02*
X147232848Y-114167819D01*
X122232848Y-114167819D02*
X122232848Y-114316357D01*
X122283579Y-117782088D02*
X122232848Y-117731357D01*
X172308579Y-114092088D02*
X172232848Y-114167819D01*
X172283579Y-117782088D02*
X172232848Y-117731357D01*
X172232848Y-114316357D02*
X172232848Y-117731357D01*
X147232848Y-114316357D02*
X147232848Y-117731357D01*
X147283579Y-117782088D02*
X147232848Y-117731357D01*
X172232848Y-114167819D02*
X172232848Y-114316357D01*
%TO.N,GNDA*%
X118408579Y-117392088D02*
X118708579Y-117092088D01*
X168408579Y-117392088D02*
X168708579Y-117092088D01*
X143408579Y-118227088D02*
X143408579Y-117392088D01*
X143408579Y-117392088D02*
X143708579Y-117092088D01*
X93408579Y-118227088D02*
X93408579Y-117392088D01*
X93408579Y-117392088D02*
X93708579Y-117092088D01*
%TO.N,/E1*%
X97384768Y-114473838D02*
X97384768Y-117268277D01*
X97658579Y-114200027D02*
X97384768Y-114473838D01*
X97384768Y-117268277D02*
X97633579Y-117517088D01*
X97208579Y-113392088D02*
X97658579Y-113842088D01*
X97633579Y-117517088D02*
X97633579Y-118082088D01*
X97658579Y-113842088D02*
X97658579Y-114200027D01*
%TO.N,/E2*%
X97283579Y-118082088D02*
X97283579Y-117782088D01*
X97308579Y-114092088D02*
X97232848Y-114167819D01*
X97232848Y-114167819D02*
X97232848Y-114316357D01*
X97283579Y-117782088D02*
X97232848Y-117731357D01*
X97232848Y-114316357D02*
X97232848Y-117731357D01*
%TO.N,/E3*%
X96982390Y-113765899D02*
X96608579Y-113392088D01*
X96982390Y-114268277D02*
X96982390Y-113765899D01*
X96933579Y-118082088D02*
X96933579Y-117811786D01*
X97080928Y-114366815D02*
X96982390Y-114268277D01*
X96933579Y-117811786D02*
X97080928Y-117664437D01*
X97080928Y-117664437D02*
X97080928Y-114366815D01*
%TO.N,/E4*%
X96583579Y-117817088D02*
X96929008Y-117471659D01*
X96658579Y-114159314D02*
X96658579Y-114092088D01*
X96929008Y-117471659D02*
X96929008Y-114429743D01*
X96583579Y-118082088D02*
X96583579Y-117817088D01*
X96929008Y-114429743D02*
X96658579Y-114159314D01*
%TO.N,/E5*%
X96334768Y-114318277D02*
X96334768Y-113718277D01*
X96233579Y-117867088D02*
X96777088Y-117323579D01*
X96233579Y-118082088D02*
X96233579Y-117867088D01*
X96334768Y-113718277D02*
X96008579Y-113392088D01*
X96777088Y-117323579D02*
X96777088Y-114760597D01*
X96777088Y-114760597D02*
X96334768Y-114318277D01*
%TO.N,/E6*%
X96608579Y-117092088D02*
X96608579Y-114867088D01*
X96008579Y-114267088D02*
X96071079Y-114329588D01*
X95883579Y-118082088D02*
X95883579Y-117817088D01*
X96008579Y-114092088D02*
X96008579Y-114267088D01*
X95883579Y-117817088D02*
X96608579Y-117092088D01*
X96608579Y-114867088D02*
X96071079Y-114329588D01*
%TO.N,/E7*%
X95533579Y-117817088D02*
X94868179Y-117151688D01*
X94868179Y-117151688D02*
X94868179Y-114732488D01*
X95408579Y-114192088D02*
X95408579Y-114092088D01*
X94868179Y-114732488D02*
X95408579Y-114192088D01*
X95533579Y-118082088D02*
X95533579Y-117817088D01*
%TO.N,/E8*%
X95082390Y-113718277D02*
X95408579Y-113392088D01*
X94716259Y-114592347D02*
X95082390Y-114226216D01*
X95183579Y-118082088D02*
X95183579Y-117767088D01*
X94716259Y-117299768D02*
X94716259Y-114592347D01*
X95082390Y-114226216D02*
X95082390Y-113718277D01*
X95183579Y-117767088D02*
X94716259Y-117299768D01*
%TO.N,/E9*%
X94833579Y-118082088D02*
X94833579Y-117637088D01*
X94833579Y-117637088D02*
X94564339Y-117367848D01*
X94564339Y-114286328D02*
X94758579Y-114092088D01*
X94564339Y-117367848D02*
X94564339Y-114286328D01*
%TO.N,/E10*%
X94412419Y-117588248D02*
X94412419Y-114225779D01*
X94434768Y-114203430D02*
X94434768Y-113765899D01*
X94483579Y-117659408D02*
X94483579Y-118082088D01*
X94412419Y-114225779D02*
X94434768Y-114203430D01*
X94412419Y-117588248D02*
X94483579Y-117659408D01*
X94434768Y-113765899D02*
X94808579Y-113392088D01*
%TO.N,/E11*%
X94260499Y-117442069D02*
X94260499Y-114244008D01*
X94260499Y-114244008D02*
X94108579Y-114092088D01*
X94133579Y-117568989D02*
X94260499Y-117442069D01*
X94133579Y-118082088D02*
X94133579Y-117568989D01*
%TO.N,/E12*%
X94108579Y-114634149D02*
X93784768Y-114310338D01*
X93784768Y-113815899D02*
X94208579Y-113392088D01*
X93784768Y-114310338D02*
X93784768Y-113815899D01*
X93783579Y-118082088D02*
X93783579Y-117667088D01*
X94108579Y-117342088D02*
X94108579Y-114634149D01*
X93783579Y-117667088D02*
X94108579Y-117342088D01*
%TO.N,/REF*%
X98008579Y-117392088D02*
X98008579Y-118227088D01*
X97708579Y-117092088D02*
X98008579Y-117392088D01*
%TD*%
%TA.AperFunction,NonConductor*%
G36*
X163977596Y-133363316D02*
G01*
X164031133Y-133405895D01*
X164889179Y-134597625D01*
X164912750Y-134664594D01*
X164896373Y-134733676D01*
X164845247Y-134782937D01*
X164775851Y-134796759D01*
X162814267Y-134623678D01*
X162748169Y-134597766D01*
X162706572Y-134540232D01*
X162702684Y-134469342D01*
X162739880Y-134405581D01*
X163843417Y-133386932D01*
X163907039Y-133355424D01*
X163977596Y-133363316D01*
G37*
%TD.AperFunction*%
%TA.AperFunction,NonConductor*%
G36*
X165482914Y-135812838D02*
G01*
X165725743Y-135834264D01*
X165791841Y-135860176D01*
X165816919Y-135886153D01*
X165921547Y-136031469D01*
X165989175Y-136125397D01*
X166012746Y-136192366D01*
X165996369Y-136261448D01*
X165945243Y-136310709D01*
X165875600Y-136324509D01*
X165838194Y-136315215D01*
X165161569Y-136031469D01*
X165106484Y-135986680D01*
X165084359Y-135919219D01*
X165102218Y-135850505D01*
X165154391Y-135802355D01*
X165221372Y-135789761D01*
X165482914Y-135812838D01*
G37*
%TD.AperFunction*%
%TA.AperFunction,NonConductor*%
G36*
X172700886Y-139771195D02*
G01*
X172723256Y-139785390D01*
X172723471Y-139785103D01*
X172723472Y-139785104D01*
X172736506Y-139794879D01*
X172752841Y-139809519D01*
X172765953Y-139823510D01*
X172787147Y-139834760D01*
X172803668Y-139845251D01*
X172892257Y-139911692D01*
X172906522Y-139922391D01*
X172949017Y-139979265D01*
X172954018Y-140050085D01*
X172919937Y-140112367D01*
X172861297Y-140145475D01*
X172843415Y-140149917D01*
X172786997Y-140163931D01*
X172778248Y-140169580D01*
X172778246Y-140169581D01*
X172703400Y-140217909D01*
X172680719Y-140232554D01*
X172674273Y-140240731D01*
X172649451Y-140272217D01*
X172591569Y-140313330D01*
X172520649Y-140316624D01*
X172459207Y-140281052D01*
X172426750Y-140217909D01*
X172430189Y-140156781D01*
X172432325Y-140149917D01*
X172526402Y-139847525D01*
X172565738Y-139788421D01*
X172630782Y-139759966D01*
X172700886Y-139771195D01*
G37*
%TD.AperFunction*%
%TA.AperFunction,NonConductor*%
G36*
X195342121Y-35820002D02*
G01*
X195388614Y-35873658D01*
X195400000Y-35926000D01*
X195400000Y-145474000D01*
X195379998Y-145542121D01*
X195326342Y-145588614D01*
X195274000Y-145600000D01*
X70726000Y-145600000D01*
X70657879Y-145579998D01*
X70611386Y-145526342D01*
X70600000Y-145474000D01*
X70600000Y-140688113D01*
X72094527Y-140688113D01*
X72094699Y-140691508D01*
X72094699Y-140691509D01*
X72112202Y-141037017D01*
X72113162Y-141055971D01*
X72113699Y-141059326D01*
X72113700Y-141059332D01*
X72130385Y-141163500D01*
X72171416Y-141419665D01*
X72268608Y-141774941D01*
X72366215Y-142022730D01*
X72386565Y-142074390D01*
X72403602Y-142117642D01*
X72574817Y-142443759D01*
X72576718Y-142446588D01*
X72576724Y-142446598D01*
X72761707Y-142721879D01*
X72780252Y-142749477D01*
X73017502Y-143031221D01*
X73120006Y-143129176D01*
X73281329Y-143283341D01*
X73281336Y-143283347D01*
X73283792Y-143285694D01*
X73576008Y-143509919D01*
X73890731Y-143701274D01*
X74224279Y-143857519D01*
X74227497Y-143858621D01*
X74227500Y-143858622D01*
X74569528Y-143975725D01*
X74569536Y-143975727D01*
X74572751Y-143976828D01*
X74932070Y-144057804D01*
X75015002Y-144067253D01*
X75294650Y-144099115D01*
X75294658Y-144099115D01*
X75298033Y-144099500D01*
X75301437Y-144099518D01*
X75301440Y-144099518D01*
X75501074Y-144100563D01*
X75666358Y-144101428D01*
X75669744Y-144101078D01*
X75669746Y-144101078D01*
X76029345Y-144063918D01*
X76029354Y-144063917D01*
X76032737Y-144063567D01*
X76036070Y-144062853D01*
X76036073Y-144062852D01*
X76213488Y-144024817D01*
X76392884Y-143986358D01*
X76742586Y-143870705D01*
X77077752Y-143717961D01*
X77174965Y-143660240D01*
X77391516Y-143531662D01*
X77391521Y-143531659D01*
X77394461Y-143529913D01*
X77421091Y-143509919D01*
X77686276Y-143310812D01*
X77689009Y-143308760D01*
X77957950Y-143057089D01*
X78198138Y-142777846D01*
X78215838Y-142752093D01*
X78404831Y-142477104D01*
X78406762Y-142474295D01*
X78408374Y-142471301D01*
X78408379Y-142471293D01*
X78579761Y-142153001D01*
X78581383Y-142149989D01*
X78719958Y-141808720D01*
X78729436Y-141775449D01*
X78781268Y-141593488D01*
X78820865Y-141454482D01*
X78882925Y-141091418D01*
X78884144Y-141071499D01*
X78903904Y-140748420D01*
X78905411Y-140723775D01*
X78905481Y-140703736D01*
X78905488Y-140701820D01*
X78905488Y-140701808D01*
X78905494Y-140700000D01*
X78885575Y-140332209D01*
X78879892Y-140297502D01*
X158835263Y-140297502D01*
X158836814Y-140307294D01*
X158836814Y-140307297D01*
X158837741Y-140313150D01*
X158838685Y-140320509D01*
X158846882Y-140403736D01*
X158850707Y-140442567D01*
X158852503Y-140448488D01*
X158852504Y-140448492D01*
X158855904Y-140459699D01*
X158893022Y-140582057D01*
X158961736Y-140710611D01*
X159054209Y-140823291D01*
X159166889Y-140915764D01*
X159295443Y-140984478D01*
X159356741Y-141003073D01*
X159429008Y-141024996D01*
X159429012Y-141024997D01*
X159434933Y-141026793D01*
X159441094Y-141027400D01*
X159441095Y-141027400D01*
X159556991Y-141038815D01*
X159564350Y-141039759D01*
X159570203Y-141040686D01*
X159570206Y-141040686D01*
X159579998Y-141042237D01*
X159589791Y-141040686D01*
X159589792Y-141040686D01*
X159600116Y-141039051D01*
X159619825Y-141037500D01*
X159770175Y-141037500D01*
X159789884Y-141039051D01*
X159800208Y-141040686D01*
X159800209Y-141040686D01*
X159810002Y-141042237D01*
X159819794Y-141040686D01*
X159819797Y-141040686D01*
X159825650Y-141039759D01*
X159833009Y-141038815D01*
X159948905Y-141027400D01*
X159948906Y-141027400D01*
X159955067Y-141026793D01*
X159960988Y-141024997D01*
X159960992Y-141024996D01*
X160033259Y-141003073D01*
X160094557Y-140984478D01*
X160223111Y-140915764D01*
X160227890Y-140911842D01*
X160227893Y-140911840D01*
X160254066Y-140890360D01*
X160319413Y-140862606D01*
X160389392Y-140874588D01*
X160441784Y-140922500D01*
X160460000Y-140987759D01*
X160460000Y-141749065D01*
X160475517Y-141842290D01*
X160480463Y-141851456D01*
X160480463Y-141851457D01*
X160518950Y-141922785D01*
X160535590Y-141953625D01*
X160543236Y-141960693D01*
X160543237Y-141960694D01*
X160594514Y-142008094D01*
X160628487Y-142039498D01*
X160744191Y-142090651D01*
X160870227Y-142101566D01*
X160993003Y-142071069D01*
X161001752Y-142065420D01*
X161001754Y-142065419D01*
X161090534Y-142008094D01*
X161099281Y-142002446D01*
X161177601Y-141903098D01*
X161219517Y-141783736D01*
X161220000Y-141778160D01*
X161220000Y-141163500D01*
X161240002Y-141095379D01*
X161293658Y-141048886D01*
X161346000Y-141037500D01*
X161400175Y-141037500D01*
X161419884Y-141039051D01*
X161430208Y-141040686D01*
X161430209Y-141040686D01*
X161440002Y-141042237D01*
X161449794Y-141040686D01*
X161449797Y-141040686D01*
X161455650Y-141039759D01*
X161463009Y-141038815D01*
X161578905Y-141027400D01*
X161578906Y-141027400D01*
X161585067Y-141026793D01*
X161590988Y-141024997D01*
X161590992Y-141024996D01*
X161663259Y-141003073D01*
X161724557Y-140984478D01*
X161853111Y-140915764D01*
X161965791Y-140823291D01*
X162032600Y-140741883D01*
X162091277Y-140701914D01*
X162162248Y-140700013D01*
X162227400Y-140741883D01*
X162294209Y-140823291D01*
X162406889Y-140915764D01*
X162535443Y-140984478D01*
X162674933Y-141026793D01*
X162734262Y-141032637D01*
X162746929Y-141034617D01*
X162753764Y-141037017D01*
X162759340Y-141037500D01*
X162777454Y-141037500D01*
X162789800Y-141038107D01*
X162797000Y-141038816D01*
X162804350Y-141039759D01*
X162810203Y-141040686D01*
X162810206Y-141040686D01*
X162819998Y-141042237D01*
X162829791Y-141040686D01*
X162829792Y-141040686D01*
X162840116Y-141039051D01*
X162859825Y-141037500D01*
X163140174Y-141037500D01*
X163159884Y-141039051D01*
X163180000Y-141042237D01*
X163189793Y-141040686D01*
X163189794Y-141040686D01*
X163209128Y-141037624D01*
X163210159Y-141037500D01*
X163211565Y-141037500D01*
X163215238Y-141036889D01*
X163218054Y-141036550D01*
X163219816Y-141036304D01*
X163289414Y-141028462D01*
X163296443Y-141027670D01*
X163309884Y-141022967D01*
X163342514Y-141011549D01*
X163407047Y-140988968D01*
X163465196Y-140952431D01*
X163500271Y-140930392D01*
X163500272Y-140930391D01*
X163506266Y-140926625D01*
X163586117Y-140846774D01*
X163648429Y-140812748D01*
X163719244Y-140817813D01*
X163776080Y-140860360D01*
X163786100Y-140876037D01*
X163795590Y-140893625D01*
X163803236Y-140900693D01*
X163803237Y-140900694D01*
X163839558Y-140934269D01*
X163888487Y-140979498D01*
X164004191Y-141030651D01*
X164130227Y-141041566D01*
X164253003Y-141011069D01*
X164261752Y-141005420D01*
X164261754Y-141005419D01*
X164350534Y-140948094D01*
X164359281Y-140942446D01*
X164437601Y-140843098D01*
X164441052Y-140833271D01*
X164441053Y-140833270D01*
X164459258Y-140781426D01*
X164500700Y-140723780D01*
X164566729Y-140697691D01*
X164636382Y-140711441D01*
X164687543Y-140760665D01*
X164694468Y-140775988D01*
X164695517Y-140782290D01*
X164700461Y-140791453D01*
X164744799Y-140873625D01*
X164755590Y-140893625D01*
X164763236Y-140900693D01*
X164763237Y-140900694D01*
X164799558Y-140934269D01*
X164848487Y-140979498D01*
X164964191Y-141030651D01*
X165090227Y-141041566D01*
X165213003Y-141011069D01*
X165221752Y-141005420D01*
X165221754Y-141005419D01*
X165310534Y-140948094D01*
X165319281Y-140942446D01*
X165397601Y-140843098D01*
X165439517Y-140723736D01*
X165440000Y-140718160D01*
X165440000Y-140297502D01*
X166115263Y-140297502D01*
X166116814Y-140307294D01*
X166116814Y-140307297D01*
X166117741Y-140313150D01*
X166118685Y-140320509D01*
X166126882Y-140403736D01*
X166130707Y-140442567D01*
X166132503Y-140448488D01*
X166132504Y-140448492D01*
X166135904Y-140459699D01*
X166173022Y-140582057D01*
X166241736Y-140710611D01*
X166334209Y-140823291D01*
X166446889Y-140915764D01*
X166575443Y-140984478D01*
X166714933Y-141026793D01*
X166774262Y-141032637D01*
X166786929Y-141034617D01*
X166793764Y-141037017D01*
X166799340Y-141037500D01*
X166817454Y-141037500D01*
X166829800Y-141038107D01*
X166837000Y-141038816D01*
X166844350Y-141039759D01*
X166850203Y-141040686D01*
X166850206Y-141040686D01*
X166859998Y-141042237D01*
X166869791Y-141040686D01*
X166869792Y-141040686D01*
X166880116Y-141039051D01*
X166899825Y-141037500D01*
X167180174Y-141037500D01*
X167199884Y-141039051D01*
X167220000Y-141042237D01*
X167229793Y-141040686D01*
X167229794Y-141040686D01*
X167249128Y-141037624D01*
X167250159Y-141037500D01*
X167251565Y-141037500D01*
X167255238Y-141036889D01*
X167258054Y-141036550D01*
X167259816Y-141036304D01*
X167329414Y-141028462D01*
X167336443Y-141027670D01*
X167349884Y-141022967D01*
X167382514Y-141011549D01*
X167447047Y-140988968D01*
X167526964Y-140938753D01*
X167595285Y-140919447D01*
X167663199Y-140940142D01*
X167709142Y-140994270D01*
X167720000Y-141045440D01*
X167720000Y-141749065D01*
X167735517Y-141842290D01*
X167740463Y-141851456D01*
X167740463Y-141851457D01*
X167778950Y-141922785D01*
X167795590Y-141953625D01*
X167803236Y-141960693D01*
X167803237Y-141960694D01*
X167854514Y-142008094D01*
X167888487Y-142039498D01*
X168004191Y-142090651D01*
X168130227Y-142101566D01*
X168253003Y-142071069D01*
X168261752Y-142065420D01*
X168261754Y-142065419D01*
X168350534Y-142008094D01*
X168359281Y-142002446D01*
X168437601Y-141903098D01*
X168479517Y-141783736D01*
X168480000Y-141778160D01*
X168480000Y-141163500D01*
X168500002Y-141095379D01*
X168553658Y-141048886D01*
X168606000Y-141037500D01*
X168660175Y-141037500D01*
X168679884Y-141039051D01*
X168690208Y-141040686D01*
X168690209Y-141040686D01*
X168700002Y-141042237D01*
X168709794Y-141040686D01*
X168709797Y-141040686D01*
X168715650Y-141039759D01*
X168723009Y-141038815D01*
X168838905Y-141027400D01*
X168838906Y-141027400D01*
X168845067Y-141026793D01*
X168850988Y-141024997D01*
X168850992Y-141024996D01*
X168923259Y-141003073D01*
X168984557Y-140984478D01*
X169113111Y-140915764D01*
X169225791Y-140823291D01*
X169240994Y-140804766D01*
X169299672Y-140764797D01*
X169370643Y-140762896D01*
X169431375Y-140799667D01*
X169449282Y-140824868D01*
X169468433Y-140860360D01*
X169475590Y-140873625D01*
X169483236Y-140880693D01*
X169483237Y-140880694D01*
X169528404Y-140922446D01*
X169568487Y-140959498D01*
X169684191Y-141010651D01*
X169810227Y-141021566D01*
X169933003Y-140991069D01*
X169941752Y-140985420D01*
X169941754Y-140985419D01*
X170030534Y-140928094D01*
X170039281Y-140922446D01*
X170117601Y-140823098D01*
X170121674Y-140811501D01*
X170143825Y-140748420D01*
X170148485Y-140735151D01*
X170189928Y-140677506D01*
X170255957Y-140651417D01*
X170325609Y-140665167D01*
X170376770Y-140714392D01*
X170391350Y-140754437D01*
X170397337Y-140787484D01*
X170402412Y-140796577D01*
X170402413Y-140796579D01*
X170453918Y-140888855D01*
X170458994Y-140897949D01*
X170466740Y-140904907D01*
X170466741Y-140904908D01*
X170504420Y-140938753D01*
X170553108Y-140982487D01*
X170669531Y-141031982D01*
X170679915Y-141032732D01*
X170785322Y-141040345D01*
X170785324Y-141040345D01*
X170795710Y-141041095D01*
X170918038Y-141008848D01*
X170926706Y-141003074D01*
X170926708Y-141003073D01*
X171014656Y-140944488D01*
X171014657Y-140944487D01*
X171023325Y-140938713D01*
X171100218Y-140838257D01*
X171140424Y-140718308D01*
X171140828Y-140712726D01*
X171137213Y-140459698D01*
X171156240Y-140391299D01*
X171209226Y-140344045D01*
X171279348Y-140332938D01*
X171344344Y-140361506D01*
X171382357Y-140416939D01*
X171458691Y-140639002D01*
X171461919Y-140709925D01*
X171459847Y-140717389D01*
X171340117Y-141102237D01*
X171300701Y-141228930D01*
X171261365Y-141288034D01*
X171196321Y-141316489D01*
X171180389Y-141317500D01*
X171168435Y-141317500D01*
X171075210Y-141333017D01*
X171066044Y-141337963D01*
X171066043Y-141337963D01*
X170973041Y-141388144D01*
X170973040Y-141388145D01*
X170963875Y-141393090D01*
X170878002Y-141485987D01*
X170826849Y-141601691D01*
X170815934Y-141727727D01*
X170846431Y-141850503D01*
X170852080Y-141859252D01*
X170852081Y-141859254D01*
X170885672Y-141911277D01*
X170915054Y-141956781D01*
X171014402Y-142035101D01*
X171024229Y-142038552D01*
X171033777Y-142041905D01*
X171133764Y-142077017D01*
X171139340Y-142077500D01*
X171269631Y-142077500D01*
X171284595Y-142078392D01*
X171309801Y-142081407D01*
X171309802Y-142081407D01*
X171317670Y-142082348D01*
X171323218Y-142081610D01*
X171368700Y-142071503D01*
X171375345Y-142070213D01*
X171386705Y-142068322D01*
X171424790Y-142061983D01*
X171432461Y-142057844D01*
X171441085Y-142055418D01*
X171501903Y-142041902D01*
X171513193Y-142039928D01*
X171518594Y-142039235D01*
X171529005Y-142039625D01*
X171572030Y-142026670D01*
X171580993Y-142024327D01*
X171593247Y-142021604D01*
X171598061Y-142019661D01*
X171598071Y-142019658D01*
X171600841Y-142018540D01*
X171611661Y-142014737D01*
X171640165Y-142006153D01*
X171640167Y-142006152D01*
X171650140Y-142003149D01*
X171658599Y-141997080D01*
X171665064Y-141993898D01*
X171671228Y-141990131D01*
X171680886Y-141986233D01*
X171711270Y-141959933D01*
X171720271Y-141952833D01*
X171752929Y-141929401D01*
X171756522Y-141925110D01*
X171758070Y-141922898D01*
X171758157Y-141922785D01*
X171762238Y-141918453D01*
X171762016Y-141918269D01*
X171768664Y-141910253D01*
X171776538Y-141903438D01*
X171781780Y-141894440D01*
X171781782Y-141894437D01*
X171797927Y-141866722D01*
X171803578Y-141857888D01*
X171946428Y-141653816D01*
X171946429Y-141653814D01*
X171949409Y-141649557D01*
X171959227Y-141629012D01*
X171971797Y-141608164D01*
X171977980Y-141599849D01*
X171977985Y-141599841D01*
X171982708Y-141593488D01*
X171984826Y-141588307D01*
X172310293Y-140542160D01*
X172349628Y-140483057D01*
X172414673Y-140454602D01*
X172484777Y-140465831D01*
X172537681Y-140513177D01*
X172553331Y-140569818D01*
X172556088Y-140569582D01*
X172556976Y-140579960D01*
X172556148Y-140590340D01*
X172558727Y-140600427D01*
X172558727Y-140600429D01*
X172566464Y-140630693D01*
X172568680Y-140641213D01*
X172569730Y-140647518D01*
X172575517Y-140682290D01*
X172580462Y-140691455D01*
X172582941Y-140698696D01*
X172585519Y-140705228D01*
X172587482Y-140712906D01*
X172590173Y-140717814D01*
X172610577Y-140748420D01*
X172616627Y-140758481D01*
X172630643Y-140784457D01*
X172635590Y-140793625D01*
X172640919Y-140798551D01*
X172643941Y-140803028D01*
X172647157Y-140811501D01*
X172658249Y-140824868D01*
X172670782Y-140839972D01*
X172678035Y-140849706D01*
X172678446Y-140850224D01*
X172681330Y-140854550D01*
X172688879Y-140862606D01*
X172692263Y-140866217D01*
X172697286Y-140871912D01*
X172722880Y-140902755D01*
X172722885Y-140902759D01*
X172727943Y-140908855D01*
X172732476Y-140912138D01*
X172734805Y-140913535D01*
X172737082Y-140915039D01*
X172736998Y-140915166D01*
X172740126Y-140917292D01*
X172745953Y-140923510D01*
X172755151Y-140928392D01*
X172755153Y-140928394D01*
X172790533Y-140947174D01*
X172796279Y-140950419D01*
X172829906Y-140970596D01*
X172843879Y-140980322D01*
X172845515Y-140981633D01*
X172851032Y-140987329D01*
X172855803Y-140990254D01*
X172892699Y-141008703D01*
X172901142Y-141013337D01*
X172911558Y-141019587D01*
X172916404Y-141021497D01*
X172920133Y-141022967D01*
X172930277Y-141027491D01*
X173018292Y-141071499D01*
X173023262Y-141073029D01*
X173023266Y-141073031D01*
X173098659Y-141096246D01*
X173098661Y-141096246D01*
X173108614Y-141099311D01*
X173119022Y-141098987D01*
X173119024Y-141098987D01*
X173164777Y-141097561D01*
X173168701Y-141097500D01*
X173380175Y-141097500D01*
X173399884Y-141099051D01*
X173410208Y-141100686D01*
X173410209Y-141100686D01*
X173420002Y-141102237D01*
X173429794Y-141100686D01*
X173429797Y-141100686D01*
X173435650Y-141099759D01*
X173443009Y-141098815D01*
X173558905Y-141087400D01*
X173558906Y-141087400D01*
X173565067Y-141086793D01*
X173570988Y-141084997D01*
X173570992Y-141084996D01*
X173655591Y-141059332D01*
X173704557Y-141044478D01*
X173833111Y-140975764D01*
X173945791Y-140883291D01*
X174038264Y-140770611D01*
X174082360Y-140688113D01*
X187094527Y-140688113D01*
X187094699Y-140691508D01*
X187094699Y-140691509D01*
X187112202Y-141037017D01*
X187113162Y-141055971D01*
X187113699Y-141059326D01*
X187113700Y-141059332D01*
X187130385Y-141163500D01*
X187171416Y-141419665D01*
X187268608Y-141774941D01*
X187366215Y-142022730D01*
X187386565Y-142074390D01*
X187403602Y-142117642D01*
X187574817Y-142443759D01*
X187576718Y-142446588D01*
X187576724Y-142446598D01*
X187761707Y-142721879D01*
X187780252Y-142749477D01*
X188017502Y-143031221D01*
X188120006Y-143129176D01*
X188281329Y-143283341D01*
X188281336Y-143283347D01*
X188283792Y-143285694D01*
X188576008Y-143509919D01*
X188890731Y-143701274D01*
X189224279Y-143857519D01*
X189227497Y-143858621D01*
X189227500Y-143858622D01*
X189569528Y-143975725D01*
X189569536Y-143975727D01*
X189572751Y-143976828D01*
X189932070Y-144057804D01*
X190015002Y-144067253D01*
X190294650Y-144099115D01*
X190294658Y-144099115D01*
X190298033Y-144099500D01*
X190301437Y-144099518D01*
X190301440Y-144099518D01*
X190501074Y-144100563D01*
X190666358Y-144101428D01*
X190669744Y-144101078D01*
X190669746Y-144101078D01*
X191029345Y-144063918D01*
X191029354Y-144063917D01*
X191032737Y-144063567D01*
X191036070Y-144062853D01*
X191036073Y-144062852D01*
X191213488Y-144024817D01*
X191392884Y-143986358D01*
X191742586Y-143870705D01*
X192077752Y-143717961D01*
X192174965Y-143660240D01*
X192391516Y-143531662D01*
X192391521Y-143531659D01*
X192394461Y-143529913D01*
X192421091Y-143509919D01*
X192686276Y-143310812D01*
X192689009Y-143308760D01*
X192957950Y-143057089D01*
X193198138Y-142777846D01*
X193215838Y-142752093D01*
X193404831Y-142477104D01*
X193406762Y-142474295D01*
X193408374Y-142471301D01*
X193408379Y-142471293D01*
X193579761Y-142153001D01*
X193581383Y-142149989D01*
X193719958Y-141808720D01*
X193729436Y-141775449D01*
X193781268Y-141593488D01*
X193820865Y-141454482D01*
X193882925Y-141091418D01*
X193884144Y-141071499D01*
X193903904Y-140748420D01*
X193905411Y-140723775D01*
X193905481Y-140703736D01*
X193905488Y-140701820D01*
X193905488Y-140701808D01*
X193905494Y-140700000D01*
X193885575Y-140332209D01*
X193826052Y-139968720D01*
X193727620Y-139613786D01*
X193724443Y-139605801D01*
X193592690Y-139274722D01*
X193591431Y-139271558D01*
X193548917Y-139191264D01*
X193420677Y-138949060D01*
X193420673Y-138949053D01*
X193419078Y-138946041D01*
X193212578Y-138641041D01*
X192974346Y-138360128D01*
X192707168Y-138106586D01*
X192473214Y-137928360D01*
X192416879Y-137885444D01*
X192416877Y-137885442D01*
X192414172Y-137883382D01*
X192411260Y-137881625D01*
X192411255Y-137881622D01*
X192101705Y-137694889D01*
X192101696Y-137694884D01*
X192098783Y-137693127D01*
X192095693Y-137691693D01*
X192095688Y-137691690D01*
X191834693Y-137570541D01*
X191764691Y-137538047D01*
X191761466Y-137536955D01*
X191761460Y-137536953D01*
X191419032Y-137421048D01*
X191419027Y-137421047D01*
X191415805Y-137419956D01*
X191181920Y-137368104D01*
X191059536Y-137340972D01*
X191059532Y-137340971D01*
X191056206Y-137340234D01*
X190906624Y-137323720D01*
X190693482Y-137300189D01*
X190693475Y-137300189D01*
X190690100Y-137299816D01*
X190686701Y-137299810D01*
X190686700Y-137299810D01*
X190512979Y-137299507D01*
X190321770Y-137299173D01*
X190184556Y-137313837D01*
X189958910Y-137337951D01*
X189958904Y-137337952D01*
X189955526Y-137338313D01*
X189595650Y-137416779D01*
X189246354Y-137533652D01*
X189243261Y-137535075D01*
X189243260Y-137535075D01*
X189094009Y-137603723D01*
X188911723Y-137687565D01*
X188908789Y-137689321D01*
X188908787Y-137689322D01*
X188838900Y-137731149D01*
X188595672Y-137876718D01*
X188301898Y-138098897D01*
X188033837Y-138351505D01*
X188031625Y-138354095D01*
X188031624Y-138354096D01*
X187848050Y-138569034D01*
X187794626Y-138631585D01*
X187792698Y-138634412D01*
X187792696Y-138634414D01*
X187761034Y-138680829D01*
X187587062Y-138935862D01*
X187508105Y-139083736D01*
X187417964Y-139252555D01*
X187413574Y-139260776D01*
X187412299Y-139263948D01*
X187412297Y-139263952D01*
X187316422Y-139502451D01*
X187276192Y-139602526D01*
X187275273Y-139605794D01*
X187275271Y-139605801D01*
X187177442Y-139953837D01*
X187176521Y-139957115D01*
X187175959Y-139960472D01*
X187175959Y-139960473D01*
X187117921Y-140307297D01*
X187115729Y-140320393D01*
X187094527Y-140688113D01*
X174082360Y-140688113D01*
X174106978Y-140642057D01*
X174137282Y-140542161D01*
X174147496Y-140508492D01*
X174147497Y-140508488D01*
X174149293Y-140502567D01*
X174158767Y-140406376D01*
X174158909Y-140405467D01*
X174159517Y-140403736D01*
X174160000Y-140398160D01*
X174160000Y-140395695D01*
X174160462Y-140389171D01*
X174161315Y-140380510D01*
X174162259Y-140373150D01*
X174163186Y-140367297D01*
X174163186Y-140367294D01*
X174164737Y-140357502D01*
X174161551Y-140337384D01*
X174160000Y-140317675D01*
X174160000Y-140273246D01*
X174161238Y-140255624D01*
X174164028Y-140235872D01*
X174164028Y-140235871D01*
X174165137Y-140228020D01*
X174164517Y-140222458D01*
X174159126Y-140195502D01*
X174154388Y-140171810D01*
X174153651Y-140167789D01*
X174146193Y-140122984D01*
X174144483Y-140112710D01*
X174141903Y-140107927D01*
X174140775Y-140103749D01*
X174136637Y-140083058D01*
X174135063Y-140073158D01*
X174131181Y-140040356D01*
X174131181Y-140040355D01*
X174129957Y-140030017D01*
X174125451Y-140020633D01*
X174125450Y-140020630D01*
X174111929Y-139992474D01*
X174107693Y-139982593D01*
X174096624Y-139953391D01*
X174096623Y-139953389D01*
X174092932Y-139943652D01*
X174086285Y-139935635D01*
X174082434Y-139929021D01*
X174078627Y-139923125D01*
X174075195Y-139915977D01*
X174071593Y-139911692D01*
X174045589Y-139885688D01*
X174037683Y-139877010D01*
X174018835Y-139854275D01*
X174012191Y-139846261D01*
X174003309Y-139840831D01*
X173995433Y-139834011D01*
X173995673Y-139833734D01*
X173986083Y-139826182D01*
X173883940Y-139724039D01*
X173868310Y-139705006D01*
X173860699Y-139693628D01*
X173856528Y-139689896D01*
X173831875Y-139671407D01*
X173829070Y-139669169D01*
X173826381Y-139666480D01*
X173822148Y-139663455D01*
X173804784Y-139651046D01*
X173802444Y-139649333D01*
X173802350Y-139649263D01*
X173758454Y-139616340D01*
X173715959Y-139559468D01*
X173710957Y-139488648D01*
X173745038Y-139426366D01*
X173803679Y-139393257D01*
X173846351Y-139382657D01*
X173893003Y-139371069D01*
X173901752Y-139365420D01*
X173901754Y-139365419D01*
X173990534Y-139308094D01*
X173999281Y-139302446D01*
X174077601Y-139203098D01*
X174119517Y-139083736D01*
X174120000Y-139078160D01*
X174120000Y-138997971D01*
X174120399Y-138987953D01*
X174123024Y-138955040D01*
X174123852Y-138944660D01*
X174121273Y-138934571D01*
X174113536Y-138904307D01*
X174111320Y-138893787D01*
X174109154Y-138880777D01*
X174104483Y-138852710D01*
X174099538Y-138843545D01*
X174097059Y-138836304D01*
X174094481Y-138829772D01*
X174092518Y-138822094D01*
X174089827Y-138817186D01*
X174069423Y-138786580D01*
X174063373Y-138776519D01*
X174049357Y-138750543D01*
X174049356Y-138750542D01*
X174044410Y-138741375D01*
X174039081Y-138736449D01*
X174036059Y-138731972D01*
X174032843Y-138723499D01*
X174009218Y-138695028D01*
X174001965Y-138685294D01*
X174001554Y-138684776D01*
X173998670Y-138680450D01*
X173987734Y-138668780D01*
X173982714Y-138663088D01*
X173957120Y-138632245D01*
X173957115Y-138632241D01*
X173952057Y-138626145D01*
X173947524Y-138622862D01*
X173945195Y-138621465D01*
X173942918Y-138619961D01*
X173943002Y-138619834D01*
X173939874Y-138617708D01*
X173934047Y-138611490D01*
X173924849Y-138606608D01*
X173924847Y-138606606D01*
X173889467Y-138587826D01*
X173883714Y-138584576D01*
X173850097Y-138564405D01*
X173836128Y-138554683D01*
X173834488Y-138553369D01*
X173828969Y-138547671D01*
X173824197Y-138544746D01*
X173821761Y-138543528D01*
X173821752Y-138543523D01*
X173787319Y-138526306D01*
X173778846Y-138521655D01*
X173772899Y-138518087D01*
X173772897Y-138518086D01*
X173768442Y-138515413D01*
X173759864Y-138512032D01*
X173749724Y-138507509D01*
X173712156Y-138488725D01*
X173661709Y-138463501D01*
X173617876Y-138450004D01*
X173581335Y-138438752D01*
X173581332Y-138438752D01*
X173571386Y-138435689D01*
X173560981Y-138436013D01*
X173560980Y-138436013D01*
X173515224Y-138437439D01*
X173511300Y-138437500D01*
X173299825Y-138437500D01*
X173280116Y-138435949D01*
X173269792Y-138434314D01*
X173269791Y-138434314D01*
X173259998Y-138432763D01*
X173250206Y-138434314D01*
X173250203Y-138434314D01*
X173244350Y-138435241D01*
X173236991Y-138436185D01*
X173121095Y-138447600D01*
X173121094Y-138447600D01*
X173114933Y-138448207D01*
X173109012Y-138450003D01*
X173109008Y-138450004D01*
X173056210Y-138466021D01*
X172975443Y-138490522D01*
X172937668Y-138510713D01*
X172868164Y-138525185D01*
X172801868Y-138499782D01*
X172782203Y-138480821D01*
X172777619Y-138472872D01*
X172769777Y-138466023D01*
X172769775Y-138466021D01*
X172725338Y-138427213D01*
X172682334Y-138389656D01*
X172630314Y-138368394D01*
X172574872Y-138345733D01*
X172574869Y-138345732D01*
X172565231Y-138341793D01*
X172486944Y-138337235D01*
X172449333Y-138335045D01*
X172449332Y-138335045D01*
X172438938Y-138334440D01*
X172317072Y-138368394D01*
X172308486Y-138374288D01*
X172277962Y-138395242D01*
X172212774Y-138439991D01*
X172206557Y-138448353D01*
X172142020Y-138535152D01*
X172142018Y-138535156D01*
X172137292Y-138541512D01*
X172135174Y-138546693D01*
X172127897Y-138570082D01*
X171968239Y-139083268D01*
X171928903Y-139142372D01*
X171863858Y-139170827D01*
X171793755Y-139159598D01*
X171740851Y-139112252D01*
X171728772Y-139086802D01*
X171549100Y-138564119D01*
X171546625Y-138559545D01*
X171509076Y-138490159D01*
X171509074Y-138490157D01*
X171504120Y-138481002D01*
X171496464Y-138473942D01*
X171418773Y-138402301D01*
X171418770Y-138402299D01*
X171411117Y-138395242D01*
X171326113Y-138357787D01*
X171304880Y-138348431D01*
X171304879Y-138348431D01*
X171295350Y-138344232D01*
X171284974Y-138343346D01*
X171284973Y-138343346D01*
X171232325Y-138338851D01*
X171169301Y-138333471D01*
X171159197Y-138335994D01*
X171056670Y-138361596D01*
X171056669Y-138361596D01*
X171046563Y-138364120D01*
X171037820Y-138369781D01*
X171037819Y-138369781D01*
X170987590Y-138402301D01*
X170940369Y-138432873D01*
X170862171Y-138532317D01*
X170860465Y-138537194D01*
X170812348Y-138585154D01*
X170742949Y-138600132D01*
X170692747Y-138585590D01*
X170690850Y-138584576D01*
X170664557Y-138570522D01*
X170525067Y-138528207D01*
X170465738Y-138522363D01*
X170453071Y-138520383D01*
X170446236Y-138517983D01*
X170440660Y-138517500D01*
X170422546Y-138517500D01*
X170410200Y-138516893D01*
X170403000Y-138516184D01*
X170395650Y-138515241D01*
X170389797Y-138514314D01*
X170389794Y-138514314D01*
X170380002Y-138512763D01*
X170370209Y-138514314D01*
X170370208Y-138514314D01*
X170359884Y-138515949D01*
X170340175Y-138517500D01*
X170286000Y-138517500D01*
X170217879Y-138497498D01*
X170171386Y-138443842D01*
X170160000Y-138391500D01*
X170160000Y-137765935D01*
X170144483Y-137672710D01*
X170139537Y-137663543D01*
X170089356Y-137570541D01*
X170089355Y-137570540D01*
X170084410Y-137561375D01*
X170060729Y-137539484D01*
X169999158Y-137482569D01*
X169991513Y-137475502D01*
X169875809Y-137424349D01*
X169749773Y-137413434D01*
X169739664Y-137415945D01*
X169731943Y-137417863D01*
X169626997Y-137443931D01*
X169618248Y-137449580D01*
X169618246Y-137449581D01*
X169584622Y-137471292D01*
X169520719Y-137512554D01*
X169442399Y-137611902D01*
X169400483Y-137731264D01*
X169400000Y-137736840D01*
X169400000Y-138608274D01*
X169379998Y-138676395D01*
X169326342Y-138722888D01*
X169256068Y-138732992D01*
X169194067Y-138705674D01*
X169158390Y-138676395D01*
X169113111Y-138639236D01*
X168984557Y-138570522D01*
X168845067Y-138528207D01*
X168785738Y-138522363D01*
X168773071Y-138520383D01*
X168766236Y-138517983D01*
X168760660Y-138517500D01*
X168742546Y-138517500D01*
X168730200Y-138516893D01*
X168723000Y-138516184D01*
X168715650Y-138515241D01*
X168709797Y-138514314D01*
X168709794Y-138514314D01*
X168700002Y-138512763D01*
X168690209Y-138514314D01*
X168690208Y-138514314D01*
X168679884Y-138515949D01*
X168660175Y-138517500D01*
X168122167Y-138517500D01*
X168111296Y-138517030D01*
X168109714Y-138516893D01*
X168069773Y-138513434D01*
X168059664Y-138515945D01*
X168059663Y-138515945D01*
X168027681Y-138523889D01*
X168017996Y-138525895D01*
X167985480Y-138531307D01*
X167985477Y-138531308D01*
X167975210Y-138533017D01*
X167966046Y-138537961D01*
X167961497Y-138539519D01*
X167957103Y-138541421D01*
X167946997Y-138543931D01*
X167938248Y-138549580D01*
X167938244Y-138549582D01*
X167910558Y-138567459D01*
X167902041Y-138572496D01*
X167873043Y-138588142D01*
X167873037Y-138588146D01*
X167863875Y-138593090D01*
X167856804Y-138600739D01*
X167853009Y-138603683D01*
X167849470Y-138606904D01*
X167840719Y-138612554D01*
X167834271Y-138620733D01*
X167834270Y-138620734D01*
X167813859Y-138646625D01*
X167807435Y-138654146D01*
X167778002Y-138685987D01*
X167777696Y-138685704D01*
X167729321Y-138726786D01*
X167658950Y-138736190D01*
X167598189Y-138709057D01*
X167583290Y-138696830D01*
X167513111Y-138639236D01*
X167384557Y-138570522D01*
X167245067Y-138528207D01*
X167185738Y-138522363D01*
X167173071Y-138520383D01*
X167166236Y-138517983D01*
X167160660Y-138517500D01*
X167142546Y-138517500D01*
X167130200Y-138516893D01*
X167123000Y-138516184D01*
X167115650Y-138515241D01*
X167109797Y-138514314D01*
X167109794Y-138514314D01*
X167100002Y-138512763D01*
X167090209Y-138514314D01*
X167090208Y-138514314D01*
X167079884Y-138515949D01*
X167060175Y-138517500D01*
X166899825Y-138517500D01*
X166880116Y-138515949D01*
X166869792Y-138514314D01*
X166869791Y-138514314D01*
X166859998Y-138512763D01*
X166850206Y-138514314D01*
X166850203Y-138514314D01*
X166844350Y-138515241D01*
X166836991Y-138516185D01*
X166721095Y-138527600D01*
X166721094Y-138527600D01*
X166714933Y-138528207D01*
X166709012Y-138530003D01*
X166709008Y-138530004D01*
X166650629Y-138547714D01*
X166575443Y-138570522D01*
X166446889Y-138639236D01*
X166334209Y-138731709D01*
X166241736Y-138844389D01*
X166173022Y-138972943D01*
X166130707Y-139112433D01*
X166124956Y-139170827D01*
X166124864Y-139171756D01*
X166122883Y-139184429D01*
X166120483Y-139191264D01*
X166120000Y-139196840D01*
X166120000Y-139214954D01*
X166119393Y-139227308D01*
X166118685Y-139234494D01*
X166117741Y-139241850D01*
X166116814Y-139247703D01*
X166115263Y-139257498D01*
X166116814Y-139267291D01*
X166116814Y-139267292D01*
X166118449Y-139277616D01*
X166120000Y-139297325D01*
X166120000Y-140257675D01*
X166118449Y-140277384D01*
X166115263Y-140297502D01*
X165440000Y-140297502D01*
X165440000Y-139297325D01*
X165441551Y-139277616D01*
X165443186Y-139267292D01*
X165443186Y-139267291D01*
X165444737Y-139257498D01*
X165443186Y-139247703D01*
X165442259Y-139241850D01*
X165441315Y-139234491D01*
X165429900Y-139118595D01*
X165429900Y-139118594D01*
X165429293Y-139112433D01*
X165421517Y-139086798D01*
X165388775Y-138978868D01*
X165386978Y-138972943D01*
X165318264Y-138844389D01*
X165225791Y-138731709D01*
X165113111Y-138639236D01*
X164984557Y-138570522D01*
X164845067Y-138528207D01*
X164785738Y-138522363D01*
X164773071Y-138520383D01*
X164766236Y-138517983D01*
X164760660Y-138517500D01*
X164742546Y-138517500D01*
X164730200Y-138516893D01*
X164723000Y-138516184D01*
X164715650Y-138515241D01*
X164709797Y-138514314D01*
X164709794Y-138514314D01*
X164700002Y-138512763D01*
X164690209Y-138514314D01*
X164690208Y-138514314D01*
X164679884Y-138515949D01*
X164660175Y-138517500D01*
X164122167Y-138517500D01*
X164111296Y-138517030D01*
X164109714Y-138516893D01*
X164069773Y-138513434D01*
X164059664Y-138515945D01*
X164059663Y-138515945D01*
X164027681Y-138523889D01*
X164017996Y-138525895D01*
X163985480Y-138531307D01*
X163985477Y-138531308D01*
X163975210Y-138533017D01*
X163966046Y-138537961D01*
X163961497Y-138539519D01*
X163957103Y-138541421D01*
X163946997Y-138543931D01*
X163938248Y-138549580D01*
X163938244Y-138549582D01*
X163910558Y-138567459D01*
X163902041Y-138572496D01*
X163873043Y-138588142D01*
X163873037Y-138588146D01*
X163863875Y-138593090D01*
X163856804Y-138600739D01*
X163853009Y-138603683D01*
X163849470Y-138606904D01*
X163840719Y-138612554D01*
X163834271Y-138620733D01*
X163834270Y-138620734D01*
X163813859Y-138646625D01*
X163807435Y-138654146D01*
X163778002Y-138685987D01*
X163773792Y-138695511D01*
X163769422Y-138702163D01*
X163715304Y-138748117D01*
X163644932Y-138757517D01*
X163584178Y-138730385D01*
X163518390Y-138676395D01*
X163473111Y-138639236D01*
X163344557Y-138570522D01*
X163205067Y-138528207D01*
X163145738Y-138522363D01*
X163133071Y-138520383D01*
X163126236Y-138517983D01*
X163120660Y-138517500D01*
X163102546Y-138517500D01*
X163090200Y-138516893D01*
X163083000Y-138516184D01*
X163075650Y-138515241D01*
X163069797Y-138514314D01*
X163069794Y-138514314D01*
X163060002Y-138512763D01*
X163050209Y-138514314D01*
X163050208Y-138514314D01*
X163039884Y-138515949D01*
X163020175Y-138517500D01*
X162859825Y-138517500D01*
X162840116Y-138515949D01*
X162829792Y-138514314D01*
X162829791Y-138514314D01*
X162819998Y-138512763D01*
X162810206Y-138514314D01*
X162810203Y-138514314D01*
X162804350Y-138515241D01*
X162796991Y-138516185D01*
X162681095Y-138527600D01*
X162681094Y-138527600D01*
X162674933Y-138528207D01*
X162669012Y-138530003D01*
X162669008Y-138530004D01*
X162610629Y-138547714D01*
X162535443Y-138570522D01*
X162406889Y-138639236D01*
X162294209Y-138731709D01*
X162290287Y-138736488D01*
X162227400Y-138813117D01*
X162168723Y-138853086D01*
X162097752Y-138854987D01*
X162032600Y-138813117D01*
X161969713Y-138736488D01*
X161965791Y-138731709D01*
X161853111Y-138639236D01*
X161724557Y-138570522D01*
X161585067Y-138528207D01*
X161525738Y-138522363D01*
X161513071Y-138520383D01*
X161506236Y-138517983D01*
X161500660Y-138517500D01*
X161482546Y-138517500D01*
X161470200Y-138516893D01*
X161463000Y-138516184D01*
X161455650Y-138515241D01*
X161449797Y-138514314D01*
X161449794Y-138514314D01*
X161440002Y-138512763D01*
X161430209Y-138514314D01*
X161430208Y-138514314D01*
X161419884Y-138515949D01*
X161400175Y-138517500D01*
X160862167Y-138517500D01*
X160851296Y-138517030D01*
X160849714Y-138516893D01*
X160809773Y-138513434D01*
X160799664Y-138515945D01*
X160799663Y-138515945D01*
X160767681Y-138523889D01*
X160757996Y-138525895D01*
X160725480Y-138531307D01*
X160725477Y-138531308D01*
X160715210Y-138533017D01*
X160706046Y-138537961D01*
X160701497Y-138539519D01*
X160697103Y-138541421D01*
X160686997Y-138543931D01*
X160678248Y-138549580D01*
X160678244Y-138549582D01*
X160650558Y-138567459D01*
X160642041Y-138572496D01*
X160613043Y-138588142D01*
X160613037Y-138588146D01*
X160603875Y-138593090D01*
X160596804Y-138600739D01*
X160593009Y-138603683D01*
X160589470Y-138606904D01*
X160580719Y-138612554D01*
X160574271Y-138620733D01*
X160574270Y-138620734D01*
X160553859Y-138646625D01*
X160547435Y-138654146D01*
X160518002Y-138685987D01*
X160513790Y-138695515D01*
X160512926Y-138696830D01*
X160458808Y-138742784D01*
X160388437Y-138752185D01*
X160327681Y-138725053D01*
X160268390Y-138676395D01*
X160223111Y-138639236D01*
X160094557Y-138570522D01*
X159955067Y-138528207D01*
X159939099Y-138526634D01*
X159914175Y-138524179D01*
X159900009Y-138521964D01*
X159893715Y-138520609D01*
X159886236Y-138517983D01*
X159880660Y-138517500D01*
X159852546Y-138517500D01*
X159840200Y-138516893D01*
X159833000Y-138516184D01*
X159825650Y-138515241D01*
X159819797Y-138514314D01*
X159819794Y-138514314D01*
X159810002Y-138512763D01*
X159800209Y-138514314D01*
X159800208Y-138514314D01*
X159789884Y-138515949D01*
X159770175Y-138517500D01*
X159619825Y-138517500D01*
X159600116Y-138515949D01*
X159589792Y-138514314D01*
X159589791Y-138514314D01*
X159579998Y-138512763D01*
X159570206Y-138514314D01*
X159570203Y-138514314D01*
X159564350Y-138515241D01*
X159556991Y-138516185D01*
X159441095Y-138527600D01*
X159441094Y-138527600D01*
X159434933Y-138528207D01*
X159429012Y-138530003D01*
X159429008Y-138530004D01*
X159370629Y-138547714D01*
X159295443Y-138570522D01*
X159166889Y-138639236D01*
X159054209Y-138731709D01*
X158961736Y-138844389D01*
X158893022Y-138972943D01*
X158850707Y-139112433D01*
X158844956Y-139170827D01*
X158844864Y-139171756D01*
X158842883Y-139184429D01*
X158840483Y-139191264D01*
X158840000Y-139196840D01*
X158840000Y-139214954D01*
X158839393Y-139227308D01*
X158838685Y-139234494D01*
X158837741Y-139241850D01*
X158836814Y-139247703D01*
X158835263Y-139257498D01*
X158836814Y-139267291D01*
X158836814Y-139267292D01*
X158838449Y-139277616D01*
X158840000Y-139297325D01*
X158840000Y-140257675D01*
X158838449Y-140277384D01*
X158835263Y-140297502D01*
X78879892Y-140297502D01*
X78826052Y-139968720D01*
X78727620Y-139613786D01*
X78724443Y-139605801D01*
X78592690Y-139274722D01*
X78591431Y-139271558D01*
X78548917Y-139191264D01*
X78420677Y-138949060D01*
X78420673Y-138949053D01*
X78419078Y-138946041D01*
X78212578Y-138641041D01*
X77974346Y-138360128D01*
X77707168Y-138106586D01*
X77473214Y-137928360D01*
X77416879Y-137885444D01*
X77416877Y-137885442D01*
X77414172Y-137883382D01*
X77411260Y-137881625D01*
X77411255Y-137881622D01*
X77101705Y-137694889D01*
X77101696Y-137694884D01*
X77098783Y-137693127D01*
X77095693Y-137691693D01*
X77095688Y-137691690D01*
X76834693Y-137570541D01*
X76764691Y-137538047D01*
X76761466Y-137536955D01*
X76761460Y-137536953D01*
X76419032Y-137421048D01*
X76419027Y-137421047D01*
X76415805Y-137419956D01*
X76181920Y-137368104D01*
X76059536Y-137340972D01*
X76059532Y-137340971D01*
X76056206Y-137340234D01*
X75906624Y-137323720D01*
X75693482Y-137300189D01*
X75693475Y-137300189D01*
X75690100Y-137299816D01*
X75686701Y-137299810D01*
X75686700Y-137299810D01*
X75512979Y-137299507D01*
X75321770Y-137299173D01*
X75184556Y-137313837D01*
X74958910Y-137337951D01*
X74958904Y-137337952D01*
X74955526Y-137338313D01*
X74595650Y-137416779D01*
X74246354Y-137533652D01*
X74243261Y-137535075D01*
X74243260Y-137535075D01*
X74094009Y-137603723D01*
X73911723Y-137687565D01*
X73908789Y-137689321D01*
X73908787Y-137689322D01*
X73838900Y-137731149D01*
X73595672Y-137876718D01*
X73301898Y-138098897D01*
X73033837Y-138351505D01*
X73031625Y-138354095D01*
X73031624Y-138354096D01*
X72848050Y-138569034D01*
X72794626Y-138631585D01*
X72792698Y-138634412D01*
X72792696Y-138634414D01*
X72761034Y-138680829D01*
X72587062Y-138935862D01*
X72508105Y-139083736D01*
X72417964Y-139252555D01*
X72413574Y-139260776D01*
X72412299Y-139263948D01*
X72412297Y-139263952D01*
X72316422Y-139502451D01*
X72276192Y-139602526D01*
X72275273Y-139605794D01*
X72275271Y-139605801D01*
X72177442Y-139953837D01*
X72176521Y-139957115D01*
X72175959Y-139960472D01*
X72175959Y-139960473D01*
X72117921Y-140307297D01*
X72115729Y-140320393D01*
X72094527Y-140688113D01*
X70600000Y-140688113D01*
X70600000Y-134988798D01*
X160940248Y-134988798D01*
X160940430Y-134989883D01*
X160940304Y-134990978D01*
X160941127Y-134995760D01*
X160940671Y-135000587D01*
X160942369Y-135009396D01*
X160942369Y-135009404D01*
X160952148Y-135060146D01*
X160952682Y-135063108D01*
X160962702Y-135122994D01*
X160963181Y-135123985D01*
X160963368Y-135125071D01*
X160965499Y-135129430D01*
X160966417Y-135134191D01*
X160993685Y-135187233D01*
X160994144Y-135188125D01*
X160995524Y-135190894D01*
X161018161Y-135237721D01*
X161021919Y-135245494D01*
X161022655Y-135246309D01*
X161023140Y-135247300D01*
X161026408Y-135250885D01*
X161028626Y-135255198D01*
X161034801Y-135261704D01*
X161034803Y-135261706D01*
X161070404Y-135299211D01*
X161072509Y-135301485D01*
X161113136Y-135346450D01*
X161114074Y-135347027D01*
X161114816Y-135347841D01*
X161118958Y-135350363D01*
X161122298Y-135353882D01*
X161130057Y-135358396D01*
X161130059Y-135358398D01*
X161174735Y-135384392D01*
X161177392Y-135385982D01*
X161202178Y-135401231D01*
X161203006Y-135401578D01*
X161203643Y-135401935D01*
X161223360Y-135413942D01*
X161223363Y-135413943D01*
X161231026Y-135418610D01*
X161235709Y-135419868D01*
X161239902Y-135422308D01*
X161260999Y-135427526D01*
X161279462Y-135433640D01*
X162358533Y-135886154D01*
X167374088Y-137989452D01*
X167375354Y-137990086D01*
X167376581Y-137991067D01*
X167385884Y-137994888D01*
X167407284Y-138006190D01*
X167415680Y-138011716D01*
X167424268Y-138014349D01*
X167429655Y-138016884D01*
X167435191Y-138019081D01*
X167442984Y-138023544D01*
X167451715Y-138025640D01*
X167451716Y-138025640D01*
X167463987Y-138028585D01*
X167482450Y-138034553D01*
X167494135Y-138039352D01*
X167502440Y-138042763D01*
X167512444Y-138043820D01*
X167536148Y-138048660D01*
X167545763Y-138051608D01*
X167554023Y-138051716D01*
X167558088Y-138052264D01*
X167566084Y-138054347D01*
X167570749Y-138054209D01*
X167575288Y-138055298D01*
X167596866Y-138054241D01*
X167616259Y-138054787D01*
X167637749Y-138057057D01*
X167646579Y-138055457D01*
X167646588Y-138055457D01*
X167647657Y-138055263D01*
X167671757Y-138053256D01*
X167672832Y-138053270D01*
X167672834Y-138053270D01*
X167681814Y-138053387D01*
X167689777Y-138051171D01*
X167693826Y-138050557D01*
X167702086Y-138050312D01*
X167706523Y-138048870D01*
X167711187Y-138048642D01*
X167731612Y-138041568D01*
X167750368Y-138036652D01*
X167771632Y-138032799D01*
X167780628Y-138028300D01*
X167803204Y-138019607D01*
X167804244Y-138019318D01*
X167804250Y-138019315D01*
X167812894Y-138016910D01*
X167819903Y-138012556D01*
X167823632Y-138010823D01*
X167831489Y-138008270D01*
X167835345Y-138005640D01*
X167839756Y-138004112D01*
X167857383Y-137991583D01*
X167874010Y-137981599D01*
X167885294Y-137975956D01*
X167885295Y-137975955D01*
X167893324Y-137971940D01*
X167900689Y-137965103D01*
X167919924Y-137950418D01*
X167920844Y-137949847D01*
X167920849Y-137949843D01*
X167928469Y-137945109D01*
X167933980Y-137938955D01*
X167937062Y-137936255D01*
X167943891Y-137931597D01*
X167946853Y-137927991D01*
X167950659Y-137925286D01*
X167964054Y-137908323D01*
X167977219Y-137894064D01*
X167986463Y-137885483D01*
X167986467Y-137885479D01*
X167993044Y-137879373D01*
X167997645Y-137871664D01*
X167998201Y-137870733D01*
X168012534Y-137851250D01*
X168013255Y-137850445D01*
X168013258Y-137850440D01*
X168019245Y-137843756D01*
X168022801Y-137836316D01*
X168025012Y-137832843D01*
X168030256Y-137826459D01*
X168032089Y-137822163D01*
X168034980Y-137818501D01*
X168043076Y-137798460D01*
X168051704Y-137781089D01*
X168062775Y-137762539D01*
X168068543Y-137740285D01*
X168074616Y-137722463D01*
X168080120Y-137709560D01*
X168080120Y-137709558D01*
X168083640Y-137701307D01*
X168084193Y-137696672D01*
X168085941Y-137692344D01*
X168086833Y-137683405D01*
X168086969Y-137682046D01*
X168091660Y-137658351D01*
X168667313Y-135739507D01*
X168670922Y-135729142D01*
X168683224Y-135698215D01*
X168683225Y-135698213D01*
X168686542Y-135689873D01*
X168687313Y-135681709D01*
X168687592Y-135680427D01*
X168690355Y-135672662D01*
X168690449Y-135671028D01*
X168690986Y-135669486D01*
X168691416Y-135661008D01*
X168691417Y-135661001D01*
X168692930Y-135631149D01*
X168694168Y-135618797D01*
X168698539Y-135589721D01*
X168698539Y-135589718D01*
X168699873Y-135580844D01*
X168698663Y-135571951D01*
X168698693Y-135567628D01*
X168698486Y-135563342D01*
X168699329Y-135554413D01*
X168697774Y-135546340D01*
X168697685Y-135545070D01*
X168698158Y-135536824D01*
X168697789Y-135535229D01*
X168697872Y-135533598D01*
X168688977Y-135496259D01*
X168686699Y-135484056D01*
X168682734Y-135454921D01*
X168682734Y-135454919D01*
X168681523Y-135446025D01*
X168677864Y-135437827D01*
X168676684Y-135433686D01*
X168675280Y-135429621D01*
X168673582Y-135420809D01*
X168669633Y-135413127D01*
X168669469Y-135412678D01*
X168667522Y-135404256D01*
X168652229Y-135377018D01*
X168645477Y-135363040D01*
X166866785Y-131015127D01*
X166864104Y-131007960D01*
X166850775Y-130968737D01*
X166850775Y-130968736D01*
X166847886Y-130960236D01*
X166822878Y-130924613D01*
X166817327Y-130915978D01*
X166799846Y-130886182D01*
X166795306Y-130878443D01*
X166788774Y-130872287D01*
X166785454Y-130868121D01*
X166778528Y-130860121D01*
X166774868Y-130856226D01*
X166769708Y-130848876D01*
X166762697Y-130843273D01*
X166762694Y-130843270D01*
X166735708Y-130821704D01*
X166727956Y-130814973D01*
X166702824Y-130791289D01*
X166702819Y-130791285D01*
X166696285Y-130785128D01*
X166688284Y-130781051D01*
X166683888Y-130777956D01*
X166675032Y-130772245D01*
X166670431Y-130769537D01*
X166663419Y-130763933D01*
X166623156Y-130747395D01*
X166613828Y-130743111D01*
X166583053Y-130727430D01*
X166583051Y-130727429D01*
X166575055Y-130723355D01*
X166566236Y-130721689D01*
X166561158Y-130719955D01*
X166551075Y-130716965D01*
X166545865Y-130715648D01*
X166537560Y-130712237D01*
X166494274Y-130707664D01*
X166484132Y-130706173D01*
X166451509Y-130700008D01*
X166450176Y-130699756D01*
X166450175Y-130699756D01*
X166441359Y-130698090D01*
X166432427Y-130698966D01*
X166427066Y-130698727D01*
X166416553Y-130698687D01*
X166411177Y-130698886D01*
X166402251Y-130697943D01*
X166359436Y-130705701D01*
X166349272Y-130707118D01*
X166305946Y-130711365D01*
X166297618Y-130714712D01*
X166292458Y-130715975D01*
X166282268Y-130718913D01*
X166277202Y-130720600D01*
X166268368Y-130722201D01*
X166260338Y-130726217D01*
X166260335Y-130726218D01*
X166229443Y-130741667D01*
X166220079Y-130745882D01*
X166179702Y-130762113D01*
X166172651Y-130767661D01*
X166168037Y-130770330D01*
X166159094Y-130776003D01*
X166154704Y-130779045D01*
X166146676Y-130783060D01*
X166140100Y-130789164D01*
X166140096Y-130789167D01*
X166114782Y-130812665D01*
X166106978Y-130819339D01*
X166103973Y-130821704D01*
X166072775Y-130846253D01*
X166067562Y-130853561D01*
X166063865Y-130857437D01*
X166056924Y-130865333D01*
X166053539Y-130869515D01*
X166046956Y-130875626D01*
X166024649Y-130913002D01*
X166019043Y-130921579D01*
X165993762Y-130957021D01*
X165990810Y-130965498D01*
X165988356Y-130970242D01*
X165983892Y-130979808D01*
X165981825Y-130984753D01*
X165977225Y-130992461D01*
X165974974Y-131001145D01*
X165974973Y-131001148D01*
X165966306Y-131034589D01*
X165963328Y-131044412D01*
X165949014Y-131085514D01*
X165948559Y-131094482D01*
X165947532Y-131099743D01*
X165945934Y-131110167D01*
X165945339Y-131115484D01*
X165943088Y-131124171D01*
X165943365Y-131133140D01*
X165944431Y-131167670D01*
X165944330Y-131177933D01*
X165942128Y-131221402D01*
X165944208Y-131230132D01*
X165954693Y-131274149D01*
X165955965Y-131280127D01*
X166352141Y-133393067D01*
X166345035Y-133463707D01*
X166300867Y-133519291D01*
X166233658Y-133542173D01*
X166164749Y-133525087D01*
X166155069Y-133518821D01*
X164348083Y-132228116D01*
X164338253Y-132219392D01*
X164338162Y-132219503D01*
X164331232Y-132213792D01*
X164325183Y-132207159D01*
X164319614Y-132203768D01*
X164315091Y-132199068D01*
X164307304Y-132194609D01*
X164307300Y-132194606D01*
X164281876Y-132180048D01*
X164273768Y-132174850D01*
X164271974Y-132173753D01*
X164268332Y-132171151D01*
X164256936Y-132165247D01*
X164249361Y-132160985D01*
X164216638Y-132141057D01*
X164216636Y-132141056D01*
X164208974Y-132136390D01*
X164202675Y-132134697D01*
X164197016Y-132131457D01*
X164188937Y-132129518D01*
X164185494Y-132128235D01*
X164178116Y-132124412D01*
X164169312Y-132122687D01*
X164169310Y-132122686D01*
X164131717Y-132115319D01*
X164123252Y-132113355D01*
X164109586Y-132109683D01*
X164077574Y-132101081D01*
X164071055Y-132101224D01*
X164064712Y-132099702D01*
X164056413Y-132100108D01*
X164052740Y-132099842D01*
X164044594Y-132098246D01*
X164020510Y-132100443D01*
X163997505Y-132102541D01*
X163988831Y-132103032D01*
X163964420Y-132103569D01*
X163941545Y-132104072D01*
X163935329Y-132106039D01*
X163928813Y-132106358D01*
X163920959Y-132109078D01*
X163917370Y-132109851D01*
X163909095Y-132110606D01*
X163865081Y-132127954D01*
X163856900Y-132130857D01*
X163811823Y-132145121D01*
X163806407Y-132148755D01*
X163800245Y-132150889D01*
X163793475Y-132155701D01*
X163790247Y-132157451D01*
X163782511Y-132160500D01*
X163775422Y-132166002D01*
X163775419Y-132166003D01*
X163745141Y-132189499D01*
X163738096Y-132194587D01*
X163731418Y-132199068D01*
X163725009Y-132203368D01*
X163721428Y-132206674D01*
X163720913Y-132207080D01*
X163715842Y-132210879D01*
X163696660Y-132224513D01*
X163696657Y-132224515D01*
X163689342Y-132229715D01*
X163684194Y-132236235D01*
X163681590Y-132238817D01*
X163675019Y-132243916D01*
X163669757Y-132251189D01*
X163668536Y-132252451D01*
X163653582Y-132269300D01*
X161131078Y-134597766D01*
X161130482Y-134598316D01*
X161116027Y-134609817D01*
X161096109Y-134623403D01*
X161092334Y-134627999D01*
X161087503Y-134631471D01*
X161081974Y-134638550D01*
X161050175Y-134679261D01*
X161048240Y-134681677D01*
X161009745Y-134728541D01*
X161009312Y-134729556D01*
X161008618Y-134730409D01*
X161006736Y-134734876D01*
X161003749Y-134738701D01*
X161000432Y-134747040D01*
X161000430Y-134747043D01*
X160981323Y-134795073D01*
X160980144Y-134797934D01*
X160959778Y-134845680D01*
X160959777Y-134845686D01*
X160956361Y-134853693D01*
X160956231Y-134854787D01*
X160955803Y-134855802D01*
X160955251Y-134860618D01*
X160953457Y-134865127D01*
X160952613Y-134874071D01*
X160947758Y-134925505D01*
X160947429Y-134928585D01*
X160941279Y-134980149D01*
X160941279Y-134980153D01*
X160940248Y-134988798D01*
X70600000Y-134988798D01*
X70600000Y-122192088D01*
X91103433Y-122192088D01*
X91104725Y-122196064D01*
X91121152Y-122383831D01*
X91170968Y-122569747D01*
X91252312Y-122744189D01*
X91362711Y-122901856D01*
X91498811Y-123037956D01*
X91656478Y-123148355D01*
X91661456Y-123150676D01*
X91661459Y-123150678D01*
X91825938Y-123227376D01*
X91830920Y-123229699D01*
X91836228Y-123231121D01*
X91836230Y-123231122D01*
X91894139Y-123246638D01*
X92016836Y-123279515D01*
X92086830Y-123285638D01*
X92183211Y-123294071D01*
X92183213Y-123294071D01*
X92204603Y-123295942D01*
X92208579Y-123297234D01*
X92223025Y-123292540D01*
X92237927Y-123292966D01*
X92244037Y-123292088D01*
X99192741Y-123292088D01*
X99192741Y-123292507D01*
X99193535Y-123292346D01*
X99208579Y-123297234D01*
X99212555Y-123295942D01*
X99400322Y-123279515D01*
X99523019Y-123246638D01*
X99580928Y-123231122D01*
X99580930Y-123231121D01*
X99586238Y-123229699D01*
X99591220Y-123227376D01*
X99755699Y-123150678D01*
X99755702Y-123150676D01*
X99760680Y-123148355D01*
X99918347Y-123037956D01*
X100054447Y-122901856D01*
X100164846Y-122744189D01*
X100246190Y-122569747D01*
X100296006Y-122383831D01*
X100302129Y-122313837D01*
X100310562Y-122217456D01*
X100310562Y-122217454D01*
X100312433Y-122196064D01*
X100313725Y-122192088D01*
X116103433Y-122192088D01*
X116104725Y-122196064D01*
X116121152Y-122383831D01*
X116170968Y-122569747D01*
X116252312Y-122744189D01*
X116362711Y-122901856D01*
X116498811Y-123037956D01*
X116656478Y-123148355D01*
X116661456Y-123150676D01*
X116661459Y-123150678D01*
X116825938Y-123227376D01*
X116830920Y-123229699D01*
X116836228Y-123231121D01*
X116836230Y-123231122D01*
X116894139Y-123246638D01*
X117016836Y-123279515D01*
X117086830Y-123285638D01*
X117183211Y-123294071D01*
X117183213Y-123294071D01*
X117204603Y-123295942D01*
X117208579Y-123297234D01*
X117223025Y-123292540D01*
X117237927Y-123292966D01*
X117244037Y-123292088D01*
X124192741Y-123292088D01*
X124192741Y-123292507D01*
X124193535Y-123292346D01*
X124208579Y-123297234D01*
X124212555Y-123295942D01*
X124400322Y-123279515D01*
X124523019Y-123246638D01*
X124580928Y-123231122D01*
X124580930Y-123231121D01*
X124586238Y-123229699D01*
X124591220Y-123227376D01*
X124755699Y-123150678D01*
X124755702Y-123150676D01*
X124760680Y-123148355D01*
X124918347Y-123037956D01*
X125054447Y-122901856D01*
X125164846Y-122744189D01*
X125246190Y-122569747D01*
X125296006Y-122383831D01*
X125302129Y-122313837D01*
X125310562Y-122217456D01*
X125310562Y-122217454D01*
X125312433Y-122196064D01*
X125313725Y-122192088D01*
X141103433Y-122192088D01*
X141104725Y-122196064D01*
X141121152Y-122383831D01*
X141170968Y-122569747D01*
X141252312Y-122744189D01*
X141362711Y-122901856D01*
X141498811Y-123037956D01*
X141656478Y-123148355D01*
X141661456Y-123150676D01*
X141661459Y-123150678D01*
X141825938Y-123227376D01*
X141830920Y-123229699D01*
X141836228Y-123231121D01*
X141836230Y-123231122D01*
X141894139Y-123246638D01*
X142016836Y-123279515D01*
X142086830Y-123285638D01*
X142183211Y-123294071D01*
X142183213Y-123294071D01*
X142204603Y-123295942D01*
X142208579Y-123297234D01*
X142223025Y-123292540D01*
X142237927Y-123292966D01*
X142244037Y-123292088D01*
X149192741Y-123292088D01*
X149192741Y-123292507D01*
X149193535Y-123292346D01*
X149208579Y-123297234D01*
X149212555Y-123295942D01*
X149400322Y-123279515D01*
X149523019Y-123246638D01*
X149580928Y-123231122D01*
X149580930Y-123231121D01*
X149586238Y-123229699D01*
X149591220Y-123227376D01*
X149755699Y-123150678D01*
X149755702Y-123150676D01*
X149760680Y-123148355D01*
X149918347Y-123037956D01*
X150054447Y-122901856D01*
X150164846Y-122744189D01*
X150246190Y-122569747D01*
X150296006Y-122383831D01*
X150302129Y-122313837D01*
X150310562Y-122217456D01*
X150310562Y-122217454D01*
X150312433Y-122196064D01*
X150313725Y-122192088D01*
X166103433Y-122192088D01*
X166104725Y-122196064D01*
X166121152Y-122383831D01*
X166170968Y-122569747D01*
X166252312Y-122744189D01*
X166362711Y-122901856D01*
X166498811Y-123037956D01*
X166656478Y-123148355D01*
X166661456Y-123150676D01*
X166661459Y-123150678D01*
X166825938Y-123227376D01*
X166830920Y-123229699D01*
X166836228Y-123231121D01*
X166836230Y-123231122D01*
X166894139Y-123246638D01*
X167016836Y-123279515D01*
X167086830Y-123285638D01*
X167183211Y-123294071D01*
X167183213Y-123294071D01*
X167204603Y-123295942D01*
X167208579Y-123297234D01*
X167223025Y-123292540D01*
X167237927Y-123292966D01*
X167244037Y-123292088D01*
X174192741Y-123292088D01*
X174192741Y-123292507D01*
X174193535Y-123292346D01*
X174208579Y-123297234D01*
X174212555Y-123295942D01*
X174400322Y-123279515D01*
X174523019Y-123246638D01*
X174580928Y-123231122D01*
X174580930Y-123231121D01*
X174586238Y-123229699D01*
X174591220Y-123227376D01*
X174755699Y-123150678D01*
X174755702Y-123150676D01*
X174760680Y-123148355D01*
X174918347Y-123037956D01*
X175054447Y-122901856D01*
X175164846Y-122744189D01*
X175246190Y-122569747D01*
X175296006Y-122383831D01*
X175302129Y-122313837D01*
X175310562Y-122217456D01*
X175310562Y-122217454D01*
X175312433Y-122196064D01*
X175313725Y-122192088D01*
X175309031Y-122177642D01*
X175309457Y-122162740D01*
X175308579Y-122156630D01*
X175308579Y-109557926D01*
X175308998Y-109557926D01*
X175308837Y-109557132D01*
X175313725Y-109542088D01*
X175312433Y-109538112D01*
X175296006Y-109350345D01*
X175246190Y-109164429D01*
X175164846Y-108989987D01*
X175054447Y-108832320D01*
X174918347Y-108696220D01*
X174760680Y-108585821D01*
X174755702Y-108583500D01*
X174755699Y-108583498D01*
X174591220Y-108506800D01*
X174591218Y-108506799D01*
X174586238Y-108504477D01*
X174580930Y-108503055D01*
X174580928Y-108503054D01*
X174506667Y-108483156D01*
X174400322Y-108454661D01*
X174330328Y-108448538D01*
X174233947Y-108440105D01*
X174233945Y-108440105D01*
X174212555Y-108438234D01*
X174208579Y-108436942D01*
X174194133Y-108441636D01*
X174179231Y-108441210D01*
X174173121Y-108442088D01*
X172080094Y-108442088D01*
X172080094Y-108440891D01*
X172077927Y-108441284D01*
X172066475Y-108437032D01*
X172059093Y-108439098D01*
X171929945Y-108447423D01*
X171798363Y-108484655D01*
X171792473Y-108487775D01*
X171792470Y-108487776D01*
X171683414Y-108545541D01*
X171677520Y-108548663D01*
X171572796Y-108636599D01*
X171568705Y-108641860D01*
X171568701Y-108641864D01*
X171564880Y-108646778D01*
X171507273Y-108688274D01*
X171436376Y-108692037D01*
X171382621Y-108662040D01*
X171381337Y-108660118D01*
X171297849Y-108604332D01*
X171285680Y-108601912D01*
X171285679Y-108601911D01*
X171211538Y-108587164D01*
X171199367Y-108584743D01*
X171187196Y-108587164D01*
X171113055Y-108601911D01*
X171113054Y-108601912D01*
X171100885Y-108604332D01*
X171090568Y-108611226D01*
X171090565Y-108611227D01*
X171019370Y-108658799D01*
X170951617Y-108680015D01*
X170879364Y-108658799D01*
X170808169Y-108611227D01*
X170808166Y-108611226D01*
X170797849Y-108604332D01*
X170785680Y-108601912D01*
X170785679Y-108601911D01*
X170711538Y-108587164D01*
X170699367Y-108584743D01*
X170687196Y-108587164D01*
X170613055Y-108601911D01*
X170613054Y-108601912D01*
X170600885Y-108604332D01*
X170590568Y-108611226D01*
X170590565Y-108611227D01*
X170519370Y-108658799D01*
X170451617Y-108680015D01*
X170379364Y-108658799D01*
X170308169Y-108611227D01*
X170308166Y-108611226D01*
X170297849Y-108604332D01*
X170285680Y-108601912D01*
X170285679Y-108601911D01*
X170211538Y-108587164D01*
X170199367Y-108584743D01*
X170187196Y-108587164D01*
X170113055Y-108601911D01*
X170113054Y-108601912D01*
X170100885Y-108604332D01*
X170090569Y-108611225D01*
X170044380Y-108642088D01*
X170017397Y-108660118D01*
X170015658Y-108657516D01*
X169970448Y-108682203D01*
X169899633Y-108677138D01*
X169852916Y-108646493D01*
X169848451Y-108641858D01*
X169844362Y-108636599D01*
X169839256Y-108632311D01*
X169744747Y-108552953D01*
X169739638Y-108548663D01*
X169733744Y-108545541D01*
X169624688Y-108487776D01*
X169624685Y-108487775D01*
X169618795Y-108484655D01*
X169487213Y-108447423D01*
X169432155Y-108443874D01*
X169376263Y-108440271D01*
X169358065Y-108439098D01*
X169350683Y-108437032D01*
X169337443Y-108441947D01*
X169337064Y-108441841D01*
X169337064Y-108442088D01*
X167224417Y-108442088D01*
X167224417Y-108441669D01*
X167223623Y-108441830D01*
X167208579Y-108436942D01*
X167204603Y-108438234D01*
X167016836Y-108454661D01*
X166910491Y-108483156D01*
X166836230Y-108503054D01*
X166836228Y-108503055D01*
X166830920Y-108504477D01*
X166825940Y-108506799D01*
X166825938Y-108506800D01*
X166661459Y-108583498D01*
X166661456Y-108583500D01*
X166656478Y-108585821D01*
X166498811Y-108696220D01*
X166362711Y-108832320D01*
X166252312Y-108989987D01*
X166170968Y-109164429D01*
X166121152Y-109350345D01*
X166120673Y-109355824D01*
X166106596Y-109516720D01*
X166106596Y-109516722D01*
X166104725Y-109538112D01*
X166103433Y-109542088D01*
X166108127Y-109556534D01*
X166107701Y-109571436D01*
X166108579Y-109577546D01*
X166108579Y-122176250D01*
X166108160Y-122176250D01*
X166108321Y-122177044D01*
X166103433Y-122192088D01*
X150313725Y-122192088D01*
X150309031Y-122177642D01*
X150309457Y-122162740D01*
X150308579Y-122156630D01*
X150308579Y-109557926D01*
X150308998Y-109557926D01*
X150308837Y-109557132D01*
X150313725Y-109542088D01*
X150312433Y-109538112D01*
X150296006Y-109350345D01*
X150246190Y-109164429D01*
X150164846Y-108989987D01*
X150054447Y-108832320D01*
X149918347Y-108696220D01*
X149760680Y-108585821D01*
X149755702Y-108583500D01*
X149755699Y-108583498D01*
X149591220Y-108506800D01*
X149591218Y-108506799D01*
X149586238Y-108504477D01*
X149580930Y-108503055D01*
X149580928Y-108503054D01*
X149506667Y-108483156D01*
X149400322Y-108454661D01*
X149330328Y-108448538D01*
X149233947Y-108440105D01*
X149233945Y-108440105D01*
X149212555Y-108438234D01*
X149208579Y-108436942D01*
X149194133Y-108441636D01*
X149179231Y-108441210D01*
X149173121Y-108442088D01*
X147080094Y-108442088D01*
X147080094Y-108440891D01*
X147077927Y-108441284D01*
X147066475Y-108437032D01*
X147059093Y-108439098D01*
X146929945Y-108447423D01*
X146798363Y-108484655D01*
X146792473Y-108487775D01*
X146792470Y-108487776D01*
X146683414Y-108545541D01*
X146677520Y-108548663D01*
X146572796Y-108636599D01*
X146568705Y-108641860D01*
X146568701Y-108641864D01*
X146564880Y-108646778D01*
X146507273Y-108688274D01*
X146436376Y-108692037D01*
X146382621Y-108662040D01*
X146381337Y-108660118D01*
X146297849Y-108604332D01*
X146285680Y-108601912D01*
X146285679Y-108601911D01*
X146211538Y-108587164D01*
X146199367Y-108584743D01*
X146187196Y-108587164D01*
X146113055Y-108601911D01*
X146113054Y-108601912D01*
X146100885Y-108604332D01*
X146090568Y-108611226D01*
X146090565Y-108611227D01*
X146019370Y-108658799D01*
X145951617Y-108680015D01*
X145879364Y-108658799D01*
X145808169Y-108611227D01*
X145808166Y-108611226D01*
X145797849Y-108604332D01*
X145785680Y-108601912D01*
X145785679Y-108601911D01*
X145711538Y-108587164D01*
X145699367Y-108584743D01*
X145687196Y-108587164D01*
X145613055Y-108601911D01*
X145613054Y-108601912D01*
X145600885Y-108604332D01*
X145590568Y-108611226D01*
X145590565Y-108611227D01*
X145519370Y-108658799D01*
X145451617Y-108680015D01*
X145379364Y-108658799D01*
X145308169Y-108611227D01*
X145308166Y-108611226D01*
X145297849Y-108604332D01*
X145285680Y-108601912D01*
X145285679Y-108601911D01*
X145211538Y-108587164D01*
X145199367Y-108584743D01*
X145187196Y-108587164D01*
X145113055Y-108601911D01*
X145113054Y-108601912D01*
X145100885Y-108604332D01*
X145090569Y-108611225D01*
X145044380Y-108642088D01*
X145017397Y-108660118D01*
X145015658Y-108657516D01*
X144970448Y-108682203D01*
X144899633Y-108677138D01*
X144852916Y-108646493D01*
X144848451Y-108641858D01*
X144844362Y-108636599D01*
X144839256Y-108632311D01*
X144744747Y-108552953D01*
X144739638Y-108548663D01*
X144733744Y-108545541D01*
X144624688Y-108487776D01*
X144624685Y-108487775D01*
X144618795Y-108484655D01*
X144487213Y-108447423D01*
X144432155Y-108443874D01*
X144376263Y-108440271D01*
X144358065Y-108439098D01*
X144350683Y-108437032D01*
X144337443Y-108441947D01*
X144337064Y-108441841D01*
X144337064Y-108442088D01*
X142224417Y-108442088D01*
X142224417Y-108441669D01*
X142223623Y-108441830D01*
X142208579Y-108436942D01*
X142204603Y-108438234D01*
X142016836Y-108454661D01*
X141910491Y-108483156D01*
X141836230Y-108503054D01*
X141836228Y-108503055D01*
X141830920Y-108504477D01*
X141825940Y-108506799D01*
X141825938Y-108506800D01*
X141661459Y-108583498D01*
X141661456Y-108583500D01*
X141656478Y-108585821D01*
X141498811Y-108696220D01*
X141362711Y-108832320D01*
X141252312Y-108989987D01*
X141170968Y-109164429D01*
X141121152Y-109350345D01*
X141120673Y-109355824D01*
X141106596Y-109516720D01*
X141106596Y-109516722D01*
X141104725Y-109538112D01*
X141103433Y-109542088D01*
X141108127Y-109556534D01*
X141107701Y-109571436D01*
X141108579Y-109577546D01*
X141108579Y-122176250D01*
X141108160Y-122176250D01*
X141108321Y-122177044D01*
X141103433Y-122192088D01*
X125313725Y-122192088D01*
X125309031Y-122177642D01*
X125309457Y-122162740D01*
X125308579Y-122156630D01*
X125308579Y-109557926D01*
X125308998Y-109557926D01*
X125308837Y-109557132D01*
X125313725Y-109542088D01*
X125312433Y-109538112D01*
X125296006Y-109350345D01*
X125246190Y-109164429D01*
X125164846Y-108989987D01*
X125054447Y-108832320D01*
X124918347Y-108696220D01*
X124760680Y-108585821D01*
X124755702Y-108583500D01*
X124755699Y-108583498D01*
X124591220Y-108506800D01*
X124591218Y-108506799D01*
X124586238Y-108504477D01*
X124580930Y-108503055D01*
X124580928Y-108503054D01*
X124506667Y-108483156D01*
X124400322Y-108454661D01*
X124330328Y-108448538D01*
X124233947Y-108440105D01*
X124233945Y-108440105D01*
X124212555Y-108438234D01*
X124208579Y-108436942D01*
X124194133Y-108441636D01*
X124179231Y-108441210D01*
X124173121Y-108442088D01*
X122080094Y-108442088D01*
X122080094Y-108440891D01*
X122077927Y-108441284D01*
X122066475Y-108437032D01*
X122059093Y-108439098D01*
X121929945Y-108447423D01*
X121798363Y-108484655D01*
X121792473Y-108487775D01*
X121792470Y-108487776D01*
X121683414Y-108545541D01*
X121677520Y-108548663D01*
X121572796Y-108636599D01*
X121568705Y-108641860D01*
X121568701Y-108641864D01*
X121564880Y-108646778D01*
X121507273Y-108688274D01*
X121436376Y-108692037D01*
X121382621Y-108662040D01*
X121381337Y-108660118D01*
X121297849Y-108604332D01*
X121285680Y-108601912D01*
X121285679Y-108601911D01*
X121211538Y-108587164D01*
X121199367Y-108584743D01*
X121187196Y-108587164D01*
X121113055Y-108601911D01*
X121113054Y-108601912D01*
X121100885Y-108604332D01*
X121090568Y-108611226D01*
X121090565Y-108611227D01*
X121019370Y-108658799D01*
X120951617Y-108680015D01*
X120879364Y-108658799D01*
X120808169Y-108611227D01*
X120808166Y-108611226D01*
X120797849Y-108604332D01*
X120785680Y-108601912D01*
X120785679Y-108601911D01*
X120711538Y-108587164D01*
X120699367Y-108584743D01*
X120687196Y-108587164D01*
X120613055Y-108601911D01*
X120613054Y-108601912D01*
X120600885Y-108604332D01*
X120590568Y-108611226D01*
X120590565Y-108611227D01*
X120519370Y-108658799D01*
X120451617Y-108680015D01*
X120379364Y-108658799D01*
X120308169Y-108611227D01*
X120308166Y-108611226D01*
X120297849Y-108604332D01*
X120285680Y-108601912D01*
X120285679Y-108601911D01*
X120211538Y-108587164D01*
X120199367Y-108584743D01*
X120187196Y-108587164D01*
X120113055Y-108601911D01*
X120113054Y-108601912D01*
X120100885Y-108604332D01*
X120090569Y-108611225D01*
X120044380Y-108642088D01*
X120017397Y-108660118D01*
X120015658Y-108657516D01*
X119970448Y-108682203D01*
X119899633Y-108677138D01*
X119852916Y-108646493D01*
X119848451Y-108641858D01*
X119844362Y-108636599D01*
X119839256Y-108632311D01*
X119744747Y-108552953D01*
X119739638Y-108548663D01*
X119733744Y-108545541D01*
X119624688Y-108487776D01*
X119624685Y-108487775D01*
X119618795Y-108484655D01*
X119487213Y-108447423D01*
X119432155Y-108443874D01*
X119376263Y-108440271D01*
X119358065Y-108439098D01*
X119350683Y-108437032D01*
X119337443Y-108441947D01*
X119337064Y-108441841D01*
X119337064Y-108442088D01*
X117224417Y-108442088D01*
X117224417Y-108441669D01*
X117223623Y-108441830D01*
X117208579Y-108436942D01*
X117204603Y-108438234D01*
X117016836Y-108454661D01*
X116910491Y-108483156D01*
X116836230Y-108503054D01*
X116836228Y-108503055D01*
X116830920Y-108504477D01*
X116825940Y-108506799D01*
X116825938Y-108506800D01*
X116661459Y-108583498D01*
X116661456Y-108583500D01*
X116656478Y-108585821D01*
X116498811Y-108696220D01*
X116362711Y-108832320D01*
X116252312Y-108989987D01*
X116170968Y-109164429D01*
X116121152Y-109350345D01*
X116120673Y-109355824D01*
X116106596Y-109516720D01*
X116106596Y-109516722D01*
X116104725Y-109538112D01*
X116103433Y-109542088D01*
X116108127Y-109556534D01*
X116107701Y-109571436D01*
X116108579Y-109577546D01*
X116108579Y-122176250D01*
X116108160Y-122176250D01*
X116108321Y-122177044D01*
X116103433Y-122192088D01*
X100313725Y-122192088D01*
X100309031Y-122177642D01*
X100309457Y-122162740D01*
X100308579Y-122156630D01*
X100308579Y-109557926D01*
X100308998Y-109557926D01*
X100308837Y-109557132D01*
X100313725Y-109542088D01*
X100312433Y-109538112D01*
X100296006Y-109350345D01*
X100246190Y-109164429D01*
X100164846Y-108989987D01*
X100054447Y-108832320D01*
X99918347Y-108696220D01*
X99760680Y-108585821D01*
X99755702Y-108583500D01*
X99755699Y-108583498D01*
X99591220Y-108506800D01*
X99591218Y-108506799D01*
X99586238Y-108504477D01*
X99580930Y-108503055D01*
X99580928Y-108503054D01*
X99506667Y-108483156D01*
X99400322Y-108454661D01*
X99330328Y-108448538D01*
X99233947Y-108440105D01*
X99233945Y-108440105D01*
X99212555Y-108438234D01*
X99208579Y-108436942D01*
X99194133Y-108441636D01*
X99179231Y-108441210D01*
X99173121Y-108442088D01*
X97080094Y-108442088D01*
X97080094Y-108440891D01*
X97077927Y-108441284D01*
X97066475Y-108437032D01*
X97059093Y-108439098D01*
X96929945Y-108447423D01*
X96803662Y-108483156D01*
X96803660Y-108483156D01*
X96798363Y-108484655D01*
X96798235Y-108484203D01*
X96757392Y-108492088D01*
X94659766Y-108492088D01*
X94618923Y-108484203D01*
X94618795Y-108484655D01*
X94613498Y-108483156D01*
X94613496Y-108483156D01*
X94487213Y-108447423D01*
X94432155Y-108443874D01*
X94376263Y-108440271D01*
X94358065Y-108439098D01*
X94350683Y-108437032D01*
X94337443Y-108441947D01*
X94337064Y-108441841D01*
X94337064Y-108442088D01*
X92224417Y-108442088D01*
X92224417Y-108441669D01*
X92223623Y-108441830D01*
X92208579Y-108436942D01*
X92204603Y-108438234D01*
X92016836Y-108454661D01*
X91910491Y-108483156D01*
X91836230Y-108503054D01*
X91836228Y-108503055D01*
X91830920Y-108504477D01*
X91825940Y-108506799D01*
X91825938Y-108506800D01*
X91661459Y-108583498D01*
X91661456Y-108583500D01*
X91656478Y-108585821D01*
X91498811Y-108696220D01*
X91362711Y-108832320D01*
X91252312Y-108989987D01*
X91170968Y-109164429D01*
X91121152Y-109350345D01*
X91120673Y-109355824D01*
X91106596Y-109516720D01*
X91106596Y-109516722D01*
X91104725Y-109538112D01*
X91103433Y-109542088D01*
X91108127Y-109556534D01*
X91107701Y-109571436D01*
X91108579Y-109577546D01*
X91108579Y-122176250D01*
X91108160Y-122176250D01*
X91108321Y-122177044D01*
X91103433Y-122192088D01*
X70600000Y-122192088D01*
X70600000Y-97192088D01*
X91103433Y-97192088D01*
X91104725Y-97196064D01*
X91121152Y-97383831D01*
X91170968Y-97569747D01*
X91252312Y-97744189D01*
X91362711Y-97901856D01*
X91498811Y-98037956D01*
X91656478Y-98148355D01*
X91661456Y-98150676D01*
X91661459Y-98150678D01*
X91825938Y-98227376D01*
X91830920Y-98229699D01*
X91836228Y-98231121D01*
X91836230Y-98231122D01*
X91894139Y-98246638D01*
X92016836Y-98279515D01*
X92086830Y-98285638D01*
X92183211Y-98294071D01*
X92183213Y-98294071D01*
X92204603Y-98295942D01*
X92208579Y-98297234D01*
X92223025Y-98292540D01*
X92237927Y-98292966D01*
X92244037Y-98292088D01*
X99192741Y-98292088D01*
X99192741Y-98292507D01*
X99193535Y-98292346D01*
X99208579Y-98297234D01*
X99212555Y-98295942D01*
X99400322Y-98279515D01*
X99523019Y-98246638D01*
X99580928Y-98231122D01*
X99580930Y-98231121D01*
X99586238Y-98229699D01*
X99591220Y-98227376D01*
X99755699Y-98150678D01*
X99755702Y-98150676D01*
X99760680Y-98148355D01*
X99918347Y-98037956D01*
X100054447Y-97901856D01*
X100164846Y-97744189D01*
X100246190Y-97569747D01*
X100296006Y-97383831D01*
X100302129Y-97313837D01*
X100310562Y-97217456D01*
X100310562Y-97217454D01*
X100312433Y-97196064D01*
X100313725Y-97192088D01*
X116103433Y-97192088D01*
X116104725Y-97196064D01*
X116121152Y-97383831D01*
X116170968Y-97569747D01*
X116252312Y-97744189D01*
X116362711Y-97901856D01*
X116498811Y-98037956D01*
X116656478Y-98148355D01*
X116661456Y-98150676D01*
X116661459Y-98150678D01*
X116825938Y-98227376D01*
X116830920Y-98229699D01*
X116836228Y-98231121D01*
X116836230Y-98231122D01*
X116894139Y-98246638D01*
X117016836Y-98279515D01*
X117086830Y-98285638D01*
X117183211Y-98294071D01*
X117183213Y-98294071D01*
X117204603Y-98295942D01*
X117208579Y-98297234D01*
X117223025Y-98292540D01*
X117237927Y-98292966D01*
X117244037Y-98292088D01*
X124192741Y-98292088D01*
X124192741Y-98292507D01*
X124193535Y-98292346D01*
X124208579Y-98297234D01*
X124212555Y-98295942D01*
X124400322Y-98279515D01*
X124523019Y-98246638D01*
X124580928Y-98231122D01*
X124580930Y-98231121D01*
X124586238Y-98229699D01*
X124591220Y-98227376D01*
X124755699Y-98150678D01*
X124755702Y-98150676D01*
X124760680Y-98148355D01*
X124918347Y-98037956D01*
X125054447Y-97901856D01*
X125164846Y-97744189D01*
X125246190Y-97569747D01*
X125296006Y-97383831D01*
X125302129Y-97313837D01*
X125310562Y-97217456D01*
X125310562Y-97217454D01*
X125312433Y-97196064D01*
X125313725Y-97192088D01*
X141103433Y-97192088D01*
X141104725Y-97196064D01*
X141121152Y-97383831D01*
X141170968Y-97569747D01*
X141252312Y-97744189D01*
X141362711Y-97901856D01*
X141498811Y-98037956D01*
X141656478Y-98148355D01*
X141661456Y-98150676D01*
X141661459Y-98150678D01*
X141825938Y-98227376D01*
X141830920Y-98229699D01*
X141836228Y-98231121D01*
X141836230Y-98231122D01*
X141894139Y-98246638D01*
X142016836Y-98279515D01*
X142086830Y-98285638D01*
X142183211Y-98294071D01*
X142183213Y-98294071D01*
X142204603Y-98295942D01*
X142208579Y-98297234D01*
X142223025Y-98292540D01*
X142237927Y-98292966D01*
X142244037Y-98292088D01*
X149192741Y-98292088D01*
X149192741Y-98292507D01*
X149193535Y-98292346D01*
X149208579Y-98297234D01*
X149212555Y-98295942D01*
X149400322Y-98279515D01*
X149523019Y-98246638D01*
X149580928Y-98231122D01*
X149580930Y-98231121D01*
X149586238Y-98229699D01*
X149591220Y-98227376D01*
X149755699Y-98150678D01*
X149755702Y-98150676D01*
X149760680Y-98148355D01*
X149918347Y-98037956D01*
X150054447Y-97901856D01*
X150164846Y-97744189D01*
X150246190Y-97569747D01*
X150296006Y-97383831D01*
X150302129Y-97313837D01*
X150310562Y-97217456D01*
X150310562Y-97217454D01*
X150312433Y-97196064D01*
X150313725Y-97192088D01*
X166103433Y-97192088D01*
X166104725Y-97196064D01*
X166121152Y-97383831D01*
X166170968Y-97569747D01*
X166252312Y-97744189D01*
X166362711Y-97901856D01*
X166498811Y-98037956D01*
X166656478Y-98148355D01*
X166661456Y-98150676D01*
X166661459Y-98150678D01*
X166825938Y-98227376D01*
X166830920Y-98229699D01*
X166836228Y-98231121D01*
X166836230Y-98231122D01*
X166894139Y-98246638D01*
X167016836Y-98279515D01*
X167086830Y-98285638D01*
X167183211Y-98294071D01*
X167183213Y-98294071D01*
X167204603Y-98295942D01*
X167208579Y-98297234D01*
X167223025Y-98292540D01*
X167237927Y-98292966D01*
X167244037Y-98292088D01*
X174192741Y-98292088D01*
X174192741Y-98292507D01*
X174193535Y-98292346D01*
X174208579Y-98297234D01*
X174212555Y-98295942D01*
X174400322Y-98279515D01*
X174523019Y-98246638D01*
X174580928Y-98231122D01*
X174580930Y-98231121D01*
X174586238Y-98229699D01*
X174591220Y-98227376D01*
X174755699Y-98150678D01*
X174755702Y-98150676D01*
X174760680Y-98148355D01*
X174918347Y-98037956D01*
X175054447Y-97901856D01*
X175164846Y-97744189D01*
X175246190Y-97569747D01*
X175296006Y-97383831D01*
X175302129Y-97313837D01*
X175310562Y-97217456D01*
X175310562Y-97217454D01*
X175312433Y-97196064D01*
X175313725Y-97192088D01*
X175309031Y-97177642D01*
X175309457Y-97162740D01*
X175308579Y-97156630D01*
X175308579Y-84557926D01*
X175308998Y-84557926D01*
X175308837Y-84557132D01*
X175313725Y-84542088D01*
X175312433Y-84538112D01*
X175296006Y-84350345D01*
X175246190Y-84164429D01*
X175164846Y-83989987D01*
X175054447Y-83832320D01*
X174918347Y-83696220D01*
X174760680Y-83585821D01*
X174755702Y-83583500D01*
X174755699Y-83583498D01*
X174591220Y-83506800D01*
X174591218Y-83506799D01*
X174586238Y-83504477D01*
X174580930Y-83503055D01*
X174580928Y-83503054D01*
X174506667Y-83483156D01*
X174400322Y-83454661D01*
X174330328Y-83448538D01*
X174233947Y-83440105D01*
X174233945Y-83440105D01*
X174212555Y-83438234D01*
X174208579Y-83436942D01*
X174194133Y-83441636D01*
X174179231Y-83441210D01*
X174173121Y-83442088D01*
X172080094Y-83442088D01*
X172080094Y-83440891D01*
X172077927Y-83441284D01*
X172066475Y-83437032D01*
X172059093Y-83439098D01*
X171929945Y-83447423D01*
X171798363Y-83484655D01*
X171792473Y-83487775D01*
X171792470Y-83487776D01*
X171683414Y-83545541D01*
X171677520Y-83548663D01*
X171572796Y-83636599D01*
X171568705Y-83641860D01*
X171568701Y-83641864D01*
X171564880Y-83646778D01*
X171507273Y-83688274D01*
X171436376Y-83692037D01*
X171382621Y-83662040D01*
X171381337Y-83660118D01*
X171297849Y-83604332D01*
X171285680Y-83601912D01*
X171285679Y-83601911D01*
X171211538Y-83587164D01*
X171199367Y-83584743D01*
X171187196Y-83587164D01*
X171113055Y-83601911D01*
X171113054Y-83601912D01*
X171100885Y-83604332D01*
X171090568Y-83611226D01*
X171090565Y-83611227D01*
X171019370Y-83658799D01*
X170951617Y-83680015D01*
X170879364Y-83658799D01*
X170808169Y-83611227D01*
X170808166Y-83611226D01*
X170797849Y-83604332D01*
X170785680Y-83601912D01*
X170785679Y-83601911D01*
X170711538Y-83587164D01*
X170699367Y-83584743D01*
X170687196Y-83587164D01*
X170613055Y-83601911D01*
X170613054Y-83601912D01*
X170600885Y-83604332D01*
X170590568Y-83611226D01*
X170590565Y-83611227D01*
X170519370Y-83658799D01*
X170451617Y-83680015D01*
X170379364Y-83658799D01*
X170308169Y-83611227D01*
X170308166Y-83611226D01*
X170297849Y-83604332D01*
X170285680Y-83601912D01*
X170285679Y-83601911D01*
X170211538Y-83587164D01*
X170199367Y-83584743D01*
X170187196Y-83587164D01*
X170113055Y-83601911D01*
X170113054Y-83601912D01*
X170100885Y-83604332D01*
X170090569Y-83611225D01*
X170044380Y-83642088D01*
X170017397Y-83660118D01*
X170015658Y-83657516D01*
X169970448Y-83682203D01*
X169899633Y-83677138D01*
X169852916Y-83646493D01*
X169848451Y-83641858D01*
X169844362Y-83636599D01*
X169839256Y-83632311D01*
X169744747Y-83552953D01*
X169739638Y-83548663D01*
X169733744Y-83545541D01*
X169624688Y-83487776D01*
X169624685Y-83487775D01*
X169618795Y-83484655D01*
X169487213Y-83447423D01*
X169432155Y-83443874D01*
X169376263Y-83440271D01*
X169358065Y-83439098D01*
X169350683Y-83437032D01*
X169337443Y-83441947D01*
X169337064Y-83441841D01*
X169337064Y-83442088D01*
X167224417Y-83442088D01*
X167224417Y-83441669D01*
X167223623Y-83441830D01*
X167208579Y-83436942D01*
X167204603Y-83438234D01*
X167016836Y-83454661D01*
X166910491Y-83483156D01*
X166836230Y-83503054D01*
X166836228Y-83503055D01*
X166830920Y-83504477D01*
X166825940Y-83506799D01*
X166825938Y-83506800D01*
X166661459Y-83583498D01*
X166661456Y-83583500D01*
X166656478Y-83585821D01*
X166498811Y-83696220D01*
X166362711Y-83832320D01*
X166252312Y-83989987D01*
X166170968Y-84164429D01*
X166121152Y-84350345D01*
X166120673Y-84355824D01*
X166106596Y-84516720D01*
X166106596Y-84516722D01*
X166104725Y-84538112D01*
X166103433Y-84542088D01*
X166108127Y-84556534D01*
X166107701Y-84571436D01*
X166108579Y-84577546D01*
X166108579Y-97176250D01*
X166108160Y-97176250D01*
X166108321Y-97177044D01*
X166103433Y-97192088D01*
X150313725Y-97192088D01*
X150309031Y-97177642D01*
X150309457Y-97162740D01*
X150308579Y-97156630D01*
X150308579Y-84557926D01*
X150308998Y-84557926D01*
X150308837Y-84557132D01*
X150313725Y-84542088D01*
X150312433Y-84538112D01*
X150296006Y-84350345D01*
X150246190Y-84164429D01*
X150164846Y-83989987D01*
X150054447Y-83832320D01*
X149918347Y-83696220D01*
X149760680Y-83585821D01*
X149755702Y-83583500D01*
X149755699Y-83583498D01*
X149591220Y-83506800D01*
X149591218Y-83506799D01*
X149586238Y-83504477D01*
X149580930Y-83503055D01*
X149580928Y-83503054D01*
X149506667Y-83483156D01*
X149400322Y-83454661D01*
X149330328Y-83448538D01*
X149233947Y-83440105D01*
X149233945Y-83440105D01*
X149212555Y-83438234D01*
X149208579Y-83436942D01*
X149194133Y-83441636D01*
X149179231Y-83441210D01*
X149173121Y-83442088D01*
X147080094Y-83442088D01*
X147080094Y-83440891D01*
X147077927Y-83441284D01*
X147066475Y-83437032D01*
X147059093Y-83439098D01*
X146929945Y-83447423D01*
X146798363Y-83484655D01*
X146792473Y-83487775D01*
X146792470Y-83487776D01*
X146683414Y-83545541D01*
X146677520Y-83548663D01*
X146572796Y-83636599D01*
X146568705Y-83641860D01*
X146568701Y-83641864D01*
X146564880Y-83646778D01*
X146507273Y-83688274D01*
X146436376Y-83692037D01*
X146382621Y-83662040D01*
X146381337Y-83660118D01*
X146297849Y-83604332D01*
X146285680Y-83601912D01*
X146285679Y-83601911D01*
X146211538Y-83587164D01*
X146199367Y-83584743D01*
X146187196Y-83587164D01*
X146113055Y-83601911D01*
X146113054Y-83601912D01*
X146100885Y-83604332D01*
X146090568Y-83611226D01*
X146090565Y-83611227D01*
X146019370Y-83658799D01*
X145951617Y-83680015D01*
X145879364Y-83658799D01*
X145808169Y-83611227D01*
X145808166Y-83611226D01*
X145797849Y-83604332D01*
X145785680Y-83601912D01*
X145785679Y-83601911D01*
X145711538Y-83587164D01*
X145699367Y-83584743D01*
X145687196Y-83587164D01*
X145613055Y-83601911D01*
X145613054Y-83601912D01*
X145600885Y-83604332D01*
X145590568Y-83611226D01*
X145590565Y-83611227D01*
X145519370Y-83658799D01*
X145451617Y-83680015D01*
X145379364Y-83658799D01*
X145308169Y-83611227D01*
X145308166Y-83611226D01*
X145297849Y-83604332D01*
X145285680Y-83601912D01*
X145285679Y-83601911D01*
X145211538Y-83587164D01*
X145199367Y-83584743D01*
X145187196Y-83587164D01*
X145113055Y-83601911D01*
X145113054Y-83601912D01*
X145100885Y-83604332D01*
X145090569Y-83611225D01*
X145044380Y-83642088D01*
X145017397Y-83660118D01*
X145015658Y-83657516D01*
X144970448Y-83682203D01*
X144899633Y-83677138D01*
X144852916Y-83646493D01*
X144848451Y-83641858D01*
X144844362Y-83636599D01*
X144839256Y-83632311D01*
X144744747Y-83552953D01*
X144739638Y-83548663D01*
X144733744Y-83545541D01*
X144624688Y-83487776D01*
X144624685Y-83487775D01*
X144618795Y-83484655D01*
X144487213Y-83447423D01*
X144432155Y-83443874D01*
X144376263Y-83440271D01*
X144358065Y-83439098D01*
X144350683Y-83437032D01*
X144337443Y-83441947D01*
X144337064Y-83441841D01*
X144337064Y-83442088D01*
X142224417Y-83442088D01*
X142224417Y-83441669D01*
X142223623Y-83441830D01*
X142208579Y-83436942D01*
X142204603Y-83438234D01*
X142016836Y-83454661D01*
X141910491Y-83483156D01*
X141836230Y-83503054D01*
X141836228Y-83503055D01*
X141830920Y-83504477D01*
X141825940Y-83506799D01*
X141825938Y-83506800D01*
X141661459Y-83583498D01*
X141661456Y-83583500D01*
X141656478Y-83585821D01*
X141498811Y-83696220D01*
X141362711Y-83832320D01*
X141252312Y-83989987D01*
X141170968Y-84164429D01*
X141121152Y-84350345D01*
X141120673Y-84355824D01*
X141106596Y-84516720D01*
X141106596Y-84516722D01*
X141104725Y-84538112D01*
X141103433Y-84542088D01*
X141108127Y-84556534D01*
X141107701Y-84571436D01*
X141108579Y-84577546D01*
X141108579Y-97176250D01*
X141108160Y-97176250D01*
X141108321Y-97177044D01*
X141103433Y-97192088D01*
X125313725Y-97192088D01*
X125309031Y-97177642D01*
X125309457Y-97162740D01*
X125308579Y-97156630D01*
X125308579Y-84557926D01*
X125308998Y-84557926D01*
X125308837Y-84557132D01*
X125313725Y-84542088D01*
X125312433Y-84538112D01*
X125296006Y-84350345D01*
X125246190Y-84164429D01*
X125164846Y-83989987D01*
X125054447Y-83832320D01*
X124918347Y-83696220D01*
X124760680Y-83585821D01*
X124755702Y-83583500D01*
X124755699Y-83583498D01*
X124591220Y-83506800D01*
X124591218Y-83506799D01*
X124586238Y-83504477D01*
X124580930Y-83503055D01*
X124580928Y-83503054D01*
X124506667Y-83483156D01*
X124400322Y-83454661D01*
X124330328Y-83448538D01*
X124233947Y-83440105D01*
X124233945Y-83440105D01*
X124212555Y-83438234D01*
X124208579Y-83436942D01*
X124194133Y-83441636D01*
X124179231Y-83441210D01*
X124173121Y-83442088D01*
X122080094Y-83442088D01*
X122080094Y-83440891D01*
X122077927Y-83441284D01*
X122066475Y-83437032D01*
X122059093Y-83439098D01*
X121929945Y-83447423D01*
X121798363Y-83484655D01*
X121792473Y-83487775D01*
X121792470Y-83487776D01*
X121683414Y-83545541D01*
X121677520Y-83548663D01*
X121572796Y-83636599D01*
X121568705Y-83641860D01*
X121568701Y-83641864D01*
X121564880Y-83646778D01*
X121507273Y-83688274D01*
X121436376Y-83692037D01*
X121382621Y-83662040D01*
X121381337Y-83660118D01*
X121297849Y-83604332D01*
X121285680Y-83601912D01*
X121285679Y-83601911D01*
X121211538Y-83587164D01*
X121199367Y-83584743D01*
X121187196Y-83587164D01*
X121113055Y-83601911D01*
X121113054Y-83601912D01*
X121100885Y-83604332D01*
X121090568Y-83611226D01*
X121090565Y-83611227D01*
X121019370Y-83658799D01*
X120951617Y-83680015D01*
X120879364Y-83658799D01*
X120808169Y-83611227D01*
X120808166Y-83611226D01*
X120797849Y-83604332D01*
X120785680Y-83601912D01*
X120785679Y-83601911D01*
X120711538Y-83587164D01*
X120699367Y-83584743D01*
X120687196Y-83587164D01*
X120613055Y-83601911D01*
X120613054Y-83601912D01*
X120600885Y-83604332D01*
X120590568Y-83611226D01*
X120590565Y-83611227D01*
X120519370Y-83658799D01*
X120451617Y-83680015D01*
X120379364Y-83658799D01*
X120308169Y-83611227D01*
X120308166Y-83611226D01*
X120297849Y-83604332D01*
X120285680Y-83601912D01*
X120285679Y-83601911D01*
X120211538Y-83587164D01*
X120199367Y-83584743D01*
X120187196Y-83587164D01*
X120113055Y-83601911D01*
X120113054Y-83601912D01*
X120100885Y-83604332D01*
X120090569Y-83611225D01*
X120044380Y-83642088D01*
X120017397Y-83660118D01*
X120015658Y-83657516D01*
X119970448Y-83682203D01*
X119899633Y-83677138D01*
X119852916Y-83646493D01*
X119848451Y-83641858D01*
X119844362Y-83636599D01*
X119839256Y-83632311D01*
X119744747Y-83552953D01*
X119739638Y-83548663D01*
X119733744Y-83545541D01*
X119624688Y-83487776D01*
X119624685Y-83487775D01*
X119618795Y-83484655D01*
X119487213Y-83447423D01*
X119432155Y-83443874D01*
X119376263Y-83440271D01*
X119358065Y-83439098D01*
X119350683Y-83437032D01*
X119337443Y-83441947D01*
X119337064Y-83441841D01*
X119337064Y-83442088D01*
X117224417Y-83442088D01*
X117224417Y-83441669D01*
X117223623Y-83441830D01*
X117208579Y-83436942D01*
X117204603Y-83438234D01*
X117016836Y-83454661D01*
X116910491Y-83483156D01*
X116836230Y-83503054D01*
X116836228Y-83503055D01*
X116830920Y-83504477D01*
X116825940Y-83506799D01*
X116825938Y-83506800D01*
X116661459Y-83583498D01*
X116661456Y-83583500D01*
X116656478Y-83585821D01*
X116498811Y-83696220D01*
X116362711Y-83832320D01*
X116252312Y-83989987D01*
X116170968Y-84164429D01*
X116121152Y-84350345D01*
X116120673Y-84355824D01*
X116106596Y-84516720D01*
X116106596Y-84516722D01*
X116104725Y-84538112D01*
X116103433Y-84542088D01*
X116108127Y-84556534D01*
X116107701Y-84571436D01*
X116108579Y-84577546D01*
X116108579Y-97176250D01*
X116108160Y-97176250D01*
X116108321Y-97177044D01*
X116103433Y-97192088D01*
X100313725Y-97192088D01*
X100309031Y-97177642D01*
X100309457Y-97162740D01*
X100308579Y-97156630D01*
X100308579Y-84557926D01*
X100308998Y-84557926D01*
X100308837Y-84557132D01*
X100313725Y-84542088D01*
X100312433Y-84538112D01*
X100296006Y-84350345D01*
X100246190Y-84164429D01*
X100164846Y-83989987D01*
X100054447Y-83832320D01*
X99918347Y-83696220D01*
X99760680Y-83585821D01*
X99755702Y-83583500D01*
X99755699Y-83583498D01*
X99591220Y-83506800D01*
X99591218Y-83506799D01*
X99586238Y-83504477D01*
X99580930Y-83503055D01*
X99580928Y-83503054D01*
X99506667Y-83483156D01*
X99400322Y-83454661D01*
X99330328Y-83448538D01*
X99233947Y-83440105D01*
X99233945Y-83440105D01*
X99212555Y-83438234D01*
X99208579Y-83436942D01*
X99194133Y-83441636D01*
X99179231Y-83441210D01*
X99173121Y-83442088D01*
X97080094Y-83442088D01*
X97080094Y-83440891D01*
X97077927Y-83441284D01*
X97066475Y-83437032D01*
X97059093Y-83439098D01*
X96929945Y-83447423D01*
X96803662Y-83483156D01*
X96803660Y-83483156D01*
X96798363Y-83484655D01*
X96798235Y-83484203D01*
X96757392Y-83492088D01*
X94659766Y-83492088D01*
X94618923Y-83484203D01*
X94618795Y-83484655D01*
X94613498Y-83483156D01*
X94613496Y-83483156D01*
X94487213Y-83447423D01*
X94432155Y-83443874D01*
X94376263Y-83440271D01*
X94358065Y-83439098D01*
X94350683Y-83437032D01*
X94337443Y-83441947D01*
X94337064Y-83441841D01*
X94337064Y-83442088D01*
X92224417Y-83442088D01*
X92224417Y-83441669D01*
X92223623Y-83441830D01*
X92208579Y-83436942D01*
X92204603Y-83438234D01*
X92016836Y-83454661D01*
X91910491Y-83483156D01*
X91836230Y-83503054D01*
X91836228Y-83503055D01*
X91830920Y-83504477D01*
X91825940Y-83506799D01*
X91825938Y-83506800D01*
X91661459Y-83583498D01*
X91661456Y-83583500D01*
X91656478Y-83585821D01*
X91498811Y-83696220D01*
X91362711Y-83832320D01*
X91252312Y-83989987D01*
X91170968Y-84164429D01*
X91121152Y-84350345D01*
X91120673Y-84355824D01*
X91106596Y-84516720D01*
X91106596Y-84516722D01*
X91104725Y-84538112D01*
X91103433Y-84542088D01*
X91108127Y-84556534D01*
X91107701Y-84571436D01*
X91108579Y-84577546D01*
X91108579Y-97176250D01*
X91108160Y-97176250D01*
X91108321Y-97177044D01*
X91103433Y-97192088D01*
X70600000Y-97192088D01*
X70600000Y-72192088D01*
X91103433Y-72192088D01*
X91104725Y-72196064D01*
X91121152Y-72383831D01*
X91170968Y-72569747D01*
X91252312Y-72744189D01*
X91362711Y-72901856D01*
X91498811Y-73037956D01*
X91656478Y-73148355D01*
X91661456Y-73150676D01*
X91661459Y-73150678D01*
X91825938Y-73227376D01*
X91830920Y-73229699D01*
X91836228Y-73231121D01*
X91836230Y-73231122D01*
X91894139Y-73246638D01*
X92016836Y-73279515D01*
X92086830Y-73285638D01*
X92183211Y-73294071D01*
X92183213Y-73294071D01*
X92204603Y-73295942D01*
X92208579Y-73297234D01*
X92223025Y-73292540D01*
X92237927Y-73292966D01*
X92244037Y-73292088D01*
X99192741Y-73292088D01*
X99192741Y-73292507D01*
X99193535Y-73292346D01*
X99208579Y-73297234D01*
X99212555Y-73295942D01*
X99400322Y-73279515D01*
X99523019Y-73246638D01*
X99580928Y-73231122D01*
X99580930Y-73231121D01*
X99586238Y-73229699D01*
X99591220Y-73227376D01*
X99755699Y-73150678D01*
X99755702Y-73150676D01*
X99760680Y-73148355D01*
X99918347Y-73037956D01*
X100054447Y-72901856D01*
X100164846Y-72744189D01*
X100246190Y-72569747D01*
X100296006Y-72383831D01*
X100302129Y-72313837D01*
X100310562Y-72217456D01*
X100310562Y-72217454D01*
X100312433Y-72196064D01*
X100313725Y-72192088D01*
X116103433Y-72192088D01*
X116104725Y-72196064D01*
X116121152Y-72383831D01*
X116170968Y-72569747D01*
X116252312Y-72744189D01*
X116362711Y-72901856D01*
X116498811Y-73037956D01*
X116656478Y-73148355D01*
X116661456Y-73150676D01*
X116661459Y-73150678D01*
X116825938Y-73227376D01*
X116830920Y-73229699D01*
X116836228Y-73231121D01*
X116836230Y-73231122D01*
X116894139Y-73246638D01*
X117016836Y-73279515D01*
X117086830Y-73285638D01*
X117183211Y-73294071D01*
X117183213Y-73294071D01*
X117204603Y-73295942D01*
X117208579Y-73297234D01*
X117223025Y-73292540D01*
X117237927Y-73292966D01*
X117244037Y-73292088D01*
X124192741Y-73292088D01*
X124192741Y-73292507D01*
X124193535Y-73292346D01*
X124208579Y-73297234D01*
X124212555Y-73295942D01*
X124400322Y-73279515D01*
X124523019Y-73246638D01*
X124580928Y-73231122D01*
X124580930Y-73231121D01*
X124586238Y-73229699D01*
X124591220Y-73227376D01*
X124755699Y-73150678D01*
X124755702Y-73150676D01*
X124760680Y-73148355D01*
X124918347Y-73037956D01*
X125054447Y-72901856D01*
X125164846Y-72744189D01*
X125246190Y-72569747D01*
X125296006Y-72383831D01*
X125302129Y-72313837D01*
X125310562Y-72217456D01*
X125310562Y-72217454D01*
X125312433Y-72196064D01*
X125313725Y-72192088D01*
X141103433Y-72192088D01*
X141104725Y-72196064D01*
X141121152Y-72383831D01*
X141170968Y-72569747D01*
X141252312Y-72744189D01*
X141362711Y-72901856D01*
X141498811Y-73037956D01*
X141656478Y-73148355D01*
X141661456Y-73150676D01*
X141661459Y-73150678D01*
X141825938Y-73227376D01*
X141830920Y-73229699D01*
X141836228Y-73231121D01*
X141836230Y-73231122D01*
X141894139Y-73246638D01*
X142016836Y-73279515D01*
X142086830Y-73285638D01*
X142183211Y-73294071D01*
X142183213Y-73294071D01*
X142204603Y-73295942D01*
X142208579Y-73297234D01*
X142223025Y-73292540D01*
X142237927Y-73292966D01*
X142244037Y-73292088D01*
X149192741Y-73292088D01*
X149192741Y-73292507D01*
X149193535Y-73292346D01*
X149208579Y-73297234D01*
X149212555Y-73295942D01*
X149400322Y-73279515D01*
X149523019Y-73246638D01*
X149580928Y-73231122D01*
X149580930Y-73231121D01*
X149586238Y-73229699D01*
X149591220Y-73227376D01*
X149755699Y-73150678D01*
X149755702Y-73150676D01*
X149760680Y-73148355D01*
X149918347Y-73037956D01*
X150054447Y-72901856D01*
X150164846Y-72744189D01*
X150246190Y-72569747D01*
X150296006Y-72383831D01*
X150302129Y-72313837D01*
X150310562Y-72217456D01*
X150310562Y-72217454D01*
X150312433Y-72196064D01*
X150313725Y-72192088D01*
X166103433Y-72192088D01*
X166104725Y-72196064D01*
X166121152Y-72383831D01*
X166170968Y-72569747D01*
X166252312Y-72744189D01*
X166362711Y-72901856D01*
X166498811Y-73037956D01*
X166656478Y-73148355D01*
X166661456Y-73150676D01*
X166661459Y-73150678D01*
X166825938Y-73227376D01*
X166830920Y-73229699D01*
X166836228Y-73231121D01*
X166836230Y-73231122D01*
X166894139Y-73246638D01*
X167016836Y-73279515D01*
X167086830Y-73285638D01*
X167183211Y-73294071D01*
X167183213Y-73294071D01*
X167204603Y-73295942D01*
X167208579Y-73297234D01*
X167223025Y-73292540D01*
X167237927Y-73292966D01*
X167244037Y-73292088D01*
X174192741Y-73292088D01*
X174192741Y-73292507D01*
X174193535Y-73292346D01*
X174208579Y-73297234D01*
X174212555Y-73295942D01*
X174400322Y-73279515D01*
X174523019Y-73246638D01*
X174580928Y-73231122D01*
X174580930Y-73231121D01*
X174586238Y-73229699D01*
X174591220Y-73227376D01*
X174755699Y-73150678D01*
X174755702Y-73150676D01*
X174760680Y-73148355D01*
X174918347Y-73037956D01*
X175054447Y-72901856D01*
X175164846Y-72744189D01*
X175246190Y-72569747D01*
X175296006Y-72383831D01*
X175302129Y-72313837D01*
X175310562Y-72217456D01*
X175310562Y-72217454D01*
X175312433Y-72196064D01*
X175313725Y-72192088D01*
X175309031Y-72177642D01*
X175309457Y-72162740D01*
X175308579Y-72156630D01*
X175308579Y-59557926D01*
X175308998Y-59557926D01*
X175308837Y-59557132D01*
X175313725Y-59542088D01*
X175312433Y-59538112D01*
X175296006Y-59350345D01*
X175246190Y-59164429D01*
X175164846Y-58989987D01*
X175054447Y-58832320D01*
X174918347Y-58696220D01*
X174760680Y-58585821D01*
X174755702Y-58583500D01*
X174755699Y-58583498D01*
X174591220Y-58506800D01*
X174591218Y-58506799D01*
X174586238Y-58504477D01*
X174580930Y-58503055D01*
X174580928Y-58503054D01*
X174506667Y-58483156D01*
X174400322Y-58454661D01*
X174330328Y-58448538D01*
X174233947Y-58440105D01*
X174233945Y-58440105D01*
X174212555Y-58438234D01*
X174208579Y-58436942D01*
X174194133Y-58441636D01*
X174179231Y-58441210D01*
X174173121Y-58442088D01*
X172080094Y-58442088D01*
X172080094Y-58440891D01*
X172077927Y-58441284D01*
X172066475Y-58437032D01*
X172059093Y-58439098D01*
X171929945Y-58447423D01*
X171798363Y-58484655D01*
X171792473Y-58487775D01*
X171792470Y-58487776D01*
X171683414Y-58545541D01*
X171677520Y-58548663D01*
X171572796Y-58636599D01*
X171568705Y-58641860D01*
X171568701Y-58641864D01*
X171564880Y-58646778D01*
X171507273Y-58688274D01*
X171436376Y-58692037D01*
X171382621Y-58662040D01*
X171381337Y-58660118D01*
X171297849Y-58604332D01*
X171285680Y-58601912D01*
X171285679Y-58601911D01*
X171211538Y-58587164D01*
X171199367Y-58584743D01*
X171187196Y-58587164D01*
X171113055Y-58601911D01*
X171113054Y-58601912D01*
X171100885Y-58604332D01*
X171090568Y-58611226D01*
X171090565Y-58611227D01*
X171019370Y-58658799D01*
X170951617Y-58680015D01*
X170879364Y-58658799D01*
X170808169Y-58611227D01*
X170808166Y-58611226D01*
X170797849Y-58604332D01*
X170785680Y-58601912D01*
X170785679Y-58601911D01*
X170711538Y-58587164D01*
X170699367Y-58584743D01*
X170687196Y-58587164D01*
X170613055Y-58601911D01*
X170613054Y-58601912D01*
X170600885Y-58604332D01*
X170590568Y-58611226D01*
X170590565Y-58611227D01*
X170519370Y-58658799D01*
X170451617Y-58680015D01*
X170379364Y-58658799D01*
X170308169Y-58611227D01*
X170308166Y-58611226D01*
X170297849Y-58604332D01*
X170285680Y-58601912D01*
X170285679Y-58601911D01*
X170211538Y-58587164D01*
X170199367Y-58584743D01*
X170187196Y-58587164D01*
X170113055Y-58601911D01*
X170113054Y-58601912D01*
X170100885Y-58604332D01*
X170090569Y-58611225D01*
X170044380Y-58642088D01*
X170017397Y-58660118D01*
X170015658Y-58657516D01*
X169970448Y-58682203D01*
X169899633Y-58677138D01*
X169852916Y-58646493D01*
X169848451Y-58641858D01*
X169844362Y-58636599D01*
X169839256Y-58632311D01*
X169744747Y-58552953D01*
X169739638Y-58548663D01*
X169733744Y-58545541D01*
X169624688Y-58487776D01*
X169624685Y-58487775D01*
X169618795Y-58484655D01*
X169487213Y-58447423D01*
X169432155Y-58443874D01*
X169376263Y-58440271D01*
X169358065Y-58439098D01*
X169350683Y-58437032D01*
X169337443Y-58441947D01*
X169337064Y-58441841D01*
X169337064Y-58442088D01*
X167224417Y-58442088D01*
X167224417Y-58441669D01*
X167223623Y-58441830D01*
X167208579Y-58436942D01*
X167204603Y-58438234D01*
X167016836Y-58454661D01*
X166910491Y-58483156D01*
X166836230Y-58503054D01*
X166836228Y-58503055D01*
X166830920Y-58504477D01*
X166825940Y-58506799D01*
X166825938Y-58506800D01*
X166661459Y-58583498D01*
X166661456Y-58583500D01*
X166656478Y-58585821D01*
X166498811Y-58696220D01*
X166362711Y-58832320D01*
X166252312Y-58989987D01*
X166170968Y-59164429D01*
X166121152Y-59350345D01*
X166120673Y-59355824D01*
X166106596Y-59516720D01*
X166106596Y-59516722D01*
X166104725Y-59538112D01*
X166103433Y-59542088D01*
X166108127Y-59556534D01*
X166107701Y-59571436D01*
X166108579Y-59577546D01*
X166108579Y-72176250D01*
X166108160Y-72176250D01*
X166108321Y-72177044D01*
X166103433Y-72192088D01*
X150313725Y-72192088D01*
X150309031Y-72177642D01*
X150309457Y-72162740D01*
X150308579Y-72156630D01*
X150308579Y-59557926D01*
X150308998Y-59557926D01*
X150308837Y-59557132D01*
X150313725Y-59542088D01*
X150312433Y-59538112D01*
X150296006Y-59350345D01*
X150246190Y-59164429D01*
X150164846Y-58989987D01*
X150054447Y-58832320D01*
X149918347Y-58696220D01*
X149760680Y-58585821D01*
X149755702Y-58583500D01*
X149755699Y-58583498D01*
X149591220Y-58506800D01*
X149591218Y-58506799D01*
X149586238Y-58504477D01*
X149580930Y-58503055D01*
X149580928Y-58503054D01*
X149506667Y-58483156D01*
X149400322Y-58454661D01*
X149330328Y-58448538D01*
X149233947Y-58440105D01*
X149233945Y-58440105D01*
X149212555Y-58438234D01*
X149208579Y-58436942D01*
X149194133Y-58441636D01*
X149179231Y-58441210D01*
X149173121Y-58442088D01*
X147080094Y-58442088D01*
X147080094Y-58440891D01*
X147077927Y-58441284D01*
X147066475Y-58437032D01*
X147059093Y-58439098D01*
X146929945Y-58447423D01*
X146798363Y-58484655D01*
X146792473Y-58487775D01*
X146792470Y-58487776D01*
X146683414Y-58545541D01*
X146677520Y-58548663D01*
X146572796Y-58636599D01*
X146568705Y-58641860D01*
X146568701Y-58641864D01*
X146564880Y-58646778D01*
X146507273Y-58688274D01*
X146436376Y-58692037D01*
X146382621Y-58662040D01*
X146381337Y-58660118D01*
X146297849Y-58604332D01*
X146285680Y-58601912D01*
X146285679Y-58601911D01*
X146211538Y-58587164D01*
X146199367Y-58584743D01*
X146187196Y-58587164D01*
X146113055Y-58601911D01*
X146113054Y-58601912D01*
X146100885Y-58604332D01*
X146090568Y-58611226D01*
X146090565Y-58611227D01*
X146019370Y-58658799D01*
X145951617Y-58680015D01*
X145879364Y-58658799D01*
X145808169Y-58611227D01*
X145808166Y-58611226D01*
X145797849Y-58604332D01*
X145785680Y-58601912D01*
X145785679Y-58601911D01*
X145711538Y-58587164D01*
X145699367Y-58584743D01*
X145687196Y-58587164D01*
X145613055Y-58601911D01*
X145613054Y-58601912D01*
X145600885Y-58604332D01*
X145590568Y-58611226D01*
X145590565Y-58611227D01*
X145519370Y-58658799D01*
X145451617Y-58680015D01*
X145379364Y-58658799D01*
X145308169Y-58611227D01*
X145308166Y-58611226D01*
X145297849Y-58604332D01*
X145285680Y-58601912D01*
X145285679Y-58601911D01*
X145211538Y-58587164D01*
X145199367Y-58584743D01*
X145187196Y-58587164D01*
X145113055Y-58601911D01*
X145113054Y-58601912D01*
X145100885Y-58604332D01*
X145090569Y-58611225D01*
X145044380Y-58642088D01*
X145017397Y-58660118D01*
X145015658Y-58657516D01*
X144970448Y-58682203D01*
X144899633Y-58677138D01*
X144852916Y-58646493D01*
X144848451Y-58641858D01*
X144844362Y-58636599D01*
X144839256Y-58632311D01*
X144744747Y-58552953D01*
X144739638Y-58548663D01*
X144733744Y-58545541D01*
X144624688Y-58487776D01*
X144624685Y-58487775D01*
X144618795Y-58484655D01*
X144487213Y-58447423D01*
X144432155Y-58443874D01*
X144376263Y-58440271D01*
X144358065Y-58439098D01*
X144350683Y-58437032D01*
X144337443Y-58441947D01*
X144337064Y-58441841D01*
X144337064Y-58442088D01*
X142224417Y-58442088D01*
X142224417Y-58441669D01*
X142223623Y-58441830D01*
X142208579Y-58436942D01*
X142204603Y-58438234D01*
X142016836Y-58454661D01*
X141910491Y-58483156D01*
X141836230Y-58503054D01*
X141836228Y-58503055D01*
X141830920Y-58504477D01*
X141825940Y-58506799D01*
X141825938Y-58506800D01*
X141661459Y-58583498D01*
X141661456Y-58583500D01*
X141656478Y-58585821D01*
X141498811Y-58696220D01*
X141362711Y-58832320D01*
X141252312Y-58989987D01*
X141170968Y-59164429D01*
X141121152Y-59350345D01*
X141120673Y-59355824D01*
X141106596Y-59516720D01*
X141106596Y-59516722D01*
X141104725Y-59538112D01*
X141103433Y-59542088D01*
X141108127Y-59556534D01*
X141107701Y-59571436D01*
X141108579Y-59577546D01*
X141108579Y-72176250D01*
X141108160Y-72176250D01*
X141108321Y-72177044D01*
X141103433Y-72192088D01*
X125313725Y-72192088D01*
X125309031Y-72177642D01*
X125309457Y-72162740D01*
X125308579Y-72156630D01*
X125308579Y-59557926D01*
X125308998Y-59557926D01*
X125308837Y-59557132D01*
X125313725Y-59542088D01*
X125312433Y-59538112D01*
X125296006Y-59350345D01*
X125246190Y-59164429D01*
X125164846Y-58989987D01*
X125054447Y-58832320D01*
X124918347Y-58696220D01*
X124760680Y-58585821D01*
X124755702Y-58583500D01*
X124755699Y-58583498D01*
X124591220Y-58506800D01*
X124591218Y-58506799D01*
X124586238Y-58504477D01*
X124580930Y-58503055D01*
X124580928Y-58503054D01*
X124506667Y-58483156D01*
X124400322Y-58454661D01*
X124330328Y-58448538D01*
X124233947Y-58440105D01*
X124233945Y-58440105D01*
X124212555Y-58438234D01*
X124208579Y-58436942D01*
X124194133Y-58441636D01*
X124179231Y-58441210D01*
X124173121Y-58442088D01*
X122080094Y-58442088D01*
X122080094Y-58440891D01*
X122077927Y-58441284D01*
X122066475Y-58437032D01*
X122059093Y-58439098D01*
X121929945Y-58447423D01*
X121798363Y-58484655D01*
X121792473Y-58487775D01*
X121792470Y-58487776D01*
X121683414Y-58545541D01*
X121677520Y-58548663D01*
X121572796Y-58636599D01*
X121568705Y-58641860D01*
X121568701Y-58641864D01*
X121564880Y-58646778D01*
X121507273Y-58688274D01*
X121436376Y-58692037D01*
X121382621Y-58662040D01*
X121381337Y-58660118D01*
X121297849Y-58604332D01*
X121285680Y-58601912D01*
X121285679Y-58601911D01*
X121211538Y-58587164D01*
X121199367Y-58584743D01*
X121187196Y-58587164D01*
X121113055Y-58601911D01*
X121113054Y-58601912D01*
X121100885Y-58604332D01*
X121090568Y-58611226D01*
X121090565Y-58611227D01*
X121019370Y-58658799D01*
X120951617Y-58680015D01*
X120879364Y-58658799D01*
X120808169Y-58611227D01*
X120808166Y-58611226D01*
X120797849Y-58604332D01*
X120785680Y-58601912D01*
X120785679Y-58601911D01*
X120711538Y-58587164D01*
X120699367Y-58584743D01*
X120687196Y-58587164D01*
X120613055Y-58601911D01*
X120613054Y-58601912D01*
X120600885Y-58604332D01*
X120590568Y-58611226D01*
X120590565Y-58611227D01*
X120519370Y-58658799D01*
X120451617Y-58680015D01*
X120379364Y-58658799D01*
X120308169Y-58611227D01*
X120308166Y-58611226D01*
X120297849Y-58604332D01*
X120285680Y-58601912D01*
X120285679Y-58601911D01*
X120211538Y-58587164D01*
X120199367Y-58584743D01*
X120187196Y-58587164D01*
X120113055Y-58601911D01*
X120113054Y-58601912D01*
X120100885Y-58604332D01*
X120090569Y-58611225D01*
X120044380Y-58642088D01*
X120017397Y-58660118D01*
X120015658Y-58657516D01*
X119970448Y-58682203D01*
X119899633Y-58677138D01*
X119852916Y-58646493D01*
X119848451Y-58641858D01*
X119844362Y-58636599D01*
X119839256Y-58632311D01*
X119744747Y-58552953D01*
X119739638Y-58548663D01*
X119733744Y-58545541D01*
X119624688Y-58487776D01*
X119624685Y-58487775D01*
X119618795Y-58484655D01*
X119487213Y-58447423D01*
X119432155Y-58443874D01*
X119376263Y-58440271D01*
X119358065Y-58439098D01*
X119350683Y-58437032D01*
X119337443Y-58441947D01*
X119337064Y-58441841D01*
X119337064Y-58442088D01*
X117224417Y-58442088D01*
X117224417Y-58441669D01*
X117223623Y-58441830D01*
X117208579Y-58436942D01*
X117204603Y-58438234D01*
X117016836Y-58454661D01*
X116910491Y-58483156D01*
X116836230Y-58503054D01*
X116836228Y-58503055D01*
X116830920Y-58504477D01*
X116825940Y-58506799D01*
X116825938Y-58506800D01*
X116661459Y-58583498D01*
X116661456Y-58583500D01*
X116656478Y-58585821D01*
X116498811Y-58696220D01*
X116362711Y-58832320D01*
X116252312Y-58989987D01*
X116170968Y-59164429D01*
X116121152Y-59350345D01*
X116120673Y-59355824D01*
X116106596Y-59516720D01*
X116106596Y-59516722D01*
X116104725Y-59538112D01*
X116103433Y-59542088D01*
X116108127Y-59556534D01*
X116107701Y-59571436D01*
X116108579Y-59577546D01*
X116108579Y-72176250D01*
X116108160Y-72176250D01*
X116108321Y-72177044D01*
X116103433Y-72192088D01*
X100313725Y-72192088D01*
X100309031Y-72177642D01*
X100309457Y-72162740D01*
X100308579Y-72156630D01*
X100308579Y-59557926D01*
X100308998Y-59557926D01*
X100308837Y-59557132D01*
X100313725Y-59542088D01*
X100312433Y-59538112D01*
X100296006Y-59350345D01*
X100246190Y-59164429D01*
X100164846Y-58989987D01*
X100054447Y-58832320D01*
X99918347Y-58696220D01*
X99760680Y-58585821D01*
X99755702Y-58583500D01*
X99755699Y-58583498D01*
X99591220Y-58506800D01*
X99591218Y-58506799D01*
X99586238Y-58504477D01*
X99580930Y-58503055D01*
X99580928Y-58503054D01*
X99506667Y-58483156D01*
X99400322Y-58454661D01*
X99330328Y-58448538D01*
X99233947Y-58440105D01*
X99233945Y-58440105D01*
X99212555Y-58438234D01*
X99208579Y-58436942D01*
X99194133Y-58441636D01*
X99179231Y-58441210D01*
X99173121Y-58442088D01*
X97080094Y-58442088D01*
X97080094Y-58440891D01*
X97077927Y-58441284D01*
X97066475Y-58437032D01*
X97059093Y-58439098D01*
X96929945Y-58447423D01*
X96803662Y-58483156D01*
X96803660Y-58483156D01*
X96798363Y-58484655D01*
X96798235Y-58484203D01*
X96757392Y-58492088D01*
X94659766Y-58492088D01*
X94618923Y-58484203D01*
X94618795Y-58484655D01*
X94613498Y-58483156D01*
X94613496Y-58483156D01*
X94487213Y-58447423D01*
X94432155Y-58443874D01*
X94376263Y-58440271D01*
X94358065Y-58439098D01*
X94350683Y-58437032D01*
X94337443Y-58441947D01*
X94337064Y-58441841D01*
X94337064Y-58442088D01*
X92224417Y-58442088D01*
X92224417Y-58441669D01*
X92223623Y-58441830D01*
X92208579Y-58436942D01*
X92204603Y-58438234D01*
X92016836Y-58454661D01*
X91910491Y-58483156D01*
X91836230Y-58503054D01*
X91836228Y-58503055D01*
X91830920Y-58504477D01*
X91825940Y-58506799D01*
X91825938Y-58506800D01*
X91661459Y-58583498D01*
X91661456Y-58583500D01*
X91656478Y-58585821D01*
X91498811Y-58696220D01*
X91362711Y-58832320D01*
X91252312Y-58989987D01*
X91170968Y-59164429D01*
X91121152Y-59350345D01*
X91120673Y-59355824D01*
X91106596Y-59516720D01*
X91106596Y-59516722D01*
X91104725Y-59538112D01*
X91103433Y-59542088D01*
X91108127Y-59556534D01*
X91107701Y-59571436D01*
X91108579Y-59577546D01*
X91108579Y-72176250D01*
X91108160Y-72176250D01*
X91108321Y-72177044D01*
X91103433Y-72192088D01*
X70600000Y-72192088D01*
X70600000Y-40688113D01*
X72094527Y-40688113D01*
X72113162Y-41055971D01*
X72113699Y-41059326D01*
X72113700Y-41059332D01*
X72154038Y-41311170D01*
X72171416Y-41419665D01*
X72268608Y-41774941D01*
X72403602Y-42117642D01*
X72574817Y-42443759D01*
X72576718Y-42446588D01*
X72576724Y-42446598D01*
X72761707Y-42721879D01*
X72780252Y-42749477D01*
X73017502Y-43031221D01*
X73120006Y-43129176D01*
X73281329Y-43283341D01*
X73281336Y-43283347D01*
X73283792Y-43285694D01*
X73576008Y-43509919D01*
X73890731Y-43701274D01*
X74224279Y-43857519D01*
X74227497Y-43858621D01*
X74227500Y-43858622D01*
X74569528Y-43975725D01*
X74569536Y-43975727D01*
X74572751Y-43976828D01*
X74932070Y-44057804D01*
X75015002Y-44067253D01*
X75294650Y-44099115D01*
X75294658Y-44099115D01*
X75298033Y-44099500D01*
X75301437Y-44099518D01*
X75301440Y-44099518D01*
X75501074Y-44100563D01*
X75666358Y-44101428D01*
X75669744Y-44101078D01*
X75669746Y-44101078D01*
X76029345Y-44063918D01*
X76029354Y-44063917D01*
X76032737Y-44063567D01*
X76036070Y-44062853D01*
X76036073Y-44062852D01*
X76213488Y-44024817D01*
X76392884Y-43986358D01*
X76742586Y-43870705D01*
X77077752Y-43717961D01*
X77174965Y-43660240D01*
X77391516Y-43531662D01*
X77391521Y-43531659D01*
X77394461Y-43529913D01*
X77421091Y-43509919D01*
X77686276Y-43310812D01*
X77689009Y-43308760D01*
X77957950Y-43057089D01*
X78198138Y-42777846D01*
X78215838Y-42752093D01*
X78404831Y-42477104D01*
X78406762Y-42474295D01*
X78408374Y-42471301D01*
X78408379Y-42471293D01*
X78579761Y-42153001D01*
X78581383Y-42149989D01*
X78719958Y-41808720D01*
X78820865Y-41454482D01*
X78882925Y-41091418D01*
X78884888Y-41059332D01*
X78905301Y-40725572D01*
X78905411Y-40723775D01*
X78905494Y-40700000D01*
X78904850Y-40688113D01*
X187094527Y-40688113D01*
X187113162Y-41055971D01*
X187113699Y-41059326D01*
X187113700Y-41059332D01*
X187154038Y-41311170D01*
X187171416Y-41419665D01*
X187268608Y-41774941D01*
X187403602Y-42117642D01*
X187574817Y-42443759D01*
X187576718Y-42446588D01*
X187576724Y-42446598D01*
X187761707Y-42721879D01*
X187780252Y-42749477D01*
X188017502Y-43031221D01*
X188120006Y-43129176D01*
X188281329Y-43283341D01*
X188281336Y-43283347D01*
X188283792Y-43285694D01*
X188576008Y-43509919D01*
X188890731Y-43701274D01*
X189224279Y-43857519D01*
X189227497Y-43858621D01*
X189227500Y-43858622D01*
X189569528Y-43975725D01*
X189569536Y-43975727D01*
X189572751Y-43976828D01*
X189932070Y-44057804D01*
X190015002Y-44067253D01*
X190294650Y-44099115D01*
X190294658Y-44099115D01*
X190298033Y-44099500D01*
X190301437Y-44099518D01*
X190301440Y-44099518D01*
X190501074Y-44100563D01*
X190666358Y-44101428D01*
X190669744Y-44101078D01*
X190669746Y-44101078D01*
X191029345Y-44063918D01*
X191029354Y-44063917D01*
X191032737Y-44063567D01*
X191036070Y-44062853D01*
X191036073Y-44062852D01*
X191213488Y-44024817D01*
X191392884Y-43986358D01*
X191742586Y-43870705D01*
X192077752Y-43717961D01*
X192174965Y-43660240D01*
X192391516Y-43531662D01*
X192391521Y-43531659D01*
X192394461Y-43529913D01*
X192421091Y-43509919D01*
X192686276Y-43310812D01*
X192689009Y-43308760D01*
X192957950Y-43057089D01*
X193198138Y-42777846D01*
X193215838Y-42752093D01*
X193404831Y-42477104D01*
X193406762Y-42474295D01*
X193408374Y-42471301D01*
X193408379Y-42471293D01*
X193579761Y-42153001D01*
X193581383Y-42149989D01*
X193719958Y-41808720D01*
X193820865Y-41454482D01*
X193882925Y-41091418D01*
X193884888Y-41059332D01*
X193905301Y-40725572D01*
X193905411Y-40723775D01*
X193905494Y-40700000D01*
X193885575Y-40332209D01*
X193826052Y-39968720D01*
X193727620Y-39613786D01*
X193724443Y-39605801D01*
X193592690Y-39274722D01*
X193591431Y-39271558D01*
X193561358Y-39214760D01*
X193420677Y-38949060D01*
X193420673Y-38949053D01*
X193419078Y-38946041D01*
X193212578Y-38641041D01*
X192974346Y-38360128D01*
X192707168Y-38106586D01*
X192414172Y-37883382D01*
X192411260Y-37881625D01*
X192411255Y-37881622D01*
X192101705Y-37694889D01*
X192101696Y-37694884D01*
X192098783Y-37693127D01*
X192095693Y-37691693D01*
X192095688Y-37691690D01*
X191931737Y-37615587D01*
X191764691Y-37538047D01*
X191761466Y-37536955D01*
X191761460Y-37536953D01*
X191419032Y-37421048D01*
X191419027Y-37421047D01*
X191415805Y-37419956D01*
X191181920Y-37368104D01*
X191059536Y-37340972D01*
X191059532Y-37340971D01*
X191056206Y-37340234D01*
X190906624Y-37323720D01*
X190693482Y-37300189D01*
X190693475Y-37300189D01*
X190690100Y-37299816D01*
X190686701Y-37299810D01*
X190686700Y-37299810D01*
X190512979Y-37299507D01*
X190321770Y-37299173D01*
X190184556Y-37313837D01*
X189958910Y-37337951D01*
X189958904Y-37337952D01*
X189955526Y-37338313D01*
X189595650Y-37416779D01*
X189246354Y-37533652D01*
X189243261Y-37535075D01*
X189243260Y-37535075D01*
X189233674Y-37539484D01*
X188911723Y-37687565D01*
X188908789Y-37689321D01*
X188908787Y-37689322D01*
X188814763Y-37745594D01*
X188595672Y-37876718D01*
X188301898Y-38098897D01*
X188033837Y-38351505D01*
X187794626Y-38631585D01*
X187792698Y-38634412D01*
X187792696Y-38634414D01*
X187786251Y-38643862D01*
X187587062Y-38935862D01*
X187413574Y-39260776D01*
X187412299Y-39263948D01*
X187412297Y-39263952D01*
X187409240Y-39271558D01*
X187276192Y-39602526D01*
X187176521Y-39957115D01*
X187175959Y-39960472D01*
X187175959Y-39960473D01*
X187174015Y-39972093D01*
X187115729Y-40320393D01*
X187094527Y-40688113D01*
X78904850Y-40688113D01*
X78885575Y-40332209D01*
X78826052Y-39968720D01*
X78727620Y-39613786D01*
X78724443Y-39605801D01*
X78592690Y-39274722D01*
X78591431Y-39271558D01*
X78561358Y-39214760D01*
X78420677Y-38949060D01*
X78420673Y-38949053D01*
X78419078Y-38946041D01*
X78212578Y-38641041D01*
X77974346Y-38360128D01*
X77707168Y-38106586D01*
X77414172Y-37883382D01*
X77411260Y-37881625D01*
X77411255Y-37881622D01*
X77101705Y-37694889D01*
X77101696Y-37694884D01*
X77098783Y-37693127D01*
X77095693Y-37691693D01*
X77095688Y-37691690D01*
X76931737Y-37615587D01*
X76764691Y-37538047D01*
X76761466Y-37536955D01*
X76761460Y-37536953D01*
X76419032Y-37421048D01*
X76419027Y-37421047D01*
X76415805Y-37419956D01*
X76181920Y-37368104D01*
X76059536Y-37340972D01*
X76059532Y-37340971D01*
X76056206Y-37340234D01*
X75906624Y-37323720D01*
X75693482Y-37300189D01*
X75693475Y-37300189D01*
X75690100Y-37299816D01*
X75686701Y-37299810D01*
X75686700Y-37299810D01*
X75512979Y-37299507D01*
X75321770Y-37299173D01*
X75184556Y-37313837D01*
X74958910Y-37337951D01*
X74958904Y-37337952D01*
X74955526Y-37338313D01*
X74595650Y-37416779D01*
X74246354Y-37533652D01*
X74243261Y-37535075D01*
X74243260Y-37535075D01*
X74233674Y-37539484D01*
X73911723Y-37687565D01*
X73908789Y-37689321D01*
X73908787Y-37689322D01*
X73814763Y-37745594D01*
X73595672Y-37876718D01*
X73301898Y-38098897D01*
X73033837Y-38351505D01*
X72794626Y-38631585D01*
X72792698Y-38634412D01*
X72792696Y-38634414D01*
X72786251Y-38643862D01*
X72587062Y-38935862D01*
X72413574Y-39260776D01*
X72412299Y-39263948D01*
X72412297Y-39263952D01*
X72409240Y-39271558D01*
X72276192Y-39602526D01*
X72176521Y-39957115D01*
X72175959Y-39960472D01*
X72175959Y-39960473D01*
X72174015Y-39972093D01*
X72115729Y-40320393D01*
X72094527Y-40688113D01*
X70600000Y-40688113D01*
X70600000Y-35926000D01*
X70620002Y-35857879D01*
X70673658Y-35811386D01*
X70726000Y-35800000D01*
X195274000Y-35800000D01*
X195342121Y-35820002D01*
G37*
%TD.AperFunction*%
M02*
