%FSLAX45Y45*%
G04 Gerber Fmt 4.5, Leading zero omitted, Abs format (unit mm)*
G04 Created by KiCad (PCBNEW (6.0.0)) date 2022-03-28 07:48:17*
%MOMM*%
%LPD*%
G01*
G04 APERTURE LIST*
%TA.AperFunction,Profile*%
%ADD10C,0.050000*%
%TD*%
%ADD11C,0.200000*%
G04 APERTURE END LIST*
D10*
X12320711Y-7570711D02*
X12120711Y-7570711D01*
X14220711Y-7770711D02*
X14320711Y-7770711D01*
X14820711Y-12810711D02*
G75*
G03*
X14920711Y-12710711I0J100000D01*
G01*
X14020711Y-10710711D02*
G75*
G03*
X14120711Y-10810711I100000J0D01*
G01*
X14120711Y-5440711D02*
G75*
G03*
X14020711Y-5540711I0J-100000D01*
G01*
X9820711Y-9570711D02*
X9620711Y-9570711D01*
X17220711Y-12810711D02*
X17320711Y-12810711D01*
X14220711Y-5640711D02*
X14320711Y-5640711D01*
X11820711Y-11570711D02*
X11720711Y-11570711D01*
X9320711Y-7770711D02*
G75*
G03*
X9320711Y-7570711I0J100000D01*
G01*
X16520711Y-8340711D02*
X16520711Y-8710711D01*
X14020711Y-8710711D02*
G75*
G03*
X14120711Y-8810711I100000J0D01*
G01*
X9320711Y-9570711D02*
X9220711Y-9570711D01*
X17320711Y-11570711D02*
X17120711Y-11570711D01*
X9820711Y-8810711D02*
G75*
G03*
X9920711Y-8710711I0J100000D01*
G01*
X17220711Y-10810711D02*
X17320711Y-10810711D01*
X9720711Y-8810711D02*
X9820711Y-8810711D01*
X12220711Y-6210711D02*
X11720711Y-6210711D01*
X12220711Y-11770711D02*
X12220711Y-12340711D01*
X9020711Y-9670711D02*
X9020711Y-10340711D01*
X11620711Y-9570711D02*
G75*
G03*
X11520711Y-9670711I0J-100000D01*
G01*
X16520711Y-7670711D02*
X16520711Y-8340711D01*
X16720711Y-9770711D02*
X16820711Y-9770711D01*
X9220711Y-12340711D02*
X9220711Y-11770711D01*
X14220711Y-12340711D02*
X14220711Y-11770711D01*
X17420711Y-12710711D02*
X17420711Y-11670711D01*
X11985951Y-9755711D02*
G75*
G03*
X11985951Y-9755711I-15240J0D01*
G01*
X14435951Y-5625711D02*
G75*
G03*
X14435951Y-5625711I-15240J0D01*
G01*
X11985951Y-7755711D02*
G75*
G03*
X11985951Y-7755711I-15240J0D01*
G01*
X17420711Y-9670711D02*
G75*
G03*
X17320711Y-9570711I-100000J0D01*
G01*
X9020711Y-6580711D02*
G75*
G03*
X9120711Y-6680711I100000J0D01*
G01*
X16720711Y-9570711D02*
X16620711Y-9570711D01*
X14120711Y-6680711D02*
X14720711Y-6680711D01*
X9020711Y-8710711D02*
G75*
G03*
X9120711Y-8810711I100000J0D01*
G01*
X14720711Y-7770711D02*
X14620711Y-7770711D01*
X11520711Y-6580711D02*
G75*
G03*
X11620711Y-6680711I100000J0D01*
G01*
X16720711Y-7770711D02*
X16820711Y-7770711D01*
X17000711Y-10020711D02*
G75*
G03*
X17000711Y-10020711I-30000J0D01*
G01*
X9720711Y-9770711D02*
X9720711Y-10340711D01*
X9820711Y-12810711D02*
G75*
G03*
X9920711Y-12710711I0J100000D01*
G01*
X17000711Y-8020711D02*
G75*
G03*
X17000711Y-8020711I-30000J0D01*
G01*
X11720711Y-5640711D02*
X11820711Y-5640711D01*
X16720711Y-5640711D02*
X16820711Y-5640711D01*
X11720711Y-7570711D02*
X11620711Y-7570711D01*
X17120711Y-11570711D02*
G75*
G03*
X17120711Y-11770711I0J-100000D01*
G01*
X11820711Y-9570711D02*
X11720711Y-9570711D01*
X12220711Y-12340711D02*
X11720711Y-12340711D01*
X16820711Y-9570711D02*
X16720711Y-9570711D01*
X9485951Y-9755711D02*
G75*
G03*
X9485951Y-9755711I-15240J0D01*
G01*
X14920711Y-9670711D02*
G75*
G03*
X14820711Y-9570711I-100000J0D01*
G01*
X14820711Y-11570711D02*
X14620711Y-11570711D01*
X9220711Y-9770711D02*
X9320711Y-9770711D01*
X12320711Y-6680711D02*
G75*
G03*
X12420711Y-6580711I0J100000D01*
G01*
X14485951Y-7755711D02*
G75*
G03*
X14485951Y-7755711I-15240J0D01*
G01*
X14320711Y-11770711D02*
G75*
G03*
X14320711Y-11570711I0J100000D01*
G01*
X11620711Y-11570711D02*
G75*
G03*
X11520711Y-11670711I0J-100000D01*
G01*
X17035951Y-11755711D02*
G75*
G03*
X17035951Y-11755711I-15240J0D01*
G01*
X11520711Y-11670711D02*
X11520711Y-12340711D01*
X12000711Y-8020711D02*
G75*
G03*
X12000711Y-8020711I-30000J0D01*
G01*
X9020711Y-5540711D02*
X9020711Y-6210711D01*
X14485951Y-11755711D02*
G75*
G03*
X14485951Y-11755711I-15240J0D01*
G01*
X9485951Y-7755711D02*
G75*
G03*
X9485951Y-7755711I-15240J0D01*
G01*
X17320711Y-7570711D02*
X17120711Y-7570711D01*
X14820711Y-6680711D02*
G75*
G03*
X14920711Y-6580711I0J100000D01*
G01*
X16935951Y-7755711D02*
G75*
G03*
X16935951Y-7755711I-15240J0D01*
G01*
X11820711Y-5440711D02*
X11720711Y-5440711D01*
X11720711Y-5440711D02*
X11620711Y-5440711D01*
X17420711Y-6580711D02*
X17420711Y-5540711D01*
X9120711Y-7570711D02*
G75*
G03*
X9020711Y-7670711I0J-100000D01*
G01*
X16520711Y-6210711D02*
X16520711Y-6580711D01*
X9920711Y-12710711D02*
X9920711Y-11670711D01*
X17420711Y-5540711D02*
G75*
G03*
X17320711Y-5440711I-100000J0D01*
G01*
X9720711Y-6210711D02*
X9220711Y-6210711D01*
X16620711Y-11570711D02*
G75*
G03*
X16520711Y-11670711I0J-100000D01*
G01*
X14020711Y-10340711D02*
X14020711Y-10710711D01*
X12220711Y-5640711D02*
X12120711Y-5640711D01*
X12000711Y-12020711D02*
G75*
G03*
X12000711Y-12020711I-30000J0D01*
G01*
X9720711Y-7770711D02*
X9620711Y-7770711D01*
X14220711Y-6210711D02*
X14220711Y-5640711D01*
X14120711Y-12810711D02*
X14720711Y-12810711D01*
X9620711Y-7570711D02*
G75*
G03*
X9620711Y-7770711I0J-100000D01*
G01*
X12120711Y-7570711D02*
G75*
G03*
X12120711Y-7770711I0J-100000D01*
G01*
X17220711Y-9770711D02*
X17220711Y-10340711D01*
X17220711Y-10340711D02*
X16720711Y-10340711D01*
X16620711Y-5440711D02*
G75*
G03*
X16520711Y-5540711I0J-100000D01*
G01*
X14820711Y-8810711D02*
G75*
G03*
X14920711Y-8710711I0J100000D01*
G01*
X14220711Y-7570711D02*
X14120711Y-7570711D01*
X16820711Y-5440711D02*
X16720711Y-5440711D01*
X9535951Y-7755711D02*
G75*
G03*
X9535951Y-7755711I-15240J0D01*
G01*
X16820711Y-7570711D02*
X16720711Y-7570711D01*
X9720711Y-7770711D02*
X9720711Y-8340711D01*
X9720711Y-10340711D02*
X9220711Y-10340711D01*
X11820711Y-5640711D02*
G75*
G03*
X11820711Y-5440711I0J100000D01*
G01*
X12320711Y-9570711D02*
X12120711Y-9570711D01*
X9500711Y-8020711D02*
G75*
G03*
X9500711Y-8020711I-30000J0D01*
G01*
X14720711Y-8340711D02*
X14220711Y-8340711D01*
X9020711Y-7670711D02*
X9020711Y-8340711D01*
X9220711Y-5640711D02*
X9320711Y-5640711D01*
X9720711Y-9770711D02*
X9620711Y-9770711D01*
X12320711Y-5440711D02*
X12120711Y-5440711D01*
X17120711Y-9570711D02*
G75*
G03*
X17120711Y-9770711I0J-100000D01*
G01*
X11820711Y-9770711D02*
G75*
G03*
X11820711Y-9570711I0J100000D01*
G01*
X9720711Y-5640711D02*
X9720711Y-6210711D01*
X14320711Y-7770711D02*
G75*
G03*
X14320711Y-7570711I0J100000D01*
G01*
X16720711Y-7570711D02*
X16620711Y-7570711D01*
X14485951Y-9755711D02*
G75*
G03*
X14485951Y-9755711I-15240J0D01*
G01*
X9120711Y-5440711D02*
G75*
G03*
X9020711Y-5540711I0J-100000D01*
G01*
X14720711Y-10340711D02*
X14220711Y-10340711D01*
X11620711Y-5440711D02*
G75*
G03*
X11520711Y-5540711I0J-100000D01*
G01*
X17220711Y-12340711D02*
X16720711Y-12340711D01*
X12320711Y-11570711D02*
X12120711Y-11570711D01*
X17035951Y-7755711D02*
G75*
G03*
X17035951Y-7755711I-15240J0D01*
G01*
X12220711Y-12810711D02*
X12320711Y-12810711D01*
X11620711Y-10810711D02*
X12220711Y-10810711D01*
X11620711Y-6680711D02*
X12220711Y-6680711D01*
X9220711Y-9570711D02*
X9120711Y-9570711D01*
X9020711Y-12340711D02*
X9020711Y-12710711D01*
X14920711Y-7670711D02*
G75*
G03*
X14820711Y-7570711I-100000J0D01*
G01*
X9820711Y-6680711D02*
G75*
G03*
X9920711Y-6580711I0J100000D01*
G01*
X12220711Y-9770711D02*
X12120711Y-9770711D01*
X9535951Y-11755711D02*
G75*
G03*
X9535951Y-11755711I-15240J0D01*
G01*
X16520711Y-6580711D02*
G75*
G03*
X16620711Y-6680711I100000J0D01*
G01*
X14535951Y-7755711D02*
G75*
G03*
X14535951Y-7755711I-15240J0D01*
G01*
X9220711Y-5440711D02*
X9120711Y-5440711D01*
X14220711Y-5440711D02*
X14120711Y-5440711D01*
X16520711Y-12340711D02*
X16520711Y-12710711D01*
X12320711Y-12810711D02*
G75*
G03*
X12420711Y-12710711I0J100000D01*
G01*
X9220711Y-11570711D02*
X9120711Y-11570711D01*
X17220711Y-11770711D02*
X17220711Y-12340711D01*
X16720711Y-6210711D02*
X16720711Y-5640711D01*
X16520711Y-12710711D02*
G75*
G03*
X16620711Y-12810711I100000J0D01*
G01*
X9620711Y-11570711D02*
G75*
G03*
X9620711Y-11770711I0J-100000D01*
G01*
X12220711Y-9770711D02*
X12220711Y-10340711D01*
X14020711Y-6210711D02*
X14020711Y-6580711D01*
X11720711Y-12340711D02*
X11720711Y-11770711D01*
X12120711Y-9570711D02*
G75*
G03*
X12120711Y-9770711I0J-100000D01*
G01*
X11935951Y-5625711D02*
G75*
G03*
X11935951Y-5625711I-15240J0D01*
G01*
X17220711Y-8810711D02*
X17320711Y-8810711D01*
X9120711Y-9570711D02*
G75*
G03*
X9020711Y-9670711I0J-100000D01*
G01*
X9920711Y-11670711D02*
G75*
G03*
X9820711Y-11570711I-100000J0D01*
G01*
X9435951Y-5625711D02*
G75*
G03*
X9435951Y-5625711I-15240J0D01*
G01*
X14500711Y-12020711D02*
G75*
G03*
X14500711Y-12020711I-30000J0D01*
G01*
X11985951Y-11755711D02*
G75*
G03*
X11985951Y-11755711I-15240J0D01*
G01*
X14120711Y-10810711D02*
X14720711Y-10810711D01*
X11620711Y-7570711D02*
G75*
G03*
X11520711Y-7670711I0J-100000D01*
G01*
X14920711Y-6580711D02*
X14920711Y-5540711D01*
X11520711Y-10340711D02*
X11520711Y-10710711D01*
X14720711Y-12340711D02*
X14220711Y-12340711D01*
X12035951Y-5625711D02*
G75*
G03*
X12035951Y-5625711I-15240J0D01*
G01*
X14820711Y-9570711D02*
X14620711Y-9570711D01*
X9720711Y-12810711D02*
X9820711Y-12810711D01*
X16520711Y-11670711D02*
X16520711Y-12340711D01*
X9020711Y-11670711D02*
X9020711Y-12340711D01*
X16985951Y-5625711D02*
G75*
G03*
X16985951Y-5625711I-15240J0D01*
G01*
X12220711Y-5640711D02*
X12220711Y-6210711D01*
X14720711Y-11770711D02*
X14620711Y-11770711D01*
X12120711Y-5440711D02*
G75*
G03*
X12120711Y-5640711I0J-100000D01*
G01*
X11820711Y-11770711D02*
G75*
G03*
X11820711Y-11570711I0J100000D01*
G01*
X17220711Y-8340711D02*
X16720711Y-8340711D01*
X14720711Y-5640711D02*
X14720711Y-6210711D01*
X14820711Y-5440711D02*
X14620711Y-5440711D01*
X9320711Y-7570711D02*
X9220711Y-7570711D01*
X9820711Y-5440711D02*
X9620711Y-5440711D01*
X17320711Y-10810711D02*
G75*
G03*
X17420711Y-10710711I0J100000D01*
G01*
X9320711Y-9770711D02*
G75*
G03*
X9320711Y-9570711I0J100000D01*
G01*
X12220711Y-11770711D02*
X12120711Y-11770711D01*
X11720711Y-8340711D02*
X11720711Y-7770711D01*
X7050000Y-3570000D02*
X19550000Y-3570000D01*
X19550000Y-3570000D02*
X19550000Y-14570000D01*
X19550000Y-14570000D02*
X7050000Y-14570000D01*
X7050000Y-14570000D02*
X7050000Y-3570000D01*
X17000711Y-5890711D02*
G75*
G03*
X17000711Y-5890711I-30000J0D01*
G01*
X11820711Y-7570711D02*
X11720711Y-7570711D01*
X14720711Y-9770711D02*
X14620711Y-9770711D01*
X9820711Y-11570711D02*
X9620711Y-11570711D01*
X9120711Y-11570711D02*
G75*
G03*
X9020711Y-11670711I0J-100000D01*
G01*
X14720711Y-9770711D02*
X14720711Y-10340711D01*
X9485951Y-11755711D02*
G75*
G03*
X9485951Y-11755711I-15240J0D01*
G01*
X17000711Y-12020711D02*
G75*
G03*
X17000711Y-12020711I-30000J0D01*
G01*
X14485951Y-5625711D02*
G75*
G03*
X14485951Y-5625711I-15240J0D01*
G01*
X9120711Y-10810711D02*
X9720711Y-10810711D01*
X9220711Y-7770711D02*
X9320711Y-7770711D01*
X14020711Y-9670711D02*
X14020711Y-10340711D01*
X16520711Y-10710711D02*
G75*
G03*
X16620711Y-10810711I100000J0D01*
G01*
X17320711Y-6680711D02*
G75*
G03*
X17420711Y-6580711I0J100000D01*
G01*
X14920711Y-11670711D02*
G75*
G03*
X14820711Y-11570711I-100000J0D01*
G01*
X9020711Y-12710711D02*
G75*
G03*
X9120711Y-12810711I100000J0D01*
G01*
X14020711Y-12710711D02*
G75*
G03*
X14120711Y-12810711I100000J0D01*
G01*
X9020711Y-6210711D02*
X9020711Y-6580711D01*
X14220711Y-11570711D02*
X14120711Y-11570711D01*
X16620711Y-7570711D02*
G75*
G03*
X16520711Y-7670711I0J-100000D01*
G01*
X17220711Y-7770711D02*
X17220711Y-8340711D01*
X16985951Y-11755711D02*
G75*
G03*
X16985951Y-11755711I-15240J0D01*
G01*
X17220711Y-7770711D02*
X17120711Y-7770711D01*
X17420711Y-11670711D02*
G75*
G03*
X17320711Y-11570711I-100000J0D01*
G01*
X16985951Y-9755711D02*
G75*
G03*
X16985951Y-9755711I-15240J0D01*
G01*
X14720711Y-11770711D02*
X14720711Y-12340711D01*
X12120711Y-11570711D02*
G75*
G03*
X12120711Y-11770711I0J-100000D01*
G01*
X14320711Y-9570711D02*
X14220711Y-9570711D01*
X14720711Y-5640711D02*
X14620711Y-5640711D01*
X14120711Y-9570711D02*
G75*
G03*
X14020711Y-9670711I0J-100000D01*
G01*
X12420711Y-10710711D02*
X12420711Y-9670711D01*
X14535951Y-9755711D02*
G75*
G03*
X14535951Y-9755711I-15240J0D01*
G01*
X9220711Y-6210711D02*
X9220711Y-5640711D01*
X12420711Y-5540711D02*
G75*
G03*
X12320711Y-5440711I-100000J0D01*
G01*
X17320711Y-12810711D02*
G75*
G03*
X17420711Y-12710711I0J100000D01*
G01*
X16820711Y-5640711D02*
G75*
G03*
X16820711Y-5440711I0J100000D01*
G01*
X12220711Y-10810711D02*
X12320711Y-10810711D01*
X14020711Y-11670711D02*
X14020711Y-12340711D01*
X14020711Y-5540711D02*
X14020711Y-6210711D01*
X16520711Y-9670711D02*
X16520711Y-10340711D01*
X16935951Y-9755711D02*
G75*
G03*
X16935951Y-9755711I-15240J0D01*
G01*
X14920711Y-8710711D02*
X14920711Y-7670711D01*
X16620711Y-12810711D02*
X17220711Y-12810711D01*
X12420711Y-11670711D02*
G75*
G03*
X12320711Y-11570711I-100000J0D01*
G01*
X11520711Y-10710711D02*
G75*
G03*
X11620711Y-10810711I100000J0D01*
G01*
X12220711Y-8340711D02*
X11720711Y-8340711D01*
X14120711Y-8810711D02*
X14720711Y-8810711D01*
X14535951Y-11755711D02*
G75*
G03*
X14535951Y-11755711I-15240J0D01*
G01*
X17420711Y-7670711D02*
G75*
G03*
X17320711Y-7570711I-100000J0D01*
G01*
X9435951Y-9755711D02*
G75*
G03*
X9435951Y-9755711I-15240J0D01*
G01*
X12220711Y-7770711D02*
X12220711Y-8340711D01*
X14720711Y-12810711D02*
X14820711Y-12810711D01*
X14320711Y-5640711D02*
G75*
G03*
X14320711Y-5440711I0J100000D01*
G01*
X11935951Y-7755711D02*
G75*
G03*
X11935951Y-7755711I-15240J0D01*
G01*
X9820711Y-7570711D02*
X9620711Y-7570711D01*
X12420711Y-7670711D02*
G75*
G03*
X12320711Y-7570711I-100000J0D01*
G01*
X14720711Y-7770711D02*
X14720711Y-8340711D01*
X14220711Y-10340711D02*
X14220711Y-9770711D01*
X16620711Y-6680711D02*
X17220711Y-6680711D01*
X9120711Y-8810711D02*
X9720711Y-8810711D01*
X9435951Y-7755711D02*
G75*
G03*
X9435951Y-7755711I-15240J0D01*
G01*
X9020711Y-10710711D02*
G75*
G03*
X9120711Y-10810711I100000J0D01*
G01*
X11620711Y-12810711D02*
X12220711Y-12810711D01*
X11935951Y-9755711D02*
G75*
G03*
X11935951Y-9755711I-15240J0D01*
G01*
X9920711Y-7670711D02*
G75*
G03*
X9820711Y-7570711I-100000J0D01*
G01*
X11720711Y-11770711D02*
X11820711Y-11770711D01*
X11935951Y-11755711D02*
G75*
G03*
X11935951Y-11755711I-15240J0D01*
G01*
X14120711Y-11570711D02*
G75*
G03*
X14020711Y-11670711I0J-100000D01*
G01*
X14220711Y-11770711D02*
X14320711Y-11770711D01*
X14920711Y-10710711D02*
X14920711Y-9670711D01*
X14500711Y-8020711D02*
G75*
G03*
X14500711Y-8020711I-30000J0D01*
G01*
X9320711Y-5640711D02*
G75*
G03*
X9320711Y-5440711I0J100000D01*
G01*
X17320711Y-9570711D02*
X17120711Y-9570711D01*
X16620711Y-8810711D02*
X17220711Y-8810711D01*
X14820711Y-10810711D02*
G75*
G03*
X14920711Y-10710711I0J100000D01*
G01*
X16985951Y-7755711D02*
G75*
G03*
X16985951Y-7755711I-15240J0D01*
G01*
X16620711Y-9570711D02*
G75*
G03*
X16520711Y-9670711I0J-100000D01*
G01*
X17220711Y-9770711D02*
X17120711Y-9770711D01*
X16720711Y-11770711D02*
X16820711Y-11770711D01*
X9220711Y-10340711D02*
X9220711Y-9770711D01*
X9720711Y-5640711D02*
X9620711Y-5640711D01*
X14320711Y-11570711D02*
X14220711Y-11570711D01*
X12035951Y-11755711D02*
G75*
G03*
X12035951Y-11755711I-15240J0D01*
G01*
X16720711Y-10340711D02*
X16720711Y-9770711D01*
X11720711Y-9570711D02*
X11620711Y-9570711D01*
X9435951Y-11755711D02*
G75*
G03*
X9435951Y-11755711I-15240J0D01*
G01*
X9500711Y-12020711D02*
G75*
G03*
X9500711Y-12020711I-30000J0D01*
G01*
X9020711Y-8340711D02*
X9020711Y-8710711D01*
X11520711Y-12340711D02*
X11520711Y-12710711D01*
X14720711Y-6210711D02*
X14220711Y-6210711D01*
X12220711Y-10340711D02*
X11720711Y-10340711D01*
X17220711Y-6680711D02*
X17320711Y-6680711D01*
X14435951Y-11755711D02*
G75*
G03*
X14435951Y-11755711I-15240J0D01*
G01*
X14720711Y-8810711D02*
X14820711Y-8810711D01*
X16820711Y-7770711D02*
G75*
G03*
X16820711Y-7570711I0J100000D01*
G01*
X16620711Y-10810711D02*
X17220711Y-10810711D01*
X11720711Y-11570711D02*
X11620711Y-11570711D01*
X17035951Y-5625711D02*
G75*
G03*
X17035951Y-5625711I-15240J0D01*
G01*
X9920711Y-9670711D02*
G75*
G03*
X9820711Y-9570711I-100000J0D01*
G01*
X9720711Y-8340711D02*
X9220711Y-8340711D01*
X14620711Y-9570711D02*
G75*
G03*
X14620711Y-9770711I0J-100000D01*
G01*
X14020711Y-8340711D02*
X14020711Y-8710711D01*
X14435951Y-7755711D02*
G75*
G03*
X14435951Y-7755711I-15240J0D01*
G01*
X11520711Y-9670711D02*
X11520711Y-10340711D01*
X14320711Y-5440711D02*
X14220711Y-5440711D01*
X9120711Y-12810711D02*
X9720711Y-12810711D01*
X11720711Y-10340711D02*
X11720711Y-9770711D01*
X12220711Y-7770711D02*
X12120711Y-7770711D01*
X16935951Y-5625711D02*
G75*
G03*
X16935951Y-5625711I-15240J0D01*
G01*
X17220711Y-6210711D02*
X16720711Y-6210711D01*
X14620711Y-7570711D02*
G75*
G03*
X14620711Y-7770711I0J-100000D01*
G01*
X16820711Y-9770711D02*
G75*
G03*
X16820711Y-9570711I0J100000D01*
G01*
X14020711Y-7670711D02*
X14020711Y-8340711D01*
X9320711Y-11570711D02*
X9220711Y-11570711D01*
X16720711Y-5440711D02*
X16620711Y-5440711D01*
X14020711Y-6580711D02*
G75*
G03*
X14120711Y-6680711I100000J0D01*
G01*
X16520711Y-5540711D02*
X16520711Y-6210711D01*
X9220711Y-8340711D02*
X9220711Y-7770711D01*
X9220711Y-7570711D02*
X9120711Y-7570711D01*
X12000711Y-10020711D02*
G75*
G03*
X12000711Y-10020711I-30000J0D01*
G01*
X11520711Y-12710711D02*
G75*
G03*
X11620711Y-12810711I100000J0D01*
G01*
X16935951Y-11755711D02*
G75*
G03*
X16935951Y-11755711I-15240J0D01*
G01*
X9120711Y-6680711D02*
X9720711Y-6680711D01*
X9920711Y-8710711D02*
X9920711Y-7670711D01*
X16520711Y-10340711D02*
X16520711Y-10710711D01*
X17120711Y-5440711D02*
G75*
G03*
X17120711Y-5640711I0J-100000D01*
G01*
X12220711Y-8810711D02*
X12320711Y-8810711D01*
X12035951Y-7755711D02*
G75*
G03*
X12035951Y-7755711I-15240J0D01*
G01*
X14020711Y-12340711D02*
X14020711Y-12710711D01*
X14720711Y-10810711D02*
X14820711Y-10810711D01*
X9920711Y-10710711D02*
X9920711Y-9670711D01*
X17035951Y-9755711D02*
G75*
G03*
X17035951Y-9755711I-15240J0D01*
G01*
X9720711Y-11770711D02*
X9620711Y-11770711D01*
X9500711Y-5890711D02*
G75*
G03*
X9500711Y-5890711I-30000J0D01*
G01*
X12320711Y-10810711D02*
G75*
G03*
X12420711Y-10710711I0J100000D01*
G01*
X16720711Y-11570711D02*
X16620711Y-11570711D01*
X12035951Y-9755711D02*
G75*
G03*
X12035951Y-9755711I-15240J0D01*
G01*
X17420711Y-10710711D02*
X17420711Y-9670711D01*
X11620711Y-8810711D02*
X12220711Y-8810711D01*
X9620711Y-9570711D02*
G75*
G03*
X9620711Y-9770711I0J-100000D01*
G01*
X17320711Y-8810711D02*
G75*
G03*
X17420711Y-8710711I0J100000D01*
G01*
X11520711Y-7670711D02*
X11520711Y-8340711D01*
X9220711Y-11770711D02*
X9320711Y-11770711D01*
X14720711Y-6680711D02*
X14820711Y-6680711D01*
X9320711Y-5440711D02*
X9220711Y-5440711D01*
X12420711Y-6580711D02*
X12420711Y-5540711D01*
X14620711Y-11570711D02*
G75*
G03*
X14620711Y-11770711I0J-100000D01*
G01*
X9620711Y-5440711D02*
G75*
G03*
X9620711Y-5640711I0J-100000D01*
G01*
X12420711Y-9670711D02*
G75*
G03*
X12320711Y-9570711I-100000J0D01*
G01*
X11985951Y-5625711D02*
G75*
G03*
X11985951Y-5625711I-15240J0D01*
G01*
X11520711Y-8340711D02*
X11520711Y-8710711D01*
X12420711Y-12710711D02*
X12420711Y-11670711D01*
X16820711Y-11770711D02*
G75*
G03*
X16820711Y-11570711I0J100000D01*
G01*
X9020711Y-10340711D02*
X9020711Y-10710711D01*
X9720711Y-6680711D02*
X9820711Y-6680711D01*
X14535951Y-5625711D02*
G75*
G03*
X14535951Y-5625711I-15240J0D01*
G01*
X9535951Y-5625711D02*
G75*
G03*
X9535951Y-5625711I-15240J0D01*
G01*
X14320711Y-9770711D02*
G75*
G03*
X14320711Y-9570711I0J100000D01*
G01*
X9720711Y-12340711D02*
X9220711Y-12340711D01*
X17420711Y-8710711D02*
X17420711Y-7670711D01*
X9320711Y-11770711D02*
G75*
G03*
X9320711Y-11570711I0J100000D01*
G01*
X17120711Y-7570711D02*
G75*
G03*
X17120711Y-7770711I0J-100000D01*
G01*
X9720711Y-11770711D02*
X9720711Y-12340711D01*
X14920711Y-5540711D02*
G75*
G03*
X14820711Y-5440711I-100000J0D01*
G01*
X16820711Y-11570711D02*
X16720711Y-11570711D01*
X9535951Y-9755711D02*
G75*
G03*
X9535951Y-9755711I-15240J0D01*
G01*
X12000711Y-5890711D02*
G75*
G03*
X12000711Y-5890711I-30000J0D01*
G01*
X14820711Y-7570711D02*
X14620711Y-7570711D01*
X17320711Y-5440711D02*
X17120711Y-5440711D01*
X16720711Y-12340711D02*
X16720711Y-11770711D01*
X17220711Y-11770711D02*
X17120711Y-11770711D01*
X14620711Y-5440711D02*
G75*
G03*
X14620711Y-5640711I0J-100000D01*
G01*
X14220711Y-9770711D02*
X14320711Y-9770711D01*
X16720711Y-8340711D02*
X16720711Y-7770711D01*
X12420711Y-8710711D02*
X12420711Y-7670711D01*
X9920711Y-5540711D02*
G75*
G03*
X9820711Y-5440711I-100000J0D01*
G01*
X16520711Y-8710711D02*
G75*
G03*
X16620711Y-8810711I100000J0D01*
G01*
X9720711Y-10810711D02*
X9820711Y-10810711D01*
X17220711Y-5640711D02*
X17220711Y-6210711D01*
X9485951Y-5625711D02*
G75*
G03*
X9485951Y-5625711I-15240J0D01*
G01*
X9500711Y-10020711D02*
G75*
G03*
X9500711Y-10020711I-30000J0D01*
G01*
X11720711Y-7770711D02*
X11820711Y-7770711D01*
X11820711Y-7770711D02*
G75*
G03*
X11820711Y-7570711I0J100000D01*
G01*
X9820711Y-10810711D02*
G75*
G03*
X9920711Y-10710711I0J100000D01*
G01*
X14500711Y-10020711D02*
G75*
G03*
X14500711Y-10020711I-30000J0D01*
G01*
X12320711Y-8810711D02*
G75*
G03*
X12420711Y-8710711I0J100000D01*
G01*
X11720711Y-9770711D02*
X11820711Y-9770711D01*
X11520711Y-6210711D02*
X11520711Y-6580711D01*
X12220711Y-6680711D02*
X12320711Y-6680711D01*
X11720711Y-6210711D02*
X11720711Y-5640711D01*
X14500711Y-5890711D02*
G75*
G03*
X14500711Y-5890711I-30000J0D01*
G01*
X14920711Y-12710711D02*
X14920711Y-11670711D01*
X14120711Y-7570711D02*
G75*
G03*
X14020711Y-7670711I0J-100000D01*
G01*
X11520711Y-8710711D02*
G75*
G03*
X11620711Y-8810711I100000J0D01*
G01*
X14220711Y-9570711D02*
X14120711Y-9570711D01*
X9920711Y-6580711D02*
X9920711Y-5540711D01*
X17220711Y-5640711D02*
X17120711Y-5640711D01*
X14435951Y-9755711D02*
G75*
G03*
X14435951Y-9755711I-15240J0D01*
G01*
X14220711Y-8340711D02*
X14220711Y-7770711D01*
X14320711Y-7570711D02*
X14220711Y-7570711D01*
X11520711Y-5540711D02*
X11520711Y-6210711D01*
D11*
X7305119Y-14882976D02*
X7305119Y-14682976D01*
X7352738Y-14682976D01*
X7381309Y-14692500D01*
X7400357Y-14711548D01*
X7409881Y-14730595D01*
X7419405Y-14768690D01*
X7419405Y-14797262D01*
X7409881Y-14835357D01*
X7400357Y-14854405D01*
X7381309Y-14873452D01*
X7352738Y-14882976D01*
X7305119Y-14882976D01*
X7505119Y-14882976D02*
X7505119Y-14749643D01*
X7505119Y-14787738D02*
X7514643Y-14768690D01*
X7524167Y-14759167D01*
X7543214Y-14749643D01*
X7562262Y-14749643D01*
X7628928Y-14882976D02*
X7628928Y-14749643D01*
X7628928Y-14682976D02*
X7619405Y-14692500D01*
X7628928Y-14702024D01*
X7638452Y-14692500D01*
X7628928Y-14682976D01*
X7628928Y-14702024D01*
X7752738Y-14882976D02*
X7733690Y-14873452D01*
X7724167Y-14854405D01*
X7724167Y-14682976D01*
X7857500Y-14882976D02*
X7838452Y-14873452D01*
X7828928Y-14854405D01*
X7828928Y-14682976D01*
X8086071Y-14882976D02*
X8086071Y-14682976D01*
X8152738Y-14825833D01*
X8219405Y-14682976D01*
X8219405Y-14882976D01*
X8400357Y-14882976D02*
X8400357Y-14778214D01*
X8390833Y-14759167D01*
X8371786Y-14749643D01*
X8333690Y-14749643D01*
X8314643Y-14759167D01*
X8400357Y-14873452D02*
X8381309Y-14882976D01*
X8333690Y-14882976D01*
X8314643Y-14873452D01*
X8305119Y-14854405D01*
X8305119Y-14835357D01*
X8314643Y-14816309D01*
X8333690Y-14806786D01*
X8381309Y-14806786D01*
X8400357Y-14797262D01*
X8495595Y-14749643D02*
X8495595Y-14949643D01*
X8495595Y-14759167D02*
X8514643Y-14749643D01*
X8552738Y-14749643D01*
X8571786Y-14759167D01*
X8581310Y-14768690D01*
X8590833Y-14787738D01*
X8590833Y-14844881D01*
X8581310Y-14863928D01*
X8571786Y-14873452D01*
X8552738Y-14882976D01*
X8514643Y-14882976D01*
X8495595Y-14873452D01*
X8676548Y-14863928D02*
X8686071Y-14873452D01*
X8676548Y-14882976D01*
X8667024Y-14873452D01*
X8676548Y-14863928D01*
X8676548Y-14882976D01*
X8676548Y-14759167D02*
X8686071Y-14768690D01*
X8676548Y-14778214D01*
X8667024Y-14768690D01*
X8676548Y-14759167D01*
X8676548Y-14778214D01*
M02*
