%TF.GenerationSoftware,KiCad,Pcbnew,(6.0.0)*%
%TF.CreationDate,2022-11-29T13:54:36-05:00*%
%TF.ProjectId,pupdrive-eib24_panel,70757064-7269-4766-952d-65696232345f,B*%
%TF.SameCoordinates,Original*%
%TF.FileFunction,Paste,Top*%
%TF.FilePolarity,Positive*%
%FSLAX46Y46*%
G04 Gerber Fmt 4.6, Leading zero omitted, Abs format (unit mm)*
G04 Created by KiCad (PCBNEW (6.0.0)) date 2022-11-29 13:54:36*
%MOMM*%
%LPD*%
G01*
G04 APERTURE LIST*
G04 Aperture macros list*
%AMRoundRect*
0 Rectangle with rounded corners*
0 $1 Rounding radius*
0 $2 $3 $4 $5 $6 $7 $8 $9 X,Y pos of 4 corners*
0 Add a 4 corners polygon primitive as box body*
4,1,4,$2,$3,$4,$5,$6,$7,$8,$9,$2,$3,0*
0 Add four circle primitives for the rounded corners*
1,1,$1+$1,$2,$3*
1,1,$1+$1,$4,$5*
1,1,$1+$1,$6,$7*
1,1,$1+$1,$8,$9*
0 Add four rect primitives between the rounded corners*
20,1,$1+$1,$2,$3,$4,$5,0*
20,1,$1+$1,$4,$5,$6,$7,0*
20,1,$1+$1,$6,$7,$8,$9,0*
20,1,$1+$1,$8,$9,$2,$3,0*%
G04 Aperture macros list end*
%ADD10RoundRect,0.008000X0.072000X0.212000X-0.072000X0.212000X-0.072000X-0.212000X0.072000X-0.212000X0*%
%ADD11RoundRect,0.010500X0.094500X0.229500X-0.094500X0.229500X-0.094500X-0.229500X0.094500X-0.229500X0*%
G04 APERTURE END LIST*
D10*
%TO.C,J1*%
X147633579Y-68082088D03*
X147283579Y-68082088D03*
X146933579Y-68082088D03*
X146583579Y-68082088D03*
X146233579Y-68082088D03*
X145883579Y-68082088D03*
X145533579Y-68082088D03*
X145183579Y-68082088D03*
X144833579Y-68082088D03*
X144483579Y-68082088D03*
X144133579Y-68082088D03*
X143783579Y-68082088D03*
D11*
X148008579Y-68227088D03*
X143408579Y-68227088D03*
%TD*%
D10*
%TO.C,J1*%
X172633579Y-68082088D03*
X172283579Y-68082088D03*
X171933579Y-68082088D03*
X171583579Y-68082088D03*
X171233579Y-68082088D03*
X170883579Y-68082088D03*
X170533579Y-68082088D03*
X170183579Y-68082088D03*
X169833579Y-68082088D03*
X169483579Y-68082088D03*
X169133579Y-68082088D03*
X168783579Y-68082088D03*
D11*
X173008579Y-68227088D03*
X168408579Y-68227088D03*
%TD*%
D10*
%TO.C,J1*%
X122633579Y-68082088D03*
X122283579Y-68082088D03*
X121933579Y-68082088D03*
X121583579Y-68082088D03*
X121233579Y-68082088D03*
X120883579Y-68082088D03*
X120533579Y-68082088D03*
X120183579Y-68082088D03*
X119833579Y-68082088D03*
X119483579Y-68082088D03*
X119133579Y-68082088D03*
X118783579Y-68082088D03*
D11*
X123008579Y-68227088D03*
X118408579Y-68227088D03*
%TD*%
D10*
%TO.C,J1*%
X97633579Y-68082088D03*
X97283579Y-68082088D03*
X96933579Y-68082088D03*
X96583579Y-68082088D03*
X96233579Y-68082088D03*
X95883579Y-68082088D03*
X95533579Y-68082088D03*
X95183579Y-68082088D03*
X94833579Y-68082088D03*
X94483579Y-68082088D03*
X94133579Y-68082088D03*
X93783579Y-68082088D03*
D11*
X98008579Y-68227088D03*
X93408579Y-68227088D03*
%TD*%
D10*
%TO.C,J1*%
X147633579Y-93082088D03*
X147283579Y-93082088D03*
X146933579Y-93082088D03*
X146583579Y-93082088D03*
X146233579Y-93082088D03*
X145883579Y-93082088D03*
X145533579Y-93082088D03*
X145183579Y-93082088D03*
X144833579Y-93082088D03*
X144483579Y-93082088D03*
X144133579Y-93082088D03*
X143783579Y-93082088D03*
D11*
X148008579Y-93227088D03*
X143408579Y-93227088D03*
%TD*%
D10*
%TO.C,J1*%
X172633579Y-93082088D03*
X172283579Y-93082088D03*
X171933579Y-93082088D03*
X171583579Y-93082088D03*
X171233579Y-93082088D03*
X170883579Y-93082088D03*
X170533579Y-93082088D03*
X170183579Y-93082088D03*
X169833579Y-93082088D03*
X169483579Y-93082088D03*
X169133579Y-93082088D03*
X168783579Y-93082088D03*
D11*
X173008579Y-93227088D03*
X168408579Y-93227088D03*
%TD*%
D10*
%TO.C,J1*%
X122633579Y-93082088D03*
X122283579Y-93082088D03*
X121933579Y-93082088D03*
X121583579Y-93082088D03*
X121233579Y-93082088D03*
X120883579Y-93082088D03*
X120533579Y-93082088D03*
X120183579Y-93082088D03*
X119833579Y-93082088D03*
X119483579Y-93082088D03*
X119133579Y-93082088D03*
X118783579Y-93082088D03*
D11*
X123008579Y-93227088D03*
X118408579Y-93227088D03*
%TD*%
D10*
%TO.C,J1*%
X97633579Y-93082088D03*
X97283579Y-93082088D03*
X96933579Y-93082088D03*
X96583579Y-93082088D03*
X96233579Y-93082088D03*
X95883579Y-93082088D03*
X95533579Y-93082088D03*
X95183579Y-93082088D03*
X94833579Y-93082088D03*
X94483579Y-93082088D03*
X94133579Y-93082088D03*
X93783579Y-93082088D03*
D11*
X98008579Y-93227088D03*
X93408579Y-93227088D03*
%TD*%
D10*
%TO.C,J1*%
X122633579Y-118082088D03*
X122283579Y-118082088D03*
X121933579Y-118082088D03*
X121583579Y-118082088D03*
X121233579Y-118082088D03*
X120883579Y-118082088D03*
X120533579Y-118082088D03*
X120183579Y-118082088D03*
X119833579Y-118082088D03*
X119483579Y-118082088D03*
X119133579Y-118082088D03*
X118783579Y-118082088D03*
D11*
X123008579Y-118227088D03*
X118408579Y-118227088D03*
%TD*%
D10*
%TO.C,J1*%
X172633579Y-118082088D03*
X172283579Y-118082088D03*
X171933579Y-118082088D03*
X171583579Y-118082088D03*
X171233579Y-118082088D03*
X170883579Y-118082088D03*
X170533579Y-118082088D03*
X170183579Y-118082088D03*
X169833579Y-118082088D03*
X169483579Y-118082088D03*
X169133579Y-118082088D03*
X168783579Y-118082088D03*
D11*
X173008579Y-118227088D03*
X168408579Y-118227088D03*
%TD*%
D10*
%TO.C,J1*%
X147633579Y-118082088D03*
X147283579Y-118082088D03*
X146933579Y-118082088D03*
X146583579Y-118082088D03*
X146233579Y-118082088D03*
X145883579Y-118082088D03*
X145533579Y-118082088D03*
X145183579Y-118082088D03*
X144833579Y-118082088D03*
X144483579Y-118082088D03*
X144133579Y-118082088D03*
X143783579Y-118082088D03*
D11*
X148008579Y-118227088D03*
X143408579Y-118227088D03*
%TD*%
D10*
%TO.C,J1*%
X97633579Y-118082088D03*
X97283579Y-118082088D03*
X96933579Y-118082088D03*
X96583579Y-118082088D03*
X96233579Y-118082088D03*
X95883579Y-118082088D03*
X95533579Y-118082088D03*
X95183579Y-118082088D03*
X94833579Y-118082088D03*
X94483579Y-118082088D03*
X94133579Y-118082088D03*
X93783579Y-118082088D03*
D11*
X98008579Y-118227088D03*
X93408579Y-118227088D03*
%TD*%
M02*
