%TF.GenerationSoftware,KiCad,Pcbnew,(6.0.0)*%
%TF.CreationDate,2022-03-28T07:48:23-07:00*%
%TF.ProjectId,pupdrive-eib24_panel,70757064-7269-4766-952d-65696232345f,A*%
%TF.SameCoordinates,Original*%
%TF.FileFunction,Profile,NP*%
%FSLAX46Y46*%
G04 Gerber Fmt 4.6, Leading zero omitted, Abs format (unit mm)*
G04 Created by KiCad (PCBNEW (6.0.0)) date 2022-03-28 07:48:23*
%MOMM*%
%LPD*%
G01*
G04 APERTURE LIST*
%TA.AperFunction,Profile*%
%ADD10C,0.050000*%
%TD*%
G04 APERTURE END LIST*
D10*
X123207107Y-75707107D02*
X121207107Y-75707107D01*
X142207107Y-77707107D02*
X143207107Y-77707107D01*
X148207107Y-128107107D02*
G75*
G03*
X149207107Y-127107107I1J999999D01*
G01*
X140207107Y-107107107D02*
G75*
G03*
X141207107Y-108107107I999999J-1D01*
G01*
X141207107Y-54407107D02*
G75*
G03*
X140207107Y-55407107I-1J-999999D01*
G01*
X98207107Y-95707107D02*
X96207107Y-95707107D01*
X172207107Y-128107107D02*
X173207107Y-128107107D01*
X142207107Y-56407107D02*
X143207107Y-56407107D01*
X118207107Y-115707107D02*
X117207107Y-115707107D01*
X93207107Y-77707107D02*
G75*
G03*
X93207107Y-75707107I0J1000000D01*
G01*
X165207107Y-83407107D02*
X165207107Y-87107107D01*
X140207107Y-87107107D02*
G75*
G03*
X141207107Y-88107107I999999J-1D01*
G01*
X93207107Y-95707107D02*
X92207107Y-95707107D01*
X173207107Y-115707107D02*
X171207107Y-115707107D01*
X98207107Y-88107107D02*
G75*
G03*
X99207107Y-87107107I1J999999D01*
G01*
X172207107Y-108107107D02*
X173207107Y-108107107D01*
X97207107Y-88107107D02*
X98207107Y-88107107D01*
X122207107Y-62107107D02*
X117207107Y-62107107D01*
X122207107Y-117707107D02*
X122207107Y-123407107D01*
X90207107Y-96707107D02*
X90207107Y-103407107D01*
X116207107Y-95707107D02*
G75*
G03*
X115207107Y-96707107I-1J-999999D01*
G01*
X165207107Y-76707107D02*
X165207107Y-83407107D01*
X167207107Y-97707107D02*
X168207107Y-97707107D01*
X92207107Y-123407107D02*
X92207107Y-117707107D01*
X142207107Y-123407107D02*
X142207107Y-117707107D01*
X174207107Y-127107107D02*
X174207107Y-116707107D01*
X119859507Y-97557107D02*
G75*
G03*
X119859507Y-97557107I-152400J0D01*
G01*
X144359507Y-56257107D02*
G75*
G03*
X144359507Y-56257107I-152400J0D01*
G01*
X119859507Y-77557107D02*
G75*
G03*
X119859507Y-77557107I-152400J0D01*
G01*
X174207107Y-96707107D02*
G75*
G03*
X173207107Y-95707107I-999999J1D01*
G01*
X90207107Y-65807107D02*
G75*
G03*
X91207107Y-66807107I999999J-1D01*
G01*
X167207107Y-95707107D02*
X166207107Y-95707107D01*
X141207107Y-66807107D02*
X147207107Y-66807107D01*
X90207107Y-87107107D02*
G75*
G03*
X91207107Y-88107107I999999J-1D01*
G01*
X147207107Y-77707107D02*
X146207107Y-77707107D01*
X115207107Y-65807107D02*
G75*
G03*
X116207107Y-66807107I999999J-1D01*
G01*
X167207107Y-77707107D02*
X168207107Y-77707107D01*
X170007107Y-100207107D02*
G75*
G03*
X170007107Y-100207107I-300000J0D01*
G01*
X97207107Y-97707107D02*
X97207107Y-103407107D01*
X98207107Y-128107107D02*
G75*
G03*
X99207107Y-127107107I1J999999D01*
G01*
X170007107Y-80207107D02*
G75*
G03*
X170007107Y-80207107I-300000J0D01*
G01*
X117207107Y-56407107D02*
X118207107Y-56407107D01*
X167207107Y-56407107D02*
X168207107Y-56407107D01*
X117207107Y-75707107D02*
X116207107Y-75707107D01*
X171207107Y-115707107D02*
G75*
G03*
X171207107Y-117707107I0J-1000000D01*
G01*
X118207107Y-95707107D02*
X117207107Y-95707107D01*
X122207107Y-123407107D02*
X117207107Y-123407107D01*
X168207107Y-95707107D02*
X167207107Y-95707107D01*
X94859507Y-97557107D02*
G75*
G03*
X94859507Y-97557107I-152400J0D01*
G01*
X149207107Y-96707107D02*
G75*
G03*
X148207107Y-95707107I-999999J1D01*
G01*
X148207107Y-115707107D02*
X146207107Y-115707107D01*
X92207107Y-97707107D02*
X93207107Y-97707107D01*
X123207107Y-66807107D02*
G75*
G03*
X124207107Y-65807107I1J999999D01*
G01*
X144859507Y-77557107D02*
G75*
G03*
X144859507Y-77557107I-152400J0D01*
G01*
X143207107Y-117707107D02*
G75*
G03*
X143207107Y-115707107I0J1000000D01*
G01*
X116207107Y-115707107D02*
G75*
G03*
X115207107Y-116707107I-1J-999999D01*
G01*
X170359507Y-117557107D02*
G75*
G03*
X170359507Y-117557107I-152400J0D01*
G01*
X115207107Y-116707107D02*
X115207107Y-123407107D01*
X120007107Y-80207107D02*
G75*
G03*
X120007107Y-80207107I-300000J0D01*
G01*
X90207107Y-55407107D02*
X90207107Y-62107107D01*
X144859507Y-117557107D02*
G75*
G03*
X144859507Y-117557107I-152400J0D01*
G01*
X94859507Y-77557107D02*
G75*
G03*
X94859507Y-77557107I-152400J0D01*
G01*
X173207107Y-75707107D02*
X171207107Y-75707107D01*
X148207107Y-66807107D02*
G75*
G03*
X149207107Y-65807107I1J999999D01*
G01*
X169359507Y-77557107D02*
G75*
G03*
X169359507Y-77557107I-152400J0D01*
G01*
X118207107Y-54407107D02*
X117207107Y-54407107D01*
X117207107Y-54407107D02*
X116207107Y-54407107D01*
X174207107Y-65807107D02*
X174207107Y-55407107D01*
X91207107Y-75707107D02*
G75*
G03*
X90207107Y-76707107I-1J-999999D01*
G01*
X165207107Y-62107107D02*
X165207107Y-65807107D01*
X99207107Y-127107107D02*
X99207107Y-116707107D01*
X174207107Y-55407107D02*
G75*
G03*
X173207107Y-54407107I-999999J1D01*
G01*
X97207107Y-62107107D02*
X92207107Y-62107107D01*
X166207107Y-115707107D02*
G75*
G03*
X165207107Y-116707107I-1J-999999D01*
G01*
X140207107Y-103407107D02*
X140207107Y-107107107D01*
X122207107Y-56407107D02*
X121207107Y-56407107D01*
X120007107Y-120207107D02*
G75*
G03*
X120007107Y-120207107I-300000J0D01*
G01*
X97207107Y-77707107D02*
X96207107Y-77707107D01*
X142207107Y-62107107D02*
X142207107Y-56407107D01*
X141207107Y-128107107D02*
X147207107Y-128107107D01*
X96207107Y-75707107D02*
G75*
G03*
X96207107Y-77707107I0J-1000000D01*
G01*
X121207107Y-75707107D02*
G75*
G03*
X121207107Y-77707107I0J-1000000D01*
G01*
X172207107Y-97707107D02*
X172207107Y-103407107D01*
X172207107Y-103407107D02*
X167207107Y-103407107D01*
X166207107Y-54407107D02*
G75*
G03*
X165207107Y-55407107I-1J-999999D01*
G01*
X148207107Y-88107107D02*
G75*
G03*
X149207107Y-87107107I1J999999D01*
G01*
X142207107Y-75707107D02*
X141207107Y-75707107D01*
X168207107Y-54407107D02*
X167207107Y-54407107D01*
X95359507Y-77557107D02*
G75*
G03*
X95359507Y-77557107I-152400J0D01*
G01*
X168207107Y-75707107D02*
X167207107Y-75707107D01*
X97207107Y-77707107D02*
X97207107Y-83407107D01*
X97207107Y-103407107D02*
X92207107Y-103407107D01*
X118207107Y-56407107D02*
G75*
G03*
X118207107Y-54407107I0J1000000D01*
G01*
X123207107Y-95707107D02*
X121207107Y-95707107D01*
X95007107Y-80207107D02*
G75*
G03*
X95007107Y-80207107I-300000J0D01*
G01*
X147207107Y-83407107D02*
X142207107Y-83407107D01*
X90207107Y-76707107D02*
X90207107Y-83407107D01*
X92207107Y-56407107D02*
X93207107Y-56407107D01*
X97207107Y-97707107D02*
X96207107Y-97707107D01*
X123207107Y-54407107D02*
X121207107Y-54407107D01*
X171207107Y-95707107D02*
G75*
G03*
X171207107Y-97707107I0J-1000000D01*
G01*
X118207107Y-97707107D02*
G75*
G03*
X118207107Y-95707107I0J1000000D01*
G01*
X97207107Y-56407107D02*
X97207107Y-62107107D01*
X143207107Y-77707107D02*
G75*
G03*
X143207107Y-75707107I0J1000000D01*
G01*
X167207107Y-75707107D02*
X166207107Y-75707107D01*
X144859507Y-97557107D02*
G75*
G03*
X144859507Y-97557107I-152400J0D01*
G01*
X91207107Y-54407107D02*
G75*
G03*
X90207107Y-55407107I-1J-999999D01*
G01*
X147207107Y-103407107D02*
X142207107Y-103407107D01*
X116207107Y-54407107D02*
G75*
G03*
X115207107Y-55407107I-1J-999999D01*
G01*
X172207107Y-123407107D02*
X167207107Y-123407107D01*
X123207107Y-115707107D02*
X121207107Y-115707107D01*
X170359507Y-77557107D02*
G75*
G03*
X170359507Y-77557107I-152400J0D01*
G01*
X122207107Y-128107107D02*
X123207107Y-128107107D01*
X116207107Y-108107107D02*
X122207107Y-108107107D01*
X116207107Y-66807107D02*
X122207107Y-66807107D01*
X92207107Y-95707107D02*
X91207107Y-95707107D01*
X90207107Y-123407107D02*
X90207107Y-127107107D01*
X149207107Y-76707107D02*
G75*
G03*
X148207107Y-75707107I-999999J1D01*
G01*
X98207107Y-66807107D02*
G75*
G03*
X99207107Y-65807107I1J999999D01*
G01*
X122207107Y-97707107D02*
X121207107Y-97707107D01*
X95359507Y-117557107D02*
G75*
G03*
X95359507Y-117557107I-152400J0D01*
G01*
X165207107Y-65807107D02*
G75*
G03*
X166207107Y-66807107I999999J-1D01*
G01*
X145359507Y-77557107D02*
G75*
G03*
X145359507Y-77557107I-152400J0D01*
G01*
X92207107Y-54407107D02*
X91207107Y-54407107D01*
X142207107Y-54407107D02*
X141207107Y-54407107D01*
X165207107Y-123407107D02*
X165207107Y-127107107D01*
X123207107Y-128107107D02*
G75*
G03*
X124207107Y-127107107I1J999999D01*
G01*
X92207107Y-115707107D02*
X91207107Y-115707107D01*
X172207107Y-117707107D02*
X172207107Y-123407107D01*
X167207107Y-62107107D02*
X167207107Y-56407107D01*
X165207107Y-127107107D02*
G75*
G03*
X166207107Y-128107107I999999J-1D01*
G01*
X96207107Y-115707107D02*
G75*
G03*
X96207107Y-117707107I0J-1000000D01*
G01*
X122207107Y-97707107D02*
X122207107Y-103407107D01*
X140207107Y-62107107D02*
X140207107Y-65807107D01*
X117207107Y-123407107D02*
X117207107Y-117707107D01*
X121207107Y-95707107D02*
G75*
G03*
X121207107Y-97707107I0J-1000000D01*
G01*
X119359507Y-56257107D02*
G75*
G03*
X119359507Y-56257107I-152400J0D01*
G01*
X172207107Y-88107107D02*
X173207107Y-88107107D01*
X91207107Y-95707107D02*
G75*
G03*
X90207107Y-96707107I-1J-999999D01*
G01*
X99207107Y-116707107D02*
G75*
G03*
X98207107Y-115707107I-999999J1D01*
G01*
X94359507Y-56257107D02*
G75*
G03*
X94359507Y-56257107I-152400J0D01*
G01*
X145007107Y-120207107D02*
G75*
G03*
X145007107Y-120207107I-300000J0D01*
G01*
X119859507Y-117557107D02*
G75*
G03*
X119859507Y-117557107I-152400J0D01*
G01*
X141207107Y-108107107D02*
X147207107Y-108107107D01*
X116207107Y-75707107D02*
G75*
G03*
X115207107Y-76707107I-1J-999999D01*
G01*
X149207107Y-65807107D02*
X149207107Y-55407107D01*
X115207107Y-103407107D02*
X115207107Y-107107107D01*
X147207107Y-123407107D02*
X142207107Y-123407107D01*
X120359507Y-56257107D02*
G75*
G03*
X120359507Y-56257107I-152400J0D01*
G01*
X148207107Y-95707107D02*
X146207107Y-95707107D01*
X97207107Y-128107107D02*
X98207107Y-128107107D01*
X165207107Y-116707107D02*
X165207107Y-123407107D01*
X90207107Y-116707107D02*
X90207107Y-123407107D01*
X169859507Y-56257107D02*
G75*
G03*
X169859507Y-56257107I-152400J0D01*
G01*
X122207107Y-56407107D02*
X122207107Y-62107107D01*
X147207107Y-117707107D02*
X146207107Y-117707107D01*
X121207107Y-54407107D02*
G75*
G03*
X121207107Y-56407107I0J-1000000D01*
G01*
X118207107Y-117707107D02*
G75*
G03*
X118207107Y-115707107I0J1000000D01*
G01*
X172207107Y-83407107D02*
X167207107Y-83407107D01*
X147207107Y-56407107D02*
X147207107Y-62107107D01*
X148207107Y-54407107D02*
X146207107Y-54407107D01*
X93207107Y-75707107D02*
X92207107Y-75707107D01*
X98207107Y-54407107D02*
X96207107Y-54407107D01*
X173207107Y-108107107D02*
G75*
G03*
X174207107Y-107107107I1J999999D01*
G01*
X93207107Y-97707107D02*
G75*
G03*
X93207107Y-95707107I0J1000000D01*
G01*
X122207107Y-117707107D02*
X121207107Y-117707107D01*
X117207107Y-83407107D02*
X117207107Y-77707107D01*
X70500000Y-35700000D02*
X195500000Y-35700000D01*
X195500000Y-35700000D02*
X195500000Y-145700000D01*
X195500000Y-145700000D02*
X70500000Y-145700000D01*
X70500000Y-145700000D02*
X70500000Y-35700000D01*
X170007107Y-58907107D02*
G75*
G03*
X170007107Y-58907107I-300000J0D01*
G01*
X118207107Y-75707107D02*
X117207107Y-75707107D01*
X147207107Y-97707107D02*
X146207107Y-97707107D01*
X98207107Y-115707107D02*
X96207107Y-115707107D01*
X91207107Y-115707107D02*
G75*
G03*
X90207107Y-116707107I-1J-999999D01*
G01*
X147207107Y-97707107D02*
X147207107Y-103407107D01*
X94859507Y-117557107D02*
G75*
G03*
X94859507Y-117557107I-152400J0D01*
G01*
X170007107Y-120207107D02*
G75*
G03*
X170007107Y-120207107I-300000J0D01*
G01*
X144859507Y-56257107D02*
G75*
G03*
X144859507Y-56257107I-152400J0D01*
G01*
X91207107Y-108107107D02*
X97207107Y-108107107D01*
X92207107Y-77707107D02*
X93207107Y-77707107D01*
X140207107Y-96707107D02*
X140207107Y-103407107D01*
X165207107Y-107107107D02*
G75*
G03*
X166207107Y-108107107I999999J-1D01*
G01*
X173207107Y-66807107D02*
G75*
G03*
X174207107Y-65807107I1J999999D01*
G01*
X149207107Y-116707107D02*
G75*
G03*
X148207107Y-115707107I-999999J1D01*
G01*
X90207107Y-127107107D02*
G75*
G03*
X91207107Y-128107107I999999J-1D01*
G01*
X140207107Y-127107107D02*
G75*
G03*
X141207107Y-128107107I999999J-1D01*
G01*
X90207107Y-62107107D02*
X90207107Y-65807107D01*
X142207107Y-115707107D02*
X141207107Y-115707107D01*
X166207107Y-75707107D02*
G75*
G03*
X165207107Y-76707107I-1J-999999D01*
G01*
X172207107Y-77707107D02*
X172207107Y-83407107D01*
X169859507Y-117557107D02*
G75*
G03*
X169859507Y-117557107I-152400J0D01*
G01*
X172207107Y-77707107D02*
X171207107Y-77707107D01*
X174207107Y-116707107D02*
G75*
G03*
X173207107Y-115707107I-999999J1D01*
G01*
X169859507Y-97557107D02*
G75*
G03*
X169859507Y-97557107I-152400J0D01*
G01*
X147207107Y-117707107D02*
X147207107Y-123407107D01*
X121207107Y-115707107D02*
G75*
G03*
X121207107Y-117707107I0J-1000000D01*
G01*
X143207107Y-95707107D02*
X142207107Y-95707107D01*
X147207107Y-56407107D02*
X146207107Y-56407107D01*
X141207107Y-95707107D02*
G75*
G03*
X140207107Y-96707107I-1J-999999D01*
G01*
X124207107Y-107107107D02*
X124207107Y-96707107D01*
X145359507Y-97557107D02*
G75*
G03*
X145359507Y-97557107I-152400J0D01*
G01*
X92207107Y-62107107D02*
X92207107Y-56407107D01*
X124207107Y-55407107D02*
G75*
G03*
X123207107Y-54407107I-999999J1D01*
G01*
X173207107Y-128107107D02*
G75*
G03*
X174207107Y-127107107I1J999999D01*
G01*
X168207107Y-56407107D02*
G75*
G03*
X168207107Y-54407107I0J1000000D01*
G01*
X122207107Y-108107107D02*
X123207107Y-108107107D01*
X140207107Y-116707107D02*
X140207107Y-123407107D01*
X140207107Y-55407107D02*
X140207107Y-62107107D01*
X165207107Y-96707107D02*
X165207107Y-103407107D01*
X169359507Y-97557107D02*
G75*
G03*
X169359507Y-97557107I-152400J0D01*
G01*
X149207107Y-87107107D02*
X149207107Y-76707107D01*
X166207107Y-128107107D02*
X172207107Y-128107107D01*
X124207107Y-116707107D02*
G75*
G03*
X123207107Y-115707107I-999999J1D01*
G01*
X115207107Y-107107107D02*
G75*
G03*
X116207107Y-108107107I999999J-1D01*
G01*
X122207107Y-83407107D02*
X117207107Y-83407107D01*
X141207107Y-88107107D02*
X147207107Y-88107107D01*
X145359507Y-117557107D02*
G75*
G03*
X145359507Y-117557107I-152400J0D01*
G01*
X174207107Y-76707107D02*
G75*
G03*
X173207107Y-75707107I-999999J1D01*
G01*
X94359507Y-97557107D02*
G75*
G03*
X94359507Y-97557107I-152400J0D01*
G01*
X122207107Y-77707107D02*
X122207107Y-83407107D01*
X147207107Y-128107107D02*
X148207107Y-128107107D01*
X143207107Y-56407107D02*
G75*
G03*
X143207107Y-54407107I0J1000000D01*
G01*
X119359507Y-77557107D02*
G75*
G03*
X119359507Y-77557107I-152400J0D01*
G01*
X98207107Y-75707107D02*
X96207107Y-75707107D01*
X124207107Y-76707107D02*
G75*
G03*
X123207107Y-75707107I-999999J1D01*
G01*
X147207107Y-77707107D02*
X147207107Y-83407107D01*
X142207107Y-103407107D02*
X142207107Y-97707107D01*
X166207107Y-66807107D02*
X172207107Y-66807107D01*
X91207107Y-88107107D02*
X97207107Y-88107107D01*
X94359507Y-77557107D02*
G75*
G03*
X94359507Y-77557107I-152400J0D01*
G01*
X90207107Y-107107107D02*
G75*
G03*
X91207107Y-108107107I999999J-1D01*
G01*
X116207107Y-128107107D02*
X122207107Y-128107107D01*
X119359507Y-97557107D02*
G75*
G03*
X119359507Y-97557107I-152400J0D01*
G01*
X99207107Y-76707107D02*
G75*
G03*
X98207107Y-75707107I-999999J1D01*
G01*
X117207107Y-117707107D02*
X118207107Y-117707107D01*
X119359507Y-117557107D02*
G75*
G03*
X119359507Y-117557107I-152400J0D01*
G01*
X141207107Y-115707107D02*
G75*
G03*
X140207107Y-116707107I-1J-999999D01*
G01*
X142207107Y-117707107D02*
X143207107Y-117707107D01*
X149207107Y-107107107D02*
X149207107Y-96707107D01*
X145007107Y-80207107D02*
G75*
G03*
X145007107Y-80207107I-300000J0D01*
G01*
X93207107Y-56407107D02*
G75*
G03*
X93207107Y-54407107I0J1000000D01*
G01*
X173207107Y-95707107D02*
X171207107Y-95707107D01*
X166207107Y-88107107D02*
X172207107Y-88107107D01*
X148207107Y-108107107D02*
G75*
G03*
X149207107Y-107107107I1J999999D01*
G01*
X169859507Y-77557107D02*
G75*
G03*
X169859507Y-77557107I-152400J0D01*
G01*
X166207107Y-95707107D02*
G75*
G03*
X165207107Y-96707107I-1J-999999D01*
G01*
X172207107Y-97707107D02*
X171207107Y-97707107D01*
X167207107Y-117707107D02*
X168207107Y-117707107D01*
X92207107Y-103407107D02*
X92207107Y-97707107D01*
X97207107Y-56407107D02*
X96207107Y-56407107D01*
X143207107Y-115707107D02*
X142207107Y-115707107D01*
X120359507Y-117557107D02*
G75*
G03*
X120359507Y-117557107I-152400J0D01*
G01*
X167207107Y-103407107D02*
X167207107Y-97707107D01*
X117207107Y-95707107D02*
X116207107Y-95707107D01*
X94359507Y-117557107D02*
G75*
G03*
X94359507Y-117557107I-152400J0D01*
G01*
X95007107Y-120207107D02*
G75*
G03*
X95007107Y-120207107I-300000J0D01*
G01*
X90207107Y-83407107D02*
X90207107Y-87107107D01*
X115207107Y-123407107D02*
X115207107Y-127107107D01*
X147207107Y-62107107D02*
X142207107Y-62107107D01*
X122207107Y-103407107D02*
X117207107Y-103407107D01*
X172207107Y-66807107D02*
X173207107Y-66807107D01*
X144359507Y-117557107D02*
G75*
G03*
X144359507Y-117557107I-152400J0D01*
G01*
X147207107Y-88107107D02*
X148207107Y-88107107D01*
X168207107Y-77707107D02*
G75*
G03*
X168207107Y-75707107I0J1000000D01*
G01*
X166207107Y-108107107D02*
X172207107Y-108107107D01*
X117207107Y-115707107D02*
X116207107Y-115707107D01*
X170359507Y-56257107D02*
G75*
G03*
X170359507Y-56257107I-152400J0D01*
G01*
X99207107Y-96707107D02*
G75*
G03*
X98207107Y-95707107I-999999J1D01*
G01*
X97207107Y-83407107D02*
X92207107Y-83407107D01*
X146207107Y-95707107D02*
G75*
G03*
X146207107Y-97707107I0J-1000000D01*
G01*
X140207107Y-83407107D02*
X140207107Y-87107107D01*
X144359507Y-77557107D02*
G75*
G03*
X144359507Y-77557107I-152400J0D01*
G01*
X115207107Y-96707107D02*
X115207107Y-103407107D01*
X143207107Y-54407107D02*
X142207107Y-54407107D01*
X91207107Y-128107107D02*
X97207107Y-128107107D01*
X117207107Y-103407107D02*
X117207107Y-97707107D01*
X122207107Y-77707107D02*
X121207107Y-77707107D01*
X169359507Y-56257107D02*
G75*
G03*
X169359507Y-56257107I-152400J0D01*
G01*
X172207107Y-62107107D02*
X167207107Y-62107107D01*
X146207107Y-75707107D02*
G75*
G03*
X146207107Y-77707107I0J-1000000D01*
G01*
X168207107Y-97707107D02*
G75*
G03*
X168207107Y-95707107I0J1000000D01*
G01*
X140207107Y-76707107D02*
X140207107Y-83407107D01*
X93207107Y-115707107D02*
X92207107Y-115707107D01*
X167207107Y-54407107D02*
X166207107Y-54407107D01*
X140207107Y-65807107D02*
G75*
G03*
X141207107Y-66807107I999999J-1D01*
G01*
X165207107Y-55407107D02*
X165207107Y-62107107D01*
X92207107Y-83407107D02*
X92207107Y-77707107D01*
X92207107Y-75707107D02*
X91207107Y-75707107D01*
X120007107Y-100207107D02*
G75*
G03*
X120007107Y-100207107I-300000J0D01*
G01*
X115207107Y-127107107D02*
G75*
G03*
X116207107Y-128107107I999999J-1D01*
G01*
X169359507Y-117557107D02*
G75*
G03*
X169359507Y-117557107I-152400J0D01*
G01*
X91207107Y-66807107D02*
X97207107Y-66807107D01*
X99207107Y-87107107D02*
X99207107Y-76707107D01*
X165207107Y-103407107D02*
X165207107Y-107107107D01*
X171207107Y-54407107D02*
G75*
G03*
X171207107Y-56407107I0J-1000000D01*
G01*
X122207107Y-88107107D02*
X123207107Y-88107107D01*
X120359507Y-77557107D02*
G75*
G03*
X120359507Y-77557107I-152400J0D01*
G01*
X140207107Y-123407107D02*
X140207107Y-127107107D01*
X147207107Y-108107107D02*
X148207107Y-108107107D01*
X99207107Y-107107107D02*
X99207107Y-96707107D01*
X170359507Y-97557107D02*
G75*
G03*
X170359507Y-97557107I-152400J0D01*
G01*
X97207107Y-117707107D02*
X96207107Y-117707107D01*
X95007107Y-58907107D02*
G75*
G03*
X95007107Y-58907107I-300000J0D01*
G01*
X123207107Y-108107107D02*
G75*
G03*
X124207107Y-107107107I1J999999D01*
G01*
X167207107Y-115707107D02*
X166207107Y-115707107D01*
X120359507Y-97557107D02*
G75*
G03*
X120359507Y-97557107I-152400J0D01*
G01*
X174207107Y-107107107D02*
X174207107Y-96707107D01*
X116207107Y-88107107D02*
X122207107Y-88107107D01*
X96207107Y-95707107D02*
G75*
G03*
X96207107Y-97707107I0J-1000000D01*
G01*
X173207107Y-88107107D02*
G75*
G03*
X174207107Y-87107107I1J999999D01*
G01*
X115207107Y-76707107D02*
X115207107Y-83407107D01*
X92207107Y-117707107D02*
X93207107Y-117707107D01*
X147207107Y-66807107D02*
X148207107Y-66807107D01*
X93207107Y-54407107D02*
X92207107Y-54407107D01*
X124207107Y-65807107D02*
X124207107Y-55407107D01*
X146207107Y-115707107D02*
G75*
G03*
X146207107Y-117707107I0J-1000000D01*
G01*
X96207107Y-54407107D02*
G75*
G03*
X96207107Y-56407107I0J-1000000D01*
G01*
X124207107Y-96707107D02*
G75*
G03*
X123207107Y-95707107I-999999J1D01*
G01*
X119859507Y-56257107D02*
G75*
G03*
X119859507Y-56257107I-152400J0D01*
G01*
X115207107Y-83407107D02*
X115207107Y-87107107D01*
X124207107Y-127107107D02*
X124207107Y-116707107D01*
X168207107Y-117707107D02*
G75*
G03*
X168207107Y-115707107I0J1000000D01*
G01*
X90207107Y-103407107D02*
X90207107Y-107107107D01*
X97207107Y-66807107D02*
X98207107Y-66807107D01*
X145359507Y-56257107D02*
G75*
G03*
X145359507Y-56257107I-152400J0D01*
G01*
X95359507Y-56257107D02*
G75*
G03*
X95359507Y-56257107I-152400J0D01*
G01*
X143207107Y-97707107D02*
G75*
G03*
X143207107Y-95707107I0J1000000D01*
G01*
X97207107Y-123407107D02*
X92207107Y-123407107D01*
X174207107Y-87107107D02*
X174207107Y-76707107D01*
X93207107Y-117707107D02*
G75*
G03*
X93207107Y-115707107I0J1000000D01*
G01*
X171207107Y-75707107D02*
G75*
G03*
X171207107Y-77707107I0J-1000000D01*
G01*
X97207107Y-117707107D02*
X97207107Y-123407107D01*
X149207107Y-55407107D02*
G75*
G03*
X148207107Y-54407107I-999999J1D01*
G01*
X168207107Y-115707107D02*
X167207107Y-115707107D01*
X95359507Y-97557107D02*
G75*
G03*
X95359507Y-97557107I-152400J0D01*
G01*
X120007107Y-58907107D02*
G75*
G03*
X120007107Y-58907107I-300000J0D01*
G01*
X148207107Y-75707107D02*
X146207107Y-75707107D01*
X173207107Y-54407107D02*
X171207107Y-54407107D01*
X167207107Y-123407107D02*
X167207107Y-117707107D01*
X172207107Y-117707107D02*
X171207107Y-117707107D01*
X146207107Y-54407107D02*
G75*
G03*
X146207107Y-56407107I0J-1000000D01*
G01*
X142207107Y-97707107D02*
X143207107Y-97707107D01*
X167207107Y-83407107D02*
X167207107Y-77707107D01*
X124207107Y-87107107D02*
X124207107Y-76707107D01*
X99207107Y-55407107D02*
G75*
G03*
X98207107Y-54407107I-999999J1D01*
G01*
X165207107Y-87107107D02*
G75*
G03*
X166207107Y-88107107I999999J-1D01*
G01*
X97207107Y-108107107D02*
X98207107Y-108107107D01*
X172207107Y-56407107D02*
X172207107Y-62107107D01*
X94859507Y-56257107D02*
G75*
G03*
X94859507Y-56257107I-152400J0D01*
G01*
X95007107Y-100207107D02*
G75*
G03*
X95007107Y-100207107I-300000J0D01*
G01*
X117207107Y-77707107D02*
X118207107Y-77707107D01*
X118207107Y-77707107D02*
G75*
G03*
X118207107Y-75707107I0J1000000D01*
G01*
X98207107Y-108107107D02*
G75*
G03*
X99207107Y-107107107I1J999999D01*
G01*
X145007107Y-100207107D02*
G75*
G03*
X145007107Y-100207107I-300000J0D01*
G01*
X123207107Y-88107107D02*
G75*
G03*
X124207107Y-87107107I1J999999D01*
G01*
X117207107Y-97707107D02*
X118207107Y-97707107D01*
X115207107Y-62107107D02*
X115207107Y-65807107D01*
X122207107Y-66807107D02*
X123207107Y-66807107D01*
X117207107Y-62107107D02*
X117207107Y-56407107D01*
X145007107Y-58907107D02*
G75*
G03*
X145007107Y-58907107I-300000J0D01*
G01*
X149207107Y-127107107D02*
X149207107Y-116707107D01*
X141207107Y-75707107D02*
G75*
G03*
X140207107Y-76707107I-1J-999999D01*
G01*
X115207107Y-87107107D02*
G75*
G03*
X116207107Y-88107107I999999J-1D01*
G01*
X142207107Y-95707107D02*
X141207107Y-95707107D01*
X99207107Y-65807107D02*
X99207107Y-55407107D01*
X172207107Y-56407107D02*
X171207107Y-56407107D01*
X144359507Y-97557107D02*
G75*
G03*
X144359507Y-97557107I-152400J0D01*
G01*
X142207107Y-83407107D02*
X142207107Y-77707107D01*
X143207107Y-75707107D02*
X142207107Y-75707107D01*
X115207107Y-55407107D02*
X115207107Y-62107107D01*
M02*
