%TF.GenerationSoftware,KiCad,Pcbnew,(6.0.0)*%
%TF.CreationDate,2022-03-28T07:48:23-07:00*%
%TF.ProjectId,pupdrive-eib24_panel,70757064-7269-4766-952d-65696232345f,A*%
%TF.SameCoordinates,Original*%
%TF.FileFunction,Legend,Bot*%
%TF.FilePolarity,Positive*%
%FSLAX46Y46*%
G04 Gerber Fmt 4.6, Leading zero omitted, Abs format (unit mm)*
G04 Created by KiCad (PCBNEW (6.0.0)) date 2022-03-28 07:48:23*
%MOMM*%
%LPD*%
G01*
G04 APERTURE LIST*
%ADD10C,0.120000*%
%ADD11C,0.100000*%
G04 APERTURE END LIST*
D10*
X94107107Y-57907107D02*
X94207107Y-58107107D01*
X94107107Y-79207107D02*
X94207107Y-79407107D01*
X119107107Y-56807107D02*
X119007107Y-56607107D01*
X168207107Y-121357107D02*
X168007107Y-121557107D01*
X169207107Y-99407107D02*
X170207107Y-99407107D01*
X118207107Y-101357107D02*
X118007107Y-101557107D01*
X96207107Y-99657107D02*
X96407107Y-99457107D01*
X169007107Y-77907107D02*
X167907107Y-77907107D01*
X167907107Y-77907107D02*
X167807107Y-78107107D01*
X120407107Y-56607107D02*
X121507107Y-56607107D01*
X94207107Y-99407107D02*
X95207107Y-99407107D01*
X121207107Y-119657107D02*
X121407107Y-119457107D01*
X144107107Y-57907107D02*
X144207107Y-58107107D01*
X169107107Y-57907107D02*
X169207107Y-58107107D01*
X94107107Y-118107107D02*
X94007107Y-117907107D01*
X146507107Y-117907107D02*
X146607107Y-118107107D01*
X146507107Y-77907107D02*
X146607107Y-78107107D01*
X168007107Y-119457107D02*
X168207107Y-119657107D01*
X167907107Y-97907107D02*
X167807107Y-98107107D01*
X121207107Y-99657107D02*
X121407107Y-99457107D01*
X171507107Y-77907107D02*
X171607107Y-78107107D01*
X120207107Y-79407107D02*
X120307107Y-79207107D01*
X96407107Y-81557107D02*
X96207107Y-81357107D01*
X168207107Y-119657107D02*
X168207107Y-121357107D01*
X94107107Y-78107107D02*
X94007107Y-77907107D01*
X121507107Y-117907107D02*
X121607107Y-118107107D01*
X94007107Y-77907107D02*
X92907107Y-77907107D01*
X119107107Y-98107107D02*
X119007107Y-97907107D01*
X121207107Y-60057107D02*
X121207107Y-58357107D01*
X168207107Y-99657107D02*
X168207107Y-101357107D01*
X96207107Y-58357107D02*
X96407107Y-58157107D01*
X146207107Y-121357107D02*
X146207107Y-119657107D01*
X121207107Y-79657107D02*
X121407107Y-79457107D01*
X143207107Y-60057107D02*
X143007107Y-60257107D01*
X143207107Y-58357107D02*
X143207107Y-60057107D01*
X144007107Y-77907107D02*
X142907107Y-77907107D01*
X121207107Y-81357107D02*
X121207107Y-79657107D01*
X170407107Y-97907107D02*
X171507107Y-97907107D01*
X95207107Y-119407107D02*
X95307107Y-119207107D01*
X119207107Y-79407107D02*
X120207107Y-79407107D01*
X93207107Y-81357107D02*
X93007107Y-81557107D01*
X117907107Y-56607107D02*
X117807107Y-56807107D01*
X120307107Y-98107107D02*
X120407107Y-97907107D01*
X96207107Y-101357107D02*
X96207107Y-99657107D01*
X96507107Y-97907107D02*
X96607107Y-98107107D01*
X95307107Y-118107107D02*
X95407107Y-117907107D01*
X94007107Y-117907107D02*
X92907107Y-117907107D01*
X145207107Y-58107107D02*
X145307107Y-57907107D01*
X94207107Y-79407107D02*
X95207107Y-79407107D01*
X95307107Y-98107107D02*
X95407107Y-97907107D01*
X143007107Y-58157107D02*
X143207107Y-58357107D01*
X144107107Y-99207107D02*
X144207107Y-99407107D01*
X167907107Y-117907107D02*
X167807107Y-118107107D01*
X118007107Y-58157107D02*
X118207107Y-58357107D01*
X96207107Y-119657107D02*
X96407107Y-119457107D01*
X169107107Y-56807107D02*
X169007107Y-56607107D01*
X119107107Y-57907107D02*
X119207107Y-58107107D01*
X95407107Y-117907107D02*
X96507107Y-117907107D01*
X145307107Y-118107107D02*
X145407107Y-117907107D01*
X95207107Y-58107107D02*
X95307107Y-57907107D01*
X120407107Y-97907107D02*
X121507107Y-97907107D01*
X95207107Y-79407107D02*
X95307107Y-79207107D01*
X93007107Y-119457107D02*
X93207107Y-119657107D01*
X168007107Y-99457107D02*
X168207107Y-99657107D01*
X144007107Y-56607107D02*
X142907107Y-56607107D01*
X96207107Y-60057107D02*
X96207107Y-58357107D01*
X95407107Y-97907107D02*
X96507107Y-97907107D01*
X142907107Y-97907107D02*
X142807107Y-98107107D01*
X145307107Y-56807107D02*
X145407107Y-56607107D01*
X169207107Y-119407107D02*
X170207107Y-119407107D01*
X121407107Y-60257107D02*
X121207107Y-60057107D01*
X146207107Y-101357107D02*
X146207107Y-99657107D01*
X121207107Y-121357107D02*
X121207107Y-119657107D01*
X167907107Y-56607107D02*
X167807107Y-56807107D01*
X171507107Y-117907107D02*
X171607107Y-118107107D01*
X94107107Y-56807107D02*
X94007107Y-56607107D01*
X119207107Y-58107107D02*
X120207107Y-58107107D01*
X121207107Y-101357107D02*
X121207107Y-99657107D01*
X119007107Y-97907107D02*
X117907107Y-97907107D01*
X145407107Y-117907107D02*
X146507107Y-117907107D01*
X169107107Y-99207107D02*
X169207107Y-99407107D01*
X119007107Y-56607107D02*
X117907107Y-56607107D01*
X171407107Y-101557107D02*
X171207107Y-101357107D01*
X146207107Y-60057107D02*
X146207107Y-58357107D01*
X93207107Y-60057107D02*
X93007107Y-60257107D01*
X119107107Y-99207107D02*
X119207107Y-99407107D01*
X120207107Y-99407107D02*
X120307107Y-99207107D01*
X146207107Y-58357107D02*
X146407107Y-58157107D01*
X170407107Y-56607107D02*
X171507107Y-56607107D01*
X145407107Y-77907107D02*
X146507107Y-77907107D01*
X144007107Y-117907107D02*
X142907107Y-117907107D01*
X118207107Y-121357107D02*
X118007107Y-121557107D01*
X145407107Y-97907107D02*
X146507107Y-97907107D01*
X92907107Y-97907107D02*
X92807107Y-98107107D01*
X144107107Y-119207107D02*
X144207107Y-119407107D01*
X118007107Y-99457107D02*
X118207107Y-99657107D01*
X93207107Y-79657107D02*
X93207107Y-81357107D01*
X94107107Y-119207107D02*
X94207107Y-119407107D01*
X121407107Y-101557107D02*
X121207107Y-101357107D01*
X170207107Y-119407107D02*
X170307107Y-119207107D01*
X170407107Y-117907107D02*
X171507107Y-117907107D01*
X120207107Y-119407107D02*
X120307107Y-119207107D01*
X143007107Y-119457107D02*
X143207107Y-119657107D01*
X144107107Y-56807107D02*
X144007107Y-56607107D01*
X146407107Y-60257107D02*
X146207107Y-60057107D01*
X146207107Y-99657107D02*
X146407107Y-99457107D01*
X96507107Y-117907107D02*
X96607107Y-118107107D01*
X142907107Y-117907107D02*
X142807107Y-118107107D01*
X170307107Y-98107107D02*
X170407107Y-97907107D01*
X171207107Y-81357107D02*
X171207107Y-79657107D01*
X118007107Y-79457107D02*
X118207107Y-79657107D01*
X96207107Y-79657107D02*
X96407107Y-79457107D01*
X171207107Y-119657107D02*
X171407107Y-119457107D01*
X120307107Y-78107107D02*
X120407107Y-77907107D01*
X169107107Y-98107107D02*
X169007107Y-97907107D01*
X94007107Y-56607107D02*
X92907107Y-56607107D01*
X93207107Y-99657107D02*
X93207107Y-101357107D01*
X94107107Y-99207107D02*
X94207107Y-99407107D01*
X145207107Y-99407107D02*
X145307107Y-99207107D01*
X95307107Y-56807107D02*
X95407107Y-56607107D01*
X121507107Y-97907107D02*
X121607107Y-98107107D01*
X118007107Y-119457107D02*
X118207107Y-119657107D01*
X92907107Y-117907107D02*
X92807107Y-118107107D01*
X171207107Y-60057107D02*
X171207107Y-58357107D01*
X96407107Y-101557107D02*
X96207107Y-101357107D01*
X93207107Y-119657107D02*
X93207107Y-121357107D01*
X144107107Y-118107107D02*
X144007107Y-117907107D01*
X171207107Y-58357107D02*
X171407107Y-58157107D01*
X121507107Y-77907107D02*
X121607107Y-78107107D01*
X142907107Y-56607107D02*
X142807107Y-56807107D01*
X146207107Y-79657107D02*
X146407107Y-79457107D01*
X143007107Y-99457107D02*
X143207107Y-99657107D01*
X121507107Y-56607107D02*
X121607107Y-56807107D01*
X146507107Y-56607107D02*
X146607107Y-56807107D01*
X145207107Y-79407107D02*
X145307107Y-79207107D01*
X119007107Y-117907107D02*
X117907107Y-117907107D01*
X170407107Y-77907107D02*
X171507107Y-77907107D01*
X146207107Y-119657107D02*
X146407107Y-119457107D01*
X142907107Y-77907107D02*
X142807107Y-78107107D01*
X119107107Y-119207107D02*
X119207107Y-119407107D01*
X144107107Y-98107107D02*
X144007107Y-97907107D01*
X143207107Y-121357107D02*
X143007107Y-121557107D01*
X169207107Y-79407107D02*
X170207107Y-79407107D01*
X168007107Y-79457107D02*
X168207107Y-79657107D01*
X95407107Y-77907107D02*
X96507107Y-77907107D01*
X146507107Y-97907107D02*
X146607107Y-98107107D01*
X168207107Y-79657107D02*
X168207107Y-81357107D01*
X120207107Y-58107107D02*
X120307107Y-57907107D01*
X119107107Y-79207107D02*
X119207107Y-79407107D01*
X93207107Y-58357107D02*
X93207107Y-60057107D01*
X146407107Y-81557107D02*
X146207107Y-81357107D01*
X119107107Y-78107107D02*
X119007107Y-77907107D01*
X146207107Y-81357107D02*
X146207107Y-79657107D01*
X93207107Y-101357107D02*
X93007107Y-101557107D01*
X169107107Y-118107107D02*
X169007107Y-117907107D01*
X169007107Y-117907107D02*
X167907107Y-117907107D01*
X118207107Y-81357107D02*
X118007107Y-81557107D01*
X171507107Y-97907107D02*
X171607107Y-98107107D01*
X121407107Y-81557107D02*
X121207107Y-81357107D01*
X117907107Y-77907107D02*
X117807107Y-78107107D01*
X170307107Y-78107107D02*
X170407107Y-77907107D01*
X168207107Y-101357107D02*
X168007107Y-101557107D01*
X146407107Y-121557107D02*
X146207107Y-121357107D01*
X144207107Y-119407107D02*
X145207107Y-119407107D01*
X119107107Y-118107107D02*
X119007107Y-117907107D01*
X120307107Y-56807107D02*
X120407107Y-56607107D01*
X171207107Y-79657107D02*
X171407107Y-79457107D01*
X118207107Y-79657107D02*
X118207107Y-81357107D01*
X143007107Y-79457107D02*
X143207107Y-79657107D01*
X92907107Y-56607107D02*
X92807107Y-56807107D01*
X145307107Y-78107107D02*
X145407107Y-77907107D01*
X118207107Y-58357107D02*
X118207107Y-60057107D01*
X171207107Y-101357107D02*
X171207107Y-99657107D01*
X170207107Y-99407107D02*
X170307107Y-99207107D01*
X171207107Y-121357107D02*
X171207107Y-119657107D01*
X169107107Y-119207107D02*
X169207107Y-119407107D01*
X96207107Y-121357107D02*
X96207107Y-119657107D01*
X169207107Y-58107107D02*
X170207107Y-58107107D01*
X93007107Y-79457107D02*
X93207107Y-79657107D01*
X93007107Y-58157107D02*
X93207107Y-58357107D01*
X96407107Y-60257107D02*
X96207107Y-60057107D01*
X120407107Y-77907107D02*
X121507107Y-77907107D01*
X95407107Y-56607107D02*
X96507107Y-56607107D01*
X171407107Y-121557107D02*
X171207107Y-121357107D01*
X144207107Y-58107107D02*
X145207107Y-58107107D01*
X143207107Y-119657107D02*
X143207107Y-121357107D01*
X119207107Y-119407107D02*
X120207107Y-119407107D01*
X170207107Y-58107107D02*
X170307107Y-57907107D01*
X119007107Y-77907107D02*
X117907107Y-77907107D01*
X145407107Y-56607107D02*
X146507107Y-56607107D01*
X143207107Y-81357107D02*
X143007107Y-81557107D01*
X168207107Y-60057107D02*
X168007107Y-60257107D01*
X94007107Y-97907107D02*
X92907107Y-97907107D01*
X118207107Y-119657107D02*
X118207107Y-121357107D01*
X117907107Y-97907107D02*
X117807107Y-98107107D01*
X143207107Y-99657107D02*
X143207107Y-101357107D01*
X144207107Y-79407107D02*
X145207107Y-79407107D01*
X96507107Y-77907107D02*
X96607107Y-78107107D01*
X143207107Y-79657107D02*
X143207107Y-81357107D01*
X145307107Y-98107107D02*
X145407107Y-97907107D01*
X168207107Y-81357107D02*
X168007107Y-81557107D01*
X94107107Y-98107107D02*
X94007107Y-97907107D01*
X146407107Y-101557107D02*
X146207107Y-101357107D01*
X92907107Y-77907107D02*
X92807107Y-78107107D01*
X170207107Y-79407107D02*
X170307107Y-79207107D01*
X143207107Y-101357107D02*
X143007107Y-101557107D01*
X169107107Y-78107107D02*
X169007107Y-77907107D01*
X118207107Y-99657107D02*
X118207107Y-101357107D01*
X118207107Y-60057107D02*
X118007107Y-60257107D01*
X93007107Y-99457107D02*
X93207107Y-99657107D01*
X144107107Y-78107107D02*
X144007107Y-77907107D01*
X119207107Y-99407107D02*
X120207107Y-99407107D01*
X120307107Y-118107107D02*
X120407107Y-117907107D01*
X169007107Y-56607107D02*
X167907107Y-56607107D01*
X95207107Y-99407107D02*
X95307107Y-99207107D01*
X117907107Y-117907107D02*
X117807107Y-118107107D01*
X93207107Y-121357107D02*
X93007107Y-121557107D01*
X170307107Y-118107107D02*
X170407107Y-117907107D01*
X144007107Y-97907107D02*
X142907107Y-97907107D01*
X120407107Y-117907107D02*
X121507107Y-117907107D01*
X121407107Y-121557107D02*
X121207107Y-121357107D01*
X171207107Y-99657107D02*
X171407107Y-99457107D01*
X144107107Y-79207107D02*
X144207107Y-79407107D01*
X121207107Y-58357107D02*
X121407107Y-58157107D01*
X144207107Y-99407107D02*
X145207107Y-99407107D01*
X168007107Y-58157107D02*
X168207107Y-58357107D01*
X94207107Y-119407107D02*
X95207107Y-119407107D01*
X95307107Y-78107107D02*
X95407107Y-77907107D01*
X170307107Y-56807107D02*
X170407107Y-56607107D01*
X168207107Y-58357107D02*
X168207107Y-60057107D01*
X96207107Y-81357107D02*
X96207107Y-79657107D01*
X171407107Y-60257107D02*
X171207107Y-60057107D01*
X169007107Y-97907107D02*
X167907107Y-97907107D01*
X96407107Y-121557107D02*
X96207107Y-121357107D01*
X171407107Y-81557107D02*
X171207107Y-81357107D01*
X94207107Y-58107107D02*
X95207107Y-58107107D01*
X169107107Y-79207107D02*
X169207107Y-79407107D01*
X145207107Y-119407107D02*
X145307107Y-119207107D01*
X171507107Y-56607107D02*
X171607107Y-56807107D01*
X96507107Y-56607107D02*
X96607107Y-56807107D01*
D11*
X142426154Y-118292821D02*
X142407107Y-118311868D01*
X142388059Y-118349964D01*
X142388059Y-118445202D01*
X142407107Y-118483297D01*
X142426154Y-118502345D01*
X142464249Y-118521392D01*
X142502345Y-118521392D01*
X142559487Y-118502345D01*
X142788059Y-118273773D01*
X142788059Y-118521392D01*
X168788059Y-100621392D02*
X168788059Y-100392821D01*
X168788059Y-100507107D02*
X168388059Y-100507107D01*
X168445202Y-100469011D01*
X168483297Y-100430916D01*
X168502345Y-100392821D01*
X167426154Y-78292821D02*
X167407107Y-78311868D01*
X167388059Y-78349964D01*
X167388059Y-78445202D01*
X167407107Y-78483297D01*
X167426154Y-78502345D01*
X167464249Y-78521392D01*
X167502345Y-78521392D01*
X167559487Y-78502345D01*
X167788059Y-78273773D01*
X167788059Y-78521392D01*
X171288059Y-102130916D02*
X171097583Y-101997583D01*
X171288059Y-101902345D02*
X170888059Y-101902345D01*
X170888059Y-102054726D01*
X170907107Y-102092821D01*
X170926154Y-102111868D01*
X170964249Y-102130916D01*
X171021392Y-102130916D01*
X171059487Y-102111868D01*
X171078535Y-102092821D01*
X171097583Y-102054726D01*
X171097583Y-101902345D01*
X168107107Y-60801868D02*
X168088059Y-60763773D01*
X168088059Y-60706630D01*
X168107107Y-60649487D01*
X168145202Y-60611392D01*
X168183297Y-60592345D01*
X168259487Y-60573297D01*
X168316630Y-60573297D01*
X168392821Y-60592345D01*
X168430916Y-60611392D01*
X168469011Y-60649487D01*
X168488059Y-60706630D01*
X168488059Y-60744726D01*
X168469011Y-60801868D01*
X168449964Y-60820916D01*
X168316630Y-60820916D01*
X168316630Y-60744726D01*
X120688059Y-120602345D02*
X120688059Y-120411868D01*
X120878535Y-120392821D01*
X120859487Y-120411868D01*
X120840440Y-120449964D01*
X120840440Y-120545202D01*
X120859487Y-120583297D01*
X120878535Y-120602345D01*
X120916630Y-120621392D01*
X121011868Y-120621392D01*
X121049964Y-120602345D01*
X121069011Y-120583297D01*
X121088059Y-120545202D01*
X121088059Y-120449964D01*
X121069011Y-120411868D01*
X121049964Y-120392821D01*
X121288059Y-60830916D02*
X121097583Y-60697583D01*
X121288059Y-60602345D02*
X120888059Y-60602345D01*
X120888059Y-60754726D01*
X120907107Y-60792821D01*
X120926154Y-60811868D01*
X120964249Y-60830916D01*
X121021392Y-60830916D01*
X121059487Y-60811868D01*
X121078535Y-60792821D01*
X121097583Y-60754726D01*
X121097583Y-60602345D01*
X95688059Y-120602345D02*
X95688059Y-120411868D01*
X95878535Y-120392821D01*
X95859487Y-120411868D01*
X95840440Y-120449964D01*
X95840440Y-120545202D01*
X95859487Y-120583297D01*
X95878535Y-120602345D01*
X95916630Y-120621392D01*
X96011868Y-120621392D01*
X96049964Y-120602345D01*
X96069011Y-120583297D01*
X96088059Y-120545202D01*
X96088059Y-120449964D01*
X96069011Y-120411868D01*
X96049964Y-120392821D01*
X93107107Y-60801868D02*
X93088059Y-60763773D01*
X93088059Y-60706630D01*
X93107107Y-60649487D01*
X93145202Y-60611392D01*
X93183297Y-60592345D01*
X93259487Y-60573297D01*
X93316630Y-60573297D01*
X93392821Y-60592345D01*
X93430916Y-60611392D01*
X93469011Y-60649487D01*
X93488059Y-60706630D01*
X93488059Y-60744726D01*
X93469011Y-60801868D01*
X93449964Y-60820916D01*
X93316630Y-60820916D01*
X93316630Y-60744726D01*
X118788059Y-99573773D02*
X118788059Y-99821392D01*
X118940440Y-99688059D01*
X118940440Y-99745202D01*
X118959487Y-99783297D01*
X118978535Y-99802345D01*
X119016630Y-99821392D01*
X119111868Y-99821392D01*
X119149964Y-99802345D01*
X119169011Y-99783297D01*
X119188059Y-99745202D01*
X119188059Y-99630916D01*
X119169011Y-99592821D01*
X119149964Y-99573773D01*
X143788059Y-120621392D02*
X143788059Y-120392821D01*
X143788059Y-120507107D02*
X143388059Y-120507107D01*
X143445202Y-120469011D01*
X143483297Y-120430916D01*
X143502345Y-120392821D01*
X168788059Y-79573773D02*
X168788059Y-79821392D01*
X168940440Y-79688059D01*
X168940440Y-79745202D01*
X168959487Y-79783297D01*
X168978535Y-79802345D01*
X169016630Y-79821392D01*
X169111868Y-79821392D01*
X169149964Y-79802345D01*
X169169011Y-79783297D01*
X169188059Y-79745202D01*
X169188059Y-79630916D01*
X169169011Y-79592821D01*
X169149964Y-79573773D01*
X143107107Y-102101868D02*
X143088059Y-102063773D01*
X143088059Y-102006630D01*
X143107107Y-101949487D01*
X143145202Y-101911392D01*
X143183297Y-101892345D01*
X143259487Y-101873297D01*
X143316630Y-101873297D01*
X143392821Y-101892345D01*
X143430916Y-101911392D01*
X143469011Y-101949487D01*
X143488059Y-102006630D01*
X143488059Y-102044726D01*
X143469011Y-102101868D01*
X143449964Y-102120916D01*
X143316630Y-102120916D01*
X143316630Y-102044726D01*
X168107107Y-122101868D02*
X168088059Y-122063773D01*
X168088059Y-122006630D01*
X168107107Y-121949487D01*
X168145202Y-121911392D01*
X168183297Y-121892345D01*
X168259487Y-121873297D01*
X168316630Y-121873297D01*
X168392821Y-121892345D01*
X168430916Y-121911392D01*
X168469011Y-121949487D01*
X168488059Y-122006630D01*
X168488059Y-122044726D01*
X168469011Y-122101868D01*
X168449964Y-122120916D01*
X168316630Y-122120916D01*
X168316630Y-122044726D01*
X170688059Y-120602345D02*
X170688059Y-120411868D01*
X170878535Y-120392821D01*
X170859487Y-120411868D01*
X170840440Y-120449964D01*
X170840440Y-120545202D01*
X170859487Y-120583297D01*
X170878535Y-120602345D01*
X170916630Y-120621392D01*
X171011868Y-120621392D01*
X171049964Y-120602345D01*
X171069011Y-120583297D01*
X171088059Y-120545202D01*
X171088059Y-120449964D01*
X171069011Y-120411868D01*
X171049964Y-120392821D01*
X118788059Y-79573773D02*
X118788059Y-79821392D01*
X118940440Y-79688059D01*
X118940440Y-79745202D01*
X118959487Y-79783297D01*
X118978535Y-79802345D01*
X119016630Y-79821392D01*
X119111868Y-79821392D01*
X119149964Y-79802345D01*
X119169011Y-79783297D01*
X119188059Y-79745202D01*
X119188059Y-79630916D01*
X119169011Y-79592821D01*
X119149964Y-79573773D01*
X143788059Y-119573773D02*
X143788059Y-119821392D01*
X143940440Y-119688059D01*
X143940440Y-119745202D01*
X143959487Y-119783297D01*
X143978535Y-119802345D01*
X144016630Y-119821392D01*
X144111868Y-119821392D01*
X144149964Y-119802345D01*
X144169011Y-119783297D01*
X144188059Y-119745202D01*
X144188059Y-119630916D01*
X144169011Y-119592821D01*
X144149964Y-119573773D01*
X96288059Y-102130916D02*
X96097583Y-101997583D01*
X96288059Y-101902345D02*
X95888059Y-101902345D01*
X95888059Y-102054726D01*
X95907107Y-102092821D01*
X95926154Y-102111868D01*
X95964249Y-102130916D01*
X96021392Y-102130916D01*
X96059487Y-102111868D01*
X96078535Y-102092821D01*
X96097583Y-102054726D01*
X96097583Y-101902345D01*
X118107107Y-102101868D02*
X118088059Y-102063773D01*
X118088059Y-102006630D01*
X118107107Y-101949487D01*
X118145202Y-101911392D01*
X118183297Y-101892345D01*
X118259487Y-101873297D01*
X118316630Y-101873297D01*
X118392821Y-101892345D01*
X118430916Y-101911392D01*
X118469011Y-101949487D01*
X118488059Y-102006630D01*
X118488059Y-102044726D01*
X118469011Y-102101868D01*
X118449964Y-102120916D01*
X118316630Y-102120916D01*
X118316630Y-102044726D01*
X93788059Y-119573773D02*
X93788059Y-119821392D01*
X93940440Y-119688059D01*
X93940440Y-119745202D01*
X93959487Y-119783297D01*
X93978535Y-119802345D01*
X94016630Y-119821392D01*
X94111868Y-119821392D01*
X94149964Y-119802345D01*
X94169011Y-119783297D01*
X94188059Y-119745202D01*
X94188059Y-119630916D01*
X94169011Y-119592821D01*
X94149964Y-119573773D01*
X168788059Y-120621392D02*
X168788059Y-120392821D01*
X168788059Y-120507107D02*
X168388059Y-120507107D01*
X168445202Y-120469011D01*
X168483297Y-120430916D01*
X168502345Y-120392821D01*
X146288059Y-122130916D02*
X146097583Y-121997583D01*
X146288059Y-121902345D02*
X145888059Y-121902345D01*
X145888059Y-122054726D01*
X145907107Y-122092821D01*
X145926154Y-122111868D01*
X145964249Y-122130916D01*
X146021392Y-122130916D01*
X146059487Y-122111868D01*
X146078535Y-122092821D01*
X146097583Y-122054726D01*
X146097583Y-121902345D01*
X168688059Y-81688059D02*
X168688059Y-81726154D01*
X168707107Y-81764249D01*
X168726154Y-81783297D01*
X168764249Y-81802345D01*
X168840440Y-81821392D01*
X168935678Y-81821392D01*
X169011868Y-81802345D01*
X169049964Y-81783297D01*
X169069011Y-81764249D01*
X169088059Y-81726154D01*
X169088059Y-81688059D01*
X169069011Y-81649964D01*
X169049964Y-81630916D01*
X169011868Y-81611868D01*
X168935678Y-81592821D01*
X168840440Y-81592821D01*
X168764249Y-81611868D01*
X168726154Y-81630916D01*
X168707107Y-81649964D01*
X168688059Y-81688059D01*
X121721392Y-98483297D02*
X121988059Y-98483297D01*
X121569011Y-98388059D02*
X121854726Y-98292821D01*
X121854726Y-98540440D01*
X118107107Y-82101868D02*
X118088059Y-82063773D01*
X118088059Y-82006630D01*
X118107107Y-81949487D01*
X118145202Y-81911392D01*
X118183297Y-81892345D01*
X118259487Y-81873297D01*
X118316630Y-81873297D01*
X118392821Y-81892345D01*
X118430916Y-81911392D01*
X118469011Y-81949487D01*
X118488059Y-82006630D01*
X118488059Y-82044726D01*
X118469011Y-82101868D01*
X118449964Y-82120916D01*
X118316630Y-82120916D01*
X118316630Y-82044726D01*
X118107107Y-60801868D02*
X118088059Y-60763773D01*
X118088059Y-60706630D01*
X118107107Y-60649487D01*
X118145202Y-60611392D01*
X118183297Y-60592345D01*
X118259487Y-60573297D01*
X118316630Y-60573297D01*
X118392821Y-60592345D01*
X118430916Y-60611392D01*
X118469011Y-60649487D01*
X118488059Y-60706630D01*
X118488059Y-60744726D01*
X118469011Y-60801868D01*
X118449964Y-60820916D01*
X118316630Y-60820916D01*
X118316630Y-60744726D01*
X93107107Y-102101868D02*
X93088059Y-102063773D01*
X93088059Y-102006630D01*
X93107107Y-101949487D01*
X93145202Y-101911392D01*
X93183297Y-101892345D01*
X93259487Y-101873297D01*
X93316630Y-101873297D01*
X93392821Y-101892345D01*
X93430916Y-101911392D01*
X93469011Y-101949487D01*
X93488059Y-102006630D01*
X93488059Y-102044726D01*
X93469011Y-102101868D01*
X93449964Y-102120916D01*
X93316630Y-102120916D01*
X93316630Y-102044726D01*
X168688059Y-121688059D02*
X168688059Y-121726154D01*
X168707107Y-121764249D01*
X168726154Y-121783297D01*
X168764249Y-121802345D01*
X168840440Y-121821392D01*
X168935678Y-121821392D01*
X169011868Y-121802345D01*
X169049964Y-121783297D01*
X169069011Y-121764249D01*
X169088059Y-121726154D01*
X169088059Y-121688059D01*
X169069011Y-121649964D01*
X169049964Y-121630916D01*
X169011868Y-121611868D01*
X168935678Y-121592821D01*
X168840440Y-121592821D01*
X168764249Y-121611868D01*
X168726154Y-121630916D01*
X168707107Y-121649964D01*
X168688059Y-121688059D01*
X118788059Y-119573773D02*
X118788059Y-119821392D01*
X118940440Y-119688059D01*
X118940440Y-119745202D01*
X118959487Y-119783297D01*
X118978535Y-119802345D01*
X119016630Y-119821392D01*
X119111868Y-119821392D01*
X119149964Y-119802345D01*
X119169011Y-119783297D01*
X119188059Y-119745202D01*
X119188059Y-119630916D01*
X119169011Y-119592821D01*
X119149964Y-119573773D01*
X96721392Y-78483297D02*
X96988059Y-78483297D01*
X96569011Y-78388059D02*
X96854726Y-78292821D01*
X96854726Y-78540440D01*
X92426154Y-78292821D02*
X92407107Y-78311868D01*
X92388059Y-78349964D01*
X92388059Y-78445202D01*
X92407107Y-78483297D01*
X92426154Y-78502345D01*
X92464249Y-78521392D01*
X92502345Y-78521392D01*
X92559487Y-78502345D01*
X92788059Y-78273773D01*
X92788059Y-78521392D01*
X168788059Y-58273773D02*
X168788059Y-58521392D01*
X168940440Y-58388059D01*
X168940440Y-58445202D01*
X168959487Y-58483297D01*
X168978535Y-58502345D01*
X169016630Y-58521392D01*
X169111868Y-58521392D01*
X169149964Y-58502345D01*
X169169011Y-58483297D01*
X169188059Y-58445202D01*
X169188059Y-58330916D01*
X169169011Y-58292821D01*
X169149964Y-58273773D01*
X171721392Y-118483297D02*
X171988059Y-118483297D01*
X171569011Y-118388059D02*
X171854726Y-118292821D01*
X171854726Y-118540440D01*
X146721392Y-78483297D02*
X146988059Y-78483297D01*
X146569011Y-78388059D02*
X146854726Y-78292821D01*
X146854726Y-78540440D01*
X121721392Y-57183297D02*
X121988059Y-57183297D01*
X121569011Y-57088059D02*
X121854726Y-56992821D01*
X121854726Y-57240440D01*
X168107107Y-82101868D02*
X168088059Y-82063773D01*
X168088059Y-82006630D01*
X168107107Y-81949487D01*
X168145202Y-81911392D01*
X168183297Y-81892345D01*
X168259487Y-81873297D01*
X168316630Y-81873297D01*
X168392821Y-81892345D01*
X168430916Y-81911392D01*
X168469011Y-81949487D01*
X168488059Y-82006630D01*
X168488059Y-82044726D01*
X168469011Y-82101868D01*
X168449964Y-82120916D01*
X168316630Y-82120916D01*
X168316630Y-82044726D01*
X171721392Y-57183297D02*
X171988059Y-57183297D01*
X171569011Y-57088059D02*
X171854726Y-56992821D01*
X171854726Y-57240440D01*
X168788059Y-59321392D02*
X168788059Y-59092821D01*
X168788059Y-59207107D02*
X168388059Y-59207107D01*
X168445202Y-59169011D01*
X168483297Y-59130916D01*
X168502345Y-59092821D01*
X121288059Y-102130916D02*
X121097583Y-101997583D01*
X121288059Y-101902345D02*
X120888059Y-101902345D01*
X120888059Y-102054726D01*
X120907107Y-102092821D01*
X120926154Y-102111868D01*
X120964249Y-102130916D01*
X121021392Y-102130916D01*
X121059487Y-102111868D01*
X121078535Y-102092821D01*
X121097583Y-102054726D01*
X121097583Y-101902345D01*
X143107107Y-82101868D02*
X143088059Y-82063773D01*
X143088059Y-82006630D01*
X143107107Y-81949487D01*
X143145202Y-81911392D01*
X143183297Y-81892345D01*
X143259487Y-81873297D01*
X143316630Y-81873297D01*
X143392821Y-81892345D01*
X143430916Y-81911392D01*
X143469011Y-81949487D01*
X143488059Y-82006630D01*
X143488059Y-82044726D01*
X143469011Y-82101868D01*
X143449964Y-82120916D01*
X143316630Y-82120916D01*
X143316630Y-82044726D01*
X93788059Y-99573773D02*
X93788059Y-99821392D01*
X93940440Y-99688059D01*
X93940440Y-99745202D01*
X93959487Y-99783297D01*
X93978535Y-99802345D01*
X94016630Y-99821392D01*
X94111868Y-99821392D01*
X94149964Y-99802345D01*
X94169011Y-99783297D01*
X94188059Y-99745202D01*
X94188059Y-99630916D01*
X94169011Y-99592821D01*
X94149964Y-99573773D01*
X143788059Y-79573773D02*
X143788059Y-79821392D01*
X143940440Y-79688059D01*
X143940440Y-79745202D01*
X143959487Y-79783297D01*
X143978535Y-79802345D01*
X144016630Y-79821392D01*
X144111868Y-79821392D01*
X144149964Y-79802345D01*
X144169011Y-79783297D01*
X144188059Y-79745202D01*
X144188059Y-79630916D01*
X144169011Y-79592821D01*
X144149964Y-79573773D01*
X93788059Y-100621392D02*
X93788059Y-100392821D01*
X93788059Y-100507107D02*
X93388059Y-100507107D01*
X93445202Y-100469011D01*
X93483297Y-100430916D01*
X93502345Y-100392821D01*
X118688059Y-81688059D02*
X118688059Y-81726154D01*
X118707107Y-81764249D01*
X118726154Y-81783297D01*
X118764249Y-81802345D01*
X118840440Y-81821392D01*
X118935678Y-81821392D01*
X119011868Y-81802345D01*
X119049964Y-81783297D01*
X119069011Y-81764249D01*
X119088059Y-81726154D01*
X119088059Y-81688059D01*
X119069011Y-81649964D01*
X119049964Y-81630916D01*
X119011868Y-81611868D01*
X118935678Y-81592821D01*
X118840440Y-81592821D01*
X118764249Y-81611868D01*
X118726154Y-81630916D01*
X118707107Y-81649964D01*
X118688059Y-81688059D01*
X143788059Y-80621392D02*
X143788059Y-80392821D01*
X143788059Y-80507107D02*
X143388059Y-80507107D01*
X143445202Y-80469011D01*
X143483297Y-80430916D01*
X143502345Y-80392821D01*
X118688059Y-121688059D02*
X118688059Y-121726154D01*
X118707107Y-121764249D01*
X118726154Y-121783297D01*
X118764249Y-121802345D01*
X118840440Y-121821392D01*
X118935678Y-121821392D01*
X119011868Y-121802345D01*
X119049964Y-121783297D01*
X119069011Y-121764249D01*
X119088059Y-121726154D01*
X119088059Y-121688059D01*
X119069011Y-121649964D01*
X119049964Y-121630916D01*
X119011868Y-121611868D01*
X118935678Y-121592821D01*
X118840440Y-121592821D01*
X118764249Y-121611868D01*
X118726154Y-121630916D01*
X118707107Y-121649964D01*
X118688059Y-121688059D01*
X145688059Y-80602345D02*
X145688059Y-80411868D01*
X145878535Y-80392821D01*
X145859487Y-80411868D01*
X145840440Y-80449964D01*
X145840440Y-80545202D01*
X145859487Y-80583297D01*
X145878535Y-80602345D01*
X145916630Y-80621392D01*
X146011868Y-80621392D01*
X146049964Y-80602345D01*
X146069011Y-80583297D01*
X146088059Y-80545202D01*
X146088059Y-80449964D01*
X146069011Y-80411868D01*
X146049964Y-80392821D01*
X118788059Y-80621392D02*
X118788059Y-80392821D01*
X118788059Y-80507107D02*
X118388059Y-80507107D01*
X118445202Y-80469011D01*
X118483297Y-80430916D01*
X118502345Y-80392821D01*
X143107107Y-122101868D02*
X143088059Y-122063773D01*
X143088059Y-122006630D01*
X143107107Y-121949487D01*
X143145202Y-121911392D01*
X143183297Y-121892345D01*
X143259487Y-121873297D01*
X143316630Y-121873297D01*
X143392821Y-121892345D01*
X143430916Y-121911392D01*
X143469011Y-121949487D01*
X143488059Y-122006630D01*
X143488059Y-122044726D01*
X143469011Y-122101868D01*
X143449964Y-122120916D01*
X143316630Y-122120916D01*
X143316630Y-122044726D01*
X146721392Y-57183297D02*
X146988059Y-57183297D01*
X146569011Y-57088059D02*
X146854726Y-56992821D01*
X146854726Y-57240440D01*
X121288059Y-122130916D02*
X121097583Y-121997583D01*
X121288059Y-121902345D02*
X120888059Y-121902345D01*
X120888059Y-122054726D01*
X120907107Y-122092821D01*
X120926154Y-122111868D01*
X120964249Y-122130916D01*
X121021392Y-122130916D01*
X121059487Y-122111868D01*
X121078535Y-122092821D01*
X121097583Y-122054726D01*
X121097583Y-121902345D01*
X117426154Y-78292821D02*
X117407107Y-78311868D01*
X117388059Y-78349964D01*
X117388059Y-78445202D01*
X117407107Y-78483297D01*
X117426154Y-78502345D01*
X117464249Y-78521392D01*
X117502345Y-78521392D01*
X117559487Y-78502345D01*
X117788059Y-78273773D01*
X117788059Y-78521392D01*
X171721392Y-98483297D02*
X171988059Y-98483297D01*
X171569011Y-98388059D02*
X171854726Y-98292821D01*
X171854726Y-98540440D01*
X120688059Y-80602345D02*
X120688059Y-80411868D01*
X120878535Y-80392821D01*
X120859487Y-80411868D01*
X120840440Y-80449964D01*
X120840440Y-80545202D01*
X120859487Y-80583297D01*
X120878535Y-80602345D01*
X120916630Y-80621392D01*
X121011868Y-80621392D01*
X121049964Y-80602345D01*
X121069011Y-80583297D01*
X121088059Y-80545202D01*
X121088059Y-80449964D01*
X121069011Y-80411868D01*
X121049964Y-80392821D01*
X168107107Y-102101868D02*
X168088059Y-102063773D01*
X168088059Y-102006630D01*
X168107107Y-101949487D01*
X168145202Y-101911392D01*
X168183297Y-101892345D01*
X168259487Y-101873297D01*
X168316630Y-101873297D01*
X168392821Y-101892345D01*
X168430916Y-101911392D01*
X168469011Y-101949487D01*
X168488059Y-102006630D01*
X168488059Y-102044726D01*
X168469011Y-102101868D01*
X168449964Y-102120916D01*
X168316630Y-102120916D01*
X168316630Y-102044726D01*
X93688059Y-121688059D02*
X93688059Y-121726154D01*
X93707107Y-121764249D01*
X93726154Y-121783297D01*
X93764249Y-121802345D01*
X93840440Y-121821392D01*
X93935678Y-121821392D01*
X94011868Y-121802345D01*
X94049964Y-121783297D01*
X94069011Y-121764249D01*
X94088059Y-121726154D01*
X94088059Y-121688059D01*
X94069011Y-121649964D01*
X94049964Y-121630916D01*
X94011868Y-121611868D01*
X93935678Y-121592821D01*
X93840440Y-121592821D01*
X93764249Y-121611868D01*
X93726154Y-121630916D01*
X93707107Y-121649964D01*
X93688059Y-121688059D01*
X146288059Y-60830916D02*
X146097583Y-60697583D01*
X146288059Y-60602345D02*
X145888059Y-60602345D01*
X145888059Y-60754726D01*
X145907107Y-60792821D01*
X145926154Y-60811868D01*
X145964249Y-60830916D01*
X146021392Y-60830916D01*
X146059487Y-60811868D01*
X146078535Y-60792821D01*
X146097583Y-60754726D01*
X146097583Y-60602345D01*
X167426154Y-98292821D02*
X167407107Y-98311868D01*
X167388059Y-98349964D01*
X167388059Y-98445202D01*
X167407107Y-98483297D01*
X167426154Y-98502345D01*
X167464249Y-98521392D01*
X167502345Y-98521392D01*
X167559487Y-98502345D01*
X167788059Y-98273773D01*
X167788059Y-98521392D01*
X142426154Y-56992821D02*
X142407107Y-57011868D01*
X142388059Y-57049964D01*
X142388059Y-57145202D01*
X142407107Y-57183297D01*
X142426154Y-57202345D01*
X142464249Y-57221392D01*
X142502345Y-57221392D01*
X142559487Y-57202345D01*
X142788059Y-56973773D01*
X142788059Y-57221392D01*
X120688059Y-59302345D02*
X120688059Y-59111868D01*
X120878535Y-59092821D01*
X120859487Y-59111868D01*
X120840440Y-59149964D01*
X120840440Y-59245202D01*
X120859487Y-59283297D01*
X120878535Y-59302345D01*
X120916630Y-59321392D01*
X121011868Y-59321392D01*
X121049964Y-59302345D01*
X121069011Y-59283297D01*
X121088059Y-59245202D01*
X121088059Y-59149964D01*
X121069011Y-59111868D01*
X121049964Y-59092821D01*
X145688059Y-120602345D02*
X145688059Y-120411868D01*
X145878535Y-120392821D01*
X145859487Y-120411868D01*
X145840440Y-120449964D01*
X145840440Y-120545202D01*
X145859487Y-120583297D01*
X145878535Y-120602345D01*
X145916630Y-120621392D01*
X146011868Y-120621392D01*
X146049964Y-120602345D01*
X146069011Y-120583297D01*
X146088059Y-120545202D01*
X146088059Y-120449964D01*
X146069011Y-120411868D01*
X146049964Y-120392821D01*
X118688059Y-101688059D02*
X118688059Y-101726154D01*
X118707107Y-101764249D01*
X118726154Y-101783297D01*
X118764249Y-101802345D01*
X118840440Y-101821392D01*
X118935678Y-101821392D01*
X119011868Y-101802345D01*
X119049964Y-101783297D01*
X119069011Y-101764249D01*
X119088059Y-101726154D01*
X119088059Y-101688059D01*
X119069011Y-101649964D01*
X119049964Y-101630916D01*
X119011868Y-101611868D01*
X118935678Y-101592821D01*
X118840440Y-101592821D01*
X118764249Y-101611868D01*
X118726154Y-101630916D01*
X118707107Y-101649964D01*
X118688059Y-101688059D01*
X120688059Y-100602345D02*
X120688059Y-100411868D01*
X120878535Y-100392821D01*
X120859487Y-100411868D01*
X120840440Y-100449964D01*
X120840440Y-100545202D01*
X120859487Y-100583297D01*
X120878535Y-100602345D01*
X120916630Y-100621392D01*
X121011868Y-100621392D01*
X121049964Y-100602345D01*
X121069011Y-100583297D01*
X121088059Y-100545202D01*
X121088059Y-100449964D01*
X121069011Y-100411868D01*
X121049964Y-100392821D01*
X92426154Y-56992821D02*
X92407107Y-57011868D01*
X92388059Y-57049964D01*
X92388059Y-57145202D01*
X92407107Y-57183297D01*
X92426154Y-57202345D01*
X92464249Y-57221392D01*
X92502345Y-57221392D01*
X92559487Y-57202345D01*
X92788059Y-56973773D01*
X92788059Y-57221392D01*
X146721392Y-118483297D02*
X146988059Y-118483297D01*
X146569011Y-118388059D02*
X146854726Y-118292821D01*
X146854726Y-118540440D01*
X167426154Y-56992821D02*
X167407107Y-57011868D01*
X167388059Y-57049964D01*
X167388059Y-57145202D01*
X167407107Y-57183297D01*
X167426154Y-57202345D01*
X167464249Y-57221392D01*
X167502345Y-57221392D01*
X167559487Y-57202345D01*
X167788059Y-56973773D01*
X167788059Y-57221392D01*
X168688059Y-101688059D02*
X168688059Y-101726154D01*
X168707107Y-101764249D01*
X168726154Y-101783297D01*
X168764249Y-101802345D01*
X168840440Y-101821392D01*
X168935678Y-101821392D01*
X169011868Y-101802345D01*
X169049964Y-101783297D01*
X169069011Y-101764249D01*
X169088059Y-101726154D01*
X169088059Y-101688059D01*
X169069011Y-101649964D01*
X169049964Y-101630916D01*
X169011868Y-101611868D01*
X168935678Y-101592821D01*
X168840440Y-101592821D01*
X168764249Y-101611868D01*
X168726154Y-101630916D01*
X168707107Y-101649964D01*
X168688059Y-101688059D01*
X93788059Y-59321392D02*
X93788059Y-59092821D01*
X93788059Y-59207107D02*
X93388059Y-59207107D01*
X93445202Y-59169011D01*
X93483297Y-59130916D01*
X93502345Y-59092821D01*
X142426154Y-98292821D02*
X142407107Y-98311868D01*
X142388059Y-98349964D01*
X142388059Y-98445202D01*
X142407107Y-98483297D01*
X142426154Y-98502345D01*
X142464249Y-98521392D01*
X142502345Y-98521392D01*
X142559487Y-98502345D01*
X142788059Y-98273773D01*
X142788059Y-98521392D01*
X143788059Y-100621392D02*
X143788059Y-100392821D01*
X143788059Y-100507107D02*
X143388059Y-100507107D01*
X143445202Y-100469011D01*
X143483297Y-100430916D01*
X143502345Y-100392821D01*
X92426154Y-118292821D02*
X92407107Y-118311868D01*
X92388059Y-118349964D01*
X92388059Y-118445202D01*
X92407107Y-118483297D01*
X92426154Y-118502345D01*
X92464249Y-118521392D01*
X92502345Y-118521392D01*
X92559487Y-118502345D01*
X92788059Y-118273773D01*
X92788059Y-118521392D01*
X93107107Y-82101868D02*
X93088059Y-82063773D01*
X93088059Y-82006630D01*
X93107107Y-81949487D01*
X93145202Y-81911392D01*
X93183297Y-81892345D01*
X93259487Y-81873297D01*
X93316630Y-81873297D01*
X93392821Y-81892345D01*
X93430916Y-81911392D01*
X93469011Y-81949487D01*
X93488059Y-82006630D01*
X93488059Y-82044726D01*
X93469011Y-82101868D01*
X93449964Y-82120916D01*
X93316630Y-82120916D01*
X93316630Y-82044726D01*
X118788059Y-120621392D02*
X118788059Y-120392821D01*
X118788059Y-120507107D02*
X118388059Y-120507107D01*
X118445202Y-120469011D01*
X118483297Y-120430916D01*
X118502345Y-120392821D01*
X117426154Y-98292821D02*
X117407107Y-98311868D01*
X117388059Y-98349964D01*
X117388059Y-98445202D01*
X117407107Y-98483297D01*
X117426154Y-98502345D01*
X117464249Y-98521392D01*
X117502345Y-98521392D01*
X117559487Y-98502345D01*
X117788059Y-98273773D01*
X117788059Y-98521392D01*
X117426154Y-118292821D02*
X117407107Y-118311868D01*
X117388059Y-118349964D01*
X117388059Y-118445202D01*
X117407107Y-118483297D01*
X117426154Y-118502345D01*
X117464249Y-118521392D01*
X117502345Y-118521392D01*
X117559487Y-118502345D01*
X117788059Y-118273773D01*
X117788059Y-118521392D01*
X168788059Y-119573773D02*
X168788059Y-119821392D01*
X168940440Y-119688059D01*
X168940440Y-119745202D01*
X168959487Y-119783297D01*
X168978535Y-119802345D01*
X169016630Y-119821392D01*
X169111868Y-119821392D01*
X169149964Y-119802345D01*
X169169011Y-119783297D01*
X169188059Y-119745202D01*
X169188059Y-119630916D01*
X169169011Y-119592821D01*
X169149964Y-119573773D01*
X118688059Y-60388059D02*
X118688059Y-60426154D01*
X118707107Y-60464249D01*
X118726154Y-60483297D01*
X118764249Y-60502345D01*
X118840440Y-60521392D01*
X118935678Y-60521392D01*
X119011868Y-60502345D01*
X119049964Y-60483297D01*
X119069011Y-60464249D01*
X119088059Y-60426154D01*
X119088059Y-60388059D01*
X119069011Y-60349964D01*
X119049964Y-60330916D01*
X119011868Y-60311868D01*
X118935678Y-60292821D01*
X118840440Y-60292821D01*
X118764249Y-60311868D01*
X118726154Y-60330916D01*
X118707107Y-60349964D01*
X118688059Y-60388059D01*
X146288059Y-102130916D02*
X146097583Y-101997583D01*
X146288059Y-101902345D02*
X145888059Y-101902345D01*
X145888059Y-102054726D01*
X145907107Y-102092821D01*
X145926154Y-102111868D01*
X145964249Y-102130916D01*
X146021392Y-102130916D01*
X146059487Y-102111868D01*
X146078535Y-102092821D01*
X146097583Y-102054726D01*
X146097583Y-101902345D01*
X95688059Y-80602345D02*
X95688059Y-80411868D01*
X95878535Y-80392821D01*
X95859487Y-80411868D01*
X95840440Y-80449964D01*
X95840440Y-80545202D01*
X95859487Y-80583297D01*
X95878535Y-80602345D01*
X95916630Y-80621392D01*
X96011868Y-80621392D01*
X96049964Y-80602345D01*
X96069011Y-80583297D01*
X96088059Y-80545202D01*
X96088059Y-80449964D01*
X96069011Y-80411868D01*
X96049964Y-80392821D01*
X145688059Y-59302345D02*
X145688059Y-59111868D01*
X145878535Y-59092821D01*
X145859487Y-59111868D01*
X145840440Y-59149964D01*
X145840440Y-59245202D01*
X145859487Y-59283297D01*
X145878535Y-59302345D01*
X145916630Y-59321392D01*
X146011868Y-59321392D01*
X146049964Y-59302345D01*
X146069011Y-59283297D01*
X146088059Y-59245202D01*
X146088059Y-59149964D01*
X146069011Y-59111868D01*
X146049964Y-59092821D01*
X93788059Y-120621392D02*
X93788059Y-120392821D01*
X93788059Y-120507107D02*
X93388059Y-120507107D01*
X93445202Y-120469011D01*
X93483297Y-120430916D01*
X93502345Y-120392821D01*
X171721392Y-78483297D02*
X171988059Y-78483297D01*
X171569011Y-78388059D02*
X171854726Y-78292821D01*
X171854726Y-78540440D01*
X93788059Y-80621392D02*
X93788059Y-80392821D01*
X93788059Y-80507107D02*
X93388059Y-80507107D01*
X93445202Y-80469011D01*
X93483297Y-80430916D01*
X93502345Y-80392821D01*
X121288059Y-82130916D02*
X121097583Y-81997583D01*
X121288059Y-81902345D02*
X120888059Y-81902345D01*
X120888059Y-82054726D01*
X120907107Y-82092821D01*
X120926154Y-82111868D01*
X120964249Y-82130916D01*
X121021392Y-82130916D01*
X121059487Y-82111868D01*
X121078535Y-82092821D01*
X121097583Y-82054726D01*
X121097583Y-81902345D01*
X168788059Y-80621392D02*
X168788059Y-80392821D01*
X168788059Y-80507107D02*
X168388059Y-80507107D01*
X168445202Y-80469011D01*
X168483297Y-80430916D01*
X168502345Y-80392821D01*
X145688059Y-100602345D02*
X145688059Y-100411868D01*
X145878535Y-100392821D01*
X145859487Y-100411868D01*
X145840440Y-100449964D01*
X145840440Y-100545202D01*
X145859487Y-100583297D01*
X145878535Y-100602345D01*
X145916630Y-100621392D01*
X146011868Y-100621392D01*
X146049964Y-100602345D01*
X146069011Y-100583297D01*
X146088059Y-100545202D01*
X146088059Y-100449964D01*
X146069011Y-100411868D01*
X146049964Y-100392821D01*
X96288059Y-60830916D02*
X96097583Y-60697583D01*
X96288059Y-60602345D02*
X95888059Y-60602345D01*
X95888059Y-60754726D01*
X95907107Y-60792821D01*
X95926154Y-60811868D01*
X95964249Y-60830916D01*
X96021392Y-60830916D01*
X96059487Y-60811868D01*
X96078535Y-60792821D01*
X96097583Y-60754726D01*
X96097583Y-60602345D01*
X170688059Y-59302345D02*
X170688059Y-59111868D01*
X170878535Y-59092821D01*
X170859487Y-59111868D01*
X170840440Y-59149964D01*
X170840440Y-59245202D01*
X170859487Y-59283297D01*
X170878535Y-59302345D01*
X170916630Y-59321392D01*
X171011868Y-59321392D01*
X171049964Y-59302345D01*
X171069011Y-59283297D01*
X171088059Y-59245202D01*
X171088059Y-59149964D01*
X171069011Y-59111868D01*
X171049964Y-59092821D01*
X118788059Y-100621392D02*
X118788059Y-100392821D01*
X118788059Y-100507107D02*
X118388059Y-100507107D01*
X118445202Y-100469011D01*
X118483297Y-100430916D01*
X118502345Y-100392821D01*
X92426154Y-98292821D02*
X92407107Y-98311868D01*
X92388059Y-98349964D01*
X92388059Y-98445202D01*
X92407107Y-98483297D01*
X92426154Y-98502345D01*
X92464249Y-98521392D01*
X92502345Y-98521392D01*
X92559487Y-98502345D01*
X92788059Y-98273773D01*
X92788059Y-98521392D01*
X170688059Y-80602345D02*
X170688059Y-80411868D01*
X170878535Y-80392821D01*
X170859487Y-80411868D01*
X170840440Y-80449964D01*
X170840440Y-80545202D01*
X170859487Y-80583297D01*
X170878535Y-80602345D01*
X170916630Y-80621392D01*
X171011868Y-80621392D01*
X171049964Y-80602345D01*
X171069011Y-80583297D01*
X171088059Y-80545202D01*
X171088059Y-80449964D01*
X171069011Y-80411868D01*
X171049964Y-80392821D01*
X171288059Y-82130916D02*
X171097583Y-81997583D01*
X171288059Y-81902345D02*
X170888059Y-81902345D01*
X170888059Y-82054726D01*
X170907107Y-82092821D01*
X170926154Y-82111868D01*
X170964249Y-82130916D01*
X171021392Y-82130916D01*
X171059487Y-82111868D01*
X171078535Y-82092821D01*
X171097583Y-82054726D01*
X171097583Y-81902345D01*
X96288059Y-82130916D02*
X96097583Y-81997583D01*
X96288059Y-81902345D02*
X95888059Y-81902345D01*
X95888059Y-82054726D01*
X95907107Y-82092821D01*
X95926154Y-82111868D01*
X95964249Y-82130916D01*
X96021392Y-82130916D01*
X96059487Y-82111868D01*
X96078535Y-82092821D01*
X96097583Y-82054726D01*
X96097583Y-81902345D01*
X96721392Y-98483297D02*
X96988059Y-98483297D01*
X96569011Y-98388059D02*
X96854726Y-98292821D01*
X96854726Y-98540440D01*
X121721392Y-118483297D02*
X121988059Y-118483297D01*
X121569011Y-118388059D02*
X121854726Y-118292821D01*
X121854726Y-118540440D01*
X146721392Y-98483297D02*
X146988059Y-98483297D01*
X146569011Y-98388059D02*
X146854726Y-98292821D01*
X146854726Y-98540440D01*
X93688059Y-60388059D02*
X93688059Y-60426154D01*
X93707107Y-60464249D01*
X93726154Y-60483297D01*
X93764249Y-60502345D01*
X93840440Y-60521392D01*
X93935678Y-60521392D01*
X94011868Y-60502345D01*
X94049964Y-60483297D01*
X94069011Y-60464249D01*
X94088059Y-60426154D01*
X94088059Y-60388059D01*
X94069011Y-60349964D01*
X94049964Y-60330916D01*
X94011868Y-60311868D01*
X93935678Y-60292821D01*
X93840440Y-60292821D01*
X93764249Y-60311868D01*
X93726154Y-60330916D01*
X93707107Y-60349964D01*
X93688059Y-60388059D01*
X117426154Y-56992821D02*
X117407107Y-57011868D01*
X117388059Y-57049964D01*
X117388059Y-57145202D01*
X117407107Y-57183297D01*
X117426154Y-57202345D01*
X117464249Y-57221392D01*
X117502345Y-57221392D01*
X117559487Y-57202345D01*
X117788059Y-56973773D01*
X117788059Y-57221392D01*
X143688059Y-101688059D02*
X143688059Y-101726154D01*
X143707107Y-101764249D01*
X143726154Y-101783297D01*
X143764249Y-101802345D01*
X143840440Y-101821392D01*
X143935678Y-101821392D01*
X144011868Y-101802345D01*
X144049964Y-101783297D01*
X144069011Y-101764249D01*
X144088059Y-101726154D01*
X144088059Y-101688059D01*
X144069011Y-101649964D01*
X144049964Y-101630916D01*
X144011868Y-101611868D01*
X143935678Y-101592821D01*
X143840440Y-101592821D01*
X143764249Y-101611868D01*
X143726154Y-101630916D01*
X143707107Y-101649964D01*
X143688059Y-101688059D01*
X167426154Y-118292821D02*
X167407107Y-118311868D01*
X167388059Y-118349964D01*
X167388059Y-118445202D01*
X167407107Y-118483297D01*
X167426154Y-118502345D01*
X167464249Y-118521392D01*
X167502345Y-118521392D01*
X167559487Y-118502345D01*
X167788059Y-118273773D01*
X167788059Y-118521392D01*
X93788059Y-58273773D02*
X93788059Y-58521392D01*
X93940440Y-58388059D01*
X93940440Y-58445202D01*
X93959487Y-58483297D01*
X93978535Y-58502345D01*
X94016630Y-58521392D01*
X94111868Y-58521392D01*
X94149964Y-58502345D01*
X94169011Y-58483297D01*
X94188059Y-58445202D01*
X94188059Y-58330916D01*
X94169011Y-58292821D01*
X94149964Y-58273773D01*
X93688059Y-101688059D02*
X93688059Y-101726154D01*
X93707107Y-101764249D01*
X93726154Y-101783297D01*
X93764249Y-101802345D01*
X93840440Y-101821392D01*
X93935678Y-101821392D01*
X94011868Y-101802345D01*
X94049964Y-101783297D01*
X94069011Y-101764249D01*
X94088059Y-101726154D01*
X94088059Y-101688059D01*
X94069011Y-101649964D01*
X94049964Y-101630916D01*
X94011868Y-101611868D01*
X93935678Y-101592821D01*
X93840440Y-101592821D01*
X93764249Y-101611868D01*
X93726154Y-101630916D01*
X93707107Y-101649964D01*
X93688059Y-101688059D01*
X143688059Y-60388059D02*
X143688059Y-60426154D01*
X143707107Y-60464249D01*
X143726154Y-60483297D01*
X143764249Y-60502345D01*
X143840440Y-60521392D01*
X143935678Y-60521392D01*
X144011868Y-60502345D01*
X144049964Y-60483297D01*
X144069011Y-60464249D01*
X144088059Y-60426154D01*
X144088059Y-60388059D01*
X144069011Y-60349964D01*
X144049964Y-60330916D01*
X144011868Y-60311868D01*
X143935678Y-60292821D01*
X143840440Y-60292821D01*
X143764249Y-60311868D01*
X143726154Y-60330916D01*
X143707107Y-60349964D01*
X143688059Y-60388059D01*
X143788059Y-99573773D02*
X143788059Y-99821392D01*
X143940440Y-99688059D01*
X143940440Y-99745202D01*
X143959487Y-99783297D01*
X143978535Y-99802345D01*
X144016630Y-99821392D01*
X144111868Y-99821392D01*
X144149964Y-99802345D01*
X144169011Y-99783297D01*
X144188059Y-99745202D01*
X144188059Y-99630916D01*
X144169011Y-99592821D01*
X144149964Y-99573773D01*
X96721392Y-118483297D02*
X96988059Y-118483297D01*
X96569011Y-118388059D02*
X96854726Y-118292821D01*
X96854726Y-118540440D01*
X95688059Y-100602345D02*
X95688059Y-100411868D01*
X95878535Y-100392821D01*
X95859487Y-100411868D01*
X95840440Y-100449964D01*
X95840440Y-100545202D01*
X95859487Y-100583297D01*
X95878535Y-100602345D01*
X95916630Y-100621392D01*
X96011868Y-100621392D01*
X96049964Y-100602345D01*
X96069011Y-100583297D01*
X96088059Y-100545202D01*
X96088059Y-100449964D01*
X96069011Y-100411868D01*
X96049964Y-100392821D01*
X168788059Y-99573773D02*
X168788059Y-99821392D01*
X168940440Y-99688059D01*
X168940440Y-99745202D01*
X168959487Y-99783297D01*
X168978535Y-99802345D01*
X169016630Y-99821392D01*
X169111868Y-99821392D01*
X169149964Y-99802345D01*
X169169011Y-99783297D01*
X169188059Y-99745202D01*
X169188059Y-99630916D01*
X169169011Y-99592821D01*
X169149964Y-99573773D01*
X121721392Y-78483297D02*
X121988059Y-78483297D01*
X121569011Y-78388059D02*
X121854726Y-78292821D01*
X121854726Y-78540440D01*
X96288059Y-122130916D02*
X96097583Y-121997583D01*
X96288059Y-121902345D02*
X95888059Y-121902345D01*
X95888059Y-122054726D01*
X95907107Y-122092821D01*
X95926154Y-122111868D01*
X95964249Y-122130916D01*
X96021392Y-122130916D01*
X96059487Y-122111868D01*
X96078535Y-122092821D01*
X96097583Y-122054726D01*
X96097583Y-121902345D01*
X143788059Y-58273773D02*
X143788059Y-58521392D01*
X143940440Y-58388059D01*
X143940440Y-58445202D01*
X143959487Y-58483297D01*
X143978535Y-58502345D01*
X144016630Y-58521392D01*
X144111868Y-58521392D01*
X144149964Y-58502345D01*
X144169011Y-58483297D01*
X144188059Y-58445202D01*
X144188059Y-58330916D01*
X144169011Y-58292821D01*
X144149964Y-58273773D01*
X142426154Y-78292821D02*
X142407107Y-78311868D01*
X142388059Y-78349964D01*
X142388059Y-78445202D01*
X142407107Y-78483297D01*
X142426154Y-78502345D01*
X142464249Y-78521392D01*
X142502345Y-78521392D01*
X142559487Y-78502345D01*
X142788059Y-78273773D01*
X142788059Y-78521392D01*
X143688059Y-121688059D02*
X143688059Y-121726154D01*
X143707107Y-121764249D01*
X143726154Y-121783297D01*
X143764249Y-121802345D01*
X143840440Y-121821392D01*
X143935678Y-121821392D01*
X144011868Y-121802345D01*
X144049964Y-121783297D01*
X144069011Y-121764249D01*
X144088059Y-121726154D01*
X144088059Y-121688059D01*
X144069011Y-121649964D01*
X144049964Y-121630916D01*
X144011868Y-121611868D01*
X143935678Y-121592821D01*
X143840440Y-121592821D01*
X143764249Y-121611868D01*
X143726154Y-121630916D01*
X143707107Y-121649964D01*
X143688059Y-121688059D01*
X118788059Y-59321392D02*
X118788059Y-59092821D01*
X118788059Y-59207107D02*
X118388059Y-59207107D01*
X118445202Y-59169011D01*
X118483297Y-59130916D01*
X118502345Y-59092821D01*
X93788059Y-79573773D02*
X93788059Y-79821392D01*
X93940440Y-79688059D01*
X93940440Y-79745202D01*
X93959487Y-79783297D01*
X93978535Y-79802345D01*
X94016630Y-79821392D01*
X94111868Y-79821392D01*
X94149964Y-79802345D01*
X94169011Y-79783297D01*
X94188059Y-79745202D01*
X94188059Y-79630916D01*
X94169011Y-79592821D01*
X94149964Y-79573773D01*
X96721392Y-57183297D02*
X96988059Y-57183297D01*
X96569011Y-57088059D02*
X96854726Y-56992821D01*
X96854726Y-57240440D01*
X118107107Y-122101868D02*
X118088059Y-122063773D01*
X118088059Y-122006630D01*
X118107107Y-121949487D01*
X118145202Y-121911392D01*
X118183297Y-121892345D01*
X118259487Y-121873297D01*
X118316630Y-121873297D01*
X118392821Y-121892345D01*
X118430916Y-121911392D01*
X118469011Y-121949487D01*
X118488059Y-122006630D01*
X118488059Y-122044726D01*
X118469011Y-122101868D01*
X118449964Y-122120916D01*
X118316630Y-122120916D01*
X118316630Y-122044726D01*
X170688059Y-100602345D02*
X170688059Y-100411868D01*
X170878535Y-100392821D01*
X170859487Y-100411868D01*
X170840440Y-100449964D01*
X170840440Y-100545202D01*
X170859487Y-100583297D01*
X170878535Y-100602345D01*
X170916630Y-100621392D01*
X171011868Y-100621392D01*
X171049964Y-100602345D01*
X171069011Y-100583297D01*
X171088059Y-100545202D01*
X171088059Y-100449964D01*
X171069011Y-100411868D01*
X171049964Y-100392821D01*
X171288059Y-60830916D02*
X171097583Y-60697583D01*
X171288059Y-60602345D02*
X170888059Y-60602345D01*
X170888059Y-60754726D01*
X170907107Y-60792821D01*
X170926154Y-60811868D01*
X170964249Y-60830916D01*
X171021392Y-60830916D01*
X171059487Y-60811868D01*
X171078535Y-60792821D01*
X171097583Y-60754726D01*
X171097583Y-60602345D01*
X171288059Y-122130916D02*
X171097583Y-121997583D01*
X171288059Y-121902345D02*
X170888059Y-121902345D01*
X170888059Y-122054726D01*
X170907107Y-122092821D01*
X170926154Y-122111868D01*
X170964249Y-122130916D01*
X171021392Y-122130916D01*
X171059487Y-122111868D01*
X171078535Y-122092821D01*
X171097583Y-122054726D01*
X171097583Y-121902345D01*
X168688059Y-60388059D02*
X168688059Y-60426154D01*
X168707107Y-60464249D01*
X168726154Y-60483297D01*
X168764249Y-60502345D01*
X168840440Y-60521392D01*
X168935678Y-60521392D01*
X169011868Y-60502345D01*
X169049964Y-60483297D01*
X169069011Y-60464249D01*
X169088059Y-60426154D01*
X169088059Y-60388059D01*
X169069011Y-60349964D01*
X169049964Y-60330916D01*
X169011868Y-60311868D01*
X168935678Y-60292821D01*
X168840440Y-60292821D01*
X168764249Y-60311868D01*
X168726154Y-60330916D01*
X168707107Y-60349964D01*
X168688059Y-60388059D01*
X118788059Y-58273773D02*
X118788059Y-58521392D01*
X118940440Y-58388059D01*
X118940440Y-58445202D01*
X118959487Y-58483297D01*
X118978535Y-58502345D01*
X119016630Y-58521392D01*
X119111868Y-58521392D01*
X119149964Y-58502345D01*
X119169011Y-58483297D01*
X119188059Y-58445202D01*
X119188059Y-58330916D01*
X119169011Y-58292821D01*
X119149964Y-58273773D01*
X143107107Y-60801868D02*
X143088059Y-60763773D01*
X143088059Y-60706630D01*
X143107107Y-60649487D01*
X143145202Y-60611392D01*
X143183297Y-60592345D01*
X143259487Y-60573297D01*
X143316630Y-60573297D01*
X143392821Y-60592345D01*
X143430916Y-60611392D01*
X143469011Y-60649487D01*
X143488059Y-60706630D01*
X143488059Y-60744726D01*
X143469011Y-60801868D01*
X143449964Y-60820916D01*
X143316630Y-60820916D01*
X143316630Y-60744726D01*
X93107107Y-122101868D02*
X93088059Y-122063773D01*
X93088059Y-122006630D01*
X93107107Y-121949487D01*
X93145202Y-121911392D01*
X93183297Y-121892345D01*
X93259487Y-121873297D01*
X93316630Y-121873297D01*
X93392821Y-121892345D01*
X93430916Y-121911392D01*
X93469011Y-121949487D01*
X93488059Y-122006630D01*
X93488059Y-122044726D01*
X93469011Y-122101868D01*
X93449964Y-122120916D01*
X93316630Y-122120916D01*
X93316630Y-122044726D01*
X143688059Y-81688059D02*
X143688059Y-81726154D01*
X143707107Y-81764249D01*
X143726154Y-81783297D01*
X143764249Y-81802345D01*
X143840440Y-81821392D01*
X143935678Y-81821392D01*
X144011868Y-81802345D01*
X144049964Y-81783297D01*
X144069011Y-81764249D01*
X144088059Y-81726154D01*
X144088059Y-81688059D01*
X144069011Y-81649964D01*
X144049964Y-81630916D01*
X144011868Y-81611868D01*
X143935678Y-81592821D01*
X143840440Y-81592821D01*
X143764249Y-81611868D01*
X143726154Y-81630916D01*
X143707107Y-81649964D01*
X143688059Y-81688059D01*
X95688059Y-59302345D02*
X95688059Y-59111868D01*
X95878535Y-59092821D01*
X95859487Y-59111868D01*
X95840440Y-59149964D01*
X95840440Y-59245202D01*
X95859487Y-59283297D01*
X95878535Y-59302345D01*
X95916630Y-59321392D01*
X96011868Y-59321392D01*
X96049964Y-59302345D01*
X96069011Y-59283297D01*
X96088059Y-59245202D01*
X96088059Y-59149964D01*
X96069011Y-59111868D01*
X96049964Y-59092821D01*
X146288059Y-82130916D02*
X146097583Y-81997583D01*
X146288059Y-81902345D02*
X145888059Y-81902345D01*
X145888059Y-82054726D01*
X145907107Y-82092821D01*
X145926154Y-82111868D01*
X145964249Y-82130916D01*
X146021392Y-82130916D01*
X146059487Y-82111868D01*
X146078535Y-82092821D01*
X146097583Y-82054726D01*
X146097583Y-81902345D01*
X93688059Y-81688059D02*
X93688059Y-81726154D01*
X93707107Y-81764249D01*
X93726154Y-81783297D01*
X93764249Y-81802345D01*
X93840440Y-81821392D01*
X93935678Y-81821392D01*
X94011868Y-81802345D01*
X94049964Y-81783297D01*
X94069011Y-81764249D01*
X94088059Y-81726154D01*
X94088059Y-81688059D01*
X94069011Y-81649964D01*
X94049964Y-81630916D01*
X94011868Y-81611868D01*
X93935678Y-81592821D01*
X93840440Y-81592821D01*
X93764249Y-81611868D01*
X93726154Y-81630916D01*
X93707107Y-81649964D01*
X93688059Y-81688059D01*
X143788059Y-59321392D02*
X143788059Y-59092821D01*
X143788059Y-59207107D02*
X143388059Y-59207107D01*
X143445202Y-59169011D01*
X143483297Y-59130916D01*
X143502345Y-59092821D01*
M02*
