M48
; DRILL file {KiCad (6.0.0)} date Mon Mar 28 07:48:19 2022
; FORMAT={-:-/ absolute / inch / decimal}
; #@! TF.CreationDate,2022-03-28T07:48:19-07:00
; #@! TF.GenerationSoftware,Kicad,Pcbnew,(6.0.0)
; #@! TF.FileFunction,Plated,1,2,PTH
FMAT,2
INCH
; #@! TA.AperFunction,Plated,PTH,ComponentDrill
T1C0.0120
; #@! TA.AperFunction,Plated,PTH,ComponentDrill
T2C0.1260
%
G90
G05
T1
X3.6499Y-2.2956
X3.6499Y-2.3192
X3.6499Y-2.3428
X3.6499Y-2.3664
X3.6499Y-2.39
X3.6499Y-3.1341
X3.6499Y-3.1578
X3.6499Y-3.1814
X3.6499Y-3.205
X3.6499Y-3.2286
X3.6499Y-3.9215
X3.6499Y-3.9452
X3.6499Y-3.9688
X3.6499Y-3.9924
X3.6499Y-4.016
X3.6499Y-4.7089
X3.6499Y-4.7326
X3.6499Y-4.7562
X3.6499Y-4.7798
X3.6499Y-4.8034
X3.6656Y-2.2719
X3.6656Y-3.1105
X3.6656Y-3.8979
X3.6656Y-4.6853
X3.6696Y-2.2444
X3.6696Y-3.083
X3.6696Y-3.8704
X3.6696Y-4.6578
X3.6912Y-2.2719
X3.6912Y-3.1105
X3.6912Y-3.8979
X3.6912Y-4.6853
X3.6932Y-2.2444
X3.6932Y-3.083
X3.6932Y-3.8704
X3.6932Y-4.6578
X3.7168Y-2.2444
X3.7168Y-2.2719
X3.7168Y-2.3664
X3.7168Y-2.39
X3.7168Y-3.083
X3.7168Y-3.1105
X3.7168Y-3.205
X3.7168Y-3.2286
X3.7168Y-3.8704
X3.7168Y-3.8979
X3.7168Y-3.9924
X3.7168Y-4.016
X3.7168Y-4.6578
X3.7168Y-4.6853
X3.7168Y-4.7798
X3.7168Y-4.8034
X3.7404Y-2.2444
X3.7404Y-2.2719
X3.7404Y-2.3664
X3.7404Y-2.39
X3.7404Y-3.083
X3.7404Y-3.1105
X3.7404Y-3.205
X3.7404Y-3.2286
X3.7404Y-3.8704
X3.7404Y-3.8979
X3.7404Y-3.9924
X3.7404Y-4.016
X3.7404Y-4.6578
X3.7404Y-4.6853
X3.7404Y-4.7798
X3.7404Y-4.8034
X3.7641Y-2.2444
X3.7641Y-3.083
X3.7641Y-3.8704
X3.7641Y-4.6578
X3.766Y-2.2719
X3.766Y-3.1105
X3.766Y-3.8979
X3.766Y-4.6853
X3.7877Y-2.2444
X3.7877Y-3.083
X3.7877Y-3.8704
X3.7877Y-4.6578
X3.7916Y-2.2719
X3.7916Y-3.1105
X3.7916Y-3.8979
X3.7916Y-4.6853
X3.8074Y-2.2956
X3.8074Y-2.3192
X3.8074Y-2.3428
X3.8074Y-2.3664
X3.8074Y-2.39
X3.8074Y-3.1341
X3.8074Y-3.1578
X3.8074Y-3.1814
X3.8074Y-3.205
X3.8074Y-3.2286
X3.8074Y-3.9215
X3.8074Y-3.9452
X3.8074Y-3.9688
X3.8074Y-3.9924
X3.8074Y-4.016
X3.8074Y-4.7089
X3.8074Y-4.7326
X3.8074Y-4.7562
X3.8074Y-4.7798
X3.8074Y-4.8034
X4.6341Y-2.2956
X4.6341Y-2.3192
X4.6341Y-2.3428
X4.6341Y-2.3664
X4.6341Y-2.39
X4.6341Y-3.1341
X4.6341Y-3.1578
X4.6341Y-3.1814
X4.6341Y-3.205
X4.6341Y-3.2286
X4.6341Y-3.9215
X4.6341Y-3.9452
X4.6341Y-3.9688
X4.6341Y-3.9924
X4.6341Y-4.016
X4.6341Y-4.7089
X4.6341Y-4.7326
X4.6341Y-4.7562
X4.6341Y-4.7798
X4.6341Y-4.8034
X4.6499Y-2.2719
X4.6499Y-3.1105
X4.6499Y-3.8979
X4.6499Y-4.6853
X4.6538Y-2.2444
X4.6538Y-3.083
X4.6538Y-3.8704
X4.6538Y-4.6578
X4.6755Y-2.2719
X4.6755Y-3.1105
X4.6755Y-3.8979
X4.6755Y-4.6853
X4.6774Y-2.2444
X4.6774Y-3.083
X4.6774Y-3.8704
X4.6774Y-4.6578
X4.7011Y-2.2444
X4.7011Y-2.2719
X4.7011Y-2.3664
X4.7011Y-2.39
X4.7011Y-3.083
X4.7011Y-3.1105
X4.7011Y-3.205
X4.7011Y-3.2286
X4.7011Y-3.8704
X4.7011Y-3.8979
X4.7011Y-3.9924
X4.7011Y-4.016
X4.7011Y-4.6578
X4.7011Y-4.6853
X4.7011Y-4.7798
X4.7011Y-4.8034
X4.7247Y-2.2444
X4.7247Y-2.2719
X4.7247Y-2.3664
X4.7247Y-2.39
X4.7247Y-3.083
X4.7247Y-3.1105
X4.7247Y-3.205
X4.7247Y-3.2286
X4.7247Y-3.8704
X4.7247Y-3.8979
X4.7247Y-3.9924
X4.7247Y-4.016
X4.7247Y-4.6578
X4.7247Y-4.6853
X4.7247Y-4.7798
X4.7247Y-4.8034
X4.7483Y-2.2444
X4.7483Y-3.083
X4.7483Y-3.8704
X4.7483Y-4.6578
X4.7503Y-2.2719
X4.7503Y-3.1105
X4.7503Y-3.8979
X4.7503Y-4.6853
X4.7719Y-2.2444
X4.7719Y-3.083
X4.7719Y-3.8704
X4.7719Y-4.6578
X4.7759Y-2.2719
X4.7759Y-3.1105
X4.7759Y-3.8979
X4.7759Y-4.6853
X4.7916Y-2.2956
X4.7916Y-2.3192
X4.7916Y-2.3428
X4.7916Y-2.3664
X4.7916Y-2.39
X4.7916Y-3.1341
X4.7916Y-3.1578
X4.7916Y-3.1814
X4.7916Y-3.205
X4.7916Y-3.2286
X4.7916Y-3.9215
X4.7916Y-3.9452
X4.7916Y-3.9688
X4.7916Y-3.9924
X4.7916Y-4.016
X4.7916Y-4.7089
X4.7916Y-4.7326
X4.7916Y-4.7562
X4.7916Y-4.7798
X4.7916Y-4.8034
X5.6184Y-2.2956
X5.6184Y-2.3192
X5.6184Y-2.3428
X5.6184Y-2.3664
X5.6184Y-2.39
X5.6184Y-3.1341
X5.6184Y-3.1578
X5.6184Y-3.1814
X5.6184Y-3.205
X5.6184Y-3.2286
X5.6184Y-3.9215
X5.6184Y-3.9452
X5.6184Y-3.9688
X5.6184Y-3.9924
X5.6184Y-4.016
X5.6184Y-4.7089
X5.6184Y-4.7326
X5.6184Y-4.7562
X5.6184Y-4.7798
X5.6184Y-4.8034
X5.6341Y-2.2719
X5.6341Y-3.1105
X5.6341Y-3.8979
X5.6341Y-4.6853
X5.6381Y-2.2444
X5.6381Y-3.083
X5.6381Y-3.8704
X5.6381Y-4.6578
X5.6597Y-2.2719
X5.6597Y-3.1105
X5.6597Y-3.8979
X5.6597Y-4.6853
X5.6617Y-2.2444
X5.6617Y-3.083
X5.6617Y-3.8704
X5.6617Y-4.6578
X5.6853Y-2.2444
X5.6853Y-2.2719
X5.6853Y-2.3664
X5.6853Y-2.39
X5.6853Y-3.083
X5.6853Y-3.1105
X5.6853Y-3.205
X5.6853Y-3.2286
X5.6853Y-3.8704
X5.6853Y-3.8979
X5.6853Y-3.9924
X5.6853Y-4.016
X5.6853Y-4.6578
X5.6853Y-4.6853
X5.6853Y-4.7798
X5.6853Y-4.8034
X5.7089Y-2.2444
X5.7089Y-2.2719
X5.7089Y-2.3664
X5.7089Y-2.39
X5.7089Y-3.083
X5.7089Y-3.1105
X5.7089Y-3.205
X5.7089Y-3.2286
X5.7089Y-3.8704
X5.7089Y-3.8979
X5.7089Y-3.9924
X5.7089Y-4.016
X5.7089Y-4.6578
X5.7089Y-4.6853
X5.7089Y-4.7798
X5.7089Y-4.8034
X5.7326Y-2.2444
X5.7326Y-3.083
X5.7326Y-3.8704
X5.7326Y-4.6578
X5.7345Y-2.2719
X5.7345Y-3.1105
X5.7345Y-3.8979
X5.7345Y-4.6853
X5.7562Y-2.2444
X5.7562Y-3.083
X5.7562Y-3.8704
X5.7562Y-4.6578
X5.7601Y-2.2719
X5.7601Y-3.1105
X5.7601Y-3.8979
X5.7601Y-4.6853
X5.7759Y-2.2956
X5.7759Y-2.3192
X5.7759Y-2.3428
X5.7759Y-2.3664
X5.7759Y-2.39
X5.7759Y-3.1341
X5.7759Y-3.1578
X5.7759Y-3.1814
X5.7759Y-3.205
X5.7759Y-3.2286
X5.7759Y-3.9215
X5.7759Y-3.9452
X5.7759Y-3.9688
X5.7759Y-3.9924
X5.7759Y-4.016
X5.7759Y-4.7089
X5.7759Y-4.7326
X5.7759Y-4.7562
X5.7759Y-4.7798
X5.7759Y-4.8034
X6.6026Y-2.2956
X6.6026Y-2.3192
X6.6026Y-2.3428
X6.6026Y-2.3664
X6.6026Y-2.39
X6.6026Y-3.1341
X6.6026Y-3.1578
X6.6026Y-3.1814
X6.6026Y-3.205
X6.6026Y-3.2286
X6.6026Y-3.9215
X6.6026Y-3.9452
X6.6026Y-3.9688
X6.6026Y-3.9924
X6.6026Y-4.016
X6.6026Y-4.7089
X6.6026Y-4.7326
X6.6026Y-4.7562
X6.6026Y-4.7798
X6.6026Y-4.8034
X6.6184Y-2.2719
X6.6184Y-3.1105
X6.6184Y-3.8979
X6.6184Y-4.6853
X6.6223Y-2.2444
X6.6223Y-3.083
X6.6223Y-3.8704
X6.6223Y-4.6578
X6.644Y-2.2719
X6.644Y-3.1105
X6.644Y-3.8979
X6.644Y-4.6853
X6.6459Y-2.2444
X6.6459Y-3.083
X6.6459Y-3.8704
X6.6459Y-4.6578
X6.6696Y-2.2444
X6.6696Y-2.2719
X6.6696Y-2.3664
X6.6696Y-2.39
X6.6696Y-3.083
X6.6696Y-3.1105
X6.6696Y-3.205
X6.6696Y-3.2286
X6.6696Y-3.8704
X6.6696Y-3.8979
X6.6696Y-3.9924
X6.6696Y-4.016
X6.6696Y-4.6578
X6.6696Y-4.6853
X6.6696Y-4.7798
X6.6696Y-4.8034
X6.6932Y-2.2444
X6.6932Y-2.2719
X6.6932Y-2.3664
X6.6932Y-2.39
X6.6932Y-3.083
X6.6932Y-3.1105
X6.6932Y-3.205
X6.6932Y-3.2286
X6.6932Y-3.8704
X6.6932Y-3.8979
X6.6932Y-3.9924
X6.6932Y-4.016
X6.6932Y-4.6578
X6.6932Y-4.6853
X6.6932Y-4.7798
X6.6932Y-4.8034
X6.7168Y-2.2444
X6.7168Y-3.083
X6.7168Y-3.8704
X6.7168Y-4.6578
X6.7188Y-2.2719
X6.7188Y-3.1105
X6.7188Y-3.8979
X6.7188Y-4.6853
X6.7404Y-2.2444
X6.7404Y-3.083
X6.7404Y-3.8704
X6.7404Y-4.6578
X6.7444Y-2.2719
X6.7444Y-3.1105
X6.7444Y-3.8979
X6.7444Y-4.6853
X6.7601Y-2.2956
X6.7601Y-2.3192
X6.7601Y-2.3428
X6.7601Y-2.3664
X6.7601Y-2.39
X6.7601Y-3.1341
X6.7601Y-3.1578
X6.7601Y-3.1814
X6.7601Y-3.205
X6.7601Y-3.2286
X6.7601Y-3.9215
X6.7601Y-3.9452
X6.7601Y-3.9688
X6.7601Y-3.9924
X6.7601Y-4.016
X6.7601Y-4.7089
X6.7601Y-4.7326
X6.7601Y-4.7562
X6.7601Y-4.7798
X6.7601Y-4.8034
T2
X2.9724Y-1.6024
X2.9724Y-5.5394
X7.5Y-1.6024
X7.5Y-5.5394
T0
M30
