%TF.GenerationSoftware,KiCad,Pcbnew,(6.0.0)*%
%TF.CreationDate,2022-11-29T13:54:36-05:00*%
%TF.ProjectId,pupdrive-eib24_panel,70757064-7269-4766-952d-65696232345f,B*%
%TF.SameCoordinates,Original*%
%TF.FileFunction,AssemblyDrawing,Bot*%
%FSLAX46Y46*%
G04 Gerber Fmt 4.6, Leading zero omitted, Abs format (unit mm)*
G04 Created by KiCad (PCBNEW (6.0.0)) date 2022-11-29 13:54:36*
%MOMM*%
%LPD*%
G01*
G04 APERTURE LIST*
%ADD10C,0.150000*%
G04 APERTURE END LIST*
D10*
%TO.C,J2*%
X91851436Y-67239707D02*
X91946674Y-67239707D01*
X92041912Y-67192088D01*
X92089531Y-67144468D01*
X92137150Y-67049230D01*
X92184769Y-66858754D01*
X92184769Y-66620659D01*
X92137150Y-66430183D01*
X92089531Y-66334945D01*
X92041912Y-66287326D01*
X91946674Y-66239707D01*
X91851436Y-66239707D01*
X91756198Y-66287326D01*
X91708579Y-66334945D01*
X91660959Y-66430183D01*
X91613340Y-66620659D01*
X91613340Y-66858754D01*
X91660959Y-67049230D01*
X91708579Y-67144468D01*
X91756198Y-67192088D01*
X91851436Y-67239707D01*
X93089531Y-67239707D02*
X92613340Y-67239707D01*
X92565721Y-66763516D01*
X92613340Y-66811135D01*
X92708579Y-66858754D01*
X92946674Y-66858754D01*
X93041912Y-66811135D01*
X93089531Y-66763516D01*
X93137150Y-66668278D01*
X93137150Y-66430183D01*
X93089531Y-66334945D01*
X93041912Y-66287326D01*
X92946674Y-66239707D01*
X92708579Y-66239707D01*
X92613340Y-66287326D01*
X92565721Y-66334945D01*
X93756198Y-67239707D02*
X93851436Y-67239707D01*
X93946674Y-67192088D01*
X93994293Y-67144468D01*
X94041912Y-67049230D01*
X94089531Y-66858754D01*
X94089531Y-66620659D01*
X94041912Y-66430183D01*
X93994293Y-66334945D01*
X93946674Y-66287326D01*
X93851436Y-66239707D01*
X93756198Y-66239707D01*
X93660959Y-66287326D01*
X93613340Y-66334945D01*
X93565721Y-66430183D01*
X93518102Y-66620659D01*
X93518102Y-66858754D01*
X93565721Y-67049230D01*
X93613340Y-67144468D01*
X93660959Y-67192088D01*
X93756198Y-67239707D01*
X94422864Y-67239707D02*
X95089531Y-67239707D01*
X94660959Y-66239707D01*
X95660959Y-67239707D02*
X95756198Y-67239707D01*
X95851436Y-67192088D01*
X95899055Y-67144468D01*
X95946674Y-67049230D01*
X95994293Y-66858754D01*
X95994293Y-66620659D01*
X95946674Y-66430183D01*
X95899055Y-66334945D01*
X95851436Y-66287326D01*
X95756198Y-66239707D01*
X95660959Y-66239707D01*
X95565721Y-66287326D01*
X95518102Y-66334945D01*
X95470483Y-66430183D01*
X95422864Y-66620659D01*
X95422864Y-66858754D01*
X95470483Y-67049230D01*
X95518102Y-67144468D01*
X95565721Y-67192088D01*
X95660959Y-67239707D01*
X96375245Y-67144468D02*
X96422864Y-67192088D01*
X96518102Y-67239707D01*
X96756198Y-67239707D01*
X96851436Y-67192088D01*
X96899055Y-67144468D01*
X96946674Y-67049230D01*
X96946674Y-66953992D01*
X96899055Y-66811135D01*
X96327626Y-66239707D01*
X96946674Y-66239707D01*
X97803817Y-66906373D02*
X97803817Y-66239707D01*
X97565721Y-67287326D02*
X97327626Y-66573040D01*
X97946674Y-66573040D01*
X98280007Y-67144468D02*
X98327626Y-67192088D01*
X98422864Y-67239707D01*
X98660959Y-67239707D01*
X98756198Y-67192088D01*
X98803817Y-67144468D01*
X98851436Y-67049230D01*
X98851436Y-66953992D01*
X98803817Y-66811135D01*
X98232388Y-66239707D01*
X98851436Y-66239707D01*
X99232388Y-67144468D02*
X99280007Y-67192088D01*
X99375245Y-67239707D01*
X99613340Y-67239707D01*
X99708579Y-67192088D01*
X99756198Y-67144468D01*
X99803817Y-67049230D01*
X99803817Y-66953992D01*
X99756198Y-66811135D01*
X99184769Y-66239707D01*
X99803817Y-66239707D01*
X95375245Y-71539707D02*
X95375245Y-70825421D01*
X95327626Y-70682564D01*
X95232388Y-70587326D01*
X95089531Y-70539707D01*
X94994293Y-70539707D01*
X95803817Y-71444468D02*
X95851436Y-71492088D01*
X95946674Y-71539707D01*
X96184769Y-71539707D01*
X96280007Y-71492088D01*
X96327626Y-71444468D01*
X96375245Y-71349230D01*
X96375245Y-71253992D01*
X96327626Y-71111135D01*
X95756198Y-70539707D01*
X96375245Y-70539707D01*
X166851436Y-67239707D02*
X166946674Y-67239707D01*
X167041912Y-67192088D01*
X167089531Y-67144468D01*
X167137150Y-67049230D01*
X167184769Y-66858754D01*
X167184769Y-66620659D01*
X167137150Y-66430183D01*
X167089531Y-66334945D01*
X167041912Y-66287326D01*
X166946674Y-66239707D01*
X166851436Y-66239707D01*
X166756198Y-66287326D01*
X166708579Y-66334945D01*
X166660959Y-66430183D01*
X166613340Y-66620659D01*
X166613340Y-66858754D01*
X166660959Y-67049230D01*
X166708579Y-67144468D01*
X166756198Y-67192088D01*
X166851436Y-67239707D01*
X168089531Y-67239707D02*
X167613340Y-67239707D01*
X167565721Y-66763516D01*
X167613340Y-66811135D01*
X167708579Y-66858754D01*
X167946674Y-66858754D01*
X168041912Y-66811135D01*
X168089531Y-66763516D01*
X168137150Y-66668278D01*
X168137150Y-66430183D01*
X168089531Y-66334945D01*
X168041912Y-66287326D01*
X167946674Y-66239707D01*
X167708579Y-66239707D01*
X167613340Y-66287326D01*
X167565721Y-66334945D01*
X168756198Y-67239707D02*
X168851436Y-67239707D01*
X168946674Y-67192088D01*
X168994293Y-67144468D01*
X169041912Y-67049230D01*
X169089531Y-66858754D01*
X169089531Y-66620659D01*
X169041912Y-66430183D01*
X168994293Y-66334945D01*
X168946674Y-66287326D01*
X168851436Y-66239707D01*
X168756198Y-66239707D01*
X168660959Y-66287326D01*
X168613340Y-66334945D01*
X168565721Y-66430183D01*
X168518102Y-66620659D01*
X168518102Y-66858754D01*
X168565721Y-67049230D01*
X168613340Y-67144468D01*
X168660959Y-67192088D01*
X168756198Y-67239707D01*
X169422864Y-67239707D02*
X170089531Y-67239707D01*
X169660959Y-66239707D01*
X170660959Y-67239707D02*
X170756198Y-67239707D01*
X170851436Y-67192088D01*
X170899055Y-67144468D01*
X170946674Y-67049230D01*
X170994293Y-66858754D01*
X170994293Y-66620659D01*
X170946674Y-66430183D01*
X170899055Y-66334945D01*
X170851436Y-66287326D01*
X170756198Y-66239707D01*
X170660959Y-66239707D01*
X170565721Y-66287326D01*
X170518102Y-66334945D01*
X170470483Y-66430183D01*
X170422864Y-66620659D01*
X170422864Y-66858754D01*
X170470483Y-67049230D01*
X170518102Y-67144468D01*
X170565721Y-67192088D01*
X170660959Y-67239707D01*
X171375245Y-67144468D02*
X171422864Y-67192088D01*
X171518102Y-67239707D01*
X171756198Y-67239707D01*
X171851436Y-67192088D01*
X171899055Y-67144468D01*
X171946674Y-67049230D01*
X171946674Y-66953992D01*
X171899055Y-66811135D01*
X171327626Y-66239707D01*
X171946674Y-66239707D01*
X172803817Y-66906373D02*
X172803817Y-66239707D01*
X172565721Y-67287326D02*
X172327626Y-66573040D01*
X172946674Y-66573040D01*
X173280007Y-67144468D02*
X173327626Y-67192088D01*
X173422864Y-67239707D01*
X173660959Y-67239707D01*
X173756198Y-67192088D01*
X173803817Y-67144468D01*
X173851436Y-67049230D01*
X173851436Y-66953992D01*
X173803817Y-66811135D01*
X173232388Y-66239707D01*
X173851436Y-66239707D01*
X174232388Y-67144468D02*
X174280007Y-67192088D01*
X174375245Y-67239707D01*
X174613340Y-67239707D01*
X174708579Y-67192088D01*
X174756198Y-67144468D01*
X174803817Y-67049230D01*
X174803817Y-66953992D01*
X174756198Y-66811135D01*
X174184769Y-66239707D01*
X174803817Y-66239707D01*
X170375245Y-71539707D02*
X170375245Y-70825421D01*
X170327626Y-70682564D01*
X170232388Y-70587326D01*
X170089531Y-70539707D01*
X169994293Y-70539707D01*
X170803817Y-71444468D02*
X170851436Y-71492088D01*
X170946674Y-71539707D01*
X171184769Y-71539707D01*
X171280007Y-71492088D01*
X171327626Y-71444468D01*
X171375245Y-71349230D01*
X171375245Y-71253992D01*
X171327626Y-71111135D01*
X170756198Y-70539707D01*
X171375245Y-70539707D01*
X141851436Y-67239707D02*
X141946674Y-67239707D01*
X142041912Y-67192088D01*
X142089531Y-67144468D01*
X142137150Y-67049230D01*
X142184769Y-66858754D01*
X142184769Y-66620659D01*
X142137150Y-66430183D01*
X142089531Y-66334945D01*
X142041912Y-66287326D01*
X141946674Y-66239707D01*
X141851436Y-66239707D01*
X141756198Y-66287326D01*
X141708579Y-66334945D01*
X141660959Y-66430183D01*
X141613340Y-66620659D01*
X141613340Y-66858754D01*
X141660959Y-67049230D01*
X141708579Y-67144468D01*
X141756198Y-67192088D01*
X141851436Y-67239707D01*
X143089531Y-67239707D02*
X142613340Y-67239707D01*
X142565721Y-66763516D01*
X142613340Y-66811135D01*
X142708579Y-66858754D01*
X142946674Y-66858754D01*
X143041912Y-66811135D01*
X143089531Y-66763516D01*
X143137150Y-66668278D01*
X143137150Y-66430183D01*
X143089531Y-66334945D01*
X143041912Y-66287326D01*
X142946674Y-66239707D01*
X142708579Y-66239707D01*
X142613340Y-66287326D01*
X142565721Y-66334945D01*
X143756198Y-67239707D02*
X143851436Y-67239707D01*
X143946674Y-67192088D01*
X143994293Y-67144468D01*
X144041912Y-67049230D01*
X144089531Y-66858754D01*
X144089531Y-66620659D01*
X144041912Y-66430183D01*
X143994293Y-66334945D01*
X143946674Y-66287326D01*
X143851436Y-66239707D01*
X143756198Y-66239707D01*
X143660959Y-66287326D01*
X143613340Y-66334945D01*
X143565721Y-66430183D01*
X143518102Y-66620659D01*
X143518102Y-66858754D01*
X143565721Y-67049230D01*
X143613340Y-67144468D01*
X143660959Y-67192088D01*
X143756198Y-67239707D01*
X144422864Y-67239707D02*
X145089531Y-67239707D01*
X144660959Y-66239707D01*
X145660959Y-67239707D02*
X145756198Y-67239707D01*
X145851436Y-67192088D01*
X145899055Y-67144468D01*
X145946674Y-67049230D01*
X145994293Y-66858754D01*
X145994293Y-66620659D01*
X145946674Y-66430183D01*
X145899055Y-66334945D01*
X145851436Y-66287326D01*
X145756198Y-66239707D01*
X145660959Y-66239707D01*
X145565721Y-66287326D01*
X145518102Y-66334945D01*
X145470483Y-66430183D01*
X145422864Y-66620659D01*
X145422864Y-66858754D01*
X145470483Y-67049230D01*
X145518102Y-67144468D01*
X145565721Y-67192088D01*
X145660959Y-67239707D01*
X146375245Y-67144468D02*
X146422864Y-67192088D01*
X146518102Y-67239707D01*
X146756198Y-67239707D01*
X146851436Y-67192088D01*
X146899055Y-67144468D01*
X146946674Y-67049230D01*
X146946674Y-66953992D01*
X146899055Y-66811135D01*
X146327626Y-66239707D01*
X146946674Y-66239707D01*
X147803817Y-66906373D02*
X147803817Y-66239707D01*
X147565721Y-67287326D02*
X147327626Y-66573040D01*
X147946674Y-66573040D01*
X148280007Y-67144468D02*
X148327626Y-67192088D01*
X148422864Y-67239707D01*
X148660959Y-67239707D01*
X148756198Y-67192088D01*
X148803817Y-67144468D01*
X148851436Y-67049230D01*
X148851436Y-66953992D01*
X148803817Y-66811135D01*
X148232388Y-66239707D01*
X148851436Y-66239707D01*
X149232388Y-67144468D02*
X149280007Y-67192088D01*
X149375245Y-67239707D01*
X149613340Y-67239707D01*
X149708579Y-67192088D01*
X149756198Y-67144468D01*
X149803817Y-67049230D01*
X149803817Y-66953992D01*
X149756198Y-66811135D01*
X149184769Y-66239707D01*
X149803817Y-66239707D01*
X145375245Y-71539707D02*
X145375245Y-70825421D01*
X145327626Y-70682564D01*
X145232388Y-70587326D01*
X145089531Y-70539707D01*
X144994293Y-70539707D01*
X145803817Y-71444468D02*
X145851436Y-71492088D01*
X145946674Y-71539707D01*
X146184769Y-71539707D01*
X146280007Y-71492088D01*
X146327626Y-71444468D01*
X146375245Y-71349230D01*
X146375245Y-71253992D01*
X146327626Y-71111135D01*
X145756198Y-70539707D01*
X146375245Y-70539707D01*
X116851436Y-67239707D02*
X116946674Y-67239707D01*
X117041912Y-67192088D01*
X117089531Y-67144468D01*
X117137150Y-67049230D01*
X117184769Y-66858754D01*
X117184769Y-66620659D01*
X117137150Y-66430183D01*
X117089531Y-66334945D01*
X117041912Y-66287326D01*
X116946674Y-66239707D01*
X116851436Y-66239707D01*
X116756198Y-66287326D01*
X116708579Y-66334945D01*
X116660959Y-66430183D01*
X116613340Y-66620659D01*
X116613340Y-66858754D01*
X116660959Y-67049230D01*
X116708579Y-67144468D01*
X116756198Y-67192088D01*
X116851436Y-67239707D01*
X118089531Y-67239707D02*
X117613340Y-67239707D01*
X117565721Y-66763516D01*
X117613340Y-66811135D01*
X117708579Y-66858754D01*
X117946674Y-66858754D01*
X118041912Y-66811135D01*
X118089531Y-66763516D01*
X118137150Y-66668278D01*
X118137150Y-66430183D01*
X118089531Y-66334945D01*
X118041912Y-66287326D01*
X117946674Y-66239707D01*
X117708579Y-66239707D01*
X117613340Y-66287326D01*
X117565721Y-66334945D01*
X118756198Y-67239707D02*
X118851436Y-67239707D01*
X118946674Y-67192088D01*
X118994293Y-67144468D01*
X119041912Y-67049230D01*
X119089531Y-66858754D01*
X119089531Y-66620659D01*
X119041912Y-66430183D01*
X118994293Y-66334945D01*
X118946674Y-66287326D01*
X118851436Y-66239707D01*
X118756198Y-66239707D01*
X118660959Y-66287326D01*
X118613340Y-66334945D01*
X118565721Y-66430183D01*
X118518102Y-66620659D01*
X118518102Y-66858754D01*
X118565721Y-67049230D01*
X118613340Y-67144468D01*
X118660959Y-67192088D01*
X118756198Y-67239707D01*
X119422864Y-67239707D02*
X120089531Y-67239707D01*
X119660959Y-66239707D01*
X120660959Y-67239707D02*
X120756198Y-67239707D01*
X120851436Y-67192088D01*
X120899055Y-67144468D01*
X120946674Y-67049230D01*
X120994293Y-66858754D01*
X120994293Y-66620659D01*
X120946674Y-66430183D01*
X120899055Y-66334945D01*
X120851436Y-66287326D01*
X120756198Y-66239707D01*
X120660959Y-66239707D01*
X120565721Y-66287326D01*
X120518102Y-66334945D01*
X120470483Y-66430183D01*
X120422864Y-66620659D01*
X120422864Y-66858754D01*
X120470483Y-67049230D01*
X120518102Y-67144468D01*
X120565721Y-67192088D01*
X120660959Y-67239707D01*
X121375245Y-67144468D02*
X121422864Y-67192088D01*
X121518102Y-67239707D01*
X121756198Y-67239707D01*
X121851436Y-67192088D01*
X121899055Y-67144468D01*
X121946674Y-67049230D01*
X121946674Y-66953992D01*
X121899055Y-66811135D01*
X121327626Y-66239707D01*
X121946674Y-66239707D01*
X122803817Y-66906373D02*
X122803817Y-66239707D01*
X122565721Y-67287326D02*
X122327626Y-66573040D01*
X122946674Y-66573040D01*
X123280007Y-67144468D02*
X123327626Y-67192088D01*
X123422864Y-67239707D01*
X123660959Y-67239707D01*
X123756198Y-67192088D01*
X123803817Y-67144468D01*
X123851436Y-67049230D01*
X123851436Y-66953992D01*
X123803817Y-66811135D01*
X123232388Y-66239707D01*
X123851436Y-66239707D01*
X124232388Y-67144468D02*
X124280007Y-67192088D01*
X124375245Y-67239707D01*
X124613340Y-67239707D01*
X124708579Y-67192088D01*
X124756198Y-67144468D01*
X124803817Y-67049230D01*
X124803817Y-66953992D01*
X124756198Y-66811135D01*
X124184769Y-66239707D01*
X124803817Y-66239707D01*
X120375245Y-71539707D02*
X120375245Y-70825421D01*
X120327626Y-70682564D01*
X120232388Y-70587326D01*
X120089531Y-70539707D01*
X119994293Y-70539707D01*
X120803817Y-71444468D02*
X120851436Y-71492088D01*
X120946674Y-71539707D01*
X121184769Y-71539707D01*
X121280007Y-71492088D01*
X121327626Y-71444468D01*
X121375245Y-71349230D01*
X121375245Y-71253992D01*
X121327626Y-71111135D01*
X120756198Y-70539707D01*
X121375245Y-70539707D01*
X91851436Y-92239707D02*
X91946674Y-92239707D01*
X92041912Y-92192088D01*
X92089531Y-92144468D01*
X92137150Y-92049230D01*
X92184769Y-91858754D01*
X92184769Y-91620659D01*
X92137150Y-91430183D01*
X92089531Y-91334945D01*
X92041912Y-91287326D01*
X91946674Y-91239707D01*
X91851436Y-91239707D01*
X91756198Y-91287326D01*
X91708579Y-91334945D01*
X91660959Y-91430183D01*
X91613340Y-91620659D01*
X91613340Y-91858754D01*
X91660959Y-92049230D01*
X91708579Y-92144468D01*
X91756198Y-92192088D01*
X91851436Y-92239707D01*
X93089531Y-92239707D02*
X92613340Y-92239707D01*
X92565721Y-91763516D01*
X92613340Y-91811135D01*
X92708579Y-91858754D01*
X92946674Y-91858754D01*
X93041912Y-91811135D01*
X93089531Y-91763516D01*
X93137150Y-91668278D01*
X93137150Y-91430183D01*
X93089531Y-91334945D01*
X93041912Y-91287326D01*
X92946674Y-91239707D01*
X92708579Y-91239707D01*
X92613340Y-91287326D01*
X92565721Y-91334945D01*
X93756198Y-92239707D02*
X93851436Y-92239707D01*
X93946674Y-92192088D01*
X93994293Y-92144468D01*
X94041912Y-92049230D01*
X94089531Y-91858754D01*
X94089531Y-91620659D01*
X94041912Y-91430183D01*
X93994293Y-91334945D01*
X93946674Y-91287326D01*
X93851436Y-91239707D01*
X93756198Y-91239707D01*
X93660959Y-91287326D01*
X93613340Y-91334945D01*
X93565721Y-91430183D01*
X93518102Y-91620659D01*
X93518102Y-91858754D01*
X93565721Y-92049230D01*
X93613340Y-92144468D01*
X93660959Y-92192088D01*
X93756198Y-92239707D01*
X94422864Y-92239707D02*
X95089531Y-92239707D01*
X94660959Y-91239707D01*
X95660959Y-92239707D02*
X95756198Y-92239707D01*
X95851436Y-92192088D01*
X95899055Y-92144468D01*
X95946674Y-92049230D01*
X95994293Y-91858754D01*
X95994293Y-91620659D01*
X95946674Y-91430183D01*
X95899055Y-91334945D01*
X95851436Y-91287326D01*
X95756198Y-91239707D01*
X95660959Y-91239707D01*
X95565721Y-91287326D01*
X95518102Y-91334945D01*
X95470483Y-91430183D01*
X95422864Y-91620659D01*
X95422864Y-91858754D01*
X95470483Y-92049230D01*
X95518102Y-92144468D01*
X95565721Y-92192088D01*
X95660959Y-92239707D01*
X96375245Y-92144468D02*
X96422864Y-92192088D01*
X96518102Y-92239707D01*
X96756198Y-92239707D01*
X96851436Y-92192088D01*
X96899055Y-92144468D01*
X96946674Y-92049230D01*
X96946674Y-91953992D01*
X96899055Y-91811135D01*
X96327626Y-91239707D01*
X96946674Y-91239707D01*
X97803817Y-91906373D02*
X97803817Y-91239707D01*
X97565721Y-92287326D02*
X97327626Y-91573040D01*
X97946674Y-91573040D01*
X98280007Y-92144468D02*
X98327626Y-92192088D01*
X98422864Y-92239707D01*
X98660959Y-92239707D01*
X98756198Y-92192088D01*
X98803817Y-92144468D01*
X98851436Y-92049230D01*
X98851436Y-91953992D01*
X98803817Y-91811135D01*
X98232388Y-91239707D01*
X98851436Y-91239707D01*
X99232388Y-92144468D02*
X99280007Y-92192088D01*
X99375245Y-92239707D01*
X99613340Y-92239707D01*
X99708579Y-92192088D01*
X99756198Y-92144468D01*
X99803817Y-92049230D01*
X99803817Y-91953992D01*
X99756198Y-91811135D01*
X99184769Y-91239707D01*
X99803817Y-91239707D01*
X95375245Y-96539707D02*
X95375245Y-95825421D01*
X95327626Y-95682564D01*
X95232388Y-95587326D01*
X95089531Y-95539707D01*
X94994293Y-95539707D01*
X95803817Y-96444468D02*
X95851436Y-96492088D01*
X95946674Y-96539707D01*
X96184769Y-96539707D01*
X96280007Y-96492088D01*
X96327626Y-96444468D01*
X96375245Y-96349230D01*
X96375245Y-96253992D01*
X96327626Y-96111135D01*
X95756198Y-95539707D01*
X96375245Y-95539707D01*
X166851436Y-92239707D02*
X166946674Y-92239707D01*
X167041912Y-92192088D01*
X167089531Y-92144468D01*
X167137150Y-92049230D01*
X167184769Y-91858754D01*
X167184769Y-91620659D01*
X167137150Y-91430183D01*
X167089531Y-91334945D01*
X167041912Y-91287326D01*
X166946674Y-91239707D01*
X166851436Y-91239707D01*
X166756198Y-91287326D01*
X166708579Y-91334945D01*
X166660959Y-91430183D01*
X166613340Y-91620659D01*
X166613340Y-91858754D01*
X166660959Y-92049230D01*
X166708579Y-92144468D01*
X166756198Y-92192088D01*
X166851436Y-92239707D01*
X168089531Y-92239707D02*
X167613340Y-92239707D01*
X167565721Y-91763516D01*
X167613340Y-91811135D01*
X167708579Y-91858754D01*
X167946674Y-91858754D01*
X168041912Y-91811135D01*
X168089531Y-91763516D01*
X168137150Y-91668278D01*
X168137150Y-91430183D01*
X168089531Y-91334945D01*
X168041912Y-91287326D01*
X167946674Y-91239707D01*
X167708579Y-91239707D01*
X167613340Y-91287326D01*
X167565721Y-91334945D01*
X168756198Y-92239707D02*
X168851436Y-92239707D01*
X168946674Y-92192088D01*
X168994293Y-92144468D01*
X169041912Y-92049230D01*
X169089531Y-91858754D01*
X169089531Y-91620659D01*
X169041912Y-91430183D01*
X168994293Y-91334945D01*
X168946674Y-91287326D01*
X168851436Y-91239707D01*
X168756198Y-91239707D01*
X168660959Y-91287326D01*
X168613340Y-91334945D01*
X168565721Y-91430183D01*
X168518102Y-91620659D01*
X168518102Y-91858754D01*
X168565721Y-92049230D01*
X168613340Y-92144468D01*
X168660959Y-92192088D01*
X168756198Y-92239707D01*
X169422864Y-92239707D02*
X170089531Y-92239707D01*
X169660959Y-91239707D01*
X170660959Y-92239707D02*
X170756198Y-92239707D01*
X170851436Y-92192088D01*
X170899055Y-92144468D01*
X170946674Y-92049230D01*
X170994293Y-91858754D01*
X170994293Y-91620659D01*
X170946674Y-91430183D01*
X170899055Y-91334945D01*
X170851436Y-91287326D01*
X170756198Y-91239707D01*
X170660959Y-91239707D01*
X170565721Y-91287326D01*
X170518102Y-91334945D01*
X170470483Y-91430183D01*
X170422864Y-91620659D01*
X170422864Y-91858754D01*
X170470483Y-92049230D01*
X170518102Y-92144468D01*
X170565721Y-92192088D01*
X170660959Y-92239707D01*
X171375245Y-92144468D02*
X171422864Y-92192088D01*
X171518102Y-92239707D01*
X171756198Y-92239707D01*
X171851436Y-92192088D01*
X171899055Y-92144468D01*
X171946674Y-92049230D01*
X171946674Y-91953992D01*
X171899055Y-91811135D01*
X171327626Y-91239707D01*
X171946674Y-91239707D01*
X172803817Y-91906373D02*
X172803817Y-91239707D01*
X172565721Y-92287326D02*
X172327626Y-91573040D01*
X172946674Y-91573040D01*
X173280007Y-92144468D02*
X173327626Y-92192088D01*
X173422864Y-92239707D01*
X173660959Y-92239707D01*
X173756198Y-92192088D01*
X173803817Y-92144468D01*
X173851436Y-92049230D01*
X173851436Y-91953992D01*
X173803817Y-91811135D01*
X173232388Y-91239707D01*
X173851436Y-91239707D01*
X174232388Y-92144468D02*
X174280007Y-92192088D01*
X174375245Y-92239707D01*
X174613340Y-92239707D01*
X174708579Y-92192088D01*
X174756198Y-92144468D01*
X174803817Y-92049230D01*
X174803817Y-91953992D01*
X174756198Y-91811135D01*
X174184769Y-91239707D01*
X174803817Y-91239707D01*
X170375245Y-96539707D02*
X170375245Y-95825421D01*
X170327626Y-95682564D01*
X170232388Y-95587326D01*
X170089531Y-95539707D01*
X169994293Y-95539707D01*
X170803817Y-96444468D02*
X170851436Y-96492088D01*
X170946674Y-96539707D01*
X171184769Y-96539707D01*
X171280007Y-96492088D01*
X171327626Y-96444468D01*
X171375245Y-96349230D01*
X171375245Y-96253992D01*
X171327626Y-96111135D01*
X170756198Y-95539707D01*
X171375245Y-95539707D01*
X141851436Y-92239707D02*
X141946674Y-92239707D01*
X142041912Y-92192088D01*
X142089531Y-92144468D01*
X142137150Y-92049230D01*
X142184769Y-91858754D01*
X142184769Y-91620659D01*
X142137150Y-91430183D01*
X142089531Y-91334945D01*
X142041912Y-91287326D01*
X141946674Y-91239707D01*
X141851436Y-91239707D01*
X141756198Y-91287326D01*
X141708579Y-91334945D01*
X141660959Y-91430183D01*
X141613340Y-91620659D01*
X141613340Y-91858754D01*
X141660959Y-92049230D01*
X141708579Y-92144468D01*
X141756198Y-92192088D01*
X141851436Y-92239707D01*
X143089531Y-92239707D02*
X142613340Y-92239707D01*
X142565721Y-91763516D01*
X142613340Y-91811135D01*
X142708579Y-91858754D01*
X142946674Y-91858754D01*
X143041912Y-91811135D01*
X143089531Y-91763516D01*
X143137150Y-91668278D01*
X143137150Y-91430183D01*
X143089531Y-91334945D01*
X143041912Y-91287326D01*
X142946674Y-91239707D01*
X142708579Y-91239707D01*
X142613340Y-91287326D01*
X142565721Y-91334945D01*
X143756198Y-92239707D02*
X143851436Y-92239707D01*
X143946674Y-92192088D01*
X143994293Y-92144468D01*
X144041912Y-92049230D01*
X144089531Y-91858754D01*
X144089531Y-91620659D01*
X144041912Y-91430183D01*
X143994293Y-91334945D01*
X143946674Y-91287326D01*
X143851436Y-91239707D01*
X143756198Y-91239707D01*
X143660959Y-91287326D01*
X143613340Y-91334945D01*
X143565721Y-91430183D01*
X143518102Y-91620659D01*
X143518102Y-91858754D01*
X143565721Y-92049230D01*
X143613340Y-92144468D01*
X143660959Y-92192088D01*
X143756198Y-92239707D01*
X144422864Y-92239707D02*
X145089531Y-92239707D01*
X144660959Y-91239707D01*
X145660959Y-92239707D02*
X145756198Y-92239707D01*
X145851436Y-92192088D01*
X145899055Y-92144468D01*
X145946674Y-92049230D01*
X145994293Y-91858754D01*
X145994293Y-91620659D01*
X145946674Y-91430183D01*
X145899055Y-91334945D01*
X145851436Y-91287326D01*
X145756198Y-91239707D01*
X145660959Y-91239707D01*
X145565721Y-91287326D01*
X145518102Y-91334945D01*
X145470483Y-91430183D01*
X145422864Y-91620659D01*
X145422864Y-91858754D01*
X145470483Y-92049230D01*
X145518102Y-92144468D01*
X145565721Y-92192088D01*
X145660959Y-92239707D01*
X146375245Y-92144468D02*
X146422864Y-92192088D01*
X146518102Y-92239707D01*
X146756198Y-92239707D01*
X146851436Y-92192088D01*
X146899055Y-92144468D01*
X146946674Y-92049230D01*
X146946674Y-91953992D01*
X146899055Y-91811135D01*
X146327626Y-91239707D01*
X146946674Y-91239707D01*
X147803817Y-91906373D02*
X147803817Y-91239707D01*
X147565721Y-92287326D02*
X147327626Y-91573040D01*
X147946674Y-91573040D01*
X148280007Y-92144468D02*
X148327626Y-92192088D01*
X148422864Y-92239707D01*
X148660959Y-92239707D01*
X148756198Y-92192088D01*
X148803817Y-92144468D01*
X148851436Y-92049230D01*
X148851436Y-91953992D01*
X148803817Y-91811135D01*
X148232388Y-91239707D01*
X148851436Y-91239707D01*
X149232388Y-92144468D02*
X149280007Y-92192088D01*
X149375245Y-92239707D01*
X149613340Y-92239707D01*
X149708579Y-92192088D01*
X149756198Y-92144468D01*
X149803817Y-92049230D01*
X149803817Y-91953992D01*
X149756198Y-91811135D01*
X149184769Y-91239707D01*
X149803817Y-91239707D01*
X145375245Y-96539707D02*
X145375245Y-95825421D01*
X145327626Y-95682564D01*
X145232388Y-95587326D01*
X145089531Y-95539707D01*
X144994293Y-95539707D01*
X145803817Y-96444468D02*
X145851436Y-96492088D01*
X145946674Y-96539707D01*
X146184769Y-96539707D01*
X146280007Y-96492088D01*
X146327626Y-96444468D01*
X146375245Y-96349230D01*
X146375245Y-96253992D01*
X146327626Y-96111135D01*
X145756198Y-95539707D01*
X146375245Y-95539707D01*
X116851436Y-92239707D02*
X116946674Y-92239707D01*
X117041912Y-92192088D01*
X117089531Y-92144468D01*
X117137150Y-92049230D01*
X117184769Y-91858754D01*
X117184769Y-91620659D01*
X117137150Y-91430183D01*
X117089531Y-91334945D01*
X117041912Y-91287326D01*
X116946674Y-91239707D01*
X116851436Y-91239707D01*
X116756198Y-91287326D01*
X116708579Y-91334945D01*
X116660959Y-91430183D01*
X116613340Y-91620659D01*
X116613340Y-91858754D01*
X116660959Y-92049230D01*
X116708579Y-92144468D01*
X116756198Y-92192088D01*
X116851436Y-92239707D01*
X118089531Y-92239707D02*
X117613340Y-92239707D01*
X117565721Y-91763516D01*
X117613340Y-91811135D01*
X117708579Y-91858754D01*
X117946674Y-91858754D01*
X118041912Y-91811135D01*
X118089531Y-91763516D01*
X118137150Y-91668278D01*
X118137150Y-91430183D01*
X118089531Y-91334945D01*
X118041912Y-91287326D01*
X117946674Y-91239707D01*
X117708579Y-91239707D01*
X117613340Y-91287326D01*
X117565721Y-91334945D01*
X118756198Y-92239707D02*
X118851436Y-92239707D01*
X118946674Y-92192088D01*
X118994293Y-92144468D01*
X119041912Y-92049230D01*
X119089531Y-91858754D01*
X119089531Y-91620659D01*
X119041912Y-91430183D01*
X118994293Y-91334945D01*
X118946674Y-91287326D01*
X118851436Y-91239707D01*
X118756198Y-91239707D01*
X118660959Y-91287326D01*
X118613340Y-91334945D01*
X118565721Y-91430183D01*
X118518102Y-91620659D01*
X118518102Y-91858754D01*
X118565721Y-92049230D01*
X118613340Y-92144468D01*
X118660959Y-92192088D01*
X118756198Y-92239707D01*
X119422864Y-92239707D02*
X120089531Y-92239707D01*
X119660959Y-91239707D01*
X120660959Y-92239707D02*
X120756198Y-92239707D01*
X120851436Y-92192088D01*
X120899055Y-92144468D01*
X120946674Y-92049230D01*
X120994293Y-91858754D01*
X120994293Y-91620659D01*
X120946674Y-91430183D01*
X120899055Y-91334945D01*
X120851436Y-91287326D01*
X120756198Y-91239707D01*
X120660959Y-91239707D01*
X120565721Y-91287326D01*
X120518102Y-91334945D01*
X120470483Y-91430183D01*
X120422864Y-91620659D01*
X120422864Y-91858754D01*
X120470483Y-92049230D01*
X120518102Y-92144468D01*
X120565721Y-92192088D01*
X120660959Y-92239707D01*
X121375245Y-92144468D02*
X121422864Y-92192088D01*
X121518102Y-92239707D01*
X121756198Y-92239707D01*
X121851436Y-92192088D01*
X121899055Y-92144468D01*
X121946674Y-92049230D01*
X121946674Y-91953992D01*
X121899055Y-91811135D01*
X121327626Y-91239707D01*
X121946674Y-91239707D01*
X122803817Y-91906373D02*
X122803817Y-91239707D01*
X122565721Y-92287326D02*
X122327626Y-91573040D01*
X122946674Y-91573040D01*
X123280007Y-92144468D02*
X123327626Y-92192088D01*
X123422864Y-92239707D01*
X123660959Y-92239707D01*
X123756198Y-92192088D01*
X123803817Y-92144468D01*
X123851436Y-92049230D01*
X123851436Y-91953992D01*
X123803817Y-91811135D01*
X123232388Y-91239707D01*
X123851436Y-91239707D01*
X124232388Y-92144468D02*
X124280007Y-92192088D01*
X124375245Y-92239707D01*
X124613340Y-92239707D01*
X124708579Y-92192088D01*
X124756198Y-92144468D01*
X124803817Y-92049230D01*
X124803817Y-91953992D01*
X124756198Y-91811135D01*
X124184769Y-91239707D01*
X124803817Y-91239707D01*
X120375245Y-96539707D02*
X120375245Y-95825421D01*
X120327626Y-95682564D01*
X120232388Y-95587326D01*
X120089531Y-95539707D01*
X119994293Y-95539707D01*
X120803817Y-96444468D02*
X120851436Y-96492088D01*
X120946674Y-96539707D01*
X121184769Y-96539707D01*
X121280007Y-96492088D01*
X121327626Y-96444468D01*
X121375245Y-96349230D01*
X121375245Y-96253992D01*
X121327626Y-96111135D01*
X120756198Y-95539707D01*
X121375245Y-95539707D01*
X141851436Y-117239707D02*
X141946674Y-117239707D01*
X142041912Y-117192088D01*
X142089531Y-117144468D01*
X142137150Y-117049230D01*
X142184769Y-116858754D01*
X142184769Y-116620659D01*
X142137150Y-116430183D01*
X142089531Y-116334945D01*
X142041912Y-116287326D01*
X141946674Y-116239707D01*
X141851436Y-116239707D01*
X141756198Y-116287326D01*
X141708579Y-116334945D01*
X141660959Y-116430183D01*
X141613340Y-116620659D01*
X141613340Y-116858754D01*
X141660959Y-117049230D01*
X141708579Y-117144468D01*
X141756198Y-117192088D01*
X141851436Y-117239707D01*
X143089531Y-117239707D02*
X142613340Y-117239707D01*
X142565721Y-116763516D01*
X142613340Y-116811135D01*
X142708579Y-116858754D01*
X142946674Y-116858754D01*
X143041912Y-116811135D01*
X143089531Y-116763516D01*
X143137150Y-116668278D01*
X143137150Y-116430183D01*
X143089531Y-116334945D01*
X143041912Y-116287326D01*
X142946674Y-116239707D01*
X142708579Y-116239707D01*
X142613340Y-116287326D01*
X142565721Y-116334945D01*
X143756198Y-117239707D02*
X143851436Y-117239707D01*
X143946674Y-117192088D01*
X143994293Y-117144468D01*
X144041912Y-117049230D01*
X144089531Y-116858754D01*
X144089531Y-116620659D01*
X144041912Y-116430183D01*
X143994293Y-116334945D01*
X143946674Y-116287326D01*
X143851436Y-116239707D01*
X143756198Y-116239707D01*
X143660959Y-116287326D01*
X143613340Y-116334945D01*
X143565721Y-116430183D01*
X143518102Y-116620659D01*
X143518102Y-116858754D01*
X143565721Y-117049230D01*
X143613340Y-117144468D01*
X143660959Y-117192088D01*
X143756198Y-117239707D01*
X144422864Y-117239707D02*
X145089531Y-117239707D01*
X144660959Y-116239707D01*
X145660959Y-117239707D02*
X145756198Y-117239707D01*
X145851436Y-117192088D01*
X145899055Y-117144468D01*
X145946674Y-117049230D01*
X145994293Y-116858754D01*
X145994293Y-116620659D01*
X145946674Y-116430183D01*
X145899055Y-116334945D01*
X145851436Y-116287326D01*
X145756198Y-116239707D01*
X145660959Y-116239707D01*
X145565721Y-116287326D01*
X145518102Y-116334945D01*
X145470483Y-116430183D01*
X145422864Y-116620659D01*
X145422864Y-116858754D01*
X145470483Y-117049230D01*
X145518102Y-117144468D01*
X145565721Y-117192088D01*
X145660959Y-117239707D01*
X146375245Y-117144468D02*
X146422864Y-117192088D01*
X146518102Y-117239707D01*
X146756198Y-117239707D01*
X146851436Y-117192088D01*
X146899055Y-117144468D01*
X146946674Y-117049230D01*
X146946674Y-116953992D01*
X146899055Y-116811135D01*
X146327626Y-116239707D01*
X146946674Y-116239707D01*
X147803817Y-116906373D02*
X147803817Y-116239707D01*
X147565721Y-117287326D02*
X147327626Y-116573040D01*
X147946674Y-116573040D01*
X148280007Y-117144468D02*
X148327626Y-117192088D01*
X148422864Y-117239707D01*
X148660959Y-117239707D01*
X148756198Y-117192088D01*
X148803817Y-117144468D01*
X148851436Y-117049230D01*
X148851436Y-116953992D01*
X148803817Y-116811135D01*
X148232388Y-116239707D01*
X148851436Y-116239707D01*
X149232388Y-117144468D02*
X149280007Y-117192088D01*
X149375245Y-117239707D01*
X149613340Y-117239707D01*
X149708579Y-117192088D01*
X149756198Y-117144468D01*
X149803817Y-117049230D01*
X149803817Y-116953992D01*
X149756198Y-116811135D01*
X149184769Y-116239707D01*
X149803817Y-116239707D01*
X145375245Y-121539707D02*
X145375245Y-120825421D01*
X145327626Y-120682564D01*
X145232388Y-120587326D01*
X145089531Y-120539707D01*
X144994293Y-120539707D01*
X145803817Y-121444468D02*
X145851436Y-121492088D01*
X145946674Y-121539707D01*
X146184769Y-121539707D01*
X146280007Y-121492088D01*
X146327626Y-121444468D01*
X146375245Y-121349230D01*
X146375245Y-121253992D01*
X146327626Y-121111135D01*
X145756198Y-120539707D01*
X146375245Y-120539707D01*
X166851436Y-117239707D02*
X166946674Y-117239707D01*
X167041912Y-117192088D01*
X167089531Y-117144468D01*
X167137150Y-117049230D01*
X167184769Y-116858754D01*
X167184769Y-116620659D01*
X167137150Y-116430183D01*
X167089531Y-116334945D01*
X167041912Y-116287326D01*
X166946674Y-116239707D01*
X166851436Y-116239707D01*
X166756198Y-116287326D01*
X166708579Y-116334945D01*
X166660959Y-116430183D01*
X166613340Y-116620659D01*
X166613340Y-116858754D01*
X166660959Y-117049230D01*
X166708579Y-117144468D01*
X166756198Y-117192088D01*
X166851436Y-117239707D01*
X168089531Y-117239707D02*
X167613340Y-117239707D01*
X167565721Y-116763516D01*
X167613340Y-116811135D01*
X167708579Y-116858754D01*
X167946674Y-116858754D01*
X168041912Y-116811135D01*
X168089531Y-116763516D01*
X168137150Y-116668278D01*
X168137150Y-116430183D01*
X168089531Y-116334945D01*
X168041912Y-116287326D01*
X167946674Y-116239707D01*
X167708579Y-116239707D01*
X167613340Y-116287326D01*
X167565721Y-116334945D01*
X168756198Y-117239707D02*
X168851436Y-117239707D01*
X168946674Y-117192088D01*
X168994293Y-117144468D01*
X169041912Y-117049230D01*
X169089531Y-116858754D01*
X169089531Y-116620659D01*
X169041912Y-116430183D01*
X168994293Y-116334945D01*
X168946674Y-116287326D01*
X168851436Y-116239707D01*
X168756198Y-116239707D01*
X168660959Y-116287326D01*
X168613340Y-116334945D01*
X168565721Y-116430183D01*
X168518102Y-116620659D01*
X168518102Y-116858754D01*
X168565721Y-117049230D01*
X168613340Y-117144468D01*
X168660959Y-117192088D01*
X168756198Y-117239707D01*
X169422864Y-117239707D02*
X170089531Y-117239707D01*
X169660959Y-116239707D01*
X170660959Y-117239707D02*
X170756198Y-117239707D01*
X170851436Y-117192088D01*
X170899055Y-117144468D01*
X170946674Y-117049230D01*
X170994293Y-116858754D01*
X170994293Y-116620659D01*
X170946674Y-116430183D01*
X170899055Y-116334945D01*
X170851436Y-116287326D01*
X170756198Y-116239707D01*
X170660959Y-116239707D01*
X170565721Y-116287326D01*
X170518102Y-116334945D01*
X170470483Y-116430183D01*
X170422864Y-116620659D01*
X170422864Y-116858754D01*
X170470483Y-117049230D01*
X170518102Y-117144468D01*
X170565721Y-117192088D01*
X170660959Y-117239707D01*
X171375245Y-117144468D02*
X171422864Y-117192088D01*
X171518102Y-117239707D01*
X171756198Y-117239707D01*
X171851436Y-117192088D01*
X171899055Y-117144468D01*
X171946674Y-117049230D01*
X171946674Y-116953992D01*
X171899055Y-116811135D01*
X171327626Y-116239707D01*
X171946674Y-116239707D01*
X172803817Y-116906373D02*
X172803817Y-116239707D01*
X172565721Y-117287326D02*
X172327626Y-116573040D01*
X172946674Y-116573040D01*
X173280007Y-117144468D02*
X173327626Y-117192088D01*
X173422864Y-117239707D01*
X173660959Y-117239707D01*
X173756198Y-117192088D01*
X173803817Y-117144468D01*
X173851436Y-117049230D01*
X173851436Y-116953992D01*
X173803817Y-116811135D01*
X173232388Y-116239707D01*
X173851436Y-116239707D01*
X174232388Y-117144468D02*
X174280007Y-117192088D01*
X174375245Y-117239707D01*
X174613340Y-117239707D01*
X174708579Y-117192088D01*
X174756198Y-117144468D01*
X174803817Y-117049230D01*
X174803817Y-116953992D01*
X174756198Y-116811135D01*
X174184769Y-116239707D01*
X174803817Y-116239707D01*
X170375245Y-121539707D02*
X170375245Y-120825421D01*
X170327626Y-120682564D01*
X170232388Y-120587326D01*
X170089531Y-120539707D01*
X169994293Y-120539707D01*
X170803817Y-121444468D02*
X170851436Y-121492088D01*
X170946674Y-121539707D01*
X171184769Y-121539707D01*
X171280007Y-121492088D01*
X171327626Y-121444468D01*
X171375245Y-121349230D01*
X171375245Y-121253992D01*
X171327626Y-121111135D01*
X170756198Y-120539707D01*
X171375245Y-120539707D01*
X116851436Y-117239707D02*
X116946674Y-117239707D01*
X117041912Y-117192088D01*
X117089531Y-117144468D01*
X117137150Y-117049230D01*
X117184769Y-116858754D01*
X117184769Y-116620659D01*
X117137150Y-116430183D01*
X117089531Y-116334945D01*
X117041912Y-116287326D01*
X116946674Y-116239707D01*
X116851436Y-116239707D01*
X116756198Y-116287326D01*
X116708579Y-116334945D01*
X116660959Y-116430183D01*
X116613340Y-116620659D01*
X116613340Y-116858754D01*
X116660959Y-117049230D01*
X116708579Y-117144468D01*
X116756198Y-117192088D01*
X116851436Y-117239707D01*
X118089531Y-117239707D02*
X117613340Y-117239707D01*
X117565721Y-116763516D01*
X117613340Y-116811135D01*
X117708579Y-116858754D01*
X117946674Y-116858754D01*
X118041912Y-116811135D01*
X118089531Y-116763516D01*
X118137150Y-116668278D01*
X118137150Y-116430183D01*
X118089531Y-116334945D01*
X118041912Y-116287326D01*
X117946674Y-116239707D01*
X117708579Y-116239707D01*
X117613340Y-116287326D01*
X117565721Y-116334945D01*
X118756198Y-117239707D02*
X118851436Y-117239707D01*
X118946674Y-117192088D01*
X118994293Y-117144468D01*
X119041912Y-117049230D01*
X119089531Y-116858754D01*
X119089531Y-116620659D01*
X119041912Y-116430183D01*
X118994293Y-116334945D01*
X118946674Y-116287326D01*
X118851436Y-116239707D01*
X118756198Y-116239707D01*
X118660959Y-116287326D01*
X118613340Y-116334945D01*
X118565721Y-116430183D01*
X118518102Y-116620659D01*
X118518102Y-116858754D01*
X118565721Y-117049230D01*
X118613340Y-117144468D01*
X118660959Y-117192088D01*
X118756198Y-117239707D01*
X119422864Y-117239707D02*
X120089531Y-117239707D01*
X119660959Y-116239707D01*
X120660959Y-117239707D02*
X120756198Y-117239707D01*
X120851436Y-117192088D01*
X120899055Y-117144468D01*
X120946674Y-117049230D01*
X120994293Y-116858754D01*
X120994293Y-116620659D01*
X120946674Y-116430183D01*
X120899055Y-116334945D01*
X120851436Y-116287326D01*
X120756198Y-116239707D01*
X120660959Y-116239707D01*
X120565721Y-116287326D01*
X120518102Y-116334945D01*
X120470483Y-116430183D01*
X120422864Y-116620659D01*
X120422864Y-116858754D01*
X120470483Y-117049230D01*
X120518102Y-117144468D01*
X120565721Y-117192088D01*
X120660959Y-117239707D01*
X121375245Y-117144468D02*
X121422864Y-117192088D01*
X121518102Y-117239707D01*
X121756198Y-117239707D01*
X121851436Y-117192088D01*
X121899055Y-117144468D01*
X121946674Y-117049230D01*
X121946674Y-116953992D01*
X121899055Y-116811135D01*
X121327626Y-116239707D01*
X121946674Y-116239707D01*
X122803817Y-116906373D02*
X122803817Y-116239707D01*
X122565721Y-117287326D02*
X122327626Y-116573040D01*
X122946674Y-116573040D01*
X123280007Y-117144468D02*
X123327626Y-117192088D01*
X123422864Y-117239707D01*
X123660959Y-117239707D01*
X123756198Y-117192088D01*
X123803817Y-117144468D01*
X123851436Y-117049230D01*
X123851436Y-116953992D01*
X123803817Y-116811135D01*
X123232388Y-116239707D01*
X123851436Y-116239707D01*
X124232388Y-117144468D02*
X124280007Y-117192088D01*
X124375245Y-117239707D01*
X124613340Y-117239707D01*
X124708579Y-117192088D01*
X124756198Y-117144468D01*
X124803817Y-117049230D01*
X124803817Y-116953992D01*
X124756198Y-116811135D01*
X124184769Y-116239707D01*
X124803817Y-116239707D01*
X120375245Y-121539707D02*
X120375245Y-120825421D01*
X120327626Y-120682564D01*
X120232388Y-120587326D01*
X120089531Y-120539707D01*
X119994293Y-120539707D01*
X120803817Y-121444468D02*
X120851436Y-121492088D01*
X120946674Y-121539707D01*
X121184769Y-121539707D01*
X121280007Y-121492088D01*
X121327626Y-121444468D01*
X121375245Y-121349230D01*
X121375245Y-121253992D01*
X121327626Y-121111135D01*
X120756198Y-120539707D01*
X121375245Y-120539707D01*
X91851436Y-117239707D02*
X91946674Y-117239707D01*
X92041912Y-117192088D01*
X92089531Y-117144468D01*
X92137150Y-117049230D01*
X92184769Y-116858754D01*
X92184769Y-116620659D01*
X92137150Y-116430183D01*
X92089531Y-116334945D01*
X92041912Y-116287326D01*
X91946674Y-116239707D01*
X91851436Y-116239707D01*
X91756198Y-116287326D01*
X91708579Y-116334945D01*
X91660959Y-116430183D01*
X91613340Y-116620659D01*
X91613340Y-116858754D01*
X91660959Y-117049230D01*
X91708579Y-117144468D01*
X91756198Y-117192088D01*
X91851436Y-117239707D01*
X93089531Y-117239707D02*
X92613340Y-117239707D01*
X92565721Y-116763516D01*
X92613340Y-116811135D01*
X92708579Y-116858754D01*
X92946674Y-116858754D01*
X93041912Y-116811135D01*
X93089531Y-116763516D01*
X93137150Y-116668278D01*
X93137150Y-116430183D01*
X93089531Y-116334945D01*
X93041912Y-116287326D01*
X92946674Y-116239707D01*
X92708579Y-116239707D01*
X92613340Y-116287326D01*
X92565721Y-116334945D01*
X93756198Y-117239707D02*
X93851436Y-117239707D01*
X93946674Y-117192088D01*
X93994293Y-117144468D01*
X94041912Y-117049230D01*
X94089531Y-116858754D01*
X94089531Y-116620659D01*
X94041912Y-116430183D01*
X93994293Y-116334945D01*
X93946674Y-116287326D01*
X93851436Y-116239707D01*
X93756198Y-116239707D01*
X93660959Y-116287326D01*
X93613340Y-116334945D01*
X93565721Y-116430183D01*
X93518102Y-116620659D01*
X93518102Y-116858754D01*
X93565721Y-117049230D01*
X93613340Y-117144468D01*
X93660959Y-117192088D01*
X93756198Y-117239707D01*
X94422864Y-117239707D02*
X95089531Y-117239707D01*
X94660959Y-116239707D01*
X95660959Y-117239707D02*
X95756198Y-117239707D01*
X95851436Y-117192088D01*
X95899055Y-117144468D01*
X95946674Y-117049230D01*
X95994293Y-116858754D01*
X95994293Y-116620659D01*
X95946674Y-116430183D01*
X95899055Y-116334945D01*
X95851436Y-116287326D01*
X95756198Y-116239707D01*
X95660959Y-116239707D01*
X95565721Y-116287326D01*
X95518102Y-116334945D01*
X95470483Y-116430183D01*
X95422864Y-116620659D01*
X95422864Y-116858754D01*
X95470483Y-117049230D01*
X95518102Y-117144468D01*
X95565721Y-117192088D01*
X95660959Y-117239707D01*
X96375245Y-117144468D02*
X96422864Y-117192088D01*
X96518102Y-117239707D01*
X96756198Y-117239707D01*
X96851436Y-117192088D01*
X96899055Y-117144468D01*
X96946674Y-117049230D01*
X96946674Y-116953992D01*
X96899055Y-116811135D01*
X96327626Y-116239707D01*
X96946674Y-116239707D01*
X97803817Y-116906373D02*
X97803817Y-116239707D01*
X97565721Y-117287326D02*
X97327626Y-116573040D01*
X97946674Y-116573040D01*
X98280007Y-117144468D02*
X98327626Y-117192088D01*
X98422864Y-117239707D01*
X98660959Y-117239707D01*
X98756198Y-117192088D01*
X98803817Y-117144468D01*
X98851436Y-117049230D01*
X98851436Y-116953992D01*
X98803817Y-116811135D01*
X98232388Y-116239707D01*
X98851436Y-116239707D01*
X99232388Y-117144468D02*
X99280007Y-117192088D01*
X99375245Y-117239707D01*
X99613340Y-117239707D01*
X99708579Y-117192088D01*
X99756198Y-117144468D01*
X99803817Y-117049230D01*
X99803817Y-116953992D01*
X99756198Y-116811135D01*
X99184769Y-116239707D01*
X99803817Y-116239707D01*
X95375245Y-121539707D02*
X95375245Y-120825421D01*
X95327626Y-120682564D01*
X95232388Y-120587326D01*
X95089531Y-120539707D01*
X94994293Y-120539707D01*
X95803817Y-121444468D02*
X95851436Y-121492088D01*
X95946674Y-121539707D01*
X96184769Y-121539707D01*
X96280007Y-121492088D01*
X96327626Y-121444468D01*
X96375245Y-121349230D01*
X96375245Y-121253992D01*
X96327626Y-121111135D01*
X95756198Y-120539707D01*
X96375245Y-120539707D01*
%TD*%
M02*
