%TF.GenerationSoftware,KiCad,Pcbnew,(6.0.0)*%
%TF.CreationDate,2022-03-28T07:48:23-07:00*%
%TF.ProjectId,pupdrive-eib24_panel,70757064-7269-4766-952d-65696232345f,A*%
%TF.SameCoordinates,Original*%
%TF.FileFunction,Soldermask,Bot*%
%TF.FilePolarity,Negative*%
%FSLAX46Y46*%
G04 Gerber Fmt 4.6, Leading zero omitted, Abs format (unit mm)*
G04 Created by KiCad (PCBNEW (6.0.0)) date 2022-03-28 07:48:23*
%MOMM*%
%LPD*%
G01*
G04 APERTURE LIST*
G04 Aperture macros list*
%AMRoundRect*
0 Rectangle with rounded corners*
0 $1 Rounding radius*
0 $2 $3 $4 $5 $6 $7 $8 $9 X,Y pos of 4 corners*
0 Add a 4 corners polygon primitive as box body*
4,1,4,$2,$3,$4,$5,$6,$7,$8,$9,$2,$3,0*
0 Add four circle primitives for the rounded corners*
1,1,$1+$1,$2,$3*
1,1,$1+$1,$4,$5*
1,1,$1+$1,$6,$7*
1,1,$1+$1,$8,$9*
0 Add four rect primitives between the rounded corners*
20,1,$1+$1,$2,$3,$4,$5,0*
20,1,$1+$1,$4,$5,$6,$7,0*
20,1,$1+$1,$6,$7,$8,$9,0*
20,1,$1+$1,$8,$9,$2,$3,0*%
G04 Aperture macros list end*
%ADD10C,0.420000*%
%ADD11C,6.400000*%
%ADD12RoundRect,0.008000X-0.072000X-0.212000X0.072000X-0.212000X0.072000X0.212000X-0.072000X0.212000X0*%
%ADD13RoundRect,0.010500X-0.094500X-0.229500X0.094500X-0.229500X0.094500X0.229500X-0.094500X0.229500X0*%
G04 APERTURE END LIST*
D10*
%TO.C,TP19*%
X143757107Y-79007107D03*
%TD*%
%TO.C,TP7*%
X170607107Y-98307107D03*
%TD*%
%TO.C,TP6*%
X121307107Y-79007107D03*
%TD*%
%TO.C,TP26*%
X117707107Y-102007107D03*
%TD*%
%TO.C,TP2*%
X121707107Y-100807107D03*
%TD*%
%TO.C,TP16*%
X119407107Y-101407107D03*
%TD*%
%TO.C,TP20*%
X117707107Y-80207107D03*
%TD*%
%TO.C,TP9*%
X95657107Y-79007107D03*
%TD*%
%TO.C,TP7*%
X170607107Y-118307107D03*
%TD*%
%TO.C,TP18*%
X92707107Y-58307107D03*
%TD*%
%TO.C,TP16*%
X94407107Y-81407107D03*
%TD*%
%TO.C,TP9*%
X170657107Y-99007107D03*
%TD*%
%TO.C,TP3*%
X146707107Y-120207107D03*
%TD*%
%TO.C,TP15*%
X119407107Y-57707107D03*
%TD*%
%TO.C,TP7*%
X95607107Y-118307107D03*
%TD*%
%TO.C,TP26*%
X92707107Y-122007107D03*
%TD*%
%TO.C,TP19*%
X168757107Y-79007107D03*
%TD*%
%TO.C,TP15*%
X94407107Y-119007107D03*
%TD*%
%TO.C,TP1*%
X146707107Y-81407107D03*
%TD*%
%TO.C,TP8*%
X96707107Y-119607107D03*
%TD*%
%TO.C,TP9*%
X120657107Y-79007107D03*
%TD*%
%TO.C,TP24*%
X92707107Y-121407107D03*
%TD*%
%TO.C,TP2*%
X171707107Y-120807107D03*
%TD*%
%TO.C,TP4*%
X121707107Y-102007107D03*
%TD*%
%TO.C,TP20*%
X167707107Y-120207107D03*
%TD*%
%TO.C,TP22*%
X117707107Y-80807107D03*
%TD*%
%TO.C,TP4*%
X146707107Y-60707107D03*
%TD*%
%TO.C,TP3*%
X146707107Y-100207107D03*
%TD*%
%TO.C,TP4*%
X146707107Y-122007107D03*
%TD*%
%TO.C,TP18*%
X92707107Y-79607107D03*
%TD*%
%TO.C,TP26*%
X167707107Y-82007107D03*
%TD*%
%TO.C,TP9*%
X145657107Y-99007107D03*
%TD*%
%TO.C,TP2*%
X171707107Y-59507107D03*
%TD*%
%TO.C,TP14*%
X144407107Y-60707107D03*
%TD*%
%TO.C,TP1*%
X121707107Y-60107107D03*
%TD*%
%TO.C,TP13*%
X120007107Y-119007107D03*
%TD*%
D11*
%TO.C,REF\u002A\u002A*%
X75500000Y-140700000D03*
%TD*%
D10*
%TO.C,TP21*%
X143807107Y-57007107D03*
%TD*%
%TO.C,TP15*%
X94407107Y-99007107D03*
%TD*%
%TO.C,TP1*%
X171707107Y-60107107D03*
%TD*%
D11*
%TO.C,REF\u002A\u002A*%
X75500000Y-40700000D03*
%TD*%
D10*
%TO.C,TP12*%
X145007107Y-82007107D03*
%TD*%
%TO.C,TP5*%
X121207107Y-118307107D03*
%TD*%
%TO.C,TP18*%
X117707107Y-58307107D03*
%TD*%
%TO.C,TP10*%
X120007107Y-60107107D03*
%TD*%
%TO.C,TP7*%
X170607107Y-78307107D03*
%TD*%
%TO.C,TP22*%
X92707107Y-100807107D03*
%TD*%
%TO.C,TP19*%
X93757107Y-99007107D03*
%TD*%
%TO.C,TP8*%
X96707107Y-79607107D03*
%TD*%
%TO.C,TP5*%
X146207107Y-57007107D03*
%TD*%
%TO.C,TP19*%
X93757107Y-57707107D03*
%TD*%
%TO.C,TP12*%
X120007107Y-122007107D03*
%TD*%
%TO.C,TP21*%
X143807107Y-98307107D03*
%TD*%
%TO.C,TP1*%
X96707107Y-121407107D03*
%TD*%
%TO.C,TP16*%
X119407107Y-60107107D03*
%TD*%
%TO.C,TP10*%
X145007107Y-101407107D03*
%TD*%
%TO.C,TP1*%
X146707107Y-121407107D03*
%TD*%
%TO.C,TP15*%
X94407107Y-57707107D03*
%TD*%
%TO.C,TP1*%
X121707107Y-101407107D03*
%TD*%
%TO.C,TP9*%
X120657107Y-119007107D03*
%TD*%
%TO.C,TP5*%
X96207107Y-118307107D03*
%TD*%
%TO.C,TP15*%
X144407107Y-99007107D03*
%TD*%
%TO.C,TP5*%
X146207107Y-98307107D03*
%TD*%
%TO.C,TP13*%
X170007107Y-119007107D03*
%TD*%
%TO.C,TP24*%
X167707107Y-101407107D03*
%TD*%
%TO.C,TP20*%
X167707107Y-80207107D03*
%TD*%
%TO.C,TP6*%
X171307107Y-79007107D03*
%TD*%
%TO.C,TP9*%
X170657107Y-57707107D03*
%TD*%
%TO.C,TP24*%
X142707107Y-101407107D03*
%TD*%
%TO.C,TP16*%
X169407107Y-81407107D03*
%TD*%
%TO.C,TP4*%
X171707107Y-122007107D03*
%TD*%
%TO.C,TP3*%
X171707107Y-120207107D03*
%TD*%
%TO.C,TP26*%
X167707107Y-122007107D03*
%TD*%
%TO.C,TP13*%
X95007107Y-119007107D03*
%TD*%
%TO.C,TP23*%
X143107107Y-99007107D03*
%TD*%
%TO.C,TP14*%
X119407107Y-122007107D03*
%TD*%
%TO.C,TP20*%
X92707107Y-58907107D03*
%TD*%
%TO.C,TP12*%
X95007107Y-122007107D03*
%TD*%
%TO.C,TP21*%
X168807107Y-98307107D03*
%TD*%
%TO.C,TP12*%
X95007107Y-60707107D03*
%TD*%
%TO.C,TP4*%
X171707107Y-102007107D03*
%TD*%
%TO.C,TP21*%
X118807107Y-98307107D03*
%TD*%
%TO.C,TP1*%
X96707107Y-60107107D03*
%TD*%
%TO.C,TP8*%
X146707107Y-58307107D03*
%TD*%
%TO.C,TP19*%
X118757107Y-79007107D03*
%TD*%
%TO.C,TP13*%
X145007107Y-119007107D03*
%TD*%
%TO.C,TP20*%
X92707107Y-80207107D03*
%TD*%
%TO.C,TP17*%
X144407107Y-98307107D03*
%TD*%
%TO.C,TP1*%
X146707107Y-60107107D03*
%TD*%
%TO.C,TP13*%
X145007107Y-79007107D03*
%TD*%
%TO.C,TP19*%
X143757107Y-99007107D03*
%TD*%
%TO.C,TP24*%
X167707107Y-121407107D03*
%TD*%
%TO.C,TP12*%
X120007107Y-82007107D03*
%TD*%
%TO.C,TP3*%
X171707107Y-80207107D03*
%TD*%
%TO.C,TP7*%
X120607107Y-78307107D03*
%TD*%
%TO.C,TP8*%
X121707107Y-79607107D03*
%TD*%
%TO.C,TP3*%
X96707107Y-120207107D03*
%TD*%
%TO.C,TP12*%
X120007107Y-102007107D03*
%TD*%
%TO.C,TP18*%
X142707107Y-99607107D03*
%TD*%
%TO.C,TP7*%
X145607107Y-118307107D03*
%TD*%
%TO.C,TP18*%
X117707107Y-119607107D03*
%TD*%
%TO.C,TP25*%
X168207107Y-57007107D03*
%TD*%
%TO.C,TP24*%
X117707107Y-81407107D03*
%TD*%
%TO.C,TP23*%
X143107107Y-57707107D03*
%TD*%
%TO.C,TP2*%
X96707107Y-80807107D03*
%TD*%
%TO.C,TP23*%
X93107107Y-57707107D03*
%TD*%
%TO.C,TP17*%
X144407107Y-118307107D03*
%TD*%
%TO.C,TP4*%
X96707107Y-82007107D03*
%TD*%
%TO.C,TP4*%
X171707107Y-82007107D03*
%TD*%
%TO.C,TP1*%
X121707107Y-121407107D03*
%TD*%
%TO.C,TP4*%
X96707107Y-102007107D03*
%TD*%
%TO.C,TP18*%
X167707107Y-58307107D03*
%TD*%
%TO.C,TP4*%
X171707107Y-60707107D03*
%TD*%
%TO.C,TP20*%
X92707107Y-100207107D03*
%TD*%
%TO.C,TP5*%
X96207107Y-98307107D03*
%TD*%
%TO.C,TP4*%
X96707107Y-122007107D03*
%TD*%
%TO.C,TP7*%
X120607107Y-98307107D03*
%TD*%
%TO.C,TP13*%
X95007107Y-79007107D03*
%TD*%
%TO.C,TP6*%
X96307107Y-79007107D03*
%TD*%
%TO.C,TP16*%
X169407107Y-121407107D03*
%TD*%
%TO.C,TP7*%
X120607107Y-57007107D03*
%TD*%
%TO.C,TP14*%
X169407107Y-82007107D03*
%TD*%
%TO.C,TP22*%
X92707107Y-80807107D03*
%TD*%
%TO.C,TP3*%
X121707107Y-120207107D03*
%TD*%
%TO.C,TP23*%
X168107107Y-119007107D03*
%TD*%
%TO.C,TP6*%
X121307107Y-119007107D03*
%TD*%
%TO.C,TP13*%
X145007107Y-99007107D03*
%TD*%
%TO.C,TP22*%
X92707107Y-59507107D03*
%TD*%
%TO.C,TP25*%
X118207107Y-78307107D03*
%TD*%
%TO.C,TP16*%
X169407107Y-101407107D03*
%TD*%
%TO.C,TP8*%
X146707107Y-79607107D03*
%TD*%
%TO.C,TP17*%
X169407107Y-98307107D03*
%TD*%
%TO.C,TP17*%
X169407107Y-57007107D03*
%TD*%
%TO.C,TP4*%
X96707107Y-60707107D03*
%TD*%
%TO.C,TP17*%
X94407107Y-98307107D03*
%TD*%
%TO.C,TP11*%
X145007107Y-98307107D03*
%TD*%
%TO.C,TP5*%
X96207107Y-57007107D03*
%TD*%
%TO.C,TP14*%
X119407107Y-102007107D03*
%TD*%
%TO.C,TP26*%
X142707107Y-102007107D03*
%TD*%
%TO.C,TP24*%
X117707107Y-60107107D03*
%TD*%
%TO.C,TP21*%
X168807107Y-78307107D03*
%TD*%
%TO.C,TP19*%
X118757107Y-57707107D03*
%TD*%
%TO.C,TP6*%
X96307107Y-119007107D03*
%TD*%
%TO.C,TP21*%
X118807107Y-78307107D03*
%TD*%
%TO.C,TP17*%
X144407107Y-78307107D03*
%TD*%
%TO.C,TP18*%
X167707107Y-99607107D03*
%TD*%
%TO.C,TP8*%
X121707107Y-58307107D03*
%TD*%
%TO.C,TP8*%
X171707107Y-99607107D03*
%TD*%
%TO.C,TP2*%
X146707107Y-59507107D03*
%TD*%
%TO.C,TP18*%
X142707107Y-58307107D03*
%TD*%
%TO.C,TP4*%
X146707107Y-102007107D03*
%TD*%
%TO.C,TP1*%
X171707107Y-101407107D03*
%TD*%
%TO.C,TP6*%
X121307107Y-57707107D03*
%TD*%
%TO.C,TP14*%
X94407107Y-60707107D03*
%TD*%
%TO.C,TP13*%
X120007107Y-79007107D03*
%TD*%
%TO.C,TP11*%
X120007107Y-78307107D03*
%TD*%
%TO.C,TP2*%
X146707107Y-120807107D03*
%TD*%
%TO.C,TP22*%
X167707107Y-100807107D03*
%TD*%
%TO.C,TP8*%
X171707107Y-79607107D03*
%TD*%
%TO.C,TP7*%
X145607107Y-78307107D03*
%TD*%
%TO.C,TP3*%
X121707107Y-58907107D03*
%TD*%
%TO.C,TP20*%
X142707107Y-100207107D03*
%TD*%
%TO.C,TP2*%
X146707107Y-100807107D03*
%TD*%
%TO.C,TP2*%
X121707107Y-120807107D03*
%TD*%
%TO.C,TP4*%
X121707107Y-82007107D03*
%TD*%
%TO.C,TP8*%
X121707107Y-119607107D03*
%TD*%
%TO.C,TP24*%
X167707107Y-60107107D03*
%TD*%
%TO.C,TP11*%
X95007107Y-118307107D03*
%TD*%
%TO.C,TP2*%
X121707107Y-59507107D03*
%TD*%
%TO.C,TP10*%
X95007107Y-101407107D03*
%TD*%
%TO.C,TP15*%
X169407107Y-99007107D03*
%TD*%
%TO.C,TP9*%
X95657107Y-99007107D03*
%TD*%
%TO.C,TP9*%
X145657107Y-119007107D03*
%TD*%
%TO.C,TP10*%
X170007107Y-81407107D03*
%TD*%
%TO.C,TP13*%
X145007107Y-57707107D03*
%TD*%
%TO.C,TP14*%
X94407107Y-82007107D03*
%TD*%
%TO.C,TP6*%
X96307107Y-99007107D03*
%TD*%
%TO.C,TP16*%
X94407107Y-121407107D03*
%TD*%
%TO.C,TP1*%
X121707107Y-81407107D03*
%TD*%
%TO.C,TP3*%
X121707107Y-100207107D03*
%TD*%
%TO.C,TP8*%
X96707107Y-99607107D03*
%TD*%
%TO.C,TP21*%
X143807107Y-118307107D03*
%TD*%
%TO.C,TP3*%
X121707107Y-80207107D03*
%TD*%
%TO.C,TP9*%
X95657107Y-119007107D03*
%TD*%
%TO.C,TP7*%
X170607107Y-57007107D03*
%TD*%
%TO.C,TP11*%
X145007107Y-78307107D03*
%TD*%
%TO.C,TP21*%
X168807107Y-118307107D03*
%TD*%
%TO.C,TP24*%
X117707107Y-101407107D03*
%TD*%
%TO.C,TP11*%
X170007107Y-57007107D03*
%TD*%
%TO.C,TP22*%
X92707107Y-120807107D03*
%TD*%
%TO.C,TP22*%
X142707107Y-59507107D03*
%TD*%
%TO.C,TP12*%
X170007107Y-102007107D03*
%TD*%
%TO.C,TP16*%
X94407107Y-60107107D03*
%TD*%
%TO.C,TP3*%
X96707107Y-58907107D03*
%TD*%
%TO.C,TP14*%
X119407107Y-60707107D03*
%TD*%
%TO.C,TP11*%
X170007107Y-98307107D03*
%TD*%
%TO.C,TP8*%
X121707107Y-99607107D03*
%TD*%
%TO.C,TP2*%
X146707107Y-80807107D03*
%TD*%
%TO.C,TP18*%
X142707107Y-119607107D03*
%TD*%
%TO.C,TP20*%
X117707107Y-58907107D03*
%TD*%
%TO.C,TP5*%
X121207107Y-57007107D03*
%TD*%
%TO.C,TP23*%
X93107107Y-119007107D03*
%TD*%
%TO.C,TP14*%
X169407107Y-60707107D03*
%TD*%
%TO.C,TP16*%
X169407107Y-60107107D03*
%TD*%
%TO.C,TP18*%
X117707107Y-99607107D03*
%TD*%
%TO.C,TP8*%
X171707107Y-58307107D03*
%TD*%
%TO.C,TP22*%
X142707107Y-100807107D03*
%TD*%
%TO.C,TP12*%
X170007107Y-60707107D03*
%TD*%
%TO.C,TP25*%
X168207107Y-118307107D03*
%TD*%
%TO.C,TP10*%
X120007107Y-101407107D03*
%TD*%
%TO.C,TP9*%
X145657107Y-57707107D03*
%TD*%
%TO.C,TP3*%
X171707107Y-58907107D03*
%TD*%
%TO.C,TP18*%
X92707107Y-119607107D03*
%TD*%
%TO.C,TP25*%
X118207107Y-98307107D03*
%TD*%
%TO.C,TP18*%
X92707107Y-99607107D03*
%TD*%
%TO.C,TP24*%
X142707107Y-81407107D03*
%TD*%
%TO.C,TP14*%
X144407107Y-82007107D03*
%TD*%
%TO.C,TP15*%
X169407107Y-57707107D03*
%TD*%
%TO.C,TP26*%
X92707107Y-60707107D03*
%TD*%
%TO.C,TP11*%
X145007107Y-118307107D03*
%TD*%
%TO.C,TP10*%
X145007107Y-121407107D03*
%TD*%
%TO.C,TP26*%
X167707107Y-102007107D03*
%TD*%
%TO.C,TP4*%
X121707107Y-60707107D03*
%TD*%
%TO.C,TP16*%
X119407107Y-121407107D03*
%TD*%
%TO.C,TP16*%
X144407107Y-121407107D03*
%TD*%
%TO.C,TP10*%
X95007107Y-60107107D03*
%TD*%
%TO.C,TP22*%
X117707107Y-100807107D03*
%TD*%
%TO.C,TP9*%
X95657107Y-57707107D03*
%TD*%
%TO.C,TP23*%
X118107107Y-57707107D03*
%TD*%
%TO.C,TP25*%
X143207107Y-57007107D03*
%TD*%
%TO.C,TP5*%
X121207107Y-78307107D03*
%TD*%
%TO.C,TP17*%
X119407107Y-98307107D03*
%TD*%
%TO.C,TP26*%
X117707107Y-60707107D03*
%TD*%
%TO.C,TP25*%
X118207107Y-57007107D03*
%TD*%
%TO.C,TP12*%
X145007107Y-60707107D03*
%TD*%
%TO.C,TP13*%
X170007107Y-57707107D03*
%TD*%
%TO.C,TP14*%
X169407107Y-122007107D03*
%TD*%
%TO.C,TP23*%
X118107107Y-99007107D03*
%TD*%
%TO.C,TP6*%
X146307107Y-79007107D03*
%TD*%
%TO.C,TP26*%
X117707107Y-82007107D03*
%TD*%
%TO.C,TP14*%
X119407107Y-82007107D03*
%TD*%
%TO.C,TP16*%
X119407107Y-81407107D03*
%TD*%
%TO.C,TP1*%
X171707107Y-121407107D03*
%TD*%
%TO.C,TP17*%
X169407107Y-78307107D03*
%TD*%
%TO.C,TP1*%
X96707107Y-81407107D03*
%TD*%
%TO.C,TP23*%
X168107107Y-79007107D03*
%TD*%
%TO.C,TP19*%
X143757107Y-57707107D03*
%TD*%
%TO.C,TP10*%
X170007107Y-101407107D03*
%TD*%
%TO.C,TP13*%
X170007107Y-99007107D03*
%TD*%
%TO.C,TP5*%
X171207107Y-57007107D03*
%TD*%
%TO.C,TP19*%
X118757107Y-119007107D03*
%TD*%
%TO.C,TP22*%
X117707107Y-120807107D03*
%TD*%
%TO.C,TP10*%
X170007107Y-121407107D03*
%TD*%
%TO.C,TP21*%
X93807107Y-98307107D03*
%TD*%
%TO.C,TP22*%
X167707107Y-120807107D03*
%TD*%
%TO.C,TP13*%
X95007107Y-57707107D03*
%TD*%
%TO.C,TP11*%
X145007107Y-57007107D03*
%TD*%
%TO.C,TP12*%
X120007107Y-60707107D03*
%TD*%
%TO.C,TP7*%
X95607107Y-78307107D03*
%TD*%
%TO.C,TP26*%
X117707107Y-122007107D03*
%TD*%
%TO.C,TP5*%
X121207107Y-98307107D03*
%TD*%
%TO.C,TP23*%
X93107107Y-99007107D03*
%TD*%
%TO.C,TP6*%
X121307107Y-99007107D03*
%TD*%
%TO.C,TP7*%
X145607107Y-98307107D03*
%TD*%
%TO.C,TP23*%
X118107107Y-79007107D03*
%TD*%
%TO.C,TP15*%
X144407107Y-119007107D03*
%TD*%
%TO.C,TP17*%
X119407107Y-57007107D03*
%TD*%
%TO.C,TP17*%
X94407107Y-118307107D03*
%TD*%
%TO.C,TP21*%
X143807107Y-78307107D03*
%TD*%
%TO.C,TP1*%
X171707107Y-81407107D03*
%TD*%
%TO.C,TP17*%
X119407107Y-78307107D03*
%TD*%
%TO.C,TP8*%
X171707107Y-119607107D03*
%TD*%
%TO.C,TP24*%
X92707107Y-60107107D03*
%TD*%
%TO.C,TP13*%
X170007107Y-79007107D03*
%TD*%
%TO.C,TP10*%
X95007107Y-121407107D03*
%TD*%
%TO.C,TP5*%
X96207107Y-78307107D03*
%TD*%
%TO.C,TP21*%
X93807107Y-78307107D03*
%TD*%
%TO.C,TP9*%
X170657107Y-79007107D03*
%TD*%
%TO.C,TP15*%
X144407107Y-79007107D03*
%TD*%
%TO.C,TP21*%
X93807107Y-57007107D03*
%TD*%
%TO.C,TP12*%
X95007107Y-102007107D03*
%TD*%
%TO.C,TP14*%
X94407107Y-122007107D03*
%TD*%
%TO.C,TP3*%
X96707107Y-100207107D03*
%TD*%
%TO.C,TP6*%
X146307107Y-119007107D03*
%TD*%
%TO.C,TP6*%
X96307107Y-57707107D03*
%TD*%
%TO.C,TP2*%
X96707107Y-59507107D03*
%TD*%
%TO.C,TP19*%
X168757107Y-99007107D03*
%TD*%
%TO.C,TP5*%
X171207107Y-118307107D03*
%TD*%
%TO.C,TP5*%
X171207107Y-98307107D03*
%TD*%
%TO.C,TP12*%
X145007107Y-122007107D03*
%TD*%
%TO.C,TP15*%
X169407107Y-119007107D03*
%TD*%
%TO.C,TP10*%
X120007107Y-121407107D03*
%TD*%
%TO.C,TP6*%
X146307107Y-57707107D03*
%TD*%
%TO.C,TP7*%
X145607107Y-57007107D03*
%TD*%
%TO.C,TP5*%
X171207107Y-78307107D03*
%TD*%
%TO.C,TP25*%
X93207107Y-118307107D03*
%TD*%
%TO.C,TP16*%
X144407107Y-101407107D03*
%TD*%
%TO.C,TP10*%
X145007107Y-81407107D03*
%TD*%
%TO.C,TP17*%
X169407107Y-118307107D03*
%TD*%
%TO.C,TP7*%
X95607107Y-98307107D03*
%TD*%
%TO.C,TP15*%
X169407107Y-79007107D03*
%TD*%
%TO.C,TP15*%
X144407107Y-57707107D03*
%TD*%
%TO.C,TP11*%
X170007107Y-118307107D03*
%TD*%
%TO.C,TP2*%
X171707107Y-80807107D03*
%TD*%
%TO.C,TP3*%
X146707107Y-58907107D03*
%TD*%
%TO.C,TP26*%
X92707107Y-102007107D03*
%TD*%
%TO.C,TP25*%
X168207107Y-78307107D03*
%TD*%
%TO.C,TP8*%
X146707107Y-99607107D03*
%TD*%
%TO.C,TP12*%
X170007107Y-82007107D03*
%TD*%
%TO.C,TP11*%
X120007107Y-98307107D03*
%TD*%
D11*
%TO.C,REF\u002A\u002A*%
X190500000Y-40700000D03*
%TD*%
D10*
%TO.C,TP20*%
X142707107Y-58907107D03*
%TD*%
%TO.C,TP9*%
X170657107Y-119007107D03*
%TD*%
%TO.C,TP14*%
X144407107Y-102007107D03*
%TD*%
%TO.C,TP13*%
X120007107Y-57707107D03*
%TD*%
%TO.C,TP11*%
X95007107Y-57007107D03*
%TD*%
%TO.C,TP25*%
X93207107Y-78307107D03*
%TD*%
%TO.C,TP14*%
X169407107Y-102007107D03*
%TD*%
%TO.C,TP6*%
X146307107Y-99007107D03*
%TD*%
%TO.C,TP7*%
X95607107Y-57007107D03*
%TD*%
%TO.C,TP21*%
X118807107Y-118307107D03*
%TD*%
%TO.C,TP2*%
X171707107Y-100807107D03*
%TD*%
%TO.C,TP26*%
X142707107Y-82007107D03*
%TD*%
%TO.C,TP1*%
X146707107Y-101407107D03*
%TD*%
%TO.C,TP18*%
X117707107Y-79607107D03*
%TD*%
%TO.C,TP25*%
X143207107Y-118307107D03*
%TD*%
%TO.C,TP23*%
X168107107Y-57707107D03*
%TD*%
%TO.C,TP18*%
X167707107Y-119607107D03*
%TD*%
%TO.C,TP17*%
X94407107Y-78307107D03*
%TD*%
%TO.C,TP23*%
X143107107Y-119007107D03*
%TD*%
%TO.C,TP20*%
X142707107Y-120207107D03*
%TD*%
%TO.C,TP18*%
X167707107Y-79607107D03*
%TD*%
%TO.C,TP26*%
X92707107Y-82007107D03*
%TD*%
%TO.C,TP17*%
X94407107Y-57007107D03*
%TD*%
%TO.C,TP19*%
X168757107Y-119007107D03*
%TD*%
%TO.C,TP14*%
X144407107Y-122007107D03*
%TD*%
%TO.C,TP16*%
X94407107Y-101407107D03*
%TD*%
%TO.C,TP15*%
X119407107Y-79007107D03*
%TD*%
%TO.C,TP13*%
X95007107Y-99007107D03*
%TD*%
%TO.C,TP10*%
X170007107Y-60107107D03*
%TD*%
%TO.C,TP6*%
X171307107Y-99007107D03*
%TD*%
%TO.C,TP2*%
X96707107Y-100807107D03*
%TD*%
%TO.C,TP17*%
X144407107Y-57007107D03*
%TD*%
%TO.C,TP24*%
X92707107Y-101407107D03*
%TD*%
%TO.C,TP19*%
X168757107Y-57707107D03*
%TD*%
%TO.C,TP26*%
X142707107Y-122007107D03*
%TD*%
%TO.C,TP12*%
X95007107Y-82007107D03*
%TD*%
%TO.C,TP3*%
X96707107Y-80207107D03*
%TD*%
%TO.C,TP19*%
X93757107Y-119007107D03*
%TD*%
%TO.C,TP25*%
X168207107Y-98307107D03*
%TD*%
%TO.C,TP2*%
X96707107Y-120807107D03*
%TD*%
%TO.C,TP8*%
X96707107Y-58307107D03*
%TD*%
%TO.C,TP11*%
X120007107Y-118307107D03*
%TD*%
%TO.C,TP25*%
X143207107Y-98307107D03*
%TD*%
%TO.C,TP9*%
X120657107Y-57707107D03*
%TD*%
%TO.C,TP7*%
X120607107Y-118307107D03*
%TD*%
%TO.C,TP13*%
X120007107Y-99007107D03*
%TD*%
%TO.C,TP11*%
X120007107Y-57007107D03*
%TD*%
%TO.C,TP23*%
X118107107Y-119007107D03*
%TD*%
%TO.C,TP25*%
X118207107Y-118307107D03*
%TD*%
%TO.C,TP15*%
X119407107Y-119007107D03*
%TD*%
%TO.C,TP20*%
X92707107Y-120207107D03*
%TD*%
%TO.C,TP24*%
X142707107Y-60107107D03*
%TD*%
%TO.C,TP19*%
X118757107Y-99007107D03*
%TD*%
%TO.C,TP15*%
X119407107Y-99007107D03*
%TD*%
%TO.C,TP19*%
X93757107Y-79007107D03*
%TD*%
%TO.C,TP10*%
X145007107Y-60107107D03*
%TD*%
%TO.C,TP5*%
X146207107Y-78307107D03*
%TD*%
%TO.C,TP18*%
X142707107Y-79607107D03*
%TD*%
%TO.C,TP8*%
X146707107Y-119607107D03*
%TD*%
%TO.C,TP22*%
X142707107Y-120807107D03*
%TD*%
%TO.C,TP4*%
X146707107Y-82007107D03*
%TD*%
%TO.C,TP22*%
X167707107Y-59507107D03*
%TD*%
%TO.C,TP20*%
X167707107Y-58907107D03*
%TD*%
%TO.C,TP20*%
X167707107Y-100207107D03*
%TD*%
%TO.C,TP11*%
X170007107Y-78307107D03*
%TD*%
%TO.C,TP5*%
X146207107Y-118307107D03*
%TD*%
%TO.C,TP24*%
X142707107Y-121407107D03*
%TD*%
%TO.C,TP9*%
X145657107Y-79007107D03*
%TD*%
%TO.C,TP19*%
X143757107Y-119007107D03*
%TD*%
%TO.C,TP21*%
X118807107Y-57007107D03*
%TD*%
%TO.C,TP16*%
X144407107Y-81407107D03*
%TD*%
%TO.C,TP23*%
X93107107Y-79007107D03*
%TD*%
%TO.C,TP12*%
X170007107Y-122007107D03*
%TD*%
%TO.C,TP10*%
X120007107Y-81407107D03*
%TD*%
%TO.C,TP12*%
X145007107Y-102007107D03*
%TD*%
%TO.C,TP11*%
X95007107Y-98307107D03*
%TD*%
%TO.C,TP24*%
X117707107Y-121407107D03*
%TD*%
%TO.C,TP6*%
X171307107Y-57707107D03*
%TD*%
%TO.C,TP25*%
X143207107Y-78307107D03*
%TD*%
%TO.C,TP22*%
X142707107Y-80807107D03*
%TD*%
%TO.C,TP21*%
X168807107Y-57007107D03*
%TD*%
%TO.C,TP20*%
X117707107Y-120207107D03*
%TD*%
%TO.C,TP15*%
X94407107Y-79007107D03*
%TD*%
%TO.C,TP16*%
X144407107Y-60107107D03*
%TD*%
%TO.C,TP23*%
X143107107Y-79007107D03*
%TD*%
%TO.C,TP22*%
X117707107Y-59507107D03*
%TD*%
%TO.C,TP14*%
X94407107Y-102007107D03*
%TD*%
%TO.C,TP10*%
X95007107Y-81407107D03*
%TD*%
%TO.C,TP23*%
X168107107Y-99007107D03*
%TD*%
%TO.C,TP25*%
X93207107Y-57007107D03*
%TD*%
%TO.C,TP1*%
X96707107Y-101407107D03*
%TD*%
%TO.C,TP26*%
X167707107Y-60707107D03*
%TD*%
%TO.C,TP21*%
X93807107Y-118307107D03*
%TD*%
%TO.C,TP2*%
X121707107Y-80807107D03*
%TD*%
%TO.C,TP25*%
X93207107Y-98307107D03*
%TD*%
%TO.C,TP3*%
X146707107Y-80207107D03*
%TD*%
%TO.C,TP6*%
X171307107Y-119007107D03*
%TD*%
%TO.C,TP20*%
X142707107Y-80207107D03*
%TD*%
%TO.C,TP24*%
X167707107Y-81407107D03*
%TD*%
%TO.C,TP22*%
X167707107Y-80807107D03*
%TD*%
%TO.C,TP3*%
X171707107Y-100207107D03*
%TD*%
%TO.C,TP9*%
X120657107Y-99007107D03*
%TD*%
D11*
%TO.C,REF\u002A\u002A*%
X190500000Y-140700000D03*
%TD*%
D10*
%TO.C,TP24*%
X92707107Y-81407107D03*
%TD*%
%TO.C,TP17*%
X119407107Y-118307107D03*
%TD*%
%TO.C,TP11*%
X95007107Y-78307107D03*
%TD*%
%TO.C,TP26*%
X142707107Y-60707107D03*
%TD*%
%TO.C,TP20*%
X117707107Y-100207107D03*
%TD*%
%TO.C,TP4*%
X121707107Y-122007107D03*
%TD*%
D12*
%TO.C,J2*%
X92782107Y-82997107D03*
X93132107Y-82997107D03*
X93482107Y-82997107D03*
X93832107Y-82997107D03*
X94182107Y-82997107D03*
X94532107Y-82997107D03*
X94882107Y-82997107D03*
X95232107Y-82997107D03*
X95582107Y-82997107D03*
X95932107Y-82997107D03*
X96282107Y-82997107D03*
X96632107Y-82997107D03*
D13*
X92407107Y-83142107D03*
X97007107Y-83142107D03*
%TD*%
D12*
%TO.C,J2*%
X167782107Y-61697107D03*
X168132107Y-61697107D03*
X168482107Y-61697107D03*
X168832107Y-61697107D03*
X169182107Y-61697107D03*
X169532107Y-61697107D03*
X169882107Y-61697107D03*
X170232107Y-61697107D03*
X170582107Y-61697107D03*
X170932107Y-61697107D03*
X171282107Y-61697107D03*
X171632107Y-61697107D03*
D13*
X167407107Y-61842107D03*
X172007107Y-61842107D03*
%TD*%
D12*
%TO.C,J2*%
X117782107Y-61697107D03*
X118132107Y-61697107D03*
X118482107Y-61697107D03*
X118832107Y-61697107D03*
X119182107Y-61697107D03*
X119532107Y-61697107D03*
X119882107Y-61697107D03*
X120232107Y-61697107D03*
X120582107Y-61697107D03*
X120932107Y-61697107D03*
X121282107Y-61697107D03*
X121632107Y-61697107D03*
D13*
X117407107Y-61842107D03*
X122007107Y-61842107D03*
%TD*%
D12*
%TO.C,J2*%
X142782107Y-102997107D03*
X143132107Y-102997107D03*
X143482107Y-102997107D03*
X143832107Y-102997107D03*
X144182107Y-102997107D03*
X144532107Y-102997107D03*
X144882107Y-102997107D03*
X145232107Y-102997107D03*
X145582107Y-102997107D03*
X145932107Y-102997107D03*
X146282107Y-102997107D03*
X146632107Y-102997107D03*
D13*
X142407107Y-103142107D03*
X147007107Y-103142107D03*
%TD*%
D12*
%TO.C,J2*%
X142782107Y-122997107D03*
X143132107Y-122997107D03*
X143482107Y-122997107D03*
X143832107Y-122997107D03*
X144182107Y-122997107D03*
X144532107Y-122997107D03*
X144882107Y-122997107D03*
X145232107Y-122997107D03*
X145582107Y-122997107D03*
X145932107Y-122997107D03*
X146282107Y-122997107D03*
X146632107Y-122997107D03*
D13*
X142407107Y-123142107D03*
X147007107Y-123142107D03*
%TD*%
D12*
%TO.C,J2*%
X92782107Y-61697107D03*
X93132107Y-61697107D03*
X93482107Y-61697107D03*
X93832107Y-61697107D03*
X94182107Y-61697107D03*
X94532107Y-61697107D03*
X94882107Y-61697107D03*
X95232107Y-61697107D03*
X95582107Y-61697107D03*
X95932107Y-61697107D03*
X96282107Y-61697107D03*
X96632107Y-61697107D03*
D13*
X92407107Y-61842107D03*
X97007107Y-61842107D03*
%TD*%
D12*
%TO.C,J2*%
X167782107Y-82997107D03*
X168132107Y-82997107D03*
X168482107Y-82997107D03*
X168832107Y-82997107D03*
X169182107Y-82997107D03*
X169532107Y-82997107D03*
X169882107Y-82997107D03*
X170232107Y-82997107D03*
X170582107Y-82997107D03*
X170932107Y-82997107D03*
X171282107Y-82997107D03*
X171632107Y-82997107D03*
D13*
X167407107Y-83142107D03*
X172007107Y-83142107D03*
%TD*%
D12*
%TO.C,J2*%
X167782107Y-122997107D03*
X168132107Y-122997107D03*
X168482107Y-122997107D03*
X168832107Y-122997107D03*
X169182107Y-122997107D03*
X169532107Y-122997107D03*
X169882107Y-122997107D03*
X170232107Y-122997107D03*
X170582107Y-122997107D03*
X170932107Y-122997107D03*
X171282107Y-122997107D03*
X171632107Y-122997107D03*
D13*
X167407107Y-123142107D03*
X172007107Y-123142107D03*
%TD*%
D12*
%TO.C,J2*%
X167782107Y-102997107D03*
X168132107Y-102997107D03*
X168482107Y-102997107D03*
X168832107Y-102997107D03*
X169182107Y-102997107D03*
X169532107Y-102997107D03*
X169882107Y-102997107D03*
X170232107Y-102997107D03*
X170582107Y-102997107D03*
X170932107Y-102997107D03*
X171282107Y-102997107D03*
X171632107Y-102997107D03*
D13*
X167407107Y-103142107D03*
X172007107Y-103142107D03*
%TD*%
D12*
%TO.C,J2*%
X117782107Y-122997107D03*
X118132107Y-122997107D03*
X118482107Y-122997107D03*
X118832107Y-122997107D03*
X119182107Y-122997107D03*
X119532107Y-122997107D03*
X119882107Y-122997107D03*
X120232107Y-122997107D03*
X120582107Y-122997107D03*
X120932107Y-122997107D03*
X121282107Y-122997107D03*
X121632107Y-122997107D03*
D13*
X117407107Y-123142107D03*
X122007107Y-123142107D03*
%TD*%
D12*
%TO.C,J2*%
X142782107Y-61697107D03*
X143132107Y-61697107D03*
X143482107Y-61697107D03*
X143832107Y-61697107D03*
X144182107Y-61697107D03*
X144532107Y-61697107D03*
X144882107Y-61697107D03*
X145232107Y-61697107D03*
X145582107Y-61697107D03*
X145932107Y-61697107D03*
X146282107Y-61697107D03*
X146632107Y-61697107D03*
D13*
X142407107Y-61842107D03*
X147007107Y-61842107D03*
%TD*%
D12*
%TO.C,J2*%
X92782107Y-102997107D03*
X93132107Y-102997107D03*
X93482107Y-102997107D03*
X93832107Y-102997107D03*
X94182107Y-102997107D03*
X94532107Y-102997107D03*
X94882107Y-102997107D03*
X95232107Y-102997107D03*
X95582107Y-102997107D03*
X95932107Y-102997107D03*
X96282107Y-102997107D03*
X96632107Y-102997107D03*
D13*
X92407107Y-103142107D03*
X97007107Y-103142107D03*
%TD*%
D12*
%TO.C,J2*%
X142782107Y-82997107D03*
X143132107Y-82997107D03*
X143482107Y-82997107D03*
X143832107Y-82997107D03*
X144182107Y-82997107D03*
X144532107Y-82997107D03*
X144882107Y-82997107D03*
X145232107Y-82997107D03*
X145582107Y-82997107D03*
X145932107Y-82997107D03*
X146282107Y-82997107D03*
X146632107Y-82997107D03*
D13*
X142407107Y-83142107D03*
X147007107Y-83142107D03*
%TD*%
D12*
%TO.C,J2*%
X92782107Y-122997107D03*
X93132107Y-122997107D03*
X93482107Y-122997107D03*
X93832107Y-122997107D03*
X94182107Y-122997107D03*
X94532107Y-122997107D03*
X94882107Y-122997107D03*
X95232107Y-122997107D03*
X95582107Y-122997107D03*
X95932107Y-122997107D03*
X96282107Y-122997107D03*
X96632107Y-122997107D03*
D13*
X92407107Y-123142107D03*
X97007107Y-123142107D03*
%TD*%
D12*
%TO.C,J2*%
X117782107Y-82997107D03*
X118132107Y-82997107D03*
X118482107Y-82997107D03*
X118832107Y-82997107D03*
X119182107Y-82997107D03*
X119532107Y-82997107D03*
X119882107Y-82997107D03*
X120232107Y-82997107D03*
X120582107Y-82997107D03*
X120932107Y-82997107D03*
X121282107Y-82997107D03*
X121632107Y-82997107D03*
D13*
X117407107Y-83142107D03*
X122007107Y-83142107D03*
%TD*%
D12*
%TO.C,J2*%
X117782107Y-102997107D03*
X118132107Y-102997107D03*
X118482107Y-102997107D03*
X118832107Y-102997107D03*
X119182107Y-102997107D03*
X119532107Y-102997107D03*
X119882107Y-102997107D03*
X120232107Y-102997107D03*
X120582107Y-102997107D03*
X120932107Y-102997107D03*
X121282107Y-102997107D03*
X121632107Y-102997107D03*
D13*
X117407107Y-103142107D03*
X122007107Y-103142107D03*
%TD*%
M02*
