%TF.GenerationSoftware,KiCad,Pcbnew,(6.0.0)*%
%TF.CreationDate,2022-11-29T13:54:36-05:00*%
%TF.ProjectId,pupdrive-eib24_panel,70757064-7269-4766-952d-65696232345f,B*%
%TF.SameCoordinates,Original*%
%TF.FileFunction,Legend,Top*%
%TF.FilePolarity,Positive*%
%FSLAX46Y46*%
G04 Gerber Fmt 4.6, Leading zero omitted, Abs format (unit mm)*
G04 Created by KiCad (PCBNEW (6.0.0)) date 2022-11-29 13:54:36*
%MOMM*%
%LPD*%
G01*
G04 APERTURE LIST*
%ADD10C,0.120000*%
%ADD11C,0.100000*%
%ADD12C,0.300000*%
%ADD13C,0.150000*%
G04 APERTURE END LIST*
D10*
X97208579Y-66442088D02*
X97208579Y-64742088D01*
X169208579Y-66442088D02*
X169008579Y-66642088D01*
X118808579Y-63192088D02*
X118908579Y-62992088D01*
X145208579Y-64492088D02*
X146208579Y-64492088D01*
X97408579Y-66642088D02*
X97208579Y-66442088D01*
X122408579Y-66642088D02*
X122208579Y-66442088D01*
X122508579Y-62992088D02*
X121408579Y-62992088D01*
X147408579Y-66642088D02*
X147208579Y-66442088D01*
X146408579Y-62992088D02*
X146308579Y-63192088D01*
X97608579Y-63192088D02*
X97508579Y-62992088D01*
X96408579Y-62992088D02*
X96308579Y-63192088D01*
D11*
X119789531Y-64925421D02*
X119789531Y-64677802D01*
X119941912Y-64811135D01*
X119941912Y-64753992D01*
X119960959Y-64715897D01*
X119980007Y-64696849D01*
X120018102Y-64677802D01*
X120113340Y-64677802D01*
X120151436Y-64696849D01*
X120170483Y-64715897D01*
X120189531Y-64753992D01*
X120189531Y-64868278D01*
X120170483Y-64906373D01*
X120151436Y-64925421D01*
X96689531Y-65496849D02*
X96689531Y-65687326D01*
X96880007Y-65706373D01*
X96860959Y-65687326D01*
X96841912Y-65649230D01*
X96841912Y-65553992D01*
X96860959Y-65515897D01*
X96880007Y-65496849D01*
X96918102Y-65477802D01*
X97013340Y-65477802D01*
X97051436Y-65496849D01*
X97070483Y-65515897D01*
X97089531Y-65553992D01*
X97089531Y-65649230D01*
X97070483Y-65687326D01*
X97051436Y-65706373D01*
X168427626Y-63606373D02*
X168408579Y-63587326D01*
X168389531Y-63549230D01*
X168389531Y-63453992D01*
X168408579Y-63415897D01*
X168427626Y-63396849D01*
X168465721Y-63377802D01*
X168503817Y-63377802D01*
X168560959Y-63396849D01*
X168789531Y-63625421D01*
X168789531Y-63377802D01*
X144108579Y-66996850D02*
X144089531Y-67034945D01*
X144089531Y-67092088D01*
X144108579Y-67149231D01*
X144146674Y-67187326D01*
X144184769Y-67206373D01*
X144260959Y-67225421D01*
X144318102Y-67225421D01*
X144394293Y-67206373D01*
X144432388Y-67187326D01*
X144470483Y-67149231D01*
X144489531Y-67092088D01*
X144489531Y-67053992D01*
X144470483Y-66996850D01*
X144451436Y-66977802D01*
X144318102Y-66977802D01*
X144318102Y-67053992D01*
X119789531Y-65477802D02*
X119789531Y-65706373D01*
X119789531Y-65592088D02*
X119389531Y-65592088D01*
X119446674Y-65630183D01*
X119484769Y-65668278D01*
X119503817Y-65706373D01*
X97289531Y-66987802D02*
X97099055Y-67121135D01*
X97289531Y-67216373D02*
X96889531Y-67216373D01*
X96889531Y-67063992D01*
X96908579Y-67025897D01*
X96927626Y-67006850D01*
X96965721Y-66987802D01*
X97022864Y-66987802D01*
X97060959Y-67006850D01*
X97080007Y-67025897D01*
X97099055Y-67063992D01*
X97099055Y-67216373D01*
X122722864Y-63415897D02*
X122989531Y-63415897D01*
X122570483Y-63511135D02*
X122856198Y-63606373D01*
X122856198Y-63358754D01*
X119689531Y-66811135D02*
X119689531Y-66773040D01*
X119708579Y-66734945D01*
X119727626Y-66715897D01*
X119765721Y-66696849D01*
X119841912Y-66677802D01*
X119937150Y-66677802D01*
X120013340Y-66696849D01*
X120051436Y-66715897D01*
X120070483Y-66734945D01*
X120089531Y-66773040D01*
X120089531Y-66811135D01*
X120070483Y-66849230D01*
X120051436Y-66868278D01*
X120013340Y-66887326D01*
X119937150Y-66906373D01*
X119841912Y-66906373D01*
X119765721Y-66887326D01*
X119727626Y-66868278D01*
X119708579Y-66849230D01*
X119689531Y-66811135D01*
X144789531Y-65477802D02*
X144789531Y-65706373D01*
X144789531Y-65592088D02*
X144389531Y-65592088D01*
X144446674Y-65630183D01*
X144484769Y-65668278D01*
X144503817Y-65706373D01*
X144689531Y-66811135D02*
X144689531Y-66773040D01*
X144708579Y-66734945D01*
X144727626Y-66715897D01*
X144765721Y-66696849D01*
X144841912Y-66677802D01*
X144937150Y-66677802D01*
X145013340Y-66696849D01*
X145051436Y-66715897D01*
X145070483Y-66734945D01*
X145089531Y-66773040D01*
X145089531Y-66811135D01*
X145070483Y-66849230D01*
X145051436Y-66868278D01*
X145013340Y-66887326D01*
X144937150Y-66906373D01*
X144841912Y-66906373D01*
X144765721Y-66887326D01*
X144727626Y-66868278D01*
X144708579Y-66849230D01*
X144689531Y-66811135D01*
X172722864Y-63415897D02*
X172989531Y-63415897D01*
X172570483Y-63511135D02*
X172856198Y-63606373D01*
X172856198Y-63358754D01*
X144789531Y-64925421D02*
X144789531Y-64677802D01*
X144941912Y-64811135D01*
X144941912Y-64753992D01*
X144960959Y-64715897D01*
X144980007Y-64696849D01*
X145018102Y-64677802D01*
X145113340Y-64677802D01*
X145151436Y-64696849D01*
X145170483Y-64715897D01*
X145189531Y-64753992D01*
X145189531Y-64868278D01*
X145170483Y-64906373D01*
X145151436Y-64925421D01*
X172289531Y-66987802D02*
X172099055Y-67121135D01*
X172289531Y-67216373D02*
X171889531Y-67216373D01*
X171889531Y-67063992D01*
X171908579Y-67025897D01*
X171927626Y-67006850D01*
X171965721Y-66987802D01*
X172022864Y-66987802D01*
X172060959Y-67006850D01*
X172080007Y-67025897D01*
X172099055Y-67063992D01*
X172099055Y-67216373D01*
X143427626Y-63606373D02*
X143408579Y-63587326D01*
X143389531Y-63549230D01*
X143389531Y-63453992D01*
X143408579Y-63415897D01*
X143427626Y-63396849D01*
X143465721Y-63377802D01*
X143503817Y-63377802D01*
X143560959Y-63396849D01*
X143789531Y-63625421D01*
X143789531Y-63377802D01*
X146689531Y-65496849D02*
X146689531Y-65687326D01*
X146880007Y-65706373D01*
X146860959Y-65687326D01*
X146841912Y-65649230D01*
X146841912Y-65553992D01*
X146860959Y-65515897D01*
X146880007Y-65496849D01*
X146918102Y-65477802D01*
X147013340Y-65477802D01*
X147051436Y-65496849D01*
X147070483Y-65515897D01*
X147089531Y-65553992D01*
X147089531Y-65649230D01*
X147070483Y-65687326D01*
X147051436Y-65706373D01*
X147289531Y-66987802D02*
X147099055Y-67121135D01*
X147289531Y-67216373D02*
X146889531Y-67216373D01*
X146889531Y-67063992D01*
X146908579Y-67025897D01*
X146927626Y-67006850D01*
X146965721Y-66987802D01*
X147022864Y-66987802D01*
X147060959Y-67006850D01*
X147080007Y-67025897D01*
X147099055Y-67063992D01*
X147099055Y-67216373D01*
X122289531Y-66987802D02*
X122099055Y-67121135D01*
X122289531Y-67216373D02*
X121889531Y-67216373D01*
X121889531Y-67063992D01*
X121908579Y-67025897D01*
X121927626Y-67006850D01*
X121965721Y-66987802D01*
X122022864Y-66987802D01*
X122060959Y-67006850D01*
X122080007Y-67025897D01*
X122099055Y-67063992D01*
X122099055Y-67216373D01*
X94789531Y-65477802D02*
X94789531Y-65706373D01*
X94789531Y-65592088D02*
X94389531Y-65592088D01*
X94446674Y-65630183D01*
X94484769Y-65668278D01*
X94503817Y-65706373D01*
X118427626Y-63606373D02*
X118408579Y-63587326D01*
X118389531Y-63549230D01*
X118389531Y-63453992D01*
X118408579Y-63415897D01*
X118427626Y-63396849D01*
X118465721Y-63377802D01*
X118503817Y-63377802D01*
X118560959Y-63396849D01*
X118789531Y-63625421D01*
X118789531Y-63377802D01*
X171689531Y-65496849D02*
X171689531Y-65687326D01*
X171880007Y-65706373D01*
X171860959Y-65687326D01*
X171841912Y-65649230D01*
X171841912Y-65553992D01*
X171860959Y-65515897D01*
X171880007Y-65496849D01*
X171918102Y-65477802D01*
X172013340Y-65477802D01*
X172051436Y-65496849D01*
X172070483Y-65515897D01*
X172089531Y-65553992D01*
X172089531Y-65649230D01*
X172070483Y-65687326D01*
X172051436Y-65706373D01*
X94789531Y-64925421D02*
X94789531Y-64677802D01*
X94941912Y-64811135D01*
X94941912Y-64753992D01*
X94960959Y-64715897D01*
X94980007Y-64696849D01*
X95018102Y-64677802D01*
X95113340Y-64677802D01*
X95151436Y-64696849D01*
X95170483Y-64715897D01*
X95189531Y-64753992D01*
X95189531Y-64868278D01*
X95170483Y-64906373D01*
X95151436Y-64925421D01*
X93427626Y-63606373D02*
X93408579Y-63587326D01*
X93389531Y-63549230D01*
X93389531Y-63453992D01*
X93408579Y-63415897D01*
X93427626Y-63396849D01*
X93465721Y-63377802D01*
X93503817Y-63377802D01*
X93560959Y-63396849D01*
X93789531Y-63625421D01*
X93789531Y-63377802D01*
X94108579Y-66996850D02*
X94089531Y-67034945D01*
X94089531Y-67092088D01*
X94108579Y-67149231D01*
X94146674Y-67187326D01*
X94184769Y-67206373D01*
X94260959Y-67225421D01*
X94318102Y-67225421D01*
X94394293Y-67206373D01*
X94432388Y-67187326D01*
X94470483Y-67149231D01*
X94489531Y-67092088D01*
X94489531Y-67053992D01*
X94470483Y-66996850D01*
X94451436Y-66977802D01*
X94318102Y-66977802D01*
X94318102Y-67053992D01*
X119108579Y-66996850D02*
X119089531Y-67034945D01*
X119089531Y-67092088D01*
X119108579Y-67149231D01*
X119146674Y-67187326D01*
X119184769Y-67206373D01*
X119260959Y-67225421D01*
X119318102Y-67225421D01*
X119394293Y-67206373D01*
X119432388Y-67187326D01*
X119470483Y-67149231D01*
X119489531Y-67092088D01*
X119489531Y-67053992D01*
X119470483Y-66996850D01*
X119451436Y-66977802D01*
X119318102Y-66977802D01*
X119318102Y-67053992D01*
X94689531Y-66811135D02*
X94689531Y-66773040D01*
X94708579Y-66734945D01*
X94727626Y-66715897D01*
X94765721Y-66696849D01*
X94841912Y-66677802D01*
X94937150Y-66677802D01*
X95013340Y-66696849D01*
X95051436Y-66715897D01*
X95070483Y-66734945D01*
X95089531Y-66773040D01*
X95089531Y-66811135D01*
X95070483Y-66849230D01*
X95051436Y-66868278D01*
X95013340Y-66887326D01*
X94937150Y-66906373D01*
X94841912Y-66906373D01*
X94765721Y-66887326D01*
X94727626Y-66868278D01*
X94708579Y-66849230D01*
X94689531Y-66811135D01*
X147722864Y-63415897D02*
X147989531Y-63415897D01*
X147570483Y-63511135D02*
X147856198Y-63606373D01*
X147856198Y-63358754D01*
X169108579Y-66996850D02*
X169089531Y-67034945D01*
X169089531Y-67092088D01*
X169108579Y-67149231D01*
X169146674Y-67187326D01*
X169184769Y-67206373D01*
X169260959Y-67225421D01*
X169318102Y-67225421D01*
X169394293Y-67206373D01*
X169432388Y-67187326D01*
X169470483Y-67149231D01*
X169489531Y-67092088D01*
X169489531Y-67053992D01*
X169470483Y-66996850D01*
X169451436Y-66977802D01*
X169318102Y-66977802D01*
X169318102Y-67053992D01*
X169689531Y-66811135D02*
X169689531Y-66773040D01*
X169708579Y-66734945D01*
X169727626Y-66715897D01*
X169765721Y-66696849D01*
X169841912Y-66677802D01*
X169937150Y-66677802D01*
X170013340Y-66696849D01*
X170051436Y-66715897D01*
X170070483Y-66734945D01*
X170089531Y-66773040D01*
X170089531Y-66811135D01*
X170070483Y-66849230D01*
X170051436Y-66868278D01*
X170013340Y-66887326D01*
X169937150Y-66906373D01*
X169841912Y-66906373D01*
X169765721Y-66887326D01*
X169727626Y-66868278D01*
X169708579Y-66849230D01*
X169689531Y-66811135D01*
X97722864Y-63415897D02*
X97989531Y-63415897D01*
X97570483Y-63511135D02*
X97856198Y-63606373D01*
X97856198Y-63358754D01*
X169789531Y-64925421D02*
X169789531Y-64677802D01*
X169941912Y-64811135D01*
X169941912Y-64753992D01*
X169960959Y-64715897D01*
X169980007Y-64696849D01*
X170018102Y-64677802D01*
X170113340Y-64677802D01*
X170151436Y-64696849D01*
X170170483Y-64715897D01*
X170189531Y-64753992D01*
X170189531Y-64868278D01*
X170170483Y-64906373D01*
X170151436Y-64925421D01*
X121689531Y-65496849D02*
X121689531Y-65687326D01*
X121880007Y-65706373D01*
X121860959Y-65687326D01*
X121841912Y-65649230D01*
X121841912Y-65553992D01*
X121860959Y-65515897D01*
X121880007Y-65496849D01*
X121918102Y-65477802D01*
X122013340Y-65477802D01*
X122051436Y-65496849D01*
X122070483Y-65515897D01*
X122089531Y-65553992D01*
X122089531Y-65649230D01*
X122070483Y-65687326D01*
X122051436Y-65706373D01*
X169789531Y-65477802D02*
X169789531Y-65706373D01*
X169789531Y-65592088D02*
X169389531Y-65592088D01*
X169446674Y-65630183D01*
X169484769Y-65668278D01*
X169503817Y-65706373D01*
D10*
X168908579Y-62992088D02*
X170008579Y-62992088D01*
X170108579Y-64292088D02*
X170208579Y-64492088D01*
X96208579Y-64492088D02*
X96308579Y-64292088D01*
X119208579Y-64742088D02*
X119208579Y-66442088D01*
X147608579Y-63192088D02*
X147508579Y-62992088D01*
X94208579Y-66442088D02*
X94008579Y-66642088D01*
X169208579Y-64742088D02*
X169208579Y-66442088D01*
X172408579Y-66642088D02*
X172208579Y-66442088D01*
X145108579Y-64292088D02*
X145208579Y-64492088D01*
X171208579Y-64492088D02*
X171308579Y-64292088D01*
X120008579Y-62992088D02*
X120108579Y-63192088D01*
X95008579Y-62992088D02*
X95108579Y-63192088D01*
X121208579Y-64492088D02*
X121308579Y-64292088D01*
X122608579Y-63192088D02*
X122508579Y-62992088D01*
X118908579Y-62992088D02*
X120008579Y-62992088D01*
X94008579Y-64542088D02*
X94208579Y-64742088D01*
X143808579Y-63192088D02*
X143908579Y-62992088D01*
X144008579Y-64542088D02*
X144208579Y-64742088D01*
X120108579Y-64292088D02*
X120208579Y-64492088D01*
X172608579Y-63192088D02*
X172508579Y-62992088D01*
X93908579Y-62992088D02*
X95008579Y-62992088D01*
X168808579Y-63192088D02*
X168908579Y-62992088D01*
X144208579Y-66442088D02*
X144008579Y-66642088D01*
X120208579Y-64492088D02*
X121208579Y-64492088D01*
X172508579Y-62992088D02*
X171408579Y-62992088D01*
X146208579Y-64492088D02*
X146308579Y-64292088D01*
X147208579Y-66442088D02*
X147208579Y-64742088D01*
X94208579Y-64742088D02*
X94208579Y-66442088D01*
X170008579Y-62992088D02*
X170108579Y-63192088D01*
X97208579Y-64742088D02*
X97408579Y-64542088D01*
X95108579Y-64292088D02*
X95208579Y-64492088D01*
X147508579Y-62992088D02*
X146408579Y-62992088D01*
X169008579Y-64542088D02*
X169208579Y-64742088D01*
X144208579Y-64742088D02*
X144208579Y-66442088D01*
X122208579Y-64742088D02*
X122408579Y-64542088D01*
X122208579Y-66442088D02*
X122208579Y-64742088D01*
X172208579Y-66442088D02*
X172208579Y-64742088D01*
X119008579Y-64542088D02*
X119208579Y-64742088D01*
X93808579Y-63192088D02*
X93908579Y-62992088D01*
X143908579Y-62992088D02*
X145008579Y-62992088D01*
X172208579Y-64742088D02*
X172408579Y-64542088D01*
X147208579Y-64742088D02*
X147408579Y-64542088D01*
X95208579Y-64492088D02*
X96208579Y-64492088D01*
X119208579Y-66442088D02*
X119008579Y-66642088D01*
X171408579Y-62992088D02*
X171308579Y-63192088D01*
X97508579Y-62992088D02*
X96408579Y-62992088D01*
X121408579Y-62992088D02*
X121308579Y-63192088D01*
X145008579Y-62992088D02*
X145108579Y-63192088D01*
X170208579Y-64492088D02*
X171208579Y-64492088D01*
X97208579Y-91442088D02*
X97208579Y-89742088D01*
X169208579Y-91442088D02*
X169008579Y-91642088D01*
X118808579Y-88192088D02*
X118908579Y-87992088D01*
X145208579Y-89492088D02*
X146208579Y-89492088D01*
X97408579Y-91642088D02*
X97208579Y-91442088D01*
X122408579Y-91642088D02*
X122208579Y-91442088D01*
X122508579Y-87992088D02*
X121408579Y-87992088D01*
X147408579Y-91642088D02*
X147208579Y-91442088D01*
X146408579Y-87992088D02*
X146308579Y-88192088D01*
X97608579Y-88192088D02*
X97508579Y-87992088D01*
X96408579Y-87992088D02*
X96308579Y-88192088D01*
D11*
X119789531Y-89925421D02*
X119789531Y-89677802D01*
X119941912Y-89811135D01*
X119941912Y-89753992D01*
X119960959Y-89715897D01*
X119980007Y-89696849D01*
X120018102Y-89677802D01*
X120113340Y-89677802D01*
X120151436Y-89696849D01*
X120170483Y-89715897D01*
X120189531Y-89753992D01*
X120189531Y-89868278D01*
X120170483Y-89906373D01*
X120151436Y-89925421D01*
X96689531Y-90496849D02*
X96689531Y-90687326D01*
X96880007Y-90706373D01*
X96860959Y-90687326D01*
X96841912Y-90649230D01*
X96841912Y-90553992D01*
X96860959Y-90515897D01*
X96880007Y-90496849D01*
X96918102Y-90477802D01*
X97013340Y-90477802D01*
X97051436Y-90496849D01*
X97070483Y-90515897D01*
X97089531Y-90553992D01*
X97089531Y-90649230D01*
X97070483Y-90687326D01*
X97051436Y-90706373D01*
X168427626Y-88606373D02*
X168408579Y-88587326D01*
X168389531Y-88549230D01*
X168389531Y-88453992D01*
X168408579Y-88415897D01*
X168427626Y-88396849D01*
X168465721Y-88377802D01*
X168503817Y-88377802D01*
X168560959Y-88396849D01*
X168789531Y-88625421D01*
X168789531Y-88377802D01*
X144108579Y-91996850D02*
X144089531Y-92034945D01*
X144089531Y-92092088D01*
X144108579Y-92149231D01*
X144146674Y-92187326D01*
X144184769Y-92206373D01*
X144260959Y-92225421D01*
X144318102Y-92225421D01*
X144394293Y-92206373D01*
X144432388Y-92187326D01*
X144470483Y-92149231D01*
X144489531Y-92092088D01*
X144489531Y-92053992D01*
X144470483Y-91996850D01*
X144451436Y-91977802D01*
X144318102Y-91977802D01*
X144318102Y-92053992D01*
X119789531Y-90477802D02*
X119789531Y-90706373D01*
X119789531Y-90592088D02*
X119389531Y-90592088D01*
X119446674Y-90630183D01*
X119484769Y-90668278D01*
X119503817Y-90706373D01*
X97289531Y-91987802D02*
X97099055Y-92121135D01*
X97289531Y-92216373D02*
X96889531Y-92216373D01*
X96889531Y-92063992D01*
X96908579Y-92025897D01*
X96927626Y-92006850D01*
X96965721Y-91987802D01*
X97022864Y-91987802D01*
X97060959Y-92006850D01*
X97080007Y-92025897D01*
X97099055Y-92063992D01*
X97099055Y-92216373D01*
X122722864Y-88415897D02*
X122989531Y-88415897D01*
X122570483Y-88511135D02*
X122856198Y-88606373D01*
X122856198Y-88358754D01*
X119689531Y-91811135D02*
X119689531Y-91773040D01*
X119708579Y-91734945D01*
X119727626Y-91715897D01*
X119765721Y-91696849D01*
X119841912Y-91677802D01*
X119937150Y-91677802D01*
X120013340Y-91696849D01*
X120051436Y-91715897D01*
X120070483Y-91734945D01*
X120089531Y-91773040D01*
X120089531Y-91811135D01*
X120070483Y-91849230D01*
X120051436Y-91868278D01*
X120013340Y-91887326D01*
X119937150Y-91906373D01*
X119841912Y-91906373D01*
X119765721Y-91887326D01*
X119727626Y-91868278D01*
X119708579Y-91849230D01*
X119689531Y-91811135D01*
X144789531Y-90477802D02*
X144789531Y-90706373D01*
X144789531Y-90592088D02*
X144389531Y-90592088D01*
X144446674Y-90630183D01*
X144484769Y-90668278D01*
X144503817Y-90706373D01*
X144689531Y-91811135D02*
X144689531Y-91773040D01*
X144708579Y-91734945D01*
X144727626Y-91715897D01*
X144765721Y-91696849D01*
X144841912Y-91677802D01*
X144937150Y-91677802D01*
X145013340Y-91696849D01*
X145051436Y-91715897D01*
X145070483Y-91734945D01*
X145089531Y-91773040D01*
X145089531Y-91811135D01*
X145070483Y-91849230D01*
X145051436Y-91868278D01*
X145013340Y-91887326D01*
X144937150Y-91906373D01*
X144841912Y-91906373D01*
X144765721Y-91887326D01*
X144727626Y-91868278D01*
X144708579Y-91849230D01*
X144689531Y-91811135D01*
X172722864Y-88415897D02*
X172989531Y-88415897D01*
X172570483Y-88511135D02*
X172856198Y-88606373D01*
X172856198Y-88358754D01*
X144789531Y-89925421D02*
X144789531Y-89677802D01*
X144941912Y-89811135D01*
X144941912Y-89753992D01*
X144960959Y-89715897D01*
X144980007Y-89696849D01*
X145018102Y-89677802D01*
X145113340Y-89677802D01*
X145151436Y-89696849D01*
X145170483Y-89715897D01*
X145189531Y-89753992D01*
X145189531Y-89868278D01*
X145170483Y-89906373D01*
X145151436Y-89925421D01*
X172289531Y-91987802D02*
X172099055Y-92121135D01*
X172289531Y-92216373D02*
X171889531Y-92216373D01*
X171889531Y-92063992D01*
X171908579Y-92025897D01*
X171927626Y-92006850D01*
X171965721Y-91987802D01*
X172022864Y-91987802D01*
X172060959Y-92006850D01*
X172080007Y-92025897D01*
X172099055Y-92063992D01*
X172099055Y-92216373D01*
X143427626Y-88606373D02*
X143408579Y-88587326D01*
X143389531Y-88549230D01*
X143389531Y-88453992D01*
X143408579Y-88415897D01*
X143427626Y-88396849D01*
X143465721Y-88377802D01*
X143503817Y-88377802D01*
X143560959Y-88396849D01*
X143789531Y-88625421D01*
X143789531Y-88377802D01*
X146689531Y-90496849D02*
X146689531Y-90687326D01*
X146880007Y-90706373D01*
X146860959Y-90687326D01*
X146841912Y-90649230D01*
X146841912Y-90553992D01*
X146860959Y-90515897D01*
X146880007Y-90496849D01*
X146918102Y-90477802D01*
X147013340Y-90477802D01*
X147051436Y-90496849D01*
X147070483Y-90515897D01*
X147089531Y-90553992D01*
X147089531Y-90649230D01*
X147070483Y-90687326D01*
X147051436Y-90706373D01*
X147289531Y-91987802D02*
X147099055Y-92121135D01*
X147289531Y-92216373D02*
X146889531Y-92216373D01*
X146889531Y-92063992D01*
X146908579Y-92025897D01*
X146927626Y-92006850D01*
X146965721Y-91987802D01*
X147022864Y-91987802D01*
X147060959Y-92006850D01*
X147080007Y-92025897D01*
X147099055Y-92063992D01*
X147099055Y-92216373D01*
X122289531Y-91987802D02*
X122099055Y-92121135D01*
X122289531Y-92216373D02*
X121889531Y-92216373D01*
X121889531Y-92063992D01*
X121908579Y-92025897D01*
X121927626Y-92006850D01*
X121965721Y-91987802D01*
X122022864Y-91987802D01*
X122060959Y-92006850D01*
X122080007Y-92025897D01*
X122099055Y-92063992D01*
X122099055Y-92216373D01*
X94789531Y-90477802D02*
X94789531Y-90706373D01*
X94789531Y-90592088D02*
X94389531Y-90592088D01*
X94446674Y-90630183D01*
X94484769Y-90668278D01*
X94503817Y-90706373D01*
X118427626Y-88606373D02*
X118408579Y-88587326D01*
X118389531Y-88549230D01*
X118389531Y-88453992D01*
X118408579Y-88415897D01*
X118427626Y-88396849D01*
X118465721Y-88377802D01*
X118503817Y-88377802D01*
X118560959Y-88396849D01*
X118789531Y-88625421D01*
X118789531Y-88377802D01*
X171689531Y-90496849D02*
X171689531Y-90687326D01*
X171880007Y-90706373D01*
X171860959Y-90687326D01*
X171841912Y-90649230D01*
X171841912Y-90553992D01*
X171860959Y-90515897D01*
X171880007Y-90496849D01*
X171918102Y-90477802D01*
X172013340Y-90477802D01*
X172051436Y-90496849D01*
X172070483Y-90515897D01*
X172089531Y-90553992D01*
X172089531Y-90649230D01*
X172070483Y-90687326D01*
X172051436Y-90706373D01*
X94789531Y-89925421D02*
X94789531Y-89677802D01*
X94941912Y-89811135D01*
X94941912Y-89753992D01*
X94960959Y-89715897D01*
X94980007Y-89696849D01*
X95018102Y-89677802D01*
X95113340Y-89677802D01*
X95151436Y-89696849D01*
X95170483Y-89715897D01*
X95189531Y-89753992D01*
X95189531Y-89868278D01*
X95170483Y-89906373D01*
X95151436Y-89925421D01*
X93427626Y-88606373D02*
X93408579Y-88587326D01*
X93389531Y-88549230D01*
X93389531Y-88453992D01*
X93408579Y-88415897D01*
X93427626Y-88396849D01*
X93465721Y-88377802D01*
X93503817Y-88377802D01*
X93560959Y-88396849D01*
X93789531Y-88625421D01*
X93789531Y-88377802D01*
X94108579Y-91996850D02*
X94089531Y-92034945D01*
X94089531Y-92092088D01*
X94108579Y-92149231D01*
X94146674Y-92187326D01*
X94184769Y-92206373D01*
X94260959Y-92225421D01*
X94318102Y-92225421D01*
X94394293Y-92206373D01*
X94432388Y-92187326D01*
X94470483Y-92149231D01*
X94489531Y-92092088D01*
X94489531Y-92053992D01*
X94470483Y-91996850D01*
X94451436Y-91977802D01*
X94318102Y-91977802D01*
X94318102Y-92053992D01*
X119108579Y-91996850D02*
X119089531Y-92034945D01*
X119089531Y-92092088D01*
X119108579Y-92149231D01*
X119146674Y-92187326D01*
X119184769Y-92206373D01*
X119260959Y-92225421D01*
X119318102Y-92225421D01*
X119394293Y-92206373D01*
X119432388Y-92187326D01*
X119470483Y-92149231D01*
X119489531Y-92092088D01*
X119489531Y-92053992D01*
X119470483Y-91996850D01*
X119451436Y-91977802D01*
X119318102Y-91977802D01*
X119318102Y-92053992D01*
X94689531Y-91811135D02*
X94689531Y-91773040D01*
X94708579Y-91734945D01*
X94727626Y-91715897D01*
X94765721Y-91696849D01*
X94841912Y-91677802D01*
X94937150Y-91677802D01*
X95013340Y-91696849D01*
X95051436Y-91715897D01*
X95070483Y-91734945D01*
X95089531Y-91773040D01*
X95089531Y-91811135D01*
X95070483Y-91849230D01*
X95051436Y-91868278D01*
X95013340Y-91887326D01*
X94937150Y-91906373D01*
X94841912Y-91906373D01*
X94765721Y-91887326D01*
X94727626Y-91868278D01*
X94708579Y-91849230D01*
X94689531Y-91811135D01*
X147722864Y-88415897D02*
X147989531Y-88415897D01*
X147570483Y-88511135D02*
X147856198Y-88606373D01*
X147856198Y-88358754D01*
X169108579Y-91996850D02*
X169089531Y-92034945D01*
X169089531Y-92092088D01*
X169108579Y-92149231D01*
X169146674Y-92187326D01*
X169184769Y-92206373D01*
X169260959Y-92225421D01*
X169318102Y-92225421D01*
X169394293Y-92206373D01*
X169432388Y-92187326D01*
X169470483Y-92149231D01*
X169489531Y-92092088D01*
X169489531Y-92053992D01*
X169470483Y-91996850D01*
X169451436Y-91977802D01*
X169318102Y-91977802D01*
X169318102Y-92053992D01*
X169689531Y-91811135D02*
X169689531Y-91773040D01*
X169708579Y-91734945D01*
X169727626Y-91715897D01*
X169765721Y-91696849D01*
X169841912Y-91677802D01*
X169937150Y-91677802D01*
X170013340Y-91696849D01*
X170051436Y-91715897D01*
X170070483Y-91734945D01*
X170089531Y-91773040D01*
X170089531Y-91811135D01*
X170070483Y-91849230D01*
X170051436Y-91868278D01*
X170013340Y-91887326D01*
X169937150Y-91906373D01*
X169841912Y-91906373D01*
X169765721Y-91887326D01*
X169727626Y-91868278D01*
X169708579Y-91849230D01*
X169689531Y-91811135D01*
X97722864Y-88415897D02*
X97989531Y-88415897D01*
X97570483Y-88511135D02*
X97856198Y-88606373D01*
X97856198Y-88358754D01*
X169789531Y-89925421D02*
X169789531Y-89677802D01*
X169941912Y-89811135D01*
X169941912Y-89753992D01*
X169960959Y-89715897D01*
X169980007Y-89696849D01*
X170018102Y-89677802D01*
X170113340Y-89677802D01*
X170151436Y-89696849D01*
X170170483Y-89715897D01*
X170189531Y-89753992D01*
X170189531Y-89868278D01*
X170170483Y-89906373D01*
X170151436Y-89925421D01*
X121689531Y-90496849D02*
X121689531Y-90687326D01*
X121880007Y-90706373D01*
X121860959Y-90687326D01*
X121841912Y-90649230D01*
X121841912Y-90553992D01*
X121860959Y-90515897D01*
X121880007Y-90496849D01*
X121918102Y-90477802D01*
X122013340Y-90477802D01*
X122051436Y-90496849D01*
X122070483Y-90515897D01*
X122089531Y-90553992D01*
X122089531Y-90649230D01*
X122070483Y-90687326D01*
X122051436Y-90706373D01*
X169789531Y-90477802D02*
X169789531Y-90706373D01*
X169789531Y-90592088D02*
X169389531Y-90592088D01*
X169446674Y-90630183D01*
X169484769Y-90668278D01*
X169503817Y-90706373D01*
D10*
X168908579Y-87992088D02*
X170008579Y-87992088D01*
X170108579Y-89292088D02*
X170208579Y-89492088D01*
X96208579Y-89492088D02*
X96308579Y-89292088D01*
X119208579Y-89742088D02*
X119208579Y-91442088D01*
X147608579Y-88192088D02*
X147508579Y-87992088D01*
X94208579Y-91442088D02*
X94008579Y-91642088D01*
X169208579Y-89742088D02*
X169208579Y-91442088D01*
X172408579Y-91642088D02*
X172208579Y-91442088D01*
X145108579Y-89292088D02*
X145208579Y-89492088D01*
X171208579Y-89492088D02*
X171308579Y-89292088D01*
X120008579Y-87992088D02*
X120108579Y-88192088D01*
X95008579Y-87992088D02*
X95108579Y-88192088D01*
X121208579Y-89492088D02*
X121308579Y-89292088D01*
X122608579Y-88192088D02*
X122508579Y-87992088D01*
X118908579Y-87992088D02*
X120008579Y-87992088D01*
X94008579Y-89542088D02*
X94208579Y-89742088D01*
X143808579Y-88192088D02*
X143908579Y-87992088D01*
X144008579Y-89542088D02*
X144208579Y-89742088D01*
X120108579Y-89292088D02*
X120208579Y-89492088D01*
X172608579Y-88192088D02*
X172508579Y-87992088D01*
X93908579Y-87992088D02*
X95008579Y-87992088D01*
X168808579Y-88192088D02*
X168908579Y-87992088D01*
X144208579Y-91442088D02*
X144008579Y-91642088D01*
X120208579Y-89492088D02*
X121208579Y-89492088D01*
X172508579Y-87992088D02*
X171408579Y-87992088D01*
X146208579Y-89492088D02*
X146308579Y-89292088D01*
X147208579Y-91442088D02*
X147208579Y-89742088D01*
X94208579Y-89742088D02*
X94208579Y-91442088D01*
X170008579Y-87992088D02*
X170108579Y-88192088D01*
X97208579Y-89742088D02*
X97408579Y-89542088D01*
X95108579Y-89292088D02*
X95208579Y-89492088D01*
X147508579Y-87992088D02*
X146408579Y-87992088D01*
X169008579Y-89542088D02*
X169208579Y-89742088D01*
X144208579Y-89742088D02*
X144208579Y-91442088D01*
X122208579Y-89742088D02*
X122408579Y-89542088D01*
X122208579Y-91442088D02*
X122208579Y-89742088D01*
X172208579Y-91442088D02*
X172208579Y-89742088D01*
X119008579Y-89542088D02*
X119208579Y-89742088D01*
X93808579Y-88192088D02*
X93908579Y-87992088D01*
X143908579Y-87992088D02*
X145008579Y-87992088D01*
X172208579Y-89742088D02*
X172408579Y-89542088D01*
X147208579Y-89742088D02*
X147408579Y-89542088D01*
X95208579Y-89492088D02*
X96208579Y-89492088D01*
X119208579Y-91442088D02*
X119008579Y-91642088D01*
X171408579Y-87992088D02*
X171308579Y-88192088D01*
X97508579Y-87992088D02*
X96408579Y-87992088D01*
X121408579Y-87992088D02*
X121308579Y-88192088D01*
X145008579Y-87992088D02*
X145108579Y-88192088D01*
X170208579Y-89492088D02*
X171208579Y-89492088D01*
X97208579Y-116442088D02*
X97208579Y-114742088D01*
X122508579Y-112992088D02*
X121408579Y-112992088D01*
X169208579Y-116442088D02*
X169008579Y-116642088D01*
X146408579Y-112992088D02*
X146308579Y-113192088D01*
X97608579Y-113192088D02*
X97508579Y-112992088D01*
X97408579Y-116642088D02*
X97208579Y-116442088D01*
X122408579Y-116642088D02*
X122208579Y-116442088D01*
X96408579Y-112992088D02*
X96308579Y-113192088D01*
X147408579Y-116642088D02*
X147208579Y-116442088D01*
X145208579Y-114492088D02*
X146208579Y-114492088D01*
X118808579Y-113192088D02*
X118908579Y-112992088D01*
X147208579Y-116442088D02*
X147208579Y-114742088D01*
X172508579Y-112992088D02*
X171408579Y-112992088D01*
X120208579Y-114492088D02*
X121208579Y-114492088D01*
X144208579Y-116442088D02*
X144008579Y-116642088D01*
X146208579Y-114492088D02*
X146308579Y-114292088D01*
X168808579Y-113192088D02*
X168908579Y-112992088D01*
X95108579Y-114292088D02*
X95208579Y-114492088D01*
X94208579Y-114742088D02*
X94208579Y-116442088D01*
X170008579Y-112992088D02*
X170108579Y-113192088D01*
X143908579Y-112992088D02*
X145008579Y-112992088D01*
X119208579Y-116442088D02*
X119008579Y-116642088D01*
X97208579Y-114742088D02*
X97408579Y-114542088D01*
X119008579Y-114542088D02*
X119208579Y-114742088D01*
X172208579Y-114742088D02*
X172408579Y-114542088D01*
X121408579Y-112992088D02*
X121308579Y-113192088D01*
X95208579Y-114492088D02*
X96208579Y-114492088D01*
X144208579Y-114742088D02*
X144208579Y-116442088D01*
X170208579Y-114492088D02*
X171208579Y-114492088D01*
X93808579Y-113192088D02*
X93908579Y-112992088D01*
X145008579Y-112992088D02*
X145108579Y-113192088D01*
X97508579Y-112992088D02*
X96408579Y-112992088D01*
X172208579Y-116442088D02*
X172208579Y-114742088D01*
X122208579Y-114742088D02*
X122408579Y-114542088D01*
X147208579Y-114742088D02*
X147408579Y-114542088D01*
X171408579Y-112992088D02*
X171308579Y-113192088D01*
X122208579Y-116442088D02*
X122208579Y-114742088D01*
X169008579Y-114542088D02*
X169208579Y-114742088D01*
X147508579Y-112992088D02*
X146408579Y-112992088D01*
X121208579Y-114492088D02*
X121308579Y-114292088D01*
X94008579Y-114542088D02*
X94208579Y-114742088D01*
X120008579Y-112992088D02*
X120108579Y-113192088D01*
X93908579Y-112992088D02*
X95008579Y-112992088D01*
X120108579Y-114292088D02*
X120208579Y-114492088D01*
X118908579Y-112992088D02*
X120008579Y-112992088D01*
X143808579Y-113192088D02*
X143908579Y-112992088D01*
X94208579Y-116442088D02*
X94008579Y-116642088D01*
X144008579Y-114542088D02*
X144208579Y-114742088D01*
X145108579Y-114292088D02*
X145208579Y-114492088D01*
X147608579Y-113192088D02*
X147508579Y-112992088D01*
X122608579Y-113192088D02*
X122508579Y-112992088D01*
X95008579Y-112992088D02*
X95108579Y-113192088D01*
X171208579Y-114492088D02*
X171308579Y-114292088D01*
X172608579Y-113192088D02*
X172508579Y-112992088D01*
X172408579Y-116642088D02*
X172208579Y-116442088D01*
X169208579Y-114742088D02*
X169208579Y-116442088D01*
X170108579Y-114292088D02*
X170208579Y-114492088D01*
X119208579Y-114742088D02*
X119208579Y-116442088D01*
X96208579Y-114492088D02*
X96308579Y-114292088D01*
X168908579Y-112992088D02*
X170008579Y-112992088D01*
D11*
X94108579Y-116996850D02*
X94089531Y-117034945D01*
X94089531Y-117092088D01*
X94108579Y-117149231D01*
X94146674Y-117187326D01*
X94184769Y-117206373D01*
X94260959Y-117225421D01*
X94318102Y-117225421D01*
X94394293Y-117206373D01*
X94432388Y-117187326D01*
X94470483Y-117149231D01*
X94489531Y-117092088D01*
X94489531Y-117053992D01*
X94470483Y-116996850D01*
X94451436Y-116977802D01*
X94318102Y-116977802D01*
X94318102Y-117053992D01*
X94689531Y-116811135D02*
X94689531Y-116773040D01*
X94708579Y-116734945D01*
X94727626Y-116715897D01*
X94765721Y-116696849D01*
X94841912Y-116677802D01*
X94937150Y-116677802D01*
X95013340Y-116696849D01*
X95051436Y-116715897D01*
X95070483Y-116734945D01*
X95089531Y-116773040D01*
X95089531Y-116811135D01*
X95070483Y-116849230D01*
X95051436Y-116868278D01*
X95013340Y-116887326D01*
X94937150Y-116906373D01*
X94841912Y-116906373D01*
X94765721Y-116887326D01*
X94727626Y-116868278D01*
X94708579Y-116849230D01*
X94689531Y-116811135D01*
X169789531Y-114925421D02*
X169789531Y-114677802D01*
X169941912Y-114811135D01*
X169941912Y-114753992D01*
X169960959Y-114715897D01*
X169980007Y-114696849D01*
X170018102Y-114677802D01*
X170113340Y-114677802D01*
X170151436Y-114696849D01*
X170170483Y-114715897D01*
X170189531Y-114753992D01*
X170189531Y-114868278D01*
X170170483Y-114906373D01*
X170151436Y-114925421D01*
X119108579Y-116996850D02*
X119089531Y-117034945D01*
X119089531Y-117092088D01*
X119108579Y-117149231D01*
X119146674Y-117187326D01*
X119184769Y-117206373D01*
X119260959Y-117225421D01*
X119318102Y-117225421D01*
X119394293Y-117206373D01*
X119432388Y-117187326D01*
X119470483Y-117149231D01*
X119489531Y-117092088D01*
X119489531Y-117053992D01*
X119470483Y-116996850D01*
X119451436Y-116977802D01*
X119318102Y-116977802D01*
X119318102Y-117053992D01*
X93427626Y-113606373D02*
X93408579Y-113587326D01*
X93389531Y-113549230D01*
X93389531Y-113453992D01*
X93408579Y-113415897D01*
X93427626Y-113396849D01*
X93465721Y-113377802D01*
X93503817Y-113377802D01*
X93560959Y-113396849D01*
X93789531Y-113625421D01*
X93789531Y-113377802D01*
X169789531Y-115477802D02*
X169789531Y-115706373D01*
X169789531Y-115592088D02*
X169389531Y-115592088D01*
X169446674Y-115630183D01*
X169484769Y-115668278D01*
X169503817Y-115706373D01*
X147722864Y-113415897D02*
X147989531Y-113415897D01*
X147570483Y-113511135D02*
X147856198Y-113606373D01*
X147856198Y-113358754D01*
X97722864Y-113415897D02*
X97989531Y-113415897D01*
X97570483Y-113511135D02*
X97856198Y-113606373D01*
X97856198Y-113358754D01*
X169689531Y-116811135D02*
X169689531Y-116773040D01*
X169708579Y-116734945D01*
X169727626Y-116715897D01*
X169765721Y-116696849D01*
X169841912Y-116677802D01*
X169937150Y-116677802D01*
X170013340Y-116696849D01*
X170051436Y-116715897D01*
X170070483Y-116734945D01*
X170089531Y-116773040D01*
X170089531Y-116811135D01*
X170070483Y-116849230D01*
X170051436Y-116868278D01*
X170013340Y-116887326D01*
X169937150Y-116906373D01*
X169841912Y-116906373D01*
X169765721Y-116887326D01*
X169727626Y-116868278D01*
X169708579Y-116849230D01*
X169689531Y-116811135D01*
X121689531Y-115496849D02*
X121689531Y-115687326D01*
X121880007Y-115706373D01*
X121860959Y-115687326D01*
X121841912Y-115649230D01*
X121841912Y-115553992D01*
X121860959Y-115515897D01*
X121880007Y-115496849D01*
X121918102Y-115477802D01*
X122013340Y-115477802D01*
X122051436Y-115496849D01*
X122070483Y-115515897D01*
X122089531Y-115553992D01*
X122089531Y-115649230D01*
X122070483Y-115687326D01*
X122051436Y-115706373D01*
X169108579Y-116996850D02*
X169089531Y-117034945D01*
X169089531Y-117092088D01*
X169108579Y-117149231D01*
X169146674Y-117187326D01*
X169184769Y-117206373D01*
X169260959Y-117225421D01*
X169318102Y-117225421D01*
X169394293Y-117206373D01*
X169432388Y-117187326D01*
X169470483Y-117149231D01*
X169489531Y-117092088D01*
X169489531Y-117053992D01*
X169470483Y-116996850D01*
X169451436Y-116977802D01*
X169318102Y-116977802D01*
X169318102Y-117053992D01*
X122722864Y-113415897D02*
X122989531Y-113415897D01*
X122570483Y-113511135D02*
X122856198Y-113606373D01*
X122856198Y-113358754D01*
X122289531Y-116987802D02*
X122099055Y-117121135D01*
X122289531Y-117216373D02*
X121889531Y-117216373D01*
X121889531Y-117063992D01*
X121908579Y-117025897D01*
X121927626Y-117006850D01*
X121965721Y-116987802D01*
X122022864Y-116987802D01*
X122060959Y-117006850D01*
X122080007Y-117025897D01*
X122099055Y-117063992D01*
X122099055Y-117216373D01*
X94789531Y-115477802D02*
X94789531Y-115706373D01*
X94789531Y-115592088D02*
X94389531Y-115592088D01*
X94446674Y-115630183D01*
X94484769Y-115668278D01*
X94503817Y-115706373D01*
X97289531Y-116987802D02*
X97099055Y-117121135D01*
X97289531Y-117216373D02*
X96889531Y-117216373D01*
X96889531Y-117063992D01*
X96908579Y-117025897D01*
X96927626Y-117006850D01*
X96965721Y-116987802D01*
X97022864Y-116987802D01*
X97060959Y-117006850D01*
X97080007Y-117025897D01*
X97099055Y-117063992D01*
X97099055Y-117216373D01*
X171689531Y-115496849D02*
X171689531Y-115687326D01*
X171880007Y-115706373D01*
X171860959Y-115687326D01*
X171841912Y-115649230D01*
X171841912Y-115553992D01*
X171860959Y-115515897D01*
X171880007Y-115496849D01*
X171918102Y-115477802D01*
X172013340Y-115477802D01*
X172051436Y-115496849D01*
X172070483Y-115515897D01*
X172089531Y-115553992D01*
X172089531Y-115649230D01*
X172070483Y-115687326D01*
X172051436Y-115706373D01*
X172289531Y-116987802D02*
X172099055Y-117121135D01*
X172289531Y-117216373D02*
X171889531Y-117216373D01*
X171889531Y-117063992D01*
X171908579Y-117025897D01*
X171927626Y-117006850D01*
X171965721Y-116987802D01*
X172022864Y-116987802D01*
X172060959Y-117006850D01*
X172080007Y-117025897D01*
X172099055Y-117063992D01*
X172099055Y-117216373D01*
X144689531Y-116811135D02*
X144689531Y-116773040D01*
X144708579Y-116734945D01*
X144727626Y-116715897D01*
X144765721Y-116696849D01*
X144841912Y-116677802D01*
X144937150Y-116677802D01*
X145013340Y-116696849D01*
X145051436Y-116715897D01*
X145070483Y-116734945D01*
X145089531Y-116773040D01*
X145089531Y-116811135D01*
X145070483Y-116849230D01*
X145051436Y-116868278D01*
X145013340Y-116887326D01*
X144937150Y-116906373D01*
X144841912Y-116906373D01*
X144765721Y-116887326D01*
X144727626Y-116868278D01*
X144708579Y-116849230D01*
X144689531Y-116811135D01*
X96689531Y-115496849D02*
X96689531Y-115687326D01*
X96880007Y-115706373D01*
X96860959Y-115687326D01*
X96841912Y-115649230D01*
X96841912Y-115553992D01*
X96860959Y-115515897D01*
X96880007Y-115496849D01*
X96918102Y-115477802D01*
X97013340Y-115477802D01*
X97051436Y-115496849D01*
X97070483Y-115515897D01*
X97089531Y-115553992D01*
X97089531Y-115649230D01*
X97070483Y-115687326D01*
X97051436Y-115706373D01*
X119689531Y-116811135D02*
X119689531Y-116773040D01*
X119708579Y-116734945D01*
X119727626Y-116715897D01*
X119765721Y-116696849D01*
X119841912Y-116677802D01*
X119937150Y-116677802D01*
X120013340Y-116696849D01*
X120051436Y-116715897D01*
X120070483Y-116734945D01*
X120089531Y-116773040D01*
X120089531Y-116811135D01*
X120070483Y-116849230D01*
X120051436Y-116868278D01*
X120013340Y-116887326D01*
X119937150Y-116906373D01*
X119841912Y-116906373D01*
X119765721Y-116887326D01*
X119727626Y-116868278D01*
X119708579Y-116849230D01*
X119689531Y-116811135D01*
X118427626Y-113606373D02*
X118408579Y-113587326D01*
X118389531Y-113549230D01*
X118389531Y-113453992D01*
X118408579Y-113415897D01*
X118427626Y-113396849D01*
X118465721Y-113377802D01*
X118503817Y-113377802D01*
X118560959Y-113396849D01*
X118789531Y-113625421D01*
X118789531Y-113377802D01*
X119789531Y-115477802D02*
X119789531Y-115706373D01*
X119789531Y-115592088D02*
X119389531Y-115592088D01*
X119446674Y-115630183D01*
X119484769Y-115668278D01*
X119503817Y-115706373D01*
X144108579Y-116996850D02*
X144089531Y-117034945D01*
X144089531Y-117092088D01*
X144108579Y-117149231D01*
X144146674Y-117187326D01*
X144184769Y-117206373D01*
X144260959Y-117225421D01*
X144318102Y-117225421D01*
X144394293Y-117206373D01*
X144432388Y-117187326D01*
X144470483Y-117149231D01*
X144489531Y-117092088D01*
X144489531Y-117053992D01*
X144470483Y-116996850D01*
X144451436Y-116977802D01*
X144318102Y-116977802D01*
X144318102Y-117053992D01*
X168427626Y-113606373D02*
X168408579Y-113587326D01*
X168389531Y-113549230D01*
X168389531Y-113453992D01*
X168408579Y-113415897D01*
X168427626Y-113396849D01*
X168465721Y-113377802D01*
X168503817Y-113377802D01*
X168560959Y-113396849D01*
X168789531Y-113625421D01*
X168789531Y-113377802D01*
X94789531Y-114925421D02*
X94789531Y-114677802D01*
X94941912Y-114811135D01*
X94941912Y-114753992D01*
X94960959Y-114715897D01*
X94980007Y-114696849D01*
X95018102Y-114677802D01*
X95113340Y-114677802D01*
X95151436Y-114696849D01*
X95170483Y-114715897D01*
X95189531Y-114753992D01*
X95189531Y-114868278D01*
X95170483Y-114906373D01*
X95151436Y-114925421D01*
X146689531Y-115496849D02*
X146689531Y-115687326D01*
X146880007Y-115706373D01*
X146860959Y-115687326D01*
X146841912Y-115649230D01*
X146841912Y-115553992D01*
X146860959Y-115515897D01*
X146880007Y-115496849D01*
X146918102Y-115477802D01*
X147013340Y-115477802D01*
X147051436Y-115496849D01*
X147070483Y-115515897D01*
X147089531Y-115553992D01*
X147089531Y-115649230D01*
X147070483Y-115687326D01*
X147051436Y-115706373D01*
X147289531Y-116987802D02*
X147099055Y-117121135D01*
X147289531Y-117216373D02*
X146889531Y-117216373D01*
X146889531Y-117063992D01*
X146908579Y-117025897D01*
X146927626Y-117006850D01*
X146965721Y-116987802D01*
X147022864Y-116987802D01*
X147060959Y-117006850D01*
X147080007Y-117025897D01*
X147099055Y-117063992D01*
X147099055Y-117216373D01*
X143427626Y-113606373D02*
X143408579Y-113587326D01*
X143389531Y-113549230D01*
X143389531Y-113453992D01*
X143408579Y-113415897D01*
X143427626Y-113396849D01*
X143465721Y-113377802D01*
X143503817Y-113377802D01*
X143560959Y-113396849D01*
X143789531Y-113625421D01*
X143789531Y-113377802D01*
X144789531Y-114925421D02*
X144789531Y-114677802D01*
X144941912Y-114811135D01*
X144941912Y-114753992D01*
X144960959Y-114715897D01*
X144980007Y-114696849D01*
X145018102Y-114677802D01*
X145113340Y-114677802D01*
X145151436Y-114696849D01*
X145170483Y-114715897D01*
X145189531Y-114753992D01*
X145189531Y-114868278D01*
X145170483Y-114906373D01*
X145151436Y-114925421D01*
X172722864Y-113415897D02*
X172989531Y-113415897D01*
X172570483Y-113511135D02*
X172856198Y-113606373D01*
X172856198Y-113358754D01*
X144789531Y-115477802D02*
X144789531Y-115706373D01*
X144789531Y-115592088D02*
X144389531Y-115592088D01*
X144446674Y-115630183D01*
X144484769Y-115668278D01*
X144503817Y-115706373D01*
X119789531Y-114925421D02*
X119789531Y-114677802D01*
X119941912Y-114811135D01*
X119941912Y-114753992D01*
X119960959Y-114715897D01*
X119980007Y-114696849D01*
X120018102Y-114677802D01*
X120113340Y-114677802D01*
X120151436Y-114696849D01*
X120170483Y-114715897D01*
X120189531Y-114753992D01*
X120189531Y-114868278D01*
X120170483Y-114906373D01*
X120151436Y-114925421D01*
D12*
X90642857Y-140804761D02*
X90642857Y-138804761D01*
X91404761Y-138804761D01*
X91595238Y-138900000D01*
X91690476Y-138995238D01*
X91785714Y-139185714D01*
X91785714Y-139471428D01*
X91690476Y-139661904D01*
X91595238Y-139757142D01*
X91404761Y-139852380D01*
X90642857Y-139852380D01*
X93499999Y-139471428D02*
X93499999Y-140804761D01*
X92642857Y-139471428D02*
X92642857Y-140519047D01*
X92738095Y-140709523D01*
X92928571Y-140804761D01*
X93214285Y-140804761D01*
X93404761Y-140709523D01*
X93499999Y-140614285D01*
X94452380Y-139471428D02*
X94452380Y-141471428D01*
X94452380Y-139566666D02*
X94642857Y-139471428D01*
X95023809Y-139471428D01*
X95214285Y-139566666D01*
X95309523Y-139661904D01*
X95404761Y-139852380D01*
X95404761Y-140423809D01*
X95309523Y-140614285D01*
X95214285Y-140709523D01*
X95023809Y-140804761D01*
X94642857Y-140804761D01*
X94452380Y-140709523D01*
X97119047Y-140804761D02*
X97119047Y-138804761D01*
X97119047Y-140709523D02*
X96928571Y-140804761D01*
X96547619Y-140804761D01*
X96357142Y-140709523D01*
X96261904Y-140614285D01*
X96166666Y-140423809D01*
X96166666Y-139852380D01*
X96261904Y-139661904D01*
X96357142Y-139566666D01*
X96547619Y-139471428D01*
X96928571Y-139471428D01*
X97119047Y-139566666D01*
X98071428Y-140804761D02*
X98071428Y-139471428D01*
X98071428Y-139852380D02*
X98166666Y-139661904D01*
X98261904Y-139566666D01*
X98452380Y-139471428D01*
X98642857Y-139471428D01*
X99309523Y-140804761D02*
X99309523Y-139471428D01*
X99309523Y-138804761D02*
X99214285Y-138900000D01*
X99309523Y-138995238D01*
X99404761Y-138900000D01*
X99309523Y-138804761D01*
X99309523Y-138995238D01*
X100071428Y-139471428D02*
X100547619Y-140804761D01*
X101023809Y-139471428D01*
X102547619Y-140709523D02*
X102357142Y-140804761D01*
X101976190Y-140804761D01*
X101785714Y-140709523D01*
X101690476Y-140519047D01*
X101690476Y-139757142D01*
X101785714Y-139566666D01*
X101976190Y-139471428D01*
X102357142Y-139471428D01*
X102547619Y-139566666D01*
X102642857Y-139757142D01*
X102642857Y-139947619D01*
X101690476Y-140138095D01*
X105023809Y-139757142D02*
X105690476Y-139757142D01*
X105976190Y-140804761D02*
X105023809Y-140804761D01*
X105023809Y-138804761D01*
X105976190Y-138804761D01*
X106833333Y-140804761D02*
X106833333Y-138804761D01*
X108452380Y-139757142D02*
X108738095Y-139852380D01*
X108833333Y-139947619D01*
X108928571Y-140138095D01*
X108928571Y-140423809D01*
X108833333Y-140614285D01*
X108738095Y-140709523D01*
X108547619Y-140804761D01*
X107785714Y-140804761D01*
X107785714Y-138804761D01*
X108452380Y-138804761D01*
X108642857Y-138900000D01*
X108738095Y-138995238D01*
X108833333Y-139185714D01*
X108833333Y-139376190D01*
X108738095Y-139566666D01*
X108642857Y-139661904D01*
X108452380Y-139757142D01*
X107785714Y-139757142D01*
X109785714Y-140042857D02*
X111309523Y-140042857D01*
X112166666Y-138995238D02*
X112261904Y-138900000D01*
X112452380Y-138804761D01*
X112928571Y-138804761D01*
X113119047Y-138900000D01*
X113214285Y-138995238D01*
X113309523Y-139185714D01*
X113309523Y-139376190D01*
X113214285Y-139661904D01*
X112071428Y-140804761D01*
X113309523Y-140804761D01*
X115023809Y-139471428D02*
X115023809Y-140804761D01*
X114547619Y-138709523D02*
X114071428Y-140138095D01*
X115309523Y-140138095D01*
X118738095Y-140804761D02*
X118071428Y-139852380D01*
X117595238Y-140804761D02*
X117595238Y-138804761D01*
X118357142Y-138804761D01*
X118547619Y-138900000D01*
X118642857Y-138995238D01*
X118738095Y-139185714D01*
X118738095Y-139471428D01*
X118642857Y-139661904D01*
X118547619Y-139757142D01*
X118357142Y-139852380D01*
X117595238Y-139852380D01*
X120357142Y-140709523D02*
X120166666Y-140804761D01*
X119785714Y-140804761D01*
X119595238Y-140709523D01*
X119499999Y-140519047D01*
X119499999Y-139757142D01*
X119595238Y-139566666D01*
X119785714Y-139471428D01*
X120166666Y-139471428D01*
X120357142Y-139566666D01*
X120452380Y-139757142D01*
X120452380Y-139947619D01*
X119499999Y-140138095D01*
X121119047Y-139471428D02*
X121595238Y-140804761D01*
X122071428Y-139471428D01*
X122833333Y-140614285D02*
X122928571Y-140709523D01*
X122833333Y-140804761D01*
X122738095Y-140709523D01*
X122833333Y-140614285D01*
X122833333Y-140804761D01*
X125976190Y-139757142D02*
X126261904Y-139852380D01*
X126357142Y-139947619D01*
X126452380Y-140138095D01*
X126452380Y-140423809D01*
X126357142Y-140614285D01*
X126261904Y-140709523D01*
X126071428Y-140804761D01*
X125309523Y-140804761D01*
X125309523Y-138804761D01*
X125976190Y-138804761D01*
X126166666Y-138900000D01*
X126261904Y-138995238D01*
X126357142Y-139185714D01*
X126357142Y-139376190D01*
X126261904Y-139566666D01*
X126166666Y-139661904D01*
X125976190Y-139757142D01*
X125309523Y-139757142D01*
D13*
%TO.C,*%
%TD*%
M02*
