M48
; DRILL file {KiCad (6.0.0)} date Mon Mar 28 07:33:33 2022
; FORMAT={-:-/ absolute / inch / decimal}
; #@! TF.CreationDate,2022-03-28T07:33:33-07:00
; #@! TF.GenerationSoftware,Kicad,Pcbnew,(6.0.0)
; #@! TF.FileFunction,Plated,1,2,PTH
FMAT,2
INCH
; #@! TA.AperFunction,Plated,PTH,ViaDrill
T1C0.0079
%
G90
G05
T1
X4.2217Y-1.7002
X4.2217Y-1.779
X4.2217Y-1.8577
X4.3004Y-1.779
X4.3791Y-1.779
X4.4579Y-1.779
X4.47Y-5.751
X4.4815Y-1.7593
X4.4893Y-5.751
X4.4972Y-1.7711
X4.5087Y-5.751
X4.513Y-1.7593
X4.5281Y-5.751
X4.5287Y-1.7711
X4.5445Y-1.7593
X4.5474Y-5.751
X4.5602Y-1.7711
X4.5668Y-5.751
X4.576Y-1.7593
X4.5861Y-5.751
X4.5917Y-1.7711
X4.6055Y-5.751
X4.6075Y-1.7593
X4.6232Y-1.7711
X4.6249Y-5.751
X4.639Y-1.7593
X4.6442Y-5.751
X4.6547Y-1.7711
X4.6636Y-5.751
X4.683Y-5.751
X4.6941Y-1.779
X4.7728Y-1.779
X4.8268Y-1.7717
X4.8516Y-1.779
X4.9303Y-1.7002
X4.9303Y-1.779
X4.9303Y-1.8577
X5.4224Y-1.7002
X5.4224Y-1.779
X5.4224Y-1.8577
X5.5012Y-1.779
X5.5799Y-1.779
X5.6587Y-1.779
X5.6708Y-4.7742
X5.6823Y-1.7593
X5.6901Y-4.7742
X5.698Y-1.7711
X5.7095Y-4.7742
X5.7138Y-1.7593
X5.7288Y-4.7742
X5.7295Y-1.7711
X5.7453Y-1.7593
X5.7482Y-4.7742
X5.761Y-1.7711
X5.7676Y-4.7742
X5.7768Y-1.7593
X5.7869Y-4.7742
X5.7925Y-1.7711
X5.8063Y-4.7742
X5.8083Y-1.7593
X5.824Y-1.7711
X5.8257Y-4.7742
X5.8398Y-1.7593
X5.845Y-4.7742
X5.8555Y-1.7711
X5.8644Y-4.7742
X5.8838Y-4.7742
X5.8949Y-1.779
X5.9736Y-1.779
X6.0228Y-1.775
X6.0524Y-1.779
X6.1311Y-1.7002
X6.1311Y-1.779
X6.1311Y-1.8577
X6.6429Y-1.7002
X6.6429Y-1.779
X6.6429Y-1.8577
X6.7217Y-1.779
X6.8004Y-1.779
X6.8791Y-1.779
X6.8912Y-3.8116
X6.9028Y-1.7593
X6.9106Y-3.8116
X6.9185Y-1.7711
X6.93Y-3.8116
X6.9343Y-1.7593
X6.9493Y-3.8116
X6.95Y-1.7711
X6.9657Y-1.7593
X6.9687Y-3.8116
X6.9815Y-1.7711
X6.988Y-3.8116
X6.9972Y-1.7593
X7.0074Y-3.8116
X7.013Y-1.7711
X7.0268Y-3.8116
X7.0287Y-1.7593
X7.0445Y-1.7711
X7.0461Y-3.8116
X7.0602Y-1.7593
X7.0655Y-3.8116
X7.076Y-1.7711
X7.0849Y-3.8116
X7.1042Y-3.8116
X7.1154Y-1.779
X7.1941Y-1.779
X7.2433Y-1.775
X7.2728Y-1.779
X7.3516Y-1.7002
X7.3516Y-1.779
X7.3516Y-1.8577
T0
M30
