%TF.GenerationSoftware,KiCad,Pcbnew,(6.0.0)*%
%TF.CreationDate,2022-03-28T07:33:37-07:00*%
%TF.ProjectId,flex-24_panel,666c6578-2d32-4345-9f70-616e656c2e6b,A*%
%TF.SameCoordinates,Original*%
%TF.FileFunction,Profile,NP*%
%FSLAX46Y46*%
G04 Gerber Fmt 4.6, Leading zero omitted, Abs format (unit mm)*
G04 Created by KiCad (PCBNEW (6.0.0)) date 2022-03-28 07:33:37*
%MOMM*%
%LPD*%
G01*
G04 APERTURE LIST*
%TA.AperFunction,Profile*%
%ADD10C,0.050000*%
%TD*%
G04 APERTURE END LIST*
D10*
X184230000Y-48185864D02*
G75*
G03*
X180230000Y-52185864I0J-4000000D01*
G01*
X180229999Y-91376352D02*
G75*
G03*
X181430000Y-93185864I2083551J79079D01*
G01*
X174030000Y-93185863D02*
G75*
G03*
X175230000Y-91376352I-883550J1888590D01*
G01*
X149229999Y-115826353D02*
G75*
G03*
X150430000Y-117635865I2083551J79079D01*
G01*
X143030000Y-117635864D02*
G75*
G03*
X144230000Y-115826353I-883550J1888590D01*
G01*
X175230000Y-52185864D02*
G75*
G03*
X171230000Y-48185864I-4000000J0D01*
G01*
X141230000Y-52185864D02*
G75*
G03*
X137230000Y-48185864I-4000000J0D01*
G01*
X144230000Y-98185864D02*
X141230000Y-52185864D01*
X142230000Y-98185864D02*
X139152893Y-51185864D01*
X139152893Y-51185864D02*
G75*
G03*
X138152893Y-50185864I-999999J1D01*
G01*
X154307107Y-51185864D02*
X151230000Y-98185864D01*
X156230000Y-48185864D02*
G75*
G03*
X152230000Y-52185864I0J-4000000D01*
G01*
X136237107Y-50185864D02*
X138152893Y-50185864D01*
X155307107Y-50185864D02*
G75*
G03*
X154307107Y-51185864I-1J-999999D01*
G01*
X152230000Y-52185864D02*
X149230000Y-98185864D01*
X155307107Y-50185864D02*
X157230000Y-50185864D01*
X167237107Y-50185864D02*
X172230000Y-50185864D01*
X183230000Y-50185864D02*
X188222893Y-50185864D01*
X187230000Y-48185864D02*
X184230000Y-48185864D01*
X173230000Y-51185864D02*
G75*
G03*
X172230000Y-50185864I-999999J1D01*
G01*
X171230000Y-48185864D02*
X168230000Y-48185864D01*
X183230000Y-50185864D02*
G75*
G03*
X182230000Y-51185864I-1J-999999D01*
G01*
X110730000Y-52185864D02*
G75*
G03*
X106730000Y-48185864I-4000000J0D01*
G01*
X113730000Y-98185864D02*
X110730000Y-52185864D01*
X111730000Y-98185864D02*
X108652893Y-51185864D01*
X108652893Y-51185864D02*
G75*
G03*
X107652893Y-50185864I-999999J1D01*
G01*
X105737107Y-50185864D02*
X107652893Y-50185864D01*
X123807107Y-51185864D02*
X120730000Y-98185864D01*
X125730000Y-48185864D02*
G75*
G03*
X121730000Y-52185864I0J-4000000D01*
G01*
X118729999Y-140635864D02*
G75*
G03*
X119930000Y-142445376I2083551J79079D01*
G01*
X187230000Y-42185864D02*
X184230000Y-42185864D01*
X122730000Y-40185864D02*
G75*
G03*
X122730000Y-42185864I0J-1000000D01*
G01*
X119130000Y-146545376D02*
G75*
G03*
X119130000Y-148545376I0J-1000000D01*
G01*
X187230000Y-48185864D02*
X187230000Y-42185864D01*
X143030000Y-121735865D02*
X143030000Y-117635865D01*
X188230000Y-50185864D02*
G75*
G03*
X189230000Y-49185864I1J999999D01*
G01*
X113730000Y-140635864D02*
X113730000Y-98185864D01*
X151230000Y-114635865D02*
X151230000Y-112135865D01*
X180230000Y-52185864D02*
X180230000Y-91376352D01*
X121930000Y-140645376D02*
G75*
G03*
X121330000Y-140045376I-600000J0D01*
G01*
X104730000Y-48185864D02*
X104730000Y-49185864D01*
X152430000Y-115835865D02*
G75*
G03*
X151830000Y-115235865I-600000J0D01*
G01*
X112529999Y-146545375D02*
X113329999Y-146545375D01*
X140230000Y-42185864D02*
X137230000Y-42185864D01*
X188230000Y-40185864D02*
X184230000Y-40185864D01*
X166230000Y-49185864D02*
G75*
G03*
X167230000Y-50185864I999999J-1D01*
G01*
X166230000Y-48185864D02*
X166230000Y-49185864D01*
X127730000Y-48185864D02*
X127730000Y-49185864D01*
X183430000Y-98285864D02*
X183430000Y-93185864D01*
X158230000Y-48185864D02*
X158230000Y-41185864D01*
X109730000Y-42185864D02*
X106730000Y-42185864D01*
X140230000Y-42185864D02*
G75*
G03*
X140230000Y-40185864I0J1000000D01*
G01*
X172029999Y-98285863D02*
G75*
G03*
X173029999Y-99285863I999999J-1D01*
G01*
X172630000Y-90785864D02*
G75*
G03*
X172030000Y-91385864I0J-600000D01*
G01*
X149630000Y-121735865D02*
X150430000Y-121735865D01*
X171230000Y-42185864D02*
G75*
G03*
X171230000Y-40185864I0J1000000D01*
G01*
X172030000Y-93185864D02*
X172029999Y-98285863D01*
X135230000Y-41185864D02*
X135230000Y-48185864D01*
X112530000Y-142445376D02*
G75*
G03*
X113730000Y-140635864I-883548J1888589D01*
G01*
X172030000Y-91385864D02*
X172030000Y-93185864D01*
X142029999Y-123735864D02*
X143829999Y-123735864D01*
X149630000Y-123735865D02*
X151430000Y-123735865D01*
X121930000Y-147545376D02*
X121930000Y-142445376D01*
X156230000Y-42185864D02*
X153230000Y-42185864D01*
X174029999Y-97285863D02*
X174829999Y-97285863D01*
X173230000Y-51185864D02*
X173230000Y-87685864D01*
X124807107Y-50185864D02*
X126730000Y-50185864D01*
X156230000Y-48185864D02*
X156230000Y-42185864D01*
X182230000Y-87685864D02*
X182230000Y-51185864D01*
X119130000Y-146545376D02*
X119930000Y-146545376D01*
X110530000Y-140645376D02*
X110530000Y-142445376D01*
X121930000Y-140645376D02*
X121930000Y-142445376D01*
X143829999Y-123735864D02*
G75*
G03*
X143829999Y-121735864I0J1000000D01*
G01*
X137230000Y-48185864D02*
X137230000Y-42185864D01*
X144230000Y-115826353D02*
X144230000Y-98185864D01*
X180630000Y-97285864D02*
G75*
G03*
X180630000Y-99285864I0J-1000000D01*
G01*
X136230000Y-40185864D02*
G75*
G03*
X135230000Y-41185864I-1J-999999D01*
G01*
X141030000Y-117635865D02*
X141029999Y-122735864D01*
X182230000Y-90185864D02*
G75*
G03*
X182830000Y-90785864I600000J0D01*
G01*
X173230000Y-87685864D02*
X173230000Y-90185864D01*
X149230000Y-98185864D02*
X149230000Y-115826353D01*
X111730000Y-136945376D02*
X111730000Y-139445376D01*
X109730000Y-40185864D02*
X105730000Y-40185864D01*
X189230000Y-48185864D02*
X189230000Y-41185864D01*
X172630000Y-90785864D02*
G75*
G03*
X173230000Y-90185864I0J600000D01*
G01*
X181430000Y-93185864D02*
X181430000Y-97285864D01*
X120930000Y-148545376D02*
G75*
G03*
X121930000Y-147545376I1J999999D01*
G01*
X121730000Y-52185864D02*
X118730000Y-98185864D01*
X118730000Y-98185864D02*
X118730000Y-140635864D01*
X152430000Y-122735865D02*
X152430000Y-117635865D01*
X126730000Y-50185864D02*
G75*
G03*
X127730000Y-49185864I1J999999D01*
G01*
X125730000Y-42185864D02*
X122730000Y-42185864D01*
X189230000Y-48185864D02*
X189230000Y-49185864D01*
X120730000Y-139445376D02*
X120730000Y-136945376D01*
X182430000Y-99285864D02*
G75*
G03*
X183430000Y-98285864I1J999999D01*
G01*
X112530000Y-146545376D02*
X112530000Y-142445376D01*
X166230000Y-41185864D02*
X166230000Y-48185864D01*
X141029999Y-122735864D02*
G75*
G03*
X142029999Y-123735864I999999J-1D01*
G01*
X119130000Y-148545376D02*
X120930000Y-148545376D01*
X110529999Y-147545375D02*
G75*
G03*
X111529999Y-148545375I999999J-1D01*
G01*
X111730000Y-98185864D02*
X111730000Y-136945376D01*
X141630000Y-115235865D02*
G75*
G03*
X141030000Y-115835865I0J-600000D01*
G01*
X180630000Y-97285864D02*
X181430000Y-97285864D01*
X125730000Y-48185864D02*
X125730000Y-42185864D01*
X111130000Y-140045376D02*
G75*
G03*
X110530000Y-140645376I0J-600000D01*
G01*
X113329999Y-148545375D02*
G75*
G03*
X113329999Y-146545375I0J1000000D01*
G01*
X141630000Y-115235865D02*
G75*
G03*
X142230000Y-114635865I0J600000D01*
G01*
X153230000Y-40185864D02*
G75*
G03*
X153230000Y-42185864I0J-1000000D01*
G01*
X111529999Y-148545375D02*
X113329999Y-148545375D01*
X111130000Y-140045376D02*
G75*
G03*
X111730000Y-139445376I0J600000D01*
G01*
X157230000Y-40185864D02*
X153230000Y-40185864D01*
X151230000Y-114635865D02*
G75*
G03*
X151830000Y-115235865I600000J0D01*
G01*
X94045000Y-31082500D02*
X199045000Y-31082500D01*
X199045000Y-31082500D02*
X199045000Y-156082500D01*
X199045000Y-156082500D02*
X94045000Y-156082500D01*
X94045000Y-156082500D02*
X94045000Y-31082500D01*
X142230000Y-98185864D02*
X142230000Y-112135865D01*
X174829999Y-99285863D02*
G75*
G03*
X174829999Y-97285863I0J1000000D01*
G01*
X158230000Y-41185864D02*
G75*
G03*
X157230000Y-40185864I-999999J1D01*
G01*
X119930000Y-142445376D02*
X119930000Y-146545376D01*
X120730000Y-136945376D02*
X120730000Y-98185864D01*
X183430000Y-91385864D02*
G75*
G03*
X182830000Y-90785864I-600000J0D01*
G01*
X140230000Y-40185864D02*
X136230000Y-40185864D01*
X143029999Y-121735864D02*
X143829999Y-121735864D01*
X183430000Y-91385864D02*
X183430000Y-93185864D01*
X173029999Y-99285863D02*
X174829999Y-99285863D01*
X150430000Y-117635865D02*
X150430000Y-121735865D01*
X157230000Y-50185864D02*
G75*
G03*
X158230000Y-49185864I1J999999D01*
G01*
X175230000Y-91376352D02*
X175230000Y-52185864D01*
X171230000Y-40185864D02*
X167230000Y-40185864D01*
X110530000Y-142445376D02*
X110529999Y-147545375D01*
X149630000Y-121735865D02*
G75*
G03*
X149630000Y-123735865I0J-1000000D01*
G01*
X142230000Y-112135865D02*
X142230000Y-114635865D01*
X127730000Y-48185864D02*
X127730000Y-41185864D01*
X126730000Y-40185864D02*
X122730000Y-40185864D01*
X141030000Y-115835865D02*
X141030000Y-117635865D01*
X189230000Y-41185864D02*
G75*
G03*
X188230000Y-40185864I-999999J1D01*
G01*
X167230000Y-40185864D02*
G75*
G03*
X166230000Y-41185864I-1J-999999D01*
G01*
X168230000Y-48185864D02*
X168230000Y-42185864D01*
X120730000Y-139445376D02*
G75*
G03*
X121330000Y-140045376I600000J0D01*
G01*
X171230000Y-42185864D02*
X168230000Y-42185864D01*
X174030000Y-97285864D02*
X174030000Y-93185864D01*
X151430000Y-123735865D02*
G75*
G03*
X152430000Y-122735865I1J999999D01*
G01*
X180630000Y-99285864D02*
X182430000Y-99285864D01*
X135230000Y-48185864D02*
X135230000Y-49185864D01*
X127730000Y-41185864D02*
G75*
G03*
X126730000Y-40185864I-999999J1D01*
G01*
X152430000Y-115835865D02*
X152430000Y-117635865D01*
X104730000Y-41185864D02*
X104730000Y-48185864D01*
X124807107Y-50185864D02*
G75*
G03*
X123807107Y-51185864I-1J-999999D01*
G01*
X151230000Y-112135865D02*
X151230000Y-98185864D01*
X182230000Y-90185864D02*
X182230000Y-87685864D01*
X158230000Y-48185864D02*
X158230000Y-49185864D01*
X105730000Y-40185864D02*
G75*
G03*
X104730000Y-41185864I-1J-999999D01*
G01*
X109730000Y-42185864D02*
G75*
G03*
X109730000Y-40185864I0J1000000D01*
G01*
X104730000Y-49185864D02*
G75*
G03*
X105730000Y-50185864I999999J-1D01*
G01*
X106730000Y-48185864D02*
X106730000Y-42185864D01*
X135230000Y-49185864D02*
G75*
G03*
X136230000Y-50185864I999999J-1D01*
G01*
X184230000Y-40185864D02*
G75*
G03*
X184230000Y-42185864I0J-1000000D01*
G01*
M02*
