%TF.GenerationSoftware,KiCad,Pcbnew,(6.0.0)*%
%TF.CreationDate,2022-03-28T07:33:37-07:00*%
%TF.ProjectId,flex-24_panel,666c6578-2d32-4345-9f70-616e656c2e6b,A*%
%TF.SameCoordinates,Original*%
%TF.FileFunction,AssemblyDrawing,Bot*%
%FSLAX46Y46*%
G04 Gerber Fmt 4.6, Leading zero omitted, Abs format (unit mm)*
G04 Created by KiCad (PCBNEW (6.0.0)) date 2022-03-28 07:33:37*
%MOMM*%
%LPD*%
G01*
G04 APERTURE LIST*
%ADD10C,0.150000*%
%ADD11C,0.100000*%
G04 APERTURE END LIST*
D10*
X131352380Y-40866666D02*
X131352380Y-41057142D01*
X131400000Y-41152380D01*
X131447619Y-41200000D01*
X131590476Y-41295238D01*
X131780952Y-41342857D01*
X132161904Y-41342857D01*
X132257142Y-41295238D01*
X132304761Y-41247619D01*
X132352380Y-41152380D01*
X132352380Y-40961904D01*
X132304761Y-40866666D01*
X132257142Y-40819047D01*
X132161904Y-40771428D01*
X131923809Y-40771428D01*
X131828571Y-40819047D01*
X131780952Y-40866666D01*
X131733333Y-40961904D01*
X131733333Y-41152380D01*
X131780952Y-41247619D01*
X131828571Y-41295238D01*
X131923809Y-41342857D01*
X132257142Y-40342857D02*
X132304761Y-40295238D01*
X132352380Y-40342857D01*
X132304761Y-40390476D01*
X132257142Y-40342857D01*
X132352380Y-40342857D01*
X131352380Y-39676190D02*
X131352380Y-39580952D01*
X131400000Y-39485714D01*
X131447619Y-39438095D01*
X131542857Y-39390476D01*
X131733333Y-39342857D01*
X131971428Y-39342857D01*
X132161904Y-39390476D01*
X132257142Y-39438095D01*
X132304761Y-39485714D01*
X132352380Y-39580952D01*
X132352380Y-39676190D01*
X132304761Y-39771428D01*
X132257142Y-39819047D01*
X132161904Y-39866666D01*
X131971428Y-39914285D01*
X131733333Y-39914285D01*
X131542857Y-39866666D01*
X131447619Y-39819047D01*
X131400000Y-39771428D01*
X131352380Y-39676190D01*
X131352380Y-38723809D02*
X131352380Y-38628571D01*
X131400000Y-38533333D01*
X131447619Y-38485714D01*
X131542857Y-38438095D01*
X131733333Y-38390476D01*
X131971428Y-38390476D01*
X132161904Y-38438095D01*
X132257142Y-38485714D01*
X132304761Y-38533333D01*
X132352380Y-38628571D01*
X132352380Y-38723809D01*
X132304761Y-38819047D01*
X132257142Y-38866666D01*
X132161904Y-38914285D01*
X131971428Y-38961904D01*
X131733333Y-38961904D01*
X131542857Y-38914285D01*
X131447619Y-38866666D01*
X131400000Y-38819047D01*
X131352380Y-38723809D01*
X131352380Y-37771428D02*
X131352380Y-37676190D01*
X131400000Y-37580952D01*
X131447619Y-37533333D01*
X131542857Y-37485714D01*
X131733333Y-37438095D01*
X131971428Y-37438095D01*
X132161904Y-37485714D01*
X132257142Y-37533333D01*
X132304761Y-37580952D01*
X132352380Y-37676190D01*
X132352380Y-37771428D01*
X132304761Y-37866666D01*
X132257142Y-37914285D01*
X132161904Y-37961904D01*
X131971428Y-38009523D01*
X131733333Y-38009523D01*
X131542857Y-37961904D01*
X131447619Y-37914285D01*
X131400000Y-37866666D01*
X131352380Y-37771428D01*
X131352380Y-36819047D02*
X131352380Y-36723809D01*
X131400000Y-36628571D01*
X131447619Y-36580952D01*
X131542857Y-36533333D01*
X131733333Y-36485714D01*
X131971428Y-36485714D01*
X132161904Y-36533333D01*
X132257142Y-36580952D01*
X132304761Y-36628571D01*
X132352380Y-36723809D01*
X132352380Y-36819047D01*
X132304761Y-36914285D01*
X132257142Y-36961904D01*
X132161904Y-37009523D01*
X131971428Y-37057142D01*
X131733333Y-37057142D01*
X131542857Y-37009523D01*
X131447619Y-36961904D01*
X131400000Y-36914285D01*
X131352380Y-36819047D01*
X132352380Y-35295238D02*
X131685714Y-35295238D01*
X131780952Y-35295238D02*
X131733333Y-35247619D01*
X131685714Y-35152380D01*
X131685714Y-35009523D01*
X131733333Y-34914285D01*
X131828571Y-34866666D01*
X132352380Y-34866666D01*
X131828571Y-34866666D02*
X131733333Y-34819047D01*
X131685714Y-34723809D01*
X131685714Y-34580952D01*
X131733333Y-34485714D01*
X131828571Y-34438095D01*
X132352380Y-34438095D01*
X132352380Y-33961904D02*
X131685714Y-33961904D01*
X131780952Y-33961904D02*
X131733333Y-33914285D01*
X131685714Y-33819047D01*
X131685714Y-33676190D01*
X131733333Y-33580952D01*
X131828571Y-33533333D01*
X132352380Y-33533333D01*
X131828571Y-33533333D02*
X131733333Y-33485714D01*
X131685714Y-33390476D01*
X131685714Y-33247619D01*
X131733333Y-33152380D01*
X131828571Y-33104761D01*
X132352380Y-33104761D01*
D11*
X126230000Y-42185864D02*
X132486420Y-42185864D01*
X126230000Y-48185864D02*
X132486420Y-48185864D01*
X131900000Y-42185864D02*
X131900000Y-48185864D01*
X131900000Y-42185864D02*
X131900000Y-48185864D01*
X131900000Y-42185864D02*
X131313579Y-43312368D01*
X131900000Y-42185864D02*
X132486421Y-43312368D01*
X131900000Y-48185864D02*
X132486421Y-47059360D01*
X131900000Y-48185864D02*
X131313579Y-47059360D01*
D10*
X112182380Y-38102380D02*
X111610952Y-38102380D01*
X111896666Y-38102380D02*
X111896666Y-37102380D01*
X111801428Y-37245238D01*
X111706190Y-37340476D01*
X111610952Y-37388095D01*
X112658571Y-38102380D02*
X112849047Y-38102380D01*
X112944285Y-38054761D01*
X112991904Y-38007142D01*
X113087142Y-37864285D01*
X113134761Y-37673809D01*
X113134761Y-37292857D01*
X113087142Y-37197619D01*
X113039523Y-37150000D01*
X112944285Y-37102380D01*
X112753809Y-37102380D01*
X112658571Y-37150000D01*
X112610952Y-37197619D01*
X112563333Y-37292857D01*
X112563333Y-37530952D01*
X112610952Y-37626190D01*
X112658571Y-37673809D01*
X112753809Y-37721428D01*
X112944285Y-37721428D01*
X113039523Y-37673809D01*
X113087142Y-37626190D01*
X113134761Y-37530952D01*
X113563333Y-38007142D02*
X113610952Y-38054761D01*
X113563333Y-38102380D01*
X113515714Y-38054761D01*
X113563333Y-38007142D01*
X113563333Y-38102380D01*
X114230000Y-37102380D02*
X114325238Y-37102380D01*
X114420476Y-37150000D01*
X114468095Y-37197619D01*
X114515714Y-37292857D01*
X114563333Y-37483333D01*
X114563333Y-37721428D01*
X114515714Y-37911904D01*
X114468095Y-38007142D01*
X114420476Y-38054761D01*
X114325238Y-38102380D01*
X114230000Y-38102380D01*
X114134761Y-38054761D01*
X114087142Y-38007142D01*
X114039523Y-37911904D01*
X113991904Y-37721428D01*
X113991904Y-37483333D01*
X114039523Y-37292857D01*
X114087142Y-37197619D01*
X114134761Y-37150000D01*
X114230000Y-37102380D01*
X115182380Y-37102380D02*
X115277619Y-37102380D01*
X115372857Y-37150000D01*
X115420476Y-37197619D01*
X115468095Y-37292857D01*
X115515714Y-37483333D01*
X115515714Y-37721428D01*
X115468095Y-37911904D01*
X115420476Y-38007142D01*
X115372857Y-38054761D01*
X115277619Y-38102380D01*
X115182380Y-38102380D01*
X115087142Y-38054761D01*
X115039523Y-38007142D01*
X114991904Y-37911904D01*
X114944285Y-37721428D01*
X114944285Y-37483333D01*
X114991904Y-37292857D01*
X115039523Y-37197619D01*
X115087142Y-37150000D01*
X115182380Y-37102380D01*
X116134761Y-37102380D02*
X116230000Y-37102380D01*
X116325238Y-37150000D01*
X116372857Y-37197619D01*
X116420476Y-37292857D01*
X116468095Y-37483333D01*
X116468095Y-37721428D01*
X116420476Y-37911904D01*
X116372857Y-38007142D01*
X116325238Y-38054761D01*
X116230000Y-38102380D01*
X116134761Y-38102380D01*
X116039523Y-38054761D01*
X115991904Y-38007142D01*
X115944285Y-37911904D01*
X115896666Y-37721428D01*
X115896666Y-37483333D01*
X115944285Y-37292857D01*
X115991904Y-37197619D01*
X116039523Y-37150000D01*
X116134761Y-37102380D01*
X117087142Y-37102380D02*
X117182380Y-37102380D01*
X117277619Y-37150000D01*
X117325238Y-37197619D01*
X117372857Y-37292857D01*
X117420476Y-37483333D01*
X117420476Y-37721428D01*
X117372857Y-37911904D01*
X117325238Y-38007142D01*
X117277619Y-38054761D01*
X117182380Y-38102380D01*
X117087142Y-38102380D01*
X116991904Y-38054761D01*
X116944285Y-38007142D01*
X116896666Y-37911904D01*
X116849047Y-37721428D01*
X116849047Y-37483333D01*
X116896666Y-37292857D01*
X116944285Y-37197619D01*
X116991904Y-37150000D01*
X117087142Y-37102380D01*
X118610952Y-38102380D02*
X118610952Y-37435714D01*
X118610952Y-37530952D02*
X118658571Y-37483333D01*
X118753809Y-37435714D01*
X118896666Y-37435714D01*
X118991904Y-37483333D01*
X119039523Y-37578571D01*
X119039523Y-38102380D01*
X119039523Y-37578571D02*
X119087142Y-37483333D01*
X119182380Y-37435714D01*
X119325238Y-37435714D01*
X119420476Y-37483333D01*
X119468095Y-37578571D01*
X119468095Y-38102380D01*
X119944285Y-38102380D02*
X119944285Y-37435714D01*
X119944285Y-37530952D02*
X119991904Y-37483333D01*
X120087142Y-37435714D01*
X120230000Y-37435714D01*
X120325238Y-37483333D01*
X120372857Y-37578571D01*
X120372857Y-38102380D01*
X120372857Y-37578571D02*
X120420476Y-37483333D01*
X120515714Y-37435714D01*
X120658571Y-37435714D01*
X120753809Y-37483333D01*
X120801428Y-37578571D01*
X120801428Y-38102380D01*
D11*
X106730000Y-41685864D02*
X106730000Y-38213580D01*
X125730000Y-41685864D02*
X125730000Y-38213580D01*
X106730000Y-38800000D02*
X110845476Y-38800000D01*
X121614524Y-38800000D02*
X125730000Y-38800000D01*
X106730000Y-38800000D02*
X107856504Y-39386421D01*
X106730000Y-38800000D02*
X107856504Y-38213579D01*
X125730000Y-38800000D02*
X124603496Y-38213579D01*
X125730000Y-38800000D02*
X124603496Y-39386421D01*
D10*
X142652380Y-38002380D02*
X142080952Y-38002380D01*
X142366666Y-38002380D02*
X142366666Y-37002380D01*
X142271428Y-37145238D01*
X142176190Y-37240476D01*
X142080952Y-37288095D01*
X143128571Y-38002380D02*
X143319047Y-38002380D01*
X143414285Y-37954761D01*
X143461904Y-37907142D01*
X143557142Y-37764285D01*
X143604761Y-37573809D01*
X143604761Y-37192857D01*
X143557142Y-37097619D01*
X143509523Y-37050000D01*
X143414285Y-37002380D01*
X143223809Y-37002380D01*
X143128571Y-37050000D01*
X143080952Y-37097619D01*
X143033333Y-37192857D01*
X143033333Y-37430952D01*
X143080952Y-37526190D01*
X143128571Y-37573809D01*
X143223809Y-37621428D01*
X143414285Y-37621428D01*
X143509523Y-37573809D01*
X143557142Y-37526190D01*
X143604761Y-37430952D01*
X144033333Y-37907142D02*
X144080952Y-37954761D01*
X144033333Y-38002380D01*
X143985714Y-37954761D01*
X144033333Y-37907142D01*
X144033333Y-38002380D01*
X144700000Y-37002380D02*
X144795238Y-37002380D01*
X144890476Y-37050000D01*
X144938095Y-37097619D01*
X144985714Y-37192857D01*
X145033333Y-37383333D01*
X145033333Y-37621428D01*
X144985714Y-37811904D01*
X144938095Y-37907142D01*
X144890476Y-37954761D01*
X144795238Y-38002380D01*
X144700000Y-38002380D01*
X144604761Y-37954761D01*
X144557142Y-37907142D01*
X144509523Y-37811904D01*
X144461904Y-37621428D01*
X144461904Y-37383333D01*
X144509523Y-37192857D01*
X144557142Y-37097619D01*
X144604761Y-37050000D01*
X144700000Y-37002380D01*
X145652380Y-37002380D02*
X145747619Y-37002380D01*
X145842857Y-37050000D01*
X145890476Y-37097619D01*
X145938095Y-37192857D01*
X145985714Y-37383333D01*
X145985714Y-37621428D01*
X145938095Y-37811904D01*
X145890476Y-37907142D01*
X145842857Y-37954761D01*
X145747619Y-38002380D01*
X145652380Y-38002380D01*
X145557142Y-37954761D01*
X145509523Y-37907142D01*
X145461904Y-37811904D01*
X145414285Y-37621428D01*
X145414285Y-37383333D01*
X145461904Y-37192857D01*
X145509523Y-37097619D01*
X145557142Y-37050000D01*
X145652380Y-37002380D01*
X146604761Y-37002380D02*
X146700000Y-37002380D01*
X146795238Y-37050000D01*
X146842857Y-37097619D01*
X146890476Y-37192857D01*
X146938095Y-37383333D01*
X146938095Y-37621428D01*
X146890476Y-37811904D01*
X146842857Y-37907142D01*
X146795238Y-37954761D01*
X146700000Y-38002380D01*
X146604761Y-38002380D01*
X146509523Y-37954761D01*
X146461904Y-37907142D01*
X146414285Y-37811904D01*
X146366666Y-37621428D01*
X146366666Y-37383333D01*
X146414285Y-37192857D01*
X146461904Y-37097619D01*
X146509523Y-37050000D01*
X146604761Y-37002380D01*
X147557142Y-37002380D02*
X147652380Y-37002380D01*
X147747619Y-37050000D01*
X147795238Y-37097619D01*
X147842857Y-37192857D01*
X147890476Y-37383333D01*
X147890476Y-37621428D01*
X147842857Y-37811904D01*
X147795238Y-37907142D01*
X147747619Y-37954761D01*
X147652380Y-38002380D01*
X147557142Y-38002380D01*
X147461904Y-37954761D01*
X147414285Y-37907142D01*
X147366666Y-37811904D01*
X147319047Y-37621428D01*
X147319047Y-37383333D01*
X147366666Y-37192857D01*
X147414285Y-37097619D01*
X147461904Y-37050000D01*
X147557142Y-37002380D01*
X149080952Y-38002380D02*
X149080952Y-37335714D01*
X149080952Y-37430952D02*
X149128571Y-37383333D01*
X149223809Y-37335714D01*
X149366666Y-37335714D01*
X149461904Y-37383333D01*
X149509523Y-37478571D01*
X149509523Y-38002380D01*
X149509523Y-37478571D02*
X149557142Y-37383333D01*
X149652380Y-37335714D01*
X149795238Y-37335714D01*
X149890476Y-37383333D01*
X149938095Y-37478571D01*
X149938095Y-38002380D01*
X150414285Y-38002380D02*
X150414285Y-37335714D01*
X150414285Y-37430952D02*
X150461904Y-37383333D01*
X150557142Y-37335714D01*
X150700000Y-37335714D01*
X150795238Y-37383333D01*
X150842857Y-37478571D01*
X150842857Y-38002380D01*
X150842857Y-37478571D02*
X150890476Y-37383333D01*
X150985714Y-37335714D01*
X151128571Y-37335714D01*
X151223809Y-37383333D01*
X151271428Y-37478571D01*
X151271428Y-38002380D01*
D11*
X137200000Y-41700000D02*
X137200000Y-38113580D01*
X156200000Y-41700000D02*
X156200000Y-38113580D01*
X137200000Y-38700000D02*
X141315476Y-38700000D01*
X152084524Y-38700000D02*
X156200000Y-38700000D01*
X137200000Y-38700000D02*
X138326504Y-39286421D01*
X137200000Y-38700000D02*
X138326504Y-38113579D01*
X156200000Y-38700000D02*
X155073496Y-38113579D01*
X156200000Y-38700000D02*
X155073496Y-39286421D01*
D10*
X159052380Y-41066666D02*
X159052380Y-41257142D01*
X159100000Y-41352380D01*
X159147619Y-41400000D01*
X159290476Y-41495238D01*
X159480952Y-41542857D01*
X159861904Y-41542857D01*
X159957142Y-41495238D01*
X160004761Y-41447619D01*
X160052380Y-41352380D01*
X160052380Y-41161904D01*
X160004761Y-41066666D01*
X159957142Y-41019047D01*
X159861904Y-40971428D01*
X159623809Y-40971428D01*
X159528571Y-41019047D01*
X159480952Y-41066666D01*
X159433333Y-41161904D01*
X159433333Y-41352380D01*
X159480952Y-41447619D01*
X159528571Y-41495238D01*
X159623809Y-41542857D01*
X159957142Y-40542857D02*
X160004761Y-40495238D01*
X160052380Y-40542857D01*
X160004761Y-40590476D01*
X159957142Y-40542857D01*
X160052380Y-40542857D01*
X159052380Y-39876190D02*
X159052380Y-39780952D01*
X159100000Y-39685714D01*
X159147619Y-39638095D01*
X159242857Y-39590476D01*
X159433333Y-39542857D01*
X159671428Y-39542857D01*
X159861904Y-39590476D01*
X159957142Y-39638095D01*
X160004761Y-39685714D01*
X160052380Y-39780952D01*
X160052380Y-39876190D01*
X160004761Y-39971428D01*
X159957142Y-40019047D01*
X159861904Y-40066666D01*
X159671428Y-40114285D01*
X159433333Y-40114285D01*
X159242857Y-40066666D01*
X159147619Y-40019047D01*
X159100000Y-39971428D01*
X159052380Y-39876190D01*
X159052380Y-38923809D02*
X159052380Y-38828571D01*
X159100000Y-38733333D01*
X159147619Y-38685714D01*
X159242857Y-38638095D01*
X159433333Y-38590476D01*
X159671428Y-38590476D01*
X159861904Y-38638095D01*
X159957142Y-38685714D01*
X160004761Y-38733333D01*
X160052380Y-38828571D01*
X160052380Y-38923809D01*
X160004761Y-39019047D01*
X159957142Y-39066666D01*
X159861904Y-39114285D01*
X159671428Y-39161904D01*
X159433333Y-39161904D01*
X159242857Y-39114285D01*
X159147619Y-39066666D01*
X159100000Y-39019047D01*
X159052380Y-38923809D01*
X159052380Y-37971428D02*
X159052380Y-37876190D01*
X159100000Y-37780952D01*
X159147619Y-37733333D01*
X159242857Y-37685714D01*
X159433333Y-37638095D01*
X159671428Y-37638095D01*
X159861904Y-37685714D01*
X159957142Y-37733333D01*
X160004761Y-37780952D01*
X160052380Y-37876190D01*
X160052380Y-37971428D01*
X160004761Y-38066666D01*
X159957142Y-38114285D01*
X159861904Y-38161904D01*
X159671428Y-38209523D01*
X159433333Y-38209523D01*
X159242857Y-38161904D01*
X159147619Y-38114285D01*
X159100000Y-38066666D01*
X159052380Y-37971428D01*
X159052380Y-37019047D02*
X159052380Y-36923809D01*
X159100000Y-36828571D01*
X159147619Y-36780952D01*
X159242857Y-36733333D01*
X159433333Y-36685714D01*
X159671428Y-36685714D01*
X159861904Y-36733333D01*
X159957142Y-36780952D01*
X160004761Y-36828571D01*
X160052380Y-36923809D01*
X160052380Y-37019047D01*
X160004761Y-37114285D01*
X159957142Y-37161904D01*
X159861904Y-37209523D01*
X159671428Y-37257142D01*
X159433333Y-37257142D01*
X159242857Y-37209523D01*
X159147619Y-37161904D01*
X159100000Y-37114285D01*
X159052380Y-37019047D01*
X160052380Y-35495238D02*
X159385714Y-35495238D01*
X159480952Y-35495238D02*
X159433333Y-35447619D01*
X159385714Y-35352380D01*
X159385714Y-35209523D01*
X159433333Y-35114285D01*
X159528571Y-35066666D01*
X160052380Y-35066666D01*
X159528571Y-35066666D02*
X159433333Y-35019047D01*
X159385714Y-34923809D01*
X159385714Y-34780952D01*
X159433333Y-34685714D01*
X159528571Y-34638095D01*
X160052380Y-34638095D01*
X160052380Y-34161904D02*
X159385714Y-34161904D01*
X159480952Y-34161904D02*
X159433333Y-34114285D01*
X159385714Y-34019047D01*
X159385714Y-33876190D01*
X159433333Y-33780952D01*
X159528571Y-33733333D01*
X160052380Y-33733333D01*
X159528571Y-33733333D02*
X159433333Y-33685714D01*
X159385714Y-33590476D01*
X159385714Y-33447619D01*
X159433333Y-33352380D01*
X159528571Y-33304761D01*
X160052380Y-33304761D01*
D11*
X156700000Y-42200000D02*
X160286420Y-42200000D01*
X156700000Y-48200000D02*
X160286420Y-48200000D01*
X159700000Y-42308333D02*
X159700000Y-48200000D01*
X159700000Y-42200000D02*
X159113579Y-43326504D01*
X159700000Y-42200000D02*
X160286421Y-43326504D01*
X159700000Y-48200000D02*
X160286421Y-47073496D01*
X159700000Y-48200000D02*
X159113579Y-47073496D01*
D10*
X173652380Y-38402380D02*
X173080952Y-38402380D01*
X173366666Y-38402380D02*
X173366666Y-37402380D01*
X173271428Y-37545238D01*
X173176190Y-37640476D01*
X173080952Y-37688095D01*
X174128571Y-38402380D02*
X174319047Y-38402380D01*
X174414285Y-38354761D01*
X174461904Y-38307142D01*
X174557142Y-38164285D01*
X174604761Y-37973809D01*
X174604761Y-37592857D01*
X174557142Y-37497619D01*
X174509523Y-37450000D01*
X174414285Y-37402380D01*
X174223809Y-37402380D01*
X174128571Y-37450000D01*
X174080952Y-37497619D01*
X174033333Y-37592857D01*
X174033333Y-37830952D01*
X174080952Y-37926190D01*
X174128571Y-37973809D01*
X174223809Y-38021428D01*
X174414285Y-38021428D01*
X174509523Y-37973809D01*
X174557142Y-37926190D01*
X174604761Y-37830952D01*
X175033333Y-38307142D02*
X175080952Y-38354761D01*
X175033333Y-38402380D01*
X174985714Y-38354761D01*
X175033333Y-38307142D01*
X175033333Y-38402380D01*
X175700000Y-37402380D02*
X175795238Y-37402380D01*
X175890476Y-37450000D01*
X175938095Y-37497619D01*
X175985714Y-37592857D01*
X176033333Y-37783333D01*
X176033333Y-38021428D01*
X175985714Y-38211904D01*
X175938095Y-38307142D01*
X175890476Y-38354761D01*
X175795238Y-38402380D01*
X175700000Y-38402380D01*
X175604761Y-38354761D01*
X175557142Y-38307142D01*
X175509523Y-38211904D01*
X175461904Y-38021428D01*
X175461904Y-37783333D01*
X175509523Y-37592857D01*
X175557142Y-37497619D01*
X175604761Y-37450000D01*
X175700000Y-37402380D01*
X176652380Y-37402380D02*
X176747619Y-37402380D01*
X176842857Y-37450000D01*
X176890476Y-37497619D01*
X176938095Y-37592857D01*
X176985714Y-37783333D01*
X176985714Y-38021428D01*
X176938095Y-38211904D01*
X176890476Y-38307142D01*
X176842857Y-38354761D01*
X176747619Y-38402380D01*
X176652380Y-38402380D01*
X176557142Y-38354761D01*
X176509523Y-38307142D01*
X176461904Y-38211904D01*
X176414285Y-38021428D01*
X176414285Y-37783333D01*
X176461904Y-37592857D01*
X176509523Y-37497619D01*
X176557142Y-37450000D01*
X176652380Y-37402380D01*
X177604761Y-37402380D02*
X177700000Y-37402380D01*
X177795238Y-37450000D01*
X177842857Y-37497619D01*
X177890476Y-37592857D01*
X177938095Y-37783333D01*
X177938095Y-38021428D01*
X177890476Y-38211904D01*
X177842857Y-38307142D01*
X177795238Y-38354761D01*
X177700000Y-38402380D01*
X177604761Y-38402380D01*
X177509523Y-38354761D01*
X177461904Y-38307142D01*
X177414285Y-38211904D01*
X177366666Y-38021428D01*
X177366666Y-37783333D01*
X177414285Y-37592857D01*
X177461904Y-37497619D01*
X177509523Y-37450000D01*
X177604761Y-37402380D01*
X178557142Y-37402380D02*
X178652380Y-37402380D01*
X178747619Y-37450000D01*
X178795238Y-37497619D01*
X178842857Y-37592857D01*
X178890476Y-37783333D01*
X178890476Y-38021428D01*
X178842857Y-38211904D01*
X178795238Y-38307142D01*
X178747619Y-38354761D01*
X178652380Y-38402380D01*
X178557142Y-38402380D01*
X178461904Y-38354761D01*
X178414285Y-38307142D01*
X178366666Y-38211904D01*
X178319047Y-38021428D01*
X178319047Y-37783333D01*
X178366666Y-37592857D01*
X178414285Y-37497619D01*
X178461904Y-37450000D01*
X178557142Y-37402380D01*
X180080952Y-38402380D02*
X180080952Y-37735714D01*
X180080952Y-37830952D02*
X180128571Y-37783333D01*
X180223809Y-37735714D01*
X180366666Y-37735714D01*
X180461904Y-37783333D01*
X180509523Y-37878571D01*
X180509523Y-38402380D01*
X180509523Y-37878571D02*
X180557142Y-37783333D01*
X180652380Y-37735714D01*
X180795238Y-37735714D01*
X180890476Y-37783333D01*
X180938095Y-37878571D01*
X180938095Y-38402380D01*
X181414285Y-38402380D02*
X181414285Y-37735714D01*
X181414285Y-37830952D02*
X181461904Y-37783333D01*
X181557142Y-37735714D01*
X181700000Y-37735714D01*
X181795238Y-37783333D01*
X181842857Y-37878571D01*
X181842857Y-38402380D01*
X181842857Y-37878571D02*
X181890476Y-37783333D01*
X181985714Y-37735714D01*
X182128571Y-37735714D01*
X182223809Y-37783333D01*
X182271428Y-37878571D01*
X182271428Y-38402380D01*
D11*
X168200000Y-41700000D02*
X168200000Y-38513580D01*
X187200000Y-41700000D02*
X187200000Y-38513580D01*
X168200000Y-39100000D02*
X172315476Y-39100000D01*
X183084524Y-39100000D02*
X187200000Y-39100000D01*
X168200000Y-39100000D02*
X169326504Y-39686421D01*
X168200000Y-39100000D02*
X169326504Y-38513579D01*
X187200000Y-39100000D02*
X186073496Y-38513579D01*
X187200000Y-39100000D02*
X186073496Y-39686421D01*
D10*
X191552380Y-40866666D02*
X191552380Y-41057142D01*
X191600000Y-41152380D01*
X191647619Y-41200000D01*
X191790476Y-41295238D01*
X191980952Y-41342857D01*
X192361904Y-41342857D01*
X192457142Y-41295238D01*
X192504761Y-41247619D01*
X192552380Y-41152380D01*
X192552380Y-40961904D01*
X192504761Y-40866666D01*
X192457142Y-40819047D01*
X192361904Y-40771428D01*
X192123809Y-40771428D01*
X192028571Y-40819047D01*
X191980952Y-40866666D01*
X191933333Y-40961904D01*
X191933333Y-41152380D01*
X191980952Y-41247619D01*
X192028571Y-41295238D01*
X192123809Y-41342857D01*
X192457142Y-40342857D02*
X192504761Y-40295238D01*
X192552380Y-40342857D01*
X192504761Y-40390476D01*
X192457142Y-40342857D01*
X192552380Y-40342857D01*
X191552380Y-39676190D02*
X191552380Y-39580952D01*
X191600000Y-39485714D01*
X191647619Y-39438095D01*
X191742857Y-39390476D01*
X191933333Y-39342857D01*
X192171428Y-39342857D01*
X192361904Y-39390476D01*
X192457142Y-39438095D01*
X192504761Y-39485714D01*
X192552380Y-39580952D01*
X192552380Y-39676190D01*
X192504761Y-39771428D01*
X192457142Y-39819047D01*
X192361904Y-39866666D01*
X192171428Y-39914285D01*
X191933333Y-39914285D01*
X191742857Y-39866666D01*
X191647619Y-39819047D01*
X191600000Y-39771428D01*
X191552380Y-39676190D01*
X191552380Y-38723809D02*
X191552380Y-38628571D01*
X191600000Y-38533333D01*
X191647619Y-38485714D01*
X191742857Y-38438095D01*
X191933333Y-38390476D01*
X192171428Y-38390476D01*
X192361904Y-38438095D01*
X192457142Y-38485714D01*
X192504761Y-38533333D01*
X192552380Y-38628571D01*
X192552380Y-38723809D01*
X192504761Y-38819047D01*
X192457142Y-38866666D01*
X192361904Y-38914285D01*
X192171428Y-38961904D01*
X191933333Y-38961904D01*
X191742857Y-38914285D01*
X191647619Y-38866666D01*
X191600000Y-38819047D01*
X191552380Y-38723809D01*
X191552380Y-37771428D02*
X191552380Y-37676190D01*
X191600000Y-37580952D01*
X191647619Y-37533333D01*
X191742857Y-37485714D01*
X191933333Y-37438095D01*
X192171428Y-37438095D01*
X192361904Y-37485714D01*
X192457142Y-37533333D01*
X192504761Y-37580952D01*
X192552380Y-37676190D01*
X192552380Y-37771428D01*
X192504761Y-37866666D01*
X192457142Y-37914285D01*
X192361904Y-37961904D01*
X192171428Y-38009523D01*
X191933333Y-38009523D01*
X191742857Y-37961904D01*
X191647619Y-37914285D01*
X191600000Y-37866666D01*
X191552380Y-37771428D01*
X191552380Y-36819047D02*
X191552380Y-36723809D01*
X191600000Y-36628571D01*
X191647619Y-36580952D01*
X191742857Y-36533333D01*
X191933333Y-36485714D01*
X192171428Y-36485714D01*
X192361904Y-36533333D01*
X192457142Y-36580952D01*
X192504761Y-36628571D01*
X192552380Y-36723809D01*
X192552380Y-36819047D01*
X192504761Y-36914285D01*
X192457142Y-36961904D01*
X192361904Y-37009523D01*
X192171428Y-37057142D01*
X191933333Y-37057142D01*
X191742857Y-37009523D01*
X191647619Y-36961904D01*
X191600000Y-36914285D01*
X191552380Y-36819047D01*
X192552380Y-35295238D02*
X191885714Y-35295238D01*
X191980952Y-35295238D02*
X191933333Y-35247619D01*
X191885714Y-35152380D01*
X191885714Y-35009523D01*
X191933333Y-34914285D01*
X192028571Y-34866666D01*
X192552380Y-34866666D01*
X192028571Y-34866666D02*
X191933333Y-34819047D01*
X191885714Y-34723809D01*
X191885714Y-34580952D01*
X191933333Y-34485714D01*
X192028571Y-34438095D01*
X192552380Y-34438095D01*
X192552380Y-33961904D02*
X191885714Y-33961904D01*
X191980952Y-33961904D02*
X191933333Y-33914285D01*
X191885714Y-33819047D01*
X191885714Y-33676190D01*
X191933333Y-33580952D01*
X192028571Y-33533333D01*
X192552380Y-33533333D01*
X192028571Y-33533333D02*
X191933333Y-33485714D01*
X191885714Y-33390476D01*
X191885714Y-33247619D01*
X191933333Y-33152380D01*
X192028571Y-33104761D01*
X192552380Y-33104761D01*
D11*
X187700000Y-42200000D02*
X192686420Y-42200000D01*
X187700000Y-48200000D02*
X192686420Y-48200000D01*
X192100000Y-42200000D02*
X192100000Y-48200000D01*
X192100000Y-42200000D02*
X192100000Y-48200000D01*
X192100000Y-42200000D02*
X191513579Y-43326504D01*
X192100000Y-42200000D02*
X192686421Y-43326504D01*
X192100000Y-48200000D02*
X192686421Y-47073496D01*
X192100000Y-48200000D02*
X191513579Y-47073496D01*
D10*
X168823809Y-45804761D02*
X168966666Y-45852380D01*
X169204761Y-45852380D01*
X169300000Y-45804761D01*
X169347619Y-45757142D01*
X169395238Y-45661904D01*
X169395238Y-45566666D01*
X169347619Y-45471428D01*
X169300000Y-45423809D01*
X169204761Y-45376190D01*
X169014285Y-45328571D01*
X168919047Y-45280952D01*
X168871428Y-45233333D01*
X168823809Y-45138095D01*
X168823809Y-45042857D01*
X168871428Y-44947619D01*
X168919047Y-44900000D01*
X169014285Y-44852380D01*
X169252380Y-44852380D01*
X169395238Y-44900000D01*
X169680952Y-45185714D02*
X170061904Y-45185714D01*
X169823809Y-44852380D02*
X169823809Y-45709523D01*
X169871428Y-45804761D01*
X169966666Y-45852380D01*
X170061904Y-45852380D01*
X170395238Y-45852380D02*
X170395238Y-45185714D01*
X170395238Y-44852380D02*
X170347619Y-44900000D01*
X170395238Y-44947619D01*
X170442857Y-44900000D01*
X170395238Y-44852380D01*
X170395238Y-44947619D01*
X170728571Y-45185714D02*
X171109523Y-45185714D01*
X170871428Y-45852380D02*
X170871428Y-44995238D01*
X170919047Y-44900000D01*
X171014285Y-44852380D01*
X171109523Y-44852380D01*
X171300000Y-45185714D02*
X171680952Y-45185714D01*
X171442857Y-45852380D02*
X171442857Y-44995238D01*
X171490476Y-44900000D01*
X171585714Y-44852380D01*
X171680952Y-44852380D01*
X172395238Y-45804761D02*
X172300000Y-45852380D01*
X172109523Y-45852380D01*
X172014285Y-45804761D01*
X171966666Y-45709523D01*
X171966666Y-45328571D01*
X172014285Y-45233333D01*
X172109523Y-45185714D01*
X172300000Y-45185714D01*
X172395238Y-45233333D01*
X172442857Y-45328571D01*
X172442857Y-45423809D01*
X171966666Y-45519047D01*
X172871428Y-45185714D02*
X172871428Y-45852380D01*
X172871428Y-45280952D02*
X172919047Y-45233333D01*
X173014285Y-45185714D01*
X173157142Y-45185714D01*
X173252380Y-45233333D01*
X173300000Y-45328571D01*
X173300000Y-45852380D01*
X174157142Y-45804761D02*
X174061904Y-45852380D01*
X173871428Y-45852380D01*
X173776190Y-45804761D01*
X173728571Y-45709523D01*
X173728571Y-45328571D01*
X173776190Y-45233333D01*
X173871428Y-45185714D01*
X174061904Y-45185714D01*
X174157142Y-45233333D01*
X174204761Y-45328571D01*
X174204761Y-45423809D01*
X173728571Y-45519047D01*
X174633333Y-45852380D02*
X174633333Y-45185714D01*
X174633333Y-45376190D02*
X174680952Y-45280952D01*
X174728571Y-45233333D01*
X174823809Y-45185714D01*
X174919047Y-45185714D01*
X176300000Y-46233333D02*
X176252380Y-46185714D01*
X176157142Y-46042857D01*
X176109523Y-45947619D01*
X176061904Y-45804761D01*
X176014285Y-45566666D01*
X176014285Y-45376190D01*
X176061904Y-45138095D01*
X176109523Y-44995238D01*
X176157142Y-44900000D01*
X176252380Y-44757142D01*
X176300000Y-44709523D01*
X177014285Y-45328571D02*
X176680952Y-45328571D01*
X176680952Y-45852380D02*
X176680952Y-44852380D01*
X177157142Y-44852380D01*
X178109523Y-45852380D02*
X177776190Y-45376190D01*
X177538095Y-45852380D02*
X177538095Y-44852380D01*
X177919047Y-44852380D01*
X178014285Y-44900000D01*
X178061904Y-44947619D01*
X178109523Y-45042857D01*
X178109523Y-45185714D01*
X178061904Y-45280952D01*
X178014285Y-45328571D01*
X177919047Y-45376190D01*
X177538095Y-45376190D01*
X178966666Y-45185714D02*
X178966666Y-45852380D01*
X178728571Y-44804761D02*
X178490476Y-45519047D01*
X179109523Y-45519047D01*
X179538095Y-45804761D02*
X179538095Y-45852380D01*
X179490476Y-45947619D01*
X179442857Y-45995238D01*
X180919047Y-44852380D02*
X181014285Y-44852380D01*
X181109523Y-44900000D01*
X181157142Y-44947619D01*
X181204761Y-45042857D01*
X181252380Y-45233333D01*
X181252380Y-45471428D01*
X181204761Y-45661904D01*
X181157142Y-45757142D01*
X181109523Y-45804761D01*
X181014285Y-45852380D01*
X180919047Y-45852380D01*
X180823809Y-45804761D01*
X180776190Y-45757142D01*
X180728571Y-45661904D01*
X180680952Y-45471428D01*
X180680952Y-45233333D01*
X180728571Y-45042857D01*
X180776190Y-44947619D01*
X180823809Y-44900000D01*
X180919047Y-44852380D01*
X181680952Y-45757142D02*
X181728571Y-45804761D01*
X181680952Y-45852380D01*
X181633333Y-45804761D01*
X181680952Y-45757142D01*
X181680952Y-45852380D01*
X182061904Y-44852380D02*
X182680952Y-44852380D01*
X182347619Y-45233333D01*
X182490476Y-45233333D01*
X182585714Y-45280952D01*
X182633333Y-45328571D01*
X182680952Y-45423809D01*
X182680952Y-45661904D01*
X182633333Y-45757142D01*
X182585714Y-45804761D01*
X182490476Y-45852380D01*
X182204761Y-45852380D01*
X182109523Y-45804761D01*
X182061904Y-45757142D01*
X183871428Y-45852380D02*
X183871428Y-45185714D01*
X183871428Y-45280952D02*
X183919047Y-45233333D01*
X184014285Y-45185714D01*
X184157142Y-45185714D01*
X184252380Y-45233333D01*
X184300000Y-45328571D01*
X184300000Y-45852380D01*
X184300000Y-45328571D02*
X184347619Y-45233333D01*
X184442857Y-45185714D01*
X184585714Y-45185714D01*
X184680952Y-45233333D01*
X184728571Y-45328571D01*
X184728571Y-45852380D01*
X185204761Y-45852380D02*
X185204761Y-45185714D01*
X185204761Y-45280952D02*
X185252380Y-45233333D01*
X185347619Y-45185714D01*
X185490476Y-45185714D01*
X185585714Y-45233333D01*
X185633333Y-45328571D01*
X185633333Y-45852380D01*
X185633333Y-45328571D02*
X185680952Y-45233333D01*
X185776190Y-45185714D01*
X185919047Y-45185714D01*
X186014285Y-45233333D01*
X186061904Y-45328571D01*
X186061904Y-45852380D01*
X186442857Y-46233333D02*
X186490476Y-46185714D01*
X186585714Y-46042857D01*
X186633333Y-45947619D01*
X186680952Y-45804761D01*
X186728571Y-45566666D01*
X186728571Y-45376190D01*
X186680952Y-45138095D01*
X186633333Y-44995238D01*
X186585714Y-44900000D01*
X186490476Y-44757142D01*
X186442857Y-44709523D01*
X137823809Y-45504761D02*
X137966666Y-45552380D01*
X138204761Y-45552380D01*
X138300000Y-45504761D01*
X138347619Y-45457142D01*
X138395238Y-45361904D01*
X138395238Y-45266666D01*
X138347619Y-45171428D01*
X138300000Y-45123809D01*
X138204761Y-45076190D01*
X138014285Y-45028571D01*
X137919047Y-44980952D01*
X137871428Y-44933333D01*
X137823809Y-44838095D01*
X137823809Y-44742857D01*
X137871428Y-44647619D01*
X137919047Y-44600000D01*
X138014285Y-44552380D01*
X138252380Y-44552380D01*
X138395238Y-44600000D01*
X138680952Y-44885714D02*
X139061904Y-44885714D01*
X138823809Y-44552380D02*
X138823809Y-45409523D01*
X138871428Y-45504761D01*
X138966666Y-45552380D01*
X139061904Y-45552380D01*
X139395238Y-45552380D02*
X139395238Y-44885714D01*
X139395238Y-44552380D02*
X139347619Y-44600000D01*
X139395238Y-44647619D01*
X139442857Y-44600000D01*
X139395238Y-44552380D01*
X139395238Y-44647619D01*
X139728571Y-44885714D02*
X140109523Y-44885714D01*
X139871428Y-45552380D02*
X139871428Y-44695238D01*
X139919047Y-44600000D01*
X140014285Y-44552380D01*
X140109523Y-44552380D01*
X140300000Y-44885714D02*
X140680952Y-44885714D01*
X140442857Y-45552380D02*
X140442857Y-44695238D01*
X140490476Y-44600000D01*
X140585714Y-44552380D01*
X140680952Y-44552380D01*
X141395238Y-45504761D02*
X141300000Y-45552380D01*
X141109523Y-45552380D01*
X141014285Y-45504761D01*
X140966666Y-45409523D01*
X140966666Y-45028571D01*
X141014285Y-44933333D01*
X141109523Y-44885714D01*
X141300000Y-44885714D01*
X141395238Y-44933333D01*
X141442857Y-45028571D01*
X141442857Y-45123809D01*
X140966666Y-45219047D01*
X141871428Y-44885714D02*
X141871428Y-45552380D01*
X141871428Y-44980952D02*
X141919047Y-44933333D01*
X142014285Y-44885714D01*
X142157142Y-44885714D01*
X142252380Y-44933333D01*
X142300000Y-45028571D01*
X142300000Y-45552380D01*
X143157142Y-45504761D02*
X143061904Y-45552380D01*
X142871428Y-45552380D01*
X142776190Y-45504761D01*
X142728571Y-45409523D01*
X142728571Y-45028571D01*
X142776190Y-44933333D01*
X142871428Y-44885714D01*
X143061904Y-44885714D01*
X143157142Y-44933333D01*
X143204761Y-45028571D01*
X143204761Y-45123809D01*
X142728571Y-45219047D01*
X143633333Y-45552380D02*
X143633333Y-44885714D01*
X143633333Y-45076190D02*
X143680952Y-44980952D01*
X143728571Y-44933333D01*
X143823809Y-44885714D01*
X143919047Y-44885714D01*
X145300000Y-45933333D02*
X145252380Y-45885714D01*
X145157142Y-45742857D01*
X145109523Y-45647619D01*
X145061904Y-45504761D01*
X145014285Y-45266666D01*
X145014285Y-45076190D01*
X145061904Y-44838095D01*
X145109523Y-44695238D01*
X145157142Y-44600000D01*
X145252380Y-44457142D01*
X145300000Y-44409523D01*
X146014285Y-45028571D02*
X145680952Y-45028571D01*
X145680952Y-45552380D02*
X145680952Y-44552380D01*
X146157142Y-44552380D01*
X147109523Y-45552380D02*
X146776190Y-45076190D01*
X146538095Y-45552380D02*
X146538095Y-44552380D01*
X146919047Y-44552380D01*
X147014285Y-44600000D01*
X147061904Y-44647619D01*
X147109523Y-44742857D01*
X147109523Y-44885714D01*
X147061904Y-44980952D01*
X147014285Y-45028571D01*
X146919047Y-45076190D01*
X146538095Y-45076190D01*
X147966666Y-44885714D02*
X147966666Y-45552380D01*
X147728571Y-44504761D02*
X147490476Y-45219047D01*
X148109523Y-45219047D01*
X148538095Y-45504761D02*
X148538095Y-45552380D01*
X148490476Y-45647619D01*
X148442857Y-45695238D01*
X149919047Y-44552380D02*
X150014285Y-44552380D01*
X150109523Y-44600000D01*
X150157142Y-44647619D01*
X150204761Y-44742857D01*
X150252380Y-44933333D01*
X150252380Y-45171428D01*
X150204761Y-45361904D01*
X150157142Y-45457142D01*
X150109523Y-45504761D01*
X150014285Y-45552380D01*
X149919047Y-45552380D01*
X149823809Y-45504761D01*
X149776190Y-45457142D01*
X149728571Y-45361904D01*
X149680952Y-45171428D01*
X149680952Y-44933333D01*
X149728571Y-44742857D01*
X149776190Y-44647619D01*
X149823809Y-44600000D01*
X149919047Y-44552380D01*
X150680952Y-45457142D02*
X150728571Y-45504761D01*
X150680952Y-45552380D01*
X150633333Y-45504761D01*
X150680952Y-45457142D01*
X150680952Y-45552380D01*
X151061904Y-44552380D02*
X151680952Y-44552380D01*
X151347619Y-44933333D01*
X151490476Y-44933333D01*
X151585714Y-44980952D01*
X151633333Y-45028571D01*
X151680952Y-45123809D01*
X151680952Y-45361904D01*
X151633333Y-45457142D01*
X151585714Y-45504761D01*
X151490476Y-45552380D01*
X151204761Y-45552380D01*
X151109523Y-45504761D01*
X151061904Y-45457142D01*
X152871428Y-45552380D02*
X152871428Y-44885714D01*
X152871428Y-44980952D02*
X152919047Y-44933333D01*
X153014285Y-44885714D01*
X153157142Y-44885714D01*
X153252380Y-44933333D01*
X153300000Y-45028571D01*
X153300000Y-45552380D01*
X153300000Y-45028571D02*
X153347619Y-44933333D01*
X153442857Y-44885714D01*
X153585714Y-44885714D01*
X153680952Y-44933333D01*
X153728571Y-45028571D01*
X153728571Y-45552380D01*
X154204761Y-45552380D02*
X154204761Y-44885714D01*
X154204761Y-44980952D02*
X154252380Y-44933333D01*
X154347619Y-44885714D01*
X154490476Y-44885714D01*
X154585714Y-44933333D01*
X154633333Y-45028571D01*
X154633333Y-45552380D01*
X154633333Y-45028571D02*
X154680952Y-44933333D01*
X154776190Y-44885714D01*
X154919047Y-44885714D01*
X155014285Y-44933333D01*
X155061904Y-45028571D01*
X155061904Y-45552380D01*
X155442857Y-45933333D02*
X155490476Y-45885714D01*
X155585714Y-45742857D01*
X155633333Y-45647619D01*
X155680952Y-45504761D01*
X155728571Y-45266666D01*
X155728571Y-45076190D01*
X155680952Y-44838095D01*
X155633333Y-44695238D01*
X155585714Y-44600000D01*
X155490476Y-44457142D01*
X155442857Y-44409523D01*
D11*
X168200000Y-42200000D02*
X187200000Y-42200000D01*
X187200000Y-42200000D02*
X187200000Y-48200000D01*
X187200000Y-48200000D02*
X168200000Y-48200000D01*
X168200000Y-48200000D02*
X168200000Y-42200000D01*
X137200000Y-42200000D02*
X156200000Y-42200000D01*
X156200000Y-42200000D02*
X156200000Y-48200000D01*
X156200000Y-48200000D02*
X137200000Y-48200000D01*
X137200000Y-48200000D02*
X137200000Y-42200000D01*
X106730000Y-42185864D02*
X125730000Y-42185864D01*
X125730000Y-42185864D02*
X125730000Y-48185864D01*
X125730000Y-48185864D02*
X106730000Y-48185864D01*
X106730000Y-48185864D02*
X106730000Y-42185864D01*
D10*
X107123809Y-45404761D02*
X107266666Y-45452380D01*
X107504761Y-45452380D01*
X107600000Y-45404761D01*
X107647619Y-45357142D01*
X107695238Y-45261904D01*
X107695238Y-45166666D01*
X107647619Y-45071428D01*
X107600000Y-45023809D01*
X107504761Y-44976190D01*
X107314285Y-44928571D01*
X107219047Y-44880952D01*
X107171428Y-44833333D01*
X107123809Y-44738095D01*
X107123809Y-44642857D01*
X107171428Y-44547619D01*
X107219047Y-44500000D01*
X107314285Y-44452380D01*
X107552380Y-44452380D01*
X107695238Y-44500000D01*
X107980952Y-44785714D02*
X108361904Y-44785714D01*
X108123809Y-44452380D02*
X108123809Y-45309523D01*
X108171428Y-45404761D01*
X108266666Y-45452380D01*
X108361904Y-45452380D01*
X108695238Y-45452380D02*
X108695238Y-44785714D01*
X108695238Y-44452380D02*
X108647619Y-44500000D01*
X108695238Y-44547619D01*
X108742857Y-44500000D01*
X108695238Y-44452380D01*
X108695238Y-44547619D01*
X109028571Y-44785714D02*
X109409523Y-44785714D01*
X109171428Y-45452380D02*
X109171428Y-44595238D01*
X109219047Y-44500000D01*
X109314285Y-44452380D01*
X109409523Y-44452380D01*
X109600000Y-44785714D02*
X109980952Y-44785714D01*
X109742857Y-45452380D02*
X109742857Y-44595238D01*
X109790476Y-44500000D01*
X109885714Y-44452380D01*
X109980952Y-44452380D01*
X110695238Y-45404761D02*
X110600000Y-45452380D01*
X110409523Y-45452380D01*
X110314285Y-45404761D01*
X110266666Y-45309523D01*
X110266666Y-44928571D01*
X110314285Y-44833333D01*
X110409523Y-44785714D01*
X110600000Y-44785714D01*
X110695238Y-44833333D01*
X110742857Y-44928571D01*
X110742857Y-45023809D01*
X110266666Y-45119047D01*
X111171428Y-44785714D02*
X111171428Y-45452380D01*
X111171428Y-44880952D02*
X111219047Y-44833333D01*
X111314285Y-44785714D01*
X111457142Y-44785714D01*
X111552380Y-44833333D01*
X111600000Y-44928571D01*
X111600000Y-45452380D01*
X112457142Y-45404761D02*
X112361904Y-45452380D01*
X112171428Y-45452380D01*
X112076190Y-45404761D01*
X112028571Y-45309523D01*
X112028571Y-44928571D01*
X112076190Y-44833333D01*
X112171428Y-44785714D01*
X112361904Y-44785714D01*
X112457142Y-44833333D01*
X112504761Y-44928571D01*
X112504761Y-45023809D01*
X112028571Y-45119047D01*
X112933333Y-45452380D02*
X112933333Y-44785714D01*
X112933333Y-44976190D02*
X112980952Y-44880952D01*
X113028571Y-44833333D01*
X113123809Y-44785714D01*
X113219047Y-44785714D01*
X114600000Y-45833333D02*
X114552380Y-45785714D01*
X114457142Y-45642857D01*
X114409523Y-45547619D01*
X114361904Y-45404761D01*
X114314285Y-45166666D01*
X114314285Y-44976190D01*
X114361904Y-44738095D01*
X114409523Y-44595238D01*
X114457142Y-44500000D01*
X114552380Y-44357142D01*
X114600000Y-44309523D01*
X115314285Y-44928571D02*
X114980952Y-44928571D01*
X114980952Y-45452380D02*
X114980952Y-44452380D01*
X115457142Y-44452380D01*
X116409523Y-45452380D02*
X116076190Y-44976190D01*
X115838095Y-45452380D02*
X115838095Y-44452380D01*
X116219047Y-44452380D01*
X116314285Y-44500000D01*
X116361904Y-44547619D01*
X116409523Y-44642857D01*
X116409523Y-44785714D01*
X116361904Y-44880952D01*
X116314285Y-44928571D01*
X116219047Y-44976190D01*
X115838095Y-44976190D01*
X117266666Y-44785714D02*
X117266666Y-45452380D01*
X117028571Y-44404761D02*
X116790476Y-45119047D01*
X117409523Y-45119047D01*
X117838095Y-45404761D02*
X117838095Y-45452380D01*
X117790476Y-45547619D01*
X117742857Y-45595238D01*
X119219047Y-44452380D02*
X119314285Y-44452380D01*
X119409523Y-44500000D01*
X119457142Y-44547619D01*
X119504761Y-44642857D01*
X119552380Y-44833333D01*
X119552380Y-45071428D01*
X119504761Y-45261904D01*
X119457142Y-45357142D01*
X119409523Y-45404761D01*
X119314285Y-45452380D01*
X119219047Y-45452380D01*
X119123809Y-45404761D01*
X119076190Y-45357142D01*
X119028571Y-45261904D01*
X118980952Y-45071428D01*
X118980952Y-44833333D01*
X119028571Y-44642857D01*
X119076190Y-44547619D01*
X119123809Y-44500000D01*
X119219047Y-44452380D01*
X119980952Y-45357142D02*
X120028571Y-45404761D01*
X119980952Y-45452380D01*
X119933333Y-45404761D01*
X119980952Y-45357142D01*
X119980952Y-45452380D01*
X120361904Y-44452380D02*
X120980952Y-44452380D01*
X120647619Y-44833333D01*
X120790476Y-44833333D01*
X120885714Y-44880952D01*
X120933333Y-44928571D01*
X120980952Y-45023809D01*
X120980952Y-45261904D01*
X120933333Y-45357142D01*
X120885714Y-45404761D01*
X120790476Y-45452380D01*
X120504761Y-45452380D01*
X120409523Y-45404761D01*
X120361904Y-45357142D01*
X122171428Y-45452380D02*
X122171428Y-44785714D01*
X122171428Y-44880952D02*
X122219047Y-44833333D01*
X122314285Y-44785714D01*
X122457142Y-44785714D01*
X122552380Y-44833333D01*
X122599999Y-44928571D01*
X122599999Y-45452380D01*
X122599999Y-44928571D02*
X122647619Y-44833333D01*
X122742857Y-44785714D01*
X122885714Y-44785714D01*
X122980952Y-44833333D01*
X123028571Y-44928571D01*
X123028571Y-45452380D01*
X123504761Y-45452380D02*
X123504761Y-44785714D01*
X123504761Y-44880952D02*
X123552380Y-44833333D01*
X123647619Y-44785714D01*
X123790476Y-44785714D01*
X123885714Y-44833333D01*
X123933333Y-44928571D01*
X123933333Y-45452380D01*
X123933333Y-44928571D02*
X123980952Y-44833333D01*
X124076190Y-44785714D01*
X124219047Y-44785714D01*
X124314285Y-44833333D01*
X124361904Y-44928571D01*
X124361904Y-45452380D01*
X124742857Y-45833333D02*
X124790476Y-45785714D01*
X124885714Y-45642857D01*
X124933333Y-45547619D01*
X124980952Y-45404761D01*
X125028571Y-45166666D01*
X125028571Y-44976190D01*
X124980952Y-44738095D01*
X124933333Y-44595238D01*
X124885714Y-44500000D01*
X124790476Y-44357142D01*
X124742857Y-44309523D01*
%TO.C,J1*%
X178068333Y-92520744D02*
X178068333Y-93235030D01*
X178115952Y-93377887D01*
X178211190Y-93473125D01*
X178354047Y-93520744D01*
X178449285Y-93520744D01*
X177068333Y-93520744D02*
X177639761Y-93520744D01*
X177354047Y-93520744D02*
X177354047Y-92520744D01*
X177449285Y-92663602D01*
X177544523Y-92758840D01*
X177639761Y-92806459D01*
X147068333Y-116970745D02*
X147068333Y-117685031D01*
X147115952Y-117827888D01*
X147211190Y-117923126D01*
X147354047Y-117970745D01*
X147449285Y-117970745D01*
X146068333Y-117970745D02*
X146639761Y-117970745D01*
X146354047Y-117970745D02*
X146354047Y-116970745D01*
X146449285Y-117113603D01*
X146544523Y-117208841D01*
X146639761Y-117256460D01*
X116568333Y-141780256D02*
X116568333Y-142494542D01*
X116615952Y-142637399D01*
X116711190Y-142732637D01*
X116854047Y-142780256D01*
X116949285Y-142780256D01*
X115568333Y-142780256D02*
X116139761Y-142780256D01*
X115854047Y-142780256D02*
X115854047Y-141780256D01*
X115949285Y-141923114D01*
X116044523Y-142018352D01*
X116139761Y-142065971D01*
%TD*%
M02*
