%TF.GenerationSoftware,KiCad,Pcbnew,(6.0.0)*%
%TF.CreationDate,2022-03-28T07:33:37-07:00*%
%TF.ProjectId,flex-24_panel,666c6578-2d32-4345-9f70-616e656c2e6b,A*%
%TF.SameCoordinates,Original*%
%TF.FileFunction,Soldermask,Top*%
%TF.FilePolarity,Negative*%
%FSLAX46Y46*%
G04 Gerber Fmt 4.6, Leading zero omitted, Abs format (unit mm)*
G04 Created by KiCad (PCBNEW (6.0.0)) date 2022-03-28 07:33:37*
%MOMM*%
%LPD*%
G01*
G04 APERTURE LIST*
%ADD10C,0.360000*%
%ADD11C,0.550000*%
%ADD12C,3.200000*%
G04 APERTURE END LIST*
%TO.C,J2*%
G36*
X183030000Y-43995864D02*
G01*
X182830000Y-43995864D01*
X182830000Y-43295864D01*
X183030000Y-43295864D01*
X183030000Y-43995864D01*
G37*
G36*
X176830000Y-46375864D02*
G01*
X177030000Y-46375864D01*
X177030000Y-47075864D01*
X176830000Y-47075864D01*
X176830000Y-46375864D01*
G37*
G36*
X184030000Y-46375864D02*
G01*
X184230000Y-46375864D01*
X184230000Y-47075864D01*
X184030000Y-47075864D01*
X184030000Y-46375864D01*
G37*
G36*
X174630000Y-43995864D02*
G01*
X174430000Y-43995864D01*
X174430000Y-43295864D01*
X174630000Y-43295864D01*
X174630000Y-43995864D01*
G37*
G36*
X172830000Y-46375864D02*
G01*
X173030000Y-46375864D01*
X173030000Y-47075864D01*
X172830000Y-47075864D01*
X172830000Y-46375864D01*
G37*
G36*
X182430000Y-46375864D02*
G01*
X182630000Y-46375864D01*
X182630000Y-47075864D01*
X182430000Y-47075864D01*
X182430000Y-46375864D01*
G37*
G36*
X182630000Y-43995864D02*
G01*
X182430000Y-43995864D01*
X182430000Y-43295864D01*
X182630000Y-43295864D01*
X182630000Y-43995864D01*
G37*
G36*
X178830000Y-46375864D02*
G01*
X179030000Y-46375864D01*
X179030000Y-47075864D01*
X178830000Y-47075864D01*
X178830000Y-46375864D01*
G37*
G36*
X181230000Y-46375864D02*
G01*
X181430000Y-46375864D01*
X181430000Y-47075864D01*
X181230000Y-47075864D01*
X181230000Y-46375864D01*
G37*
G36*
X171830000Y-43995864D02*
G01*
X171630000Y-43995864D01*
X171630000Y-43295864D01*
X171830000Y-43295864D01*
X171830000Y-43995864D01*
G37*
G36*
X172430000Y-46375864D02*
G01*
X172630000Y-46375864D01*
X172630000Y-47075864D01*
X172430000Y-47075864D01*
X172430000Y-46375864D01*
G37*
G36*
X177630000Y-46375864D02*
G01*
X177830000Y-46375864D01*
X177830000Y-47075864D01*
X177630000Y-47075864D01*
X177630000Y-46375864D01*
G37*
G36*
X176230000Y-43995864D02*
G01*
X176030000Y-43995864D01*
X176030000Y-43295864D01*
X176230000Y-43295864D01*
X176230000Y-43995864D01*
G37*
G36*
X183230000Y-46375864D02*
G01*
X183430000Y-46375864D01*
X183430000Y-47075864D01*
X183230000Y-47075864D01*
X183230000Y-46375864D01*
G37*
G36*
X183430000Y-43995864D02*
G01*
X183230000Y-43995864D01*
X183230000Y-43295864D01*
X183430000Y-43295864D01*
X183430000Y-43995864D01*
G37*
G36*
X180030000Y-46375864D02*
G01*
X180230000Y-46375864D01*
X180230000Y-47075864D01*
X180030000Y-47075864D01*
X180030000Y-46375864D01*
G37*
G36*
X175030000Y-43995864D02*
G01*
X174830000Y-43995864D01*
X174830000Y-43295864D01*
X175030000Y-43295864D01*
X175030000Y-43995864D01*
G37*
G36*
X178430000Y-46375864D02*
G01*
X178630000Y-46375864D01*
X178630000Y-47075864D01*
X178430000Y-47075864D01*
X178430000Y-46375864D01*
G37*
G36*
X173830000Y-43995864D02*
G01*
X173630000Y-43995864D01*
X173630000Y-43295864D01*
X173830000Y-43295864D01*
X173830000Y-43995864D01*
G37*
G36*
X173630000Y-46375864D02*
G01*
X173830000Y-46375864D01*
X173830000Y-47075864D01*
X173630000Y-47075864D01*
X173630000Y-46375864D01*
G37*
G36*
X183830000Y-43995864D02*
G01*
X183630000Y-43995864D01*
X183630000Y-43295864D01*
X183830000Y-43295864D01*
X183830000Y-43995864D01*
G37*
G36*
X174230000Y-43995864D02*
G01*
X174030000Y-43995864D01*
X174030000Y-43295864D01*
X174230000Y-43295864D01*
X174230000Y-43995864D01*
G37*
G36*
X183630000Y-46375864D02*
G01*
X183830000Y-46375864D01*
X183830000Y-47075864D01*
X183630000Y-47075864D01*
X183630000Y-46375864D01*
G37*
G36*
X178030000Y-46375864D02*
G01*
X178230000Y-46375864D01*
X178230000Y-47075864D01*
X178030000Y-47075864D01*
X178030000Y-46375864D01*
G37*
G36*
X175830000Y-43995864D02*
G01*
X175630000Y-43995864D01*
X175630000Y-43295864D01*
X175830000Y-43295864D01*
X175830000Y-43995864D01*
G37*
G36*
X179630000Y-46375864D02*
G01*
X179830000Y-46375864D01*
X179830000Y-47075864D01*
X179630000Y-47075864D01*
X179630000Y-46375864D01*
G37*
G36*
X173430000Y-43995864D02*
G01*
X173230000Y-43995864D01*
X173230000Y-43295864D01*
X173430000Y-43295864D01*
X173430000Y-43995864D01*
G37*
G36*
X181830000Y-43995864D02*
G01*
X181630000Y-43995864D01*
X181630000Y-43295864D01*
X181830000Y-43295864D01*
X181830000Y-43995864D01*
G37*
G36*
X181630000Y-46375864D02*
G01*
X181830000Y-46375864D01*
X181830000Y-47075864D01*
X181630000Y-47075864D01*
X181630000Y-46375864D01*
G37*
G36*
X175630000Y-46375864D02*
G01*
X175830000Y-46375864D01*
X175830000Y-47075864D01*
X175630000Y-47075864D01*
X175630000Y-46375864D01*
G37*
G36*
X171030000Y-43995864D02*
G01*
X170830000Y-43995864D01*
X170830000Y-43295864D01*
X171030000Y-43295864D01*
X171030000Y-43995864D01*
G37*
G36*
X179030000Y-43995864D02*
G01*
X178830000Y-43995864D01*
X178830000Y-43295864D01*
X179030000Y-43295864D01*
X179030000Y-43995864D01*
G37*
G36*
X175230000Y-46375864D02*
G01*
X175430000Y-46375864D01*
X175430000Y-47075864D01*
X175230000Y-47075864D01*
X175230000Y-46375864D01*
G37*
G36*
X172030000Y-46375864D02*
G01*
X172230000Y-46375864D01*
X172230000Y-47075864D01*
X172030000Y-47075864D01*
X172030000Y-46375864D01*
G37*
G36*
X174830000Y-46375864D02*
G01*
X175030000Y-46375864D01*
X175030000Y-47075864D01*
X174830000Y-47075864D01*
X174830000Y-46375864D01*
G37*
G36*
X180430000Y-46375864D02*
G01*
X180630000Y-46375864D01*
X180630000Y-47075864D01*
X180430000Y-47075864D01*
X180430000Y-46375864D01*
G37*
G36*
X184630000Y-43995864D02*
G01*
X184430000Y-43995864D01*
X184430000Y-43295864D01*
X184630000Y-43295864D01*
X184630000Y-43995864D01*
G37*
G36*
X177430000Y-43995864D02*
G01*
X177230000Y-43995864D01*
X177230000Y-43295864D01*
X177430000Y-43295864D01*
X177430000Y-43995864D01*
G37*
G36*
X178630000Y-43995864D02*
G01*
X178430000Y-43995864D01*
X178430000Y-43295864D01*
X178630000Y-43295864D01*
X178630000Y-43995864D01*
G37*
G36*
X176630000Y-43995864D02*
G01*
X176430000Y-43995864D01*
X176430000Y-43295864D01*
X176630000Y-43295864D01*
X176630000Y-43995864D01*
G37*
G36*
X171230000Y-46375864D02*
G01*
X171430000Y-46375864D01*
X171430000Y-47075864D01*
X171230000Y-47075864D01*
X171230000Y-46375864D01*
G37*
G36*
X181430000Y-43995864D02*
G01*
X181230000Y-43995864D01*
X181230000Y-43295864D01*
X181430000Y-43295864D01*
X181430000Y-43995864D01*
G37*
G36*
X180630000Y-43995864D02*
G01*
X180430000Y-43995864D01*
X180430000Y-43295864D01*
X180630000Y-43295864D01*
X180630000Y-43995864D01*
G37*
G36*
X182830000Y-46375864D02*
G01*
X183030000Y-46375864D01*
X183030000Y-47075864D01*
X182830000Y-47075864D01*
X182830000Y-46375864D01*
G37*
G36*
X179830000Y-43995864D02*
G01*
X179630000Y-43995864D01*
X179630000Y-43295864D01*
X179830000Y-43295864D01*
X179830000Y-43995864D01*
G37*
G36*
X174430000Y-46375864D02*
G01*
X174630000Y-46375864D01*
X174630000Y-47075864D01*
X174430000Y-47075864D01*
X174430000Y-46375864D01*
G37*
G36*
X177230000Y-46375864D02*
G01*
X177430000Y-46375864D01*
X177430000Y-47075864D01*
X177230000Y-47075864D01*
X177230000Y-46375864D01*
G37*
G36*
X175430000Y-43995864D02*
G01*
X175230000Y-43995864D01*
X175230000Y-43295864D01*
X175430000Y-43295864D01*
X175430000Y-43995864D01*
G37*
G36*
X177030000Y-43995864D02*
G01*
X176830000Y-43995864D01*
X176830000Y-43295864D01*
X177030000Y-43295864D01*
X177030000Y-43995864D01*
G37*
G36*
X178230000Y-43995864D02*
G01*
X178030000Y-43995864D01*
X178030000Y-43295864D01*
X178230000Y-43295864D01*
X178230000Y-43995864D01*
G37*
G36*
X182030000Y-46375864D02*
G01*
X182230000Y-46375864D01*
X182230000Y-47075864D01*
X182030000Y-47075864D01*
X182030000Y-46375864D01*
G37*
G36*
X184230000Y-43995864D02*
G01*
X184030000Y-43995864D01*
X184030000Y-43295864D01*
X184230000Y-43295864D01*
X184230000Y-43995864D01*
G37*
G36*
X176430000Y-46375864D02*
G01*
X176630000Y-46375864D01*
X176630000Y-47075864D01*
X176430000Y-47075864D01*
X176430000Y-46375864D01*
G37*
G36*
X180830000Y-46375864D02*
G01*
X181030000Y-46375864D01*
X181030000Y-47075864D01*
X180830000Y-47075864D01*
X180830000Y-46375864D01*
G37*
G36*
X180230000Y-43995864D02*
G01*
X180030000Y-43995864D01*
X180030000Y-43295864D01*
X180230000Y-43295864D01*
X180230000Y-43995864D01*
G37*
G36*
X172630000Y-43995864D02*
G01*
X172430000Y-43995864D01*
X172430000Y-43295864D01*
X172630000Y-43295864D01*
X172630000Y-43995864D01*
G37*
G36*
X179430000Y-43995864D02*
G01*
X179230000Y-43995864D01*
X179230000Y-43295864D01*
X179430000Y-43295864D01*
X179430000Y-43995864D01*
G37*
G36*
X173230000Y-46375864D02*
G01*
X173430000Y-46375864D01*
X173430000Y-47075864D01*
X173230000Y-47075864D01*
X173230000Y-46375864D01*
G37*
G36*
X177830000Y-43995864D02*
G01*
X177630000Y-43995864D01*
X177630000Y-43295864D01*
X177830000Y-43295864D01*
X177830000Y-43995864D01*
G37*
G36*
X174030000Y-46375864D02*
G01*
X174230000Y-46375864D01*
X174230000Y-47075864D01*
X174030000Y-47075864D01*
X174030000Y-46375864D01*
G37*
G36*
X182230000Y-43995864D02*
G01*
X182030000Y-43995864D01*
X182030000Y-43295864D01*
X182230000Y-43295864D01*
X182230000Y-43995864D01*
G37*
G36*
X170830000Y-46375864D02*
G01*
X171030000Y-46375864D01*
X171030000Y-47075864D01*
X170830000Y-47075864D01*
X170830000Y-46375864D01*
G37*
G36*
X179230000Y-46375864D02*
G01*
X179430000Y-46375864D01*
X179430000Y-47075864D01*
X179230000Y-47075864D01*
X179230000Y-46375864D01*
G37*
G36*
X173030000Y-43995864D02*
G01*
X172830000Y-43995864D01*
X172830000Y-43295864D01*
X173030000Y-43295864D01*
X173030000Y-43995864D01*
G37*
G36*
X184430000Y-46375864D02*
G01*
X184630000Y-46375864D01*
X184630000Y-47075864D01*
X184430000Y-47075864D01*
X184430000Y-46375864D01*
G37*
G36*
X176030000Y-46375864D02*
G01*
X176230000Y-46375864D01*
X176230000Y-47075864D01*
X176030000Y-47075864D01*
X176030000Y-46375864D01*
G37*
G36*
X181030000Y-43995864D02*
G01*
X180830000Y-43995864D01*
X180830000Y-43295864D01*
X181030000Y-43295864D01*
X181030000Y-43995864D01*
G37*
G36*
X172230000Y-43995864D02*
G01*
X172030000Y-43995864D01*
X172030000Y-43295864D01*
X172230000Y-43295864D01*
X172230000Y-43995864D01*
G37*
G36*
X171630000Y-46375864D02*
G01*
X171830000Y-46375864D01*
X171830000Y-47075864D01*
X171630000Y-47075864D01*
X171630000Y-46375864D01*
G37*
G36*
X171430000Y-43995864D02*
G01*
X171230000Y-43995864D01*
X171230000Y-43295864D01*
X171430000Y-43295864D01*
X171430000Y-43995864D01*
G37*
%TO.C,G\u002A\u002A\u002A*%
G36*
X161755990Y-141212449D02*
G01*
X161743361Y-141043853D01*
X161730193Y-140867082D01*
X161716619Y-140683944D01*
X161702769Y-140496245D01*
X161688777Y-140305791D01*
X161674774Y-140114389D01*
X161660894Y-139923844D01*
X161647266Y-139735964D01*
X161634025Y-139552554D01*
X161621302Y-139375422D01*
X161609230Y-139206373D01*
X161597939Y-139047215D01*
X161587563Y-138899752D01*
X161578234Y-138765793D01*
X161570083Y-138647142D01*
X161563244Y-138545607D01*
X161557847Y-138462994D01*
X161554026Y-138401110D01*
X161551912Y-138361760D01*
X161551637Y-138346751D01*
X161551678Y-138346668D01*
X161566461Y-138343767D01*
X161604906Y-138339419D01*
X161664521Y-138333798D01*
X161742815Y-138327074D01*
X161837295Y-138319420D01*
X161945468Y-138311009D01*
X162064843Y-138302011D01*
X162192928Y-138292600D01*
X162327230Y-138282948D01*
X162465257Y-138273226D01*
X162604517Y-138263606D01*
X162742517Y-138254262D01*
X162876766Y-138245364D01*
X163004772Y-138237085D01*
X163124042Y-138229597D01*
X163232083Y-138223073D01*
X163326405Y-138217683D01*
X163404514Y-138213601D01*
X163463919Y-138210999D01*
X163502127Y-138210048D01*
X163516646Y-138210920D01*
X163516685Y-138210968D01*
X163518794Y-138225728D01*
X163522648Y-138264985D01*
X163528111Y-138326982D01*
X163535044Y-138409964D01*
X163543309Y-138512173D01*
X163552768Y-138631853D01*
X163563284Y-138767248D01*
X163574719Y-138916601D01*
X163586935Y-139078155D01*
X163599794Y-139250154D01*
X163613158Y-139430842D01*
X163623703Y-139574742D01*
X163637332Y-139760582D01*
X163650537Y-139938856D01*
X163663180Y-140107830D01*
X163675127Y-140265771D01*
X163686243Y-140410946D01*
X163696391Y-140541623D01*
X163705437Y-140656067D01*
X163713245Y-140752547D01*
X163719679Y-140829329D01*
X163724605Y-140884680D01*
X163727886Y-140916868D01*
X163729220Y-140924780D01*
X163731901Y-140912018D01*
X163737883Y-140874848D01*
X163746928Y-140814947D01*
X163758800Y-140733988D01*
X163773260Y-140633646D01*
X163790071Y-140515597D01*
X163808996Y-140381516D01*
X163829798Y-140233078D01*
X163852240Y-140071958D01*
X163876084Y-139899830D01*
X163901093Y-139718370D01*
X163927029Y-139529253D01*
X163929957Y-139507844D01*
X163955959Y-139317899D01*
X163981003Y-139135365D01*
X164004856Y-138961922D01*
X164027283Y-138799252D01*
X164048052Y-138649035D01*
X164066928Y-138512952D01*
X164083679Y-138392683D01*
X164098069Y-138289910D01*
X164109867Y-138206312D01*
X164118838Y-138143572D01*
X164124748Y-138103368D01*
X164127364Y-138087383D01*
X164127440Y-138087176D01*
X164140762Y-138088292D01*
X164178055Y-138092727D01*
X164237216Y-138100202D01*
X164316141Y-138110439D01*
X164412728Y-138123160D01*
X164524872Y-138138086D01*
X164650470Y-138154940D01*
X164787419Y-138173444D01*
X164933616Y-138193319D01*
X165038837Y-138207695D01*
X165190816Y-138228456D01*
X165335469Y-138248134D01*
X165470634Y-138266438D01*
X165594147Y-138283081D01*
X165703844Y-138297772D01*
X165797563Y-138310224D01*
X165873140Y-138320146D01*
X165928411Y-138327250D01*
X165961214Y-138331246D01*
X165969534Y-138332042D01*
X165988643Y-138321618D01*
X165992565Y-138302017D01*
X165992565Y-138271897D01*
X167172888Y-138216289D01*
X167346769Y-138208210D01*
X167513111Y-138200704D01*
X167670038Y-138193841D01*
X167815677Y-138187694D01*
X167948152Y-138182334D01*
X168065588Y-138177833D01*
X168166112Y-138174264D01*
X168247847Y-138171697D01*
X168308920Y-138170205D01*
X168347455Y-138169860D01*
X168361578Y-138170733D01*
X168361580Y-138170735D01*
X168363009Y-138184583D01*
X168365553Y-138222907D01*
X168369126Y-138283915D01*
X168373642Y-138365819D01*
X168379016Y-138466829D01*
X168385162Y-138585154D01*
X168391995Y-138719005D01*
X168399430Y-138866592D01*
X168407381Y-139026126D01*
X168415763Y-139195815D01*
X168424489Y-139373871D01*
X168433476Y-139558504D01*
X168442637Y-139747924D01*
X168451887Y-139940341D01*
X168461140Y-140133964D01*
X168470311Y-140327005D01*
X168479315Y-140517674D01*
X168488066Y-140704180D01*
X168496478Y-140884733D01*
X168504467Y-141057545D01*
X168511946Y-141220825D01*
X168518831Y-141372783D01*
X168525036Y-141511629D01*
X168530475Y-141635574D01*
X168535063Y-141742827D01*
X168538714Y-141831599D01*
X168541344Y-141900101D01*
X168542866Y-141946541D01*
X168543196Y-141969131D01*
X168543005Y-141971081D01*
X168529798Y-141972058D01*
X168492574Y-141974151D01*
X168433610Y-141977250D01*
X168355181Y-141981247D01*
X168259564Y-141986033D01*
X168149035Y-141991500D01*
X168025870Y-141997538D01*
X167892345Y-142004039D01*
X167750736Y-142010895D01*
X167603320Y-142017997D01*
X167452372Y-142025235D01*
X167300168Y-142032502D01*
X167148985Y-142039688D01*
X167001099Y-142046686D01*
X166858786Y-142053385D01*
X166724322Y-142059679D01*
X166599983Y-142065457D01*
X166488045Y-142070611D01*
X166390784Y-142075033D01*
X166310478Y-142078613D01*
X166249400Y-142081244D01*
X166209829Y-142082816D01*
X166194387Y-142083234D01*
X166184875Y-142070441D01*
X166176704Y-142034765D01*
X166171309Y-141987500D01*
X166169351Y-141957753D01*
X166166326Y-141904231D01*
X166162360Y-141829457D01*
X166157577Y-141735950D01*
X166152104Y-141626230D01*
X166146064Y-141502818D01*
X166139585Y-141368234D01*
X166132792Y-141225000D01*
X166125809Y-141075634D01*
X166124050Y-141037668D01*
X166117187Y-140890326D01*
X166110599Y-140750922D01*
X166104394Y-140621649D01*
X166098682Y-140504704D01*
X166093574Y-140402282D01*
X166089180Y-140316577D01*
X166085610Y-140249785D01*
X166082972Y-140204101D01*
X166081379Y-140181720D01*
X166081080Y-140179789D01*
X166078781Y-140191905D01*
X166073244Y-140228044D01*
X166064757Y-140286147D01*
X166053610Y-140364152D01*
X166040092Y-140460000D01*
X166024493Y-140571630D01*
X166007102Y-140696982D01*
X165988208Y-140833996D01*
X165968102Y-140980611D01*
X165951295Y-141103747D01*
X165930325Y-141256958D01*
X165910211Y-141402503D01*
X165891254Y-141538285D01*
X165873755Y-141662209D01*
X165858016Y-141772177D01*
X165844341Y-141866093D01*
X165833029Y-141941863D01*
X165824383Y-141997388D01*
X165818706Y-142030575D01*
X165816521Y-142039615D01*
X165802441Y-142039233D01*
X165764321Y-142035496D01*
X165704194Y-142028659D01*
X165624092Y-142018982D01*
X165526046Y-142006721D01*
X165412090Y-141992135D01*
X165284256Y-141975480D01*
X165144575Y-141957015D01*
X164995080Y-141936996D01*
X164837804Y-141915682D01*
X164824437Y-141913860D01*
X164665975Y-141892294D01*
X164514670Y-141871808D01*
X164372609Y-141852678D01*
X164241881Y-141835180D01*
X164124575Y-141819591D01*
X164022779Y-141806186D01*
X163938582Y-141795242D01*
X163874072Y-141787036D01*
X163831337Y-141781844D01*
X163812467Y-141779941D01*
X163812142Y-141779938D01*
X163795869Y-141782147D01*
X163788394Y-141792640D01*
X163787797Y-141817841D01*
X163790826Y-141851373D01*
X163798169Y-141922525D01*
X163714201Y-141930775D01*
X163669712Y-141934791D01*
X163604839Y-141940147D01*
X163522104Y-141946666D01*
X163424031Y-141954170D01*
X163313139Y-141962480D01*
X163191952Y-141971421D01*
X163062992Y-141980813D01*
X162928780Y-141990480D01*
X162791838Y-142000243D01*
X162654689Y-142009926D01*
X162519854Y-142019350D01*
X162389856Y-142028338D01*
X162267215Y-142036712D01*
X162154455Y-142044295D01*
X162054098Y-142050909D01*
X161968664Y-142056376D01*
X161900677Y-142060519D01*
X161852658Y-142063160D01*
X161827129Y-142064122D01*
X161823593Y-142063926D01*
X161821761Y-142050184D01*
X161818201Y-142012011D01*
X161813045Y-141951212D01*
X161806425Y-141869595D01*
X161798473Y-141768965D01*
X161789322Y-141651129D01*
X161779103Y-141517894D01*
X161773239Y-141440706D01*
X162018546Y-141440706D01*
X162026012Y-141517320D01*
X162050774Y-141588034D01*
X162065651Y-141612884D01*
X162104876Y-141653820D01*
X162162642Y-141695183D01*
X162231571Y-141732817D01*
X162304286Y-141762567D01*
X162357680Y-141777375D01*
X162423698Y-141786437D01*
X162505598Y-141790796D01*
X162593691Y-141790559D01*
X162678289Y-141785832D01*
X162749703Y-141776720D01*
X162768212Y-141772890D01*
X162895988Y-141731465D01*
X163012643Y-141668979D01*
X163122062Y-141583201D01*
X163156451Y-141550201D01*
X163244835Y-141448439D01*
X164110333Y-141448439D01*
X164121087Y-141537697D01*
X164152879Y-141611411D01*
X164191663Y-141657776D01*
X164255330Y-141700125D01*
X164330147Y-141722611D01*
X164408782Y-141724113D01*
X164483906Y-141703511D01*
X164485673Y-141702704D01*
X164526388Y-141679629D01*
X164561266Y-141652911D01*
X164567299Y-141646880D01*
X164582832Y-141629093D01*
X164595969Y-141610749D01*
X164607048Y-141589414D01*
X164616405Y-141562655D01*
X164624377Y-141528038D01*
X164631301Y-141483128D01*
X164637513Y-141425491D01*
X164643351Y-141352695D01*
X164649150Y-141262304D01*
X164655248Y-141151885D01*
X164661982Y-141019003D01*
X164666272Y-140931493D01*
X164694752Y-140346980D01*
X164932389Y-140354442D01*
X165025360Y-140356858D01*
X165097338Y-140357345D01*
X165153594Y-140355676D01*
X165199403Y-140351621D01*
X165240036Y-140344952D01*
X165261786Y-140340158D01*
X165402530Y-140293656D01*
X165531993Y-140224686D01*
X165647822Y-140135542D01*
X165747664Y-140028518D01*
X165829166Y-139905906D01*
X165889975Y-139770001D01*
X165908768Y-139709545D01*
X165918951Y-139658295D01*
X165927974Y-139587107D01*
X165935526Y-139502350D01*
X165941297Y-139410394D01*
X165944977Y-139317609D01*
X165946253Y-139230363D01*
X165944816Y-139155027D01*
X165940354Y-139097969D01*
X165939038Y-139089107D01*
X165902124Y-138943110D01*
X165843107Y-138808482D01*
X165764082Y-138687276D01*
X165738548Y-138659427D01*
X166253810Y-138659427D01*
X166253887Y-138699037D01*
X166254753Y-138748804D01*
X166256450Y-138810141D01*
X166259019Y-138884460D01*
X166262501Y-138973174D01*
X166266939Y-139077694D01*
X166272374Y-139199432D01*
X166278846Y-139339801D01*
X166286398Y-139500213D01*
X166295071Y-139682081D01*
X166304906Y-139886815D01*
X166315945Y-140115830D01*
X166321003Y-140220687D01*
X166332343Y-140454264D01*
X166342629Y-140662782D01*
X166351936Y-140847478D01*
X166360339Y-141009588D01*
X166367911Y-141150349D01*
X166374728Y-141271000D01*
X166380863Y-141372777D01*
X166386392Y-141456918D01*
X166391388Y-141524659D01*
X166395928Y-141577238D01*
X166400083Y-141615892D01*
X166403930Y-141641858D01*
X166407425Y-141656061D01*
X166445259Y-141724052D01*
X166500231Y-141777329D01*
X166567069Y-141813253D01*
X166640500Y-141829189D01*
X166715255Y-141822498D01*
X166730886Y-141817885D01*
X166804598Y-141780373D01*
X166864323Y-141724052D01*
X166890465Y-141684043D01*
X166905000Y-141652050D01*
X166913433Y-141618996D01*
X166916995Y-141576746D01*
X166916920Y-141517168D01*
X166916771Y-141510427D01*
X166915594Y-141473612D01*
X166913296Y-141414098D01*
X166910020Y-141335002D01*
X166905911Y-141239440D01*
X166901115Y-141130528D01*
X166895775Y-141011383D01*
X166890037Y-140885120D01*
X166884045Y-140754857D01*
X166877944Y-140623709D01*
X166871879Y-140494793D01*
X166865994Y-140371225D01*
X166860435Y-140256121D01*
X166855346Y-140152597D01*
X166850871Y-140063770D01*
X166847156Y-139992757D01*
X166844345Y-139942672D01*
X166842959Y-139921277D01*
X166841633Y-139882070D01*
X166843905Y-139857287D01*
X166848121Y-139852261D01*
X166858353Y-139865963D01*
X166877784Y-139897962D01*
X166903448Y-139943212D01*
X166927333Y-139987163D01*
X166946195Y-140022204D01*
X166976343Y-140077822D01*
X167016410Y-140151511D01*
X167065032Y-140240768D01*
X167120841Y-140343087D01*
X167182472Y-140455963D01*
X167248559Y-140576892D01*
X167317736Y-140703370D01*
X167377697Y-140812915D01*
X167447507Y-140940410D01*
X167514689Y-141063111D01*
X167577976Y-141178706D01*
X167636104Y-141284883D01*
X167687807Y-141379331D01*
X167731820Y-141459738D01*
X167766877Y-141523793D01*
X167791713Y-141569184D01*
X167804391Y-141592370D01*
X167858594Y-141671945D01*
X167920651Y-141726439D01*
X167990746Y-141755948D01*
X168069059Y-141760571D01*
X168108445Y-141754244D01*
X168177248Y-141727007D01*
X168238397Y-141680913D01*
X168285029Y-141622159D01*
X168305541Y-141576231D01*
X168307910Y-141564240D01*
X168309608Y-141544924D01*
X168310586Y-141516918D01*
X168310794Y-141478860D01*
X168310182Y-141429386D01*
X168308701Y-141367132D01*
X168306300Y-141290736D01*
X168302931Y-141198834D01*
X168298543Y-141090062D01*
X168293086Y-140963058D01*
X168286512Y-140816457D01*
X168278770Y-140648896D01*
X168269811Y-140459013D01*
X168259584Y-140245443D01*
X168249174Y-140030175D01*
X168237965Y-139799583D01*
X168227907Y-139593809D01*
X168218905Y-139411378D01*
X168210865Y-139250817D01*
X168203691Y-139110651D01*
X168197289Y-138989407D01*
X168191563Y-138885610D01*
X168186419Y-138797787D01*
X168181761Y-138724463D01*
X168177495Y-138664164D01*
X168173525Y-138615417D01*
X168169757Y-138576747D01*
X168166096Y-138546679D01*
X168162446Y-138523741D01*
X168158712Y-138506459D01*
X168154801Y-138493357D01*
X168150616Y-138482962D01*
X168149294Y-138480154D01*
X168104522Y-138415982D01*
X168043553Y-138368767D01*
X167971906Y-138340598D01*
X167895104Y-138333563D01*
X167818666Y-138349749D01*
X167811778Y-138352506D01*
X167744608Y-138390411D01*
X167696642Y-138441340D01*
X167666366Y-138507979D01*
X167652270Y-138593013D01*
X167650803Y-138638464D01*
X167651435Y-138670469D01*
X167653238Y-138725684D01*
X167656072Y-138801034D01*
X167659795Y-138893441D01*
X167664267Y-138999827D01*
X167669347Y-139117116D01*
X167674896Y-139242231D01*
X167680771Y-139372093D01*
X167686834Y-139503626D01*
X167692943Y-139633753D01*
X167698957Y-139759397D01*
X167704736Y-139877480D01*
X167710140Y-139984925D01*
X167715027Y-140078655D01*
X167719258Y-140155592D01*
X167722692Y-140212661D01*
X167722786Y-140214106D01*
X167725924Y-140267490D01*
X167726361Y-140298428D01*
X167723514Y-140310708D01*
X167716798Y-140308121D01*
X167709605Y-140299650D01*
X167705774Y-140294690D01*
X167701764Y-140289144D01*
X167696780Y-140281565D01*
X167690027Y-140270507D01*
X167680710Y-140254522D01*
X167668036Y-140232163D01*
X167651208Y-140201983D01*
X167629433Y-140162534D01*
X167601915Y-140112369D01*
X167567860Y-140050041D01*
X167526473Y-139974102D01*
X167476960Y-139883106D01*
X167418525Y-139775606D01*
X167350374Y-139650153D01*
X167271712Y-139505301D01*
X167181745Y-139339602D01*
X167124214Y-139233640D01*
X167054884Y-139106342D01*
X166988453Y-138985131D01*
X166926110Y-138872129D01*
X166869049Y-138769461D01*
X166818460Y-138679250D01*
X166775533Y-138603620D01*
X166741462Y-138544695D01*
X166717436Y-138504599D01*
X166704647Y-138485454D01*
X166704351Y-138485115D01*
X166658600Y-138446776D01*
X166601770Y-138416567D01*
X166545079Y-138399934D01*
X166525570Y-138398303D01*
X166445601Y-138410252D01*
X166370969Y-138444372D01*
X166308299Y-138496754D01*
X166271889Y-138547951D01*
X166267602Y-138555998D01*
X166263814Y-138564318D01*
X166260566Y-138574322D01*
X166257901Y-138587423D01*
X166255858Y-138605032D01*
X166254481Y-138628563D01*
X166253810Y-138659427D01*
X165738548Y-138659427D01*
X165667142Y-138581547D01*
X165554380Y-138493347D01*
X165427891Y-138424732D01*
X165289769Y-138377755D01*
X165195694Y-138359922D01*
X165130217Y-138352602D01*
X165050610Y-138345883D01*
X164961312Y-138339922D01*
X164866766Y-138334876D01*
X164771413Y-138330902D01*
X164679693Y-138328157D01*
X164596049Y-138326799D01*
X164524921Y-138326984D01*
X164470751Y-138328870D01*
X164437979Y-138332614D01*
X164436218Y-138333051D01*
X164381048Y-138358562D01*
X164327972Y-138401120D01*
X164284660Y-138453109D01*
X164258784Y-138506913D01*
X164257953Y-138510032D01*
X164255863Y-138528758D01*
X164252653Y-138571696D01*
X164248428Y-138636765D01*
X164243294Y-138721883D01*
X164237355Y-138824969D01*
X164230715Y-138943943D01*
X164223478Y-139076722D01*
X164215750Y-139221226D01*
X164207635Y-139375375D01*
X164199237Y-139537086D01*
X164190661Y-139704278D01*
X164182012Y-139874871D01*
X164173393Y-140046783D01*
X164164911Y-140217933D01*
X164156668Y-140386240D01*
X164148771Y-140549623D01*
X164141322Y-140706001D01*
X164134428Y-140853293D01*
X164128192Y-140989417D01*
X164122719Y-141112293D01*
X164118113Y-141219838D01*
X164114479Y-141309973D01*
X164111922Y-141380616D01*
X164110546Y-141429686D01*
X164110333Y-141448439D01*
X163244835Y-141448439D01*
X163260499Y-141430404D01*
X163338911Y-141305237D01*
X163391910Y-141174245D01*
X163419717Y-141036971D01*
X163422590Y-141004206D01*
X163423253Y-140973946D01*
X163422903Y-140920528D01*
X163421625Y-140846262D01*
X163419503Y-140753456D01*
X163416621Y-140644419D01*
X163413065Y-140521459D01*
X163408919Y-140386886D01*
X163404266Y-140243008D01*
X163399193Y-140092134D01*
X163393782Y-139936573D01*
X163388119Y-139778633D01*
X163382289Y-139620624D01*
X163376375Y-139464854D01*
X163370462Y-139313631D01*
X163364635Y-139169265D01*
X163358978Y-139034064D01*
X163353576Y-138910338D01*
X163348512Y-138800394D01*
X163343873Y-138706542D01*
X163339742Y-138631090D01*
X163336203Y-138576348D01*
X163333342Y-138544623D01*
X163332350Y-138538671D01*
X163306676Y-138482148D01*
X163262744Y-138427905D01*
X163208000Y-138383897D01*
X163168929Y-138364079D01*
X163091236Y-138347565D01*
X163014201Y-138354945D01*
X162942964Y-138384179D01*
X162882665Y-138433224D01*
X162841192Y-138494248D01*
X162806934Y-138564269D01*
X162846794Y-139642529D01*
X162854858Y-139860738D01*
X162861979Y-140054215D01*
X162868181Y-140224532D01*
X162873486Y-140373263D01*
X162877918Y-140501978D01*
X162881499Y-140612250D01*
X162884253Y-140705651D01*
X162886202Y-140783753D01*
X162887370Y-140848129D01*
X162887779Y-140900349D01*
X162887453Y-140941987D01*
X162886415Y-140974614D01*
X162884688Y-140999803D01*
X162882294Y-141019125D01*
X162879257Y-141034153D01*
X162875600Y-141046459D01*
X162871346Y-141057614D01*
X162867651Y-141066472D01*
X162843938Y-141107320D01*
X162808565Y-141151317D01*
X162784295Y-141175302D01*
X162705923Y-141228065D01*
X162620199Y-141256735D01*
X162530888Y-141260825D01*
X162441750Y-141239850D01*
X162406604Y-141224137D01*
X162348482Y-141204549D01*
X162281331Y-141197194D01*
X162216167Y-141202364D01*
X162168604Y-141217819D01*
X162116216Y-141254015D01*
X162069443Y-141302143D01*
X162036487Y-141353239D01*
X162030006Y-141369331D01*
X162018546Y-141440706D01*
X161773239Y-141440706D01*
X161767948Y-141371065D01*
X161755990Y-141212449D01*
G37*
G36*
X164968956Y-138876823D02*
G01*
X165059197Y-138883935D01*
X165159324Y-138898534D01*
X165238416Y-138923928D01*
X165300394Y-138962552D01*
X165349182Y-139016843D01*
X165388247Y-139088206D01*
X165399236Y-139114766D01*
X165406704Y-139139699D01*
X165411035Y-139168252D01*
X165412612Y-139205672D01*
X165411819Y-139257206D01*
X165409039Y-139328102D01*
X165407799Y-139355587D01*
X165400571Y-139466705D01*
X165389170Y-139555361D01*
X165372061Y-139625282D01*
X165347711Y-139680192D01*
X165314587Y-139723819D01*
X165271154Y-139759888D01*
X165231500Y-139783891D01*
X165189929Y-139802995D01*
X165143996Y-139816023D01*
X165088893Y-139823480D01*
X165019814Y-139825871D01*
X164931952Y-139823700D01*
X164878277Y-139820995D01*
X164819012Y-139817124D01*
X164770225Y-139812938D01*
X164737425Y-139808974D01*
X164726183Y-139806127D01*
X164725886Y-139792326D01*
X164726795Y-139755626D01*
X164728755Y-139699416D01*
X164731614Y-139627082D01*
X164735219Y-139542014D01*
X164739416Y-139447597D01*
X164744052Y-139347221D01*
X164748975Y-139244273D01*
X164754032Y-139142140D01*
X164759068Y-139044211D01*
X164763932Y-138953873D01*
X164767664Y-138888174D01*
X164781191Y-138878369D01*
X164819801Y-138873201D01*
X164882666Y-138872682D01*
X164968956Y-138876823D01*
G37*
D10*
%TO.C,*%
X183845000Y-142140000D02*
X183705000Y-142340000D01*
X185805000Y-140640000D02*
X185485000Y-140400000D01*
X179085000Y-141340000D02*
X179445000Y-141340000D01*
X178845000Y-140460000D02*
X179685000Y-140460000D01*
X185385000Y-141400000D02*
X185305000Y-141360000D01*
X183705000Y-142340000D02*
X183525000Y-142380000D01*
X183525000Y-142380000D02*
X183425000Y-142380000D01*
X183425000Y-139400000D02*
X184085000Y-141320000D01*
X177285000Y-141340000D02*
X177285000Y-139940000D01*
X186005000Y-141020000D02*
X186005000Y-140920000D01*
X176925000Y-139580000D02*
X176325000Y-139580000D01*
D11*
X179845000Y-138260000D02*
X180445000Y-136260000D01*
D10*
X185145000Y-140080000D02*
X185225000Y-140200000D01*
X180325000Y-139580000D02*
X180325000Y-141340000D01*
D11*
X178645000Y-131860000D02*
X180445000Y-136260000D01*
D10*
X185925000Y-139600000D02*
X185965000Y-139660000D01*
X182605000Y-139580000D02*
X182145000Y-139580000D01*
X185165000Y-141240000D02*
X185165000Y-141200000D01*
X174685000Y-139940000D02*
X174685000Y-140980000D01*
X175285000Y-139580000D02*
X175045000Y-139580000D01*
X173065000Y-139580000D02*
X173065000Y-141340000D01*
X185125000Y-139880000D02*
X185125000Y-139980000D01*
X185225000Y-140200000D02*
X185545000Y-140440000D01*
X175045000Y-141340000D02*
X175405000Y-141340000D01*
X172395000Y-140980000D02*
X172395000Y-139940000D01*
X185305000Y-141360000D02*
X185205000Y-141300000D01*
X186005000Y-140920000D02*
X185985000Y-140820000D01*
X185405000Y-141400000D02*
X185645000Y-141400000D01*
X181285000Y-140980000D02*
X181285000Y-139940000D01*
X184705000Y-139400000D02*
X183865000Y-142100000D01*
X173665000Y-139580000D02*
X173065000Y-139580000D01*
D11*
X179845000Y-138260000D02*
X173645000Y-135660000D01*
D10*
X180925000Y-139580000D02*
X180325000Y-139580000D01*
X179685000Y-139980000D02*
X179685000Y-140460000D01*
D11*
X173645000Y-135660000D02*
X180445000Y-136260000D01*
D10*
X182985000Y-141340000D02*
X182965000Y-139940000D01*
X180325000Y-141360000D02*
X180325000Y-142400000D01*
X172005000Y-141340000D02*
X171815000Y-141340000D01*
X174805000Y-140460000D02*
X175645000Y-140460000D01*
X185825000Y-139540000D02*
X185925000Y-139600000D01*
X180325000Y-141340000D02*
X180925000Y-141340000D01*
X171835000Y-139580000D02*
X172035000Y-139580000D01*
D11*
X176245000Y-133260000D02*
X179845000Y-138260000D01*
D10*
X175645000Y-139980000D02*
X175645000Y-140460000D01*
X185965000Y-139660000D02*
X185965000Y-139700000D01*
X176325000Y-139580000D02*
X176325000Y-141340000D01*
X173065000Y-141360000D02*
X173065000Y-142400000D01*
X185125000Y-139980000D02*
X185145000Y-140080000D01*
D11*
X173645000Y-135660000D02*
X176245000Y-133260000D01*
D10*
X178725000Y-139940000D02*
X178725000Y-140980000D01*
X185745000Y-139500000D02*
X185825000Y-139540000D01*
X185725000Y-139500000D02*
X185485000Y-139500000D01*
X171445000Y-139940000D02*
X171445000Y-140980000D01*
X182005000Y-141320000D02*
X182005000Y-138480000D01*
X185985000Y-140820000D02*
X185805000Y-140640000D01*
X174025000Y-140980000D02*
X174025000Y-139940000D01*
D11*
X179845000Y-138260000D02*
X178645000Y-131860000D01*
D10*
X173065000Y-141340000D02*
X173665000Y-141340000D01*
D11*
X180445000Y-136260000D02*
X176245000Y-133260000D01*
D10*
X179325000Y-139580000D02*
X179085000Y-139580000D01*
X185205000Y-141300000D02*
X185165000Y-141240000D01*
X182965000Y-139940000D02*
G75*
G03*
X182605000Y-139580000I-360002J-2D01*
G01*
X179445000Y-141340000D02*
G75*
G03*
X179585000Y-141200000I0J140000D01*
G01*
X174025000Y-139940000D02*
G75*
G03*
X173665000Y-139580000I-360002J-2D01*
G01*
X180925000Y-141340000D02*
G75*
G03*
X181285000Y-140980000I-2J360002D01*
G01*
X185645000Y-141400000D02*
G75*
G03*
X186005000Y-141040000I-2J360002D01*
G01*
X171445000Y-140980000D02*
G75*
G03*
X171805000Y-141340000I360002J2D01*
G01*
X185485000Y-139500000D02*
G75*
G03*
X185125000Y-139860000I2J-360002D01*
G01*
X172395000Y-139940000D02*
G75*
G03*
X172035000Y-139580000I-360002J-2D01*
G01*
X177285000Y-139940000D02*
G75*
G03*
X176925000Y-139580000I-360002J-2D01*
G01*
X173665000Y-141340000D02*
G75*
G03*
X174025000Y-140980000I-2J360002D01*
G01*
X171805000Y-139580000D02*
G75*
G03*
X171445000Y-139940000I2J-360002D01*
G01*
X181285000Y-139940000D02*
G75*
G03*
X180925000Y-139580000I-360002J-2D01*
G01*
X175645000Y-139940000D02*
G75*
G03*
X175285000Y-139580000I-360002J-2D01*
G01*
X179685000Y-139940000D02*
G75*
G03*
X179325000Y-139580000I-360002J-2D01*
G01*
X179085000Y-139580000D02*
G75*
G03*
X178725000Y-139940000I2J-360002D01*
G01*
X172035000Y-141340000D02*
G75*
G03*
X172395000Y-140980000I-2J360002D01*
G01*
X175045000Y-139580000D02*
G75*
G03*
X174685000Y-139940000I2J-360002D01*
G01*
X178725000Y-140980000D02*
G75*
G03*
X179085000Y-141340000I360002J2D01*
G01*
X175405000Y-141340000D02*
G75*
G03*
X175545000Y-141200000I0J140000D01*
G01*
X174685000Y-140980000D02*
G75*
G03*
X175045000Y-141340000I360002J2D01*
G01*
%TO.C,J2*%
G36*
X118330000Y-43995864D02*
G01*
X118130000Y-43995864D01*
X118130000Y-43295864D01*
X118330000Y-43295864D01*
X118330000Y-43995864D01*
G37*
G36*
X115730000Y-46375864D02*
G01*
X115930000Y-46375864D01*
X115930000Y-47075864D01*
X115730000Y-47075864D01*
X115730000Y-46375864D01*
G37*
G36*
X113330000Y-46375864D02*
G01*
X113530000Y-46375864D01*
X113530000Y-47075864D01*
X113330000Y-47075864D01*
X113330000Y-46375864D01*
G37*
G36*
X115930000Y-43995864D02*
G01*
X115730000Y-43995864D01*
X115730000Y-43295864D01*
X115930000Y-43295864D01*
X115930000Y-43995864D01*
G37*
G36*
X122930000Y-46375864D02*
G01*
X123130000Y-46375864D01*
X123130000Y-47075864D01*
X122930000Y-47075864D01*
X122930000Y-46375864D01*
G37*
G36*
X120530000Y-46375864D02*
G01*
X120730000Y-46375864D01*
X120730000Y-47075864D01*
X120530000Y-47075864D01*
X120530000Y-46375864D01*
G37*
G36*
X113730000Y-46375864D02*
G01*
X113930000Y-46375864D01*
X113930000Y-47075864D01*
X113730000Y-47075864D01*
X113730000Y-46375864D01*
G37*
G36*
X119530000Y-43995864D02*
G01*
X119330000Y-43995864D01*
X119330000Y-43295864D01*
X119530000Y-43295864D01*
X119530000Y-43995864D01*
G37*
G36*
X110130000Y-46375864D02*
G01*
X110330000Y-46375864D01*
X110330000Y-47075864D01*
X110130000Y-47075864D01*
X110130000Y-46375864D01*
G37*
G36*
X119130000Y-43995864D02*
G01*
X118930000Y-43995864D01*
X118930000Y-43295864D01*
X119130000Y-43295864D01*
X119130000Y-43995864D01*
G37*
G36*
X113530000Y-43995864D02*
G01*
X113330000Y-43995864D01*
X113330000Y-43295864D01*
X113530000Y-43295864D01*
X113530000Y-43995864D01*
G37*
G36*
X116530000Y-46375864D02*
G01*
X116730000Y-46375864D01*
X116730000Y-47075864D01*
X116530000Y-47075864D01*
X116530000Y-46375864D01*
G37*
G36*
X116330000Y-43995864D02*
G01*
X116130000Y-43995864D01*
X116130000Y-43295864D01*
X116330000Y-43295864D01*
X116330000Y-43995864D01*
G37*
G36*
X111530000Y-43995864D02*
G01*
X111330000Y-43995864D01*
X111330000Y-43295864D01*
X111530000Y-43295864D01*
X111530000Y-43995864D01*
G37*
G36*
X112730000Y-43995864D02*
G01*
X112530000Y-43995864D01*
X112530000Y-43295864D01*
X112730000Y-43295864D01*
X112730000Y-43995864D01*
G37*
G36*
X109530000Y-43995864D02*
G01*
X109330000Y-43995864D01*
X109330000Y-43295864D01*
X109530000Y-43295864D01*
X109530000Y-43995864D01*
G37*
G36*
X120730000Y-43995864D02*
G01*
X120530000Y-43995864D01*
X120530000Y-43295864D01*
X120730000Y-43295864D01*
X120730000Y-43995864D01*
G37*
G36*
X112330000Y-43995864D02*
G01*
X112130000Y-43995864D01*
X112130000Y-43295864D01*
X112330000Y-43295864D01*
X112330000Y-43995864D01*
G37*
G36*
X118530000Y-46375864D02*
G01*
X118730000Y-46375864D01*
X118730000Y-47075864D01*
X118530000Y-47075864D01*
X118530000Y-46375864D01*
G37*
G36*
X115130000Y-43995864D02*
G01*
X114930000Y-43995864D01*
X114930000Y-43295864D01*
X115130000Y-43295864D01*
X115130000Y-43995864D01*
G37*
G36*
X121130000Y-43995864D02*
G01*
X120930000Y-43995864D01*
X120930000Y-43295864D01*
X121130000Y-43295864D01*
X121130000Y-43995864D01*
G37*
G36*
X114330000Y-43995864D02*
G01*
X114130000Y-43995864D01*
X114130000Y-43295864D01*
X114330000Y-43295864D01*
X114330000Y-43995864D01*
G37*
G36*
X112130000Y-46375864D02*
G01*
X112330000Y-46375864D01*
X112330000Y-47075864D01*
X112130000Y-47075864D01*
X112130000Y-46375864D01*
G37*
G36*
X115330000Y-46375864D02*
G01*
X115530000Y-46375864D01*
X115530000Y-47075864D01*
X115330000Y-47075864D01*
X115330000Y-46375864D01*
G37*
G36*
X118930000Y-46375864D02*
G01*
X119130000Y-46375864D01*
X119130000Y-47075864D01*
X118930000Y-47075864D01*
X118930000Y-46375864D01*
G37*
G36*
X122130000Y-46375864D02*
G01*
X122330000Y-46375864D01*
X122330000Y-47075864D01*
X122130000Y-47075864D01*
X122130000Y-46375864D01*
G37*
G36*
X121330000Y-46375864D02*
G01*
X121530000Y-46375864D01*
X121530000Y-47075864D01*
X121330000Y-47075864D01*
X121330000Y-46375864D01*
G37*
G36*
X116730000Y-43995864D02*
G01*
X116530000Y-43995864D01*
X116530000Y-43295864D01*
X116730000Y-43295864D01*
X116730000Y-43995864D01*
G37*
G36*
X116930000Y-46375864D02*
G01*
X117130000Y-46375864D01*
X117130000Y-47075864D01*
X116930000Y-47075864D01*
X116930000Y-46375864D01*
G37*
G36*
X117330000Y-46375864D02*
G01*
X117530000Y-46375864D01*
X117530000Y-47075864D01*
X117330000Y-47075864D01*
X117330000Y-46375864D01*
G37*
G36*
X109930000Y-43995864D02*
G01*
X109730000Y-43995864D01*
X109730000Y-43295864D01*
X109930000Y-43295864D01*
X109930000Y-43995864D01*
G37*
G36*
X117730000Y-46375864D02*
G01*
X117930000Y-46375864D01*
X117930000Y-47075864D01*
X117730000Y-47075864D01*
X117730000Y-46375864D01*
G37*
G36*
X114730000Y-43995864D02*
G01*
X114530000Y-43995864D01*
X114530000Y-43295864D01*
X114730000Y-43295864D01*
X114730000Y-43995864D01*
G37*
G36*
X111330000Y-46375864D02*
G01*
X111530000Y-46375864D01*
X111530000Y-47075864D01*
X111330000Y-47075864D01*
X111330000Y-46375864D01*
G37*
G36*
X111730000Y-46375864D02*
G01*
X111930000Y-46375864D01*
X111930000Y-47075864D01*
X111730000Y-47075864D01*
X111730000Y-46375864D01*
G37*
G36*
X114930000Y-46375864D02*
G01*
X115130000Y-46375864D01*
X115130000Y-47075864D01*
X114930000Y-47075864D01*
X114930000Y-46375864D01*
G37*
G36*
X123130000Y-43995864D02*
G01*
X122930000Y-43995864D01*
X122930000Y-43295864D01*
X123130000Y-43295864D01*
X123130000Y-43995864D01*
G37*
G36*
X112530000Y-46375864D02*
G01*
X112730000Y-46375864D01*
X112730000Y-47075864D01*
X112530000Y-47075864D01*
X112530000Y-46375864D01*
G37*
G36*
X110330000Y-43995864D02*
G01*
X110130000Y-43995864D01*
X110130000Y-43295864D01*
X110330000Y-43295864D01*
X110330000Y-43995864D01*
G37*
G36*
X111930000Y-43995864D02*
G01*
X111730000Y-43995864D01*
X111730000Y-43295864D01*
X111930000Y-43295864D01*
X111930000Y-43995864D01*
G37*
G36*
X117930000Y-43995864D02*
G01*
X117730000Y-43995864D01*
X117730000Y-43295864D01*
X117930000Y-43295864D01*
X117930000Y-43995864D01*
G37*
G36*
X114530000Y-46375864D02*
G01*
X114730000Y-46375864D01*
X114730000Y-47075864D01*
X114530000Y-47075864D01*
X114530000Y-46375864D01*
G37*
G36*
X122330000Y-43995864D02*
G01*
X122130000Y-43995864D01*
X122130000Y-43295864D01*
X122330000Y-43295864D01*
X122330000Y-43995864D01*
G37*
G36*
X118130000Y-46375864D02*
G01*
X118330000Y-46375864D01*
X118330000Y-47075864D01*
X118130000Y-47075864D01*
X118130000Y-46375864D01*
G37*
G36*
X110730000Y-43995864D02*
G01*
X110530000Y-43995864D01*
X110530000Y-43295864D01*
X110730000Y-43295864D01*
X110730000Y-43995864D01*
G37*
G36*
X120130000Y-46375864D02*
G01*
X120330000Y-46375864D01*
X120330000Y-47075864D01*
X120130000Y-47075864D01*
X120130000Y-46375864D01*
G37*
G36*
X109730000Y-46375864D02*
G01*
X109930000Y-46375864D01*
X109930000Y-47075864D01*
X109730000Y-47075864D01*
X109730000Y-46375864D01*
G37*
G36*
X120330000Y-43995864D02*
G01*
X120130000Y-43995864D01*
X120130000Y-43295864D01*
X120330000Y-43295864D01*
X120330000Y-43995864D01*
G37*
G36*
X117130000Y-43995864D02*
G01*
X116930000Y-43995864D01*
X116930000Y-43295864D01*
X117130000Y-43295864D01*
X117130000Y-43995864D01*
G37*
G36*
X121730000Y-46375864D02*
G01*
X121930000Y-46375864D01*
X121930000Y-47075864D01*
X121730000Y-47075864D01*
X121730000Y-46375864D01*
G37*
G36*
X111130000Y-43995864D02*
G01*
X110930000Y-43995864D01*
X110930000Y-43295864D01*
X111130000Y-43295864D01*
X111130000Y-43995864D01*
G37*
G36*
X113130000Y-43995864D02*
G01*
X112930000Y-43995864D01*
X112930000Y-43295864D01*
X113130000Y-43295864D01*
X113130000Y-43995864D01*
G37*
G36*
X112930000Y-46375864D02*
G01*
X113130000Y-46375864D01*
X113130000Y-47075864D01*
X112930000Y-47075864D01*
X112930000Y-46375864D01*
G37*
G36*
X118730000Y-43995864D02*
G01*
X118530000Y-43995864D01*
X118530000Y-43295864D01*
X118730000Y-43295864D01*
X118730000Y-43995864D01*
G37*
G36*
X110530000Y-46375864D02*
G01*
X110730000Y-46375864D01*
X110730000Y-47075864D01*
X110530000Y-47075864D01*
X110530000Y-46375864D01*
G37*
G36*
X117530000Y-43995864D02*
G01*
X117330000Y-43995864D01*
X117330000Y-43295864D01*
X117530000Y-43295864D01*
X117530000Y-43995864D01*
G37*
G36*
X119330000Y-46375864D02*
G01*
X119530000Y-46375864D01*
X119530000Y-47075864D01*
X119330000Y-47075864D01*
X119330000Y-46375864D01*
G37*
G36*
X116130000Y-46375864D02*
G01*
X116330000Y-46375864D01*
X116330000Y-47075864D01*
X116130000Y-47075864D01*
X116130000Y-46375864D01*
G37*
G36*
X109330000Y-46375864D02*
G01*
X109530000Y-46375864D01*
X109530000Y-47075864D01*
X109330000Y-47075864D01*
X109330000Y-46375864D01*
G37*
G36*
X115530000Y-43995864D02*
G01*
X115330000Y-43995864D01*
X115330000Y-43295864D01*
X115530000Y-43295864D01*
X115530000Y-43995864D01*
G37*
G36*
X119930000Y-43995864D02*
G01*
X119730000Y-43995864D01*
X119730000Y-43295864D01*
X119930000Y-43295864D01*
X119930000Y-43995864D01*
G37*
G36*
X120930000Y-46375864D02*
G01*
X121130000Y-46375864D01*
X121130000Y-47075864D01*
X120930000Y-47075864D01*
X120930000Y-46375864D01*
G37*
G36*
X122730000Y-43995864D02*
G01*
X122530000Y-43995864D01*
X122530000Y-43295864D01*
X122730000Y-43295864D01*
X122730000Y-43995864D01*
G37*
G36*
X113930000Y-43995864D02*
G01*
X113730000Y-43995864D01*
X113730000Y-43295864D01*
X113930000Y-43295864D01*
X113930000Y-43995864D01*
G37*
G36*
X121930000Y-43995864D02*
G01*
X121730000Y-43995864D01*
X121730000Y-43295864D01*
X121930000Y-43295864D01*
X121930000Y-43995864D01*
G37*
G36*
X119730000Y-46375864D02*
G01*
X119930000Y-46375864D01*
X119930000Y-47075864D01*
X119730000Y-47075864D01*
X119730000Y-46375864D01*
G37*
G36*
X122530000Y-46375864D02*
G01*
X122730000Y-46375864D01*
X122730000Y-47075864D01*
X122530000Y-47075864D01*
X122530000Y-46375864D01*
G37*
G36*
X110930000Y-46375864D02*
G01*
X111130000Y-46375864D01*
X111130000Y-47075864D01*
X110930000Y-47075864D01*
X110930000Y-46375864D01*
G37*
G36*
X114130000Y-46375864D02*
G01*
X114330000Y-46375864D01*
X114330000Y-47075864D01*
X114130000Y-47075864D01*
X114130000Y-46375864D01*
G37*
G36*
X121530000Y-43995864D02*
G01*
X121330000Y-43995864D01*
X121330000Y-43295864D01*
X121530000Y-43295864D01*
X121530000Y-43995864D01*
G37*
G36*
X152630000Y-46375864D02*
G01*
X152830000Y-46375864D01*
X152830000Y-47075864D01*
X152630000Y-47075864D01*
X152630000Y-46375864D01*
G37*
G36*
X146830000Y-43995864D02*
G01*
X146630000Y-43995864D01*
X146630000Y-43295864D01*
X146830000Y-43295864D01*
X146830000Y-43995864D01*
G37*
G36*
X151230000Y-43995864D02*
G01*
X151030000Y-43995864D01*
X151030000Y-43295864D01*
X151230000Y-43295864D01*
X151230000Y-43995864D01*
G37*
G36*
X147030000Y-46375864D02*
G01*
X147230000Y-46375864D01*
X147230000Y-47075864D01*
X147030000Y-47075864D01*
X147030000Y-46375864D01*
G37*
G36*
X142430000Y-43995864D02*
G01*
X142230000Y-43995864D01*
X142230000Y-43295864D01*
X142430000Y-43295864D01*
X142430000Y-43995864D01*
G37*
G36*
X144830000Y-43995864D02*
G01*
X144630000Y-43995864D01*
X144630000Y-43295864D01*
X144830000Y-43295864D01*
X144830000Y-43995864D01*
G37*
G36*
X150230000Y-46375864D02*
G01*
X150430000Y-46375864D01*
X150430000Y-47075864D01*
X150230000Y-47075864D01*
X150230000Y-46375864D01*
G37*
G36*
X148830000Y-43995864D02*
G01*
X148630000Y-43995864D01*
X148630000Y-43295864D01*
X148830000Y-43295864D01*
X148830000Y-43995864D01*
G37*
G36*
X141630000Y-43995864D02*
G01*
X141430000Y-43995864D01*
X141430000Y-43295864D01*
X141630000Y-43295864D01*
X141630000Y-43995864D01*
G37*
G36*
X147830000Y-46375864D02*
G01*
X148030000Y-46375864D01*
X148030000Y-47075864D01*
X147830000Y-47075864D01*
X147830000Y-46375864D01*
G37*
G36*
X142830000Y-43995864D02*
G01*
X142630000Y-43995864D01*
X142630000Y-43295864D01*
X142830000Y-43295864D01*
X142830000Y-43995864D01*
G37*
G36*
X142030000Y-43995864D02*
G01*
X141830000Y-43995864D01*
X141830000Y-43295864D01*
X142030000Y-43295864D01*
X142030000Y-43995864D01*
G37*
G36*
X140030000Y-43995864D02*
G01*
X139830000Y-43995864D01*
X139830000Y-43295864D01*
X140030000Y-43295864D01*
X140030000Y-43995864D01*
G37*
G36*
X150030000Y-43995864D02*
G01*
X149830000Y-43995864D01*
X149830000Y-43295864D01*
X150030000Y-43295864D01*
X150030000Y-43995864D01*
G37*
G36*
X145830000Y-46375864D02*
G01*
X146030000Y-46375864D01*
X146030000Y-47075864D01*
X145830000Y-47075864D01*
X145830000Y-46375864D01*
G37*
G36*
X144030000Y-43995864D02*
G01*
X143830000Y-43995864D01*
X143830000Y-43295864D01*
X144030000Y-43295864D01*
X144030000Y-43995864D01*
G37*
G36*
X146630000Y-46375864D02*
G01*
X146830000Y-46375864D01*
X146830000Y-47075864D01*
X146630000Y-47075864D01*
X146630000Y-46375864D01*
G37*
G36*
X153630000Y-43995864D02*
G01*
X153430000Y-43995864D01*
X153430000Y-43295864D01*
X153630000Y-43295864D01*
X153630000Y-43995864D01*
G37*
G36*
X147630000Y-43995864D02*
G01*
X147430000Y-43995864D01*
X147430000Y-43295864D01*
X147630000Y-43295864D01*
X147630000Y-43995864D01*
G37*
G36*
X151630000Y-43995864D02*
G01*
X151430000Y-43995864D01*
X151430000Y-43295864D01*
X151630000Y-43295864D01*
X151630000Y-43995864D01*
G37*
G36*
X139830000Y-46375864D02*
G01*
X140030000Y-46375864D01*
X140030000Y-47075864D01*
X139830000Y-47075864D01*
X139830000Y-46375864D01*
G37*
G36*
X148430000Y-43995864D02*
G01*
X148230000Y-43995864D01*
X148230000Y-43295864D01*
X148430000Y-43295864D01*
X148430000Y-43995864D01*
G37*
G36*
X144430000Y-43995864D02*
G01*
X144230000Y-43995864D01*
X144230000Y-43295864D01*
X144430000Y-43295864D01*
X144430000Y-43995864D01*
G37*
G36*
X146430000Y-43995864D02*
G01*
X146230000Y-43995864D01*
X146230000Y-43295864D01*
X146430000Y-43295864D01*
X146430000Y-43995864D01*
G37*
G36*
X141230000Y-43995864D02*
G01*
X141030000Y-43995864D01*
X141030000Y-43295864D01*
X141230000Y-43295864D01*
X141230000Y-43995864D01*
G37*
G36*
X152030000Y-43995864D02*
G01*
X151830000Y-43995864D01*
X151830000Y-43295864D01*
X152030000Y-43295864D01*
X152030000Y-43995864D01*
G37*
G36*
X141830000Y-46375864D02*
G01*
X142030000Y-46375864D01*
X142030000Y-47075864D01*
X141830000Y-47075864D01*
X141830000Y-46375864D01*
G37*
G36*
X144630000Y-46375864D02*
G01*
X144830000Y-46375864D01*
X144830000Y-47075864D01*
X144630000Y-47075864D01*
X144630000Y-46375864D01*
G37*
G36*
X140230000Y-46375864D02*
G01*
X140430000Y-46375864D01*
X140430000Y-47075864D01*
X140230000Y-47075864D01*
X140230000Y-46375864D01*
G37*
G36*
X143030000Y-46375864D02*
G01*
X143230000Y-46375864D01*
X143230000Y-47075864D01*
X143030000Y-47075864D01*
X143030000Y-46375864D01*
G37*
G36*
X149030000Y-46375864D02*
G01*
X149230000Y-46375864D01*
X149230000Y-47075864D01*
X149030000Y-47075864D01*
X149030000Y-46375864D01*
G37*
G36*
X149230000Y-43995864D02*
G01*
X149030000Y-43995864D01*
X149030000Y-43295864D01*
X149230000Y-43295864D01*
X149230000Y-43995864D01*
G37*
G36*
X142630000Y-46375864D02*
G01*
X142830000Y-46375864D01*
X142830000Y-47075864D01*
X142630000Y-47075864D01*
X142630000Y-46375864D01*
G37*
G36*
X153230000Y-43995864D02*
G01*
X153030000Y-43995864D01*
X153030000Y-43295864D01*
X153230000Y-43295864D01*
X153230000Y-43995864D01*
G37*
G36*
X147430000Y-46375864D02*
G01*
X147630000Y-46375864D01*
X147630000Y-47075864D01*
X147430000Y-47075864D01*
X147430000Y-46375864D01*
G37*
G36*
X145430000Y-46375864D02*
G01*
X145630000Y-46375864D01*
X145630000Y-47075864D01*
X145430000Y-47075864D01*
X145430000Y-46375864D01*
G37*
G36*
X153030000Y-46375864D02*
G01*
X153230000Y-46375864D01*
X153230000Y-47075864D01*
X153030000Y-47075864D01*
X153030000Y-46375864D01*
G37*
G36*
X151830000Y-46375864D02*
G01*
X152030000Y-46375864D01*
X152030000Y-47075864D01*
X151830000Y-47075864D01*
X151830000Y-46375864D01*
G37*
G36*
X148230000Y-46375864D02*
G01*
X148430000Y-46375864D01*
X148430000Y-47075864D01*
X148230000Y-47075864D01*
X148230000Y-46375864D01*
G37*
G36*
X141430000Y-46375864D02*
G01*
X141630000Y-46375864D01*
X141630000Y-47075864D01*
X141430000Y-47075864D01*
X141430000Y-46375864D01*
G37*
G36*
X140630000Y-46375864D02*
G01*
X140830000Y-46375864D01*
X140830000Y-47075864D01*
X140630000Y-47075864D01*
X140630000Y-46375864D01*
G37*
G36*
X143230000Y-43995864D02*
G01*
X143030000Y-43995864D01*
X143030000Y-43295864D01*
X143230000Y-43295864D01*
X143230000Y-43995864D01*
G37*
G36*
X145030000Y-46375864D02*
G01*
X145230000Y-46375864D01*
X145230000Y-47075864D01*
X145030000Y-47075864D01*
X145030000Y-46375864D01*
G37*
G36*
X152830000Y-43995864D02*
G01*
X152630000Y-43995864D01*
X152630000Y-43295864D01*
X152830000Y-43295864D01*
X152830000Y-43995864D01*
G37*
G36*
X151430000Y-46375864D02*
G01*
X151630000Y-46375864D01*
X151630000Y-47075864D01*
X151430000Y-47075864D01*
X151430000Y-46375864D01*
G37*
G36*
X143630000Y-43995864D02*
G01*
X143430000Y-43995864D01*
X143430000Y-43295864D01*
X143630000Y-43295864D01*
X143630000Y-43995864D01*
G37*
G36*
X150830000Y-43995864D02*
G01*
X150630000Y-43995864D01*
X150630000Y-43295864D01*
X150830000Y-43295864D01*
X150830000Y-43995864D01*
G37*
G36*
X150430000Y-43995864D02*
G01*
X150230000Y-43995864D01*
X150230000Y-43295864D01*
X150430000Y-43295864D01*
X150430000Y-43995864D01*
G37*
G36*
X146030000Y-43995864D02*
G01*
X145830000Y-43995864D01*
X145830000Y-43295864D01*
X146030000Y-43295864D01*
X146030000Y-43995864D01*
G37*
G36*
X140430000Y-43995864D02*
G01*
X140230000Y-43995864D01*
X140230000Y-43295864D01*
X140430000Y-43295864D01*
X140430000Y-43995864D01*
G37*
G36*
X149830000Y-46375864D02*
G01*
X150030000Y-46375864D01*
X150030000Y-47075864D01*
X149830000Y-47075864D01*
X149830000Y-46375864D01*
G37*
G36*
X143830000Y-46375864D02*
G01*
X144030000Y-46375864D01*
X144030000Y-47075864D01*
X143830000Y-47075864D01*
X143830000Y-46375864D01*
G37*
G36*
X152230000Y-46375864D02*
G01*
X152430000Y-46375864D01*
X152430000Y-47075864D01*
X152230000Y-47075864D01*
X152230000Y-46375864D01*
G37*
G36*
X152430000Y-43995864D02*
G01*
X152230000Y-43995864D01*
X152230000Y-43295864D01*
X152430000Y-43295864D01*
X152430000Y-43995864D01*
G37*
G36*
X148030000Y-43995864D02*
G01*
X147830000Y-43995864D01*
X147830000Y-43295864D01*
X148030000Y-43295864D01*
X148030000Y-43995864D01*
G37*
G36*
X146230000Y-46375864D02*
G01*
X146430000Y-46375864D01*
X146430000Y-47075864D01*
X146230000Y-47075864D01*
X146230000Y-46375864D01*
G37*
G36*
X147230000Y-43995864D02*
G01*
X147030000Y-43995864D01*
X147030000Y-43295864D01*
X147230000Y-43295864D01*
X147230000Y-43995864D01*
G37*
G36*
X140830000Y-43995864D02*
G01*
X140630000Y-43995864D01*
X140630000Y-43295864D01*
X140830000Y-43295864D01*
X140830000Y-43995864D01*
G37*
G36*
X150630000Y-46375864D02*
G01*
X150830000Y-46375864D01*
X150830000Y-47075864D01*
X150630000Y-47075864D01*
X150630000Y-46375864D01*
G37*
G36*
X145630000Y-43995864D02*
G01*
X145430000Y-43995864D01*
X145430000Y-43295864D01*
X145630000Y-43295864D01*
X145630000Y-43995864D01*
G37*
G36*
X149630000Y-43995864D02*
G01*
X149430000Y-43995864D01*
X149430000Y-43295864D01*
X149630000Y-43295864D01*
X149630000Y-43995864D01*
G37*
G36*
X143430000Y-46375864D02*
G01*
X143630000Y-46375864D01*
X143630000Y-47075864D01*
X143430000Y-47075864D01*
X143430000Y-46375864D01*
G37*
G36*
X149430000Y-46375864D02*
G01*
X149630000Y-46375864D01*
X149630000Y-47075864D01*
X149430000Y-47075864D01*
X149430000Y-46375864D01*
G37*
G36*
X144230000Y-46375864D02*
G01*
X144430000Y-46375864D01*
X144430000Y-47075864D01*
X144230000Y-47075864D01*
X144230000Y-46375864D01*
G37*
G36*
X148630000Y-46375864D02*
G01*
X148830000Y-46375864D01*
X148830000Y-47075864D01*
X148630000Y-47075864D01*
X148630000Y-46375864D01*
G37*
G36*
X142230000Y-46375864D02*
G01*
X142430000Y-46375864D01*
X142430000Y-47075864D01*
X142230000Y-47075864D01*
X142230000Y-46375864D01*
G37*
G36*
X151030000Y-46375864D02*
G01*
X151230000Y-46375864D01*
X151230000Y-47075864D01*
X151030000Y-47075864D01*
X151030000Y-46375864D01*
G37*
G36*
X153430000Y-46375864D02*
G01*
X153630000Y-46375864D01*
X153630000Y-47075864D01*
X153430000Y-47075864D01*
X153430000Y-46375864D01*
G37*
G36*
X145230000Y-43995864D02*
G01*
X145030000Y-43995864D01*
X145030000Y-43295864D01*
X145230000Y-43295864D01*
X145230000Y-43995864D01*
G37*
G36*
X141030000Y-46375864D02*
G01*
X141230000Y-46375864D01*
X141230000Y-47075864D01*
X141030000Y-47075864D01*
X141030000Y-46375864D01*
G37*
%TD*%
D12*
%TO.C,REF\u002A\u002A*%
X195045000Y-152082500D03*
%TD*%
%TO.C,REF\u002A\u002A*%
X98045000Y-35082500D03*
%TD*%
%TO.C,REF\u002A\u002A*%
X98045000Y-152082500D03*
%TD*%
%TO.C,REF\u002A\u002A*%
X195045000Y-35082500D03*
%TD*%
M02*
