%FSLAX45Y45*%
G04 Gerber Fmt 4.5, Leading zero omitted, Abs format (unit mm)*
G04 Created by KiCad (PCBNEW (6.0.0)) date 2022-03-28 07:33:32*
%MOMM*%
%LPD*%
G01*
G04 APERTURE LIST*
%TA.AperFunction,Profile*%
%ADD10C,0.050000*%
%TD*%
%ADD11C,0.200000*%
%ADD12C,0.320000*%
G04 APERTURE END LIST*
D10*
X18423000Y-4818586D02*
G75*
G03*
X18023000Y-5218586I0J-400000D01*
G01*
X18023000Y-9137635D02*
G75*
G03*
X18143000Y-9318586I208355J7908D01*
G01*
X17403000Y-9318586D02*
G75*
G03*
X17523000Y-9137635I-88355J188859D01*
G01*
X14923000Y-11582635D02*
G75*
G03*
X15043000Y-11763586I208355J7908D01*
G01*
X14303000Y-11763586D02*
G75*
G03*
X14423000Y-11582635I-88355J188859D01*
G01*
X17523000Y-5218586D02*
G75*
G03*
X17123000Y-4818586I-400000J0D01*
G01*
X14123000Y-5218586D02*
G75*
G03*
X13723000Y-4818586I-400000J0D01*
G01*
X14423000Y-9818586D02*
X14123000Y-5218586D01*
X14223000Y-9818586D02*
X13915289Y-5118586D01*
X13915289Y-5118586D02*
G75*
G03*
X13815289Y-5018586I-100000J0D01*
G01*
X15430711Y-5118586D02*
X15123000Y-9818586D01*
X15623000Y-4818586D02*
G75*
G03*
X15223000Y-5218586I0J-400000D01*
G01*
X13623711Y-5018586D02*
X13815289Y-5018586D01*
X15530711Y-5018586D02*
G75*
G03*
X15430711Y-5118586I0J-100000D01*
G01*
X15223000Y-5218586D02*
X14923000Y-9818586D01*
X15530711Y-5018586D02*
X15723000Y-5018586D01*
X16723711Y-5018586D02*
X17223000Y-5018586D01*
X18323000Y-5018586D02*
X18822289Y-5018586D01*
X18723000Y-4818586D02*
X18423000Y-4818586D01*
X17323000Y-5118586D02*
G75*
G03*
X17223000Y-5018586I-100000J0D01*
G01*
X17123000Y-4818586D02*
X16823000Y-4818586D01*
X18323000Y-5018586D02*
G75*
G03*
X18223000Y-5118586I0J-100000D01*
G01*
X11073000Y-5218586D02*
G75*
G03*
X10673000Y-4818586I-400000J0D01*
G01*
X11373000Y-9818586D02*
X11073000Y-5218586D01*
X11173000Y-9818586D02*
X10865289Y-5118586D01*
X10865289Y-5118586D02*
G75*
G03*
X10765289Y-5018586I-100000J0D01*
G01*
X10573711Y-5018586D02*
X10765289Y-5018586D01*
X12380711Y-5118586D02*
X12073000Y-9818586D01*
X12573000Y-4818586D02*
G75*
G03*
X12173000Y-5218586I0J-400000D01*
G01*
X11873000Y-14063586D02*
G75*
G03*
X11993000Y-14244538I208355J7908D01*
G01*
X18723000Y-4218586D02*
X18423000Y-4218586D01*
X12273000Y-4018586D02*
G75*
G03*
X12273000Y-4218586I0J-100000D01*
G01*
X11913000Y-14654538D02*
G75*
G03*
X11913000Y-14854538I0J-100000D01*
G01*
X18723000Y-4818586D02*
X18723000Y-4218586D01*
X14303000Y-12173586D02*
X14303000Y-11763586D01*
X18823000Y-5018586D02*
G75*
G03*
X18923000Y-4918586I0J100000D01*
G01*
X11373000Y-14063586D02*
X11373000Y-9818586D01*
X15123000Y-11463586D02*
X15123000Y-11213586D01*
X18023000Y-5218586D02*
X18023000Y-9137635D01*
X12193000Y-14064538D02*
G75*
G03*
X12133000Y-14004538I-60000J0D01*
G01*
X10473000Y-4818586D02*
X10473000Y-4918586D01*
X15243000Y-11583586D02*
G75*
G03*
X15183000Y-11523586I-60000J0D01*
G01*
X11253000Y-14654537D02*
X11333000Y-14654537D01*
X14023000Y-4218586D02*
X13723000Y-4218586D01*
X18823000Y-4018586D02*
X18423000Y-4018586D01*
X16623000Y-4918586D02*
G75*
G03*
X16723000Y-5018586I100000J0D01*
G01*
X16623000Y-4818586D02*
X16623000Y-4918586D01*
X12773000Y-4818586D02*
X12773000Y-4918586D01*
X18343000Y-9828586D02*
X18343000Y-9318586D01*
X15823000Y-4818586D02*
X15823000Y-4118586D01*
X10973000Y-4218586D02*
X10673000Y-4218586D01*
X14023000Y-4218586D02*
G75*
G03*
X14023000Y-4018586I0J100000D01*
G01*
X17203000Y-9828586D02*
G75*
G03*
X17303000Y-9928586I100000J0D01*
G01*
X17263000Y-9078586D02*
G75*
G03*
X17203000Y-9138586I0J-60000D01*
G01*
X14963000Y-12173586D02*
X15043000Y-12173586D01*
X17123000Y-4218586D02*
G75*
G03*
X17123000Y-4018586I0J100000D01*
G01*
X17203000Y-9318586D02*
X17203000Y-9828586D01*
X13523000Y-4118586D02*
X13523000Y-4818586D01*
X11253000Y-14244538D02*
G75*
G03*
X11373000Y-14063586I-88355J188859D01*
G01*
X17203000Y-9138586D02*
X17203000Y-9318586D01*
X14203000Y-12373586D02*
X14383000Y-12373586D01*
X14963000Y-12373586D02*
X15143000Y-12373586D01*
X12193000Y-14754538D02*
X12193000Y-14244538D01*
X15623000Y-4218586D02*
X15323000Y-4218586D01*
X17403000Y-9728586D02*
X17483000Y-9728586D01*
X17323000Y-5118586D02*
X17323000Y-8768586D01*
X12480711Y-5018586D02*
X12673000Y-5018586D01*
X15623000Y-4818586D02*
X15623000Y-4218586D01*
X18223000Y-8768586D02*
X18223000Y-5118586D01*
X11913000Y-14654538D02*
X11993000Y-14654538D01*
X11053000Y-14064538D02*
X11053000Y-14244538D01*
X12193000Y-14064538D02*
X12193000Y-14244538D01*
X14383000Y-12373586D02*
G75*
G03*
X14383000Y-12173586I0J100000D01*
G01*
X13723000Y-4818586D02*
X13723000Y-4218586D01*
X14423000Y-11582635D02*
X14423000Y-9818586D01*
X18063000Y-9728586D02*
G75*
G03*
X18063000Y-9928586I0J-100000D01*
G01*
X13623000Y-4018586D02*
G75*
G03*
X13523000Y-4118586I0J-100000D01*
G01*
X14103000Y-11763586D02*
X14103000Y-12273586D01*
X18223000Y-9018586D02*
G75*
G03*
X18283000Y-9078586I60000J0D01*
G01*
X17323000Y-8768586D02*
X17323000Y-9018586D01*
X14923000Y-9818586D02*
X14923000Y-11582635D01*
X11173000Y-13694538D02*
X11173000Y-13944538D01*
X10973000Y-4018586D02*
X10573000Y-4018586D01*
X18923000Y-4818586D02*
X18923000Y-4118586D01*
X17263000Y-9078586D02*
G75*
G03*
X17323000Y-9018586I0J60000D01*
G01*
X18143000Y-9318586D02*
X18143000Y-9728586D01*
X12093000Y-14854538D02*
G75*
G03*
X12193000Y-14754538I0J100000D01*
G01*
X12173000Y-5218586D02*
X11873000Y-9818586D01*
X11873000Y-9818586D02*
X11873000Y-14063586D01*
X15243000Y-12273586D02*
X15243000Y-11763586D01*
X12673000Y-5018586D02*
G75*
G03*
X12773000Y-4918586I0J100000D01*
G01*
X12573000Y-4218586D02*
X12273000Y-4218586D01*
X18923000Y-4818586D02*
X18923000Y-4918586D01*
X12073000Y-13944538D02*
X12073000Y-13694538D01*
X18243000Y-9928586D02*
G75*
G03*
X18343000Y-9828586I0J100000D01*
G01*
X11253000Y-14654538D02*
X11253000Y-14244538D01*
X16623000Y-4118586D02*
X16623000Y-4818586D01*
X14103000Y-12273586D02*
G75*
G03*
X14203000Y-12373586I100000J0D01*
G01*
X11913000Y-14854538D02*
X12093000Y-14854538D01*
X11053000Y-14754537D02*
G75*
G03*
X11153000Y-14854537I100000J0D01*
G01*
X11173000Y-9818586D02*
X11173000Y-13694538D01*
X14163000Y-11523586D02*
G75*
G03*
X14103000Y-11583586I0J-60000D01*
G01*
X18063000Y-9728586D02*
X18143000Y-9728586D01*
X12573000Y-4818586D02*
X12573000Y-4218586D01*
X11113000Y-14004538D02*
G75*
G03*
X11053000Y-14064538I0J-60000D01*
G01*
X11333000Y-14854537D02*
G75*
G03*
X11333000Y-14654537I0J100000D01*
G01*
X14163000Y-11523586D02*
G75*
G03*
X14223000Y-11463586I0J60000D01*
G01*
X15323000Y-4018586D02*
G75*
G03*
X15323000Y-4218586I0J-100000D01*
G01*
X11153000Y-14854537D02*
X11333000Y-14854537D01*
X11113000Y-14004538D02*
G75*
G03*
X11173000Y-13944538I0J60000D01*
G01*
X15723000Y-4018586D02*
X15323000Y-4018586D01*
X15123000Y-11463586D02*
G75*
G03*
X15183000Y-11523586I60000J0D01*
G01*
X9404500Y-3108250D02*
X19904500Y-3108250D01*
X19904500Y-3108250D02*
X19904500Y-15608250D01*
X19904500Y-15608250D02*
X9404500Y-15608250D01*
X9404500Y-15608250D02*
X9404500Y-3108250D01*
X14223000Y-9818586D02*
X14223000Y-11213586D01*
X17483000Y-9928586D02*
G75*
G03*
X17483000Y-9728586I0J100000D01*
G01*
X15823000Y-4118586D02*
G75*
G03*
X15723000Y-4018586I-100000J0D01*
G01*
X11993000Y-14244538D02*
X11993000Y-14654538D01*
X12073000Y-13694538D02*
X12073000Y-9818586D01*
X18343000Y-9138586D02*
G75*
G03*
X18283000Y-9078586I-60000J0D01*
G01*
X14023000Y-4018586D02*
X13623000Y-4018586D01*
X14303000Y-12173586D02*
X14383000Y-12173586D01*
X18343000Y-9138586D02*
X18343000Y-9318586D01*
X17303000Y-9928586D02*
X17483000Y-9928586D01*
X15043000Y-11763586D02*
X15043000Y-12173586D01*
X15723000Y-5018586D02*
G75*
G03*
X15823000Y-4918586I0J100000D01*
G01*
X17523000Y-9137635D02*
X17523000Y-5218586D01*
X17123000Y-4018586D02*
X16723000Y-4018586D01*
X11053000Y-14244538D02*
X11053000Y-14754537D01*
X14963000Y-12173586D02*
G75*
G03*
X14963000Y-12373586I0J-100000D01*
G01*
X14223000Y-11213586D02*
X14223000Y-11463586D01*
X12773000Y-4818586D02*
X12773000Y-4118586D01*
X12673000Y-4018586D02*
X12273000Y-4018586D01*
X14103000Y-11583586D02*
X14103000Y-11763586D01*
X18923000Y-4118586D02*
G75*
G03*
X18823000Y-4018586I-100000J0D01*
G01*
X16723000Y-4018586D02*
G75*
G03*
X16623000Y-4118586I0J-100000D01*
G01*
X16823000Y-4818586D02*
X16823000Y-4218586D01*
X12073000Y-13944538D02*
G75*
G03*
X12133000Y-14004538I60000J0D01*
G01*
X17123000Y-4218586D02*
X16823000Y-4218586D01*
X17403000Y-9728586D02*
X17403000Y-9318586D01*
X15143000Y-12373586D02*
G75*
G03*
X15243000Y-12273586I0J100000D01*
G01*
X18063000Y-9928586D02*
X18243000Y-9928586D01*
X13523000Y-4818586D02*
X13523000Y-4918586D01*
X12773000Y-4118586D02*
G75*
G03*
X12673000Y-4018586I-100000J0D01*
G01*
X15243000Y-11583586D02*
X15243000Y-11763586D01*
X10473000Y-4118586D02*
X10473000Y-4818586D01*
X12480711Y-5018586D02*
G75*
G03*
X12380711Y-5118586I0J-100000D01*
G01*
X15123000Y-11213586D02*
X15123000Y-9818586D01*
X18223000Y-9018586D02*
X18223000Y-8768586D01*
X15823000Y-4818586D02*
X15823000Y-4918586D01*
X10573000Y-4018586D02*
G75*
G03*
X10473000Y-4118586I0J-100000D01*
G01*
X10973000Y-4218586D02*
G75*
G03*
X10973000Y-4018586I0J100000D01*
G01*
X10473000Y-4918586D02*
G75*
G03*
X10573000Y-5018586I100000J0D01*
G01*
X10673000Y-4818586D02*
X10673000Y-4218586D01*
X13523000Y-4918586D02*
G75*
G03*
X13623000Y-5018586I100000J0D01*
G01*
X18423000Y-4018586D02*
G75*
G03*
X18423000Y-4218586I0J-100000D01*
G01*
D11*
D12*
X9644500Y-3348250D02*
X9964500Y-3668250D01*
X9964500Y-3348250D02*
X9644500Y-3668250D01*
X9644500Y-15048250D02*
X9964500Y-15368250D01*
X9964500Y-15048250D02*
X9644500Y-15368250D01*
X19344500Y-3348250D02*
X19664500Y-3668250D01*
X19664500Y-3348250D02*
X19344500Y-3668250D01*
X19344500Y-15048250D02*
X19664500Y-15368250D01*
X19664500Y-15048250D02*
X19344500Y-15368250D01*
D11*
X9659619Y-15921226D02*
X9659619Y-15721226D01*
X9707238Y-15721226D01*
X9735810Y-15730750D01*
X9754857Y-15749798D01*
X9764381Y-15768845D01*
X9773905Y-15806940D01*
X9773905Y-15835512D01*
X9764381Y-15873607D01*
X9754857Y-15892655D01*
X9735810Y-15911702D01*
X9707238Y-15921226D01*
X9659619Y-15921226D01*
X9859619Y-15921226D02*
X9859619Y-15787893D01*
X9859619Y-15825988D02*
X9869143Y-15806940D01*
X9878667Y-15797417D01*
X9897714Y-15787893D01*
X9916762Y-15787893D01*
X9983429Y-15921226D02*
X9983429Y-15787893D01*
X9983429Y-15721226D02*
X9973905Y-15730750D01*
X9983429Y-15740274D01*
X9992952Y-15730750D01*
X9983429Y-15721226D01*
X9983429Y-15740274D01*
X10107238Y-15921226D02*
X10088190Y-15911702D01*
X10078667Y-15892655D01*
X10078667Y-15721226D01*
X10212000Y-15921226D02*
X10192952Y-15911702D01*
X10183429Y-15892655D01*
X10183429Y-15721226D01*
X10440571Y-15921226D02*
X10440571Y-15721226D01*
X10507238Y-15864083D01*
X10573905Y-15721226D01*
X10573905Y-15921226D01*
X10754857Y-15921226D02*
X10754857Y-15816464D01*
X10745333Y-15797417D01*
X10726286Y-15787893D01*
X10688190Y-15787893D01*
X10669143Y-15797417D01*
X10754857Y-15911702D02*
X10735810Y-15921226D01*
X10688190Y-15921226D01*
X10669143Y-15911702D01*
X10659619Y-15892655D01*
X10659619Y-15873607D01*
X10669143Y-15854559D01*
X10688190Y-15845036D01*
X10735810Y-15845036D01*
X10754857Y-15835512D01*
X10850095Y-15787893D02*
X10850095Y-15987893D01*
X10850095Y-15797417D02*
X10869143Y-15787893D01*
X10907238Y-15787893D01*
X10926286Y-15797417D01*
X10935810Y-15806940D01*
X10945333Y-15825988D01*
X10945333Y-15883131D01*
X10935810Y-15902178D01*
X10926286Y-15911702D01*
X10907238Y-15921226D01*
X10869143Y-15921226D01*
X10850095Y-15911702D01*
X11031048Y-15902178D02*
X11040571Y-15911702D01*
X11031048Y-15921226D01*
X11021524Y-15911702D01*
X11031048Y-15902178D01*
X11031048Y-15921226D01*
X11031048Y-15797417D02*
X11040571Y-15806940D01*
X11031048Y-15816464D01*
X11021524Y-15806940D01*
X11031048Y-15797417D01*
X11031048Y-15816464D01*
X9202000Y-16150750D02*
X9402000Y-16350750D01*
X9402000Y-16150750D02*
X9202000Y-16350750D01*
X9640571Y-16141226D02*
X9764381Y-16141226D01*
X9697714Y-16217417D01*
X9726286Y-16217417D01*
X9745333Y-16226940D01*
X9754857Y-16236464D01*
X9764381Y-16255512D01*
X9764381Y-16303131D01*
X9754857Y-16322178D01*
X9745333Y-16331702D01*
X9726286Y-16341226D01*
X9669143Y-16341226D01*
X9650095Y-16331702D01*
X9640571Y-16322178D01*
X9850095Y-16322178D02*
X9859619Y-16331702D01*
X9850095Y-16341226D01*
X9840571Y-16331702D01*
X9850095Y-16322178D01*
X9850095Y-16341226D01*
X9935810Y-16160274D02*
X9945333Y-16150750D01*
X9964381Y-16141226D01*
X10012000Y-16141226D01*
X10031048Y-16150750D01*
X10040571Y-16160274D01*
X10050095Y-16179321D01*
X10050095Y-16198369D01*
X10040571Y-16226940D01*
X9926286Y-16341226D01*
X10050095Y-16341226D01*
X10173905Y-16141226D02*
X10192952Y-16141226D01*
X10212000Y-16150750D01*
X10221524Y-16160274D01*
X10231048Y-16179321D01*
X10240571Y-16217417D01*
X10240571Y-16265036D01*
X10231048Y-16303131D01*
X10221524Y-16322178D01*
X10212000Y-16331702D01*
X10192952Y-16341226D01*
X10173905Y-16341226D01*
X10154857Y-16331702D01*
X10145333Y-16322178D01*
X10135810Y-16303131D01*
X10126286Y-16265036D01*
X10126286Y-16217417D01*
X10135810Y-16179321D01*
X10145333Y-16160274D01*
X10154857Y-16150750D01*
X10173905Y-16141226D01*
X10364381Y-16141226D02*
X10383429Y-16141226D01*
X10402476Y-16150750D01*
X10412000Y-16160274D01*
X10421524Y-16179321D01*
X10431048Y-16217417D01*
X10431048Y-16265036D01*
X10421524Y-16303131D01*
X10412000Y-16322178D01*
X10402476Y-16331702D01*
X10383429Y-16341226D01*
X10364381Y-16341226D01*
X10345333Y-16331702D01*
X10335810Y-16322178D01*
X10326286Y-16303131D01*
X10316762Y-16265036D01*
X10316762Y-16217417D01*
X10326286Y-16179321D01*
X10335810Y-16160274D01*
X10345333Y-16150750D01*
X10364381Y-16141226D01*
X10516762Y-16341226D02*
X10516762Y-16207893D01*
X10516762Y-16226940D02*
X10526286Y-16217417D01*
X10545333Y-16207893D01*
X10573905Y-16207893D01*
X10592952Y-16217417D01*
X10602476Y-16236464D01*
X10602476Y-16341226D01*
X10602476Y-16236464D02*
X10612000Y-16217417D01*
X10631048Y-16207893D01*
X10659619Y-16207893D01*
X10678667Y-16217417D01*
X10688190Y-16236464D01*
X10688190Y-16341226D01*
X10783429Y-16341226D02*
X10783429Y-16207893D01*
X10783429Y-16226940D02*
X10792952Y-16217417D01*
X10812000Y-16207893D01*
X10840571Y-16207893D01*
X10859619Y-16217417D01*
X10869143Y-16236464D01*
X10869143Y-16341226D01*
X10869143Y-16236464D02*
X10878667Y-16217417D01*
X10897714Y-16207893D01*
X10926286Y-16207893D01*
X10945333Y-16217417D01*
X10954857Y-16236464D01*
X10954857Y-16341226D01*
X11345333Y-16131702D02*
X11173905Y-16388845D01*
X11602476Y-16141226D02*
X11621524Y-16141226D01*
X11640571Y-16150750D01*
X11650095Y-16160274D01*
X11659619Y-16179321D01*
X11669143Y-16217417D01*
X11669143Y-16265036D01*
X11659619Y-16303131D01*
X11650095Y-16322178D01*
X11640571Y-16331702D01*
X11621524Y-16341226D01*
X11602476Y-16341226D01*
X11583428Y-16331702D01*
X11573905Y-16322178D01*
X11564381Y-16303131D01*
X11554857Y-16265036D01*
X11554857Y-16217417D01*
X11564381Y-16179321D01*
X11573905Y-16160274D01*
X11583428Y-16150750D01*
X11602476Y-16141226D01*
X11754857Y-16322178D02*
X11764381Y-16331702D01*
X11754857Y-16341226D01*
X11745333Y-16331702D01*
X11754857Y-16322178D01*
X11754857Y-16341226D01*
X11954857Y-16341226D02*
X11840571Y-16341226D01*
X11897714Y-16341226D02*
X11897714Y-16141226D01*
X11878667Y-16169798D01*
X11859619Y-16188845D01*
X11840571Y-16198369D01*
X12031048Y-16160274D02*
X12040571Y-16150750D01*
X12059619Y-16141226D01*
X12107238Y-16141226D01*
X12126286Y-16150750D01*
X12135809Y-16160274D01*
X12145333Y-16179321D01*
X12145333Y-16198369D01*
X12135809Y-16226940D01*
X12021524Y-16341226D01*
X12145333Y-16341226D01*
X12316762Y-16141226D02*
X12278667Y-16141226D01*
X12259619Y-16150750D01*
X12250095Y-16160274D01*
X12231048Y-16188845D01*
X12221524Y-16226940D01*
X12221524Y-16303131D01*
X12231048Y-16322178D01*
X12240571Y-16331702D01*
X12259619Y-16341226D01*
X12297714Y-16341226D01*
X12316762Y-16331702D01*
X12326286Y-16322178D01*
X12335809Y-16303131D01*
X12335809Y-16255512D01*
X12326286Y-16236464D01*
X12316762Y-16226940D01*
X12297714Y-16217417D01*
X12259619Y-16217417D01*
X12240571Y-16226940D01*
X12231048Y-16236464D01*
X12221524Y-16255512D01*
X12459619Y-16141226D02*
X12478667Y-16141226D01*
X12497714Y-16150750D01*
X12507238Y-16160274D01*
X12516762Y-16179321D01*
X12526286Y-16217417D01*
X12526286Y-16265036D01*
X12516762Y-16303131D01*
X12507238Y-16322178D01*
X12497714Y-16331702D01*
X12478667Y-16341226D01*
X12459619Y-16341226D01*
X12440571Y-16331702D01*
X12431048Y-16322178D01*
X12421524Y-16303131D01*
X12412000Y-16265036D01*
X12412000Y-16217417D01*
X12421524Y-16179321D01*
X12431048Y-16160274D01*
X12440571Y-16150750D01*
X12459619Y-16141226D01*
X12602476Y-16141226D02*
X12602476Y-16179321D01*
X12678667Y-16141226D02*
X12678667Y-16179321D01*
X12973905Y-16417417D02*
X12964381Y-16407893D01*
X12945333Y-16379321D01*
X12935809Y-16360274D01*
X12926286Y-16331702D01*
X12916762Y-16284083D01*
X12916762Y-16245988D01*
X12926286Y-16198369D01*
X12935809Y-16169798D01*
X12945333Y-16150750D01*
X12964381Y-16122178D01*
X12973905Y-16112655D01*
X13135809Y-16207893D02*
X13135809Y-16341226D01*
X13088190Y-16131702D02*
X13040571Y-16274559D01*
X13164381Y-16274559D01*
X13392952Y-16341226D02*
X13392952Y-16141226D01*
X13478667Y-16341226D02*
X13478667Y-16236464D01*
X13469143Y-16217417D01*
X13450095Y-16207893D01*
X13421524Y-16207893D01*
X13402476Y-16217417D01*
X13392952Y-16226940D01*
X13602476Y-16341226D02*
X13583428Y-16331702D01*
X13573905Y-16322178D01*
X13564381Y-16303131D01*
X13564381Y-16245988D01*
X13573905Y-16226940D01*
X13583428Y-16217417D01*
X13602476Y-16207893D01*
X13631048Y-16207893D01*
X13650095Y-16217417D01*
X13659619Y-16226940D01*
X13669143Y-16245988D01*
X13669143Y-16303131D01*
X13659619Y-16322178D01*
X13650095Y-16331702D01*
X13631048Y-16341226D01*
X13602476Y-16341226D01*
X13783428Y-16341226D02*
X13764381Y-16331702D01*
X13754857Y-16312655D01*
X13754857Y-16141226D01*
X13935809Y-16331702D02*
X13916762Y-16341226D01*
X13878667Y-16341226D01*
X13859619Y-16331702D01*
X13850095Y-16312655D01*
X13850095Y-16236464D01*
X13859619Y-16217417D01*
X13878667Y-16207893D01*
X13916762Y-16207893D01*
X13935809Y-16217417D01*
X13945333Y-16236464D01*
X13945333Y-16255512D01*
X13850095Y-16274559D01*
X14021524Y-16331702D02*
X14040571Y-16341226D01*
X14078667Y-16341226D01*
X14097714Y-16331702D01*
X14107238Y-16312655D01*
X14107238Y-16303131D01*
X14097714Y-16284083D01*
X14078667Y-16274559D01*
X14050095Y-16274559D01*
X14031048Y-16265036D01*
X14021524Y-16245988D01*
X14021524Y-16236464D01*
X14031048Y-16217417D01*
X14050095Y-16207893D01*
X14078667Y-16207893D01*
X14097714Y-16217417D01*
X14173905Y-16417417D02*
X14183428Y-16407893D01*
X14202476Y-16379321D01*
X14212000Y-16360274D01*
X14221524Y-16331702D01*
X14231048Y-16284083D01*
X14231048Y-16245988D01*
X14221524Y-16198369D01*
X14212000Y-16169798D01*
X14202476Y-16150750D01*
X14183428Y-16122178D01*
X14173905Y-16112655D01*
X14535809Y-16417417D02*
X14526286Y-16407893D01*
X14507238Y-16379321D01*
X14497714Y-16360274D01*
X14488190Y-16331702D01*
X14478667Y-16284083D01*
X14478667Y-16245988D01*
X14488190Y-16198369D01*
X14497714Y-16169798D01*
X14507238Y-16150750D01*
X14526286Y-16122178D01*
X14535809Y-16112655D01*
X14612000Y-16207893D02*
X14612000Y-16341226D01*
X14612000Y-16226940D02*
X14621524Y-16217417D01*
X14640571Y-16207893D01*
X14669143Y-16207893D01*
X14688190Y-16217417D01*
X14697714Y-16236464D01*
X14697714Y-16341226D01*
X14821524Y-16341226D02*
X14802476Y-16331702D01*
X14792952Y-16322178D01*
X14783428Y-16303131D01*
X14783428Y-16245988D01*
X14792952Y-16226940D01*
X14802476Y-16217417D01*
X14821524Y-16207893D01*
X14850095Y-16207893D01*
X14869143Y-16217417D01*
X14878667Y-16226940D01*
X14888190Y-16245988D01*
X14888190Y-16303131D01*
X14878667Y-16322178D01*
X14869143Y-16331702D01*
X14850095Y-16341226D01*
X14821524Y-16341226D01*
X14945333Y-16207893D02*
X15021524Y-16207893D01*
X14973905Y-16141226D02*
X14973905Y-16312655D01*
X14983428Y-16331702D01*
X15002476Y-16341226D01*
X15021524Y-16341226D01*
X15240571Y-16207893D02*
X15240571Y-16407893D01*
X15240571Y-16217417D02*
X15259619Y-16207893D01*
X15297714Y-16207893D01*
X15316762Y-16217417D01*
X15326286Y-16226940D01*
X15335809Y-16245988D01*
X15335809Y-16303131D01*
X15326286Y-16322178D01*
X15316762Y-16331702D01*
X15297714Y-16341226D01*
X15259619Y-16341226D01*
X15240571Y-16331702D01*
X15450095Y-16341226D02*
X15431048Y-16331702D01*
X15421524Y-16312655D01*
X15421524Y-16141226D01*
X15612000Y-16341226D02*
X15612000Y-16236464D01*
X15602476Y-16217417D01*
X15583428Y-16207893D01*
X15545333Y-16207893D01*
X15526286Y-16217417D01*
X15612000Y-16331702D02*
X15592952Y-16341226D01*
X15545333Y-16341226D01*
X15526286Y-16331702D01*
X15516762Y-16312655D01*
X15516762Y-16293607D01*
X15526286Y-16274559D01*
X15545333Y-16265036D01*
X15592952Y-16265036D01*
X15612000Y-16255512D01*
X15678667Y-16207893D02*
X15754857Y-16207893D01*
X15707238Y-16141226D02*
X15707238Y-16312655D01*
X15716762Y-16331702D01*
X15735809Y-16341226D01*
X15754857Y-16341226D01*
X15897714Y-16331702D02*
X15878667Y-16341226D01*
X15840571Y-16341226D01*
X15821524Y-16331702D01*
X15812000Y-16312655D01*
X15812000Y-16236464D01*
X15821524Y-16217417D01*
X15840571Y-16207893D01*
X15878667Y-16207893D01*
X15897714Y-16217417D01*
X15907238Y-16236464D01*
X15907238Y-16255512D01*
X15812000Y-16274559D01*
X16078667Y-16341226D02*
X16078667Y-16141226D01*
X16078667Y-16331702D02*
X16059619Y-16341226D01*
X16021524Y-16341226D01*
X16002476Y-16331702D01*
X15992952Y-16322178D01*
X15983428Y-16303131D01*
X15983428Y-16245988D01*
X15992952Y-16226940D01*
X16002476Y-16217417D01*
X16021524Y-16207893D01*
X16059619Y-16207893D01*
X16078667Y-16217417D01*
X16154857Y-16417417D02*
X16164381Y-16407893D01*
X16183428Y-16379321D01*
X16192952Y-16360274D01*
X16202476Y-16331702D01*
X16212000Y-16284083D01*
X16212000Y-16245988D01*
X16202476Y-16198369D01*
X16192952Y-16169798D01*
X16183428Y-16150750D01*
X16164381Y-16122178D01*
X16154857Y-16112655D01*
M02*
