%TF.GenerationSoftware,KiCad,Pcbnew,(6.0.0)*%
%TF.CreationDate,2022-03-28T07:33:37-07:00*%
%TF.ProjectId,flex-24_panel,666c6578-2d32-4345-9f70-616e656c2e6b,A*%
%TF.SameCoordinates,Original*%
%TF.FileFunction,Legend,Top*%
%TF.FilePolarity,Positive*%
%FSLAX46Y46*%
G04 Gerber Fmt 4.6, Leading zero omitted, Abs format (unit mm)*
G04 Created by KiCad (PCBNEW (6.0.0)) date 2022-03-28 07:33:37*
%MOMM*%
%LPD*%
G01*
G04 APERTURE LIST*
%ADD10C,0.150000*%
%ADD11C,0.300000*%
G04 APERTURE END LIST*
D10*
X122045000Y-42182500D02*
X110645000Y-42182500D01*
X183445000Y-42182500D02*
X172045000Y-42182500D01*
X179845000Y-97285864D02*
X175645000Y-97282500D01*
X152445000Y-42185864D02*
X140945000Y-42182500D01*
X148945000Y-121735865D02*
X144545000Y-121735865D01*
X118345000Y-146545376D02*
X114045000Y-146545376D01*
D11*
X155806904Y-147238145D02*
X155806904Y-145238145D01*
X156568809Y-145238145D01*
X156759285Y-145333384D01*
X156854523Y-145428622D01*
X156949761Y-145619098D01*
X156949761Y-145904812D01*
X156854523Y-146095288D01*
X156759285Y-146190526D01*
X156568809Y-146285764D01*
X155806904Y-146285764D01*
X158664047Y-145904812D02*
X158664047Y-147238145D01*
X157806904Y-145904812D02*
X157806904Y-146952431D01*
X157902142Y-147142907D01*
X158092619Y-147238145D01*
X158378333Y-147238145D01*
X158568809Y-147142907D01*
X158664047Y-147047669D01*
X159616428Y-145904812D02*
X159616428Y-147904812D01*
X159616428Y-146000050D02*
X159806904Y-145904812D01*
X160187857Y-145904812D01*
X160378333Y-146000050D01*
X160473571Y-146095288D01*
X160568809Y-146285764D01*
X160568809Y-146857193D01*
X160473571Y-147047669D01*
X160378333Y-147142907D01*
X160187857Y-147238145D01*
X159806904Y-147238145D01*
X159616428Y-147142907D01*
X162283095Y-147238145D02*
X162283095Y-145238145D01*
X162283095Y-147142907D02*
X162092619Y-147238145D01*
X161711666Y-147238145D01*
X161521190Y-147142907D01*
X161425952Y-147047669D01*
X161330714Y-146857193D01*
X161330714Y-146285764D01*
X161425952Y-146095288D01*
X161521190Y-146000050D01*
X161711666Y-145904812D01*
X162092619Y-145904812D01*
X162283095Y-146000050D01*
X163235476Y-147238145D02*
X163235476Y-145904812D01*
X163235476Y-146285764D02*
X163330714Y-146095288D01*
X163425952Y-146000050D01*
X163616428Y-145904812D01*
X163806904Y-145904812D01*
X164473571Y-147238145D02*
X164473571Y-145904812D01*
X164473571Y-145238145D02*
X164378333Y-145333384D01*
X164473571Y-145428622D01*
X164568809Y-145333384D01*
X164473571Y-145238145D01*
X164473571Y-145428622D01*
X165235476Y-145904812D02*
X165711666Y-147238145D01*
X166187857Y-145904812D01*
X167711666Y-147142907D02*
X167521190Y-147238145D01*
X167140238Y-147238145D01*
X166949761Y-147142907D01*
X166854523Y-146952431D01*
X166854523Y-146190526D01*
X166949761Y-146000050D01*
X167140238Y-145904812D01*
X167521190Y-145904812D01*
X167711666Y-146000050D01*
X167806904Y-146190526D01*
X167806904Y-146381003D01*
X166854523Y-146571479D01*
X170854523Y-146190526D02*
X170187857Y-146190526D01*
X170187857Y-147238145D02*
X170187857Y-145238145D01*
X171140238Y-145238145D01*
X172187857Y-147238145D02*
X171997380Y-147142907D01*
X171902142Y-146952431D01*
X171902142Y-145238145D01*
X173711666Y-147142907D02*
X173521190Y-147238145D01*
X173140238Y-147238145D01*
X172949761Y-147142907D01*
X172854523Y-146952431D01*
X172854523Y-146190526D01*
X172949761Y-146000050D01*
X173140238Y-145904812D01*
X173521190Y-145904812D01*
X173711666Y-146000050D01*
X173806904Y-146190526D01*
X173806904Y-146381003D01*
X172854523Y-146571479D01*
X174473571Y-147238145D02*
X175521190Y-145904812D01*
X174473571Y-145904812D02*
X175521190Y-147238145D01*
X178949761Y-147238145D02*
X178283095Y-146285764D01*
X177806904Y-147238145D02*
X177806904Y-145238145D01*
X178568809Y-145238145D01*
X178759285Y-145333384D01*
X178854523Y-145428622D01*
X178949761Y-145619098D01*
X178949761Y-145904812D01*
X178854523Y-146095288D01*
X178759285Y-146190526D01*
X178568809Y-146285764D01*
X177806904Y-146285764D01*
X180568809Y-147142907D02*
X180378333Y-147238145D01*
X179997380Y-147238145D01*
X179806904Y-147142907D01*
X179711666Y-146952431D01*
X179711666Y-146190526D01*
X179806904Y-146000050D01*
X179997380Y-145904812D01*
X180378333Y-145904812D01*
X180568809Y-146000050D01*
X180664047Y-146190526D01*
X180664047Y-146381003D01*
X179711666Y-146571479D01*
X181330714Y-145904812D02*
X181806904Y-147238145D01*
X182283095Y-145904812D01*
X183045000Y-147047669D02*
X183140238Y-147142907D01*
X183045000Y-147238145D01*
X182949761Y-147142907D01*
X183045000Y-147047669D01*
X183045000Y-147238145D01*
X185425952Y-146666717D02*
X186378333Y-146666717D01*
X185235476Y-147238145D02*
X185902142Y-145238145D01*
X186568809Y-147238145D01*
D10*
%TO.C,J2*%
X177396666Y-47538244D02*
X177396666Y-48252530D01*
X177349047Y-48395387D01*
X177253809Y-48490625D01*
X177110952Y-48538244D01*
X177015714Y-48538244D01*
X177825238Y-47633483D02*
X177872857Y-47585864D01*
X177968095Y-47538244D01*
X178206190Y-47538244D01*
X178301428Y-47585864D01*
X178349047Y-47633483D01*
X178396666Y-47728721D01*
X178396666Y-47823959D01*
X178349047Y-47966816D01*
X177777619Y-48538244D01*
X178396666Y-48538244D01*
%TO.C,*%
%TO.C,J2*%
X115896666Y-47538244D02*
X115896666Y-48252530D01*
X115849047Y-48395387D01*
X115753809Y-48490625D01*
X115610952Y-48538244D01*
X115515714Y-48538244D01*
X116325238Y-47633483D02*
X116372857Y-47585864D01*
X116468095Y-47538244D01*
X116706190Y-47538244D01*
X116801428Y-47585864D01*
X116849047Y-47633483D01*
X116896666Y-47728721D01*
X116896666Y-47823959D01*
X116849047Y-47966816D01*
X116277619Y-48538244D01*
X116896666Y-48538244D01*
X146396666Y-47538244D02*
X146396666Y-48252530D01*
X146349047Y-48395387D01*
X146253809Y-48490625D01*
X146110952Y-48538244D01*
X146015714Y-48538244D01*
X146825238Y-47633483D02*
X146872857Y-47585864D01*
X146968095Y-47538244D01*
X147206190Y-47538244D01*
X147301428Y-47585864D01*
X147349047Y-47633483D01*
X147396666Y-47728721D01*
X147396666Y-47823959D01*
X147349047Y-47966816D01*
X146777619Y-48538244D01*
X147396666Y-48538244D01*
%TD*%
M02*
