%TF.GenerationSoftware,KiCad,Pcbnew,(6.0.0)*%
%TF.CreationDate,2022-03-28T07:33:37-07:00*%
%TF.ProjectId,flex-24_panel,666c6578-2d32-4345-9f70-616e656c2e6b,A*%
%TF.SameCoordinates,Original*%
%TF.FileFunction,Paste,Bot*%
%TF.FilePolarity,Positive*%
%FSLAX46Y46*%
G04 Gerber Fmt 4.6, Leading zero omitted, Abs format (unit mm)*
G04 Created by KiCad (PCBNEW (6.0.0)) date 2022-03-28 07:33:37*
%MOMM*%
%LPD*%
G01*
G04 APERTURE LIST*
%ADD10R,0.180000X0.400000*%
%ADD11R,0.400000X0.385000*%
G04 APERTURE END LIST*
D10*
%TO.C,J1*%
X179655000Y-96135864D03*
X179655000Y-94235864D03*
X179305000Y-96135864D03*
X179305000Y-94235864D03*
X178955000Y-96135864D03*
X178955000Y-94235864D03*
X178605000Y-96135864D03*
X178605000Y-94235864D03*
X178255000Y-96135864D03*
X178255000Y-94235864D03*
X177905000Y-96135864D03*
X177905000Y-94235864D03*
X177555000Y-96135864D03*
X177555000Y-94235864D03*
X177205000Y-96135864D03*
X177205000Y-94235864D03*
X176855000Y-96135864D03*
X176855000Y-94235864D03*
X176505000Y-96135864D03*
X176505000Y-94235864D03*
X176155000Y-96135864D03*
X176155000Y-94235864D03*
X175805000Y-96135864D03*
X175805000Y-94235864D03*
D11*
X180935000Y-95668364D03*
X180935000Y-94703364D03*
X174525000Y-95668364D03*
X174525000Y-94703364D03*
%TD*%
D10*
%TO.C,J1*%
X148655000Y-120585865D03*
X148655000Y-118685865D03*
X148305000Y-120585865D03*
X148305000Y-118685865D03*
X147955000Y-120585865D03*
X147955000Y-118685865D03*
X147605000Y-120585865D03*
X147605000Y-118685865D03*
X147255000Y-120585865D03*
X147255000Y-118685865D03*
X146905000Y-120585865D03*
X146905000Y-118685865D03*
X146555000Y-120585865D03*
X146555000Y-118685865D03*
X146205000Y-120585865D03*
X146205000Y-118685865D03*
X145855000Y-120585865D03*
X145855000Y-118685865D03*
X145505000Y-120585865D03*
X145505000Y-118685865D03*
X145155000Y-120585865D03*
X145155000Y-118685865D03*
X144805000Y-120585865D03*
X144805000Y-118685865D03*
D11*
X149935000Y-120118365D03*
X149935000Y-119153365D03*
X143525000Y-120118365D03*
X143525000Y-119153365D03*
%TD*%
D10*
%TO.C,J1*%
X118155000Y-145395376D03*
X118155000Y-143495376D03*
X117805000Y-145395376D03*
X117805000Y-143495376D03*
X117455000Y-145395376D03*
X117455000Y-143495376D03*
X117105000Y-145395376D03*
X117105000Y-143495376D03*
X116755000Y-145395376D03*
X116755000Y-143495376D03*
X116405000Y-145395376D03*
X116405000Y-143495376D03*
X116055000Y-145395376D03*
X116055000Y-143495376D03*
X115705000Y-145395376D03*
X115705000Y-143495376D03*
X115355000Y-145395376D03*
X115355000Y-143495376D03*
X115005000Y-145395376D03*
X115005000Y-143495376D03*
X114655000Y-145395376D03*
X114655000Y-143495376D03*
X114305000Y-145395376D03*
X114305000Y-143495376D03*
D11*
X119435000Y-144927876D03*
X119435000Y-143962876D03*
X113025000Y-144927876D03*
X113025000Y-143962876D03*
%TD*%
M02*
