%FSLAX45Y45*%
G04 Gerber Fmt 4.5, Leading zero omitted, Abs format (unit mm)*
G04 Created by KiCad (PCBNEW (6.0.0)) date 2022-03-28 07:33:32*
%MOMM*%
%LPD*%
G01*
G04 APERTURE LIST*
%TA.AperFunction,Profile*%
%ADD10C,0.050000*%
%TD*%
%ADD11C,0.200000*%
%ADD12C,0.020000*%
G04 APERTURE END LIST*
D10*
X18423000Y-4818586D02*
G75*
G03*
X18023000Y-5218586I0J-400000D01*
G01*
X18023000Y-9137635D02*
G75*
G03*
X18143000Y-9318586I208355J7908D01*
G01*
X17403000Y-9318586D02*
G75*
G03*
X17523000Y-9137635I-88355J188859D01*
G01*
X14923000Y-11582635D02*
G75*
G03*
X15043000Y-11763586I208355J7908D01*
G01*
X14303000Y-11763586D02*
G75*
G03*
X14423000Y-11582635I-88355J188859D01*
G01*
X17523000Y-5218586D02*
G75*
G03*
X17123000Y-4818586I-400000J0D01*
G01*
X14123000Y-5218586D02*
G75*
G03*
X13723000Y-4818586I-400000J0D01*
G01*
X14423000Y-9818586D02*
X14123000Y-5218586D01*
X14223000Y-9818586D02*
X13915289Y-5118586D01*
X13915289Y-5118586D02*
G75*
G03*
X13815289Y-5018586I-100000J0D01*
G01*
X15430711Y-5118586D02*
X15123000Y-9818586D01*
X15623000Y-4818586D02*
G75*
G03*
X15223000Y-5218586I0J-400000D01*
G01*
X13623711Y-5018586D02*
X13815289Y-5018586D01*
X15530711Y-5018586D02*
G75*
G03*
X15430711Y-5118586I0J-100000D01*
G01*
X15223000Y-5218586D02*
X14923000Y-9818586D01*
X15530711Y-5018586D02*
X15723000Y-5018586D01*
X16723711Y-5018586D02*
X17223000Y-5018586D01*
X18323000Y-5018586D02*
X18822289Y-5018586D01*
X18723000Y-4818586D02*
X18423000Y-4818586D01*
X17323000Y-5118586D02*
G75*
G03*
X17223000Y-5018586I-100000J0D01*
G01*
X17123000Y-4818586D02*
X16823000Y-4818586D01*
X18323000Y-5018586D02*
G75*
G03*
X18223000Y-5118586I0J-100000D01*
G01*
X11073000Y-5218586D02*
G75*
G03*
X10673000Y-4818586I-400000J0D01*
G01*
X11373000Y-9818586D02*
X11073000Y-5218586D01*
X11173000Y-9818586D02*
X10865289Y-5118586D01*
X10865289Y-5118586D02*
G75*
G03*
X10765289Y-5018586I-100000J0D01*
G01*
X10573711Y-5018586D02*
X10765289Y-5018586D01*
X12380711Y-5118586D02*
X12073000Y-9818586D01*
X12573000Y-4818586D02*
G75*
G03*
X12173000Y-5218586I0J-400000D01*
G01*
X11873000Y-14063586D02*
G75*
G03*
X11993000Y-14244538I208355J7908D01*
G01*
X18723000Y-4218586D02*
X18423000Y-4218586D01*
X12273000Y-4018586D02*
G75*
G03*
X12273000Y-4218586I0J-100000D01*
G01*
X11913000Y-14654538D02*
G75*
G03*
X11913000Y-14854538I0J-100000D01*
G01*
X18723000Y-4818586D02*
X18723000Y-4218586D01*
X14303000Y-12173586D02*
X14303000Y-11763586D01*
X18823000Y-5018586D02*
G75*
G03*
X18923000Y-4918586I0J100000D01*
G01*
X11373000Y-14063586D02*
X11373000Y-9818586D01*
X15123000Y-11463586D02*
X15123000Y-11213586D01*
X18023000Y-5218586D02*
X18023000Y-9137635D01*
X12193000Y-14064538D02*
G75*
G03*
X12133000Y-14004538I-60000J0D01*
G01*
X10473000Y-4818586D02*
X10473000Y-4918586D01*
X15243000Y-11583586D02*
G75*
G03*
X15183000Y-11523586I-60000J0D01*
G01*
X11253000Y-14654537D02*
X11333000Y-14654537D01*
X14023000Y-4218586D02*
X13723000Y-4218586D01*
X18823000Y-4018586D02*
X18423000Y-4018586D01*
X16623000Y-4918586D02*
G75*
G03*
X16723000Y-5018586I100000J0D01*
G01*
X16623000Y-4818586D02*
X16623000Y-4918586D01*
X12773000Y-4818586D02*
X12773000Y-4918586D01*
X18343000Y-9828586D02*
X18343000Y-9318586D01*
X15823000Y-4818586D02*
X15823000Y-4118586D01*
X10973000Y-4218586D02*
X10673000Y-4218586D01*
X14023000Y-4218586D02*
G75*
G03*
X14023000Y-4018586I0J100000D01*
G01*
X17203000Y-9828586D02*
G75*
G03*
X17303000Y-9928586I100000J0D01*
G01*
X17263000Y-9078586D02*
G75*
G03*
X17203000Y-9138586I0J-60000D01*
G01*
X14963000Y-12173586D02*
X15043000Y-12173586D01*
X17123000Y-4218586D02*
G75*
G03*
X17123000Y-4018586I0J100000D01*
G01*
X17203000Y-9318586D02*
X17203000Y-9828586D01*
X13523000Y-4118586D02*
X13523000Y-4818586D01*
X11253000Y-14244538D02*
G75*
G03*
X11373000Y-14063586I-88355J188859D01*
G01*
X17203000Y-9138586D02*
X17203000Y-9318586D01*
X14203000Y-12373586D02*
X14383000Y-12373586D01*
X14963000Y-12373586D02*
X15143000Y-12373586D01*
X12193000Y-14754538D02*
X12193000Y-14244538D01*
X15623000Y-4218586D02*
X15323000Y-4218586D01*
X17403000Y-9728586D02*
X17483000Y-9728586D01*
X17323000Y-5118586D02*
X17323000Y-8768586D01*
X12480711Y-5018586D02*
X12673000Y-5018586D01*
X15623000Y-4818586D02*
X15623000Y-4218586D01*
X18223000Y-8768586D02*
X18223000Y-5118586D01*
X11913000Y-14654538D02*
X11993000Y-14654538D01*
X11053000Y-14064538D02*
X11053000Y-14244538D01*
X12193000Y-14064538D02*
X12193000Y-14244538D01*
X14383000Y-12373586D02*
G75*
G03*
X14383000Y-12173586I0J100000D01*
G01*
X13723000Y-4818586D02*
X13723000Y-4218586D01*
X14423000Y-11582635D02*
X14423000Y-9818586D01*
X18063000Y-9728586D02*
G75*
G03*
X18063000Y-9928586I0J-100000D01*
G01*
X13623000Y-4018586D02*
G75*
G03*
X13523000Y-4118586I0J-100000D01*
G01*
X14103000Y-11763586D02*
X14103000Y-12273586D01*
X18223000Y-9018586D02*
G75*
G03*
X18283000Y-9078586I60000J0D01*
G01*
X17323000Y-8768586D02*
X17323000Y-9018586D01*
X14923000Y-9818586D02*
X14923000Y-11582635D01*
X11173000Y-13694538D02*
X11173000Y-13944538D01*
X10973000Y-4018586D02*
X10573000Y-4018586D01*
X18923000Y-4818586D02*
X18923000Y-4118586D01*
X17263000Y-9078586D02*
G75*
G03*
X17323000Y-9018586I0J60000D01*
G01*
X18143000Y-9318586D02*
X18143000Y-9728586D01*
X12093000Y-14854538D02*
G75*
G03*
X12193000Y-14754538I0J100000D01*
G01*
X12173000Y-5218586D02*
X11873000Y-9818586D01*
X11873000Y-9818586D02*
X11873000Y-14063586D01*
X15243000Y-12273586D02*
X15243000Y-11763586D01*
X12673000Y-5018586D02*
G75*
G03*
X12773000Y-4918586I0J100000D01*
G01*
X12573000Y-4218586D02*
X12273000Y-4218586D01*
X18923000Y-4818586D02*
X18923000Y-4918586D01*
X12073000Y-13944538D02*
X12073000Y-13694538D01*
X18243000Y-9928586D02*
G75*
G03*
X18343000Y-9828586I0J100000D01*
G01*
X11253000Y-14654538D02*
X11253000Y-14244538D01*
X16623000Y-4118586D02*
X16623000Y-4818586D01*
X14103000Y-12273586D02*
G75*
G03*
X14203000Y-12373586I100000J0D01*
G01*
X11913000Y-14854538D02*
X12093000Y-14854538D01*
X11053000Y-14754537D02*
G75*
G03*
X11153000Y-14854537I100000J0D01*
G01*
X11173000Y-9818586D02*
X11173000Y-13694538D01*
X14163000Y-11523586D02*
G75*
G03*
X14103000Y-11583586I0J-60000D01*
G01*
X18063000Y-9728586D02*
X18143000Y-9728586D01*
X12573000Y-4818586D02*
X12573000Y-4218586D01*
X11113000Y-14004538D02*
G75*
G03*
X11053000Y-14064538I0J-60000D01*
G01*
X11333000Y-14854537D02*
G75*
G03*
X11333000Y-14654537I0J100000D01*
G01*
X14163000Y-11523586D02*
G75*
G03*
X14223000Y-11463586I0J60000D01*
G01*
X15323000Y-4018586D02*
G75*
G03*
X15323000Y-4218586I0J-100000D01*
G01*
X11153000Y-14854537D02*
X11333000Y-14854537D01*
X11113000Y-14004538D02*
G75*
G03*
X11173000Y-13944538I0J60000D01*
G01*
X15723000Y-4018586D02*
X15323000Y-4018586D01*
X15123000Y-11463586D02*
G75*
G03*
X15183000Y-11523586I60000J0D01*
G01*
X9404500Y-3108250D02*
X19904500Y-3108250D01*
X19904500Y-3108250D02*
X19904500Y-15608250D01*
X19904500Y-15608250D02*
X9404500Y-15608250D01*
X9404500Y-15608250D02*
X9404500Y-3108250D01*
X14223000Y-9818586D02*
X14223000Y-11213586D01*
X17483000Y-9928586D02*
G75*
G03*
X17483000Y-9728586I0J100000D01*
G01*
X15823000Y-4118586D02*
G75*
G03*
X15723000Y-4018586I-100000J0D01*
G01*
X11993000Y-14244538D02*
X11993000Y-14654538D01*
X12073000Y-13694538D02*
X12073000Y-9818586D01*
X18343000Y-9138586D02*
G75*
G03*
X18283000Y-9078586I-60000J0D01*
G01*
X14023000Y-4018586D02*
X13623000Y-4018586D01*
X14303000Y-12173586D02*
X14383000Y-12173586D01*
X18343000Y-9138586D02*
X18343000Y-9318586D01*
X17303000Y-9928586D02*
X17483000Y-9928586D01*
X15043000Y-11763586D02*
X15043000Y-12173586D01*
X15723000Y-5018586D02*
G75*
G03*
X15823000Y-4918586I0J100000D01*
G01*
X17523000Y-9137635D02*
X17523000Y-5218586D01*
X17123000Y-4018586D02*
X16723000Y-4018586D01*
X11053000Y-14244538D02*
X11053000Y-14754537D01*
X14963000Y-12173586D02*
G75*
G03*
X14963000Y-12373586I0J-100000D01*
G01*
X14223000Y-11213586D02*
X14223000Y-11463586D01*
X12773000Y-4818586D02*
X12773000Y-4118586D01*
X12673000Y-4018586D02*
X12273000Y-4018586D01*
X14103000Y-11583586D02*
X14103000Y-11763586D01*
X18923000Y-4118586D02*
G75*
G03*
X18823000Y-4018586I-100000J0D01*
G01*
X16723000Y-4018586D02*
G75*
G03*
X16623000Y-4118586I0J-100000D01*
G01*
X16823000Y-4818586D02*
X16823000Y-4218586D01*
X12073000Y-13944538D02*
G75*
G03*
X12133000Y-14004538I60000J0D01*
G01*
X17123000Y-4218586D02*
X16823000Y-4218586D01*
X17403000Y-9728586D02*
X17403000Y-9318586D01*
X15143000Y-12373586D02*
G75*
G03*
X15243000Y-12273586I0J100000D01*
G01*
X18063000Y-9928586D02*
X18243000Y-9928586D01*
X13523000Y-4818586D02*
X13523000Y-4918586D01*
X12773000Y-4118586D02*
G75*
G03*
X12673000Y-4018586I-100000J0D01*
G01*
X15243000Y-11583586D02*
X15243000Y-11763586D01*
X10473000Y-4118586D02*
X10473000Y-4818586D01*
X12480711Y-5018586D02*
G75*
G03*
X12380711Y-5118586I0J-100000D01*
G01*
X15123000Y-11213586D02*
X15123000Y-9818586D01*
X18223000Y-9018586D02*
X18223000Y-8768586D01*
X15823000Y-4818586D02*
X15823000Y-4918586D01*
X10573000Y-4018586D02*
G75*
G03*
X10473000Y-4118586I0J-100000D01*
G01*
X10973000Y-4218586D02*
G75*
G03*
X10973000Y-4018586I0J100000D01*
G01*
X10473000Y-4918586D02*
G75*
G03*
X10573000Y-5018586I100000J0D01*
G01*
X10673000Y-4818586D02*
X10673000Y-4218586D01*
X13523000Y-4918586D02*
G75*
G03*
X13623000Y-5018586I100000J0D01*
G01*
X18423000Y-4018586D02*
G75*
G03*
X18423000Y-4218586I0J-100000D01*
G01*
D11*
D12*
X10713000Y-4308586D02*
X10733000Y-4328586D01*
X10733000Y-4308586D02*
X10713000Y-4328586D01*
X10713000Y-4508586D02*
X10733000Y-4528586D01*
X10733000Y-4508586D02*
X10713000Y-4528586D01*
X10713000Y-4708586D02*
X10733000Y-4728586D01*
X10733000Y-4708586D02*
X10713000Y-4728586D01*
X10913000Y-4508586D02*
X10933000Y-4528586D01*
X10933000Y-4508586D02*
X10913000Y-4528586D01*
X11113000Y-4508586D02*
X11133000Y-4528586D01*
X11133000Y-4508586D02*
X11113000Y-4528586D01*
X11313000Y-4508586D02*
X11333000Y-4528586D01*
X11333000Y-4508586D02*
X11313000Y-4528586D01*
X11343727Y-14597538D02*
X11363727Y-14617538D01*
X11363727Y-14597538D02*
X11343727Y-14617538D01*
X11373000Y-4458586D02*
X11393000Y-4478586D01*
X11393000Y-4458586D02*
X11373000Y-4478586D01*
X11392909Y-14597538D02*
X11412909Y-14617538D01*
X11412909Y-14597538D02*
X11392909Y-14617538D01*
X11413000Y-4488586D02*
X11433000Y-4508586D01*
X11433000Y-4488586D02*
X11413000Y-4508586D01*
X11442091Y-14597538D02*
X11462091Y-14617538D01*
X11462091Y-14597538D02*
X11442091Y-14617538D01*
X11453000Y-4458586D02*
X11473000Y-4478586D01*
X11473000Y-4458586D02*
X11453000Y-4478586D01*
X11491273Y-14597538D02*
X11511273Y-14617538D01*
X11511273Y-14597538D02*
X11491273Y-14617538D01*
X11493000Y-4488586D02*
X11513000Y-4508586D01*
X11513000Y-4488586D02*
X11493000Y-4508586D01*
X11533000Y-4458586D02*
X11553000Y-4478586D01*
X11553000Y-4458586D02*
X11533000Y-4478586D01*
X11540455Y-14597538D02*
X11560455Y-14617538D01*
X11560455Y-14597538D02*
X11540455Y-14617538D01*
X11573000Y-4488586D02*
X11593000Y-4508586D01*
X11593000Y-4488586D02*
X11573000Y-4508586D01*
X11589636Y-14597538D02*
X11609636Y-14617538D01*
X11609636Y-14597538D02*
X11589636Y-14617538D01*
X11613000Y-4458586D02*
X11633000Y-4478586D01*
X11633000Y-4458586D02*
X11613000Y-4478586D01*
X11638818Y-14597538D02*
X11658818Y-14617538D01*
X11658818Y-14597538D02*
X11638818Y-14617538D01*
X11653000Y-4488586D02*
X11673000Y-4508586D01*
X11673000Y-4488586D02*
X11653000Y-4508586D01*
X11688000Y-14597538D02*
X11708000Y-14617538D01*
X11708000Y-14597538D02*
X11688000Y-14617538D01*
X11693000Y-4458586D02*
X11713000Y-4478586D01*
X11713000Y-4458586D02*
X11693000Y-4478586D01*
X11733000Y-4488586D02*
X11753000Y-4508586D01*
X11753000Y-4488586D02*
X11733000Y-4508586D01*
X11737182Y-14597538D02*
X11757182Y-14617538D01*
X11757182Y-14597538D02*
X11737182Y-14617538D01*
X11773000Y-4458586D02*
X11793000Y-4478586D01*
X11793000Y-4458586D02*
X11773000Y-4478586D01*
X11786364Y-14597538D02*
X11806364Y-14617538D01*
X11806364Y-14597538D02*
X11786364Y-14617538D01*
X11813000Y-4488586D02*
X11833000Y-4508586D01*
X11833000Y-4488586D02*
X11813000Y-4508586D01*
X11835545Y-14597538D02*
X11855545Y-14617538D01*
X11855545Y-14597538D02*
X11835545Y-14617538D01*
X11884727Y-14597538D02*
X11904727Y-14617538D01*
X11904727Y-14597538D02*
X11884727Y-14617538D01*
X11913000Y-4508586D02*
X11933000Y-4528586D01*
X11933000Y-4508586D02*
X11913000Y-4528586D01*
X12113000Y-4508586D02*
X12133000Y-4528586D01*
X12133000Y-4508586D02*
X12113000Y-4528586D01*
X12250000Y-4490000D02*
X12270000Y-4510000D01*
X12270000Y-4490000D02*
X12250000Y-4510000D01*
X12313000Y-4508586D02*
X12333000Y-4528586D01*
X12333000Y-4508586D02*
X12313000Y-4528586D01*
X12513000Y-4308586D02*
X12533000Y-4328586D01*
X12533000Y-4308586D02*
X12513000Y-4328586D01*
X12513000Y-4508586D02*
X12533000Y-4528586D01*
X12533000Y-4508586D02*
X12513000Y-4528586D01*
X12513000Y-4708586D02*
X12533000Y-4728586D01*
X12533000Y-4708586D02*
X12513000Y-4728586D01*
X13763000Y-4308586D02*
X13783000Y-4328586D01*
X13783000Y-4308586D02*
X13763000Y-4328586D01*
X13763000Y-4508586D02*
X13783000Y-4528586D01*
X13783000Y-4508586D02*
X13763000Y-4528586D01*
X13763000Y-4708586D02*
X13783000Y-4728586D01*
X13783000Y-4708586D02*
X13763000Y-4728586D01*
X13963000Y-4508586D02*
X13983000Y-4528586D01*
X13983000Y-4508586D02*
X13963000Y-4528586D01*
X14163000Y-4508586D02*
X14183000Y-4528586D01*
X14183000Y-4508586D02*
X14163000Y-4528586D01*
X14363000Y-4508586D02*
X14383000Y-4528586D01*
X14383000Y-4508586D02*
X14363000Y-4528586D01*
X14393727Y-12116586D02*
X14413727Y-12136586D01*
X14413727Y-12116586D02*
X14393727Y-12136586D01*
X14423000Y-4458586D02*
X14443000Y-4478586D01*
X14443000Y-4458586D02*
X14423000Y-4478586D01*
X14442909Y-12116586D02*
X14462909Y-12136586D01*
X14462909Y-12116586D02*
X14442909Y-12136586D01*
X14463000Y-4488586D02*
X14483000Y-4508586D01*
X14483000Y-4488586D02*
X14463000Y-4508586D01*
X14492091Y-12116586D02*
X14512091Y-12136586D01*
X14512091Y-12116586D02*
X14492091Y-12136586D01*
X14503000Y-4458586D02*
X14523000Y-4478586D01*
X14523000Y-4458586D02*
X14503000Y-4478586D01*
X14541273Y-12116586D02*
X14561273Y-12136586D01*
X14561273Y-12116586D02*
X14541273Y-12136586D01*
X14543000Y-4488586D02*
X14563000Y-4508586D01*
X14563000Y-4488586D02*
X14543000Y-4508586D01*
X14583000Y-4458586D02*
X14603000Y-4478586D01*
X14603000Y-4458586D02*
X14583000Y-4478586D01*
X14590455Y-12116586D02*
X14610455Y-12136586D01*
X14610455Y-12116586D02*
X14590455Y-12136586D01*
X14623000Y-4488586D02*
X14643000Y-4508586D01*
X14643000Y-4488586D02*
X14623000Y-4508586D01*
X14639636Y-12116586D02*
X14659636Y-12136586D01*
X14659636Y-12116586D02*
X14639636Y-12136586D01*
X14663000Y-4458586D02*
X14683000Y-4478586D01*
X14683000Y-4458586D02*
X14663000Y-4478586D01*
X14688818Y-12116586D02*
X14708818Y-12136586D01*
X14708818Y-12116586D02*
X14688818Y-12136586D01*
X14703000Y-4488586D02*
X14723000Y-4508586D01*
X14723000Y-4488586D02*
X14703000Y-4508586D01*
X14738000Y-12116586D02*
X14758000Y-12136586D01*
X14758000Y-12116586D02*
X14738000Y-12136586D01*
X14743000Y-4458586D02*
X14763000Y-4478586D01*
X14763000Y-4458586D02*
X14743000Y-4478586D01*
X14783000Y-4488586D02*
X14803000Y-4508586D01*
X14803000Y-4488586D02*
X14783000Y-4508586D01*
X14787182Y-12116586D02*
X14807182Y-12136586D01*
X14807182Y-12116586D02*
X14787182Y-12136586D01*
X14823000Y-4458586D02*
X14843000Y-4478586D01*
X14843000Y-4458586D02*
X14823000Y-4478586D01*
X14836364Y-12116586D02*
X14856364Y-12136586D01*
X14856364Y-12116586D02*
X14836364Y-12136586D01*
X14863000Y-4488586D02*
X14883000Y-4508586D01*
X14883000Y-4488586D02*
X14863000Y-4508586D01*
X14885545Y-12116586D02*
X14905545Y-12136586D01*
X14905545Y-12116586D02*
X14885545Y-12136586D01*
X14934727Y-12116586D02*
X14954727Y-12136586D01*
X14954727Y-12116586D02*
X14934727Y-12136586D01*
X14963000Y-4508586D02*
X14983000Y-4528586D01*
X14983000Y-4508586D02*
X14963000Y-4528586D01*
X15163000Y-4508586D02*
X15183000Y-4528586D01*
X15183000Y-4508586D02*
X15163000Y-4528586D01*
X15288000Y-4498586D02*
X15308000Y-4518586D01*
X15308000Y-4498586D02*
X15288000Y-4518586D01*
X15363000Y-4508586D02*
X15383000Y-4528586D01*
X15383000Y-4508586D02*
X15363000Y-4528586D01*
X15563000Y-4308586D02*
X15583000Y-4328586D01*
X15583000Y-4308586D02*
X15563000Y-4328586D01*
X15563000Y-4508586D02*
X15583000Y-4528586D01*
X15583000Y-4508586D02*
X15563000Y-4528586D01*
X15563000Y-4708586D02*
X15583000Y-4728586D01*
X15583000Y-4708586D02*
X15563000Y-4728586D01*
X16863000Y-4308586D02*
X16883000Y-4328586D01*
X16883000Y-4308586D02*
X16863000Y-4328586D01*
X16863000Y-4508586D02*
X16883000Y-4528586D01*
X16883000Y-4508586D02*
X16863000Y-4528586D01*
X16863000Y-4708586D02*
X16883000Y-4728586D01*
X16883000Y-4708586D02*
X16863000Y-4728586D01*
X17063000Y-4508586D02*
X17083000Y-4528586D01*
X17083000Y-4508586D02*
X17063000Y-4528586D01*
X17263000Y-4508586D02*
X17283000Y-4528586D01*
X17283000Y-4508586D02*
X17263000Y-4528586D01*
X17463000Y-4508586D02*
X17483000Y-4528586D01*
X17483000Y-4508586D02*
X17463000Y-4528586D01*
X17493727Y-9671586D02*
X17513727Y-9691586D01*
X17513727Y-9671586D02*
X17493727Y-9691586D01*
X17523000Y-4458586D02*
X17543000Y-4478586D01*
X17543000Y-4458586D02*
X17523000Y-4478586D01*
X17542909Y-9671586D02*
X17562909Y-9691586D01*
X17562909Y-9671586D02*
X17542909Y-9691586D01*
X17563000Y-4488586D02*
X17583000Y-4508586D01*
X17583000Y-4488586D02*
X17563000Y-4508586D01*
X17592091Y-9671586D02*
X17612091Y-9691586D01*
X17612091Y-9671586D02*
X17592091Y-9691586D01*
X17603000Y-4458586D02*
X17623000Y-4478586D01*
X17623000Y-4458586D02*
X17603000Y-4478586D01*
X17641273Y-9671586D02*
X17661273Y-9691586D01*
X17661273Y-9671586D02*
X17641273Y-9691586D01*
X17643000Y-4488586D02*
X17663000Y-4508586D01*
X17663000Y-4488586D02*
X17643000Y-4508586D01*
X17683000Y-4458586D02*
X17703000Y-4478586D01*
X17703000Y-4458586D02*
X17683000Y-4478586D01*
X17690455Y-9671586D02*
X17710455Y-9691586D01*
X17710455Y-9671586D02*
X17690455Y-9691586D01*
X17723000Y-4488586D02*
X17743000Y-4508586D01*
X17743000Y-4488586D02*
X17723000Y-4508586D01*
X17739636Y-9671586D02*
X17759636Y-9691586D01*
X17759636Y-9671586D02*
X17739636Y-9691586D01*
X17763000Y-4458586D02*
X17783000Y-4478586D01*
X17783000Y-4458586D02*
X17763000Y-4478586D01*
X17788818Y-9671586D02*
X17808818Y-9691586D01*
X17808818Y-9671586D02*
X17788818Y-9691586D01*
X17803000Y-4488586D02*
X17823000Y-4508586D01*
X17823000Y-4488586D02*
X17803000Y-4508586D01*
X17838000Y-9671586D02*
X17858000Y-9691586D01*
X17858000Y-9671586D02*
X17838000Y-9691586D01*
X17843000Y-4458586D02*
X17863000Y-4478586D01*
X17863000Y-4458586D02*
X17843000Y-4478586D01*
X17883000Y-4488586D02*
X17903000Y-4508586D01*
X17903000Y-4488586D02*
X17883000Y-4508586D01*
X17887182Y-9671586D02*
X17907182Y-9691586D01*
X17907182Y-9671586D02*
X17887182Y-9691586D01*
X17923000Y-4458586D02*
X17943000Y-4478586D01*
X17943000Y-4458586D02*
X17923000Y-4478586D01*
X17936364Y-9671586D02*
X17956364Y-9691586D01*
X17956364Y-9671586D02*
X17936364Y-9691586D01*
X17963000Y-4488586D02*
X17983000Y-4508586D01*
X17983000Y-4488586D02*
X17963000Y-4508586D01*
X17985545Y-9671586D02*
X18005545Y-9691586D01*
X18005545Y-9671586D02*
X17985545Y-9691586D01*
X18034727Y-9671586D02*
X18054727Y-9691586D01*
X18054727Y-9671586D02*
X18034727Y-9691586D01*
X18063000Y-4508586D02*
X18083000Y-4528586D01*
X18083000Y-4508586D02*
X18063000Y-4528586D01*
X18263000Y-4508586D02*
X18283000Y-4528586D01*
X18283000Y-4508586D02*
X18263000Y-4528586D01*
X18388000Y-4498586D02*
X18408000Y-4518586D01*
X18408000Y-4498586D02*
X18388000Y-4518586D01*
X18463000Y-4508586D02*
X18483000Y-4528586D01*
X18483000Y-4508586D02*
X18463000Y-4528586D01*
X18663000Y-4308586D02*
X18683000Y-4328586D01*
X18683000Y-4308586D02*
X18663000Y-4328586D01*
X18663000Y-4508586D02*
X18683000Y-4528586D01*
X18683000Y-4508586D02*
X18663000Y-4528586D01*
X18663000Y-4708586D02*
X18683000Y-4728586D01*
X18683000Y-4708586D02*
X18663000Y-4728586D01*
D11*
X9659619Y-15921226D02*
X9659619Y-15721226D01*
X9707238Y-15721226D01*
X9735810Y-15730750D01*
X9754857Y-15749798D01*
X9764381Y-15768845D01*
X9773905Y-15806940D01*
X9773905Y-15835512D01*
X9764381Y-15873607D01*
X9754857Y-15892655D01*
X9735810Y-15911702D01*
X9707238Y-15921226D01*
X9659619Y-15921226D01*
X9859619Y-15921226D02*
X9859619Y-15787893D01*
X9859619Y-15825988D02*
X9869143Y-15806940D01*
X9878667Y-15797417D01*
X9897714Y-15787893D01*
X9916762Y-15787893D01*
X9983429Y-15921226D02*
X9983429Y-15787893D01*
X9983429Y-15721226D02*
X9973905Y-15730750D01*
X9983429Y-15740274D01*
X9992952Y-15730750D01*
X9983429Y-15721226D01*
X9983429Y-15740274D01*
X10107238Y-15921226D02*
X10088190Y-15911702D01*
X10078667Y-15892655D01*
X10078667Y-15721226D01*
X10212000Y-15921226D02*
X10192952Y-15911702D01*
X10183429Y-15892655D01*
X10183429Y-15721226D01*
X10440571Y-15921226D02*
X10440571Y-15721226D01*
X10507238Y-15864083D01*
X10573905Y-15721226D01*
X10573905Y-15921226D01*
X10754857Y-15921226D02*
X10754857Y-15816464D01*
X10745333Y-15797417D01*
X10726286Y-15787893D01*
X10688190Y-15787893D01*
X10669143Y-15797417D01*
X10754857Y-15911702D02*
X10735810Y-15921226D01*
X10688190Y-15921226D01*
X10669143Y-15911702D01*
X10659619Y-15892655D01*
X10659619Y-15873607D01*
X10669143Y-15854559D01*
X10688190Y-15845036D01*
X10735810Y-15845036D01*
X10754857Y-15835512D01*
X10850095Y-15787893D02*
X10850095Y-15987893D01*
X10850095Y-15797417D02*
X10869143Y-15787893D01*
X10907238Y-15787893D01*
X10926286Y-15797417D01*
X10935810Y-15806940D01*
X10945333Y-15825988D01*
X10945333Y-15883131D01*
X10935810Y-15902178D01*
X10926286Y-15911702D01*
X10907238Y-15921226D01*
X10869143Y-15921226D01*
X10850095Y-15911702D01*
X11031048Y-15902178D02*
X11040571Y-15911702D01*
X11031048Y-15921226D01*
X11021524Y-15911702D01*
X11031048Y-15902178D01*
X11031048Y-15921226D01*
X11031048Y-15797417D02*
X11040571Y-15806940D01*
X11031048Y-15816464D01*
X11021524Y-15806940D01*
X11031048Y-15797417D01*
X11031048Y-15816464D01*
D12*
X9382000Y-16240750D02*
X9402000Y-16260750D01*
X9402000Y-16240750D02*
X9382000Y-16260750D01*
D11*
X9697714Y-16141226D02*
X9716762Y-16141226D01*
X9735810Y-16150750D01*
X9745333Y-16160274D01*
X9754857Y-16179321D01*
X9764381Y-16217417D01*
X9764381Y-16265036D01*
X9754857Y-16303131D01*
X9745333Y-16322178D01*
X9735810Y-16331702D01*
X9716762Y-16341226D01*
X9697714Y-16341226D01*
X9678667Y-16331702D01*
X9669143Y-16322178D01*
X9659619Y-16303131D01*
X9650095Y-16265036D01*
X9650095Y-16217417D01*
X9659619Y-16179321D01*
X9669143Y-16160274D01*
X9678667Y-16150750D01*
X9697714Y-16141226D01*
X9850095Y-16322178D02*
X9859619Y-16331702D01*
X9850095Y-16341226D01*
X9840571Y-16331702D01*
X9850095Y-16322178D01*
X9850095Y-16341226D01*
X9935810Y-16160274D02*
X9945333Y-16150750D01*
X9964381Y-16141226D01*
X10012000Y-16141226D01*
X10031048Y-16150750D01*
X10040571Y-16160274D01*
X10050095Y-16179321D01*
X10050095Y-16198369D01*
X10040571Y-16226940D01*
X9926286Y-16341226D01*
X10050095Y-16341226D01*
X10173905Y-16141226D02*
X10192952Y-16141226D01*
X10212000Y-16150750D01*
X10221524Y-16160274D01*
X10231048Y-16179321D01*
X10240571Y-16217417D01*
X10240571Y-16265036D01*
X10231048Y-16303131D01*
X10221524Y-16322178D01*
X10212000Y-16331702D01*
X10192952Y-16341226D01*
X10173905Y-16341226D01*
X10154857Y-16331702D01*
X10145333Y-16322178D01*
X10135810Y-16303131D01*
X10126286Y-16265036D01*
X10126286Y-16217417D01*
X10135810Y-16179321D01*
X10145333Y-16160274D01*
X10154857Y-16150750D01*
X10173905Y-16141226D01*
X10364381Y-16141226D02*
X10383429Y-16141226D01*
X10402476Y-16150750D01*
X10412000Y-16160274D01*
X10421524Y-16179321D01*
X10431048Y-16217417D01*
X10431048Y-16265036D01*
X10421524Y-16303131D01*
X10412000Y-16322178D01*
X10402476Y-16331702D01*
X10383429Y-16341226D01*
X10364381Y-16341226D01*
X10345333Y-16331702D01*
X10335810Y-16322178D01*
X10326286Y-16303131D01*
X10316762Y-16265036D01*
X10316762Y-16217417D01*
X10326286Y-16179321D01*
X10335810Y-16160274D01*
X10345333Y-16150750D01*
X10364381Y-16141226D01*
X10516762Y-16341226D02*
X10516762Y-16207893D01*
X10516762Y-16226940D02*
X10526286Y-16217417D01*
X10545333Y-16207893D01*
X10573905Y-16207893D01*
X10592952Y-16217417D01*
X10602476Y-16236464D01*
X10602476Y-16341226D01*
X10602476Y-16236464D02*
X10612000Y-16217417D01*
X10631048Y-16207893D01*
X10659619Y-16207893D01*
X10678667Y-16217417D01*
X10688190Y-16236464D01*
X10688190Y-16341226D01*
X10783429Y-16341226D02*
X10783429Y-16207893D01*
X10783429Y-16226940D02*
X10792952Y-16217417D01*
X10812000Y-16207893D01*
X10840571Y-16207893D01*
X10859619Y-16217417D01*
X10869143Y-16236464D01*
X10869143Y-16341226D01*
X10869143Y-16236464D02*
X10878667Y-16217417D01*
X10897714Y-16207893D01*
X10926286Y-16207893D01*
X10945333Y-16217417D01*
X10954857Y-16236464D01*
X10954857Y-16341226D01*
X11345333Y-16131702D02*
X11173905Y-16388845D01*
X11602476Y-16141226D02*
X11621524Y-16141226D01*
X11640571Y-16150750D01*
X11650095Y-16160274D01*
X11659619Y-16179321D01*
X11669143Y-16217417D01*
X11669143Y-16265036D01*
X11659619Y-16303131D01*
X11650095Y-16322178D01*
X11640571Y-16331702D01*
X11621524Y-16341226D01*
X11602476Y-16341226D01*
X11583428Y-16331702D01*
X11573905Y-16322178D01*
X11564381Y-16303131D01*
X11554857Y-16265036D01*
X11554857Y-16217417D01*
X11564381Y-16179321D01*
X11573905Y-16160274D01*
X11583428Y-16150750D01*
X11602476Y-16141226D01*
X11754857Y-16322178D02*
X11764381Y-16331702D01*
X11754857Y-16341226D01*
X11745333Y-16331702D01*
X11754857Y-16322178D01*
X11754857Y-16341226D01*
X11888190Y-16141226D02*
X11907238Y-16141226D01*
X11926286Y-16150750D01*
X11935809Y-16160274D01*
X11945333Y-16179321D01*
X11954857Y-16217417D01*
X11954857Y-16265036D01*
X11945333Y-16303131D01*
X11935809Y-16322178D01*
X11926286Y-16331702D01*
X11907238Y-16341226D01*
X11888190Y-16341226D01*
X11869143Y-16331702D01*
X11859619Y-16322178D01*
X11850095Y-16303131D01*
X11840571Y-16265036D01*
X11840571Y-16217417D01*
X11850095Y-16179321D01*
X11859619Y-16160274D01*
X11869143Y-16150750D01*
X11888190Y-16141226D01*
X12078667Y-16141226D02*
X12097714Y-16141226D01*
X12116762Y-16150750D01*
X12126286Y-16160274D01*
X12135809Y-16179321D01*
X12145333Y-16217417D01*
X12145333Y-16265036D01*
X12135809Y-16303131D01*
X12126286Y-16322178D01*
X12116762Y-16331702D01*
X12097714Y-16341226D01*
X12078667Y-16341226D01*
X12059619Y-16331702D01*
X12050095Y-16322178D01*
X12040571Y-16303131D01*
X12031048Y-16265036D01*
X12031048Y-16217417D01*
X12040571Y-16179321D01*
X12050095Y-16160274D01*
X12059619Y-16150750D01*
X12078667Y-16141226D01*
X12212000Y-16141226D02*
X12345333Y-16141226D01*
X12259619Y-16341226D01*
X12431048Y-16341226D02*
X12469143Y-16341226D01*
X12488190Y-16331702D01*
X12497714Y-16322178D01*
X12516762Y-16293607D01*
X12526286Y-16255512D01*
X12526286Y-16179321D01*
X12516762Y-16160274D01*
X12507238Y-16150750D01*
X12488190Y-16141226D01*
X12450095Y-16141226D01*
X12431048Y-16150750D01*
X12421524Y-16160274D01*
X12412000Y-16179321D01*
X12412000Y-16226940D01*
X12421524Y-16245988D01*
X12431048Y-16255512D01*
X12450095Y-16265036D01*
X12488190Y-16265036D01*
X12507238Y-16255512D01*
X12516762Y-16245988D01*
X12526286Y-16226940D01*
X12602476Y-16141226D02*
X12602476Y-16179321D01*
X12678667Y-16141226D02*
X12678667Y-16179321D01*
X12973905Y-16417417D02*
X12964381Y-16407893D01*
X12945333Y-16379321D01*
X12935809Y-16360274D01*
X12926286Y-16331702D01*
X12916762Y-16284083D01*
X12916762Y-16245988D01*
X12926286Y-16198369D01*
X12935809Y-16169798D01*
X12945333Y-16150750D01*
X12964381Y-16122178D01*
X12973905Y-16112655D01*
X13154857Y-16341226D02*
X13040571Y-16341226D01*
X13097714Y-16341226D02*
X13097714Y-16141226D01*
X13078667Y-16169798D01*
X13059619Y-16188845D01*
X13040571Y-16198369D01*
X13345333Y-16341226D02*
X13231048Y-16341226D01*
X13288190Y-16341226D02*
X13288190Y-16141226D01*
X13269143Y-16169798D01*
X13250095Y-16188845D01*
X13231048Y-16198369D01*
X13535809Y-16341226D02*
X13421524Y-16341226D01*
X13478667Y-16341226D02*
X13478667Y-16141226D01*
X13459619Y-16169798D01*
X13440571Y-16188845D01*
X13421524Y-16198369D01*
X13773905Y-16341226D02*
X13773905Y-16141226D01*
X13859619Y-16341226D02*
X13859619Y-16236464D01*
X13850095Y-16217417D01*
X13831048Y-16207893D01*
X13802476Y-16207893D01*
X13783428Y-16217417D01*
X13773905Y-16226940D01*
X13983428Y-16341226D02*
X13964381Y-16331702D01*
X13954857Y-16322178D01*
X13945333Y-16303131D01*
X13945333Y-16245988D01*
X13954857Y-16226940D01*
X13964381Y-16217417D01*
X13983428Y-16207893D01*
X14012000Y-16207893D01*
X14031048Y-16217417D01*
X14040571Y-16226940D01*
X14050095Y-16245988D01*
X14050095Y-16303131D01*
X14040571Y-16322178D01*
X14031048Y-16331702D01*
X14012000Y-16341226D01*
X13983428Y-16341226D01*
X14164381Y-16341226D02*
X14145333Y-16331702D01*
X14135809Y-16312655D01*
X14135809Y-16141226D01*
X14316762Y-16331702D02*
X14297714Y-16341226D01*
X14259619Y-16341226D01*
X14240571Y-16331702D01*
X14231048Y-16312655D01*
X14231048Y-16236464D01*
X14240571Y-16217417D01*
X14259619Y-16207893D01*
X14297714Y-16207893D01*
X14316762Y-16217417D01*
X14326286Y-16236464D01*
X14326286Y-16255512D01*
X14231048Y-16274559D01*
X14402476Y-16331702D02*
X14421524Y-16341226D01*
X14459619Y-16341226D01*
X14478667Y-16331702D01*
X14488190Y-16312655D01*
X14488190Y-16303131D01*
X14478667Y-16284083D01*
X14459619Y-16274559D01*
X14431048Y-16274559D01*
X14412000Y-16265036D01*
X14402476Y-16245988D01*
X14402476Y-16236464D01*
X14412000Y-16217417D01*
X14431048Y-16207893D01*
X14459619Y-16207893D01*
X14478667Y-16217417D01*
X14554857Y-16417417D02*
X14564381Y-16407893D01*
X14583428Y-16379321D01*
X14592952Y-16360274D01*
X14602476Y-16331702D01*
X14612000Y-16284083D01*
X14612000Y-16245988D01*
X14602476Y-16198369D01*
X14592952Y-16169798D01*
X14583428Y-16150750D01*
X14564381Y-16122178D01*
X14554857Y-16112655D01*
M02*
